<?xml version="1.0" encoding="UTF-8"?>
<svg width="140px" height="140px" viewBox="0 0 140 140" version="1.1" xmlns="http://www.w3.org/2000/svg" xmlns:xlink="http://www.w3.org/1999/xlink">
    <title>pictogram/light/device/cloud/exchange</title>
    <g id="pictogram/light/device/cloud/exchange" stroke="none" stroke-width="1" fill="none" fill-rule="evenodd">
        <g id="cloud-exchange" transform="translate(-0.000000, 0.000000)">
            <path d="M140,70 C140,108.66 108.66,140 70,140 C31.34,140 0,108.66 0,70 C0,31.34 31.34,0 70,0 C108.66,0 140,31.34 140,70" id="circle" fill="#DDE4E3"></path>
            <g id="picto" transform="translate(21.850800, 20.723100)">
                <path d="M73.094,72.224 L73.278,72.224 C85.991,72.224 96.298,61.753 96.298,48.837 C96.298,37.847 88.827,28.653 78.77,26.147 C76.185,11.293 63.446,0 48.083,0 C30.855,0 16.89,14.188 16.89,31.69 C16.89,32.523 16.95,33.341 17.012,34.158 C7.47,35.063 0,43.215 0,53.146 C0,63.682 8.408,72.224 18.779,72.224 L73.094,72.224 Z" id="Fill-4" fill="#2167AE"></path>
                <path d="M52.114,62.7008 L37.791,46.6598 C37.779,46.6458 37.762,46.6378 37.75,46.6238 C37.659,46.5268 37.56,46.4408 37.453,46.3608 C37.446,46.3558 37.44,46.3488 37.433,46.3448 C37.061,46.0738 36.608,45.9088 36.113,45.9088 C35.617,45.9088 35.164,46.0738 34.792,46.3448 C34.785,46.3488 34.779,46.3558 34.772,46.3608 C34.665,46.4408 34.566,46.5268 34.475,46.6238 C34.463,46.6378 34.447,46.6458 34.434,46.6598 L20.111,62.7008 C19.283,63.6278 19.364,65.0508 20.291,65.8778 C21.218,66.7058 22.64,66.6248 23.468,65.6978 L33.863,54.0558 L33.863,88.2738 C33.863,89.5168 34.87,90.5238 36.113,90.5238 C37.355,90.5238 38.363,89.5168 38.363,88.2738 L38.363,54.0558 L48.758,65.6978 C49.202,66.1958 49.818,66.4498 50.437,66.4498 C50.97,66.4498 51.506,66.2608 51.934,65.8778 C52.862,65.0508 52.942,63.6278 52.114,62.7008" id="Fill-6" fill="#91BFE3"></path>
                <path d="M76.0091,78.5841 C75.0821,77.7561 73.6601,77.8361 72.8321,78.7641 L62.4371,90.4051 L62.4371,56.1881 C62.4371,54.9451 61.4301,53.9381 60.1871,53.9381 C58.9451,53.9381 57.9371,54.9451 57.9371,56.1881 L57.9371,90.4051 L47.5421,78.7641 C46.7151,77.8361 45.2921,77.7561 44.3651,78.5841 C43.4381,79.4121 43.3581,80.8341 44.1851,81.7611 L58.5091,97.8021 C58.5221,97.8161 58.5391,97.8271 58.5521,97.8411 C58.6171,97.9101 58.6881,97.9701 58.7601,98.0301 C58.8051,98.0671 58.8471,98.1071 58.8941,98.1401 C58.9781,98.1991 59.0681,98.2461 59.1581,98.2931 C59.2021,98.3161 59.2421,98.3431 59.2871,98.3631 C59.3951,98.4111 59.5101,98.4441 59.6271,98.4741 C59.6591,98.4831 59.6891,98.4971 59.7221,98.5041 C59.8721,98.5361 60.0281,98.5531 60.1871,98.5531 C60.3471,98.5531 60.5021,98.5361 60.6531,98.5041 C60.6851,98.4971 60.7151,98.4821 60.7471,98.4741 C60.8641,98.4441 60.9791,98.4111 61.0881,98.3631 C61.1331,98.3431 61.1731,98.3151 61.2171,98.2931 C61.3071,98.2461 61.3971,98.1991 61.4801,98.1401 C61.5271,98.1071 61.5691,98.0671 61.6141,98.0301 C61.6861,97.9701 61.7581,97.9101 61.8221,97.8411 C61.8361,97.8271 61.8521,97.8161 61.8651,97.8021 L76.1891,81.7611 C77.0161,80.8341 76.9361,79.4121 76.0091,78.5841" id="Fill-8" fill="#91BFE3"></path>
            </g>
        </g>
    </g>
</svg>