<?xml version="1.0" encoding="UTF-8"?>
<svg width="140px" height="140px" viewBox="0 0 140 140" version="1.1" xmlns="http://www.w3.org/2000/svg" xmlns:xlink="http://www.w3.org/1999/xlink">
    <title>pictogram/light/business &amp; education/claim</title>
    <g id="pictogram/light/business-&amp;-education/claim" stroke="none" stroke-width="1" fill="none" fill-rule="evenodd">
        <g id="claim">
            <path d="M140,70 C140,108.66 108.659,140 70,140 C31.34,140 0,108.66 0,70 C0,31.34 31.34,0 70,0 C108.659,0 140,31.34 140,70" id="circle" fill="#DDE4E3"></path>
            <g id="picto" transform="translate(36.140500, 27.898000)">
                <path d="M65.4552,15.7381 C65.4552,10.5311 61.2342,6.3101 56.0262,6.3101 L11.6912,6.3101 C6.4842,6.3101 2.2632,10.5311 2.2632,15.7381 L2.2842,72.5591 C2.2842,77.7411 6.4852,81.9421 11.6682,81.9421 L56.0502,81.9421 C61.2322,81.9421 65.4342,77.7411 65.4342,72.5591 L65.4552,15.7381 Z" id="Fill-4" fill="#ECEEEF"></path>
                <path d="M63.171,72.559 C63.171,76.484 59.977,79.679 56.05,79.679 L11.668,79.679 C7.742,79.679 4.547,76.484 4.547,72.558 L4.525,15.738 C4.525,11.786 7.739,8.572 11.691,8.572 L19.692,8.572 L19.692,10.586 C19.692,11.405 20.398,12.069 21.267,12.069 L46.465,12.069 C47.335,12.069 48.04,11.405 48.04,10.586 L48.04,8.572 L56.026,8.572 C59.978,8.572 63.192,11.786 63.193,15.737 L63.171,72.559 Z M56.026,4.048 L48.04,4.048 L48.04,1.482 C48.04,0.663 47.335,0 46.465,0 L21.267,0 C20.398,0 19.692,0.663 19.692,1.482 L19.692,4.048 L11.691,4.048 C5.244,4.048 0,9.292 0,15.74 L0.023,72.559 C0.023,78.979 5.247,84.204 11.668,84.204 L56.05,84.204 C62.472,84.204 67.696,78.979 67.696,72.56 L67.718,15.738 C67.718,9.292 62.474,4.048 56.026,4.048 L56.026,4.048 Z" id="Fill-6" fill="#2167AE"></path>
                <path d="M49.4151,55.4466 L34.4151,27.9466 C34.3051,27.7456 34.0951,27.6206 33.8661,27.6206 C33.6381,27.6206 33.4271,27.7456 33.3171,27.9466 L18.3171,55.4466 C18.2121,55.6406 18.2161,55.8756 18.3281,56.0646 C18.4411,56.2546 18.6451,56.3706 18.8661,56.3706 L48.8661,56.3706 C49.0871,56.3706 49.2911,56.2546 49.4031,56.0646 C49.5161,55.8756 49.5201,55.6406 49.4151,55.4466" id="Fill-8" fill="#91BFE3"></path>
                <path d="M33.8663,46.3709 C33.5203,46.3709 33.2413,46.0909 33.2413,45.7459 L33.2413,36.4199 C33.2413,36.0749 33.5203,35.7949 33.8663,35.7949 C34.2113,35.7949 34.4913,36.0749 34.4913,36.4199 L34.4913,45.7459 C34.4913,46.0909 34.2113,46.3709 33.8663,46.3709" id="Fill-10" fill="#2167AE"></path>
                <path d="M33.8663,52.6287 C33.5203,52.6287 33.2413,52.3487 33.2413,52.0037 L33.2413,49.4957 C33.2413,49.1507 33.5203,48.8707 33.8663,48.8707 C34.2113,48.8707 34.4913,49.1507 34.4913,49.4957 L34.4913,52.0037 C34.4913,52.3487 34.2113,52.6287 33.8663,52.6287" id="Fill-12" fill="#2167AE"></path>
            </g>
        </g>
    </g>
</svg>