<?xml version="1.0" encoding="UTF-8"?>
<svg width="140px" height="140px" viewBox="0 0 140 140" version="1.1" xmlns="http://www.w3.org/2000/svg" xmlns:xlink="http://www.w3.org/1999/xlink">
    <title>pictogram/light/business &amp; education/international</title>
    <g id="pictogram/light/business-&amp;-education/international" stroke="none" stroke-width="1" fill="none" fill-rule="evenodd">
        <g id="international">
            <path d="M70,0 L70,0 C108.659,0 140,31.34 140,70 C140,108.66 108.659,140 70,140 C31.34,140 0,108.66 0,70 C0,31.34 31.34,0 70,0" id="circle" fill="#DDE4E3"></path>
            <g id="picto" transform="translate(0.000000, 6.476300)">
                <path d="M131.2851,58.223 C133.7221,57.55 136.9131,55.697 139.0181,53.511 C135.6261,29.708 120.2421,9.75 99.1741,0 C99.0851,0.008 94.0651,2.487 91.9791,4.244 C90.5781,5.424 89.3331,6.781 89.8281,8.815 C90.2881,10.708 92.0741,10.349 93.4011,10.58 C95.1731,10.89 95.4521,11.78 94.8451,13.287 C94.0101,15.359 92.2541,16.382 90.3601,17.189 C88.4921,17.984 86.5131,18.529 84.6731,19.381 C83.4231,19.959 82.4741,20.764 83.1351,22.582 C84.5231,26.41 83.5751,27.58 79.3531,27.497 C77.5141,27.46 76.1151,27.854 75.9421,29.977 C75.7761,32.006 76.5141,33.44 78.6461,33.946 C80.7911,34.455 83.1971,33.334 84.6831,31.071 C85.4281,29.939 86.0401,28.692 86.9271,27.687 C89.4431,24.833 94.8661,25.554 96.5391,28.849 C97.0941,29.942 96.7561,32.154 98.6561,31.722 C100.1831,31.375 99.2411,29.512 99.4021,28.328 C99.5121,27.518 99.6601,26.738 100.6101,26.648 C101.6121,26.553 102.1941,27.241 102.4181,28.113 C102.6471,29.011 102.6981,29.954 102.8271,30.878 C103.0651,32.573 103.8491,33.195 105.3951,32.116 C106.0791,31.639 106.9211,31.225 107.4671,31.882 C109.2671,34.049 111.7161,34.058 114.1801,34.287 C115.5581,34.415 117.0041,34.935 117.0721,36.622 C117.1341,38.13 116.0361,39.069 114.7551,39.694 C112.9601,40.569 111.2971,39.824 109.6081,39.235 C107.1991,38.394 104.6411,37.27 102.3661,39.202 C100.7111,40.607 99.3341,40.364 97.7641,39.395 C96.0861,38.357 94.5581,37.168 93.7861,35.253 C93.2921,34.029 92.2671,33.195 91.0711,33.232 C86.5631,33.372 82.2561,34.603 78.0121,36.045 C77.7131,36.146 77.3811,36.418 77.2481,36.698 C75.3001,40.823 72.0881,44.058 69.5311,47.753 C69.1611,48.287 69.0561,49.019 68.8851,49.674 C67.7881,53.835 68.3071,57.941 69.5291,61.958 C71.1811,67.395 73.8611,69.212 79.5201,68.815 C81.2001,68.698 82.8581,68.254 84.5231,67.945 C90.0621,66.918 93.1751,69.376 93.3601,74.978 C93.4151,76.632 93.5921,78.357 94.7041,79.531 C97.3131,82.281 97.3791,85.18 95.9201,88.435 C94.9611,90.576 95.0931,92.693 96.3611,94.76 C97.2981,96.287 97.7821,97.992 97.9871,99.803 C98.2161,101.818 98.4921,103.853 99.0201,105.805 C100.1231,109.884 103.5011,110.84 106.7711,110.847 C108.8061,110.624 110.9651,109.918 112.3381,107.753 C115.1401,104.549 117.9861,101.391 117.8891,96.7 C117.8631,95.432 118.7221,94.51 119.8101,93.874 C123.0871,91.96 123.7581,89.004 123.1551,85.538 C122.9661,84.452 122.8141,83.358 122.5631,82.286 C121.9691,79.744 122.6411,77.585 124.4561,75.761 C126.4331,73.773 128.4881,71.859 130.4051,69.815 C132.2371,67.862 133.6891,65.636 133.5541,62.813 C133.4721,61.102 132.8761,59.817 130.6561,60.472 C129.0751,60.939 127.4201,61.156 125.1151,61.622 C127.0921,59.327 129.2321,58.79 131.2851,58.223" id="Fill-4" fill="#91BFE3"></path>
                <path d="M21.5566,13.3084 C23.8226,12.8394 25.7726,11.5824 27.9026,10.7754 C28.4976,10.5504 29.1396,9.9864 29.7646,10.6744 C30.3516,11.3204 29.9096,11.8794 29.5776,12.5034 C27.7636,15.9294 25.5706,19.1164 23.0876,22.0614 C20.2496,25.4304 15.7396,24.0904 15.1576,20.2084 C15.1106,20.1994 15.0636,20.1964 15.0166,20.1874 C6.2496,31.2864 0.7816,45.1084 0.0856,60.1784 C0.1406,60.2064 0.1936,60.2374 0.2486,60.2654 C1.0696,59.9474 0.8766,59.1664 1.0576,58.5424 C1.8666,55.7484 3.4746,53.6164 6.4536,53.0694 C9.2886,52.5494 11.9006,53.0014 13.4606,55.8834 C13.6586,56.2484 13.9646,56.5674 14.2666,56.8604 C14.8436,57.4224 15.5896,57.8714 16.3206,57.4014 C17.3556,56.7354 16.3986,56.1074 16.0786,55.4994 C14.5256,52.5424 14.9856,49.7044 17.2726,47.6444 C20.8936,44.3824 23.0186,39.8644 26.7666,36.6154 C28.6306,34.9984 29.7976,32.7904 32.7266,33.1194 C33.6146,33.2184 34.4486,32.9024 34.6746,31.8764 C34.8686,30.9994 34.3826,30.4604 33.6546,30.0344 C32.8486,29.5624 31.8866,29.0444 32.3516,27.8894 C32.7786,26.8284 33.8606,26.9724 34.7856,26.9384 C35.2086,26.9234 35.6356,26.9724 36.0576,26.9384 C38.7436,26.7214 40.5586,24.3484 40.1886,21.5574 C39.6796,17.7274 37.4446,15.4544 34.6166,16.1434 C32.8436,16.5754 31.8096,15.8874 30.5766,14.4524 C31.2426,14.4524 31.5736,14.4084 31.8886,14.4594 C35.2846,14.9974 37.8756,13.9954 38.6156,11.8424 C39.4676,9.3594 38.1606,6.6574 35.2326,4.8914 C34.6646,4.5504 34.0196,4.3184 33.7096,3.6674 C29.2476,6.3714 25.1156,9.5634 21.3796,13.1654 C21.4406,13.2124 21.4926,13.2614 21.5566,13.3084" id="Fill-6" fill="#91BFE3"></path>
                <path d="M58.915,81.8056 C57.639,81.1716 56.292,80.7106 54.825,80.4816 C51.841,80.0176 48.391,80.2436 46.259,77.8156 C43.955,75.1896 41.892,72.6976 37.973,73.1636 C37.769,73.1876 37.493,72.9696 37.318,72.7966 C33.96,69.4626 29.843,70.1976 25.799,70.6856 C23.712,70.9366 21.517,70.9526 19.767,72.3836 C16.999,74.6466 14.088,73.8646 12.775,70.4346 C12.337,69.2896 11.842,67.9936 10.579,67.8576 C7.958,67.5746 8.558,66.2326 9.256,64.6986 C9.637,63.8626 10.193,63.0006 9.152,62.2086 C8.09,61.3996 7.25,61.9936 6.421,62.6326 C6.221,62.7866 6.047,62.9776 5.87,63.1616 C2.723,66.4546 2.55,66.4536 0.221,63.1136 C0.146,63.1166 0.077,63.1246 0.004,63.1286 C0.003,63.2376 0,63.3446 0,63.4536 C0,65.9576 0.134,68.4296 0.391,70.8656 C0.439,70.8706 0.483,70.8776 0.531,70.8816 C4.973,71.0916 9.284,71.5816 12.676,75.0076 C13.749,76.0916 15.25,76.4706 16.867,76.5406 C19.269,76.6436 20.681,78.6096 19.619,80.4946 C16.733,85.6166 18.913,89.9186 21.541,94.1846 C22.856,96.3196 24.765,97.9176 26.906,99.1296 C31.58,101.7736 34.262,105.5376 34.949,110.9896 C35.539,115.6666 36.774,120.2626 37.724,124.8946 C37.751,125.1186 37.791,125.3366 37.834,125.5536 C41.271,127.3296 44.877,128.8276 48.618,130.0206 C48.568,129.8276 48.506,129.6266 48.426,129.4146 C47.566,126.7226 48.051,124.2786 49.561,121.9006 C51.363,119.0616 51.802,115.5346 54.107,112.9016 C54.901,111.9956 54.683,110.6186 54.632,109.4376 C54.528,107.0256 55.428,105.2986 57.468,103.8716 C61.35,101.1576 62.08,98.8216 60.761,94.2846 C60.254,92.5426 60.42,91.0446 61.307,89.4356 C63.026,86.3166 62.076,83.3756 58.915,81.8056" id="Fill-8" fill="#91BFE3"></path>
                <path d="M93.6884,103.2556 C93.0404,102.4436 92.3854,101.7556 91.7274,101.1536 C91.6654,101.0946 91.6014,101.0436 91.5384,100.9866 C91.3684,100.8356 91.1984,100.6806 91.0274,100.5426 C89.6854,99.4216 88.3254,98.6906 86.9494,98.2056 C85.8604,97.8206 84.7604,97.5926 83.6544,97.4606 C82.9024,97.3696 82.1444,97.3206 81.3854,97.2966 C80.4544,97.2656 79.5164,97.2674401 78.5774,97.2674401 L64.6064,97.2696 L54.8344,97.2706 L53.1194,97.2674401 C48.8694,97.2674401 44.6854,97.1886 40.6684,100.5426 C40.4994,100.6806 40.3284,100.8356 40.1594,100.9866 C40.0954,101.0436 40.0324,101.0946 39.9684,101.1536 C39.3114,101.7556 38.6574,102.4436 38.0084,103.2556 C37.7364,103.5966 37.4044,104.0966 37.0424,104.6736 C35.6634,106.6866 33.1284,113.9246 30.6584,121.4306 C42.7004,129.3636 55.4734,133.5236 70.0914,133.5236 C77.4924,133.5236 84.6204,132.3636 91.3134,130.2316 C95.1254,129.0176 98.7834,127.4686 102.2794,125.6506 C99.4374,116.7526 96.2634,107.0226 94.6534,104.6736 C94.2924,104.0966 93.9604,103.5966 93.6884,103.2556" id="Fill-10" fill="#2167AE"></path>
                <path d="M65.8711,53.7346 C55.8491,53.7346 47.7251,62.4556 47.7251,73.2146 C47.7251,80.6336 51.5901,87.0826 57.2751,90.3716 C57.2951,90.2786 57.3161,90.1826 57.3351,90.0946 C57.5581,89.0466 57.2151,88.0606 56.5111,87.3286 C52.6401,83.3056 52.4791,78.1276 52.5131,72.8786 C53.2401,68.4416 59.8081,65.7626 64.4021,67.7896 C68.7781,69.7196 72.9981,72.1876 77.9331,72.1606 C78.3231,72.1586 78.5931,72.2246 78.7791,72.3666 C79.0211,72.5506 79.1221,72.8646 79.1361,73.3546 C79.1491,73.8776 79.1501,74.3976 79.1421,74.9166 C79.1541,74.9126 79.1661,74.9116 79.1781,74.9076 C79.1661,74.9116 79.1541,74.9166 79.1421,74.9196 C79.0961,78.0696 78.6321,81.1406 77.4081,84.0746 C76.9071,85.2766 76.1241,86.2396 75.2621,87.1476 C74.3791,88.0756 74.0711,89.1596 74.3181,90.4376 C79.8001,87.3306 83.6151,81.2976 83.9671,74.2676 C83.9841,73.9166 84.0171,73.5696 84.0171,73.2146 C84.0171,62.4556 75.8921,53.7346 65.8711,53.7346" id="Fill-12" fill="#23366F"></path>
                <path d="M79.1357,73.3543 C79.1217,72.8643 79.0217,72.5503 78.7797,72.3663 C78.5927,72.2253 78.3237,72.1583 77.9327,72.1603 C72.9977,72.1873 68.7787,69.7203 64.4027,67.7903 C59.8077,65.7633 53.2397,68.4413 52.5127,72.8783 C52.4797,78.1273 52.6397,83.3053 56.5107,87.3293 C57.2147,88.0613 57.5577,89.0463 57.3347,90.0953 C57.3167,90.1823 57.2947,90.2783 57.2757,90.3723 C56.7367,92.8693 55.6717,97.3503 55.6717,97.3503 C55.6717,97.3503 58.4217,104.5193 65.8797,104.5193 C73.3387,104.5193 75.8897,97.3493 75.8897,97.3493 C75.8897,97.3493 75.8827,97.3163 75.8717,97.2683 C75.7407,96.6823 74.8597,92.7243 74.3637,90.6743 C74.3437,90.5933 74.3327,90.5173 74.3187,90.4373 C74.0717,89.1593 74.3787,88.0763 75.2617,87.1473 C76.1237,86.2393 76.9067,85.2763 77.4077,84.0753 C78.6317,81.1403 79.0957,78.0703 79.1427,74.9193 L79.1427,74.9163 C79.1507,74.3973 79.1497,73.8773 79.1357,73.3543" id="Fill-14" fill="#91BFE3"></path>
                <path d="M128.2177,81.6487 C127.8577,81.0707 127.5257,80.5707 127.2527,80.2297 C126.6047,79.4187 125.9497,78.7297 125.2917,78.1277 C125.2297,78.0687 125.1657,78.0187 125.1027,77.9607 C124.9327,77.8097 124.7627,77.6547 124.5927,77.5167 C123.2507,76.3967 121.8897,75.6647 120.5137,75.1797 C119.4247,74.7957 118.3257,74.5677 117.2197,74.4347 C116.4667,74.3437 115.7097,74.2947 114.9497,74.2707 C114.0187,74.2397 113.0817,74.2416739 112.1417,74.2416739 L88.3997,74.2447 L86.6847,74.2416739 C85.7757,74.2416739 84.8687,74.2407 83.9667,74.2677 C83.6147,81.2977 79.7997,87.3307 74.3187,90.4377 C74.3327,90.5167 74.3437,90.5937 74.3637,90.6737 C74.8597,92.7237 75.7407,96.6817 75.8717,97.2687 L78.5767,97.2677 C79.5167,97.2677 80.4537,97.2657 81.3857,97.2957 C82.1447,97.3207 82.9027,97.3697 83.6547,97.4607 C84.7607,97.5927 85.8607,97.8207 86.9487,98.2057 C88.3247,98.6907 89.6857,99.4217 91.0277,100.5427 C91.1977,100.6807 91.3677,100.8357 91.5377,100.9867 C91.6017,101.0437 91.6647,101.0947 91.7277,101.1537 C92.3857,101.7557 93.0397,102.4437 93.6887,103.2557 C93.9607,103.5967 94.2927,104.0967 94.6537,104.6737 C96.2637,107.0227 99.4377,116.7527 102.2797,125.6507 C115.6387,118.7017 126.4817,107.5827 133.0407,93.9927 C131.1097,88.1977 129.3067,83.2357 128.2177,81.6487" id="Fill-16" fill="#5495CF"></path>
                <path d="M117.581,50.189 C117.581,60.948 109.457,69.669 99.435,69.669 C89.414,69.669 81.289,60.948 81.289,50.189 C81.289,39.43 89.414,30.709 99.435,30.709 C109.457,30.709 117.581,39.43 117.581,50.189" id="Fill-18" fill="#23366F"></path>
                <path d="M109.4541,74.3231 C109.4541,74.3231 108.4651,69.8651 107.9281,67.6481 C107.5921,66.2651 107.8891,65.1081 108.8261,64.1221 C109.6881,63.2141 110.4721,62.2511 110.9731,61.0491 C112.3981,57.6301 112.7981,54.0281 112.7001,50.3291 C112.6871,49.8391 112.5861,49.5251 112.3441,49.3411 C112.1571,49.1991 111.8881,49.1321 111.4971,49.1351 C106.5621,49.1621 102.3431,46.6941 97.9671,44.7641 C93.3721,42.7371 86.8061,45.4161 86.0771,49.8521 C86.0441,55.1011 86.2041,60.2801 90.0751,64.3031 C90.7791,65.0351 91.1221,66.0211 90.8991,67.0691 C90.3841,69.4971 89.2361,74.3251 89.2361,74.3251 C89.2361,74.3251 91.9861,81.4931 99.4441,81.4931 C106.9031,81.4931 109.4541,74.3231 109.4541,74.3231" id="Fill-20" fill="#2167AE"></path>
            </g>
        </g>
    </g>
</svg>