<?xml version="1.0" encoding="UTF-8"?>
<svg width="140px" height="140px" viewBox="0 0 140 140" version="1.1" xmlns="http://www.w3.org/2000/svg" xmlns:xlink="http://www.w3.org/1999/xlink">
    <title>pictogram/light/business &amp; education/support</title>
    <g id="pictogram/light/business-&amp;-education/support" stroke="none" stroke-width="1" fill="none" fill-rule="evenodd">
        <g id="support" transform="translate(0.000000, -0.000400)">
            <path d="M70,0 C31.34,0 0,31.34 0,70 C0,84.803 4.606,98.523 12.448,109.832 C25.085,128.056 46.143,140 70,140 C93.856,140 114.914,128.056 127.552,109.832 C135.393,98.523 140,84.803 140,70 C140,31.34 108.66,0 70,0" id="circle" fill="#DDE4E3"></path>
            <g id="picto" transform="translate(29.863000, 9.583000)">
                <path d="M72.428,101.9944 C72.014,101.3294 71.631,100.7544 71.318,100.3624 C70.572,99.4284 69.819,98.6364 69.062,97.9434 C68.99,97.8754 68.916,97.8174 68.844,97.7514 C68.649,97.5774 68.452,97.3994 68.256,97.2404 C66.712,95.9504 65.147,95.1094 63.564,94.5514 C62.31,94.1094 61.046,93.8464 59.773,93.6934 C58.907,93.5894 58.035,93.5334 57.162,93.5044 C56.089,93.4704 55.012,93.4722154 53.931,93.4722154 L37.855,93.4734 L26.611,93.4754 L24.638,93.4722154 C19.747,93.4722154 14.934,93.3814 10.312,97.2404 C10.115,97.3994 9.92,97.5774 9.725,97.7514 C9.653,97.8174 9.578,97.8754 9.506,97.9434 C8.749,98.6364 7.996,99.4284 7.25,100.3624 C6.937,100.7544 6.555,101.3294 6.14,101.9944 C4.77,103.9924 2.441,110.4024 0,117.6704 C0.248,117.9034 0.509,118.1234 0.761,118.3524 C11.98,126.0004 25.534,130.4764 40.137,130.4764 C54.379,130.4764 67.62,126.2114 78.675,118.9054 C78.726,118.8604 78.779,118.8194 78.829,118.7744 C76.294,111.0384 73.839,104.0524 72.428,101.9944" id="Fill-4" fill="#2167AE"></path>
                <path d="M60.1887,65.796 C60.1887,78.175 50.8407,88.211 39.3097,88.211 C27.7787,88.211 18.4307,78.175 18.4307,65.796 C18.4307,53.417 27.7787,43.381 39.3097,43.381 C50.8407,43.381 60.1887,53.417 60.1887,65.796" id="Fill-6" fill="#23366F"></path>
                <path d="M50.8382,93.5656 C50.8382,93.5656 49.6992,88.4366 49.0812,85.8856 C48.6952,84.2936 49.0362,82.9616 50.1152,81.8276 C51.1082,80.7826 52.0082,79.6746 52.5852,78.2926 C54.2262,74.3586 54.6852,70.2136 54.5722,65.9566 C54.5582,65.3936 54.4422,65.0316 54.1622,64.8196 C53.9472,64.6566 53.6392,64.5806 53.1892,64.5826 C47.5102,64.6136 42.6552,61.7746 37.6202,59.5536 C32.3332,57.2216 24.7772,60.3036 23.9392,65.4086 C23.9012,71.4486 24.0862,77.4066 28.5402,82.0366 C29.3512,82.8786 29.7432,84.0126 29.4872,85.2196 C28.8952,88.0126 27.5742,93.5676 27.5742,93.5676 C27.5742,93.5676 30.7382,101.8156 39.3202,101.8156 C47.9032,101.8156 50.8382,93.5656 50.8382,93.5656" id="Fill-8" fill="#5495CF"></path>
                <path d="M48.8216,0 L40.3756,0 C40.2946,0 40.2146,0.008 40.1366,0.023 C40.0596,0.008 39.9796,0 39.8986,0 L31.4516,0 C22.7256,0 15.6266,7.099 15.6266,15.826 C15.6266,24.552 22.7256,31.651 31.4516,31.651 L34.3446,31.651 L39.0166,36.301 C39.2516,36.535 39.5686,36.666 39.8986,36.666 L39.9156,36.666 C40.2526,36.661 40.5726,36.521 40.8036,36.277 L45.2086,31.651 L48.8216,31.651 C57.5476,31.651 64.6466,24.551 64.6466,15.825 C64.6466,7.099 57.5476,0 48.8216,0" id="Fill-10" fill="#2167AE"></path>
                <path d="M49.8274,10.1337 L29.0024,10.1337 C28.3114,10.1337 27.7524,9.5737 27.7524,8.8837 C27.7524,8.1937 28.3114,7.6337 29.0024,7.6337 L49.8274,7.6337 C50.5174,7.6337 51.0774,8.1937 51.0774,8.8837 C51.0774,9.5737 50.5174,10.1337 49.8274,10.1337" id="Fill-12" fill="#ECEEEF"></path>
                <path d="M49.8274,17.0651 L29.0024,17.0651 C28.3114,17.0651 27.7524,16.5051 27.7524,15.8151 C27.7524,15.1251 28.3114,14.5651 29.0024,14.5651 L49.8274,14.5651 C50.5174,14.5651 51.0774,15.1251 51.0774,15.8151 C51.0774,16.5051 50.5174,17.0651 49.8274,17.0651" id="Fill-14" fill="#ECEEEF"></path>
                <path d="M39.4143,24.0174 L39.4143,24.0174 L29.0023,24.0174 C28.3113,24.0174 27.7523,23.4574 27.7523,22.7674 C27.7523,22.0764 28.3113,21.5174 29.0023,21.5174 L39.4143,21.5174 C40.1043,21.5174 40.6643,22.0774 40.6643,22.7674 C40.6643,23.4574 40.1043,24.0174 39.4143,24.0174" id="Fill-16" fill="#ECEEEF"></path>
            </g>
        </g>
    </g>
</svg>