<?xml version="1.0" encoding="UTF-8"?>
<svg width="140px" height="140px" viewBox="0 0 140 140" version="1.1" xmlns="http://www.w3.org/2000/svg" xmlns:xlink="http://www.w3.org/1999/xlink">
    <title>pictogram/dark/health/brain/illbeing</title>
    <g id="pictogram/dark/health/brain/illbeing" stroke="none" stroke-width="1" fill="none" fill-rule="evenodd">
        <g id="brain-illbeing" transform="translate(0.000000, -0.000200)">
            <path d="M140,70 C140,108.66 108.66,140 70,140 C31.34,140 0,108.66 0,70 C0,31.34 31.34,0 70,0 C108.66,0 140,31.34 140,70" id="circle" fill="#91BFE3"></path>
            <g id="picto" transform="translate(14.615139, 26.436425)">
                <path d="M107.822361,32.9654746 C106.214361,30.8714746 104.107361,29.3954746 101.799361,28.5504746 C102.335361,24.5554746 101.343361,20.3564746 98.6943606,16.9074746 C95.1593606,12.3054746 89.5763606,10.2204746 84.2093606,10.9204746 C83.6423606,9.74247456 82.9503606,8.60347456 82.1223606,7.52547456 C75.6463606,-0.906525442 63.5603606,-2.49152544 55.1283606,3.98447456 C55.0103606,4.07447456 54.9083606,4.17747456 54.7933606,4.27047456 C52.2003606,3.09047456 49.3283606,2.41547456 46.2933606,2.41547456 C37.2213606,2.41547456 29.5363606,8.29847456 26.8073606,16.4524746 C22.1083606,14.9614746 16.7813606,15.7074746 12.5743606,18.9384746 C7.97436061,22.4714746 5.90136061,28.0654746 6.63236061,33.4284746 C5.82536061,33.7804746 5.04436061,34.2234746 4.31536061,34.7834746 C-0.51963939,38.4974746 -1.42863939,45.4264746 2.28436061,50.2614746 C4.45836061,53.0924746 7.73636061,54.5654746 11.0493606,54.5644746 L11.0383606,54.5764746 L45.1763606,54.5764746 C44.1393606,57.0814746 44.4253606,60.0534746 46.1953606,62.3574746 C48.4123606,65.2444746 52.2393606,66.1524746 55.4453606,64.8074746 L55.4453606,64.8094746 L70.4833606,85.4664746 C70.4833606,85.4664746 70.4883606,85.4774746 70.4983606,85.4994746 C70.6613606,85.8384746 73.0863606,88.9334746 76.1693606,88.9334746 C79.9993606,88.9334746 79.2723606,85.4674746 79.2723606,85.4664746 C79.1923606,85.3854746 77.1533606,66.3454746 77.1533606,66.3454746 L77.1523606,66.3294746 C81.6553606,69.9694746 88.2153606,70.2124746 93.0093606,66.5294746 C96.8153606,63.6064746 98.5193606,58.9684746 97.8843606,54.5344746 C100.505361,54.3994746 103.113361,53.5164746 105.352361,51.7964746 C111.234361,47.2784746 112.340361,38.8474746 107.822361,32.9654746" id="Fill-4" fill="#2167AE"></path>
                <path d="M66.5406606,28.3931746 L66.5376606,28.3911746 C66.2516606,28.1871746 65.9036606,28.0841746 65.5886606,28.1111746 L60.3056606,28.1051746 L60.3656606,15.9901746 C60.3636606,15.1131746 59.7866606,14.6661746 59.2956606,14.5511746 C58.8016606,14.4301746 58.0856606,14.5671746 57.6966606,15.3461746 L48.5986606,32.9771746 C48.4136606,33.2861746 48.3446606,33.6511746 48.4026606,34.0071746 C48.4696606,34.4091746 48.6866606,34.7571746 49.0066606,34.9851746 C49.2886606,35.1911746 49.6256606,35.2841746 49.9676606,35.2751746 L55.2696606,35.2811746 L55.2566606,47.3701746 C55.2556606,48.1921746 55.7936606,48.6881746 56.3276606,48.8151746 C56.4256606,48.8381746 56.5276606,48.8501746 56.6376606,48.8511746 C57.1836606,48.8511746 57.6656606,48.5371746 57.9276606,48.0161746 L66.9596606,30.4031746 C67.3636606,29.7241746 67.1836606,28.8601746 66.5406606,28.3931746" id="Fill-6" fill="#DAD2BD"></path>
            </g>
        </g>
    </g>
</svg>