<?xml version="1.0" encoding="UTF-8"?>
<svg width="140px" height="140px" viewBox="0 0 140 140" version="1.1" xmlns="http://www.w3.org/2000/svg" xmlns:xlink="http://www.w3.org/1999/xlink">
    <title>pictogram/dark/health/brain/neutral</title>
    <g id="pictogram/dark/health/brain/neutral" stroke="none" stroke-width="1" fill="none" fill-rule="evenodd">
        <g id="brain-neutral" transform="translate(-0.000200, -0.000100)">
            <path d="M140,70 C140,108.66 108.66,140 70,140 C31.34,140 0,108.66 0,70 C0,31.34 31.34,0 70,0 C108.66,0 140,31.34 140,70" id="circle" fill="#91BFE3"></path>
            <g id="picto" transform="translate(14.699266, 26.435899)" fill="#2167AE">
                <path d="M107.822734,32.9659008 C106.214734,30.8719008 104.106734,29.3959008 101.798734,28.5509008 C102.334734,24.5559008 101.342734,20.3569008 98.6937338,16.9069008 C95.1597338,12.3059008 89.5767338,10.2209008 84.2097338,10.9209008 C83.6427338,9.74290079 82.9497338,8.60390079 82.1227338,7.52590079 C75.6457338,-0.906099212 63.5607338,-2.49209921 55.1287338,3.98490079 C55.0107338,4.07490079 54.9077338,4.17790079 54.7937338,4.27090079 C52.1997338,3.09090079 49.3287338,2.41590079 46.2937338,2.41590079 C37.2207338,2.41590079 29.5367338,8.29890079 26.8067338,16.4529008 C22.1077338,14.9619008 16.7817338,15.7079008 12.5747338,18.9389008 C7.97373381,22.4719008 5.90173381,28.0659008 6.63173381,33.4289008 C5.82473381,33.7809008 5.04473381,34.2239008 4.31473381,34.7839008 C-0.520266191,38.4979008 -1.42826619,45.4269008 2.28473381,50.2619008 C4.45873381,53.0929008 7.73573381,54.5659008 11.0487338,54.5649008 L11.0387338,54.5769008 L45.1757338,54.5769008 C44.1397338,57.0819008 44.4257338,60.0539008 46.1957338,62.3579008 C48.4117338,65.2449008 52.2397338,66.1529008 55.4457338,64.8079008 L55.4447338,64.8099008 L70.4837338,85.4669008 C70.4837338,85.4669008 70.4887338,85.4779008 70.4987338,85.4989008 C70.6617338,85.8389008 73.0857338,88.9339008 76.1697338,88.9339008 C79.9997338,88.9339008 79.2727338,85.4679008 79.2727338,85.4669008 C79.1917338,85.3859008 77.1537338,66.3459008 77.1537338,66.3459008 L77.1517338,66.3299008 C81.6557338,69.9699008 88.2147338,70.2129008 93.0097338,66.5299008 C96.8157338,63.6069008 98.5187338,58.9689008 97.8847338,54.5349008 C100.505734,54.3999008 103.113734,53.5169008 105.351734,51.7969008 C111.234734,47.2789008 112.340734,38.8479008 107.822734,32.9659008" id="Fill-4"></path>
            </g>
        </g>
    </g>
</svg>