<?xml version="1.0" encoding="UTF-8"?>
<svg width="140px" height="140px" viewBox="0 0 140 140" version="1.1" xmlns="http://www.w3.org/2000/svg" xmlns:xlink="http://www.w3.org/1999/xlink">
    <title>pictogram/dark/environment/warming/globe/heat</title>
    <defs>
        <path d="M7.10542736e-15,32.172 C7.10542736e-15,49.94 14.405,64.344 32.173,64.344 L32.173,64.344 C49.94,64.344 64.345,49.94 64.345,32.172 L64.345,32.172 C64.345,14.404 49.94,0 32.173,0 L32.173,0 C14.405,0 7.10542736e-15,14.404 7.10542736e-15,32.172 L7.10542736e-15,32.172 Z" id="path-1"></path>
    </defs>
    <g id="pictogram/dark/environment/warming/globe/heat" stroke="none" stroke-width="1" fill="none" fill-rule="evenodd">
        <g id="warming-globe-heat">
            <path d="M140,70 C140,108.66 108.66,140 70,140 C31.34,140 0,108.66 0,70 C0,31.34 31.34,0 70,0 C108.66,0 140,31.34 140,70" id="circle" fill="#91BFE3"></path>
            <g id="picto" transform="translate(27.516575, 22.130255)">
                <g id="Group" transform="translate(40.279796, 4.787845)">
                    <path d="M22.9175289,0 C18.1275289,9.572 27.7715289,9.69 22.9175289,19.147 L15.7365289,19.147 C20.5905289,9.69 10.9475289,9.572 15.7365289,0 L22.9175289,0 Z" id="Fill-5" fill="#5495CF"></path>
                    <path d="M15.7368289,0 C10.9478289,9.572 20.5908289,9.69 15.7368289,19.147 L8.55682886,19.147 C13.4098289,9.69 3.76682886,9.572 8.55682886,0 L15.7368289,0 Z" id="Fill-7" fill="#2167AE"></path>
                    <path d="M8.55662886,0 C3.76662886,9.572 13.4106289,9.69 8.55662886,19.147 L1.37562886,19.147 C6.22962886,9.69 -3.41337114,9.572 1.37562886,0 L8.55662886,0 Z" id="Fill-9" fill="#5495CF"></path>
                </g>
                <g id="Group-17">
                    <path d="M31.1157249,60.6361446 L31.1157249,12.2031446 C31.1157249,5.49314463 25.6237249,-0.125855367 18.9147249,0.00214463322 C12.4127249,0.126144633 7.18072495,5.43614463 7.18072495,11.9671446 L7.18072495,60.6361446 C7.18072495,61.2641446 6.90872495,61.8581446 6.43972495,62.2751446 C2.27372495,65.9751446 -0.269275051,71.4621446 0.0227249486,77.5371446 C0.505724949,87.5661446 8.83372495,95.5961446 18.8717249,95.7371446 C29.5737249,95.8881446 38.2957249,87.2581446 38.2957249,76.5911446 C38.2957249,70.8951446 35.8057249,65.7831446 31.8577249,62.2761446 C31.3877249,61.8591446 31.1157249,61.2641446 31.1157249,60.6361446" id="Fill-3" fill="#5495CF"></path>
                    <path d="M23.9678249,67.0154446 L23.9578249,28.7214446 L14.3428249,28.7214446 L14.3428249,67.0324446 C14.3428249,67.6214446 14.0388249,68.1594446 13.5538249,68.4954446 C10.9458249,70.3014446 9.25082495,73.3324446 9.30782495,76.7584446 C9.39182495,81.8414446 13.4448249,86.0974446 18.5178249,86.4134446 C24.2388249,86.7694446 28.9898249,82.2354446 28.9898249,76.5914446 C28.9898249,73.2254446 27.2998249,70.2564446 24.7218249,68.4824446 C24.2428249,68.1514446 23.9678249,67.5974446 23.9678249,67.0154446" id="Fill-11" fill="#DAD2BD"></path>
                    <path d="M23.9536249,11.9763446 C23.9536249,9.32234463 21.8016249,7.17134463 19.1476249,7.17134463 C16.4946249,7.17134463 14.3426249,9.32234463 14.3426249,11.9763446 L14.3426249,28.7213446 L23.9576249,28.7213446 L23.9536249,11.9763446 Z" id="Fill-13" fill="#91BFE3"></path>
                </g>
                <g id="Group-2" transform="translate(20.622425, 28.505445)">
                    <path d="M64.3444,32.2751 C64.3444,14.5071 49.9404,0.1031 32.1724,0.1031 C14.4044,0.1031 0.0004,14.5071 0.0004,32.2751 C0.0004,50.0431 14.4044,64.4471 32.1724,64.4471 C49.9404,64.4471 64.3444,50.0431 64.3444,32.2751" id="Fill-15" fill="#2167AE"></path>
                    <g id="Group-27" transform="translate(9.171500, 0.000000)" fill="#5495CF">
                        <path d="M23.001,1.757 C20.369,1.757 16.697,13.363 16.697,32.264 C16.697,51.165 20.369,62.771 23.001,62.771 C25.633,62.771 29.305,51.165 29.305,32.264 C29.305,13.363 25.633,1.757 23.001,1.757 M23.001,64.528 C17.709,64.528 14.94,48.298 14.94,32.264 C14.94,16.23 17.709,0 23.001,0 C28.293,0 31.062,16.23 31.062,32.264 C31.062,48.298 28.293,64.528 23.001,64.528" id="Fill-23"></path>
                        <path d="M23.001,1.757 C11.287,1.757 1.757,15.442 1.757,32.264 C1.757,49.086 11.287,62.771 23.001,62.771 C34.715,62.771 44.245,49.086 44.245,32.264 C44.245,15.442 34.715,1.757 23.001,1.757 M23.001,64.528 C10.318,64.528 0,50.055 0,32.264 C0,14.473 10.318,0 23.001,0 C35.684,0 46.002,14.473 46.002,32.264 C46.002,50.055 35.684,64.528 23.001,64.528" id="Fill-25"></path>
                    </g>
                    <g id="Group-33" transform="translate(0.000000, 0.103300)">
                        <mask id="mask-2" fill="white">
                            <use xlink:href="#path-1"></use>
                        </mask>
                        <g id="Clip-29"></g>
                        <polygon id="Fill-28" fill="#5495CF" mask="url(#mask-2)" points="3.416 16.965 60.967 16.965 60.967 15.208 3.416 15.208"></polygon>
                        <polygon id="Fill-30" fill="#5495CF" mask="url(#mask-2)" points="3.472 49.136 60.777 49.136 60.777 47.379 3.472 47.379"></polygon>
                        <polygon id="Fill-31" fill="#5495CF" mask="url(#mask-2)" points="-0.51 33.094 10.157 33.094 10.157 31.337 -0.51 31.337"></polygon>
                        <polygon id="Fill-32" fill="#5495CF" mask="url(#mask-2)" points="10.157 33.094 65.424 33.094 65.424 31.337 10.157 31.337"></polygon>
                    </g>
                </g>
            </g>
        </g>
    </g>
</svg>