<?xml version="1.0" encoding="UTF-8"?>
<svg width="140px" height="140px" viewBox="0 0 140 140" version="1.1" xmlns="http://www.w3.org/2000/svg" xmlns:xlink="http://www.w3.org/1999/xlink">
    <title>pictogram/light/business &amp; education/product/protection</title>
    <g id="pictogram/light/business-&amp;-education/product/protection" stroke="none" stroke-width="1" fill="none" fill-rule="evenodd">
        <g id="product-protection">
            <path d="M140,70 C140,108.66 108.659,140 70,140 C31.34,140 0,108.66 0,70 C0,31.34 31.34,0 70,0 C108.659,0 140,31.34 140,70" id="circle" fill="#DDE4E3"></path>
            <g id="picto" transform="translate(22.337400, 15.392627)">
                <path d="M93.896,18.2414734 L48.581,0.192473366 C48.038,-0.0455266343 47.405,-0.0715266343 46.816,0.163473366 L1.428,18.2414734 C0.565,18.5854734 0,19.4204734 0,20.3494734 L0,58.0774734 C0,60.5724734 0.537,82.8114734 19.159,95.5624734 C28.751,102.132473 34.388,105.579473 38.501,108.095473 C41.408,109.872473 43.705,111.274473 46.231,113.065473 C46.664,113.370473 47.157,113.517473 47.661,113.478473 C47.701,113.482473 47.74,113.482473 47.781,113.482473 C48.18,113.482473 48.583,113.377473 48.948,113.159473 L50.348,112.319473 C55.854,109.024473 61.053,105.910473 76.165,95.5624734 C94.788,82.8114734 95.325,60.5724734 95.325,58.0774734 L95.325,20.3494734 C95.325,19.4204734 94.759,18.5854734 93.896,18.2414734" id="Fill-4" fill="#91BFE3"></path>
                <path d="M41.5454,78.0909734 L16.7194,78.0909734 C15.2054,78.0909734 13.9684,76.8529734 13.9684,75.3389734 L13.9684,52.8619734 C13.9684,51.3489734 15.2054,50.1109734 16.7194,50.1109734 L41.5454,50.1109734 C43.0594,50.1109734 44.2964,51.3489734 44.2964,52.8619734 L44.2964,75.3389734 C44.2964,76.8529734 43.0594,78.0909734 41.5454,78.0909734" id="Fill-6" fill="#5495CF"></path>
                <path d="M44.8725,54.2560734 L12.8395,54.2560734 C12.1305,54.2560734 11.5495,53.6760734 11.5495,52.9660734 L11.5495,51.4010734 C11.5495,50.6910734 12.1305,50.1110734 12.8395,50.1110734 L44.8725,50.1110734 C45.5815,50.1110734 46.1625,50.6910734 46.1625,51.4010734 L46.1625,52.9660734 C46.1625,53.6760734 45.5815,54.2560734 44.8725,54.2560734" id="Fill-8" fill="#2167AE"></path>
                <path d="M35.392,61.5978734 L23.647,61.5978734 C22.885,61.5978734 22.262,60.9748734 22.262,60.2128734 C22.262,59.4508734 22.885,58.8278734 23.647,58.8278734 L35.392,58.8278734 C36.154,58.8278734 36.777,59.4508734 36.777,60.2128734 C36.777,60.9748734 36.154,61.5978734 35.392,61.5978734" id="Fill-10" fill="#2167AE"></path>
                <path d="M79.1577,78.0909734 L54.3317,78.0909734 C52.8177,78.0909734 51.5807,76.8529734 51.5807,75.3389734 L51.5807,52.8619734 C51.5807,51.3489734 52.8177,50.1109734 54.3317,50.1109734 L79.1577,50.1109734 C80.6717,50.1109734 81.9087,51.3489734 81.9087,52.8619734 L81.9087,75.3389734 C81.9087,76.8529734 80.6717,78.0909734 79.1577,78.0909734" id="Fill-12" fill="#5495CF"></path>
                <path d="M82.4848,54.2560734 L50.4518,54.2560734 C49.7428,54.2560734 49.1618,53.6760734 49.1618,52.9660734 L49.1618,51.4010734 C49.1618,50.6910734 49.7428,50.1110734 50.4518,50.1110734 L82.4848,50.1110734 C83.1938,50.1110734 83.7748,50.6910734 83.7748,51.4010734 L83.7748,52.9660734 C83.7748,53.6760734 83.1938,54.2560734 82.4848,54.2560734" id="Fill-14" fill="#2167AE"></path>
                <path d="M73.0044,61.5978734 L61.2594,61.5978734 C60.4974,61.5978734 59.8734,60.9748734 59.8734,60.2128734 C59.8734,59.4508734 60.4974,58.8278734 61.2594,58.8278734 L73.0044,58.8278734 C73.7664,58.8278734 74.3894,59.4508734 74.3894,60.2128734 C74.3894,60.9748734 73.7664,61.5978734 73.0044,61.5978734" id="Fill-16" fill="#2167AE"></path>
                <path d="M60.2827,49.9519734 L35.4577,49.9519734 C33.9437,49.9519734 32.7057,48.7139734 32.7057,47.1999734 L32.7057,24.7239734 C32.7057,23.2099734 33.9437,21.9719734 35.4577,21.9719734 L60.2827,21.9719734 C61.7967,21.9719734 63.0347,23.2099734 63.0347,24.7239734 L63.0347,47.1999734 C63.0347,48.7139734 61.7967,49.9519734 60.2827,49.9519734" id="Fill-18" fill="#5495CF"></path>
                <path d="M63.6098,26.1170734 L31.5778,26.1170734 C30.8678,26.1170734 30.2878,25.5370734 30.2878,24.8270734 L30.2878,23.2620734 C30.2878,22.5520734 30.8678,21.9720734 31.5778,21.9720734 L63.6098,21.9720734 C64.3198,21.9720734 64.8998,22.5520734 64.8998,23.2620734 L64.8998,24.8270734 C64.8998,25.5370734 64.3198,26.1170734 63.6098,26.1170734" id="Fill-20" fill="#2167AE"></path>
                <path d="M54.1294,33.4589734 L42.3844,33.4589734 C41.6224,33.4589734 40.9994,32.8359734 40.9994,32.0739734 C40.9994,31.3119734 41.6224,30.6889734 42.3844,30.6889734 L54.1294,30.6889734 C54.8914,30.6889734 55.5154,31.3119734 55.5154,32.0739734 C55.5154,32.8359734 54.8914,33.4589734 54.1294,33.4589734" id="Fill-22" fill="#2167AE"></path>
            </g>
        </g>
    </g>
</svg>