<?xml version="1.0" encoding="UTF-8"?>
<svg width="140px" height="140px" viewBox="0 0 140 140" version="1.1" xmlns="http://www.w3.org/2000/svg" xmlns:xlink="http://www.w3.org/1999/xlink">
    <title>pictogram/dark/environment/weather/hailstorm</title>
    <g id="pictogram/dark/environment/weather/hailstorm" stroke="none" stroke-width="1" fill="none" fill-rule="evenodd">
        <g id="hailstorm" transform="translate(-0.000100, 0.000000)">
            <path d="M140,70 C140,108.66 108.66,140 70,140 C31.34,140 0,108.66 0,70 C0,31.34 31.34,0 70,0 C108.66,0 140,31.34 140,70" id="circle" fill="#91BFE3"></path>
            <g id="picto" transform="translate(30.509800, 25.213899)">
                <path d="M65.083,27.921301 C62.578,15.659301 51.965,6.843301 39.555,6.843301 C25.163,6.843301 13.455,18.729301 13.455,33.338301 C13.455,33.637301 13.464,33.932301 13.478,34.219301 C5.713,35.542301 0,42.307301 0,50.430301 C0,59.500301 7.271,66.879301 16.21,66.879301 L59.625,66.879301 C59.739,66.879301 59.852,66.878301 59.965,66.876301 L60.729,66.872301 L60.729,66.848301 C71.02,66.265301 79.215,57.584301 79.215,46.998301 C79.215,38.103301 73.444,30.372301 65.083,27.921301" id="Fill-4" fill="#2167AE"></path>
                <path d="M74.2871,20.545301 C73.9971,20.337301 73.6481,20.240301 73.2991,20.265301 L64.6741,20.265301 L64.7471,1.463301 L64.7471,1.459301 C64.7471,0.585301 64.1961,0.145301 63.7231,0.0333010003 C63.2511,-0.0786989997 62.5601,0.0683010003 62.1751,0.837301 L48.6131,27.188301 C48.4281,27.496301 48.3591,27.855301 48.4171,28.212301 C48.4821,28.613301 48.7001,28.964301 49.0291,29.201301 C49.3191,29.410301 49.6641,29.508301 50.0201,29.483301 L58.6711,29.483301 L58.6711,48.260301 C58.6711,49.133301 59.2231,49.574301 59.6951,49.686301 C59.7851,49.707301 59.8831,49.719301 59.9851,49.719301 C60.4201,49.719301 60.9321,49.503301 61.2451,48.878301 L74.7081,22.558301 C74.8921,22.252301 74.9611,21.893301 74.9021,21.536301 C74.8371,21.135301 74.6201,20.784301 74.2871,20.545301" id="Fill-6" fill="#DAD2BD"></path>
                <path d="M16.8144,75.675201 C16.3164,75.199201 15.5244,75.216201 15.0474,75.716201 L9.3684,81.658201 C8.8984,82.149201 8.9074,82.925201 9.3884,83.406201 L15.3414,89.359201 C15.5854,89.603201 15.9054,89.725201 16.2254,89.725201 C16.5444,89.725201 16.8644,89.603201 17.1084,89.359201 L23.0624,83.406201 C23.3004,83.168201 23.4324,82.844201 23.4284883,82.508201 C23.4244,82.171201 23.2844,81.850201 23.0414,81.617201 L16.8144,75.675201 Z" id="Fill-8" fill="#ECEEEF"></path>
                <path d="M40.4775,75.669901 C39.9785,75.193901 39.1875,75.210901 38.7105,75.710901 L33.0305,81.652901 C32.5615,82.144901 32.5705,82.919901 33.0505,83.400901 L39.0035,89.353901 C39.2385,89.587901 39.5565,89.719901 39.8875,89.719901 C40.2195,89.719901 40.5375,89.587901 40.7715,89.353901 L46.7245,83.400901 C46.9625,83.162901 47.0945,82.838901 47.0905883,82.502901 C47.0865,82.165901 46.9465,81.844901 46.7035,81.612901 L40.4775,75.669901 Z" id="Fill-10" fill="#ECEEEF"></path>
                <path d="M70.5156,81.618101 L64.2896,75.675101 C63.7896,75.200101 62.9996,75.216101 62.5226,75.716101 L56.8426,81.658101 C56.3736,82.149101 56.3826,82.926101 56.8626,83.406101 L62.8156,89.359101 C63.0506,89.593101 63.3686,89.725101 63.6996,89.725101 C64.0316,89.725101 64.3486,89.593101 64.5836,89.359101 L70.5366,83.406101 C70.7746,83.168101 70.9066,82.844101 70.9026883,82.508101 C70.8986,82.171101 70.7586,81.850101 70.5156,81.618101" id="Fill-12" fill="#ECEEEF"></path>
            </g>
        </g>
    </g>
</svg>