<?xml version="1.0" encoding="UTF-8"?>
<svg width="140px" height="140px" viewBox="0 0 140 140" version="1.1" xmlns="http://www.w3.org/2000/svg" xmlns:xlink="http://www.w3.org/1999/xlink">
    <title>pictogram/dark/environment/weather/lightning</title>
    <g id="pictogram/dark/environment/weather/lightning" stroke="none" stroke-width="1" fill="none" fill-rule="evenodd">
        <g id="lightning" transform="translate(0.000000, -0.000100)">
            <path d="M140,70 C140,108.66 108.66,140 70,140 C31.34,140 0,108.66 0,70 C0,31.34 31.34,0 70,0 C108.66,0 140,31.34 140,70" id="circle" fill="#91BFE3"></path>
            <g id="picto" transform="translate(16.212400, 21.025543)">
                <path d="M78.6621,40.4793567 C78.1001,40.0773567 77.4041,39.8833567 76.7251,39.9313567 L59.7291,39.9313567 L59.8731,2.89135669 L59.8731,2.87235669 C59.8681,1.15535669 58.8231,0.299356691 57.8481,0.0703566908 C56.8781,-0.164643309 55.5581,0.146356691 54.8041,1.65635669 L28.0861,53.5713567 C27.7201,54.1793567 27.5851,54.8913567 27.7031,55.5993567 C27.8351,56.3903567 28.2681,57.0803567 28.8951,57.5243567 C29.4671,57.9423567 30.1561,58.1253567 30.8541,58.0923567 L47.9011,58.0923567 L47.9011,95.0803567 C47.9011,96.8023567 48.9881,97.6703567 49.9191,97.8893567 C50.0971,97.9323567 50.2891,97.9553567 50.4911,97.9553567 C51.3471,97.9553567 52.3571,97.5313567 52.9731,96.3003567 L79.4991,44.4423567 C80.2781,43.1283567 79.9371,41.4033567 78.6621,40.4793567" id="Fill-4" fill="#2167AE"></path>
                <path d="M16.8364,83.7405567 C16.2604,83.7405567 15.6844,83.5205567 15.2454,83.0815567 C14.3664,82.2025567 14.3664,80.7785567 15.2454,79.8995567 L22.9214,72.2235567 C23.7994,71.3445567 25.2254,71.3445567 26.1034,72.2235567 C26.9824,73.1025567 26.9824,74.5275567 26.1034,75.4055567 L18.4274,83.0815567 C17.9884,83.5205567 17.4124,83.7405567 16.8364,83.7405567" id="Fill-6" fill="#DAD2BD"></path>
                <path d="M89.8013,83.7405567 C89.2253,83.7405567 88.6493,83.5205567 88.2103,83.0815567 L80.5343,75.4055567 C79.6553,74.5275567 79.6553,73.1025567 80.5343,72.2235567 C81.4123,71.3445567 82.8383,71.3445567 83.7163,72.2235567 L91.3923,79.8995567 C92.2713,80.7785567 92.2713,82.2025567 91.3923,83.0815567 C90.9533,83.5205567 90.3773,83.7405567 89.8013,83.7405567" id="Fill-8" fill="#DAD2BD"></path>
                <path d="M105.3369,51.2386567 L94.4819,51.2386567 C93.2389,51.2386567 92.2319,50.2316567 92.2319,48.9886567 C92.2319,47.7456567 93.2389,46.7386567 94.4819,46.7386567 L105.3369,46.7386567 C106.5799,46.7386567 107.5869,47.7456567 107.5869,48.9886567 C107.5869,50.2316567 106.5799,51.2386567 105.3369,51.2386567" id="Fill-10" fill="#DAD2BD"></path>
                <path d="M13.105,51.2386567 L2.25,51.2386567 C1.007,51.2386567 0,50.2316567 0,48.9886567 C0,47.7456567 1.007,46.7386567 2.25,46.7386567 L13.105,46.7386567 C14.348,46.7386567 15.355,47.7456567 15.355,48.9886567 C15.355,50.2316567 14.348,51.2386567 13.105,51.2386567" id="Fill-12" fill="#DAD2BD"></path>
                <path d="M83.0742,26.4129567 C82.4982,26.4129567 81.9222,26.1929567 81.4832,25.7539567 C80.6042,24.8749567 80.6042,23.4509567 81.4832,22.5719567 L89.1592,14.8959567 C90.0372,14.0169567 91.4632,14.0169567 92.3412,14.8959567 C93.2202,15.7749567 93.2202,17.1999567 92.3412,18.0779567 L84.6652,25.7539567 C84.2262,26.1929567 83.6502,26.4129567 83.0742,26.4129567" id="Fill-14" fill="#DAD2BD"></path>
                <path d="M25.4609,26.4129567 C24.8849,26.4129567 24.3089,26.1929567 23.8699,25.7539567 L16.1939,18.0779567 C15.3149,17.1999567 15.3149,15.7749567 16.1939,14.8959567 C17.0719,14.0169567 18.4979,14.0169567 19.3759,14.8959567 L27.0519,22.5719567 C27.9309,23.4509567 27.9309,24.8749567 27.0519,25.7539567 C26.6129,26.1929567 26.0369,26.4129567 25.4609,26.4129567" id="Fill-16" fill="#DAD2BD"></path>
            </g>
        </g>
    </g>
</svg>