<?xml version="1.0" encoding="UTF-8"?>
<svg width="140px" height="140px" viewBox="0 0 140 140" version="1.1" xmlns="http://www.w3.org/2000/svg" xmlns:xlink="http://www.w3.org/1999/xlink">
    <title>pictogram/dark/environment/weather/rain</title>
    <g id="pictogram/dark/environment/weather/rain" stroke="none" stroke-width="1" fill="none" fill-rule="evenodd">
        <g id="rain" transform="translate(-0.000100, 0.000000)">
            <path d="M140.045,70.022 C140.045,108.694 108.695,140.044 70.023,140.044 C31.35,140.044 0,108.694 0,70.022 C0,31.35 31.35,0 70.023,0 C108.695,0 140.045,31.35 140.045,70.022" id="circle" fill="#91BFE3"></path>
            <g id="picto" transform="translate(25.153900, 21.405900)">
                <path d="M67.27,67.269 L68.08,67.269 L68.08,67.26 C68.137,67.261 68.193,67.269 68.25,67.269 C80.092,67.269 89.692,57.516 89.692,45.486 C89.692,35.25 82.733,26.687 73.366,24.353 C70.959,10.518 59.094,1.42108547e-14 44.785,1.42108547e-14 C28.739,1.42108547e-14 15.732,13.215 15.732,29.516 C15.732,30.292 15.788,31.054 15.846,31.814 C6.958,32.658 7.10542736e-15,40.25 7.10542736e-15,49.499 C7.10542736e-15,59.313 7.832,67.269 17.492,67.269 L22.424,67.269" id="Fill-4" fill="#2167AE"></path>
                <path d="M23.2285,97.232 C21.9855,97.232 20.9785,96.225 20.9785,94.982 L20.9785,80.651 C20.9785,79.408 21.9855,78.401 23.2285,78.401 C24.4715,78.401 25.4785,79.408 25.4785,80.651 L25.4785,94.982 C25.4785,96.225 24.4715,97.232 23.2285,97.232" id="Fill-6" fill="#DAD2BD"></path>
                <path d="M44.8462,97.232 C43.6032,97.232 42.5962,96.225 42.5962,94.982 L42.5962,80.651 C42.5962,79.408 43.6032,78.401 44.8462,78.401 C46.0892,78.401 47.0962,79.408 47.0962,80.651 L47.0962,94.982 C47.0962,96.225 46.0892,97.232 44.8462,97.232" id="Fill-8" fill="#DAD2BD"></path>
                <path d="M66.3657,97.232 C65.1227,97.232 64.1157,96.225 64.1157,94.982 L64.1157,80.651 C64.1157,79.408 65.1227,78.401 66.3657,78.401 C67.6087,78.401 68.6157,79.408 68.6157,80.651 L68.6157,94.982 C68.6157,96.225 67.6087,97.232 66.3657,97.232" id="Fill-10" fill="#DAD2BD"></path>
            </g>
        </g>
    </g>
</svg>