<?xml version="1.0" encoding="UTF-8"?>
<svg width="140px" height="140px" viewBox="0 0 140 140" version="1.1" xmlns="http://www.w3.org/2000/svg" xmlns:xlink="http://www.w3.org/1999/xlink">
    <title>pictogram/dark/environment/weather/storm</title>
    <g id="pictogram/dark/environment/weather/storm" stroke="none" stroke-width="1" fill="none" fill-rule="evenodd">
        <g id="storm" transform="translate(-0.000100, 0.000000)">
            <path d="M140.045,70.022 C140.045,108.694 108.695,140.044 70.023,140.044 C31.35,140.044 0,108.694 0,70.022 C0,31.35 31.35,0 70.023,0 C108.695,0 140.045,31.35 140.045,70.022" id="circle" fill="#91BFE3"></path>
            <g id="picto" transform="translate(25.153900, 17.243300)">
                <path d="M67.27,67.269 L68.08,67.269 L68.08,67.26 C68.137,67.261 68.193,67.269 68.25,67.269 C80.092,67.269 89.692,57.516 89.692,45.486 C89.692,35.25 82.733,26.687 73.366,24.353 C70.959,10.518 59.094,0 44.785,0 C28.739,0 15.732,13.215 15.732,29.516 C15.732,30.292 15.788,31.054 15.846,31.814 C6.958,32.658 7.10542736e-15,40.25 7.10542736e-15,49.499 C7.10542736e-15,59.313 7.832,67.269 17.492,67.269 L22.424,67.269" id="Fill-4" fill="#2167AE"></path>
                <path d="M62.7612,66.138 C62.4472,65.913 62.0742,65.808 61.6912,65.839 L49.2842,65.839 L49.3872,39.399 L49.3872,39.392 C49.3862,38.195 48.5122,37.929 48.3372,37.887 C48.1612,37.846 47.2622,37.696 46.7342,38.753 L27.9982,75.157 C27.5622,75.873 27.7452,76.819 28.4362,77.315 C28.7512,77.542 29.1312,77.647 29.5092,77.616 L41.9492,77.616 L41.9492,104.019 C41.9492,105.217 42.8222,105.484 42.9962,105.525 C43.0452,105.536 43.1512,105.557 43.2892,105.557 C43.6452,105.557 44.2202,105.422 44.6032,104.658 L63.2022,68.296 C63.6362,67.581 63.4542,66.637 62.7612,66.138" id="Fill-6" fill="#DAD2BD"></path>
            </g>
        </g>
    </g>
</svg>