<?xml version="1.0" encoding="UTF-8"?>
<svg width="140px" height="140px" viewBox="0 0 140 140" version="1.1" xmlns="http://www.w3.org/2000/svg" xmlns:xlink="http://www.w3.org/1999/xlink">
    <title>pictogram/dark/environment/weather/storm-snow</title>
    <g id="pictogram/dark/environment/weather/storm-snow" stroke="none" stroke-width="1" fill="none" fill-rule="evenodd">
        <g id="storm-snow">
            <path d="M140,70 C140,108.66 108.66,140 70,140 C31.34,140 0,108.66 0,70 C0,31.34 31.34,0 70,0 C108.66,0 140,31.34 140,70" id="circle" fill="#91BFE3"></path>
            <g id="picto" transform="translate(30.393100, 25.140799)">
                <path d="M65.083,27.921301 C62.578,15.659301 51.965,6.843301 39.555,6.843301 C25.163,6.843301 13.455,18.729301 13.455,33.338301 C13.455,33.637301 13.464,33.932301 13.478,34.219301 C5.713,35.542301 0,42.307301 0,50.430301 C0,59.500301 7.271,66.879301 16.21,66.879301 L59.625,66.879301 C59.739,66.879301 59.852,66.878301 59.965,66.876301 L60.729,66.872301 L60.729,66.848301 C71.02,66.265301 79.215,57.584301 79.215,46.998301 C79.215,38.103301 73.444,30.372301 65.083,27.921301" id="Fill-3" fill="#2167AE"></path>
                <path d="M74.2871,20.545301 C73.9971,20.337301 73.6481,20.240301 73.2991,20.265301 L64.6741,20.265301 L64.7471,1.463301 L64.7471,1.459301 C64.7471,0.585301 64.1961,0.145301 63.7231,0.0333010003 C63.2511,-0.0786989997 62.5601,0.0683010003 62.1751,0.837301 L48.6131,27.188301 C48.4281,27.496301 48.3591,27.855301 48.4171,28.212301 C48.4821,28.613301 48.7001,28.964301 49.0291,29.201301 C49.3191,29.410301 49.6641,29.508301 50.0201,29.483301 L58.6711,29.483301 L58.6711,48.260301 C58.6711,49.133301 59.2231,49.574301 59.6951,49.686301 C59.7851,49.707301 59.8831,49.719301 59.9851,49.719301 C60.4201,49.719301 60.9321,49.503301 61.2451,48.878301 L74.7081,22.558301 C74.8921,22.252301 74.9611,21.893301 74.9021,21.536301 C74.8371,21.135301 74.6201,20.784301 74.2871,20.545301" id="Fill-5" fill="#DAD2BD"></path>
                <path d="M15.7954,75.319001 C11.8234,75.319001 8.5924,78.550001 8.5924,82.522001 C8.5924,86.494001 11.8234,89.725001 15.7954,89.725001 C19.7674,89.725001 22.9984,86.494001 22.9984,82.522001 C22.9984,78.550001 19.7674,75.319001 15.7954,75.319001" id="Fill-7" fill="#ECEEEF"></path>
                <path d="M39.6074,75.319001 C35.6354,75.319001 32.4044,78.550001 32.4044,82.522001 C32.4044,86.494001 35.6354,89.725001 39.6074,89.725001 C43.5794,89.725001 46.8104,86.494001 46.8104,82.522001 C46.8104,78.550001 43.5794,75.319001 39.6074,75.319001" id="Fill-9" fill="#ECEEEF"></path>
                <path d="M63.4194,75.319001 C59.4474,75.319001 56.2164,78.550001 56.2164,82.522001 C56.2164,86.494001 59.4474,89.725001 63.4194,89.725001 C67.3914,89.725001 70.6224,86.494001 70.6224,82.522001 C70.6224,78.550001 67.3914,75.319001 63.4194,75.319001" id="Fill-11" fill="#ECEEEF"></path>
            </g>
        </g>
    </g>
</svg>