<?xml version="1.0" encoding="UTF-8"?>
<svg width="140px" height="140px" viewBox="0 0 140 140" version="1.1" xmlns="http://www.w3.org/2000/svg" xmlns:xlink="http://www.w3.org/1999/xlink">
    <title>pictogram/light/people/gesture/hands</title>
    <defs>
        <polygon id="path-1" points="0 0 139.9995 0 139.9995 140 0 140"></polygon>
    </defs>
    <g id="pictogram/light/people/gesture/hands" stroke="none" stroke-width="1" fill="none" fill-rule="evenodd">
        <g id="gesture-hands" transform="translate(-0.000000, 0.000000)">
            <g id="Group-3">
                <mask id="mask-2" fill="white">
                    <use xlink:href="#path-1"></use>
                </mask>
                <g id="Clip-2"></g>
                <path d="M70,0 C31.34,0 0,31.34 0,70 C0,84.803 4.606,98.523 12.448,109.832 C25.085,128.056 46.143,140 70,140 C93.856,140 114.914,128.056 127.552,109.832 C135.393,98.523 140,84.803 140,70 C140,31.34 108.66,0 70,0" id="Fill-1" fill="#DDE4E3" mask="url(#mask-2)"></path>
            </g>
            <g id="Group-20" transform="translate(1.617100, 19.958046)">
                <path d="M57.7637,22.3558542 C53.6487,21.0898542 51.2427,16.8248542 52.2857,12.6468542 C53.3877,8.24085416 57.8967,5.60085416 62.2787,6.79585416 L103.1617,17.9458542 L103.7557,36.4008542 L57.7637,22.3558542 Z" id="Fill-4" fill="#5495CF"></path>
                <path d="M79.0411,78.0479542 C83.1811,79.2369542 85.6661,83.4549542 84.7001,87.6519542 C83.6821,92.0789542 79.2241,94.8029542 74.8201,93.6899542 L33.7331,83.3099542 L32.7941,64.8699542 L79.0411,78.0479542 Z" id="Fill-6" fill="#2167AE"></path>
                <path d="M117.1436,27.4538542 C113.6526,19.8908542 106.9966,14.2578542 98.9596,12.0658542 L64.3056,2.61485416 C63.3056,6.24485416 59.5786,8.41785416 55.9156,7.47685416 C52.7136,6.65485416 50.6146,3.71985416 50.7226,0.545854161 C48.3506,1.46285416 46.4426,3.47785416 45.7776,6.13785416 C44.7336,10.3158542 47.1386,14.5808542 51.2546,15.8468542 L91.9326,28.3628542 C93.3926,28.8118542 94.5986,29.8498542 95.2616,31.2258542 L103.6996,48.7498542 L94.5016,40.4458542 C91.0906,37.3668542 85.8656,37.4998542 82.6166,40.7488542 L82.6166,40.7488542 C79.3626,44.0028542 79.2346,49.2378542 82.3256,52.6478542 L121.7616,95.3018542 C128.5446,87.3098542 133.5726,77.7848542 136.2306,67.3088542 L117.1436,27.4538542 Z" id="Fill-8" fill="#91BFE3"></path>
                <path d="M38.046,89.1096542 L72.871,97.9076542 C73.803,94.2606542 77.489,92.0176542 81.168,92.8896542 C84.386,93.6516542 86.54,96.5466542 86.491,99.7226542 C88.845,98.7606542 90.715,96.7106542 91.33,94.0376542 C92.296,89.8406542 89.811,85.6226542 85.671,84.4336542 L44.766,72.6836542 C43.298,72.2616542 42.072,71.2466542 41.384,69.8836542 L32.618,52.5216542 L41.971,60.6506542 C45.439,63.6656542 50.66,63.4346542 53.848,60.1246542 L53.848,60.1246542 C57.04,56.8096542 57.07,51.5736542 53.916,48.2226542 L13.714,6.34665416 C7.105,14.6036542 2.33,24.3856542 0,35.0866542 L19.576,74.0656542 C23.209,81.5626542 29.97,87.0686542 38.046,89.1096542" id="Fill-10" fill="#5495CF"></path>
                <path d="M55.9171,7.47715416 C52.7131,6.65415416 50.6141,3.71915416 50.7231,0.546154161 C52.2781,-0.0558458392 54.0331,-0.186845839 55.7701,0.287154161 L64.3061,2.61515416 C63.3061,6.24515416 59.5781,8.41715416 55.9171,7.47715416" id="Fill-12" fill="#5495CF"></path>
                <path d="M92.2803,50.4247542 C90.1443,52.5607542 86.6803,52.5607542 84.5453,50.4247542 C82.4093,48.2887542 82.4093,44.8257542 84.5453,42.6897542 C86.6813,40.5547542 90.1443,40.5537542 92.2803,42.6897542 C94.4163,44.8257542 94.4163,48.2887542 92.2803,50.4247542" id="Fill-14" fill="#5495CF"></path>
                <path d="M81.168,92.8892542 C84.386,93.6512542 86.54,96.5462542 86.491,99.7222542 C84.947,100.353254 83.194,100.516254 81.45,100.075254 L72.871,97.9082542 C73.804,94.2602542 77.489,92.0182542 81.168,92.8892542" id="Fill-16" fill="#2167AE"></path>
                <path d="M44.004,50.6322542 C46.1,48.4562542 49.563,48.3912542 51.737,50.4872542 C53.913,52.5822542 53.979,56.0442542 51.883,58.2202542 C49.787,60.3962542 46.325,60.4612542 44.15,58.3662542 C41.974,56.2702542 41.909,52.8082542 44.004,50.6322542" id="Fill-18" fill="#2167AE"></path>
            </g>
        </g>
    </g>
</svg>