<?xml version="1.0" encoding="UTF-8"?>
<svg width="140px" height="140px" viewBox="0 0 140 140" version="1.1" xmlns="http://www.w3.org/2000/svg" xmlns:xlink="http://www.w3.org/1999/xlink">
    <title>pictogram/light/people/gesture/protection</title>
    <defs>
        <polygon id="path-1" points="0 0 140 0 140 139.9999 0 139.9999"></polygon>
        <path d="M2.88657986e-15,69.999 C2.88657986e-15,108.658 31.339,139.999 69.999,139.999 L69.999,139.999 C108.659,139.999 139.999,108.658 139.999,69.999 L139.999,69.999 C139.999,31.339 108.659,0 69.999,0 L69.999,0 C31.339,0 2.88657986e-15,31.339 2.88657986e-15,69.999 L2.88657986e-15,69.999 Z" id="path-3"></path>
        <path d="M2.88657986e-15,69.999 C2.88657986e-15,108.658 31.339,139.999 69.999,139.999 L69.999,139.999 C108.659,139.999 139.999,108.658 139.999,69.999 L139.999,69.999 C139.999,31.339 108.659,0 69.999,0 L69.999,0 C31.339,0 2.88657986e-15,31.339 2.88657986e-15,69.999" id="path-5"></path>
        <path d="M2.88657986e-15,69.999 C2.88657986e-15,108.658 31.339,139.999 69.999,139.999 L69.999,139.999 C108.659,139.999 139.999,108.658 139.999,69.999 L139.999,69.999 C139.999,31.339 108.659,0 69.999,0 L69.999,0 C31.339,0 2.88657986e-15,31.339 2.88657986e-15,69.999" id="path-7"></path>
        <path d="M2.88657986e-15,69.999 C2.88657986e-15,108.658 31.339,139.999 69.999,139.999 L69.999,139.999 C108.659,139.999 139.999,108.658 139.999,69.999 L139.999,69.999 C139.999,31.339 108.659,0 69.999,0 L69.999,0 C31.339,0 2.88657986e-15,31.339 2.88657986e-15,69.999" id="path-9"></path>
    </defs>
    <g id="pictogram/light/people/gesture/protection" stroke="none" stroke-width="1" fill="none" fill-rule="evenodd">
        <g id="gesture-protection" transform="translate(0.000000, 0.000000)">
            <g id="Group-3">
                <mask id="mask-2" fill="white">
                    <use xlink:href="#path-1"></use>
                </mask>
                <g id="Clip-2"></g>
                <path d="M140,70 C140,108.66 108.66,140 70,140 C31.34,140 0,108.66 0,70 C0,31.34 31.34,0 70,0 C108.66,0 140,31.34 140,70" id="Fill-1" fill="#DDE4E3" mask="url(#mask-2)"></path>
            </g>
            <path d="M91.9419,26.8408 L70.1599,18.1648 C69.8999,18.0508 69.5949,18.0378 69.3119,18.1518 L47.4959,26.8408 C47.0809,27.0068 46.8089,27.4078 46.8089,27.8538 L46.8089,45.9888 C46.8089,47.1878 47.0669,57.8778 56.0179,64.0068 C60.6289,67.1648 63.3379,68.8208 65.3159,70.0308 C66.7129,70.8848 67.8169,71.5588 69.0309,72.4198 C69.2389,72.5668 69.4759,72.6368 69.7179,72.6188 C69.7369,72.6198 69.7559,72.6198 69.7759,72.6198 C69.9669,72.6198 70.1609,72.5698 70.3369,72.4648 L71.0099,72.0608 C73.6559,70.4778 76.1549,68.9808 83.4189,64.0068 C92.3709,57.8778 92.6289,47.1878 92.6289,45.9888 L92.6289,27.8538 C92.6289,27.4078 92.3569,27.0068 91.9419,26.8408" id="Fill-4" fill="#2167AE"></path>
            <g id="Group-18" transform="translate(0.000700, 0.000900)">
                <g id="Group-8">
                    <mask id="mask-4" fill="white">
                        <use xlink:href="#path-3"></use>
                    </mask>
                    <g id="Clip-7"></g>
                    <path d="M96.887,80.3902 C100.693,78.3752 105.409,79.6892 107.625,83.3822 C109.962,87.2772 108.641,92.3312 104.698,94.5852 L67.904,115.6102 L54.435,102.9802 L96.887,80.3902 Z" id="Fill-6" fill="#2167AE" mask="url(#mask-4)"></path>
                </g>
                <g id="Group-11">
                    <mask id="mask-6" fill="white">
                        <use xlink:href="#path-5"></use>
                    </mask>
                    <g id="Clip-10"></g>
                    <path d="M116.8299,83.3824 C114.6149,79.6904 109.8979,78.3754 106.0919,80.3904 L68.4779,100.3034 C67.1279,101.0184 65.5409,101.1374 64.0999,100.6324 L45.7429,94.2084 L58.1179,93.5764 C62.7069,93.3414 66.3079,89.5524 66.3079,84.9584 L66.3079,84.9574 C66.3079,80.3554 62.6969,76.5634 58.0999,76.3384 L-0.3001,74.0624 C-0.1541,84.4364 2.2379,94.2664 6.4299,103.0804 L51.2939,118.7734 C59.1109,121.6524 67.8009,120.9294 75.0329,116.7964 L106.2199,98.9754 C104.3609,95.7014 105.4599,91.5284 108.7139,89.6044 C111.5599,87.9214 115.1209,88.5124 117.2879,90.8334 C118.3169,88.5074 118.2409,85.7344 116.8299,83.3824" id="Fill-9" fill="#5495CF" mask="url(#mask-6)"></path>
                </g>
                <g id="Group-14">
                    <mask id="mask-8" fill="white">
                        <use xlink:href="#path-7"></use>
                    </mask>
                    <g id="Clip-13"></g>
                    <path d="M108.7142,89.605 C111.5612,87.921 115.1202,88.512 117.2882,90.833 C116.6132,92.359 115.4642,93.692 113.9022,94.585 L106.2202,98.975 C104.3602,95.701 105.4602,91.529 108.7142,89.605" id="Fill-12" fill="#2167AE" mask="url(#mask-8)"></path>
                </g>
                <g id="Group-17">
                    <mask id="mask-10" fill="white">
                        <use xlink:href="#path-9"></use>
                    </mask>
                    <g id="Clip-16"></g>
                    <path d="M52.6326,84.9493 C52.6326,81.9283 55.0816,79.4793 58.1026,79.4793 C61.1226,79.4793 63.5706,81.9283 63.5706,84.9493 C63.5706,87.9703 61.1226,90.4183 58.1026,90.4183 C55.0816,90.4183 52.6326,87.9703 52.6326,84.9493" id="Fill-15" fill="#2167AE" mask="url(#mask-10)"></path>
                </g>
            </g>
        </g>
    </g>
</svg>