<?xml version="1.0" encoding="UTF-8"?>
<svg width="140px" height="140px" viewBox="0 0 140 140" version="1.1" xmlns="http://www.w3.org/2000/svg" xmlns:xlink="http://www.w3.org/1999/xlink">
    <title>pictogram/light/people/gesture/risk</title>
    <defs>
        <polygon id="path-1" points="0 0 140 0 140 139.9999 0 139.9999"></polygon>
        <path d="M2.88657986e-15,69.999 C2.88657986e-15,108.658 31.339,139.999 69.999,139.999 L69.999,139.999 C108.659,139.999 139.999,108.658 139.999,69.999 L139.999,69.999 C139.999,31.339 108.659,0 69.999,0 L69.999,0 C31.339,0 2.88657986e-15,31.339 2.88657986e-15,69.999 L2.88657986e-15,69.999 Z" id="path-3"></path>
        <path d="M2.88657986e-15,69.999 C2.88657986e-15,108.658 31.339,139.999 69.999,139.999 L69.999,139.999 C108.659,139.999 139.999,108.658 139.999,69.999 L139.999,69.999 C139.999,31.339 108.659,0 69.999,0 L69.999,0 C31.339,0 2.88657986e-15,31.339 2.88657986e-15,69.999" id="path-5"></path>
        <path d="M2.88657986e-15,69.999 C2.88657986e-15,108.658 31.339,139.999 69.999,139.999 L69.999,139.999 C108.659,139.999 139.999,108.658 139.999,69.999 L139.999,69.999 C139.999,31.339 108.659,0 69.999,0 L69.999,0 C31.339,0 2.88657986e-15,31.339 2.88657986e-15,69.999" id="path-7"></path>
        <path d="M2.88657986e-15,69.999 C2.88657986e-15,108.658 31.339,139.999 69.999,139.999 L69.999,139.999 C108.659,139.999 139.999,108.658 139.999,69.999 L139.999,69.999 C139.999,31.339 108.659,0 69.999,0 L69.999,0 C31.339,0 2.88657986e-15,31.339 2.88657986e-15,69.999" id="path-9"></path>
    </defs>
    <g id="pictogram/light/people/gesture/risk" stroke="none" stroke-width="1" fill="none" fill-rule="evenodd">
        <g id="gesture-risk" transform="translate(0.000000, 0.000000)">
            <g id="Group-3">
                <mask id="mask-2" fill="white">
                    <use xlink:href="#path-1"></use>
                </mask>
                <g id="Clip-2"></g>
                <path d="M140,70 C140,108.66 108.66,140 70,140 C31.34,140 0,108.66 0,70 C0,31.34 31.34,0 70,0 C108.66,0 140,31.34 140,70" id="Fill-1" fill="#DDE4E3" mask="url(#mask-2)"></path>
            </g>
            <g id="Group-16" transform="translate(0.000700, 0.000900)">
                <g id="Group-6">
                    <mask id="mask-4" fill="white">
                        <use xlink:href="#path-3"></use>
                    </mask>
                    <g id="Clip-5"></g>
                    <path d="M96.887,77.3301 C100.693,75.3151 105.409,76.6291 107.625,80.3221 C109.962,84.2171 108.641,89.2711 104.698,91.5251 L67.904,112.5501 L54.435,99.9201 L96.887,77.3301 Z" id="Fill-4" fill="#2167AE" mask="url(#mask-4)"></path>
                </g>
                <g id="Group-9">
                    <mask id="mask-6" fill="white">
                        <use xlink:href="#path-5"></use>
                    </mask>
                    <g id="Clip-8"></g>
                    <path d="M116.8299,80.3223 C114.6149,76.6293 109.8979,75.3153 106.0919,77.3303 L68.4779,97.2433 C67.1279,97.9583 65.5409,98.0773 64.0999,97.5723 L45.7429,91.1483 L58.1179,90.5153 C62.7069,90.2813 66.3079,86.4923 66.3079,81.8973 L66.3079,81.8973 C66.3079,77.2953 62.6969,73.5033 58.0999,73.2783 L-0.3001,71.0013 C-0.1541,81.3763 2.2379,91.2053 6.4299,100.0203 L51.2939,115.7123 C59.1109,118.5923 67.8009,117.8683 75.0329,113.7363 L106.2199,95.9143 C104.3609,92.6413 105.4599,88.4683 108.7139,86.5443 C111.5599,84.8613 115.1209,85.4523 117.2879,87.7733 C118.3169,85.4473 118.2409,82.6743 116.8299,80.3223" id="Fill-7" fill="#5495CF" mask="url(#mask-6)"></path>
                </g>
                <g id="Group-12">
                    <mask id="mask-8" fill="white">
                        <use xlink:href="#path-7"></use>
                    </mask>
                    <g id="Clip-11"></g>
                    <path d="M108.7142,86.5445 C111.5612,84.8615 115.1202,85.4525 117.2882,87.7735 C116.6132,89.2985 115.4642,90.6315 113.9022,91.5245 L106.2202,95.9155 C104.3602,92.6405 105.4602,88.4685 108.7142,86.5445" id="Fill-10" fill="#2167AE" mask="url(#mask-8)"></path>
                </g>
                <g id="Group-15">
                    <mask id="mask-10" fill="white">
                        <use xlink:href="#path-9"></use>
                    </mask>
                    <g id="Clip-14"></g>
                    <path d="M52.6326,81.8887 C52.6326,78.8677 55.0816,76.4197 58.1026,76.4197 C61.1226,76.4197 63.5706,78.8677 63.5706,81.8887 C63.5706,84.9097 61.1226,87.3587 58.1026,87.3587 C55.0816,87.3587 52.6326,84.9097 52.6326,81.8887" id="Fill-13" fill="#2167AE" mask="url(#mask-10)"></path>
                </g>
            </g>
            <g id="Group-23" transform="translate(46.207251, 17.448400)">
                <path d="M48.0935488,42.928 L24.9525488,0.502 C24.7825488,0.193 24.4585488,0 24.1055488,0 C23.7535488,0 23.4275488,0.193 23.2595488,0.502 L0.11754885,42.928 C-0.0454511504,43.227 -0.0384511504,43.59 0.13554885,43.882 C0.30954885,44.175 0.62354885,44.354 0.96454885,44.354 L47.2465488,44.354 C47.5875488,44.354 47.9025488,44.175 48.0765488,43.882 C48.2495488,43.59 48.2565488,43.227 48.0935488,42.928" id="Fill-17" fill="#2167AE"></path>
                <path d="M24.1057488,28.9266 C23.5727488,28.9266 23.1417488,28.4946 23.1417488,27.9626 L23.1417488,13.5746 C23.1417488,13.0426 23.5727488,12.6106 24.1057488,12.6106 C24.6387488,12.6106 25.0697488,13.0426 25.0697488,13.5746 L25.0697488,27.9626 C25.0697488,28.4946 24.6387488,28.9266 24.1057488,28.9266" id="Fill-19" fill="#ECEEEF"></path>
                <path d="M24.1057488,38.5809 C23.5727488,38.5809 23.1417488,38.1489 23.1417488,37.6169 L23.1417488,33.7479 C23.1417488,33.2149 23.5727488,32.7839 24.1057488,32.7839 C24.6387488,32.7839 25.0697488,33.2149 25.0697488,33.7479 L25.0697488,37.6169 C25.0697488,38.1489 24.6387488,38.5809 24.1057488,38.5809" id="Fill-21" fill="#ECEEEF"></path>
            </g>
        </g>
    </g>
</svg>