<?xml version="1.0" encoding="UTF-8"?>
<svg width="140px" height="140px" viewBox="0 0 140 140" version="1.1" xmlns="http://www.w3.org/2000/svg" xmlns:xlink="http://www.w3.org/1999/xlink">
    <title>pictogram/light/people/gesture/stop</title>
    <defs>
        <polygon id="path-1" points="0 0 139.9999 0 139.9999 139.9998 0 139.9998"></polygon>
    </defs>
    <g id="pictogram/light/people/gesture/stop" stroke="none" stroke-width="1" fill="none" fill-rule="evenodd">
        <g id="gesture-stop" transform="translate(0.000000, 0.000000)">
            <g id="Group-3">
                <mask id="mask-2" fill="white">
                    <use xlink:href="#path-1"></use>
                </mask>
                <g id="Clip-2"></g>
                <path d="M139.9999,70 C139.9999,108.66 108.6599,140 69.9999,140 C31.3399,140 -0.0001,108.66 -0.0001,70 C-0.0001,31.34 31.3399,0 69.9999,0 C108.6599,0 139.9999,31.34 139.9999,70" id="Fill-1" fill="#DDE4E3" mask="url(#mask-2)"></path>
            </g>
            <g id="Group-12" transform="translate(13.792600, 13.792500)">
                <path d="M75.1306,31.4243 L75.1306,31.4243 C73.6646,31.4243 72.3306,32.0153 71.3506,32.9683 L71.3506,22.9863 C71.3506,19.9973 68.9056,17.5513 65.9166,17.5513 L65.9166,17.5513 C63.9486,17.5513 62.2206,18.6153 61.2676,20.1933 L61.2676,18.2943 C61.2676,15.3053 58.8216,12.8603 55.8336,12.8603 L55.8326,12.8603 C52.8446,12.8603 50.3986,15.3053 50.3986,18.2943 L50.3986,26.1653 C50.0916,23.5573 47.7836,22.1243 45.0016,22.1243 C42.0126,22.1243 39.5676,24.5703 39.5676,27.5593 L39.5676,57.3163 C39.5676,57.3163 39.5676,60.2683 38.3356,60.3823 C37.1026,60.4953 36.3606,58.9763 36.3596,58.9753 L31.7286,49.6663 C30.3966,46.9903 27.1186,45.8903 24.4426,47.2213 C21.7666,48.5533 20.6666,51.8323 21.9976,54.5073 L36.6856,84.0263 C39.8106,92.7663 48.1406,99.0323 57.9556,99.0323 C70.4426,99.0323 80.5656,88.9103 80.5656,76.4243 C80.5656,76.3873 80.5596,76.3523 80.5596,76.3163 C80.5596,76.2983 80.5656,76.2813 80.5656,76.2633 L80.5656,60.0133 L80.5656,56.1033 L80.5656,36.8593 C80.5656,33.8703 78.1196,31.4243 75.1306,31.4243" id="Fill-4" fill="#91BFE3"></path>
                <path d="M50.9988,93.6821 C50.9988,93.6821 62.5338,74.3721 43.6028,63.7351 C43.6028,63.7351 56.8408,76.1021 50.9988,93.6821" id="Fill-6" fill="#5495CF"></path>
                <path d="M50.1277,57.9282 C50.1277,57.9282 67.9027,56.7482 72.4067,63.3122 C72.4067,63.3122 70.6367,59.8162 50.1277,57.9282" id="Fill-8" fill="#5495CF"></path>
                <path d="M93.428,90.917 L24.004,16.786 C32.786,9.599 44.001,5.279 56.207,5.279 C84.289,5.279 107.136,28.125 107.136,56.208 C107.136,69.611 101.923,81.814 93.428,90.917 M5.279,56.208 C5.279,42.227 10.944,29.547 20.095,20.335 L89.63,94.585 C80.678,102.392 68.99,107.136 56.207,107.136 C28.125,107.136 5.279,84.289 5.279,56.208 M56.207,0 C25.215,0 0,25.215 0,56.208 C0,87.2 25.215,112.415 56.207,112.415 C87.2,112.415 112.415,87.2 112.415,56.208 C112.415,25.215 87.2,0 56.207,0" id="Fill-10" fill="#2167AE"></path>
            </g>
        </g>
    </g>
</svg>