<?xml version="1.0" encoding="UTF-8"?>
<svg width="140px" height="140px" viewBox="0 0 140 140" version="1.1" xmlns="http://www.w3.org/2000/svg" xmlns:xlink="http://www.w3.org/1999/xlink">
    <title>pictogram/light/people/gesture/strength</title>
    <defs>
        <polygon id="path-1" points="0 0 36.4550407 0 36.4550407 91.4053192 0 91.4053192"></polygon>
    </defs>
    <g id="pictogram/light/people/gesture/strength" stroke="none" stroke-width="1" fill="none" fill-rule="evenodd">
        <g id="gesture-strength">
            <path d="M140,70 C140,108.66 108.66,140 70,140 C31.34,140 0,108.66 0,70 C0,31.34 31.34,0 70,0 C108.66,0 140,31.34 140,70" id="Fill-1" fill="#DDE4E3"></path>
            <polygon id="Fill-3" fill="#2167AE" points="54.8672 53.584 45.5042 69.811 62.3982 97.334 79.7572 99.184 90.7072 72.429"></polygon>
            <polygon id="Fill-4" fill="#23366F" points="41.7832 32.27 114.3072 90.826 102.3082 105.687 29.7842 47.131"></polygon>
            <g id="Group-18" transform="translate(25.132190, 23.360161)">
                <path d="M38.9445095,2.16713935 C42.2135095,4.80713935 42.7285095,9.64213935 40.0895095,12.9111394 L14.1695095,45.0121394 C11.5305095,48.2811394 6.69550952,48.7961394 3.42650952,46.1571394 L2.83250952,45.6771394 C-0.437490479,43.0371394 -0.952490479,38.2021394 1.68650952,34.9331394 L27.6055095,2.83213935 C30.2455095,-0.437860649 35.0805095,-0.952860649 38.3505095,1.68813935 L38.9445095,2.16713935 Z" id="Fill-5" fill="#2167AE"></path>
                <path d="M54.9552095,87.9547394 C51.6862095,85.3147394 51.1702095,80.4797394 53.8102095,77.2107394 L79.7292095,45.1097394 C82.3692095,41.8407394 87.2042095,41.3257394 90.4732095,43.9647394 L91.0682095,44.4447394 C94.3372095,47.0847394 94.8522095,51.9197394 92.2132095,55.1887394 L66.2932095,87.2897394 C63.6542095,90.5587394 58.8192095,91.0747394 55.5502095,88.4347394 L54.9552095,87.9547394 Z" id="Fill-7" fill="#2167AE"></path>
                <path d="M59.8706095,43.2031394 L61.8216095,40.5821394 C63.4376095,38.4121394 63.0746095,35.3091394 61.0126095,33.6521394 C58.9506095,31.9941394 55.9686095,32.4101394 54.3536095,34.5801394 L44.0866095,48.3701394 C42.4716095,50.5401394 42.8346095,53.6431394 44.8966095,55.3001394 C45.5666095,55.8381394 46.3316095,56.1581394 47.1166095,56.2701394 C48.2556095,56.4331394 49.4346095,56.1571394 50.4136095,55.4791394 C49.8776095,57.2731394 50.4176095,59.2891394 51.9166095,60.4931394 C52.5436095,60.9971394 53.2616095,61.2971394 53.9976095,61.4021394 C55.5276095,61.6211394 57.1356095,60.9981394 58.1586095,59.6241394 L65.1366095,50.2501394 C66.6516095,48.2151394 66.3126095,45.3061394 64.3786095,43.7521394 C63.0506095,42.6851394 61.3166095,42.5341394 59.8706095,43.2031394 Z" id="Fill-9" fill="#91BFE3"></path>
                <path d="M29.7120095,43.4967394 C27.5380095,41.7127394 27.1840095,38.4117394 28.9220095,36.1237394 L39.7650095,21.8477394 C41.5040095,19.5587394 44.6750095,19.1507394 46.8490095,20.9347394 C49.0230095,22.7177394 49.3770095,26.0187394 47.6390095,28.3077394 L36.7960095,42.5837394 C35.6330095,44.1147394 33.8280095,44.8047394 32.1100095,44.5587394 C31.2600095,44.4367394 30.4320095,44.0867394 29.7120095,43.4967394 Z" id="Fill-11" fill="#91BFE3"></path>
                <path d="M37.7709095,49.3466394 C35.7089095,47.6896394 35.3459095,44.5866394 36.9619095,42.4166394 L49.4879095,25.5916394 C51.1029095,23.4206394 54.0839095,23.0056394 56.1459095,24.6636394 C58.2089095,26.3206394 58.5709095,29.4236394 56.9559095,31.5936394 L44.4299095,48.4196394 C43.3389095,49.8846394 41.6249095,50.5496394 39.9909095,50.3166394 C39.2069095,50.2046394 38.4399095,49.8846394 37.7709095,49.3466394 Z" id="Fill-13" fill="#91BFE3"></path>
                <g id="Group-17" transform="translate(18.281682, 25.234520)">
                    <mask id="mask-2" fill="white">
                        <use xlink:href="#path-1"></use>
                    </mask>
                    <g id="Clip-16"></g>
                    <path d="M9.73552733,18.2735192 L14.2235273,12.5465192 L22.2865273,16.7875192 C24.9055273,18.1645192 28.1245273,17.0545192 29.4775273,14.3085192 C30.8305273,11.5625192 29.8045273,8.22051921 27.1865273,6.84351921 L15.2965273,0.590519207 C13.0645273,-0.583480793 10.3295273,0.0345192067 8.73052733,2.07551921 L3.92852733,8.20451921 C2.34452733,10.2255192 1.21652733,12.5655192 0.622527332,15.0645192 C-1.13247267,22.4455192 0.875527332,30.2175192 5.98552733,35.8245192 L13.8345273,43.5895192 L13.1275273,48.5345192 L7.38452733,88.7165192 C13.4885273,90.4545192 19.9245273,91.4055192 26.5865273,91.4055192 C29.2305273,91.4055192 31.8355273,91.2455192 34.4035273,90.9605192 L36.1445273,52.7055192 C36.8635273,50.2375192 36.3375273,47.4635192 34.5285273,45.4785192 L9.73552733,18.2735192 Z" id="Fill-15" fill="#5495CF" mask="url(#mask-2)"></path>
                </g>
            </g>
        </g>
    </g>
</svg>