<?xml version="1.0" encoding="UTF-8"?>
<svg width="140px" height="140px" viewBox="0 0 140 140" version="1.1" xmlns="http://www.w3.org/2000/svg" xmlns:xlink="http://www.w3.org/1999/xlink">
    <title>pictogram/light/finance/chart/line</title>
    <g id="pictogram/light/finance/chart/line" stroke="none" stroke-width="1" fill="none" fill-rule="evenodd">
        <g id="chart-line" transform="translate(-0.000200, 0.000000)">
            <path d="M140,70 C140,108.66 108.66,140 70,140 C31.34,140 0,108.66 0,70 C0,31.34 31.34,0 70,0 C108.66,0 140,31.34 140,70" id="circle" fill="#DDE4E3"></path>
            <g id="picto" transform="translate(10.026100, 26.572500)">
                <path d="M129.031,54.8526 L105.042,65.5756 C103.982,63.8786 102.103,62.7466 99.955,62.7466 C98.719,62.7466 97.572,63.1206 96.617,63.7606 L68.002,32.7036 C68.286,32.0056 68.446,31.2436 68.446,30.4436 C68.446,27.1296 65.759,24.4436 62.446,24.4436 C59.132,24.4436 56.446,27.1296 56.446,30.4436 C56.446,31.6076 56.782,32.6906 57.356,33.6106 L30.658,66.1976 C30.094,66.0216 29.494,65.9276 28.872,65.9276 C25.663,65.9276 23.05,68.4486 22.888,71.6176 L0,79.5376 C0.801,80.8636 1.654,82.1536 2.538,83.4216 L24.358,75.8706 C25.457,77.1286 27.07,77.9276 28.872,77.9276 C32.186,77.9276 34.872,75.2416 34.872,71.9276 C34.872,70.8856 34.606,69.9056 34.138,69.0506 L61.002,36.2616 C61.465,36.3756 61.947,36.4436 62.446,36.4436 C63.305,36.4436 64.12,36.2596 64.859,35.9346 L94.063,67.6296 C93.994,67.9916 93.955,68.3636 93.955,68.7466 C93.955,72.0596 96.641,74.7466 99.955,74.7466 C102.775,74.7466 105.134,72.7976 105.776,70.1766 L127.919,60.2786 C128.359,58.4966 128.73,56.6866 129.031,54.8526" id="Fill-4" fill="#2167AE"></path>
                <path d="M114.8533,0 L97.8463,34.454 C97.6723,34.439 97.4963,34.427 97.3183,34.427 C94.0043,34.427 91.3183,37.114 91.3183,40.427 C91.3183,40.956 91.3933,41.465 91.5213,41.953 L64.3733,61.857 C63.2773,60.673 61.7143,59.927 59.9743,59.927 C59.6513,59.927 59.3373,59.96 59.0283,60.009 L34.7263,16.081 C35.5053,15.068 35.9743,13.804 35.9743,12.427 C35.9743,9.114 33.2883,6.427 29.9743,6.427 C26.6603,6.427 23.9743,9.114 23.9743,12.427 C23.9743,14.477 25.0033,16.284 26.5713,17.367 L5.7823,87.729 C6.9023,89.099 8.0833,90.415 9.3033,91.694 L30.9263,18.508 L55.1743,62.338 C54.4243,63.34 53.9743,64.58 53.9743,65.927 C53.9743,69.241 56.6603,71.927 59.9743,71.927 C63.1703,71.927 65.7753,69.426 65.9563,66.275 L94.2163,45.557 C95.1223,46.105 96.1813,46.427 97.3183,46.427 C100.6313,46.427 103.3183,43.741 103.3183,40.427 C103.3183,38.926 102.7633,37.558 101.8523,36.505 L117.8633,4.07 C116.9113,2.673 115.9003,1.322 114.8533,0" id="Fill-6" fill="#91BFE3"></path>
            </g>
        </g>
    </g>
</svg>