<?xml version="1.0" encoding="UTF-8"?>
<svg width="140px" height="140px" viewBox="0 0 140 140" version="1.1" xmlns="http://www.w3.org/2000/svg" xmlns:xlink="http://www.w3.org/1999/xlink">
    <title>pictogram/dark/mobility/truck/protection</title>
    <g id="pictogram/dark/mobility/truck/protection" stroke="none" stroke-width="1" fill="none" fill-rule="evenodd">
        <g id="truck-protection" transform="translate(0.000000, 0.000000)">
            <path d="M140,70 C140,108.66 108.659,140 70,140 C31.34,140 0,108.66 0,70 C0,31.34 31.34,0 70,0 C108.659,0 140,31.34 140,70" id="circle" fill="#91BFE3"></path>
            <g id="picto" transform="translate(22.337400, 14.073527)">
                <path d="M93.896,18.2414734 L48.581,0.192473366 C48.038,-0.0455266343 47.405,-0.0715266343 46.816,0.163473366 L1.428,18.2414734 C0.565,18.5854734 -7.10542736e-15,19.4204734 -7.10542736e-15,20.3494734 L-7.10542736e-15,58.0774734 C-7.10542736e-15,60.5724734 0.537,82.8114734 19.159,95.5624734 C28.751,102.132473 34.388,105.579473 38.501,108.095473 C41.408,109.872473 43.705,111.274473 46.231,113.065473 C46.664,113.370473 47.157,113.517473 47.661,113.478473 C47.701,113.482473 47.74,113.482473 47.781,113.482473 C48.18,113.482473 48.583,113.377473 48.948,113.159473 L50.348,112.319473 C55.854,109.024473 61.053,105.910473 76.165,95.5624734 C94.788,82.8114734 95.325,60.5724734 95.325,58.0774734 L95.325,20.3494734 C95.325,19.4204734 94.759,18.5854734 93.896,18.2414734" id="Fill-4" fill="#5495CF"></path>
                <path d="M31.4497,72.8046734 C30.9427,72.8046734 30.5327,73.2146734 30.5327,73.7216734 L21.8167,73.7216734 C21.8167,73.2146734 21.4067,72.8046734 20.8997,72.8046734 C20.3927,72.8046734 19.9827,73.2156734 19.9827,73.7216734 L19.9827,79.7286734 C19.9827,83.4556734 22.7267,86.4866734 26.1007,86.4866734 L26.2497,86.4866734 C29.6217,86.4866734 32.3667,83.4556734 32.3667,79.7286734 L32.3667,73.7216734 C32.3667,73.2156734 31.9557,72.8046734 31.4497,72.8046734" id="Fill-6" fill="#2167AE"></path>
                <path d="M74.4312,72.8046734 C73.9252,72.8046734 73.5142,73.2146734 73.5142,73.7216734 L64.7992,73.7216734 C64.7992,73.2146734 64.3882,72.8046734 63.8822,72.8046734 C63.3752,72.8046734 62.9652,73.2156734 62.9652,73.7216734 L62.9652,79.7286734 C62.9652,83.4556734 65.7092,86.4866734 69.0822,86.4866734 L69.2302,86.4866734 C72.6042,86.4866734 75.3482,83.4556734 75.3482,79.7286734 L75.3482,73.7216734 C75.3482,73.2156734 74.9382,72.8046734 74.4312,72.8046734" id="Fill-8" fill="#2167AE"></path>
                <path d="M78.8228,44.3905734 L75.3478,44.3905734 L75.3478,29.9385734 C75.3478,24.1375734 70.9348,19.4175734 65.5098,19.4175734 L29.8218,19.4175734 C24.3968,19.4175734 19.9828,24.1375734 19.9828,29.9385734 L19.9828,44.3905734 L16.5018,44.3905734 C15.9948,44.3905734 15.5848,44.8015734 15.5848,45.3075734 C15.5848,45.8135734 15.9948,46.2245734 16.5018,46.2245734 L19.9828,46.2245734 L19.9828,76.6465734 C19.9828,77.1525734 20.3928,77.5635734 20.8998,77.5635734 L74.4308,77.5635734 C74.9378,77.5635734 75.3478,77.1525734 75.3478,76.6465734 L75.3478,46.2245734 L78.8228,46.2245734 C79.3298,46.2245734 79.7398,45.8135734 79.7398,45.3075734 C79.7398,44.8015734 79.3298,44.3905734 78.8228,44.3905734" id="Fill-10" fill="#2167AE"></path>
                <path d="M62.6978,28.2117734 L31.9478,28.2117734 C30.2638,28.2117734 28.8998,29.5757734 28.8998,31.2587734 L28.8998,43.5187734 C28.8998,45.2017734 30.2638,46.5667734 31.9478,46.5667734 L63.4178,46.5667734 C65.0998,46.5667734 66.4648,45.2017734 66.4648,43.5187734 L66.4648,31.9787734 C66.4648,29.8987734 64.7778,28.2117734 62.6978,28.2117734" id="Fill-12" fill="#5495CF"></path>
                <path d="M22.3013,57.8625734 L73.0343,57.8625734 C76.2313,57.8625734 78.8223,60.4545734 78.8223,63.6515734 L78.8223,78.2455734 C78.8223,78.8855734 78.3043,79.4035734 77.6653,79.4035734 L17.6703,79.4035734 C17.0303,79.4035734 16.5123,78.8855734 16.5123,78.2455734 L16.5123,63.6515734 C16.5123,60.4545734 19.1043,57.8625734 22.3013,57.8625734" id="Fill-14" fill="#91BFE3"></path>
                <path d="M26.1743,63.5449734 C23.3983,63.5449734 21.1393,65.8279734 21.1393,68.6329734 C21.1393,71.4389734 23.3983,73.7219734 26.1743,73.7219734 C28.9513,73.7219734 31.2093,71.4389734 31.2093,68.6329734 C31.2093,65.8279734 28.9513,63.5449734 26.1743,63.5449734" id="Fill-16" fill="#DAD2BD"></path>
                <path d="M69.1558,63.5449734 C66.3798,63.5449734 64.1218,65.8279734 64.1218,68.6329734 C64.1218,71.4389734 66.3798,73.7219734 69.1558,73.7219734 C71.9328,73.7219734 74.1918,71.4389734 74.1918,68.6329734 C74.1918,65.8279734 71.9328,63.5449734 69.1558,63.5449734" id="Fill-18" fill="#DAD2BD"></path>
                <path d="M54.8579,66.6833734 L40.5239,66.6833734 C40.0169,66.6833734 39.6069,66.2723734 39.6069,65.7663734 C39.6069,65.2603734 40.0169,64.8493734 40.5239,64.8493734 L54.8579,64.8493734 C55.3639,64.8493734 55.7749,65.2603734 55.7749,65.7663734 C55.7749,66.2723734 55.3639,66.6833734 54.8579,66.6833734" id="Fill-20" fill="#ECEEEF"></path>
                <path d="M54.8579,72.4170734 L40.5239,72.4170734 C40.0169,72.4170734 39.6069,72.0060734 39.6069,71.5000734 C39.6069,70.9940734 40.0169,70.5830734 40.5239,70.5830734 L54.8579,70.5830734 C55.3639,70.5830734 55.7749,70.9940734 55.7749,71.5000734 C55.7749,72.0060734 55.3639,72.4170734 54.8579,72.4170734" id="Fill-22" fill="#ECEEEF"></path>
            </g>
        </g>
    </g>
</svg>