<?xml version="1.0" encoding="UTF-8"?>
<svg width="140px" height="140px" viewBox="0 0 140 140" version="1.1" xmlns="http://www.w3.org/2000/svg" xmlns:xlink="http://www.w3.org/1999/xlink">
    <title>pictogram/dark/people/protection/duo</title>
    <defs>
        <polygon id="path-1" points="0 0 140 0 140 139.9999 0 139.9999"></polygon>
    </defs>
    <g id="pictogram/dark/people/protection/duo" stroke="none" stroke-width="1" fill="none" fill-rule="evenodd">
        <g id="protection-duo" transform="translate(0.000000, 0.000000)">
            <g id="Group-3">
                <mask id="mask-2" fill="white">
                    <use xlink:href="#path-1"></use>
                </mask>
                <g id="Clip-2"></g>
                <path d="M70,-0.0001 C31.34,-0.0001 0,31.3399 0,69.9999 C0,108.6599 31.34,139.9999 70,139.9999 C108.66,139.9999 140,108.6599 140,69.9999 C140,31.3399 108.66,-0.0001 70,-0.0001" id="Fill-1" fill="#91BFE3" mask="url(#mask-2)"></path>
            </g>
            <g id="Group-32" transform="translate(25.388900, 20.167978)">
                <path d="M0.506,54.8768223 C3.697,52.2128223 7.021,52.2758223 10.397,52.2758223 L11.759,52.2778223 L12.44,52.2778223 C12.551,51.8088223 13.303,48.6318223 13.699,46.7968223 C9.182,44.1838223 6.111,39.0618223 6.111,33.1668223 C6.111,24.6198223 12.566,17.6908223 20.527,17.6908223 C28.489,17.6908223 34.943,24.6198223 34.943,33.1668223 C34.943,39.1068223 31.823,44.2578223 27.249,46.8528223 C27.261,46.9158223 27.258,46.9728223 27.274,47.0378223 C27.669,48.6658223 28.369,51.8098223 28.473,52.2758223 L30.622,52.2758223 C31.11,52.2758223 31.594,52.2838223 32.08,52.2908223 C32.337,52.2938223 32.596,52.2898223 32.853,52.2978223 C33.456,52.3178223 34.058,52.3568223 34.656,52.4288223 C35.535,52.5338223 36.408,52.7148223 37.273,53.0208223 C38.366,53.4058223 39.447,53.9868223 40.513,54.8768223 C40.649,54.9868223 40.784,55.1098223 40.919,55.2298223 C40.969,55.2758223 41.02,55.3158223 41.069,55.3628223 C41.592,55.8408223 42.112,56.3878223 42.627,57.0328223 C42.843,57.3038223 43.108,57.7008223 43.394,58.1598223 C44.061,59.1328223 44.441,60.7088223 44.631,64.1558223 C44.842,61.6558223 45.201,60.3788223 45.771,59.5478223 C46.057,59.0888223 46.321,58.6918223 46.538,58.4208223 C47.053,57.7758223 47.573,57.2298223 48.095,56.7508223 C48.145,56.7038223 48.195,56.6638223 48.246,56.6178223 C48.381,56.4988223 48.516,56.3758223 48.652,56.2648223 C49.717,55.3748223 50.798,54.7938223 51.892,54.4088223 C52.757,54.1038223 53.63,53.9218223 54.509,53.8168223 C55.107,53.7448223 55.709,53.7058223 56.312,53.6868223 C56.569,53.6778223 56.828,53.6818223 57.085,53.6788223 C57.57,53.6718223 58.055,53.6638223 58.543,53.6638223 L60.692,53.6638223 C60.796,53.1978223 61.496,50.0538223 61.891,48.4248223 C61.906,48.3608223 61.903,48.3038223 61.916,48.2408223 C57.342,45.6458223 54.222,40.4948223 54.222,34.5548223 C54.222,26.0078223 60.676,19.0788223 68.637,19.0788223 C76.599,19.0788223 83.053,26.0078223 83.053,34.5548223 C83.053,40.4488223 79.983,45.5718223 75.466,48.1858223 C75.861,50.0198223 76.613,53.1968223 76.725,53.6658223 L77.405,53.6658223 L78.768,53.6638223 C82.144,53.6638223 85.467,53.6018223 88.659,56.2648223 C88.794,56.3758223 88.929,56.4988223 89.064,56.6178223 C89.066,56.6188223 89.067,56.6198223 89.068,56.6218223 C89.152,55.4848223 89.165,54.6838223 89.165,54.3238223 L89.165,19.0348223 C89.165,18.1658223 88.636,17.3838223 87.829,17.0628223 L45.442,0.179822314 C44.934,-0.042177686 44.342,-0.067177686 43.791,0.152822314 L1.336,17.0628223 C0.528,17.3838223 7.10542736e-15,18.1658223 7.10542736e-15,19.0348223 L7.10542736e-15,54.3238223 C7.10542736e-15,54.5218223 0.004,54.8568223 0.021,55.2998223 C0.048,55.2768223 0.074,55.2538223 0.101,55.2298223 C0.235,55.1098223 0.371,54.9868223 0.506,54.8768223" id="Fill-4" fill="#DAD2BD"></path>
                <path d="M17.9206,89.3870223 C26.8936,95.5320223 32.1666,98.7560223 36.0146,101.110022 C38.7326,102.772022 40.8806,104.084022 43.2436,105.759022 C43.6286,106.030022 44.0656,106.163022 44.5126,106.144022 L44.3776,82.3040223 L44.3766,84.6450223 L44.3766,82.1230223 L44.3776,82.3040223 L44.3816,71.7880223 C44.4016,68.3990223 44.4776,65.9610223 44.6306,64.1560223 C44.4406,60.7090223 44.0606,59.1330223 43.3936,58.1590223 C43.1076,57.7000223 42.8436,57.3040223 42.6266,57.0330223 C42.1116,56.3870223 41.5916,55.8410223 41.0696,55.3630223 C41.0196,55.3160223 40.9696,55.2760223 40.9186,55.2300223 C40.7836,55.1100223 40.6486,54.9870223 40.5136,54.8770223 C39.4476,53.9870223 38.3666,53.4060223 37.2736,53.0210223 C36.4076,52.7150223 35.5346,52.5340223 34.6556,52.4280223 C34.0576,52.3570223 33.4566,52.3180223 32.8536,52.2980223 C32.5966,52.2900223 32.3376,52.2940223 32.0796,52.2900223 C31.5946,52.2840223 31.1096,52.2758938 30.6226,52.2758938 L28.4726,52.2758938 C28.4816,52.3140223 28.4866,52.3400223 28.4866,52.3400223 C28.4866,52.3400223 26.4606,58.0360223 20.5356,58.0360223 C14.6096,58.0360223 12.4246,52.3420223 12.4246,52.3420223 C12.4246,52.3420223 12.4316,52.3160223 12.4406,52.2780223 L11.7596,52.2780223 L10.3976,52.2758938 C7.0216,52.2758938 3.6976,52.2130223 0.5056,54.8770223 C0.3706,54.9870223 0.2356,55.1100223 0.1006,55.2300223 C0.0746,55.2540223 0.0476,55.2770223 0.0216,55.3000223 C0.1686,59.1020223 1.3046,71.3510223 9.6376,81.7160223 C11.8526,84.4710223 14.5716,87.0940223 17.9206,89.3870223" id="Fill-6" fill="#5495CF"></path>
                <path d="M13.092,44.3802223 C10.016,41.1842223 9.889,37.0692223 9.915,32.9002223 C10.494,29.3752223 15.711,27.2472223 19.361,28.8572223 C22.838,30.3912223 26.19,32.3512223 30.11,32.3292223 C30.421,32.3282223 30.634,32.3802223 30.782,32.4932223 C30.975,32.6392223 31.055,32.8892223 31.066,33.2782223 C31.143,36.2172223 30.826,39.0792223 29.693,41.7952223 C29.295,42.7492223 28.673,43.5142223 27.988,44.2352223 C27.287,44.9732223 27.054,45.8372223 27.249,46.8522223 C31.823,44.2582223 34.943,39.1072223 34.943,33.1672223 C34.943,24.6202223 28.489,17.6912223 20.528,17.6912223 C12.566,17.6912223 6.112,24.6202223 6.112,33.1672223 C6.112,39.0612223 9.182,44.1842223 13.699,46.7972223 C13.715,46.7232223 13.731,46.6472223 13.746,46.5772223 C13.923,45.7442223 13.651,44.9612223 13.092,44.3802223" id="Fill-8" fill="#2167AE"></path>
                <path d="M27.2492,46.8524223 C25.2412,47.9914223 22.9562,48.6434223 20.5272,48.6434223 C18.0562,48.6434223 15.7312,47.9734223 13.6992,46.7974223 C13.3032,48.6324223 12.5512,51.8084223 12.4402,52.2774223 L19.5232,52.2764223 L28.4732,52.2764223 C28.3692,51.8104223 27.6682,48.6654223 27.2742,47.0374223 C27.2582,46.9734223 27.2612,46.9154223 27.2492,46.8524223" id="Fill-10" fill="#ECEEEF"></path>
                <path d="M12.4401,52.2776223 C12.4311,52.3166223 12.4251,52.3416223 12.4251,52.3416223 C12.4251,52.3416223 14.6091,58.0366223 20.5351,58.0366223 C26.4611,58.0366223 28.4871,52.3396223 28.4871,52.3396223 C28.4871,52.3396223 28.4821,52.3146223 28.4731,52.2766223 L19.5231,52.2766223 L12.4401,52.2776223 Z" id="Fill-12" fill="#ECEEEF"></path>
                <path d="M27.2492,46.8524223 C27.0542,45.8374223 27.2872,44.9734223 27.9882,44.2354223 C28.6732,43.5144223 29.2952,42.7494223 29.6932,41.7944223 C30.8262,39.0794223 31.1432,36.2174223 31.0652,33.2784223 C31.0552,32.8894223 30.9752,32.6394223 30.7822,32.4934223 C30.6342,32.3804223 30.4202,32.3284223 30.1102,32.3294223 C26.1892,32.3514223 22.8372,30.3914223 19.3612,28.8574223 C15.7102,27.2474223 10.4942,29.3744223 9.9152,32.8994223 C9.8892,37.0694223 10.0162,41.1844223 13.0922,44.3804223 C13.6512,44.9614223 13.9232,45.7444223 13.7462,46.5774223 C13.7312,46.6464223 13.7142,46.7234223 13.6992,46.7974223 C15.7312,47.9734223 18.0562,48.6434223 20.5272,48.6434223 C22.9562,48.6434223 25.2412,47.9914223 27.2492,46.8524223" id="Fill-14" fill="#ECEEEF"></path>
                <path d="M88.6589,56.2650223 C85.4679,53.6010223 82.1439,53.6638938 78.7679,53.6638938 L77.4059,53.6660223 L76.7249,53.6660223 C76.7339,53.7040223 76.7399,53.7290223 76.7399,53.7290223 C76.7399,53.7290223 74.5549,59.4240223 68.6299,59.4240223 C62.7039,59.4240223 60.6779,53.7280223 60.6779,53.7280223 C60.6779,53.7280223 60.6829,53.7020223 60.6919,53.6638938 L58.5429,53.6638938 C58.0549,53.6638938 57.5709,53.6720223 57.0849,53.6790223 C56.8279,53.6820223 56.5689,53.6780223 56.3119,53.6860223 C55.7089,53.7060223 55.1069,53.7450223 54.5089,53.8170223 C53.6299,53.9220223 52.7569,54.1030223 51.8919,54.4090223 C50.7989,54.7940223 49.7179,55.3750223 48.6519,56.2650223 C48.5159,56.3750223 48.3809,56.4980223 48.2459,56.6180223 C48.1959,56.6640223 48.1449,56.7040223 48.0959,56.7510223 C47.5729,57.2290223 47.0529,57.7760223 46.5379,58.4210223 C46.3219,58.6920223 46.0569,59.0890223 45.7709,59.5480223 C45.2009,60.3790223 44.8419,61.6560223 44.6309,64.1560223 C44.7199,65.7790223 44.7679,67.8130223 44.7839,70.4000223 L44.7879,80.9160223 L44.7889,80.7350223 L44.7889,83.2570223 L44.7879,80.9160223 L44.6449,106.147022 C44.6609,106.147022 44.6769,106.149022 44.6939,106.149022 C45.0669,106.149022 45.4439,106.051022 45.7849,105.847022 L47.0959,105.060022 C52.2449,101.979022 57.1079,99.0660223 71.2429,89.3870223 C74.6859,87.0300223 77.4599,84.3230223 79.7079,81.4830223 C87.0809,72.1700223 88.7129,61.4020223 89.0679,56.6210223 C89.0669,56.6200223 89.0659,56.6190223 89.0639,56.6180223 C88.9299,56.4980223 88.7939,56.3750223 88.6589,56.2650223" id="Fill-16" fill="#ECEEEF"></path>
                <polygon id="Fill-18" fill="#ECEEEF" points="44.7887 80.7347223 44.7877 80.9167223 44.7887 83.2567223"></polygon>
                <polygon id="Fill-20" fill="#ECEEEF" points="44.3761 84.6449223 44.3771 82.3049223 44.3761 82.1229223"></polygon>
                <path d="M44.7834,70.4002223 C44.7674,67.8132223 44.7204,65.7792223 44.6304,64.1562223 C44.4774,65.9612223 44.4014,68.3992223 44.3814,71.7882223 L44.3774,82.3042223 L44.5124,106.144222 C44.5354,106.143222 44.5574,106.147222 44.5804,106.145222 C44.6024,106.147222 44.6234,106.147222 44.6444,106.147222 L44.7874,80.9162223 L44.7834,70.4002223 Z" id="Fill-22" fill="#ECEEEF"></path>
                <path d="M61.1769,45.6238223 C60.4919,44.9028223 59.8699,44.1378223 59.4719,43.1828223 C58.3389,40.4668223 58.0219,37.6048223 58.0989,34.6658223 C58.1099,34.2768223 58.1899,34.0268223 58.3829,33.8808223 C58.5309,33.7688223 58.7439,33.7158223 59.0549,33.7178223 C62.9759,33.7388223 66.3269,31.7788223 69.8039,30.2458223 C73.4539,28.6348223 78.6709,30.7628223 79.2499,34.2878223 C79.2759,38.4578223 79.1489,42.5718223 76.0729,45.7678223 C75.5139,46.3498223 75.2419,47.1328223 75.4189,47.9658223 C75.4339,48.0348223 75.4499,48.1108223 75.4659,48.1858223 C79.9829,45.5718223 83.0529,40.4488223 83.0529,34.5548223 C83.0529,26.0078223 76.5989,19.0788223 68.6369,19.0788223 C60.6759,19.0788223 54.2219,26.0078223 54.2219,34.5548223 C54.2219,40.4948223 57.3419,45.6458223 61.9159,48.2408223 C62.1109,47.2258223 61.8779,46.3608223 61.1769,45.6238223" id="Fill-24" fill="#23366F"></path>
                <path d="M76.7248,53.6658223 C76.6138,53.1968223 75.8618,50.0198223 75.4658,48.1858223 C73.4328,49.3608223 71.1088,50.0308223 68.6378,50.0308223 C66.2088,50.0308223 63.9238,49.3788223 61.9158,48.2408223 C61.9038,48.3038223 61.9068,48.3608223 61.8908,48.4248223 C61.4958,50.0538223 60.7958,53.1978223 60.6918,53.6638223 L69.6418,53.6648223 L76.7248,53.6658223 Z" id="Fill-26" fill="#2167AE"></path>
                <path d="M68.6301,59.4241223 C74.5551,59.4241223 76.7401,53.7291223 76.7401,53.7291223 C76.7401,53.7291223 76.7341,53.7041223 76.7251,53.6661223 L69.6421,53.6651223 L60.6921,53.6641223 C60.6831,53.7021223 60.6781,53.7281223 60.6781,53.7281223 C60.6781,53.7281223 62.7041,59.4241223 68.6301,59.4241223" id="Fill-28" fill="#2167AE"></path>
                <path d="M75.466,48.1854223 C75.45,48.1114223 75.434,48.0354223 75.419,47.9654223 C75.242,47.1324223 75.514,46.3494223 76.073,45.7684223 C79.149,42.5714223 79.276,38.4574223 79.25,34.2874223 C78.671,30.7634223 73.454,28.6354223 69.804,30.2454223 C66.327,31.7784223 62.976,33.7394223 59.055,33.7174223 C58.744,33.7154223 58.531,33.7684223 58.383,33.8814223 C58.19,34.0274223 58.11,34.2764223 58.099,34.6654223 C58.022,37.6044223 58.339,40.4664223 59.472,43.1834223 C59.87,44.1374223 60.492,44.9024223 61.177,45.6234223 C61.878,46.3614223 62.111,47.2254223 61.916,48.2404223 C63.924,49.3794223 66.209,50.0314223 68.637,50.0314223 C71.109,50.0314223 73.433,49.3614223 75.466,48.1854223" id="Fill-30" fill="#2167AE"></path>
            </g>
        </g>
    </g>
</svg>