<?xml version="1.0" encoding="UTF-8"?>
<svg width="140px" height="140px" viewBox="0 0 140 140" version="1.1" xmlns="http://www.w3.org/2000/svg" xmlns:xlink="http://www.w3.org/1999/xlink">
    <title>pictogram/dark/people/protection/single</title>
    <defs>
        <polygon id="path-1" points="0 0 140 0 140 139.9998 0 139.9998"></polygon>
    </defs>
    <g id="pictogram/dark/people/protection/single" stroke="none" stroke-width="1" fill="none" fill-rule="evenodd">
        <g id="protection-single" transform="translate(0.000000, 0.000000)">
            <g id="Group-3">
                <mask id="mask-2" fill="white">
                    <use xlink:href="#path-1"></use>
                </mask>
                <g id="Clip-2"></g>
                <path d="M70,139.9998 C31.34,139.9998 0,108.6598 0,69.9998 C0,31.3398 31.34,-0.0002 70,-0.0002 C108.66,-0.0002 140,31.3398 140,69.9998 C140,108.6598 108.66,139.9998 70,139.9998" id="Fill-1" fill="#91BFE3" mask="url(#mask-2)"></path>
            </g>
            <g id="Group-12" transform="translate(25.416800, 20.167726)">
                <path d="M89.166,19.0346743 C89.166,18.1656743 88.637,17.3846743 87.83,17.0626743 L45.442,0.179674275 C44.935,-0.0423257253 44.343,-0.0673257253 43.792,0.153674275 L1.337,17.0626743 C0.529,17.3846743 0,18.1656743 0,19.0346743 L0,54.3246743 C0,56.2096743 0.333,70.1426743 9.639,81.7166743 C9.692,81.6236743 9.745,81.5466743 9.799,81.4346743 C10.543,79.6156743 11.197,78.2306743 11.713,77.4776743 C12.126,76.8156743 12.507,76.2426743 12.82,75.8516743 C13.563,74.9216743 14.312,74.1326743 15.066,73.4426743 C15.139,73.3746743 15.212,73.3176743 15.284,73.2516743 C15.478,73.0786743 15.674,72.9006743 15.869,72.7426743 C20.473,68.8986743 25.268,68.9896743 30.139,68.9896743 L32.104,68.9926743 L43.305,68.9906743 L59.317,68.9896743 C60.394,68.9896743 61.468,68.9866743 62.536,69.0216743 C63.406,69.0496743 64.274,69.1056743 65.137,69.2096743 C66.405,69.3616743 67.664,69.6236743 68.913,70.0636743 C70.49,70.6196743 72.049,71.4576743 73.587,72.7426743 C73.782,72.9006743 73.978,73.0786743 74.172,73.2516743 C74.245,73.3176743 74.317,73.3746743 74.39,73.4426743 C75.144,74.1326743 75.893,74.9216743 76.636,75.8516743 C76.948,76.2426743 77.33,76.8156743 77.743,77.4776743 C78.189,78.1296743 78.742,79.2796743 79.367,80.7886743 C79.47,81.0006743 79.587,81.2356743 79.708,81.4836743 C88.834,69.9566743 89.166,56.1966743 89.166,54.3246743 L89.166,19.0346743 Z" id="Fill-4" fill="#DAD2BD"></path>
                <path d="M77.7426,77.4780743 C77.3296,76.8160743 76.9486,76.2430743 76.6366,75.8520743 C75.8926,74.9220743 75.1436,74.1330743 74.3896,73.4430743 C74.3176,73.3750743 74.2446,73.3170743 74.1716,73.2510743 C73.9776,73.0790743 73.7826,72.9010743 73.5866,72.7420743 C72.0496,71.4580743 70.4896,70.6200743 68.9126,70.0640743 C67.6636,69.6240743 66.4046,69.3620743 65.1366,69.2100743 C64.2736,69.1060743 63.4066,69.0500743 62.5356,69.0210743 C61.4676,68.9870743 60.3936,68.9888941 59.3176,68.9888941 L43.3046,68.9910743 L32.1046,68.9920743 L30.1386,68.9888941 C25.2676,68.9888941 20.4726,68.8990743 15.8686,72.7420743 C15.6736,72.9010743 15.4786,73.0790743 15.2846,73.2510743 C15.2116,73.3170743 15.1386,73.3750743 15.0666,73.4430743 C14.3126,74.1330743 13.5626,74.9220743 12.8196,75.8520743 C12.5076,76.2430743 12.1266,76.8160743 11.7136,77.4780743 C11.1966,78.2310743 10.5436,79.6150743 9.7986,81.4350743 C9.7446,81.5460743 9.6926,81.6240743 9.6386,81.7160743 C11.8536,84.4710743 14.5726,87.0940743 17.9216,89.3870743 C26.8946,95.5320743 32.1666,98.7570743 36.0146,101.110074 C38.7336,102.772074 40.8816,104.084074 43.2446,105.759074 C43.6496,106.044074 44.1106,106.182074 44.5816,106.145074 C44.6196,106.149074 44.6566,106.149074 44.6946,106.149074 C45.0676,106.149074 45.4446,106.051074 45.7856,105.847074 L47.0966,105.061074 C52.2456,101.979074 57.1086,99.0670743 71.2436,89.3870743 C74.6866,87.0300743 77.4606,84.3240743 79.7086,81.4840743 C79.5866,81.2360743 79.4706,81.0000743 79.3676,80.7890743 C78.7416,79.2790743 78.1896,78.1290743 77.7426,77.4780743" id="Fill-6" fill="#2167AE"></path>
                <path d="M65.5509,41.4209743 C65.5509,53.7519743 56.2399,63.7479743 44.7539,63.7479743 C33.2669,63.7479743 23.9559,53.7519743 23.9559,41.4209743 C23.9559,29.0899743 33.2669,19.0939743 44.7539,19.0939743 C56.2399,19.0939743 65.5509,29.0899743 65.5509,41.4209743" id="Fill-8" fill="#23366F"></path>
                <path d="M56.2369,69.0820743 C56.2369,69.0820743 55.1029,63.9730743 54.4869,61.4320743 C54.1029,59.8470743 54.4429,58.5200743 55.5169,57.3900743 C56.5049,56.3500743 57.4029,55.2460743 57.9769,53.8690743 C59.6109,49.9500743 60.0689,45.8210743 59.9569,41.5810743 C59.9419,41.0200743 59.8269,40.6600743 59.5479,40.4490743 C59.3339,40.2870743 59.0259,40.2100743 58.5779,40.2130743 C52.9219,40.2440743 48.0859,37.4150743 43.0699,35.2040743 C37.8039,32.8800743 30.2779,35.9500743 29.4429,41.0350743 C29.4059,47.0510743 29.5889,52.9870743 34.0259,57.5980743 C34.8329,58.4370743 35.2249,59.5670743 34.9699,60.7690743 C34.3789,63.5510743 33.0639,69.0840743 33.0639,69.0840743 C33.0639,69.0840743 36.2159,77.3000743 44.7649,77.3000743 C53.3129,77.3000743 56.2369,69.0820743 56.2369,69.0820743" id="Fill-10" fill="#5495CF"></path>
            </g>
        </g>
    </g>
</svg>