<?xml version="1.0" encoding="UTF-8"?>
<svg width="140px" height="140px" viewBox="0 0 140 140" version="1.1" xmlns="http://www.w3.org/2000/svg" xmlns:xlink="http://www.w3.org/1999/xlink">
    <title>pictogram/light/mobility/distance/diagonal</title>
    <g id="pictogram/light/mobility/distance/diagonal" stroke="none" stroke-width="1" fill="none" fill-rule="evenodd">
        <g id="distance-diagonal" transform="translate(-0.000400, 0.000000)">
            <path d="M140,70 C140,108.66 108.66,140 70,140 C31.341,140 0,108.66 0,70 C0,31.34 31.341,0 70,0 C108.66,0 140,31.34 140,70" id="circle" fill="#DDE4E3"></path>
            <g id="picto" transform="translate(22.300400, 28.304600)">
                <path d="M76.9379,64.6151 C73.3159,64.6151 70.1789,66.6701 68.6129,69.6741 L29.3199,50.3251 C29.4829,49.6331 29.5779,48.9141 29.5779,48.1721 C29.5779,42.9871 25.3749,38.7831 20.1899,38.7831 C15.0049,38.7831 10.8019,42.9871 10.8019,48.1721 C10.8019,53.3561 15.0049,57.5601 20.1899,57.5601 C23.0159,57.5601 25.5439,56.3051 27.2649,54.3291 L67.5579,74.1711 C67.6479,79.2771 71.8099,83.3911 76.9379,83.3911 C82.1229,83.3911 86.3259,79.1881 86.3259,74.0031 C86.3259,68.8181 82.1229,64.6151 76.9379,64.6151" id="Fill-4" fill="#2167AE"></path>
                <path d="M91.223,32.2564 C87.409,28.4414 82.337,26.3414 76.943,26.3414 C71.549,26.3414 66.478,28.4414 62.663,32.2564 C58.849,36.0704 56.748,41.1414 56.748,46.5354 C56.748,51.9294 58.849,57.0004 62.668,60.8204 L76.495,74.3314 C76.619,74.4524 76.782,74.5134 76.943,74.5134 C77.105,74.5134 77.266,74.4524 77.391,74.3314 L91.223,60.8154 C99.096,52.9414 99.096,40.1294 91.223,32.2564" id="Fill-6" fill="#91BFE3"></path>
                <path d="M76.9428,36.2389 C71.3148,36.2389 66.7358,40.8179 66.7358,46.4469 C66.7358,52.0749 71.3148,56.6539 76.9428,56.6539 C82.5718,56.6539 87.1508,52.0749 87.1508,46.4469 C87.1508,40.8179 82.5718,36.2389 76.9428,36.2389" id="Fill-8" fill="#5495CF"></path>
                <path d="M77.9174,50.5301 C78.4624,50.5301 78.8864,50.3841 79.1884,50.0931 C79.4884,49.8011 79.6404,49.4071 79.6404,48.9111 C79.6404,48.4251 79.4884,48.0331 79.1884,47.7361 C78.8864,47.4391 78.4674,47.2911 77.9324,47.2911 L74.8104,47.2911 L74.8104,50.5301 L77.9174,50.5301 Z M77.7424,46.0071 C78.2384,46.0071 78.6254,45.8711 78.9024,45.5981 C79.1804,45.3261 79.3184,44.9661 79.3184,44.5181 C79.3184,44.0611 79.1784,43.7011 78.8964,43.4381 C78.6134,43.1761 78.2194,43.0441 77.7134,43.0441 L74.8104,43.0441 L74.8104,46.0071 L77.7424,46.0071 Z M73.1314,51.9311 L73.1314,41.6581 L78.0204,41.6581 C78.6234,41.6581 79.1484,41.7741 79.5964,42.0081 C80.0434,42.2421 80.3844,42.5601 80.6174,42.9641 C80.8514,43.3681 80.9684,43.8231 80.9684,44.3281 C80.9684,44.8151 80.8464,45.2531 80.6034,45.6411 C80.3594,46.0311 80.0234,46.3231 79.5964,46.5171 C80.1504,46.7211 80.5784,47.0451 80.8804,47.4881 C81.1824,47.9301 81.3324,48.4541 81.3324,49.0561 C81.3324,49.6011 81.2084,50.0931 80.9604,50.5301 C80.7124,50.9681 80.3594,51.3111 79.9024,51.5591 C79.4444,51.8071 78.9054,51.9311 78.2824,51.9311 L73.1314,51.9311 Z" id="Fill-10" fill="#23366F"></path>
                <path d="M34.475,5.915 C30.661,2.1 25.589,0 20.195,0 C14.801,0 9.73,2.1 5.916,5.915 C2.101,9.729 0,14.8 0,20.194 C0,25.588 2.101,30.659 5.921,34.479 L19.747,47.99 C19.871,48.111 20.034,48.172 20.195,48.172 C20.357,48.172 20.518,48.111 20.643,47.99 L34.475,34.474 C42.348,26.6 42.348,13.788 34.475,5.915" id="Fill-12" fill="#91BFE3"></path>
                <path d="M20.1947,9.8976 C14.5667,9.8976 9.9877,14.4766 9.9877,20.1056 C9.9877,25.7336 14.5667,30.3126 20.1947,30.3126 C25.8237,30.3126 30.4037,25.7336 30.4037,20.1056 C30.4037,14.4766 25.8237,9.8976 20.1947,9.8976" id="Fill-14" fill="#5495CF"></path>
                <path d="M18.5189,21.5702 L21.8319,21.5702 L20.1669,17.2212 L18.5189,21.5702 Z M15.2929,25.4662 L19.2479,15.1932 L21.1459,15.1932 L25.0999,25.4662 L23.3199,25.4662 L22.3999,23.0442 L17.9489,23.0442 L17.0309,25.4662 L15.2929,25.4662 Z" id="Fill-16" fill="#23366F"></path>
            </g>
        </g>
    </g>
</svg>