<?xml version="1.0" encoding="UTF-8"?>
<svg width="140px" height="140px" viewBox="0 0 140 140" version="1.1" xmlns="http://www.w3.org/2000/svg" xmlns:xlink="http://www.w3.org/1999/xlink">
    <title>pictogram/light/finance/cash/dolar</title>
    <g id="pictogram/light/finance/cash/dolar" stroke="none" stroke-width="1" fill="none" fill-rule="evenodd">
        <g id="cash-dolar" transform="translate(-0.000000, 0.000000)">
            <path d="M70,0 L70,0 C108.66,0 140,31.34 140,70 C140,108.66 108.66,140 70,140 C31.34,140 0,108.66 0,70 C0,31.34 31.34,0 70,0" id="circle" fill="#DDE4E3"></path>
            <g id="picto" transform="translate(16.757411, 38.000000)">
                <g id="Group-10" transform="translate(0.000000, 7.074600)" fill="#5495CF">
                    <path d="M9.88848864,6 L9.88848864,7 C9.88848864,10.314 12.5754886,13 15.8884886,13 L57.5644886,13 C60.8774886,13 63.5644886,10.314 63.5644886,7 L63.5644886,6 C63.5644886,2.686 60.8774886,1.42108547e-14 57.5644886,1.42108547e-14 L15.8884886,1.42108547e-14 C12.5754886,1.42108547e-14 9.88848864,2.686 9.88848864,6" id="Fill-4"></path>
                    <path d="M19.8836886,42.9003 L19.8836886,43.9003 C19.8836886,47.2143 22.5696886,49.9003 25.8836886,49.9003 L57.5646886,49.9003 C60.8776886,49.9003 63.5646886,47.2143 63.5646886,43.9003 L63.5646886,42.9003 C63.5646886,39.5863 60.8776886,36.9003 57.5646886,36.9003 L25.8836886,36.9003 C22.5696886,36.9003 19.8836886,39.5863 19.8836886,42.9003" id="Fill-6"></path>
                    <path d="M0.00818863665,24.4019 L-3.55271368e-15,25.4019 C-0.0258113633,28.7159 2.63918864,31.4229 5.95318864,31.4489 L57.5141886,31.4499 C60.8281886,31.4759 63.5351886,28.8109 63.5611886,25.4969 L63.5693631,24.4969 C63.5941886,21.1839 60.9291886,18.4769 57.6151886,18.4509 L6.05418864,18.4489 C2.74118864,18.4229 0.0341886367,21.0879 0.00818863665,24.4019" id="Fill-8"></path>
                </g>
                <path d="M42.4846886,32 C42.4846886,49.645 56.8396886,64 74.4846886,64 C92.1296886,64 106.484689,49.645 106.484689,32 C106.484689,14.355 92.1296886,0 74.4846886,0 C56.8396886,0 42.4846886,14.355 42.4846886,32 Z" id="Fill-11" fill="#2167AE"></path>
                <path d="M80.7508886,38.7808 C80.7508886,41.1458 79.1678886,43.1268 77.0138886,43.7798 L77.0138886,33.7808 C79.1678886,34.4348 80.7508886,36.4158 80.7508886,38.7808 M70.7478886,25.2678 C70.7478886,23.0828 72.0918886,21.2088 73.9948886,20.4208 L73.9948886,30.1138 C72.0918886,29.3258 70.7478886,27.4528 70.7478886,25.2678 M81.2418886,25.2678 C81.2418886,26.1008 81.9178886,26.7778 82.7508886,26.7778 C83.5838886,26.7778 84.2608886,26.1008 84.2608886,25.2678 C84.2608886,21.0548 81.0908886,17.5758 77.0138886,17.0718 L77.0138886,11.7548 C77.0138886,10.9208 76.3368886,10.2448 75.5038886,10.2448 C74.6708886,10.2448 73.9948886,10.9208 73.9948886,11.7548 L73.9948886,17.2568 C70.4018886,18.1548 67.7288886,21.4008 67.7288886,25.2678 C67.7288886,29.1348 70.4018886,32.3808 73.9948886,33.2788 L73.9948886,43.7798 C71.8398886,43.1268 70.2568886,41.1458 70.2568886,38.7808 C70.2568886,37.9478 69.5808886,37.2718 68.7478886,37.2718 C67.9138886,37.2718 67.2378886,37.9478 67.2378886,38.7808 C67.2378886,42.8228 70.1558886,46.1898 73.9948886,46.9018 L73.9948886,52.2938 C73.9948886,53.1278 74.6708886,53.8028 75.5038886,53.8028 C76.3368886,53.8028 77.0138886,53.1278 77.0138886,52.2938 L77.0138886,46.9018 C80.8518886,46.1898 83.7698886,42.8228 83.7698886,38.7808 C83.7698886,34.7388 80.8518886,31.3718 77.0138886,30.6588 L77.0138886,20.1238 C79.4198886,20.5998 81.2418886,22.7228 81.2418886,25.2678" id="Fill-13" fill="#91BFE3"></path>
            </g>
        </g>
    </g>
</svg>