<?xml version="1.0" encoding="UTF-8"?>
<svg width="140px" height="140px" viewBox="0 0 140 140" version="1.1" xmlns="http://www.w3.org/2000/svg" xmlns:xlink="http://www.w3.org/1999/xlink">
    <title>pictogram/light/people/focus</title>
    <defs>
        <polygon id="path-1" points="0 0 140 0 140 139.9999 0 139.9999"></polygon>
    </defs>
    <g id="pictogram/light/people/focus" stroke="none" stroke-width="1" fill="none" fill-rule="evenodd">
        <g id="focus" transform="translate(0.000000, 0.000000)">
            <g id="Group-3">
                <mask id="mask-2" fill="white">
                    <use xlink:href="#path-1"></use>
                </mask>
                <g id="Clip-2"></g>
                <path d="M70,-0.0001 C31.34,-0.0001 0,31.3399 0,69.9999 C0,108.6599 31.34,139.9999 70,139.9999 C108.66,139.9999 140,108.6599 140,69.9999 C140,31.3399 108.66,-0.0001 70,-0.0001" id="Fill-1" fill="#DDE4E3" mask="url(#mask-2)"></path>
            </g>
            <g id="Group-30" transform="translate(14.714511, 14.636079)">
                <path d="M58.9637893,80.7695208 C59.2617893,80.2925208 59.5357893,79.8795208 59.7607893,79.5985208 C60.2967893,78.9275208 60.8367893,78.3595208 61.3797893,77.8625208 C61.4307893,77.8135208 61.4837893,77.7715208 61.5357893,77.7245208 C61.6757893,77.6005208 61.8167893,77.4725208 61.9577893,77.3575208 C65.2737893,74.5895208 68.7277893,74.6545208 72.2367893,74.6545208 L73.6527893,74.6565208 L74.3597893,74.6565208 C74.4757893,74.1685208 75.2557893,70.8675208 75.6677893,68.9605208 C70.9737893,66.2445208 67.7827893,60.9205208 67.7827893,54.7955208 C67.7827893,53.6365208 67.9027893,52.5095208 68.1197893,51.4195208 C67.9457893,51.4115208 67.7737893,51.3885208 67.5997893,51.3825208 C66.8297893,51.3575208 66.0567893,51.3584787 65.2807893,51.3584787 L53.7457893,51.3605208 L45.6777893,51.3615208 L44.2617893,51.3584787 C43.0707893,51.3584787 41.8867893,51.3535208 40.7127893,51.4525208 C40.9247893,52.5315208 41.0407893,53.6485208 41.0407893,54.7955208 C41.0407893,60.9685208 37.7977893,66.3215208 33.0447893,69.0185208 C33.0577893,69.0835208 33.0537893,69.1435208 33.0707893,69.2105208 C33.4807893,70.9025208 34.2087893,74.1695208 34.3167893,74.6545208 L36.5497893,74.6545208 C37.3257893,74.6545208 38.0997893,74.6525208 38.8687893,74.6775208 C39.4957893,74.6985208 40.1207893,74.7385208 40.7417893,74.8135208 C41.6557893,74.9225208 42.5627893,75.1115208 43.4627893,75.4285208 C44.5987893,75.8295208 45.7217893,76.4335208 46.8297893,77.3575208 C46.9697893,77.4725208 47.1107893,77.6005208 47.2517893,77.7245208 C47.3027893,77.7715208 47.3557893,77.8135208 47.4077893,77.8625208 C47.9507893,78.3595208 48.4907893,78.9275208 49.0257893,79.5985208 C49.2507893,79.8795208 49.5257893,80.2925208 49.8227893,80.7695208 C50.8357893,82.2465208 52.5977893,87.2585208 54.4167893,92.8105208 L54.4167893,95.2195208 C54.4637893,95.2205208 54.5107893,95.2225208 54.5587893,95.2235208 L54.5587893,92.0175208 C56.3087893,86.8025208 57.9807893,82.2035208 58.9637893,80.7695208" id="Fill-4" fill="#ECEEEF"></path>
                <path d="M49.8231893,80.7695208 C49.5261893,80.2925208 49.2511893,79.8795208 49.0261893,79.5985208 C48.4901893,78.9275208 47.9501893,78.3595208 47.4071893,77.8625208 C47.3561893,77.8135208 47.3031893,77.7715208 47.2511893,77.7245208 C47.1111893,77.6005208 46.9701893,77.4725208 46.8291893,77.3575208 C45.7221893,76.4335208 44.5981893,75.8295208 43.4621893,75.4285208 C42.5631893,75.1115208 41.6561893,74.9225208 40.7421893,74.8135208 C40.1201893,74.7385208 39.4951893,74.6985208 38.8691893,74.6775208 C38.0991893,74.6525208 37.3261893,74.6544052 36.5501893,74.6544052 L34.3161893,74.6544052 C34.3251893,74.6945208 34.3311893,74.7215208 34.3311893,74.7215208 C34.3311893,74.7215208 32.5241893,79.7715208 27.3861893,80.5355208 C26.9671893,80.5985208 26.5321893,80.6415208 26.0671893,80.6415208 C19.9081893,80.6415208 17.6381893,74.7225208 17.6381893,74.7225208 C17.6381893,74.7225208 17.6451893,74.6965208 17.6551893,74.6565208 L16.9471893,74.6565208 L15.5311893,74.6544052 C12.2651893,74.6544052 9.04618926,74.6005208 5.94218926,76.8265208 C13.5461893,96.2945208 32.4781893,110.152521 54.5581893,110.492521 L54.5581893,95.2235208 L54.5581893,92.0175208 C52.7401893,86.4665208 50.8361893,82.2465208 49.8231893,80.7695208" id="Fill-6" fill="#23366F"></path>
                <path d="M104.113289,77.8628208 C104.061289,77.8138208 104.009289,77.7718208 103.956289,77.7248208 C103.816289,77.5998208 103.676289,77.4718208 103.535289,77.3578208 C102.427289,76.4328208 101.303289,75.8288208 100.168289,75.4288208 C99.2682893,75.1118208 98.3612893,74.9228208 97.4472893,74.8138208 C96.8262893,74.7388208 96.2012893,74.6978208 95.5742893,74.6778208 C94.8042893,74.6528208 94.0312893,74.65469 93.2562893,74.65469 L91.0222893,74.65469 C91.0302893,74.6948208 91.0362893,74.7208208 91.0362893,74.7208208 C91.0362893,74.7208208 88.9302893,80.6408208 82.7722893,80.6408208 C82.5762893,80.6408208 82.3952893,80.6188208 82.2062893,80.6078208 C76.4832893,80.2538208 74.3442893,74.7228208 74.3442893,74.7228208 C74.3442893,74.7228208 74.3502893,74.6958208 74.3602893,74.6568208 L73.6532893,74.6568208 L72.2372893,74.65469 C68.7282893,74.65469 65.2742893,74.5898208 61.9572893,77.3578208 C61.8172893,77.4718208 61.6762893,77.5998208 61.5362893,77.7248208 C61.4842893,77.7718208 61.4312893,77.8138208 61.3792893,77.8628208 C60.8362893,78.3598208 60.2962893,78.9278208 59.7602893,79.5978208 C59.5352893,79.8798208 59.2612893,80.2928208 58.9642893,80.7698208 C57.9812893,82.2028208 56.3092893,86.8018208 54.5582893,92.0178208 L54.5582893,95.2228208 L54.5582893,110.491821 C54.7872893,110.494821 55.0132893,110.508821 55.2432893,110.508821 C77.2812893,110.508821 96.1682893,97.0358208 104.130289,77.8798208 C104.124289,77.8748208 104.118289,77.8678208 104.113289,77.8628208" id="Fill-8" fill="#2167AE"></path>
                <path d="M82.7645893,38.7119208 C75.5695893,38.7119208 69.5645893,44.1589208 68.1195893,51.4199208 C67.9025893,52.5089208 67.7825893,53.6369208 67.7825893,54.7949208 C67.7825893,60.9209208 70.9735893,66.2449208 75.6675893,68.9609208 C75.6835893,68.8839208 75.7015893,68.8039208 75.7165893,68.7329208 C75.9005893,67.8669208 75.6185893,67.0529208 75.0365893,66.4489208 C71.8405893,63.1269208 71.7085893,58.8509208 71.7355893,54.5179208 C71.8665893,53.7189208 72.2365893,52.9949208 72.7595893,52.3599208 C74.6335893,50.0809208 78.5855893,49.0079208 81.5525893,50.3159208 C85.1655893,51.9099208 88.6485893,53.9469208 92.7225893,53.9249208 C93.0465893,53.9229208 93.2675893,53.9779208 93.4225893,54.0949208 C93.6225893,54.2469208 93.7055893,54.5059208 93.7165893,54.9109208 C93.7975893,57.9649208 93.4675893,60.9399208 92.2895893,63.7619208 C91.8765893,64.7539208 91.2295893,65.5489208 90.5175893,66.2989208 C89.7895893,67.0659208 89.5475893,67.9629208 89.7505893,69.0179208 C94.5035893,66.3219208 97.7455893,60.9679208 97.7455893,54.7949208 C97.7455893,45.9129208 91.0385893,38.7119208 82.7645893,38.7119208" id="Fill-10" fill="#23366F"></path>
                <path d="M92.2899893,63.7622208 C93.4669893,60.9392208 93.7969893,57.9652208 93.7159893,54.9102208 C93.7059893,54.5062208 93.6229893,54.2472208 93.4219893,54.0952208 C93.2679893,53.9782208 93.0459893,53.9232208 92.7229893,53.9252208 C88.6489893,53.9472208 85.1649893,51.9102208 81.5519893,50.3162208 C78.5849893,49.0082208 74.6329893,50.0812208 72.7589893,52.3602208 C72.2369893,52.9952208 71.8669893,53.7192208 71.7349893,54.5172208 C71.7079893,58.8512208 71.8409893,63.1272208 75.0369893,66.4492208 C75.6189893,67.0532208 75.9009893,67.8662208 75.7169893,68.7322208 C75.7019893,68.8042208 75.6839893,68.8842208 75.6669893,68.9612208 C75.2559893,70.8672208 74.4759893,74.1692208 74.3599893,74.6572208 C74.3509893,74.6962208 74.3439893,74.7222208 74.3439893,74.7222208 C74.3439893,74.7222208 76.4829893,80.2542208 82.2069893,80.6072208 C82.3949893,80.6192208 82.5759893,80.6412208 82.7719893,80.6412208 C88.9309893,80.6412208 91.0369893,74.7212208 91.0369893,74.7212208 C91.0369893,74.7212208 91.0309893,74.6942208 91.0219893,74.6552208 C90.9139893,74.1702208 90.1859893,70.9032208 89.7759893,69.2102208 C89.7599893,69.1432208 89.7629893,69.0832208 89.7499893,69.0182208 C89.5469893,67.9632208 89.7899893,67.0652208 90.5179893,66.2992208 C91.2299893,65.5492208 91.8759893,64.7542208 92.2899893,63.7622208" id="Fill-12" fill="#5495CF"></path>
                <path d="M40.7123893,51.4526208 C39.2783893,44.1746208 33.2653893,38.7116208 26.0593893,38.7116208 C17.7853893,38.7116208 11.0773893,45.9126208 11.0773893,54.7956208 C11.0773893,60.9206208 14.2683893,66.2446208 18.9623893,68.9606208 C18.9793893,68.8836208 18.9963893,68.8046208 19.0113893,68.7326208 C19.1953893,67.8666208 18.9133893,67.0526208 18.3313893,66.4486208 C15.1353893,63.1266208 15.0033893,58.8506208 15.0293893,54.5176208 C15.6313893,50.8546208 21.0533893,48.6426208 24.8463893,50.3166208 C27.9443893,51.6826208 30.9493893,53.3656208 34.3103893,53.8066208 C34.8693893,53.8806208 35.4363893,53.9286208 36.0183893,53.9246208 C36.3403893,53.9236208 36.5623893,53.9776208 36.7163893,54.0956208 C36.9173893,54.2466208 37.0003893,54.5066208 37.0113893,54.9106208 C37.0913893,57.9646208 36.7623893,60.9396208 35.5853893,63.7626208 C35.1703893,64.7546208 34.5253893,65.5496208 33.8123893,66.2986208 C33.0843893,67.0656208 32.8413893,67.9636208 33.0453893,69.0176208 C37.7973893,66.3216208 41.0413893,60.9686208 41.0413893,54.7956208 C41.0413893,53.6486208 40.9243893,52.5316208 40.7123893,51.4526208" id="Fill-14" fill="#23366F"></path>
                <path d="M35.5848893,63.7622208 C36.7618893,60.9392208 37.0918893,57.9652208 37.0108893,54.9102208 C37.0008893,54.5062208 36.9178893,54.2472208 36.7168893,54.0952208 C36.5628893,53.9782208 36.3408893,53.9232208 36.0178893,53.9252208 C35.4368893,53.9282208 34.8698893,53.8802208 34.3098893,53.8062208 C30.9488893,53.3662208 27.9438893,51.6822208 24.8468893,50.3162208 C21.0528893,48.6432208 15.6308893,50.8542208 15.0298893,54.5172208 C15.0028893,58.8512208 15.1348893,63.1272208 18.3318893,66.4492208 C18.9128893,67.0532208 19.1948893,67.8662208 19.0108893,68.7322208 C18.9958893,68.8042208 18.9788893,68.8842208 18.9618893,68.9612208 C18.5508893,70.8672208 17.7698893,74.1692208 17.6548893,74.6572208 C17.6448893,74.6962208 17.6388893,74.7222208 17.6388893,74.7222208 C17.6388893,74.7222208 19.9088893,80.6412208 26.0668893,80.6412208 C26.5318893,80.6412208 26.9668893,80.5982208 27.3858893,80.5352208 C32.5238893,79.7712208 34.3318893,74.7212208 34.3318893,74.7212208 C34.3318893,74.7212208 34.3248893,74.6942208 34.3158893,74.6552208 C34.2088893,74.1702208 33.4808893,70.9032208 33.0708893,69.2102208 C33.0538893,69.1432208 33.0578893,69.0832208 33.0448893,69.0182208 C32.8418893,67.9632208 33.0838893,67.0652208 33.8128893,66.2992208 C34.5248893,65.5492208 35.1708893,64.7542208 35.5848893,63.7622208" id="Fill-16" fill="#5495CF"></path>
                <path d="M62.2880893,110.728021 C61.2110893,110.728021 60.2590893,109.952021 60.0720893,108.854021 C59.8640893,107.629021 60.6890893,106.467021 61.9140893,106.259021 C101.885089,99.4720208 105.988089,63.5970208 106.025089,63.2360208 C106.150089,61.9990208 107.253089,61.1030208 108.491089,61.2250208 C109.727089,61.3510208 110.627089,62.4550208 110.502089,63.6910208 C110.461089,64.0870208 105.977089,103.342021 62.6670893,110.696021 C62.5400893,110.717021 62.4130893,110.728021 62.2880893,110.728021" id="Fill-18" fill="#91BFE3"></path>
                <path d="M47.2670893,110.727521 C47.1910893,110.727521 47.1140893,110.723521 47.0370893,110.715521 C46.6410893,110.675521 7.38608926,106.190521 0.0320892551,62.8815208 C-0.175910745,61.6565208 0.649089255,60.4955208 1.87408926,60.2875208 C3.09908926,60.0785208 4.26108926,60.9035208 4.46908926,62.1285208 C11.2380893,101.994521 46.0180893,106.084521 47.4950893,106.239521 C48.7300893,106.368521 49.6280893,107.473521 49.5010893,108.708521 C49.3810893,109.865521 48.4060893,110.727521 47.2670893,110.727521" id="Fill-20" fill="#91BFE3"></path>
                <path d="M2.25288926,49.5136208 C2.17588926,49.5136208 2.09788926,49.5096208 2.01988926,49.5016208 C0.784889255,49.3736208 -0.114110745,48.2726208 0.0118892551,47.0376208 C0.0518892551,46.6416208 4.53688926,7.38762078 47.8458893,0.032620782 C49.0708893,-0.177379218 50.2328893,0.648620782 50.4408893,1.87462078 C50.6488893,3.09962078 49.8248893,4.26162078 48.5998893,4.46962078 C8.73388926,11.2386208 4.64288926,46.0186208 4.48888926,47.4956208 C4.36788926,48.6526208 3.39088926,49.5136208 2.25288926,49.5136208" id="Fill-22" fill="#91BFE3"></path>
                <path d="M108.260589,50.4741208 C107.183589,50.4741208 106.231589,49.6981208 106.044589,48.6001208 C99.2575893,8.62912078 63.3835893,4.52612078 63.0215893,4.48912078 C61.7855893,4.36412078 60.8845893,3.26012078 61.0105893,2.02312078 C61.1365893,0.787120782 62.2405893,-0.108879218 63.4765893,0.013120782 C63.8725893,0.053120782 103.127589,4.53712078 110.481589,47.8471208 C110.689589,49.0721208 109.864589,50.2341208 108.639589,50.4421208 C108.512589,50.4631208 108.385589,50.4741208 108.260589,50.4741208" id="Fill-24" fill="#91BFE3"></path>
                <path d="M69.7714893,31.5000208 C69.7714893,40.3830208 63.0634893,47.5830208 54.7894893,47.5830208 C46.5154893,47.5830208 39.8084893,40.3830208 39.8084893,31.5000208 C39.8084893,22.6170208 46.5154893,15.4170208 54.7894893,15.4170208 C63.0634893,15.4170208 69.7714893,22.6170208 69.7714893,31.5000208" id="Fill-26" fill="#23366F"></path>
                <path d="M63.0620893,51.4258208 C63.0620893,51.4258208 62.2450893,47.7458208 61.8010893,45.9148208 C61.5240893,44.7728208 61.7690893,43.8178208 62.5430893,43.0038208 C63.2550893,42.2538208 63.9020893,41.4588208 64.3150893,40.4668208 C65.4930893,37.6438208 65.8220893,34.6698208 65.7420893,31.6148208 C65.7310893,31.2108208 65.6480893,30.9518208 65.4470893,30.7998208 C65.2930893,30.6828208 65.0710893,30.6278208 64.7480893,30.6298208 C60.6740893,30.6518208 57.1910893,28.6148208 53.5770893,27.0208208 C49.7840893,25.3478208 44.3620893,27.5588208 43.7610893,31.2218208 L43.7610893,31.2218208 C43.7340893,35.5558208 43.8660893,39.8318208 47.0620893,43.1538208 C47.6440893,43.7578208 47.9260893,44.5718208 47.7420893,45.4368208 C47.3170893,47.4418208 46.3690893,51.4268208 46.3690893,51.4268208 C46.3690893,51.4268208 48.6390893,57.3458208 54.7980893,57.3458208 C60.9560893,57.3458208 63.0620893,51.4258208 63.0620893,51.4258208" id="Fill-28" fill="#5495CF"></path>
            </g>
        </g>
    </g>
</svg>