<?xml version="1.0" encoding="UTF-8"?>
<svg width="140px" height="140px" viewBox="0 0 140 140" version="1.1" xmlns="http://www.w3.org/2000/svg" xmlns:xlink="http://www.w3.org/1999/xlink">
    <title>pictogram/light/people/leadership</title>
    <defs>
        <polygon id="path-1" points="0 0 140 0 140 139.9995 0 139.9995"></polygon>
        <polygon id="path-3" points="0 -1.42108547e-14 79.653 -1.42108547e-14 79.653 64.426079 0 64.426079"></polygon>
    </defs>
    <g id="pictogram/light/people/leadership" stroke="none" stroke-width="1" fill="none" fill-rule="evenodd">
        <g id="leadership">
            <g id="Group-3">
                <mask id="mask-2" fill="white">
                    <use xlink:href="#path-1"></use>
                </mask>
                <g id="Clip-2"></g>
                <path d="M70,-0.0005 C31.34,-0.0005 0,31.3395 0,69.9995 C0,108.6595 31.34,139.9995 70,139.9995 C108.66,139.9995 140,108.6595 140,69.9995 C140,31.3395 108.66,-0.0005 70,-0.0005" id="Fill-1" fill="#DDE4E3" mask="url(#mask-2)"></path>
            </g>
            <g id="Group-27" transform="translate(1.999300, 28.035100)">
                <path d="M131.0749,58.6948 C130.3219,58.6038 129.5649,58.5548 128.8049,58.5298 C127.8729,58.5008 126.9359,58.5017958 125.9959,58.5017958 L112.0209,58.5038 L102.2459,58.5048 L100.5309,58.5017958 L100.1109,58.5017958 C102.0239,66.7308 105.9439,90.1908 108.2009,99.2748 C121.4829,89.9338 131.3859,76.1128 135.6589,59.9848 C135.2339,59.7818 134.7989,59.5908 134.3709,59.4398 C133.2809,59.0558 132.1819,58.8278 131.0749,58.6948" id="Fill-4" fill="#2167AE"></path>
                <path d="M34.787,57.3226851 L20.812,57.3238 L11.037,57.3258 L9.322,57.3226851 C6.16,57.3226851 3.047,57.2838 0,58.6428 C4.156,75.6338 14.508,90.1958 28.53,99.7828 C29.744,91.4268 33.988,64.5008 35.79,57.3328 C35.455,57.3318 35.122,57.3226851 34.787,57.3226851" id="Fill-6" fill="#23366F"></path>
                <g id="Group-10" transform="translate(28.548400, 47.578821)">
                    <mask id="mask-4" fill="white">
                        <use xlink:href="#path-3"></use>
                    </mask>
                    <g id="Clip-9"></g>
                    <path d="M71.562,10.923179 C71.206,9.390179 70.917,8.369179 70.724,8.088179 C70.33,7.457179 69.967,6.911179 69.669,6.538179 C68.962,5.652179 68.247,4.901179 67.529,4.243179 C67.46,4.178179 67.391,4.123179 67.322,4.061179 C67.136,3.896179 66.95,3.727179 66.764,3.575179 C65.299,2.352179 63.813,1.553179 62.311,1.024179 C61.121,0.604179003 59.921,0.355179003 58.713,0.210179003 C57.891,0.111179003 57.064,0.0581790031 56.235,0.0301790031 C55.217,-0.0018209969 54.194,-1.42108547e-14 53.168,-1.42108547e-14 L49.632,-1.42108547e-14 L37.912,0.0011790031 L28.134,0.0031790031 L27.241,0.0031790031 L25.368,-1.42108547e-14 C20.727,-1.42108547e-14 16.159,-0.0868209969 11.772,3.575179 C11.586,3.727179 11.4,3.896179 11.215,4.061179 C11.146,4.123179 11.077,4.178179 11.008,4.243179 C10.29,4.901179 9.575,5.652179 8.867,6.538179 C8.57,6.911179 8.207,7.457179 7.813,8.088179 C7.675,8.289179 7.485,8.896179 7.259,9.795179 C5.458,16.962179 1.213,43.888179 0,52.245179 C1.708,53.412179 3.46,54.500179 5.272,55.516179 C15.38,61.182179 27.029,64.426179 39.441,64.426179 C52.1,64.426179 63.963,61.049179 74.208,55.172179 C76.081,54.098179 77.894,52.932179 79.653,51.695179 C77.395,42.612179 73.475,19.152179 71.562,10.923179" id="Fill-8" fill="#91BFE3" mask="url(#mask-4)"></path>
                </g>
                <path d="M108.8447,101.6245 C108.7417,101.7155 108.9477,101.5345 108.8447,101.6245" id="Fill-11" fill="#ECEEEF"></path>
                <path d="M131.4188,34.4019 C131.4188,45.1639 123.2928,53.8879 113.2678,53.8879 C103.2438,53.8879 95.1168,45.1639 95.1168,34.4019 C95.1168,23.6399 103.2438,14.9159 113.2678,14.9159 C123.2928,14.9159 131.4188,23.6399 131.4188,34.4019" id="Fill-13" fill="#23366F"></path>
                <path d="M123.2901,58.543 C123.2901,58.543 122.3001,54.084 121.7621,51.866 C121.4271,50.482 121.7241,49.325 122.6611,48.338 C123.5241,47.431 124.3071,46.467 124.8081,45.265 C126.2351,41.845 126.6341,38.242 126.5361,34.542 C126.5241,34.052 126.4231,33.737 126.1801,33.553 C125.9931,33.412 125.7241,33.345 125.3331,33.347 C120.3971,33.374 116.1761,30.906 111.7991,28.976 C107.2031,26.948 100.6341,29.627 99.9061,34.065 C99.8731,39.315 100.0331,44.496 103.9061,48.52 C104.6101,49.252 104.9521,50.238 104.7291,51.287 C104.2141,53.716 103.0661,58.544 103.0661,58.544 C103.0661,58.544 105.8161,65.715 113.2771,65.715 C120.7381,65.715 123.2901,58.543 123.2901,58.543" id="Fill-15" fill="#5495CF"></path>
                <path d="M40.2275,33.2627 C40.2275,44.0247 32.1015,52.7487 22.0765,52.7487 C12.0525,52.7487 3.9255,44.0247 3.9255,33.2627 C3.9255,22.5007 12.0525,13.7767 22.0765,13.7767 C32.1015,13.7767 40.2275,22.5007 40.2275,33.2627" id="Fill-17" fill="#23366F"></path>
                <path d="M32.0988,57.4038 C32.0988,57.4038 31.1088,52.9448 30.5718,50.7268 C30.2358,49.3438 30.5328,48.1858 31.4698,47.1998 C32.3328,46.2918 33.1158,45.3278 33.6168,44.1268 C35.0438,40.7068 35.4428,37.1028 35.3448,33.4028 C35.3328,32.9128 35.2318,32.5978 34.9888,32.4138 C34.8018,32.2728 34.5328,32.2058 34.1418,32.2088 C29.2058,32.2358 24.9848,29.7668 20.6078,27.8368 C16.0118,25.8088 9.4428,28.4878 8.7148,32.9258 C8.6818,38.1768 8.8418,43.3568 12.7148,47.3818 C13.4188,48.1128 13.7608,49.0998 13.5378,50.1478 C13.0228,52.5768 11.8748,57.4048 11.8748,57.4048 C11.8748,57.4048 14.6248,64.5758 22.0858,64.5758 C29.5468,64.5758 32.0988,57.4038 32.0988,57.4038" id="Fill-19" fill="#5495CF"></path>
                <path d="M87.6384,21.272 C87.6384,33.021 78.7664,42.544 67.8234,42.544 C56.8794,42.544 48.0084,33.021 48.0084,21.272 C48.0084,9.523 56.8794,0 67.8234,0 C78.7664,0 87.6384,9.523 87.6384,21.272" id="Fill-21" fill="#23366F"></path>
                <path d="M78.7643,47.6265 C78.7643,47.6265 77.6833,42.7585 77.0963,40.3375 C76.7303,38.8275 77.0543,37.5635 78.0783,36.4865 C79.0203,35.4955 79.8743,34.4435 80.4223,33.1315 C81.9793,29.3975 82.4153,25.4645 82.3083,21.4245 C82.2943,20.8895 82.1843,20.5465 81.9193,20.3455 C81.7153,20.1905 81.4223,20.1185 80.9943,20.1205 C75.6063,20.1505 70.9983,17.4565 66.2193,15.3485 C61.2023,13.1355 54.0313,16.0595 53.2363,20.9045 C53.2003,26.6365 53.3753,32.2915 57.6023,36.6855 C58.3713,37.4845 58.7443,38.5605 58.5013,39.7055 C57.9393,42.3565 56.6863,47.6285 56.6863,47.6285 C56.6863,47.6285 59.6883,55.4565 67.8333,55.4565 C75.9783,55.4565 78.7643,47.6265 78.7643,47.6265" id="Fill-23" fill="#5495CF"></path>
                <path d="M80.8511,77.3848 C80.6961,76.9328 80.2971,76.6098 79.8241,76.5508 L72.5601,75.6428 L68.8961,68.3238 C68.6841,67.9008 68.2511,67.6338 67.7781,67.6338 C67.3051,67.6338 66.8721,67.9008 66.6601,68.3238 L62.9961,75.6428 L55.7321,76.5508 C55.2591,76.6098 54.8601,76.9328 54.7051,77.3848 C54.5501,77.8368 54.6661,78.3368 55.0031,78.6748 L60.4641,84.1348 L58.6311,92.3828 C58.5251,92.8558 58.7031,93.3458 59.0861,93.6428 C59.4691,93.9398 59.9891,93.9888 60.4201,93.7668 L67.7781,90.0058 L75.1361,93.7668 C75.3161,93.8588 75.5111,93.9038 75.7051,93.9038 C75.9761,93.9038 76.2471,93.8158 76.4701,93.6428 C76.8531,93.3458 77.0301,92.8558 76.9251,92.3828 L75.0931,84.1348 L80.5531,78.6748 C80.8901,78.3368 81.0061,77.8368 80.8511,77.3848" id="Fill-25" fill="#ECEEEF"></path>
            </g>
        </g>
    </g>
</svg>