<?xml version="1.0" encoding="UTF-8"?>
<svg width="140px" height="140px" viewBox="0 0 140 140" version="1.1" xmlns="http://www.w3.org/2000/svg" xmlns:xlink="http://www.w3.org/1999/xlink">
    <title>pictogram/light/people/network</title>
    <defs>
        <polygon id="path-1" points="0 0 139.9999 0 139.9999 140 0 140"></polygon>
    </defs>
    <g id="pictogram/light/people/network" stroke="none" stroke-width="1" fill="none" fill-rule="evenodd">
        <g id="network" transform="translate(-0.000000, 0.000000)">
            <g id="Group-3">
                <mask id="mask-2" fill="white">
                    <use xlink:href="#path-1"></use>
                </mask>
                <g id="Clip-2"></g>
                <path d="M70,140 C31.34,140 0,108.66 0,70 C0,31.34 31.34,0 70,0 C108.66,0 140,31.34 140,70 C140,108.66 108.66,140 70,140" id="Fill-1" fill="#DDE4E3" mask="url(#mask-2)"></path>
            </g>
            <g id="Group-14" transform="translate(19.431399, 21.825513)">
                <path d="M90.1333013,28.4041873 C95.8063013,28.7861873 100.732301,24.4791873 101.113301,18.8061873 C101.495301,13.1331873 97.1903013,8.20718732 91.5173013,7.82618732 C85.8443013,7.44418732 80.9173013,11.7491873 80.5353013,17.4221873 C80.4263013,19.0431873 80.7113013,20.5981873 81.2903013,22.0091873 L73.8163013,28.5661873 C69.3263013,24.5131873 63.5023013,21.8751873 57.0123013,21.4381873 C49.1443013,20.9091873 41.8123013,23.7141873 36.3873013,28.6341873 L17.9543013,12.7521873 C18.3043013,11.8731873 18.5293013,10.9281873 18.5963013,9.93518732 C18.9413013,4.81318732 15.0543013,0.366187322 9.93430131,0.0211873217 C4.81230131,-0.322812678 0.365301309,3.56318732 0.0213013092,8.68518732 C-0.323698691,13.8071873 3.56330131,18.2541873 8.68430131,18.5981873 C10.3683013,18.7111873 11.9743013,18.3601873 13.3903013,17.6651873 L31.9953013,33.6951873 C29.3193013,37.6481873 27.6153013,42.3331873 27.2733013,47.4301873 C26.8343013,53.9601873 28.6933013,60.1191873 32.1493013,65.1281873 L22.2983013,73.7721873 C20.5703013,72.6121873 18.5313013,71.8681873 16.3093013,71.7191873 C9.55930131,71.2651873 3.69830131,76.3861873 3.24430131,83.1361873 C2.79030131,89.8861873 7.91330131,95.7471873 14.6633013,96.2011873 C21.4133013,96.6551873 27.2723013,91.5321873 27.7263013,84.7821873 C27.8683013,82.6801873 27.4673013,80.6651873 26.6473013,78.8721873 L36.5693013,70.1661873 C36.5753013,70.1551873 36.5803013,70.1501873 36.5843013,70.1531873 C37.6873013,66.8651873 40.3193013,55.8331873 40.9383013,54.9291873 C41.1263013,54.6281873 41.2993013,54.3681873 41.4413013,54.1911873 C41.7783013,53.7681873 42.1193013,53.4101873 42.4613013,53.0971873 C42.4943013,53.0661873 42.5273013,53.0401873 42.5603013,53.0101873 C42.6483013,52.9311873 42.7373013,52.8511873 42.8263013,52.7791873 C44.9163013,51.0331873 47.0943013,51.0741873 49.3063013,51.0741873 L50.1983013,51.0761873 L55.2843013,51.0751873 L62.5553013,51.0741873 C63.0443013,51.0741873 63.5323013,51.0731873 64.0173013,51.0891873 C64.4123013,51.1021873 64.8063013,51.1271873 65.1983013,51.1751873 C65.7743013,51.2441873 66.3463013,51.3621873 66.9133013,51.5621873 C67.6293013,51.8151873 68.3373013,52.1951873 69.0353013,52.7791873 C69.1243013,52.8511873 69.2133013,52.9311873 69.3013013,53.0101873 C69.3343013,53.0401873 69.3673013,53.0661873 69.4003013,53.0971873 C69.7423013,53.4101873 70.0823013,53.7681873 70.4203013,54.1911873 C70.5623013,54.3681873 70.7353013,54.6281873 70.9223013,54.9291873 C71.5603013,55.8601873 72.8773013,66.3511873 74.0233013,69.8511873 L82.6433013,76.8721873 C82.6033013,77.1241873 82.5703013,77.3781873 82.5523013,77.6371873 C82.2323013,82.3941873 85.8413013,86.5241873 90.5993013,86.8441873 C95.3563013,87.1641873 99.4873013,83.5551873 99.8073013,78.7981873 C100.127301,74.0401873 96.5163013,69.9111873 91.7593013,69.5911873 C89.7123013,69.4531873 87.7833013,70.0461873 86.2223013,71.1421873 L78.3853013,64.7581873 C81.0013013,60.8371873 82.6653013,56.2081873 83.0033013,51.1781873 C83.4383013,44.7081873 81.6173013,38.6021873 78.2223013,33.6171873 L85.7053013,27.0511873 C87.0213013,27.8091873 88.5183013,28.2951873 90.1333013,28.4041873" id="Fill-4" fill="#2167AE"></path>
                <path d="M70.4202013,54.1910873 C70.0832013,53.7680873 69.7422013,53.4100873 69.4002013,53.0970873 C69.3672013,53.0660873 69.3342013,53.0400873 69.3012013,53.0100873 C69.2132013,52.9310873 69.1242013,52.8510873 69.0352013,52.7790873 C68.3372013,52.1950873 67.6292013,51.8150873 66.9132013,51.5630873 C66.3462013,51.3620873 65.7742013,51.2440873 65.1982013,51.1750873 C64.8062013,51.1280873 64.4122013,51.1020873 64.0172013,51.0890873 C63.5322013,51.0730873 63.0452013,51.0749988 62.5552013,51.0749988 L55.2842013,51.0749988 L50.1982013,51.0760873 L49.3062013,51.0749988 C47.0942013,51.0749988 44.9162013,51.0330873 42.8262013,52.7790873 C42.7372013,52.8510873 42.6492013,52.9310873 42.5602013,53.0100873 C42.5272013,53.0400873 42.4942013,53.0660873 42.4612013,53.0970873 C42.1192013,53.4100873 41.7792013,53.7680873 41.4412013,54.1910873 C41.2992013,54.3680873 41.1262013,54.6280873 40.9392013,54.9290873 C40.3192013,55.8330873 37.6882013,66.8650873 36.5842013,70.1530873 C41.0582013,74.1430873 46.8342013,76.7370873 53.2642013,77.1690873 C61.1972013,77.7030873 68.5852013,74.8470873 74.0242013,69.8510873 C72.8772013,66.3510873 71.5612013,55.8600873 70.9222013,54.9290873 C70.7352013,54.6280873 70.5622013,54.3680873 70.4202013,54.1910873" id="Fill-6" fill="#91BFE3"></path>
                <path d="M36.5693013,70.1661873 L36.5843013,70.1531873 C36.5803013,70.1501873 36.5753013,70.1551873 36.5693013,70.1661873" id="Fill-8" fill="#2167AE"></path>
                <path d="M65.3862013,38.5558873 C65.3862013,44.1548873 61.1582013,48.6948873 55.9422013,48.6948873 C50.7262013,48.6948873 46.4982013,44.1548873 46.4982013,38.5558873 C46.4982013,32.9568873 50.7262013,28.4168873 55.9422013,28.4168873 C61.1582013,28.4168873 65.3862013,32.9568873 65.3862013,38.5558873" id="Fill-10" fill="#23366F"></path>
                <path d="M61.1570013,51.1166873 C61.1570013,51.1166873 60.6420013,48.7966873 60.3620013,47.6426873 C60.1880013,46.9226873 60.3420013,46.3206873 60.8300013,45.8076873 C61.2790013,45.3346873 61.6860013,44.8336873 61.9470013,44.2086873 C62.6890013,42.4286873 62.8970013,40.5536873 62.8460013,38.6286873 C62.8390013,38.3736873 62.7870013,38.2096873 62.6610013,38.1146873 C62.5630013,38.0406873 62.4240013,38.0056873 62.2200013,38.0076873 C59.6520013,38.0216873 57.4560013,36.7366873 55.1780013,35.7326873 C52.7870013,34.6776873 49.3690013,36.0716873 48.9900013,38.3806873 C48.9730013,41.1126873 49.0560013,43.8076873 51.0710013,45.9016873 C51.4380013,46.2826873 51.6150013,46.7956873 51.5000013,47.3416873 C51.2310013,48.6046873 50.6340013,51.1176873 50.6340013,51.1176873 C50.6340013,51.1176873 52.0650013,54.8486873 55.9470013,54.8486873 C59.8290013,54.8486873 61.1570013,51.1166873 61.1570013,51.1166873" id="Fill-12" fill="#5495CF"></path>
            </g>
        </g>
    </g>
</svg>