<?xml version="1.0" encoding="UTF-8"?>
<svg width="140px" height="140px" viewBox="0 0 140 140" version="1.1" xmlns="http://www.w3.org/2000/svg" xmlns:xlink="http://www.w3.org/1999/xlink">
    <title>pictogram/light/people/speaker</title>
    <defs>
        <polygon id="path-1" points="0 0 140 0 140 139.9998 0 139.9998"></polygon>
    </defs>
    <g id="pictogram/light/people/speaker" stroke="none" stroke-width="1" fill="none" fill-rule="evenodd">
        <g id="speaker" transform="translate(0.000000, 0.000000)">
            <g id="Group-3">
                <mask id="mask-2" fill="white">
                    <use xlink:href="#path-1"></use>
                </mask>
                <g id="Clip-2"></g>
                <path d="M70,0 C31.34,0 0,31.34 0,70 C0,108.66 31.34,140 70,140 C108.66,140 140,108.66 140,70 C140,31.34 108.66,0 70,0" id="Fill-1" fill="#DDE4E3" mask="url(#mask-2)"></path>
            </g>
            <g id="Group-17" transform="translate(17.034300, 16.457600)">
                <path d="M105.963,99.2109 C103.025,90.4459 100.306,83.0369 98.643,80.6109 C98.072,79.6969 97.546,78.9059 97.115,78.3659 C96.089,77.0809 95.054,75.9919 94.013,75.0399 C93.913,74.9459 93.813,74.8659 93.713,74.7749 C93.444,74.5369 93.175,74.2909 92.905,74.0719 C90.782,72.2989 88.628,71.1419 86.451,70.3749 C84.727,69.7659 82.989,69.4049 81.237,69.1949 C80.046,69.0519 78.848,68.9739 77.647,68.9359 C76.172,68.8869 74.69,68.8903953 73.203,68.8903953 L51.094,68.8929 L35.63,68.8949 L32.917,68.8903953 C26.191,68.8903953 19.571,68.7659 13.214,74.0719 C12.945,74.2909 12.675,74.5369 12.407,74.7749 C12.307,74.8659 12.206,74.9459 12.106,75.0399 C11.066,75.9919 10.03,77.0809 9.004,78.3659 C8.573,78.9059 8.047,79.6969 7.476,80.6109 C5.775,83.0929 2.995,90.5309 0,99.3139 C12.836,114.1459 31.783,123.5419 52.937,123.5419 C74.14,123.5419 93.126,114.1029 105.963,99.2109 Z" id="Fill-7" fill="#2167AE"></path>
                <path d="M81.8096,30.827 C81.8096,47.852 68.9536,61.654 53.0946,61.654 C37.2366,61.654 24.3796,47.852 24.3796,30.827 C24.3796,13.802 37.2366,0 53.0946,0 C68.9536,0 81.8096,13.802 81.8096,30.827" id="Fill-9" fill="#23366F"></path>
                <path d="M68.95,69.0184 C68.95,69.0184 67.384,61.9644 66.533,58.4554 C66.003,56.2674 66.473,54.4354 67.955,52.8754 C69.32,51.4384 70.559,49.9144 71.352,48.0134 C73.609,42.6024 74.241,36.9024 74.086,31.0484 C74.065,30.2734 73.906,29.7754 73.522,29.4844 C73.226,29.2604 72.801,29.1554 72.182,29.1594 C64.373,29.2014 57.696,25.2974 50.771,22.2424 C43.5,19.0354 33.108,23.2734 31.956,30.2944 C31.904,38.6014 32.158,46.7954 38.284,53.1634 C39.398,54.3204 39.939,55.8804 39.587,57.5394 C38.771,61.3814 36.956,69.0204 36.956,69.0204 C36.956,69.0204 41.307,80.3654 53.11,80.3654 C64.913,80.3654 68.95,69.0184 68.95,69.0184" id="Fill-11" fill="#5495CF"></path>
                <path d="M62.6695,90.6635 C57.4665,95.9345 48.9625,95.9785 43.6745,90.7595 C38.3865,85.5405 38.3175,77.0365 43.5195,71.7645 C48.7235,66.4925 57.2275,66.4495 62.5155,71.6685 C67.8035,76.8875 67.8725,85.3915 62.6695,90.6635" id="Fill-13" fill="#91BFE3"></path>
                <path d="M62.4559,102.0458 L43.7459,102.076804 C41.6739,102.0798 39.9899,100.4058 39.9799,98.3348 L39.9378556,93.0648 C39.9279,90.9828 41.6099,89.2898 43.6909,89.2868 L62.4019,89.256796 C64.4739,89.2538 66.1579,90.9268 66.1679,92.9998 L66.2099359,98.2688 C66.2189,100.3498 64.5369,102.0428 62.4559,102.0458" id="Fill-15" fill="#5495CF"></path>
                <path d="M45.7999,102.0761 L46.7619,123.2361 C48.8799,123.4341 51.0239,123.5421 53.1949,123.5421 C55.2129,123.5421 57.2039,123.4291 59.1789,123.2611 L60.3469,102.0761 L45.7999,102.0761 Z" id="Fill-4" fill="#91BFE3"></path>
            </g>
        </g>
    </g>
</svg>