<?xml version="1.0" encoding="UTF-8"?>
<svg width="140px" height="140px" viewBox="0 0 140 140" version="1.1" xmlns="http://www.w3.org/2000/svg" xmlns:xlink="http://www.w3.org/1999/xlink">
    <title>pictogram/light/people/team</title>
    <defs>
        <polygon id="path-1" points="0 0 139.9998 0 139.9998 139.9999 0 139.9999"></polygon>
    </defs>
    <g id="pictogram/light/people/team" stroke="none" stroke-width="1" fill="none" fill-rule="evenodd">
        <g id="team" transform="translate(0.000000, 0.000000)">
            <g id="Group-3">
                <mask id="mask-2" fill="white">
                    <use xlink:href="#path-1"></use>
                </mask>
                <g id="Clip-2"></g>
                <path d="M140,69.9999 C140,108.6599 108.66,139.9999 70,139.9999 C31.34,139.9999 0,108.6599 0,69.9999 C0,31.3399 31.34,-0.0001 70,-0.0001 C108.66,-0.0001 140,31.3399 140,69.9999" id="Fill-1" fill="#DDE4E3" mask="url(#mask-2)"></path>
            </g>
            <g id="Group-22" transform="translate(4.792000, 14.227400)">
                <path d="M94.9843,54.0778 C94.2773,53.1908 93.5623,52.4398 92.8433,51.7828 C92.7753,51.7178 92.7063,51.6628 92.6363,51.5998 C92.4523,51.4358 92.2653,51.2658 92.0803,51.1148 C90.6143,49.8908 89.1293,49.0928 87.6263,48.5628 C86.4363,48.1438 85.2363,47.8948 84.0283,47.7488 C83.2063,47.6508 82.3803,47.5968 81.5503,47.5698 C80.5333,47.5368 79.5093,47.5386269 78.4833,47.5386269 L63.2273,47.5408 L52.5563,47.5418 L50.6833,47.5386269 C46.0433,47.5386269 41.4733,47.4528 37.0883,51.1148 C36.9013,51.2658 36.7153,51.4358 36.5303,51.5998 C36.4623,51.6628 36.3913,51.7178 36.3233,51.7828 C35.6053,52.4398 34.8903,53.1908 34.1823,54.0778 C33.8843,54.4508 33.5223,54.9958 33.1283,55.6268 C31.8283,57.5228 29.6173,83.6398 27.3013,90.5378 C37.2333,99.8588 50.5853,105.5788 65.2803,105.5788 C79.4173,105.5788 92.3113,100.2858 102.1143,91.5858 C99.7083,84.2438 97.3783,57.5798 96.0393,55.6268 C95.6453,54.9958 95.2823,54.4508 94.9843,54.0778" id="Fill-4" fill="#ECEEEF"></path>
                <path d="M84.4228,21.273 C84.4228,33.021 75.5518,42.546 64.6088,42.546 C53.6638,42.546 44.7928,33.021 44.7928,21.273 C44.7928,9.525 53.6638,0 64.6088,0 C75.5518,0 84.4228,9.525 84.4228,21.273" id="Fill-6" fill="#23366F"></path>
                <path d="M75.5488,47.6275 C75.5488,47.6275 74.4688,42.7595 73.8818,40.3385 C73.5158,38.8285 73.8398,37.5645 74.8618,36.4875 C75.8048,35.4965 76.6588,34.4445 77.2068,33.1325 C78.7638,29.3985 79.1998,25.4655 79.0928,21.4255 C79.0788,20.8905 78.9688,20.5475 78.7038,20.3465 C78.4998,20.1925 78.2068,20.1195 77.7788,20.1215 C72.3908,20.1515 67.7828,17.4565 63.0048,15.3485 C57.9868,13.1355 50.8168,16.0605 50.0208,20.9055 C49.9858,26.6375 50.1598,32.2925 54.3878,36.6855 C55.1558,37.4845 55.5288,38.5615 55.2858,39.7065 C54.7238,42.3575 53.4708,47.6295 53.4708,47.6295 C53.4708,47.6295 56.4738,55.4575 64.6178,55.4575 C72.7638,55.4575 75.5488,47.6275 75.5488,47.6275" id="Fill-8" fill="#2167AE"></path>
                <path d="M58.039,86.4379 C57.645,85.8069 57.282,85.2609 56.984,84.8889 C56.277,84.0019 55.562,83.2509 54.844,82.5939 C54.775,82.5289 54.706,82.4739 54.637,82.4109 C54.452,82.2459 54.266,82.0769 54.08,81.9259 C52.614,80.7019 51.129,79.9039 49.626,79.3739 C48.436,78.9539 47.236,78.7049 46.028,78.5599 C45.206,78.4609 44.38,78.4079 43.551,78.3809 C42.533,78.3479 41.51,78.3497497 40.483,78.3497497 L25.227,78.3519 L14.557,78.3529 L12.684,78.3497497 C8.363,78.3497497 4.106,78.2789 0,81.2229 C10.059,106.9719 34.91,125.2959 64.114,125.7449 L64.114,102.3629 C61.708,95.0209 59.378,88.3909 58.039,86.4379" id="Fill-10" fill="#23366F"></path>
                <path d="M129.8662,82.6155 C129.8582,82.6085 129.8512,82.6005 129.8442,82.5935 C129.7752,82.5285 129.7062,82.4735 129.6372,82.4105 C129.4522,82.2465 129.2652,82.0765 129.0802,81.9255 C127.6142,80.7025 126.1292,79.9035 124.6262,79.3735 C123.4362,78.9545 122.2362,78.7055 121.0282,78.5605 C120.2062,78.4615 119.3802,78.4075 118.5512,78.3815 C117.5332,78.3475 116.5102,78.3493269 115.4832,78.3493269 L100.2272,78.3515 L89.5562,78.3525 L87.6832,78.3493269 C83.0432,78.3493269 78.4732,78.2635 74.0882,81.9255 C73.9012,82.0765 73.7162,82.2465 73.5302,82.4105 C73.4622,82.4735 73.3912,82.5285 73.3232,82.5935 C72.6052,83.2505 71.8902,84.0025 71.1822,84.8885 C70.8852,85.2615 70.5222,85.8075 70.1282,86.4375 C68.8282,88.3345 66.6172,94.4175 64.3022,101.3155 L64.3022,125.7495 C64.6042,125.7535 64.9042,125.7725 65.2082,125.7725 C94.3562,125.7725 119.3362,107.9525 129.8662,82.6155" id="Fill-12" fill="#2167AE"></path>
                <path d="M121.4228,52.084 C121.4228,63.832 112.5518,73.356 101.6088,73.356 C90.6638,73.356 81.7928,63.832 81.7928,52.084 C81.7928,40.335 90.6638,30.811 101.6088,30.811 C112.5518,30.811 121.4228,40.335 121.4228,52.084" id="Fill-14" fill="#23366F"></path>
                <path d="M112.5488,78.4385 C112.5488,78.4385 111.4688,73.5705 110.8818,71.1495 C110.5158,69.6395 110.8398,68.3755 111.8618,67.2985 C112.8048,66.3075 113.6588,65.2555 114.2068,63.9435 C115.7638,60.2095 116.1998,56.2765 116.0928,52.2365 C116.0788,51.7015 115.9688,51.3585 115.7038,51.1575 C115.4998,51.0035 115.2068,50.9305 114.7788,50.9325 C109.3908,50.9625 104.7828,48.2675 100.0048,46.1605 C94.9868,43.9465 87.8168,46.8715 87.0208,51.7165 C86.9858,57.4485 87.1598,63.1035 91.3878,67.4965 C92.1558,68.2965 92.5288,69.3725 92.2858,70.5175 C91.7238,73.1685 90.4708,78.4405 90.4708,78.4405 C90.4708,78.4405 93.4738,86.2685 101.6178,86.2685 C109.7638,86.2685 112.5488,78.4385 112.5488,78.4385" id="Fill-16" fill="#5495CF"></path>
                <path d="M46.4228,52.084 C46.4228,63.832 37.5518,73.356 26.6088,73.356 C15.6638,73.356 6.7928,63.832 6.7928,52.084 C6.7928,40.335 15.6638,30.811 26.6088,30.811 C37.5518,30.811 46.4228,40.335 46.4228,52.084" id="Fill-18" fill="#23366F"></path>
                <path d="M37.5488,78.4385 C37.5488,78.4385 36.4688,73.5705 35.8818,71.1495 C35.5158,69.6395 35.8398,68.3755 36.8618,67.2985 C37.8048,66.3075 38.6588,65.2555 39.2068,63.9435 C40.7638,60.2095 41.1998,56.2765 41.0928,52.2365 C41.0788,51.7015 40.9688,51.3585 40.7038,51.1575 C40.4998,51.0035 40.2068,50.9305 39.7788,50.9325 C34.3908,50.9625 29.7828,48.2675 25.0048,46.1605 C19.9868,43.9465 12.8168,46.8715 12.0208,51.7165 C11.9858,57.4485 12.1598,63.1035 16.3878,67.4965 C17.1558,68.2965 17.5288,69.3725 17.2858,70.5175 C16.7238,73.1685 15.4708,78.4405 15.4708,78.4405 C15.4708,78.4405 18.4738,86.2685 26.6178,86.2685 C34.7638,86.2685 37.5488,78.4385 37.5488,78.4385" id="Fill-20" fill="#91BFE3"></path>
            </g>
        </g>
    </g>
</svg>