<?xml version="1.0" encoding="UTF-8"?>
<svg width="140px" height="140px" viewBox="0 0 140 140" version="1.1" xmlns="http://www.w3.org/2000/svg" xmlns:xlink="http://www.w3.org/1999/xlink">
    <title>pictogram/light/people/user</title>
    <defs>
        <polygon id="path-1" points="-3.31965087e-15 0 139.9999 0 139.9999 140 -3.31965087e-15 140"></polygon>
    </defs>
    <g id="pictogram/light/people/user" stroke="none" stroke-width="1" fill="none" fill-rule="evenodd">
        <g id="user" transform="translate(-0.000000, 0.000000)">
            <g id="Group-3">
                <mask id="mask-2" fill="white">
                    <use xlink:href="#path-1"></use>
                </mask>
                <g id="Clip-2"></g>
                <path d="M-3.31965087e-15,70 C-3.31965087e-15,31.34 31.34,0 70,0 C108.66,0 140,31.34 140,70 C140,108.66 108.66,140 70,140 C31.34,140 -3.31965087e-15,108.66 -3.31965087e-15,70" id="Fill-1" fill="#DDE4E3" mask="url(#mask-2)"></path>
            </g>
            <g id="Group-22" transform="translate(15.764900, 7.374400)">
                <path d="M104.894,110.8158 L101.883,113.8268 C102.921,112.8568 103.917,111.8458 104.894,110.8158" id="Fill-4" fill="#91BFE3"></path>
                <path d="M104.894,110.8158 L104.923,110.7868 L104.921,110.7868 C104.912,110.7968 104.903,110.8058 104.894,110.8158" id="Fill-6" fill="#91BFE3"></path>
                <path d="M4.498,111.7923 L3.953,110.7873 L3.554,110.7873 C3.87,111.1203 4.175,111.4643 4.498,111.7923" id="Fill-8" fill="#91BFE3"></path>
                <path d="M101.261,87.6797 C98.665,79.9327 96.262,73.3847 94.792,71.2407 C94.288,70.4327 93.823,69.7347 93.442,69.2567 C92.535,68.1217 91.62,67.1597 90.7,66.3177 C90.612,66.2347 90.524,66.1637 90.435,66.0837 C90.198,65.8727 89.959,65.6557 89.721,65.4617 C87.845,63.8957 85.942,62.8727 84.017,62.1947 C82.494,61.6567 80.957,61.3377 79.41,61.1517 C78.357,61.0257 77.298,60.9567 76.237,60.9227 C74.933,60.8797 73.623,60.8824791 72.309,60.8824791 L52.77,60.8847 L39.104,60.8867 L36.706,60.8824791 C30.762,60.8824791 24.911,60.7727 19.293,65.4617 C19.055,65.6557 18.817,65.8727 18.579,66.0837 C18.491,66.1637 18.402,66.2347 18.314,66.3177 C17.394,67.1597 16.479,68.1217 15.573,69.2567 C15.191,69.7347 14.727,70.4327 14.222,71.2407 C12.718,73.4347 10.262,80.0087 7.615,87.7697 L0,106.7567 C1.129,108.1497 2.322,109.4857 3.554,110.7867 L3.953,110.7867 L104.921,110.7867 C106.363,109.2627 107.747,107.6837 109.049,106.0347 L101.261,87.6797 Z" id="Fill-10" fill="#91BFE3"></path>
                <path d="M79.9155,27.244 C79.9155,42.29 68.5535,54.488 54.5385,54.488 C40.5225,54.488 29.1615,42.29 29.1615,27.244 C29.1615,12.198 40.5225,0 54.5385,0 C68.5535,0 79.9155,12.198 79.9155,27.244" id="Fill-12" fill="#2167AE"></path>
                <path d="M68.5505,60.9962 C68.5505,60.9962 67.1665,54.7622 66.4145,51.6612 C65.9465,49.7272 66.3615,48.1082 67.6715,46.7292 C68.8775,45.4602 69.9725,44.1132 70.6735,42.4322 C72.6675,37.6512 73.2265,32.6132 73.0895,27.4392 C73.0715,26.7542 72.9305,26.3152 72.5915,26.0572 C72.3295,25.8592 71.9545,25.7662 71.4065,25.7692 C64.5055,25.8072 58.6045,22.3562 52.4845,19.6572 C46.0585,16.8232 36.8745,20.5682 35.8565,26.7732 C35.8105,34.1142 36.0345,41.3562 41.4485,46.9832 C42.4335,48.0062 42.9115,49.3852 42.6005,50.8522 C41.8795,54.2472 40.2755,60.9982 40.2755,60.9982 C40.2755,60.9982 44.1205,71.0242 54.5515,71.0242 C64.9835,71.0242 68.5505,60.9962 68.5505,60.9962" id="Fill-14" fill="#5495CF"></path>
                <path d="M3.9528,110.7869 L4.4978,111.7919 C17.1588,124.6459 34.7648,132.6189 54.2348,132.6189 C72.6568,132.6189 89.4088,125.4809 101.8828,113.8259 L104.9228,110.7869 L3.9528,110.7869 Z" id="Fill-16" fill="#5495CF"></path>
                <path d="M85.384,69.1316 L23.492,69.1316 C21.007,69.1316 18.992,71.1466 18.992,73.6316 L18.992,115.8806 C18.992,118.3656 21.007,120.3806 23.492,120.3806 L85.384,120.3806 C87.869,120.3806 89.884,118.3656 89.884,115.8806 L89.884,73.6316 C89.884,71.1466 87.869,69.1316 85.384,69.1316" id="Fill-18" fill="#ECEEEF"></path>
                <path d="M60.239,94.6239 C60.239,97.8279 57.642,100.4249 54.438,100.4249 C51.234,100.4249 48.637,97.8279 48.637,94.6239 C48.637,91.4199 51.234,88.8229 54.438,88.8229 C57.642,88.8229 60.239,91.4199 60.239,94.6239" id="Fill-20" fill="#2167AE"></path>
            </g>
        </g>
    </g>
</svg>