<?xml version="1.0" encoding="UTF-8"?>
<svg width="140px" height="140px" viewBox="0 0 140 140" version="1.1" xmlns="http://www.w3.org/2000/svg" xmlns:xlink="http://www.w3.org/1999/xlink">
    <title>pictogram/light/security/stability</title>
    <g id="pictogram/light/security/stability" stroke="none" stroke-width="1" fill="none" fill-rule="evenodd">
        <g id="stability" transform="translate(0.000000, -0.000100)">
            <path d="M70,0 C31.34,0 0,31.34 0,70 C0,108.66 31.34,140 70,140 C108.66,140 140,108.66 140,70 C140,31.34 108.66,0 70,0" id="circle" fill="#DDE4E3"></path>
            <g id="picto" transform="translate(19.109800, 36.102000)">
                <path d="M99.473,31.2256 L2.25,31.2256 C1.007,31.2256 0,30.2186 0,28.9756 C0,27.7326 1.007,26.7256 2.25,26.7256 L99.473,26.7256 C100.716,26.7256 101.723,27.7326 101.723,28.9756 C101.723,30.2186 100.716,31.2256 99.473,31.2256" id="Fill-4" fill="#91BFE3"></path>
                <path d="M74.8495,74.1665 L51.7085,31.7405 C51.5385,31.4315 51.2145,31.2385 50.8615,31.2385 C50.5095,31.2385 50.1835,31.4315 50.0155,31.7405 L26.8745,74.1665 C26.7105,74.4655 26.7175,74.8275 26.8915,75.1205 C27.0645,75.4135 27.3795,75.5925 27.7205,75.5925 L74.0025,75.5925 C74.3435,75.5925 74.6585,75.4135 74.8325,75.1205 C75.0055,74.8275 75.0125,74.4655 74.8495,74.1665" id="Fill-6" fill="#5495CF"></path>
                <path d="M30.953,13.356 C30.953,20.733 24.973,26.713 17.596,26.713 C10.219,26.713 4.239,20.733 4.239,13.356 C4.239,5.98 10.219,0 17.596,0 C24.973,0 30.953,5.98 30.953,13.356" id="Fill-8" fill="#2167AE"></path>
                <path d="M97.566,13.356 C97.566,20.733 91.586,26.713 84.209,26.713 C76.833,26.713 70.852,20.733 70.852,13.356 C70.852,5.98 76.833,0 84.209,0 C91.586,0 97.566,5.98 97.566,13.356" id="Fill-10" fill="#2167AE"></path>
            </g>
        </g>
    </g>
</svg>