<?xml version="1.0" encoding="UTF-8"?>
<svg width="140px" height="140px" viewBox="0 0 140 140" version="1.1" xmlns="http://www.w3.org/2000/svg" xmlns:xlink="http://www.w3.org/1999/xlink">
    <title>pictogram/light/finance/investor/dolar</title>
    <g id="pictogram/light/finance/investor/dolar" stroke="none" stroke-width="1" fill="none" fill-rule="evenodd">
        <g id="investor-dolar" transform="translate(-0.299900, -0.000100)">
            <path d="M140.2999,70 C140.2999,108.66 108.9599,140 70.2999,140 C31.6399,140 0.2999,108.66 0.2999,70 C0.2999,31.34 31.6399,0 70.2999,0 C108.9599,0 140.2999,31.34 140.2999,70" id="circle" fill="#DDE4E3"></path>
            <g id="picto" transform="translate(0.000000, 22.702600)">
                <g id="Group-21" transform="translate(0.000000, 48.299700)">
                    <path d="M97.1876,6.3289 C100.9936,4.3139 105.7096,5.6279 107.9256,9.3209 C110.2626,13.2159 108.9416,18.2709 104.9986,20.5239 L68.2046,41.5489 L54.7356,28.9189 L97.1876,6.3289 Z" id="Fill-9" fill="#5495CF"></path>
                    <path d="M117.13,9.321 C114.915,5.628 110.198,4.314 106.392,6.329 L68.778,26.242 C67.429,26.957 65.842,27.076 64.401,26.572 L46.043,20.147 L58.418,19.515 C63.007,19.281 66.608,15.492 66.608,10.897 L66.608,10.896 C66.608,6.294 62.997,2.502 58.401,2.277 L0,0 C0.147,10.375 2.538,20.205 6.73,29.019 L51.595,44.712 C59.411,47.591 68.101,46.868 75.333,42.735 L106.52,24.914 C104.661,21.64 105.761,17.467 109.015,15.543 C111.86,13.86 115.421,14.451 117.589,16.772 C118.617,14.447 118.541,11.673 117.13,9.321" id="Fill-12" fill="#91BFE3"></path>
                    <path d="M109.0147,15.5434 C111.8617,13.8604 115.4207,14.4504 117.5887,16.7714 C116.9137,18.2974 115.7647,19.6304 114.2027,20.5234 L106.5207,24.9134 C104.6607,21.6394 105.7607,17.4674 109.0147,15.5434" id="Fill-15" fill="#5495CF"></path>
                    <path d="M52.9327,10.8878 C52.9327,7.8668 55.3817,5.4188 58.4027,5.4188 C61.4227,5.4188 63.8707,7.8668 63.8707,10.8878 C63.8707,13.9088 61.4227,16.3568 58.4027,16.3568 C55.3817,16.3568 52.9327,13.9088 52.9327,10.8878" id="Fill-18" fill="#5495CF"></path>
                </g>
                <g id="Group-8" transform="translate(46.097300, 0.000000)">
                    <path d="M24.976,0 C11.205,0 0,11.204 0,24.976 C0,38.747 11.205,49.951 24.976,49.951 C38.747,49.951 49.952,38.747 49.952,24.976 C49.952,11.204 38.747,0 24.976,0" id="Fill-4" fill="#2167AE"></path>
                    <path d="M28.6547,30.1552 C28.6547,31.9472 27.4547,33.4492 25.8207,33.9442 L25.8207,26.3652 C27.4547,26.8602 28.6547,28.3622 28.6547,30.1552 M21.0707,19.9112 C21.0707,18.2552 22.0907,16.8352 23.5327,16.2372 L23.5327,23.5852 C22.0907,22.9882 21.0707,21.5682 21.0707,19.9112 M29.0257,19.9112 C29.0257,20.5432 29.5387,21.0552 30.1707,21.0552 C30.8017,21.0552 31.3147,20.5432 31.3147,19.9112 C31.3147,16.7182 28.9127,14.0802 25.8207,13.6982 L25.8207,9.6682 C25.8207,9.0362 25.3087,8.5232 24.6767,8.5232 C24.0457,8.5232 23.5327,9.0362 23.5327,9.6682 L23.5327,13.8392 C20.8087,14.5192 18.7827,16.9802 18.7827,19.9112 C18.7827,22.8432 20.8087,25.3032 23.5327,25.9842 L23.5327,33.9442 C21.8997,33.4492 20.6997,31.9472 20.6997,30.1552 C20.6997,29.5232 20.1867,29.0102 19.5547,29.0102 C18.9237,29.0102 18.4107,29.5232 18.4107,30.1552 C18.4107,33.2182 20.6227,35.7712 23.5327,36.3112 L23.5327,40.3982 C23.5327,41.0302 24.0457,41.5432 24.6767,41.5432 C25.3087,41.5432 25.8207,41.0302 25.8207,40.3982 L25.8207,36.3112 C28.7307,35.7712 30.9427,33.2182 30.9427,30.1552 C30.9427,27.0912 28.7307,24.5382 25.8207,23.9982 L25.8207,16.0112 C27.6457,16.3722 29.0257,17.9822 29.0257,19.9112" id="Fill-6" fill="#ECEEEF"></path>
                </g>
            </g>
        </g>
    </g>
</svg>