<?xml version="1.0" encoding="UTF-8"?>
<svg width="140px" height="140px" viewBox="0 0 140 140" version="1.1" xmlns="http://www.w3.org/2000/svg" xmlns:xlink="http://www.w3.org/1999/xlink">
    <title>pictogram/light/finance/investor/euro</title>
    <g id="pictogram/light/finance/investor/euro" stroke="none" stroke-width="1" fill="none" fill-rule="evenodd">
        <g id="investor-euro" transform="translate(-0.299900, -0.000100)">
            <path d="M140.2999,70 C140.2999,108.66 108.9599,140 70.2999,140 C31.6399,140 0.2999,108.66 0.2999,70 C0.2999,31.34 31.6399,0 70.2999,0 C108.9599,0 140.2999,31.34 140.2999,70" id="circle" fill="#DDE4E3"></path>
            <g id="picto" transform="translate(0.000000, 22.702600)">
                <g id="Group-18" transform="translate(0.000000, 48.299700)">
                    <path d="M97.1876,6.3289 C100.9936,4.3139 105.7096,5.6279 107.9256,9.3209 C110.2626,13.2159 108.9416,18.2709 104.9986,20.5239 L68.2046,41.5489 L54.7356,28.9189 L97.1876,6.3289 Z" id="Fill-6" fill="#5495CF"></path>
                    <path d="M117.13,9.321 C114.915,5.628 110.198,4.314 106.392,6.329 L68.778,26.242 C67.429,26.957 65.842,27.076 64.401,26.572 L46.043,20.147 L58.418,19.515 C63.007,19.281 66.608,15.492 66.608,10.897 L66.608,10.896 C66.608,6.294 62.997,2.502 58.401,2.277 L0,0 C0.147,10.375 2.538,20.205 6.73,29.019 L51.595,44.712 C59.411,47.591 68.101,46.868 75.333,42.735 L106.52,24.914 C104.661,21.64 105.761,17.467 109.015,15.543 C111.86,13.86 115.421,14.451 117.589,16.772 C118.617,14.447 118.541,11.673 117.13,9.321" id="Fill-9" fill="#91BFE3"></path>
                    <path d="M109.0147,15.5434 C111.8617,13.8604 115.4207,14.4504 117.5887,16.7714 C116.9137,18.2974 115.7647,19.6304 114.2027,20.5234 L106.5207,24.9134 C104.6607,21.6394 105.7607,17.4674 109.0147,15.5434" id="Fill-12" fill="#5495CF"></path>
                    <path d="M52.9327,10.8878 C52.9327,7.8668 55.3817,5.4188 58.4027,5.4188 C61.4227,5.4188 63.8707,7.8668 63.8707,10.8878 C63.8707,13.9088 61.4227,16.3568 58.4027,16.3568 C55.3817,16.3568 52.9327,13.9088 52.9327,10.8878" id="Fill-15" fill="#5495CF"></path>
                </g>
                <g id="Group-25" transform="translate(46.097300, 0.000000)">
                    <path d="M24.976,0 C11.205,0 0,11.204 0,24.976 C0,38.747 11.205,49.951 24.976,49.951 C38.747,49.951 49.952,38.747 49.952,24.976 C49.952,11.204 38.747,0 24.976,0" id="Fill-4" fill="#2167AE"></path>
                    <path d="M28.0952,41.3735 C18.9682,41.3735 11.5432,33.9485 11.5432,24.8215 C11.5432,15.6955 18.9682,8.2705 28.0952,8.2705 C28.7852,8.2705 29.3452,8.8295 29.3452,9.5205 C29.3452,10.2105 28.7852,10.7705 28.0952,10.7705 C20.3472,10.7705 14.0432,17.0735 14.0432,24.8215 C14.0432,32.5695 20.3472,38.8735 28.0952,38.8735 C28.7852,38.8735 29.3452,39.4335 29.3452,40.1235 C29.3452,40.8135 28.7852,41.3735 28.0952,41.3735" id="Fill-19" fill="#ECEEEF"></path>
                    <path d="M25.0356,23.0114 L9.7326,23.0114 C9.0426,23.0114 8.4826,22.4514 8.4826,21.7614 C8.4826,21.0714 9.0426,20.5114 9.7326,20.5114 L25.0356,20.5114 C25.7256,20.5114 26.2856,21.0714 26.2856,21.7614 C26.2856,22.4514 25.7256,23.0114 25.0356,23.0114" id="Fill-21" fill="#ECEEEF"></path>
                    <path d="M25.0356,29.1322 L9.7326,29.1322 C9.0426,29.1322 8.4826,28.5722 8.4826,27.8822 C8.4826,27.1922 9.0426,26.6322 9.7326,26.6322 L25.0356,26.6322 C25.7256,26.6322 26.2856,27.1922 26.2856,27.8822 C26.2856,28.5722 25.7256,29.1322 25.0356,29.1322" id="Fill-23" fill="#ECEEEF"></path>
                </g>
            </g>
        </g>
    </g>
</svg>