<?xml version="1.0" encoding="UTF-8"?>
<svg width="140px" height="140px" viewBox="0 0 140 140" version="1.1" xmlns="http://www.w3.org/2000/svg" xmlns:xlink="http://www.w3.org/1999/xlink">
    <title>pictogram/light/mobility/car/side</title>
    <g id="pictogram/light/mobility/car/side" stroke="none" stroke-width="1" fill="none" fill-rule="evenodd">
        <g id="car-side" transform="translate(-0.000100, 0.000000)">
            <path d="M70,0 C31.34,0 0,31.34 0,70 C0,84.803 4.607,98.523 12.448,109.832 C25.086,128.056 46.144,140 70,140 C93.857,140 114.915,128.056 127.552,109.832 C135.394,98.523 140,84.803 140,70 C140,31.34 108.66,0 70,0" id="circle" fill="#DDE4E3"></path>
            <g id="picto" transform="translate(16.122600, 43.206300)">
                <path d="M48.9585,14.647 L48.9585,3.668 C62.6765,4.206 73.2945,10.695 78.5405,14.647 L48.9585,14.647 Z M25.3125,8.927 L25.1515,8.582 C33.1085,5.641 39.8815,3.999 45.3285,3.696 L45.3285,14.647 L36.2505,14.647 C27.9685,14.647 25.4335,9.195 25.3125,8.927 L25.3125,8.927 Z M103.1595,20.715 C99.3345,16.811 92.9745,14.779 84.2615,14.659 C81.5565,12.129 67.5285,0 47.1405,0 C40.6925,0 32.4315,1.904 22.5835,5.658 C22.4905,5.694 22.4055,5.741 22.3225,5.789 C22.2235,5.809 22.1225,5.834 22.0245,5.872 C11.4755,9.945 3.0555,14.603 2.7005,14.799 C2.1245,15.119 1.7675,15.727 1.7675,16.387 L1.7755,30.883 C1.7755,37.882 8.3625,40.056 10.7625,40.056 L14.0195,40.056 C15.0205,40.056 15.8335,39.243 15.8335,38.241 L34.5275,38.241 L34.5275,40.056 L76.5975,40.056 L76.5975,38.241 L96.1065,38.241 C96.1065,39.243 96.9195,40.056 97.9215,40.056 L105.2165,40.056 C106.2185,40.056 107.0305,39.243 107.0305,38.241 L107.0305,30.989 L107.0345,30.837 C107.1145,26.825 105.8125,23.419 103.1595,20.715 L103.1595,20.715 Z" id="Fill-4" fill="#2167AE"></path>
                <path d="M35.6069,35.1257 C35.6069,40.7837 31.0209,45.3697 25.3639,45.3697 C19.7059,45.3697 15.1199,40.7837 15.1199,35.1257 C15.1199,29.4677 19.7059,24.8817 25.3639,24.8817 C31.0209,24.8817 35.6069,29.4677 35.6069,35.1257" id="Fill-6" fill="#5495CF"></path>
                <path d="M25.3628,26.6969 C20.7158,26.6969 16.9338,30.4779 16.9338,35.1259 C16.9338,39.7739 20.7158,43.5549 25.3628,43.5549 C30.0108,43.5549 33.7918,39.7739 33.7918,35.1259 C33.7918,30.4779 30.0108,26.6969 25.3628,26.6969 M25.3628,47.1849 C18.7148,47.1849 13.3038,41.7749 13.3038,35.1259 C13.3038,28.4759 18.7148,23.0669 25.3628,23.0669 C32.0118,23.0669 37.4218,28.4759 37.4218,35.1259 C37.4218,41.7749 32.0118,47.1849 25.3628,47.1849" id="Fill-8" fill="#91BFE3"></path>
                <path d="M97.3179,35.1257 C97.3179,40.7837 92.7319,45.3697 87.0749,45.3697 C81.4169,45.3697 76.8309,40.7837 76.8309,35.1257 C76.8309,29.4677 81.4169,24.8817 87.0749,24.8817 C92.7319,24.8817 97.3179,29.4677 97.3179,35.1257" id="Fill-10" fill="#5495CF"></path>
                <path d="M87.0747,26.6969 C82.4267,26.6969 78.6457,30.4779 78.6457,35.1259 C78.6457,39.7739 82.4267,43.5549 87.0747,43.5549 C91.7217,43.5549 95.5027,39.7739 95.5027,35.1259 C95.5027,30.4779 91.7217,26.6969 87.0747,26.6969 M87.0747,47.1849 C80.4257,47.1849 75.0157,41.7749 75.0157,35.1259 C75.0157,28.4759 80.4257,23.0669 87.0747,23.0669 C93.7227,23.0669 99.1337,28.4759 99.1337,35.1259 C99.1337,41.7749 93.7227,47.1849 87.0747,47.1849" id="Fill-12" fill="#91BFE3"></path>
                <path d="M7.729,24.103 L1.814,24.103 C0.812,24.103 0,23.29 0,22.288 C0,21.286 0.812,20.473 1.814,20.473 L7.729,20.473 C8.731,20.473 9.543,21.286 9.543,22.288 C9.543,23.29 8.731,24.103 7.729,24.103" id="Fill-14" fill="#91BFE3"></path>
            </g>
        </g>
    </g>
</svg>