<?xml version="1.0" encoding="UTF-8"?>
<svg width="140px" height="140px" viewBox="0 0 140 140" version="1.1" xmlns="http://www.w3.org/2000/svg" xmlns:xlink="http://www.w3.org/1999/xlink">
    <title>pictogram/dark/business &amp; education/expertise</title>
    <g id="pictogram/dark/business-&amp;-education/expertise" stroke="none" stroke-width="1" fill="none" fill-rule="evenodd">
        <g id="expertise" transform="translate(0.000000, 0.000000)">
            <path d="M70,0 C31.34,0 0,31.34 0,70 C0,84.803 4.606,98.523 12.448,109.832 C25.085,128.056 46.143,140 70,140 C93.856,140 114.914,128.056 127.552,109.832 C135.393,98.523 140,84.803 140,70 C140,31.34 108.66,0 70,0" id="circle" fill="#91BFE3"></path>
            <g id="picto" transform="translate(24.454457, 9.895000)">
                <path d="M82.4645432,96.5545 C81.6295432,95.5085 80.7865432,94.6225 79.9405432,93.8475 C79.8595432,93.7715 79.7775432,93.7065 79.6955432,93.6325 C79.4775432,93.4385 79.2585432,93.2385 79.0385432,93.0595 C77.3105432,91.6165 75.5585432,90.6755 73.7855432,90.0505 C72.3825432,89.5555 70.9675432,89.2615 69.5425432,89.0905 C68.5725432,88.9735 67.5985432,88.9105 66.6205432,88.8795 C65.4195432,88.8405 64.2135432,88.8422983 63.0035432,88.8422983 L45.0105432,88.8445 L32.4245432,88.8465 L30.2155432,88.8422983 C24.7415432,88.8422983 19.3545432,88.7415 14.1805432,93.0595 C13.9615432,93.2385 13.7415432,93.4385 13.5235432,93.6325 C13.4425432,93.7065 13.3605432,93.7715 13.2785432,93.8475 C12.4315432,94.6225 11.5895432,95.5085 10.7535432,96.5545 C10.4025432,96.9935 9.97554322,97.6375 9.51054322,98.3815 C8.00454322,100.5785 5.45954322,107.5455 2.78154322,115.5055 C14.6105432,124.6495 29.4375432,130.1045 45.5455432,130.1045 C62.3845432,130.1045 77.8325432,124.1555 89.9085432,114.2475 C87.4255432,106.7975 85.1085432,100.4225 83.7085432,98.3815 C83.2435432,97.6375 82.8165432,96.9935 82.4645432,96.5545" id="Fill-4" fill="#2167AE"></path>
                <path d="M70.0084432,57.8642 C70.0084432,71.7202 59.5454432,82.9532 46.6384432,82.9532 C33.7314432,82.9532 23.2684432,71.7202 23.2684432,57.8642 C23.2684432,44.0082 33.7314432,32.7752 46.6384432,32.7752 C59.5454432,32.7752 70.0084432,44.0082 70.0084432,57.8642" id="Fill-6" fill="#23366F"></path>
                <path d="M59.5426432,88.9471 C59.5426432,88.9471 58.2676432,83.2061 57.5756432,80.3501 C57.1436432,78.5691 57.5256432,77.0781 58.7326432,75.8081 C59.8436432,74.6391 60.8526432,73.3991 61.4976432,71.8511 C63.3336432,67.4481 63.8486432,62.8091 63.7226432,58.0441 C63.7056432,57.4131 63.5756432,57.0091 63.2636432,56.7721 C63.0226432,56.5891 62.6766432,56.5041 62.1726432,56.5061 C55.8166432,56.5411 50.3836432,53.3631 44.7466432,50.8771 C38.8286432,48.2671 30.3716432,51.7161 29.4336432,57.4311 C29.3916432,64.1911 29.5986432,70.8611 34.5836432,76.0421 C35.4906432,76.9851 35.9316432,78.2541 35.6446432,79.6051 C34.9806432,82.7321 33.5026432,88.9491 33.5026432,88.9491 C33.5026432,88.9491 37.0446432,98.1811 46.6496432,98.1811 C56.2566432,98.1811 59.5426432,88.9471 59.5426432,88.9471" id="Fill-8" fill="#5495CF"></path>
                <path d="M58.8014432,8.917 L51.5374432,8.009 L47.8734432,0.69 C47.6614432,0.268 47.2294432,0 46.7554432,0 C46.2814432,0 45.8494432,0.268 45.6374432,0.69 L41.9744432,8.009 L34.7094432,8.917 C34.2364432,8.977 33.8374432,9.3 33.6824432,9.752 C33.5284432,10.204 33.6434432,10.704 33.9814432,11.042 L39.4414432,16.501 L37.6084432,24.75 C37.5034432,25.223 37.6814432,25.713 38.0644432,26.01 C38.2874432,26.183 38.5574432,26.271 38.8284432,26.271 C39.0234432,26.271 39.2184432,26.226 39.3984432,26.134 L46.7554432,22.373 L54.1144432,26.134 C54.5454432,26.354 55.0664432,26.306 55.4474432,26.01 C55.8304432,25.713 56.0084432,25.222 55.9044432,24.75 L54.0704432,16.501 L59.5304432,11.042 C59.8674432,10.704 59.9834432,10.204 59.8284432,9.752 C59.6734432,9.3 59.2754432,8.977 58.8014432,8.917" id="Fill-10" fill="#DAD2BD"></path>
                <path d="M91.0231432,26.395 C90.8681432,25.943 90.4691432,25.62 89.9961432,25.56 L84.9131432,24.925 L82.3391432,19.784 C82.1271432,19.361 81.6951432,19.094 81.2211432,19.094 C80.7481432,19.094 80.3151432,19.361 80.1031432,19.784 L77.5301432,24.925 L72.4471432,25.56 C71.9731432,25.62 71.5751432,25.943 71.4191432,26.395 C71.2651432,26.847 71.3801432,27.347 71.7181432,27.685 L75.5431432,31.509 L74.2541432,37.303 C74.1501432,37.776 74.3281432,38.267 74.7111432,38.563 C75.0941432,38.86 75.6141432,38.908 76.0441432,38.687 L81.2211432,36.041 L86.3981432,38.687 C86.5781432,38.779 86.7731432,38.825 86.9671432,38.825 C87.2391432,38.825 87.5081432,38.736 87.7321432,38.563 C88.1151432,38.267 88.2931432,37.776 88.1881432,37.303 L86.9001432,31.509 L90.7241432,27.685 C91.0621432,27.347 91.1771432,26.847 91.0231432,26.395" id="Fill-12" fill="#DAD2BD"></path>
                <path d="M18.6432432,25.56 L13.5602432,24.925 L10.9872432,19.784 C10.7752432,19.361 10.3422432,19.094 9.86924322,19.094 C9.39524322,19.094 8.96224322,19.361 8.75024322,19.784 L6.17724322,24.925 L1.09424322,25.56 C0.621243221,25.62 0.222243221,25.943 0.0672432212,26.395 C-0.0867567788,26.847 0.0282432212,27.347 0.366243221,27.685 L4.19024322,31.509 L2.90224322,37.303 C2.79724322,37.776 2.97524322,38.267 3.35824322,38.563 C3.74224322,38.86 4.26224322,38.908 4.69224322,38.687 L9.86924322,36.041 L15.0452432,38.687 C15.2252432,38.779 15.4202432,38.825 15.6152432,38.825 C15.8862432,38.825 16.1562432,38.736 16.3792432,38.563 C16.7622432,38.267 16.9402432,37.776 16.8352432,37.303 L15.5472432,31.509 L19.3722432,27.685 C19.7092432,27.347 19.8252432,26.847 19.6702432,26.395 C19.5152432,25.943 19.1172432,25.62 18.6432432,25.56" id="Fill-14" fill="#DAD2BD"></path>
            </g>
        </g>
    </g>
</svg>