<?xml version="1.0" encoding="UTF-8"?>
<svg width="140px" height="140px" viewBox="0 0 140 140" version="1.1" xmlns="http://www.w3.org/2000/svg" xmlns:xlink="http://www.w3.org/1999/xlink">
    <title>pictogram/dark/business &amp; education/industry</title>
    <g id="pictogram/dark/business-&amp;-education/industry" stroke="none" stroke-width="1" fill="none" fill-rule="evenodd">
        <g id="industry" transform="translate(0.000400, 0.000000)">
            <path d="M140,70 C140,108.66 108.659,140 70,140 C31.34,140 0,108.66 0,70 C0,31.34 31.34,0 70,0 C108.659,0 140,31.34 140,70" id="circle" fill="#91BFE3"></path>
            <g id="picto" transform="translate(30.339200, 28.590300)">
                <path d="M79.319,43.3892 L79.306,43.1982 C79.306,43.1902 79.305,43.1822 79.304,43.1742 L77.209,18.7882 C77.039,17.4502 75.92,16.3602 74.715,16.3602 L69.601,16.3602 C67.985,16.3602 66.738,17.3682 66.565,18.8292 L64.157,41.9342 L58.707,41.9342 L42.437,35.5682 C41.582,35.1662 40.598,35.2212 39.792,35.7162 C38.962,36.2252 38.466,37.1082 38.466,38.0782 L38.464,41.3732 L23.165,35.5652 C22.309,35.1662 21.33,35.2222 20.523,35.7172 C19.695,36.2262 19.201,37.1092 19.201,38.0782 L19.198,41.3612 L4.043,35.5042 C3.187,35.1022 2.205,35.1582 1.4,35.6532 C0.57,36.1612 0.075,37.0452 0.075,38.0142 L0,80.0432 C0,80.7762 0.298,81.4932 0.816,82.0082 C1.334,82.5232 2.051,82.8192 2.784,82.8192 L76.538,82.8192 C77.27,82.8192 77.987,82.5232 78.503,82.0092 C79.023,81.4922 79.322,80.7752 79.322,80.0432 L79.319,43.3892 Z" id="Fill-4" fill="#2167AE"></path>
                <polygon id="Fill-6" fill="#DAD2BD" points="44.9964 60.1607 54.5274 60.1607 54.5274 50.6297 44.9964 50.6297"></polygon>
                <polygon id="Fill-8" fill="#DAD2BD" points="44.9354 76.0297 54.4664 76.0297 54.4664 66.4987 44.9354 66.4987"></polygon>
                <polygon id="Fill-9" fill="#DAD2BD" points="8.0944 60.1607 17.6244 60.1607 17.6244 50.6297 8.0944 50.6297"></polygon>
                <polygon id="Fill-10" fill="#DAD2BD" points="26.5454 60.1607 36.0754 60.1607 36.0754 50.6297 26.5454 50.6297"></polygon>
                <polygon id="Fill-11" fill="#DAD2BD" points="7.9134 76.0297 17.4434 76.0297 17.4434 66.4987 7.9134 66.4987"></polygon>
                <polygon id="Fill-12" fill="#DAD2BD" points="26.4244 76.0297 35.9544 76.0297 35.9544 66.4987 26.4244 66.4987"></polygon>
                <path d="M71.6784,10.5 C67.5874,10.5 65.4534,8.499 63.7384,6.891 C62.2574,5.503 61.1874,4.5 58.8764,4.5 C56.5644,4.5 55.4934,5.503 54.0114,6.892 C52.2964,8.499 50.1604,10.5 46.0704,10.5 C41.9804,10.5 39.8454,8.499 38.1294,6.892 C36.6484,5.503 35.5784,4.5 33.2674,4.5 C30.9534,4.5 29.8824,5.503 28.4004,6.892 C26.6844,8.5 24.5484,10.5 20.4564,10.5 C16.3644,10.5 14.2284,8.499 12.5124,6.892 C11.0304,5.503 9.9584,4.5 7.6454,4.5 C6.4034,4.5 5.3954,3.493 5.3954,2.25 C5.3954,1.007 6.4034,0 7.6454,0 C11.7374,0 13.8724,2 15.5884,3.608 C17.0714,4.997 18.1424,6 20.4564,6 C22.7704,6 23.8414,4.997 25.3244,3.608 C27.0394,2 29.1754,0 33.2674,0 C37.3574,0 39.4914,2.001 41.2074,3.608 C42.6884,4.997 43.7584,6 46.0704,6 C48.3824,6 49.4524,4.997 50.9354,3.608 C52.6504,2.001 54.7854,0 58.8764,0 C62.9664,0 65.1004,2.001 66.8164,3.608 C68.2964,4.997 69.3664,6 71.6784,6 C72.9204,6 73.9284,7.007 73.9284,8.25 C73.9284,9.493 72.9204,10.5 71.6784,10.5" id="Fill-13" fill="#5495CF"></path>
            </g>
        </g>
    </g>
</svg>