<?xml version="1.0" encoding="UTF-8"?>
<svg width="140px" height="140px" viewBox="0 0 140 140" version="1.1" xmlns="http://www.w3.org/2000/svg" xmlns:xlink="http://www.w3.org/1999/xlink">
    <title>pictogram/dark/business &amp; education/portfolio</title>
    <g id="pictogram/dark/business-&amp;-education/portfolio" stroke="none" stroke-width="1" fill="none" fill-rule="evenodd">
        <g id="portfolio" transform="translate(0.000000, 0.000000)">
            <path d="M140,70 C140,108.66 108.659,140 70,140 C31.34,140 0,108.66 0,70 C0,31.34 31.34,0 70,0 C108.659,0 140,31.34 140,70" id="circle" fill="#91BFE3"></path>
            <g id="picto" transform="translate(24.080700, 31.459519)">
                <path d="M12.973,69.3289814 L12.973,38.5009814 C12.973,29.3039814 20.691,21.8199814 30.176,21.8199814 L77.645,21.8259814 L77.645,20.1769814 C77.645,13.0869814 71.877,7.31898137 64.787,7.31898137 L39.564,7.31898137 C34.445,-0.142018634 28.398,-0.0500186341 24.726,0.0119813659 L12.857,0.0219813659 C5.767,0.0219813659 7.10542736e-15,5.78898137 7.10542736e-15,12.8789814 L7.10542736e-15,67.8909814 C7.10542736e-15,70.9739814 1.531,73.6999814 3.867,75.3679814 C4.608,75.6389814 5.408,75.7939814 6.246,75.7939814 C9.955,75.7939814 12.973,72.8929814 12.973,69.3289814" id="Fill-4" fill="#5495CF"></path>
                <path d="M89.2055,27.0714814 C86.8555,23.9834814 83.1525,21.9774814 78.9815,21.9774814 L77.6445,21.9774814 L77.6445,21.8254814 L30.1765,21.8204814 C20.6905,21.8204814 12.9735,29.3034814 12.9735,38.5004814 L12.9735,69.3284814 C12.9735,72.8934814 9.9555,75.7934814 6.2465,75.7934814 C5.4075,75.7934814 4.6075,75.6384814 3.8665,75.3684814 C5.3705,76.4414814 7.2055,77.0804814 9.1895,77.0804814 L10.8595,77.0804814 L78.9815,77.0804814 C86.0705,77.0804814 91.8385,71.3124814 91.8385,64.2234814 L91.8385,34.8344814 C91.8385,31.9164814 90.8505,29.2314814 89.2055,27.0714814" id="Fill-6" fill="#DAD2BD"></path>
                <path d="M77.9896,73.2588814 C76.5116,68.7498814 75.0816,64.6788814 74.2596,63.4788814 C74.0166,63.0918814 73.7946,62.7568814 73.6116,62.5278814 C73.1766,61.9828814 72.7376,61.5218814 72.2966,61.1178814 C72.2546,61.0788814 72.2126,61.0448814 72.1696,61.0058814 C72.0556,60.9048814 71.9416,60.8008814 71.8276,60.7078814 C70.9276,59.9568814 70.0146,59.4668814 69.0926,59.1408814 C68.3616,58.8838814 67.6246,58.7308814 66.8836,58.6408814 C66.3786,58.5808814 65.8706,58.5478814 65.3606,58.5308814 C64.7356,58.5108814 64.1076,58.511774 63.4776,58.511774 L54.1086,58.5128814 L47.5556,58.5138814 L46.4056,58.511774 C43.5556,58.511774 40.7506,58.4588814 38.0556,60.7078814 C37.9416,60.8008814 37.8276,60.9048814 37.7146,61.0058814 C37.6726,61.0448814 37.6296,61.0788814 37.5876,61.1178814 C37.1456,61.5218814 36.7076,61.9828814 36.2716,62.5278814 C36.0896,62.7568814 35.8666,63.0918814 35.6246,63.4788814 C34.9396,64.4778814 33.8436,67.3688814 32.6486,70.8438814 L30.4146,77.0438814 L37.9306,77.0438814 L72.8126,77.0438814 L79.1746,77.0438814 L77.9896,73.2588814 Z" id="Fill-8" fill="#2167AE"></path>
                <path d="M67.1693,43.0710814 C67.1693,49.9050814 61.6283,55.4460814 54.7943,55.4460814 C47.9603,55.4460814 42.4193,49.9050814 42.4193,43.0710814 C42.4193,36.2370814 47.9603,30.6960814 54.7943,30.6960814 C61.6283,30.6960814 67.1693,36.2370814 67.1693,43.0710814" id="Fill-10" fill="#23366F"></path>
            </g>
        </g>
    </g>
</svg>