<?xml version="1.0" encoding="UTF-8"?>
<svg width="140px" height="140px" viewBox="0 0 140 140" version="1.1" xmlns="http://www.w3.org/2000/svg" xmlns:xlink="http://www.w3.org/1999/xlink">
    <title>pictogram/light/communication/microphone/vintage</title>
    <g id="pictogram/light/communication/microphone/vintage" stroke="none" stroke-width="1" fill="none" fill-rule="evenodd">
        <g id="microphone-vintage">
            <path d="M140,70 C140,108.66 108.66,140 70,140 C31.34,140 0,108.66 0,70 C0,31.34 31.34,0 70,0 C108.66,0 140,31.34 140,70" id="circle" fill="#DDE4E3"></path>
            <g id="picto" transform="translate(33.859466, 19.610234)">
                <path d="M13.3563343,25.8808655 C13.1703343,25.8808655 12.9803343,25.8578655 12.7923343,25.8088655 C11.5883343,25.4978655 10.8653343,24.2708655 11.1763343,23.0678655 C11.9143343,20.2108655 13.4123343,17.5928655 15.5093343,15.4958655 C17.4993343,13.5058655 19.9743343,12.0468655 22.6663343,11.2758655 C23.8603343,10.9338655 25.1063343,11.6258655 25.4483343,12.8198655 C25.7903343,14.0148655 25.0983343,15.2608655 23.9043343,15.6028655 C21.9453343,16.1628655 20.1423343,17.2268655 18.6913343,18.6778655 C17.1623343,20.2068655 16.0703343,22.1138655 15.5333343,24.1928655 C15.2713343,25.2078655 14.3573343,25.8808655 13.3563343,25.8808655" id="Fill-3" fill="#91BFE3"></path>
                <path d="M2.25243426,24.7818655 C2.21043426,24.7818655 2.16843426,24.7808655 2.12643426,24.7788655 C0.885434261,24.7098655 -0.0645657389,23.6488655 0.0034342611,22.4078655 C0.327434261,16.5618655 2.78643426,11.0608655 6.93043426,6.91686551 C11.0134343,2.83386551 16.4324343,0.378865514 22.1894343,0.00486551356 C23.4274343,-0.0751344864 24.5004343,0.863865514 24.5804343,2.10386551 C24.6614343,3.34386551 23.7214343,4.41486551 22.4814343,4.49586551 C17.8154343,4.79886551 13.4224343,6.78886551 10.1124343,10.0998655 C6.75343426,13.4588655 4.75943426,17.9178655 4.49743426,22.6558655 C4.43043426,23.8548655 3.43843426,24.7818655 2.25243426,24.7818655" id="Fill-5" fill="#91BFE3"></path>
                <path d="M58.9247343,25.8808655 C57.9237343,25.8808655 57.0097343,25.2078655 56.7477343,24.1928655 C56.2107343,22.1138655 55.1187343,20.2068655 53.5897343,18.6778655 C52.1387343,17.2268655 50.3357343,16.1628655 48.3767343,15.6028655 C47.1827343,15.2608655 46.4907343,14.0148655 46.8327343,12.8198655 C47.1747343,11.6258655 48.4207343,10.9348655 49.6147343,11.2758655 C52.3067343,12.0468655 54.7817343,13.5058655 56.7717343,15.4958655 C58.8687343,17.5928655 60.3667343,20.2108655 61.1047343,23.0678655 C61.4157343,24.2708655 60.6927343,25.4978655 59.4887343,25.8088655 C59.3007343,25.8578655 59.1107343,25.8808655 58.9247343,25.8808655" id="Fill-7" fill="#91BFE3"></path>
                <path d="M70.0286343,24.7818655 C68.8426343,24.7818655 67.8506343,23.8548655 67.7836343,22.6558655 C67.5216343,17.9178655 65.5276343,13.4588655 62.1686343,10.0998655 C58.8586343,6.78886551 54.4656343,4.79886551 49.7996343,4.49586551 C48.5596343,4.41486551 47.6196343,3.34386551 47.7006343,2.10386551 C47.7806343,0.863865514 48.8496343,-0.0761344864 50.0916343,0.00486551356 C55.8476343,0.378865514 61.2676343,2.83386551 65.3506343,6.91686551 C69.4946343,11.0608655 71.9536343,16.5618655 72.2776343,22.4078655 C72.3456343,23.6488655 71.3956343,24.7098655 70.1546343,24.7788655 C70.1126343,24.7808655 70.0706343,24.7818655 70.0286343,24.7818655" id="Fill-9" fill="#91BFE3"></path>
                <path d="M53.4713343,56.1001655 L18.8093343,56.1001655 C17.5673343,56.1001655 16.5593343,57.1071655 16.5593343,58.3501655 L16.5593343,67.0161655 C16.5593343,77.0501655 24.1513343,85.3361655 33.8903343,86.4571655 L33.8903343,96.2791655 L25.7343343,96.2791655 C24.4913343,96.2791655 23.4843343,97.2871655 23.4843343,98.5291655 C23.4843343,99.7721655 24.4913343,100.779166 25.7343343,100.779166 L46.5463343,100.779166 C47.7893343,100.779166 48.7963343,99.7721655 48.7963343,98.5291655 C48.7963343,97.2871655 47.7893343,96.2791655 46.5463343,96.2791655 L38.3903343,96.2791655 L38.3903343,86.4571655 C48.1303343,85.3361655 55.7213343,77.0511655 55.7213343,67.0161655 L55.7213343,58.3501655 C55.7213343,57.1071655 54.7143343,56.1001655 53.4713343,56.1001655" id="Fill-11" fill="#5495CF"></path>
                <path d="M21.3119343,56.9897655 L21.3119343,66.6017655 C21.3119343,74.7547655 27.9439343,81.3877655 36.0979343,81.3877655 C44.2499343,81.3877655 50.8829343,74.7547655 50.8829343,66.6017655 L50.8829343,56.9897655 L21.3119343,56.9897655 Z" id="Fill-13" fill="#2167AE"></path>
                <path d="M36.0975343,25.5302655 C27.9445343,25.5302655 21.3115343,32.1632655 21.3115343,40.3162655 L21.3115343,60.8422655 L21.3115343,66.6022655 C21.3115343,74.7552655 27.9445343,81.3872655 36.0975343,81.3872655 C44.2505343,81.3872655 50.8835343,74.7552655 50.8835343,66.6022655 L50.8835343,60.8422655 L50.8835343,40.3162655 C50.8835343,32.1632655 44.2505343,25.5302655 36.0975343,25.5302655" id="Fill-15" fill="#2167AE"></path>
            </g>
        </g>
    </g>
</svg>