<?xml version="1.0" encoding="UTF-8"?>
<svg width="140px" height="140px" viewBox="0 0 140 140" version="1.1" xmlns="http://www.w3.org/2000/svg" xmlns:xlink="http://www.w3.org/1999/xlink">
    <title>pictogram/dark/communication/rating/2 poor</title>
    <g id="pictogram/dark/communication/rating/2-poor" stroke="none" stroke-width="1" fill="none" fill-rule="evenodd">
        <g id="rating-poor" transform="translate(0.000000, 0.000000)">
            <path d="M140,70 C140,108.66 108.66,140 70,140 C31.34,140 0,108.66 0,70 C0,31.34 31.34,0 70,0 C108.66,0 140,31.34 140,70" id="circle" fill="#91BFE3"></path>
            <g id="picto" transform="translate(20.649517, 44.692400)">
                <path d="M25.1866828,8.917 L17.9226828,8.009 L14.2586828,0.69 C14.0466828,0.267 13.6136828,0 13.1406828,0 C12.6676828,0 12.2346828,0.267 12.0226828,0.69 L8.35868277,8.009 L1.09568277,8.917 C0.621682766,8.976 0.222682766,9.3 0.0676827661,9.751 C-0.0873172339,10.203 0.0286827661,10.704 0.366682766,11.041 L5.82668277,16.501 L3.99368277,24.75 C3.88868277,25.222 4.06568277,25.713 4.44868277,26.009 C4.83168277,26.306 5.35268277,26.355 5.78268277,26.133 L13.1406828,22.373 L20.4996828,26.133 C20.6786828,26.226 20.8736828,26.271018 21.0676828,26.271018 C21.3396828,26.271018 21.6096828,26.182 21.8326828,26.009 C22.2156828,25.713 22.3936828,25.222 22.2886828,24.75 L20.4556828,16.501 L25.9156828,11.041 C26.2526828,10.704 26.3686828,10.203 26.2136828,9.751 C26.0596828,9.3 25.6606828,8.976 25.1866828,8.917" id="Fill-4" fill="#DAD2BD"></path>
                <path d="M62.7505828,9.7514 C62.5955828,9.2994 62.1965828,8.9764 61.7235828,8.9174 L54.4595828,8.0094 L50.7955828,0.6904 C50.5835828,0.2674 50.1505828,0.0004 49.6775828,0.0004 C49.2045828,0.0004 48.7715828,0.2674 48.5605828,0.6904 L44.8965828,8.0094 L37.6325828,8.9174 C37.1585828,8.9764 36.7595828,9.2994 36.6045828,9.7514 C36.4495828,10.2034 36.5655828,10.7034 36.9035828,11.0414 L42.3635828,16.5014 L40.5305828,24.7494 C40.4255828,25.2224 40.6035828,25.7124 40.9855828,26.0094 C41.2095828,26.1824 41.4795828,26.2704 41.7505828,26.2704 C41.9445828,26.2704 42.1405828,26.2254 42.3195828,26.1334 L49.6775828,22.3724 L57.0365828,26.1334 C57.4675828,26.3544 57.9865828,26.3054 58.3695828,26.0094 C58.7525828,25.7124 58.9305828,25.2224 58.8255828,24.7494 L56.9925828,16.5014 L62.4525828,11.0414 C62.7895828,10.7034 62.9055828,10.2034 62.7505828,9.7514" id="Fill-6" fill="#DAD2BD"></path>
                <path d="M98.6329828,10.0381 C98.4779828,9.5861 98.0789828,9.2631 97.6059828,9.2041 L90.3409828,8.2961 L86.6769828,0.9771 C86.4659828,0.5541 86.0329828,0.2871 85.5599828,0.2871 C85.0869828,0.2871 84.6539828,0.5541 84.4419828,0.9771 L80.7779828,8.2961 L73.5139828,9.2041 C73.0409828,9.2631 72.6419828,9.5861 72.4869828,10.0381 C72.3319828,10.4901 72.4479828,10.9901 72.7849828,11.3281 L78.2459828,16.7881 L76.4129828,25.0371 C76.3069828,25.5091 76.4849828,26.0001 76.8679828,26.2961 C77.2509828,26.5931 77.7709828,26.6421 78.2019828,26.4211 L85.5599828,22.6601 L92.9179828,26.4211 C93.0979828,26.5131 93.2929828,26.5583165 93.4869828,26.5583165 C93.7579828,26.5583165 94.0289828,26.4691 94.2519828,26.2961 C94.6349828,26.0001 94.8119828,25.5091 94.7069828,25.0371 L92.8749828,16.7881 L98.3349828,11.3281 C98.6719828,10.9901 98.7879828,10.4901 98.6329828,10.0381" id="Fill-8" fill="#2167AE"></path>
                <path d="M43.6055828,40.4931 L36.3415828,39.5851 L32.6775828,32.2661 C32.4655828,31.8431 32.0325828,31.5761 31.5605828,31.5761 C31.0865828,31.5761 30.6535828,31.8431 30.4415828,32.2661 L26.7775828,39.5851 L19.5145828,40.4931 C19.0405828,40.5521 18.6415828,40.8761 18.4865828,41.3271 C18.3315828,41.7791 18.4475828,42.2801 18.7855828,42.6171 L24.2455828,48.0771 L22.4125828,56.3261 C22.3075828,56.7991 22.4845828,57.2891 22.8675828,57.5861 C23.2505828,57.8831 23.7715828,57.9321 24.2015828,57.7101 L31.5605828,53.9491 L38.9185828,57.7101 C39.0975828,57.8021 39.2925828,57.8471 39.4865828,57.8471 C39.7585828,57.8471 40.0285828,57.7591 40.2515828,57.5861 C40.6345828,57.2891 40.8125828,56.7991 40.7075828,56.3261 L38.8745828,48.0771 L44.3345828,42.6171 C44.6715828,42.2801 44.7875828,41.7791 44.6325828,41.3271 C44.4785828,40.8761 44.0795828,40.5521 43.6055828,40.4931" id="Fill-10" fill="#2167AE"></path>
                <path d="M80.6055828,40.4931 L73.3415828,39.5851 L69.6775828,32.2661 C69.4655828,31.8431 69.0325828,31.5761 68.5605828,31.5761 C68.0865828,31.5761 67.6535828,31.8431 67.4415828,32.2661 L63.7775828,39.5851 L56.5145828,40.4931 C56.0405828,40.5521 55.6415828,40.8761 55.4865828,41.3271 C55.3315828,41.7791 55.4475828,42.2801 55.7855828,42.6171 L61.2455828,48.0771 L59.4125828,56.3261 C59.3075828,56.7991 59.4845828,57.2891 59.8675828,57.5861 C60.2515828,57.8831 60.7705828,57.9321 61.2015828,57.7101 L68.5605828,53.9491 L75.9185828,57.7101 C76.0975828,57.8021 76.2925828,57.8471 76.4865828,57.8471 C76.7585828,57.8471 77.0285828,57.7591 77.2515828,57.5861 C77.6345828,57.2891 77.8125828,56.7991 77.7075828,56.3261 L75.8745828,48.0771 L81.3345828,42.6171 C81.6715828,42.2801 81.7875828,41.7791 81.6325828,41.3271 C81.4785828,40.8761 81.0795828,40.5521 80.6055828,40.4931" id="Fill-12" fill="#2167AE"></path>
            </g>
        </g>
    </g>
</svg>