<?xml version="1.0" encoding="UTF-8"?>
<svg width="140px" height="140px" viewBox="0 0 140 140" version="1.1" xmlns="http://www.w3.org/2000/svg" xmlns:xlink="http://www.w3.org/1999/xlink">
    <title>pictogram/dark/communication/rating/3 good</title>
    <g id="pictogram/dark/communication/rating/3-good" stroke="none" stroke-width="1" fill="none" fill-rule="evenodd">
        <g id="rating-good" transform="translate(0.000000, 0.000000)">
            <path d="M140,70 C140,108.66 108.66,140 70,140 C31.34,140 0,108.66 0,70 C0,31.34 31.34,0 70,0 C108.66,0 140,31.34 140,70" id="circle" fill="#91BFE3"></path>
            <g id="picto" transform="translate(20.649517, 44.692400)">
                <path d="M25.1866828,8.917 L17.9226828,8.009 L14.2586828,0.69 C14.0466828,0.267 13.6136828,0 13.1406828,0 C12.6676828,0 12.2346828,0.267 12.0226828,0.69 L8.35868277,8.009 L1.09568277,8.917 C0.621682766,8.976 0.222682766,9.3 0.0676827661,9.751 C-0.0873172339,10.203 0.0286827661,10.704 0.366682766,11.041 L5.82668277,16.501 L3.99368277,24.75 C3.88868277,25.222 4.06568277,25.713 4.44868277,26.009 C4.83168277,26.306 5.35168277,26.355 5.78268277,26.133 L13.1406828,22.373 L20.4996828,26.133 C20.6786828,26.226 20.8736828,26.271018 21.0676828,26.271018 C21.3396828,26.271018 21.6096828,26.182 21.8326828,26.009 C22.2156828,25.713 22.3936828,25.222 22.2886828,24.75 L20.4556828,16.501 L25.9156828,11.041 C26.2526828,10.704 26.3686828,10.203 26.2136828,9.751 C26.0596828,9.3 25.6606828,8.976 25.1866828,8.917" id="Fill-4" fill="#DAD2BD"></path>
                <path d="M61.7232828,8.917 L54.4592828,8.009 L50.7952828,0.69 C50.5832828,0.267 50.1512828,0 49.6782828,0 C49.2042828,0 48.7722828,0.267 48.5602828,0.69 L44.8962828,8.009 L37.6322828,8.917 C37.1592828,8.976 36.7602828,9.3 36.6052828,9.751 C36.4502828,10.203 36.5662828,10.704 36.9032828,11.041 L42.3632828,16.501 L40.5312828,24.75 C40.4252828,25.222 40.6032828,25.713 40.9862828,26.009 C41.2092828,26.182 41.4792828,26.271 41.7512828,26.271 C41.9452828,26.271 42.1402828,26.226 42.3202828,26.133 L49.6782828,22.373 L57.0362828,26.133 C57.4672828,26.354 57.9872828,26.305 58.3692828,26.009 C58.7532828,25.713 58.9302828,25.222 58.8252828,24.75 L56.9922828,16.501 L62.4522828,11.041 C62.7892828,10.704 62.9062828,10.203 62.7502828,9.751 C62.5962828,9.3 62.1972828,8.976 61.7232828,8.917" id="Fill-6" fill="#DAD2BD"></path>
                <path d="M98.6329828,10.0386 C98.4779828,9.5866 98.0799828,9.2636 97.6059828,9.2046 L90.3409828,8.2956 L86.6769828,0.9766 C86.4659828,0.5536 86.0329828,0.2866 85.5599828,0.2866 C85.0869828,0.2866 84.6539828,0.5536 84.4419828,0.9766 L80.7779828,8.2956 L73.5139828,9.2046 C73.0399828,9.2636 72.6419828,9.5866 72.4869828,10.0386 C72.3319828,10.4906 72.4479828,10.9906 72.7849828,11.3286 L78.2459828,16.7886 L76.4129828,25.0366 C76.3069828,25.5096 76.4849828,25.9996 76.8679828,26.2966 C77.2509828,26.5936 77.7709828,26.6416 78.2019828,26.4206 L85.5599828,22.6596 L92.9179828,26.4206 C93.0979828,26.5126 93.2929828,26.5576 93.4869828,26.5576 C93.7579828,26.5576 94.0289828,26.4696 94.2519828,26.2966 C94.6349828,25.9996 94.8119828,25.5096 94.7069828,25.0366 L92.8749828,16.7886 L98.3349828,11.3286 C98.6719828,10.9906 98.7879828,10.4906 98.6329828,10.0386" id="Fill-8" fill="#DAD2BD"></path>
                <path d="M43.6055828,40.4937 L36.3415828,39.5857 L32.6775828,32.2667 C32.4655828,31.8437 32.0325828,31.5767 31.5605828,31.5767 C31.0865828,31.5767 30.6535828,31.8437 30.4415828,32.2667 L26.7775828,39.5857 L19.5145828,40.4937 C19.0405828,40.5527 18.6415828,40.8767 18.4865828,41.3277 C18.3315828,41.7797 18.4475828,42.2807 18.7855828,42.6177 L24.2455828,48.0777 L22.4125828,56.3267 C22.3075828,56.7987 22.4845828,57.2897 22.8675828,57.5857 C23.2505828,57.8827 23.7705828,57.9317 24.2015828,57.7097 L31.5605828,53.9497 L38.9185828,57.7097 C39.0975828,57.8027 39.2925828,57.847718 39.4865828,57.847718 C39.7585828,57.847718 40.0285828,57.7587 40.2515828,57.5857 C40.6345828,57.2897 40.8125828,56.7987 40.7075828,56.3267 L38.8745828,48.0777 L44.3345828,42.6177 C44.6715828,42.2807 44.7875828,41.7797 44.6325828,41.3277 C44.4785828,40.8767 44.0795828,40.5527 43.6055828,40.4937" id="Fill-10" fill="#2167AE"></path>
                <path d="M81.6329828,41.3281 C81.4779828,40.8761 81.0799828,40.5531 80.6059828,40.4941 L73.3409828,39.5851 L69.6769828,32.2661 C69.4659828,31.8431 69.0329828,31.5761 68.5599828,31.5761 C68.0869828,31.5761 67.6539828,31.8431 67.4419828,32.2661 L63.7779828,39.5851 L56.5139828,40.4941 C56.0399828,40.5531 55.6419828,40.8761 55.4869828,41.3281 C55.3319828,41.7801 55.4479828,42.2801 55.7849828,42.6181 L61.2459828,48.0781 L59.4129828,56.3261 C59.3069828,56.7991 59.4849828,57.2891 59.8679828,57.5861 C60.2509828,57.8831 60.7699828,57.9321 61.2019828,57.7101 L68.5599828,53.9491 L75.9179828,57.7101 C76.0979828,57.8021 76.2929828,57.8471 76.4869828,57.8471 C76.7579828,57.8471 77.0289828,57.7591 77.2519828,57.5861 C77.6349828,57.2891 77.8119828,56.7991 77.7069828,56.3261 L75.8749828,48.0781 L81.3349828,42.6181 C81.6719828,42.2801 81.7879828,41.7801 81.6329828,41.3281" id="Fill-12" fill="#2167AE"></path>
            </g>
        </g>
    </g>
</svg>