<?xml version="1.0" encoding="UTF-8"?>
<svg width="140px" height="140px" viewBox="0 0 140 140" version="1.1" xmlns="http://www.w3.org/2000/svg" xmlns:xlink="http://www.w3.org/1999/xlink">
    <title>pictogram/dark/communication/rating/5 excellent</title>
    <g id="pictogram/dark/communication/rating/5-excellent" stroke="none" stroke-width="1" fill="none" fill-rule="evenodd">
        <g id="rating-excellent" transform="translate(0.000000, 0.000000)">
            <path d="M140,70 C140,108.66 108.66,140 70,140 C31.34,140 0,108.66 0,70 C0,31.34 31.34,0 70,0 C108.66,0 140,31.34 140,70" id="circle" fill="#91BFE3"></path>
            <g id="picto" transform="translate(20.649792, 44.691900)" fill="#DAD2BD">
                <path d="M21.0677081,26.271 C21.3387081,26.271 21.6097081,26.183 21.8327081,26.01 C22.2157081,25.713 22.3927081,25.223 22.2877081,24.75 L20.4557081,16.502 L25.9157081,11.042 C26.2527081,10.704 26.3687081,10.204 26.2137081,9.752 C26.0587081,9.3 25.6597081,8.977 25.1867081,8.917 L17.9217081,8.01 L14.2577081,0.691 C14.0467081,0.268 13.6137081,1.42108547e-14 13.1407081,1.42108547e-14 C12.6677081,1.42108547e-14 12.2347081,0.268 12.0227081,0.691 L8.35870814,8.01 L1.09470814,8.917 C0.621708143,8.977 0.222708143,9.3 0.0677081432,9.752 C-0.0872918568,10.204 0.0287081432,10.704 0.365708143,11.042 L5.82570814,16.502 L3.99370814,24.75 C3.88770814,25.223 4.06570814,25.713 4.44870814,26.01 C4.83170814,26.306 5.35170814,26.356 5.78270814,26.134 L13.1407081,22.373 L20.4987081,26.134 C20.6787081,26.226 20.8737081,26.271 21.0677081,26.271" id="Fill-4"></path>
                <path d="M58.3695081,26.0098 C58.7525081,25.7138 58.9305081,25.2228 58.8255081,24.7498 L56.9925081,16.5018 L62.4525081,11.0418 C62.7895081,10.7038 62.9055081,10.2038 62.7505081,9.7518 C62.5955081,9.3008 62.1965081,8.9768 61.7235081,8.9178 L54.4595081,8.0098 L50.7955081,0.6908 C50.5835081,0.2678 50.1505081,0.0008 49.6775081,0.0008 C49.2045081,0.0008 48.7715081,0.2678 48.5595081,0.6908 L44.8955081,8.0098 L37.6325081,8.9178 C37.1585081,8.9768 36.7595081,9.3008 36.6045081,9.7518 C36.4495081,10.2038 36.5655081,10.7038 36.9035081,11.0418 L42.3635081,16.5018 L40.5305081,24.7498 C40.4255081,25.2228 40.6025081,25.7138 40.9855081,26.0098 C41.2095081,26.1828 41.4785081,26.2708 41.7505081,26.2708 C41.9445081,26.2708 42.1405081,26.2258 42.3195081,26.1338 L49.6775081,22.3728 L57.0365081,26.1338 C57.4675081,26.3548 57.9865081,26.3048 58.3695081,26.0098" id="Fill-6"></path>
                <path d="M98.6327081,10.0391 C98.4777081,9.5871 98.0797081,9.2641 97.6057081,9.2051 L90.3407081,8.2961 L86.6767081,0.9771 C86.4657081,0.5541 86.0327081,0.2871 85.5597081,0.2871 C85.0867081,0.2871 84.6537081,0.5541 84.4417081,0.9771 L80.7777081,8.2961 L73.5137081,9.2051 C73.0397081,9.2641 72.6417081,9.5871 72.4867081,10.0391 C72.3317081,10.4911 72.4477081,10.9911 72.7847081,11.3291 L78.2457081,16.7891 L76.4127081,25.0371 C76.3067081,25.5101 76.4847081,26.0001 76.8677081,26.2971 C77.2507081,26.5941 77.7707081,26.6421 78.2017081,26.4211 L85.5597081,22.6601 L92.9177081,26.4211 C93.0977081,26.5131 93.2927081,26.5581 93.4867081,26.5581 C93.7577081,26.5581 94.0287081,26.4701 94.2517081,26.2971 C94.6347081,26.0001 94.8117081,25.5101 94.7067081,25.0371 L92.8747081,16.7891 L98.3347081,11.3291 C98.6717081,10.9911 98.7877081,10.4911 98.6327081,10.0391" id="Fill-8"></path>
                <path d="M43.6053081,40.4942 L36.3413081,39.5862 L32.6773081,32.2672 C32.4653081,31.8442 32.0323081,31.5772 31.5603081,31.5772 C31.0863081,31.5772 30.6533081,31.8442 30.4413081,32.2672 L26.7773081,39.5862 L19.5143081,40.4942 C19.0403081,40.5532 18.6413081,40.8772 18.4863081,41.3282 C18.3313081,41.7802 18.4473081,42.2812 18.7853081,42.6182 L24.2453081,48.0782 L22.4123081,56.3272 C22.3073081,56.7992 22.4843081,57.2902 22.8673081,57.5862 C23.2513081,57.8832 23.7703081,57.9322 24.2013081,57.7102 L31.5603081,53.9502 L38.9183081,57.7102 C39.0973081,57.8032 39.2923081,57.848218 39.4863081,57.848218 C39.7583081,57.848218 40.0283081,57.7592 40.2513081,57.5862 C40.6343081,57.2902 40.8123081,56.7992 40.7073081,56.3272 L38.8743081,48.0782 L44.3343081,42.6182 C44.6713081,42.2812 44.7873081,41.7802 44.6323081,41.3282 C44.4783081,40.8772 44.0793081,40.5532 43.6053081,40.4942" id="Fill-10"></path>
                <path d="M80.6053081,40.4942 L73.3413081,39.5862 L69.6773081,32.2672 C69.4653081,31.8442 69.0323081,31.5772 68.5603081,31.5772 C68.0863081,31.5772 67.6533081,31.8442 67.4413081,32.2672 L63.7773081,39.5862 L56.5143081,40.4942 C56.0403081,40.5532 55.6413081,40.8772 55.4863081,41.3282 C55.3313081,41.7802 55.4473081,42.2812 55.7853081,42.6182 L61.2453081,48.0782 L59.4123081,56.3272 C59.3073081,56.7992 59.4843081,57.2902 59.8673081,57.5862 C60.2503081,57.8832 60.7713081,57.9322 61.2013081,57.7102 L68.5603081,53.9502 L75.9183081,57.7102 C76.0973081,57.8032 76.2923081,57.848218 76.4863081,57.848218 C76.7583081,57.848218 77.0283081,57.7592 77.2513081,57.5862 C77.6343081,57.2902 77.8123081,56.7992 77.7073081,56.3272 L75.8743081,48.0782 L81.3343081,42.6182 C81.6713081,42.2812 81.7873081,41.7802 81.6323081,41.3282 C81.4783081,40.8772 81.0793081,40.5532 80.6053081,40.4942" id="Fill-12"></path>
            </g>
        </g>
    </g>
</svg>