<?xml version="1.0" encoding="UTF-8"?>
<svg width="140px" height="140px" viewBox="0 0 140 140" version="1.1" xmlns="http://www.w3.org/2000/svg" xmlns:xlink="http://www.w3.org/1999/xlink">
    <title>pictogram/light/communication/lightbulb/idea</title>
    <g id="pictogram/light/communication/lightbulb/idea" stroke="none" stroke-width="1" fill="none" fill-rule="evenodd">
        <g id="lightbulb-idea">
            <path d="M140,70 C140,108.66 108.66,140 70,140 C31.34,140 0,108.66 0,70 C0,31.34 31.34,0 70,0 C108.66,0 140,31.34 140,70" id="circle" fill="#DDE4E3"></path>
            <g id="picto" transform="translate(19.189800, 23.489900)">
                <path d="M102.2401,28.0492 L99.8891,26.7632 L98.6041,24.4142 C98.3261,23.9062 97.4961,23.9062 97.2191,24.4142 L95.9331,26.7632 L93.5821,28.0492 C93.3291,28.1872 93.1721,28.4532 93.1721,28.7422 C93.1721,29.0302 93.3291,29.2972 93.5821,29.4342 L95.9331,30.7202 L97.2191,33.0702 C97.3571,33.3232 97.6231,33.4812 97.9111,33.4812 C98.1991,33.4812 98.4651,33.3232 98.6041,33.0702 L99.8891,30.7202 L102.2401,29.4342 C102.4931,29.2972 102.6501,29.0302 102.6501,28.7422 C102.6501,28.4532 102.4931,28.1872 102.2401,28.0492" id="Fill-3" fill="#91BFE3"></path>
                <path d="M87.3461,4.016 L84.9951,2.73 L83.7101,0.381 C83.4321,-0.127 82.6021,-0.127 82.3251,0.381 L81.0401,2.73 L78.6881,4.016 C78.4351,4.154 78.2781,4.42 78.2781,4.708 C78.2781,4.997 78.4351,5.263 78.6881,5.401 L81.0401,6.687 L82.3251,9.037 C82.4631,9.29 82.7291,9.448 83.0171,9.448 C83.3061,9.448 83.5711,9.29 83.7101,9.037 L84.9951,6.687 L87.3461,5.401 C87.5991,5.263 87.7561,4.997 87.7561,4.708 C87.7561,4.42 87.5991,4.154 87.3461,4.016" id="Fill-5" fill="#91BFE3"></path>
                <path d="M22.932,4.7753 L20.581,3.4893 L19.296,1.1403 C19.157,0.8863 18.891,0.7293 18.603,0.7293 C18.315,0.7293 18.049,0.8863 17.911,1.1393 L16.624,3.4893 L14.274,4.7753 C14.021,4.9133 13.864,5.1793 13.864,5.4683 C13.864,5.7563 14.021,6.0233 14.274,6.1613 L16.624,7.4463 L17.911,9.7963 C18.049,10.0503 18.315,10.2073 18.603,10.2073 C18.891,10.2073 19.157,10.0503 19.296,9.7963 L20.581,7.4463 L22.932,6.1613 C23.185,6.0233 23.342,5.7563 23.342,5.4683 C23.342,5.1793 23.185,4.9133 22.932,4.7753" id="Fill-7" fill="#91BFE3"></path>
                <path d="M9.068,28.0492 L6.717,26.7632 L5.432,24.4142 C5.154,23.9062 4.324,23.9062 4.047,24.4142 L2.762,26.7632 L0.411,28.0492 C0.157,28.1872 0,28.4532 0,28.7422 C0,29.0302 0.157,29.2972 0.411,29.4342 L2.762,30.7202 L4.047,33.0702 C4.185,33.3232 4.451,33.4812 4.739,33.4812 C5.028,33.4812 5.293,33.3232 5.432,33.0702 L6.717,30.7202 L9.068,29.4342 C9.321,29.2972 9.478,29.0302 9.478,28.7422 C9.478,28.4532 9.321,28.1872 9.068,28.0492" id="Fill-9" fill="#91BFE3"></path>
                <path d="M80.8849,42.3441 C80.1409,27.1881 67.8699,14.7511 52.7149,13.8271 C35.2249,12.7381 20.6979,26.6111 20.6979,43.8691 C20.6979,51.6531 23.6469,58.7431 28.4939,64.0771 C32.7889,68.8221 35.4429,75.1381 35.6609,81.5231 L65.9729,81.5231 C66.2809,75.0991 68.9599,68.7581 73.2689,63.9361 C78.3459,58.2691 81.2949,50.6531 80.8849,42.3441" id="Fill-11" fill="#5495CF"></path>
                <path d="M68.473,47.7753 C62.831,54.8023 59.882,63.9443 59.946,74.2143 C59.946,75.0093 59.305,75.6633 58.51,75.6763 L58.497,75.6763 C57.702,75.6763 57.061,75.0353 57.061,74.2403 C56.997,65.3163 59.1,57.1743 63.152,50.3913 C60.728,50.5833 58.266,49.7503 56.561,48.2113 C55.099,49.6083 53.022,50.4173 50.817,50.4173 C48.586,50.4173 46.522,49.6083 45.06,48.2113 C43.342,49.7503 40.867,50.5833 38.469,50.3913 C42.521,57.1873 44.611,65.3163 44.56,74.2403 C44.547,75.0353 43.906,75.6763 43.111,75.6763 C42.316,75.6633 41.675,75.0223 41.675,74.2403 L41.675,74.2143 C41.739,63.9443 38.79,54.8023 33.148,47.7753 C32.648,47.1603 32.738,46.2623 33.353,45.7623 C33.956,45.2623 34.853,45.3393 35.366,45.9423 C36.238,46.9553 37.623,47.5313 39.187,47.5313 C41.123,47.5313 42.931,46.6343 43.893,45.1853 C44.162,44.7753 44.637,44.4933 45.124,44.5443 C45.624,44.5443 46.086,44.8133 46.329,45.2363 C47.175,46.6603 48.894,47.5313 50.817,47.5313 C52.727,47.5313 54.446,46.6473 55.292,45.2363 C55.548,44.8133 56.01,44.5443 56.51,44.5313 C56.946,44.5313 57.459,44.7753 57.741,45.1853 C58.69,46.6343 60.485,47.5313 62.434,47.5313 C63.998,47.5313 65.396,46.9553 66.255,45.9423 C66.768,45.3393 67.665,45.2623 68.281,45.7623 C68.883,46.2623 68.973,47.1603 68.473,47.7753" id="Fill-13" fill="#91BFE3"></path>
                <path d="M65.7741,86.9193 C65.4651,86.7913 65.1311,86.7263 64.7711,86.7263 L64.7841,86.7263 C65.1951,86.7263 65.5941,86.6363 65.9411,86.4693 C66.2371,86.3403 66.5071,86.1473 66.7391,85.9163 C67.2411,85.4143 67.5491,84.7193 67.5491,83.9613 C67.5491,82.8413 66.8931,81.8893 65.9411,81.4523 C65.5941,81.2853 65.1951,81.1943 64.7841,81.1943 L36.8561,81.1943 C36.4311,81.1943 36.0331,81.2853 35.6721,81.4653 C35.3891,81.5933 35.1191,81.7863 34.9001,82.0053 C34.3991,82.5073 34.0901,83.2013 34.0901,83.9613 C34.0901,85.0543 34.7331,86.0193 35.6721,86.4563 C36.0331,86.6363 36.4311,86.7263 36.8561,86.7263 L36.8431,86.7263 C36.4701,86.7263 36.1101,86.8033 35.7881,86.9453 C35.4411,87.0733 35.1451,87.2793 34.8881,87.5373 C34.3861,88.0253 34.0771,88.7203 34.0771,89.4793 C34.0771,91.0103 35.3121,92.2453 36.8431,92.2453 L39.4411,92.2453 C42.2721,95.4743 46.4521,97.4933 51.0961,97.4033 C55.4571,97.3263 59.3161,95.3193 62.0181,92.2453 L64.7711,92.2453 C65.5431,92.2453 66.2241,91.9363 66.7261,91.4343 C67.2281,90.9333 67.5361,90.2383 67.5361,89.4793 C67.5361,88.3093 66.8031,87.3183 65.7741,86.9193" id="Fill-15" fill="#2167AE"></path>
            </g>
        </g>
    </g>
</svg>