<?xml version="1.0" encoding="UTF-8"?>
<svg width="140px" height="140px" viewBox="0 0 140 140" version="1.1" xmlns="http://www.w3.org/2000/svg" xmlns:xlink="http://www.w3.org/1999/xlink">
    <title>pictogram/dark/environment/disaster/catastrophe</title>
    <g id="pictogram/dark/environment/disaster/catastrophe" stroke="none" stroke-width="1" fill="none" fill-rule="evenodd">
        <g id="catastrophe" transform="translate(0.000000, 0.000000)">
            <path d="M140,70 C140,108.66 108.66,140 70,140 C31.34,140 0,108.66 0,70 C0,31.34 31.34,0 70,0 C108.66,0 140,31.34 140,70" id="circle" fill="#91BFE3"></path>
            <g id="picto" transform="translate(29.930161, 15.813617)">
                <path d="M89.2124393,39.0518828 C91.6434393,33.3328828 76.4084393,21.3828828 55.1844393,12.3608828 C33.9604393,3.33888276 14.7834393,0.660882755 12.3524393,6.37888276 C9.92143926,12.0978828 25.1564393,24.0478828 46.3804393,33.0698828 C67.6054393,42.0928828 86.7814393,44.7708828 89.2124393,39.0518828" id="Fill-3" fill="#DAD2BD"></path>
                <path d="M46.3808393,33.0700828 C25.1558393,24.0480828 9.92183926,12.0980828 12.3528393,6.37908276 C14.7828393,0.660082755 33.9598393,3.33908276 55.1838393,12.3610828 C76.4078393,21.3830828 91.6428393,33.3330828 89.2128393,39.0520828 C86.7808393,44.7700828 67.6048393,42.0920828 46.3808393,33.0700828 L46.3808393,33.0700828 Z M66.3888393,119.034083 C67.1838393,118.711083 67.9778393,118.388083 68.7568393,118.037083 C72.6398393,111.787083 75.2778393,105.953083 75.2778393,105.953083 L75.2768393,105.953083 C81.3488393,94.8540828 84.5868393,81.6510828 77.8858393,68.9510828 C67.8128393,49.8630828 75.1568393,47.7260828 83.3638393,46.7590828 C89.8278393,47.0210828 94.3048393,45.7500828 95.6298393,42.7920828 C98.6558393,36.0310828 84.1658393,22.8670828 62.6908393,12.4270828 C56.6668393,9.29208276 50.2028393,6.58108276 43.6388393,4.67808276 C26.6218393,-0.895917245 12.7278393,-1.66591724 9.35283926,3.32608276 C8.27383926,4.34408276 7.98483926,5.21308276 7.98483926,5.21308276 C7.98483926,5.21308276 -14.7431607,51.9920828 16.4908393,83.7700828 L66.3888393,119.034083 Z" id="Fill-5" fill="#ECEEEF"></path>
                <path d="M29.9257393,94.2850828 L18.1517393,94.2800828 L18.1517393,120.669083 C22.9347393,122.246083 27.9397393,123.333083 33.1167393,123.844083 L33.1167393,111.902083 C33.1167393,102.249083 42.5787393,102.496083 42.5787393,102.496083 C42.5787393,102.496083 42.7677393,102.493083 43.0847393,102.510083 C44.8247393,102.609083 50.5627393,103.392083 51.8017393,109.424083 C51.9547393,110.168083 52.0397393,110.990083 52.0397393,111.902083 L52.0397393,123.150083 C53.3007393,122.931083 54.5507393,122.680083 55.7877393,122.395083 C59.4417393,121.556083 62.9787393,120.420083 66.3887393,119.034083 L66.3887393,94.3030828 L29.9257393,94.2850828 Z" id="Fill-7" fill="#2167AE"></path>
                <polygon id="Fill-9" fill="#2167AE" points="51.2768393 75.5903828 58.4008393 75.5903828 58.4008393 70.7053828 51.2768393 70.7053828"></polygon>
                <path d="M70.9409393,92.0589828 C69.9409393,89.4309828 65.4639393,77.9309828 65.4639393,77.9309828 C65.4639393,77.9309828 65.0569393,75.5909828 61.7999393,75.5909828 L58.3999393,75.5909828 L51.2769393,75.5909828 L42.8809393,75.5909828 L42.2609393,75.5909828 L22.4249393,75.5909828 C19.1689393,75.5909828 18.7619393,77.9309828 18.7619393,77.9309828 C18.7619393,77.9309828 17.6969393,80.6649828 16.4909393,83.7699828 C15.2229393,87.0359828 13.7969393,90.7119828 13.2849393,92.0589828 C12.2849393,94.6859828 15.5049393,94.2799828 15.5049393,94.2799828 L18.1509393,94.2799828 L29.9169393,94.2799828 L42.2609393,94.2799828 L42.8809393,94.2799828 L68.7199393,94.2799828 C68.7199393,94.2799828 71.9409393,94.6859828 70.9409393,92.0589828" id="Fill-11" fill="#23366F"></path>
                <path d="M59.1958393,70.7057828 C59.5148393,70.7057828 59.7748393,70.4467828 59.7748393,70.1267828 L59.7748393,69.4017828 C59.7748393,69.0817828 59.5148393,68.8227828 59.1958393,68.8227828 L50.5838393,68.8227828 C50.2638393,68.8227828 50.0048393,69.0817828 50.0048393,69.4017828 L50.0048393,70.1267828 C50.0048393,70.4467828 50.2638393,70.7057828 50.5838393,70.7057828 L51.2768393,70.7057828 L58.4008393,70.7057828 L59.1958393,70.7057828 Z" id="Fill-12" fill="#23366F"></path>
                <path d="M51.8022393,109.424283 C50.5632393,103.392283 44.8242393,102.609283 43.0842393,102.510283 C42.7672393,102.492283 42.5782393,102.496283 42.5782393,102.496283 C42.5782393,102.496283 33.1172393,102.249283 33.1172393,111.902283 L33.1172393,123.843283 C35.4052393,124.069283 37.7232393,124.189283 40.0702393,124.189283 C44.1532393,124.189283 48.1502393,123.827283 52.0402393,123.150283 L52.0402393,111.902283 C52.0402393,110.990283 51.9552393,110.168283 51.8022393,109.424283" id="Fill-13" fill="#DAD2BD"></path>
            </g>
        </g>
    </g>
</svg>