<?xml version="1.0" encoding="UTF-8"?>
<svg width="140px" height="140px" viewBox="0 0 140 140" version="1.1" xmlns="http://www.w3.org/2000/svg" xmlns:xlink="http://www.w3.org/1999/xlink">
    <title>pictogram/dark/environment/disaster/fire-house</title>
    <g id="pictogram/dark/environment/disaster/fire-house" stroke="none" stroke-width="1" fill="none" fill-rule="evenodd">
        <g id="fire-house">
            <path d="M140,70 C140,108.66 108.66,140 70,140 C31.34,140 0,108.66 0,70 C0,31.34 31.34,0 70,0 C108.66,0 140,31.34 140,70" id="circle" fill="#91BFE3"></path>
            <g id="picto" transform="translate(32.748167, 20.105754)">
                <path d="M74.0604334,56.6462465 C72.7814334,53.2822465 67.0484334,38.5592465 67.0484334,38.5592465 C67.0484334,38.5592465 66.5274334,35.5632465 62.3574334,35.5632465 L38.1364334,35.5632465 L37.3424334,35.5632465 L11.9484334,35.5632465 C7.77943343,35.5632465 7.25843343,38.5592465 7.25843343,38.5592465 C7.25843343,38.5592465 1.52543343,53.2822465 0.246433428,56.6462465 C-1.03356657,60.0102465 3.08943343,59.4892465 3.08943343,59.4892465 L37.3424334,59.4892465 L38.1364334,59.4892465 L71.2174334,59.4892465 C71.2174334,59.4892465 75.3404334,60.0102465 74.0604334,56.6462465" id="Fill-4" fill="#23366F"></path>
                <polygon id="Fill-6" fill="#5495CF" points="6.47643343 59.4892465 6.47643343 99.7942465 68.2324334 99.7942465 68.2324334 59.5182465"></polygon>
                <path d="M37.3548334,67.8361465 C37.3548334,67.8361465 22.8038334,67.4561465 22.8038334,82.3001465 L22.8038334,99.7941465 L37.3548334,99.7941465 L51.9058334,99.7941465 L51.9058334,82.3001465 C51.9058334,67.4561465 37.3548334,67.8361465 37.3548334,67.8361465" id="Fill-8" fill="#DAD2BD"></path>
                <path d="M47.8328334,14.1584465 L47.8328334,14.1584465 C44.5228334,11.2844465 43.2488334,6.69944646 44.3388334,1.57744646 C44.4518334,1.04744646 44.2178334,0.509446455 43.7648334,0.212446455 C43.3118334,-0.0855535447 42.7118334,-0.0665535447 42.2718334,0.247446455 C39.8678334,1.96144646 36.9538334,4.03744646 32.4858334,10.0744465 C32.5208334,8.86144646 32.6628334,7.41444646 33.0198334,5.85644646 C33.1498334,5.28444646 32.8858334,4.69544646 32.3728334,4.41244646 C31.8588334,4.12944646 31.2198334,4.22044646 30.8058334,4.63744646 C27.0868334,8.38444646 25.4798334,11.2574465 25.4318334,11.3454465 C20.1618334,20.2834465 19.0198334,33.6714465 27.2758334,40.8694465 C30.1638334,43.4344465 33.4568334,44.7614465 36.8918334,44.7614465 C37.4928334,44.7604465 38.0998334,44.7204465 38.7078334,44.6384465 C43.2188334,44.0314465 47.4038334,41.2294465 50.1928334,36.9484465 C55.2538334,29.1284465 54.2838334,19.7564465 47.8328334,14.1584465" id="Fill-10" fill="#2167AE"></path>
                <path d="M43.0706334,27.7927465 C42.5296334,27.1817465 41.8286334,26.6877465 41.0866334,26.1657465 C39.3086334,24.9127465 38.2386334,24.0387465 38.3726334,22.4507465 C38.4166334,21.9397465 38.1596334,21.4517465 37.7146334,21.1977465 C37.2696334,20.9447465 36.7186334,20.9727465 36.3006334,21.2697465 C34.2996334,22.6967465 33.0506334,24.0817465 31.6936334,26.3797465 C29.2476334,30.5247465 28.6796334,36.7007465 32.4396334,39.9847465 C33.9136334,41.2927465 35.7046334,41.9837465 37.5696334,41.9837465 C37.9066334,41.9837465 38.2476334,41.9607465 38.5896334,41.9157465 C40.8146334,41.6167465 42.7856334,40.3777465 43.9996334,38.5137465 C46.2616334,35.0177465 45.9146334,31.0097465 43.0706334,27.7927465" id="Fill-12" fill="#DAD2BD"></path>
            </g>
        </g>
    </g>
</svg>