<?xml version="1.0" encoding="UTF-8"?>
<svg width="140px" height="140px" viewBox="0 0 140 140" version="1.1" xmlns="http://www.w3.org/2000/svg" xmlns:xlink="http://www.w3.org/1999/xlink">
    <title>pictogram/dark/environment/disaster/flood</title>
    <g id="pictogram/dark/environment/disaster/flood" stroke="none" stroke-width="1" fill="none" fill-rule="evenodd">
        <g id="flood" transform="translate(0.000000, -0.000100)">
            <path d="M140,70 C140,108.66 108.66,140 70,140 C31.34,140 0,108.66 0,70 C0,31.34 31.34,0 70,0 C108.66,0 140,31.34 140,70" id="circle" fill="#91BFE3"></path>
            <g id="picto" transform="translate(0.000000, 0.000100)">
                <g id="Group-14" transform="translate(34.012329, 47.977900)">
                    <polygon id="Fill-4" fill="#5495CF" points="6.317671 31.7895 6.317671 71.1045 66.555671 71.1045 66.555671 31.8185"></polygon>
                    <path d="M35.592571,38.9355 C35.592571,38.9355 26.028571,38.6855 26.028571,48.4425 L26.028571,68.2185 L35.592571,68.2185 L45.156571,68.2185 L45.156571,48.4425 C45.156571,38.6855 35.592571,38.9355 35.592571,38.9355" id="Fill-6" fill="#DAD2BD"></path>
                    <path d="M47.683871,2.351 L47.683871,10.294 C47.683871,10.294 56.579871,10.612 56.579871,10.294 L56.579871,2.351 L47.683871,2.351 Z" id="Fill-8" fill="#5495CF"></path>
                    <path d="M72.240571,29.0163 C70.991571,25.7343 65.400571,11.3743 65.400571,11.3743 C65.400571,11.3743 64.891571,8.4513 60.825571,8.4513 L37.198571,8.4513 L36.425571,8.4513 L11.655571,8.4513 C7.588571,8.4513 7.079571,11.3743 7.079571,11.3743 C7.079571,11.3743 1.488571,25.7343 0.240570996,29.0163 C-1.008429,32.2983 3.012571,31.7893 3.012571,31.7893 L36.425571,31.7893 L37.198571,31.7893 L69.467571,31.7893 C69.467571,31.7893 73.488571,32.2983 72.240571,29.0163" id="Fill-10" fill="#23366F"></path>
                    <path d="M57.572571,2.351 L46.817571,2.351 C46.418571,2.351 46.094571,2.027 46.094571,1.628 L46.094571,0.723 C46.094571,0.323 46.418571,0 46.817571,0 L57.572571,0 C57.971571,0 58.295571,0.323 58.295571,0.723 L58.295571,1.628 C58.295571,2.027 57.971571,2.351 57.572571,2.351" id="Fill-12" fill="#23366F"></path>
                </g>
                <g id="Group-17" fill="#23366F">
                    <path d="M98.3769,113.3982 C93.1919,110.7582 89.6039,105.2732 89.5859,98.9262 C89.5839,98.1222 89.1349,97.3592 88.3799,97.0842 C87.0169,96.5872 85.7379,97.5832 85.7379,98.8782 C85.7379,107.8112 78.6869,115.0802 70.0179,115.0802 C61.4819,115.0802 54.5149,108.0322 54.3019,99.2882 C54.3039,99.1922 54.3049,99.0952 54.3059,98.9992 C54.3119,98.0282 53.6419,97.1282 52.6829,96.9792 C51.4829,96.7922 50.4499,97.7142 50.4499,98.8782 C50.4499,99.0152 50.4509,99.1512 50.4539,99.2882 C50.3049,105.4092 46.8399,110.6892 41.8509,113.3112 C39.9749,114.1902 32.1009,116.9932 13.8479,113.0772 C26.9199,129.7212 47.2119,140.4262 70.0179,140.4262 C92.8229,140.4262 113.1159,129.7212 126.1879,113.0762 C108.5019,116.8712 100.5599,114.3582 98.3769,113.3982" id="Fill-15"></path>
                </g>
            </g>
        </g>
    </g>
</svg>