<?xml version="1.0" encoding="UTF-8"?>
<svg width="140px" height="140px" viewBox="0 0 140 140" version="1.1" xmlns="http://www.w3.org/2000/svg" xmlns:xlink="http://www.w3.org/1999/xlink">
    <title>pictogram/dark/environment/disaster/volcano</title>
    <g id="pictogram/dark/environment/disaster/volcano" stroke="none" stroke-width="1" fill="none" fill-rule="evenodd">
        <g id="volcano">
            <path d="M140,70 C140,108.66 108.66,140 70,140 C31.34,140 0,108.66 0,70 C0,31.34 31.34,0 70,0 C108.66,0 140,31.34 140,70" id="circle" fill="#91BFE3"></path>
            <g id="picto" transform="translate(37.726683, 20.705500)">
                <path d="M14.5438173,61.4375 L20.0518173,48.6995 L19.4208173,59.2695 C19.4208173,59.2695 17.0968173,62.0925 14.5438173,61.4375" id="Fill-4" fill="#2167AE"></path>
                <path d="M49.9964173,61.4408 L44.5004173,48.6998 L45.0864173,59.2498 C45.0864173,59.2498 47.4434173,62.0958 49.9964173,61.4408" id="Fill-6" fill="#2167AE"></path>
                <path d="M50.2513173,26.254 C52.6983173,24.694 54.3263173,21.963 54.3263173,18.847 C54.3263173,13.994 50.3923173,10.061 45.5403173,10.061 C44.3953173,10.061 43.3043173,10.287 42.3013173,10.685 C41.3933173,6.098 37.3513173,2.639 32.4973173,2.639 C30.4053173,2.639 28.4653173,3.283 26.8603173,4.381 C26.4773173,1.902 24.3533173,0 21.7663173,0 C18.9093173,0 16.5923173,2.316 16.5923173,5.173 C16.5923173,6.34 16.9933173,7.405 17.6453173,8.271 C13.7643173,8.678 10.7383173,11.959 10.7383173,15.948 C10.7383173,17.032 10.9643173,18.063 11.3683173,19 C8.07431725,20.267 5.73231725,23.453 5.73231725,27.193 C5.73231725,32.046 9.66631725,35.979 14.5193173,35.979 C16.1383173,35.979 17.6503173,35.533 18.9523173,34.769 C19.1333173,34.699 19.3443173,34.569 19.5913173,34.364 C19.7033173,34.271 19.8123173,34.195 19.9223173,34.111 C19.9903173,34.058 20.0613173,34.009 20.1273173,33.954 C23.3823173,31.583 25.8833173,32.699 26.2613173,32.894 C28.8603173,34.685 29.0983173,38.123 29.2863173,38.311 L29.3383173,51.474 L36.7543173,51.474 L36.7543173,38.99 C36.7543173,36.946 37.3913173,35.476 38.1913173,34.431 C38.2663173,34.354 41.0263173,31.565 44.5663173,34.745 C44.6933173,34.859 44.7993173,34.935 44.8953173,34.993 C45.7713173,35.673 46.8573173,36.095 48.0523173,36.095 C50.9103173,36.095 53.2263173,33.778 53.2263173,30.921 C53.2263173,28.853 52.0043173,27.082 50.2513173,26.254" id="Fill-8" fill="#ECEEEF"></path>
                <path d="M63.9330173,93.8066 L44.3690173,48.3966 C44.3340173,48.3166 44.2910173,48.2396 44.2410173,48.1666 C43.8860173,47.6566 43.6380173,47.2276 43.4190173,46.8496 C42.7880173,45.7636 42.1930173,44.7366 40.2960173,44.7366 L24.2500173,44.7366 C22.3540173,44.7366 21.7590173,45.7636 21.1280173,46.8496 C20.9090173,47.2276 20.6610173,47.6566 20.3060173,48.1666 C20.2550173,48.2396 20.2120173,48.3166 20.1780173,48.3966 L0.614017251,93.8066 C-0.261982749,95.2806 -0.0419827491,96.3206 0.303017251,96.9376 C0.924017251,98.0496 2.34601725,98.5896 4.65101725,98.5896 L59.8950173,98.5896 C62.2010173,98.5896 63.6230173,98.0496 64.2440173,96.9376 C64.5880173,96.3206 64.8080173,95.2806 63.9330173,93.8066" id="Fill-10" fill="#DAD2BD"></path>
                <path d="M48.4134173,57.8305 C48.3954173,57.7385 48.3674173,57.6485 48.3304173,57.5625 L44.3534173,48.3475 L44.1814173,47.9875 C43.1764173,45.8915 42.6224173,44.7365 40.3034173,44.7365 L32.4164173,44.7365 C32.3694173,44.7365 32.3224173,44.7395 32.2764173,44.7445 C32.2304173,44.7395 32.1844173,44.7365 32.1364173,44.7365 L24.2504173,44.7365 C21.9304173,44.7365 21.3774173,45.8915 20.3724173,47.9875 L16.2234173,57.5625 C16.1854173,57.6485 16.1584173,57.7385 16.1404173,57.8305 C15.9094173,59.0075 16.2654173,59.8985 17.0924173,60.2155 C18.3684173,60.7045 19.4914173,59.9265 23.1364173,53.8175 C23.9414173,52.4685 25.0204173,52.2685 25.7644173,52.5305 C26.4644173,52.7775 27.1424173,53.5315 26.9474173,54.9095 C26.5954173,57.3965 26.8984173,59.0765 27.9034173,60.1955 C28.9444173,61.3555 30.4424173,61.5525 31.5734173,61.5515038 C31.7014173,61.5515038 31.8244173,61.5495 31.9424173,61.5455 L32.5684173,61.5445 C33.7594173,61.5835 35.4914173,61.4875 36.6504173,60.1955 C37.6544173,59.0765 37.9584173,57.3965 37.6054173,54.9095 C37.4114173,53.5315 38.0894173,52.7775 38.7884173,52.5305 C39.5324173,52.2685 40.6124173,52.4685 41.4164173,53.8165 C45.0614173,59.9235 46.1824173,60.7055 47.4604173,60.2155 C48.2884173,59.8985 48.6444173,59.0075 48.4134173,57.8305" id="Fill-12" fill="#2167AE"></path>
            </g>
        </g>
    </g>
</svg>