<?xml version="1.0" encoding="UTF-8"?>
<svg width="140px" height="140px" viewBox="0 0 140 140" version="1.1" xmlns="http://www.w3.org/2000/svg" xmlns:xlink="http://www.w3.org/1999/xlink">
    <title>pictogram/dark/environment/disaster/wildfire</title>
    <g id="pictogram/dark/environment/disaster/wildfire" stroke="none" stroke-width="1" fill="none" fill-rule="evenodd">
        <g id="wildfire">
            <path d="M140,70 C140,108.66 108.66,140 70,140 C31.34,140 0,108.66 0,70 C0,31.34 31.34,0 70,0 C108.66,0 140,31.34 140,70" id="circle" fill="#91BFE3"></path>
            <g id="picto" transform="translate(35.629479, 9.782858)">
                <path d="M58.0555209,18.1019418 C58.3915209,16.8309418 58.5585209,15.4899418 58.5305209,14.1069418 C58.3735209,6.46594179 52.1805209,0.221941793 44.5415209,0.00594179289 C41.5445209,-0.0790582071 38.7455209,0.751941793 36.4065209,2.23994179 C35.0205209,3.11994179 33.2665209,3.11994179 31.8815209,2.23994179 C29.5405209,0.751941793 26.7425209,-0.0790582071 23.7435209,0.00594179289 C16.0845209,0.222941793 9.88452089,6.49994179 9.75552089,14.1619418 C9.73152089,15.5849418 9.91452089,16.9619418 10.2755209,18.2659418 C10.7235209,19.8829418 9.90952089,21.5689418 8.38652089,22.2709418 C3.31152089,24.6089418 -0.171479114,29.8099418 0.00652088572,35.8029418 C0.231520886,43.3889418 6.40752089,49.5549418 13.9935209,49.7679418 C17.1695209,49.8579418 31.3405209,49.7739418 34.3705209,49.7739418 C37.4005209,49.7739418 51.3325209,49.7799418 54.3605209,49.7739418 C62.1495209,49.7579418 68.5785209,43.4529418 68.7375209,35.6659418 C68.8615209,29.6039418 65.2405209,24.3719418 60.0295209,22.1259418 C58.4635209,21.4509418 57.6195209,19.7499418 58.0555209,18.1019418" id="Fill-3" fill="#2167AE"></path>
                <path d="M25.8715209,122.290342 L25.8715209,72.6883418 C25.8715209,70.0673418 25.3225209,67.4763418 24.2605209,65.0813418 L17.4845209,49.8093418 L22.8665209,49.8093418 L26.3565209,57.5813418 C26.5055209,57.9133418 27.0065209,57.7553418 26.9385209,57.3973418 L22.9215209,37.2903418 L28.8865209,37.2903418 L33.5465209,60.0993418 C33.7015209,60.8603418 34.7665209,60.9173418 35.0015209,60.1773418 L38.2995209,49.8093418 L43.6135209,49.8093418 L40.7785209,58.8023418 C40.5185209,59.6243418 41.6385209,60.1483418 42.1045209,59.4233418 L51.2105209,45.2483418 L53.7235209,45.2483418 L41.9605209,63.5863418 C40.0595209,66.5503418 39.0495209,69.9973418 39.0495209,73.5173418 L39.0495209,122.290342 L25.8715209,122.290342 Z" id="Fill-5" fill="#5495CF"></path>
                <path d="M47.7347209,90.0114418 C43.1907209,86.0674418 41.4387209,79.7904418 42.9277209,72.7914418 C43.0407209,72.2614418 42.8037209,71.7244418 42.3507209,71.4284418 C41.8987209,71.1304418 41.2967209,71.1504418 40.8557209,71.4654418 C37.5307209,73.8344418 33.4717209,76.7274418 27.0897209,85.5804418 C27.0587209,83.7054418 27.1937209,81.2194418 27.8177209,78.4974418 C27.9477209,77.9254418 27.6847209,77.3364418 27.1707209,77.0534418 C26.6567209,76.7704418 26.0177209,76.8624418 25.6037209,77.2784418 C20.7997209,82.1164418 18.6687209,85.8374418 18.4867209,86.1614418 C11.5487209,97.9414418 10.0297209,115.557442 20.8697209,125.011442 C24.6437209,128.362442 28.9407209,130.094442 33.4197209,130.094442 C34.2017209,130.094442 34.9907209,130.041442 35.7827209,129.934442 C41.5907209,129.154442 47.2057209,125.390442 50.8037209,119.865442 C57.4387209,109.614442 56.1767209,97.3384418 47.7347209,90.0114418" id="Fill-7" fill="#2167AE"></path>
                <path d="M41.3348209,108.173542 C40.6478209,107.395542 39.7318209,106.751542 38.7628209,106.068542 C36.3338209,104.358542 34.7558209,103.060542 34.9548209,100.712542 C34.9978209,100.202542 34.7408209,99.7135418 34.2958209,99.4595418 C33.8508209,99.2065418 33.2998209,99.2345418 32.8828209,99.5315418 C30.2658209,101.396542 28.6328209,103.209542 26.8558209,106.219542 C23.6798209,111.600542 22.9198209,119.600542 27.7638209,123.829542 C29.6488209,125.502542 31.9388209,126.387542 34.3228209,126.387542 C34.7538209,126.387542 35.1878209,126.358542 35.6238209,126.299542 C38.4668209,125.917542 40.9848209,124.335542 42.5348209,121.955542 C45.4418209,117.464542 44.9938209,112.311542 41.3348209,108.173542" id="Fill-9" fill="#DAD2BD"></path>
            </g>
        </g>
    </g>
</svg>