<?xml version="1.0" encoding="UTF-8"?>
<svg width="140px" height="140px" viewBox="0 0 140 140" version="1.1" xmlns="http://www.w3.org/2000/svg" xmlns:xlink="http://www.w3.org/1999/xlink">
    <title>pictogram/dark/business &amp; education/product/plain</title>
    <g id="pictogram/dark/business-&amp;-education/product/plain" stroke="none" stroke-width="1" fill="none" fill-rule="evenodd">
        <g id="product" transform="translate(-0.000000, 0.000000)">
            <path d="M140,70 C140,108.66 108.659,140 70,140 C31.34,140 0,108.66 0,70 C0,31.34 31.34,0 70,0 C108.659,0 140,31.34 140,70" id="circle" fill="#91BFE3"></path>
            <g id="picto" transform="translate(23.073700, 33.538800)">
                <path d="M39.8013,72.9226 L5.8943,72.9226 C4.3803,72.9226 3.1423,71.6846 3.1423,70.1706 L3.1423,39.3156 C3.1423,37.8026 4.3803,36.5646 5.8943,36.5646 L39.8013,36.5646 C41.3153,36.5646 42.5533,37.8026 42.5533,39.3156 L42.5533,70.1706 C42.5533,71.6846 41.3153,72.9226 39.8013,72.9226" id="Fill-4" fill="#DAD2BD"></path>
                <path d="M43.687,41.9508 L1.291,41.9508 C0.581,41.9508 0,41.3708 0,40.6608 L0,37.8538 C0,37.1448 0.581,36.5648 1.291,36.5648 L43.687,36.5648 C44.396,36.5648 44.977,37.1448 44.977,37.8538 L44.977,40.6608 C44.977,41.3708 44.396,41.9508 43.687,41.9508" id="Fill-6" fill="#ECEEEF"></path>
                <path d="M30.9819,51.491 L15.7189,51.491 C14.7299,51.491 13.9199,50.681 13.9199,49.691 C13.9199,48.701 14.7299,47.892 15.7189,47.892 L30.9819,47.892 C31.9709,47.892 32.7819,48.701 32.7819,49.691 C32.7819,50.681 31.9709,51.491 30.9819,51.491" id="Fill-8" fill="#C4BDAA"></path>
                <path d="M88.6753,72.9226 L54.7683,72.9226 C53.2553,72.9226 52.0173,71.6846 52.0173,70.1706 L52.0173,39.3156 C52.0173,37.8026 53.2553,36.5646 54.7683,36.5646 L88.6753,36.5646 C90.1893,36.5646 91.4273,37.8026 91.4273,39.3156 L91.4273,70.1706 C91.4273,71.6846 90.1893,72.9226 88.6753,72.9226" id="Fill-10" fill="#DAD2BD"></path>
                <path d="M92.561,41.9508 L50.165,41.9508 C49.456,41.9508 48.874,41.3708 48.874,40.6608 L48.874,37.8538 C48.874,37.1448 49.456,36.5648 50.165,36.5648 L92.561,36.5648 C93.271,36.5648 93.851,37.1448 93.851,37.8538 L93.851,40.6608 C93.851,41.3708 93.271,41.9508 92.561,41.9508" id="Fill-12" fill="#ECEEEF"></path>
                <path d="M79.8559,51.491 L64.5939,51.491 C63.6039,51.491 62.7939,50.681 62.7939,49.691 C62.7939,48.701 63.6039,47.892 64.5939,47.892 L79.8559,47.892 C80.8459,47.892 81.6559,48.701 81.6559,49.691 C81.6559,50.681 80.8459,51.491 79.8559,51.491" id="Fill-14" fill="#C4BDAA"></path>
                <path d="M64.1499,36.358 L30.2429,36.358 C28.7289,36.358 27.4909,35.12 27.4909,33.606 L27.4909,2.751 C27.4909,1.238 28.7289,-1.42108547e-14 30.2429,-1.42108547e-14 L64.1499,-1.42108547e-14 C65.6629,-1.42108547e-14 66.9009,1.238 66.9009,2.751 L66.9009,33.606 C66.9009,35.12 65.6629,36.358 64.1499,36.358" id="Fill-16" fill="#DAD2BD"></path>
                <path d="M68.0356,5.3862 L25.6386,5.3862 C24.9296,5.3862 24.3476,4.8062 24.3476,4.0962 L24.3476,1.2892 C24.3476,0.5802 24.9296,0.0002 25.6386,0.0002 L68.0356,0.0002 C68.7446,0.0002 69.3246,0.5802 69.3246,1.2892 L69.3246,4.0962 C69.3246,4.8062 68.7446,5.3862 68.0356,5.3862" id="Fill-18" fill="#ECEEEF"></path>
                <path d="M55.3296,14.9265 L40.0676,14.9265 C39.0776,14.9265 38.2676,14.1165 38.2676,13.1265 C38.2676,12.1365 39.0776,11.3265 40.0676,11.3265 L55.3296,11.3265 C56.3196,11.3265 57.1296,12.1365 57.1296,13.1265 C57.1296,14.1165 56.3196,14.9265 55.3296,14.9265" id="Fill-20" fill="#C4BDAA"></path>
            </g>
        </g>
    </g>
</svg>