<?xml version="1.0" encoding="UTF-8"?>
<svg width="140px" height="140px" viewBox="0 0 140 140" version="1.1" xmlns="http://www.w3.org/2000/svg" xmlns:xlink="http://www.w3.org/1999/xlink">
    <title>pictogram/dark/business &amp; education/suitcase/earth</title>
    <g id="pictogram/dark/business-&amp;-education/suitcase/earth" stroke="none" stroke-width="1" fill="none" fill-rule="evenodd">
        <g id="suitcase-earth">
            <path d="M139.719,69.859 C139.719,108.441 108.442,139.718 69.86,139.718 C31.277,139.718 0,108.441 0,69.859 C0,31.277 31.277,0 69.86,0 C108.442,0 139.719,31.277 139.719,69.859" id="circle" fill="#91BFE3"></path>
            <g id="picto" transform="translate(0.000400, 6.429500)">
                <path d="M131.2772,58.199 C133.7152,57.526 136.9062,55.673 139.0102,53.487 C135.6192,29.684 120.2312,9.75 99.1632,0 C99.0742,0.008 94.0572,2.463 91.9722,4.22 C90.5712,5.4 89.3262,6.757 89.8202,8.791 C90.2802,10.684 92.0662,10.325 93.3932,10.556 C95.1662,10.866 95.4442,11.756 94.8372,13.263 C94.0032,15.335 92.2462,16.358 90.3522,17.165 C88.4842,17.96 86.5052,18.505 84.6662,19.357 C83.4152,19.935 82.4672,20.74 83.1272,22.558 C84.5152,26.386 83.5672,27.556 79.3462,27.473 C77.5062,27.436 76.1082,27.83 75.9342,29.953 C75.7682,31.982 76.5072,33.416 78.6392,33.922 C80.7842,34.43 83.1892,33.31 84.6752,31.047 C85.4202,29.915 86.0332,28.668 86.9202,27.663 C89.4362,24.809 94.8592,25.53 96.5322,28.825 C97.0872,29.918 96.7482,32.13 98.6482,31.698 C100.1752,31.351 99.2342,29.488 99.3942,28.304 C99.5052,27.494 99.6522,26.714 100.6022,26.624 C101.6052,26.529 102.1872,27.217 102.4102,28.089 C102.6402,28.987 102.6902,29.93 102.8202,30.854 C103.0572,32.549 103.8412,33.171 105.3872,32.092 C106.0712,31.615 106.9132,31.201 107.4592,31.858 C109.2602,34.025 111.7092,34.034 114.1732,34.263 C115.5502,34.391 116.9962,34.911 117.0642,36.598 C117.1262,38.106 116.0292,39.045 114.7472,39.67 C112.9532,40.545 111.2892,39.8 109.6012,39.211 C107.1922,38.37 104.6342,37.246 102.3582,39.178 C100.7042,40.583 99.3262,40.34 97.7572,39.371 C96.0782,38.333 94.5502,37.144 93.7782,35.229 C93.2852,34.005 92.2602,33.171 91.0642,33.208 C86.5562,33.348 82.2482,34.579 78.0042,36.021 C77.7052,36.122 77.3732,36.394 77.2412,36.674 C75.2932,40.799 72.0802,44.034 69.5232,47.729 C69.1532,48.263 69.0492,48.995 68.8772,49.65 C67.7802,53.811 68.3002,57.917 69.5212,61.934 C71.1742,67.371 73.8532,69.188 79.5132,68.791 C81.1932,68.674 82.8502,68.23 84.5162,67.921 C90.0542,66.894 93.1682,69.352 93.3522,74.954 C93.4072,76.608 93.5842,78.333 94.6972,79.507 C97.3052,82.257 97.3712,85.156 95.9122,88.411 C94.9532,90.552 95.0862,92.669 96.3532,94.736 C97.2912,96.263 97.7752,97.968 97.9802,99.779 C98.2082,101.794 98.4852,103.828 99.0122,105.781 C100.1152,109.86 103.4942,110.816 106.7632,110.823 C108.7992,110.6 110.9582,109.894 112.3302,107.729 C115.1322,104.525 117.9782,101.367 117.8822,96.676 C117.8562,95.408 118.7142,94.486 119.8022,93.85 C123.0792,91.936 123.7502,88.98 123.1472,85.514 C122.9592,84.428 122.8062,83.334 122.5552,82.262 C121.9612,79.72 122.6332,77.561 124.4482,75.737 C126.4252,73.749 128.4802,71.835 130.3972,69.791 C132.2292,67.838 133.6812,65.612 133.5462,62.789 C133.4642,61.078 132.8682,59.793 130.6482,60.448 C129.0672,60.915 127.4132,61.132 125.1072,61.598 C127.0842,59.303 129.2252,58.766 131.2772,58.199" id="Fill-4" fill="#5495CF"></path>
                <path d="M21.5487,13.2845 C23.8147,12.8155 25.7647,11.5585 27.8957,10.7515 C28.4907,10.5265 29.1317,9.9625 29.7577,10.6505 C30.3447,11.2965 29.9017,11.8555 29.5707,12.4795 C27.7557,15.9055 25.5637,19.0925 23.0807,22.0375 C20.2417,25.4065 15.7327,24.0665 15.1497,20.1845 C15.1027,20.1755 15.0557,20.1725 15.0087,20.1635 C6.2417,31.2625 0.7737,45.0845 0.0777,60.1545 C0.1327,60.1825 0.1867,60.2135 0.2407,60.2415 C1.0617,59.9235 0.8687,59.1425 1.0497,58.5185 C1.8587,55.7245 3.4677,53.5925 6.4467,53.0455 C9.2817,52.5255 11.8927,52.9775 13.4527,55.8595 C13.6517,56.2245 13.9567,56.5435 14.2587,56.8365 C14.8367,57.3985 15.5827,57.8475 16.3127,57.3775 C17.3487,56.7115 16.3907,56.0835 16.0707,55.4755 C14.5177,52.5185 14.9777,49.6805 17.2647,47.6205 C20.8857,44.3585 23.0117,39.8405 26.7587,36.5915 C28.6237,34.9745 29.7897,32.7665 32.7187,33.0955 C33.6067,33.1945 34.4407,32.8785 34.6667,31.8525 C34.8607,30.9755 34.3747,30.4365 33.6467,30.0105 C32.8407,29.5385 31.8787,29.0205 32.3437,27.8655 C32.7707,26.8045 33.8537,26.9485 34.7777,26.9145 C35.2007,26.8995 35.6287,26.9485 36.0497,26.9145 C38.7367,26.6975 40.5517,24.3245 40.1807,21.5335 C39.6727,17.7035 37.4367,15.4305 34.6097,16.1195 C32.8357,16.5515 31.8027,15.8635 30.5687,14.4285 C31.2357,14.4285 31.5657,14.3845 31.8807,14.4355 C35.2777,14.9735 37.8677,13.9715 38.6087,11.8185 C39.4607,9.3355 38.1527,6.6335 35.2247,4.8685 C34.6577,4.5265 34.0117,4.2945 33.7017,3.6435 C29.2397,6.3475 25.1077,9.5395 21.3727,13.1415 C21.4327,13.1885 21.4857,13.2375 21.5487,13.2845" id="Fill-6" fill="#5495CF"></path>
                <path d="M58.915,81.7817 C57.639,81.1477 56.292,80.6867 54.825,80.4577 C51.841,79.9937 48.391,80.2197 46.259,77.7907 C43.955,75.1657 41.892,72.6737 37.973,73.1397 C37.769,73.1637 37.493,72.9457 37.318,72.7727 C33.96,69.4387 29.843,70.1737 25.799,70.6617 C23.712,70.9127 21.517,70.9287 19.767,72.3597 C17,74.6227 14.088,73.8407 12.775,70.4107 C12.337,69.2657 11.842,67.9697 10.579,67.8337 C7.958,67.5507 8.558,66.2087 9.256,64.6747 C9.637,63.8387 10.193,62.9767 9.152,62.1847 C8.09,61.3757 7.25,61.9697 6.421,62.6087 C6.221,62.7627 6.047,62.9537 5.87,63.1377 C2.723,66.4307 2.55,66.4297 0.222,63.0897 C0.146,63.0927 0.077,63.1007 0.004,63.1047 C0.003,63.2137 0,63.3207 0,63.4297 C0,65.9337 0.134,68.4057 0.392,70.8417 C0.439,70.8467 0.483,70.8537 0.531,70.8577 C4.973,71.0677 9.284,71.5577 12.676,74.9837 C13.749,76.0677 15.25,76.4467 16.867,76.5167 C19.269,76.6197 20.681,78.5857 19.619,80.4707 C16.733,85.5927 18.914,89.8947 21.542,94.1607 C22.856,96.2957 24.765,97.8937 26.907,99.1057 C31.58,101.7497 34.262,105.5137 34.949,110.9657 C35.539,115.6427 36.774,120.2387 37.724,124.8707 C37.751,125.0947 37.791,125.3127 37.834,125.5297 C41.271,127.3057 44.877,128.8037 48.618,129.9967 C48.568,129.8037 48.506,129.6027 48.426,129.3907 C47.566,126.6987 48.051,124.2547 49.561,121.8767 C51.364,119.0377 51.802,115.5107 54.107,112.8777 C54.901,111.9717 54.683,110.5947 54.632,109.4137 C54.528,107.0017 55.428,105.2747 57.469,103.8477 C61.35,101.1337 62.081,98.7977 60.761,94.2607 C60.254,92.5187 60.42,91.0207 61.307,89.4117 C63.026,86.2927 62.076,83.3517 58.915,81.7817" id="Fill-8" fill="#5495CF"></path>
                <path d="M82.2802,43.4818 C81.3392,43.4818 80.5762,42.7178 80.5762,41.7768 L80.5762,31.6148 C80.5762,31.2528 79.9762,30.7258 79.0372,30.7258 L59.5782,30.7258 C58.6382,30.7258 58.0392,31.2528 58.0392,31.6148 L58.0392,41.7768 C58.0392,42.7178 57.2762,43.4818 56.3352,43.4818 C55.3932,43.4818 54.6302,42.7178 54.6302,41.7768 L54.6302,31.6148 C54.6302,29.2448 56.8492,27.3148 59.5782,27.3148 L79.0372,27.3148 C81.7652,27.3148 83.9852,29.2448 83.9852,31.6148 L83.9852,41.7768 C83.9852,42.7178 83.2212,43.4818 82.2802,43.4818" id="Fill-10" fill="#DAD2BD"></path>
                <path d="M108.7626,61.1915 C108.0666,60.9585 107.2966,61.2025 106.8586,61.7925 C101.5416,68.9425 89.7336,72.7205 72.7096,72.7205 L65.8636,72.7205 C48.8806,72.7205 37.0856,68.9585 31.7536,61.8425 C31.3126,61.2545 30.5436,61.0175 29.8506,61.2475 C29.1546,61.4795 28.6846,62.1315 28.6846,62.8655 L28.6846,83.4645 C28.6846,90.1225 33.8136,95.5375 40.1176,95.5375 L98.4966,95.5375 C104.8016,95.5375 109.9306,90.1225 109.9306,83.4645 L109.9306,62.8095 C109.9306,62.0745 109.4596,61.4225 108.7626,61.1915" id="Fill-12" fill="#2167AE"></path>
                <path d="M98.497,40.288 L40.118,40.288 C33.813,40.288 28.684,45.704 28.684,52.361 L28.684,62.865 C28.684,63.234 28.805,63.592 29.024,63.887 C35.112,72.011 47.507,76.131 65.863,76.131 L72.71,76.131 C91.114,76.131 103.523,71.99 109.595,63.827 C109.813,63.533 109.931,63.175 109.931,62.809 L109.931,52.361 C109.931,45.704 104.802,40.288 98.497,40.288" id="Fill-14" fill="#DAD2BD"></path>
                <line x1="69.3075" y1="69.6388" x2="69.3075" y2="79.2318" id="Fill-16" fill="#91BFE3"></line>
                <path d="M69.3075,80.9372 C68.3665,80.9372 67.6035,80.1732 67.6035,79.2322 L67.6035,69.6392 C67.6035,68.6982 68.3665,67.9342 69.3075,67.9342 C70.2485,67.9342 71.0125,68.6982 71.0125,69.6392 L71.0125,79.2322 C71.0125,80.1732 70.2485,80.9372 69.3075,80.9372" id="Fill-18" fill="#91BFE3"></path>
            </g>
        </g>
    </g>
</svg>