<?xml version="1.0" encoding="UTF-8"?>
<svg width="140px" height="140px" viewBox="0 0 140 140" version="1.1" xmlns="http://www.w3.org/2000/svg" xmlns:xlink="http://www.w3.org/1999/xlink">
    <title>pictogram/light/business &amp; education/shop/protection</title>
    <g id="pictogram/light/business-&amp;-education/shop/protection" stroke="none" stroke-width="1" fill="none" fill-rule="evenodd">
        <g id="shop-protection" transform="translate(0.000000, 0.000000)">
            <path d="M140,70 C140,108.66 108.659,140 70,140 C31.34,140 0,108.66 0,70 C0,31.34 31.34,0 70,0 C108.659,0 140,31.34 140,70" id="circle" fill="#DDE4E3"></path>
            <g id="picto" transform="translate(22.337400, 15.392627)">
                <path d="M93.896,18.2414734 L48.581,0.192473366 C48.038,-0.0455266343 47.405,-0.0715266343 46.816,0.163473366 L1.428,18.2414734 C0.565,18.5854734 0,19.4204734 0,20.3494734 L0,58.0774734 C0,60.5724734 0.537,82.8114734 19.159,95.5624734 C28.751,102.132473 34.388,105.579473 38.501,108.095473 C41.408,109.872473 43.705,111.274473 46.231,113.065473 C46.664,113.370473 47.157,113.517473 47.661,113.478473 C47.701,113.482473 47.74,113.482473 47.781,113.482473 C48.18,113.482473 48.583,113.377473 48.948,113.159473 L50.348,112.319473 C55.854,109.024473 61.053,105.910473 76.165,95.5624734 C94.788,82.8114734 95.325,60.5724734 95.325,58.0774734 L95.325,20.3494734 C95.325,19.4204734 94.759,18.5854734 93.896,18.2414734" id="Fill-4" fill="#91BFE3"></path>
                <path d="M75.7818,40.2638734 L19.5438,40.2638734 C18.8528,40.2638734 18.2938,40.8238734 18.2938,41.5138734 L18.2938,78.9648734 C18.2938,79.6548734 18.8528,80.2148734 19.5438,80.2148734 L75.7818,80.2148734 C76.4718,80.2148734 77.0318,79.6548734 77.0318,78.9648734 L77.0318,41.5138734 C77.0318,40.8238734 76.4718,40.2638734 75.7818,40.2638734" id="Fill-6" fill="#5495CF"></path>
                <path d="M80.4673,41.5138734 L79.2183,41.5138734 L72.3453,41.5138734 L71.0943,41.5138734 L69.8453,41.5138734 L62.9723,41.5138734 L61.7223,41.5138734 L61.7213,41.5138734 L60.4723,41.5138734 L53.5993,41.5138734 L52.3493,41.5138734 L52.3483,41.5138734 L51.0993,41.5138734 L44.2263,41.5138734 L42.9763,41.5138734 L42.9753,41.5138734 L41.7263,41.5138734 L34.8533,41.5138734 L34.8523,41.5138734 L33.6033,41.5138734 L33.6023,41.5138734 L32.3533,41.5138734 L32.3523,41.5138734 L25.4803,41.5138734 L25.4793,41.5138734 L24.2303,41.5138734 L24.2293,41.5138734 L22.9803,41.5138734 L22.9793,41.5138734 L16.1073,41.5138734 L14.8573,41.5138734 L13.6073,41.5138734 C13.6073,44.7868734 16.2703,47.4508734 19.5433,47.4508734 C21.4483,47.4508734 23.1423,46.5448734 24.2293,45.1448734 C25.3163,46.5448734 27.0103,47.4508734 28.9153,47.4508734 C30.8213,47.4508734 32.5153,46.5438734 33.6023,45.1438734 C34.6893,46.5438734 36.3833,47.4508734 38.2893,47.4508734 C40.1953,47.4508734 41.8893,46.5438734 42.9763,45.1438734 C44.0633,46.5438734 45.7563,47.4508734 47.6623,47.4508734 C49.5683,47.4508734 51.2623,46.5438734 52.3493,45.1438734 C53.4363,46.5438734 55.1293,47.4508734 57.0353,47.4508734 C58.9413,47.4508734 60.6353,46.5438734 61.7223,45.1438734 C62.8093,46.5438734 64.5023,47.4508734 66.4083,47.4508734 C68.3143,47.4508734 70.0083,46.5438734 71.0953,45.1438734 C72.1823,46.5438734 73.8753,47.4508734 75.7813,47.4508734 C79.0553,47.4508734 81.7183,44.7868734 81.7183,41.5138734 L80.4673,41.5138734 Z" id="Fill-8" fill="#23366F"></path>
                <path d="M81.6538,41.0767734 L76.9668,27.0177734 C76.7978,26.5077734 76.3198,26.1627734 75.7818,26.1627734 L19.5438,26.1627734 C19.0058,26.1627734 18.5278,26.5077734 18.3578,27.0177734 L13.6718,41.0767734 C13.5448,41.4577734 13.6074445,41.8767734 13.8428,42.2027734 C14.0778,42.5287734 14.4558,42.7227734 14.8568,42.7227734 L80.4678,42.7227734 C80.8698,42.7227734 81.2478,42.5287734 81.4818,42.2027734 C81.7168,41.8767734 81.7808,41.4577734 81.6538,41.0767734" id="Fill-10" fill="#2167AE"></path>
                <path d="M39.9967,61.1928734 L39.9967,80.2088734 L47.6617,80.2088734 L55.3277,80.2088734 L55.3277,61.1928734 C55.3277,53.3728734 47.6617,53.5728734 47.6617,53.5728734 C47.6617,53.5728734 39.9967,53.3728734 39.9967,61.1928734 Z" id="Fill-12" fill="#ECEEEF"></path>
            </g>
        </g>
    </g>
</svg>