<?xml version="1.0" encoding="UTF-8"?>
<svg width="140px" height="140px" viewBox="0 0 140 140" version="1.1" xmlns="http://www.w3.org/2000/svg" xmlns:xlink="http://www.w3.org/1999/xlink">
    <title>pictogram/light/mobility/direction/cardinal</title>
    <g id="pictogram/light/mobility/direction/cardinal" stroke="none" stroke-width="1" fill="none" fill-rule="evenodd">
        <g id="direction-cardinal">
            <path d="M140,70 C140,108.66 108.66,140 70,140 C31.34,140 0,108.66 0,70 C0,31.34 31.34,0 70,0 C108.66,0 140,31.34 140,70" id="circle" fill="#DDE4E3"></path>
            <g id="picto" transform="translate(9.296100, 9.514400)">
                <polygon id="Fill-3" fill="#91BFE3" points="55.6187 12.672 55.6187 0 58.1927 0 64.2767 8.712 64.2767 0 66.6167 0 66.6167 12.672 64.2047 12.672 57.9767 3.78 57.9767 12.672"></polygon>
                <path d="M60.4389,120.9709 C59.3469,120.9709 58.4019,120.7909 57.6039,120.4309 C56.8059,120.0709 56.1789,119.5609 55.7229,118.9009 C55.2669,118.2409 55.0089,117.4609 54.9489,116.5609 L57.5229,116.5609 C57.5829,117.0649 57.7299,117.4879 57.9639,117.8299 C58.1979,118.1719 58.5219,118.4299 58.9359,118.6039 C59.3499,118.7779 59.8449,118.8649 60.4209,118.8649 C61.1889,118.8649 61.8159,118.7119 62.3019,118.4059 C62.7879,118.0999 63.0309,117.6589 63.0309,117.0829 C63.0309,116.7349 62.9259,116.4559 62.7159,116.2459 C62.5059,116.0359 62.1909,115.8649 61.7709,115.7329 C61.3509,115.6009 60.7329,115.4509 59.9169,115.2829 C58.9089,115.0669 58.0839,114.8209 57.4419,114.5449 C56.7999,114.2689 56.2989,113.8879 55.9389,113.4019 C55.5789,112.9159 55.3989,112.2949 55.3989,111.5389 C55.3989,110.7349 55.6059,110.0479 56.0199,109.4779 C56.4339,108.9079 57.0159,108.4729 57.7659,108.1729 C58.5159,107.8729 59.3709,107.7229 60.3309,107.7229 C61.3029,107.7229 62.1489,107.8909 62.8689,108.2269 C63.5889,108.5629 64.1499,109.0279 64.5519,109.6219 C64.9539,110.2159 65.1849,110.8429 65.2449,111.5029 L62.7429,111.5029 C62.6589,111.0109 62.4009,110.5999 61.9689,110.2699 C61.5369,109.9399 60.9729,109.7749 60.2769,109.7749 C59.5689,109.7749 58.9989,109.9159 58.5669,110.1979 C58.1349,110.4799 57.9189,110.8609 57.9189,111.3409 C57.9189,111.6529 58.0209,111.9019 58.2249,112.0879 C58.4289,112.2739 58.7289,112.4329 59.1249,112.5649 C59.5209,112.6969 60.0909,112.8409 60.8349,112.9969 C61.9029,113.2129 62.7699,113.4649 63.4359,113.7529 C64.1019,114.0409 64.6239,114.4399 65.0019,114.9499 C65.3799,115.4599 65.5689,116.1289 65.5689,116.9569 C65.5689,117.7609 65.3499,118.4659 64.9119,119.0719 C64.4739,119.6779 63.8679,120.1459 63.0939,120.4759 C62.3199,120.8059 61.4349,120.9709 60.4389,120.9709" id="Fill-4" fill="#91BFE3"></path>
                <polygon id="Fill-6" fill="#91BFE3" points="112.2817 66.589 112.2817 53.917 121.4077 53.917 121.4077 55.987 114.6397 55.987 114.6397 59.101 120.6517 59.101 120.6517 61.081 114.6397 61.081 114.6397 64.519 121.4077 64.519 121.4077 66.589"></polygon>
                <polygon id="Fill-8" fill="#91BFE3" points="3.384 67.0285 0 54.3565 2.466 54.3565 4.824 63.6985 7.434 54.3565 9.684 54.3565 12.258 63.7525 14.634 54.3565 17.064 54.3565 13.716 67.0285 11.016 67.0285 8.55 58.0105 6.084 67.0285"></polygon>
                <path d="M91.7244,83.9469 L66.6804,32.5599 C65.6394,30.3039 63.3964,28.8349 60.8274,28.7239 C60.7974,28.72315 60.7674,28.72315 60.7374,28.7239 C58.1724,28.8339 55.9324,30.2999 54.8904,32.5489 L29.8424,83.9429 C28.5944,86.4799 28.8074,89.1759 30.3864,90.8139 C31.9604,92.4449 34.4474,92.6709 37.2104,91.4319 C43.7354,88.5079 58.0184,81.4319 60.7814,80.0599 C63.5454,81.4319 77.8294,88.5079 84.3544,91.4319 C85.5334,91.9609 86.6614,92.2229 87.6904,92.2229 C89.0734,92.2229 90.2754,91.7489 91.1784,90.8139 C92.7574,89.1759 92.9714,86.4789 91.7244,83.9469" id="Fill-10" fill="#2167AE"></path>
            </g>
        </g>
    </g>
</svg>