<?xml version="1.0" encoding="UTF-8"?>
<svg width="140px" height="140px" viewBox="0 0 140 140" version="1.1" xmlns="http://www.w3.org/2000/svg" xmlns:xlink="http://www.w3.org/1999/xlink">
    <title>pictogram/dark/business &amp; education/career/analysis</title>
    <g id="pictogram/dark/business-&amp;-education/career/analysis" stroke="none" stroke-width="1" fill="none" fill-rule="evenodd">
        <g id="career-analysis" transform="translate(-0.000000, 0.000000)">
            <path d="M140,70 C140,108.66 108.659,140 70,140 C31.34,140 0,108.66 0,70 C0,31.34 31.34,0 70,0 C108.659,0 140,31.34 140,70" id="circle" fill="#91BFE3"></path>
            <g id="picto" transform="translate(19.974300, 25.845200)">
                <path d="M81.5843,67.0974 C81.0273,66.9114 80.4123,67.1064 80.0613,67.5774 C75.8093,73.2974 66.3633,76.3184 52.7463,76.3184 L47.2713,76.3184 C33.6873,76.3184 24.2513,73.3104 19.9863,67.6184 C19.6333,67.1484 19.0193,66.9584 18.4643,67.1424 C17.9073,67.3274 17.5313,67.8494 17.5313,68.4364 L17.5313,84.9134 C17.5313,90.2384 21.6343,94.5704 26.6773,94.5704 L73.3733,94.5704 C78.4163,94.5704 82.5193,90.2384 82.5193,84.9134 L82.5193,68.3914 C82.5193,67.8034 82.1423,67.2814 81.5843,67.0974" id="Fill-4" fill="#23366F"></path>
                <path d="M41.0121,50.377 L41.0121,43.44 C41.0121,43.15 41.4911,42.729 42.2421,42.729 L57.8081,42.729 C58.5591,42.729 59.0381,43.15 59.0381,43.44 L59.0381,50.377 L41.0121,50.377 Z M73.3731,50.377 L61.7661,50.377 L61.7661,43.44 C61.7661,41.544 59.9911,40.001 57.8081,40.001 L42.2421,40.001 C40.0611,40.001 38.2851,41.544 38.2851,43.44 L38.2851,50.377 L26.6771,50.377 C21.6341,50.377 17.5321,54.709 17.5321,60.034 L17.5321,68.436 C17.5321,68.731 17.6271,69.018 17.8041,69.254 C22.6731,75.752 32.5871,79.047 47.2711,79.047 L52.7461,79.047 C67.4681,79.047 77.3941,75.735 82.2501,69.205 C82.4251,68.97 82.5191,68.684 82.5191,68.392 L82.5191,60.034 C82.5191,54.709 78.4161,50.377 73.3731,50.377 L73.3731,50.377 Z" id="Fill-6" fill="#2167AE"></path>
                <line x1="50.0248" y1="73.8542" x2="50.0248" y2="81.5272" id="Fill-8" fill="#5495CF"></line>
                <path d="M50.0257,82.8915 C49.2727,82.8915 48.6617,82.2805 48.6617,81.5275 L48.6617,73.8545 C48.6617,73.1015 49.2727,72.4905 50.0257,72.4905 C50.7787,72.4905 51.3887,73.1015 51.3887,73.8545 L51.3887,81.5275 C51.3887,82.2805 50.7787,82.8915 50.0257,82.8915" id="Fill-10" fill="#5495CF"></path>
                <path d="M84.2318,0.0845 L69.6618,0.0845 C60.9378,0.0845 53.8408,7.1815 53.8408,15.9055 L53.8408,30.4755 C53.8408,30.8075 53.9728,31.1255 54.2078,31.3595 C54.4418,31.5935 54.7598,31.7255 55.0908,31.7255 L84.2318,31.7255 C92.9548,31.7255 100.0508,24.6275 100.0508,15.9045 C100.0508,7.1815 92.9548,0.0845 84.2318,0.0845" id="Fill-12" fill="#5495CF"></path>
                <path d="M85.7289,10.645 L85.8739,10.645 L85.8739,10.717 L85.7289,10.645 Z M87.4539,7.485 L81.0879,7.485 C80.2149,7.485 79.5079,8.192 79.5079,9.065 C79.5079,9.937 80.2149,10.645 81.0879,10.645 L82.8749,10.645 L78.6609,14.12 L68.7579,14.12 C67.7769,14.12 66.9799,14.916 66.9799,15.897 L66.9799,25.618 C66.9799,26.599 67.7769,27.395 68.7579,27.395 C69.7399,27.395 70.5359,26.599 70.5359,25.618 L70.5359,17.675 L80.4389,17.675 C81.4189,17.675 81.9059,17.054 82.7669,16.193 L85.8739,13.4 L85.8739,15.429 C85.8739,16.302 86.5809,17.009 87.4539,17.009 C88.3259,17.009 89.0339,16.302 89.0339,15.429 L89.0339,9.065 C89.0339,8.192 88.3259,7.485 87.4539,7.485 L87.4539,7.485 Z" id="Fill-14" fill="#DAD2BD"></path>
                <path d="M30.391,0 L15.821,0 C7.097,0 0,7.097 0,15.82 C0,24.543 7.097,31.64 15.821,31.64 L44.96,31.641 C45.291,31.641 45.61,31.509 45.844,31.275 C46.079,31.041 46.21,30.722 46.21,30.391 L46.21,15.82 C46.21,7.097 39.114,0 30.391,0" id="Fill-16" fill="#DAD2BD"></path>
                <path d="M14.8773,12.7142 L15.2663,12.7142 C16.5533,12.7142 17.5963,13.7572 17.5963,15.0442 L17.5963,23.9742 C17.5963,25.2612 16.5533,26.3042 15.2663,26.3042 L14.8773,26.3042 C13.5913,26.3042 12.5483,25.2612 12.5483,23.9742 L12.5483,15.0442 C12.5483,13.7572 13.5913,12.7142 14.8773,12.7142" id="Fill-18" fill="#5495CF"></path>
                <path d="M30.9447,8.443 L31.3327,8.443 C32.6197,8.443 33.6627,9.486 33.6627,10.773 L33.6627,23.974 C33.6627,25.261 32.6197,26.304 31.3327,26.304 L30.9447,26.304 C29.6577,26.304 28.6147,25.261 28.6147,23.974 L28.6147,10.773 C28.6147,9.486 29.6577,8.443 30.9447,8.443" id="Fill-20" fill="#5495CF"></path>
                <path d="M22.9105,5.3367 L23.2995,5.3367 C24.5865,5.3367 25.6295,6.3797 25.6295,7.6667 L25.6295,23.9747 C25.6295,25.2607 24.5865,26.3047 23.2995,26.3047 L22.9105,26.3047 C21.6245,26.3047 20.5815,25.2607 20.5815,23.9747 L20.5815,7.6667 C20.5815,6.3797 21.6245,5.3367 22.9105,5.3367" id="Fill-22" fill="#5495CF"></path>
            </g>
        </g>
    </g>
</svg>