<?xml version="1.0" encoding="UTF-8"?>
<svg width="140px" height="140px" viewBox="0 0 140 140" version="1.1" xmlns="http://www.w3.org/2000/svg" xmlns:xlink="http://www.w3.org/1999/xlink">
    <title>pictogram/dark/business &amp; education/career/goal</title>
    <g id="pictogram/dark/business-&amp;-education/career/goal" stroke="none" stroke-width="1" fill="none" fill-rule="evenodd">
        <g id="career-goal" transform="translate(0.000000, 0.000000)">
            <path d="M140,70 C140,108.66 108.659,140 70,140 C31.34,140 0,108.66 0,70 C0,31.34 31.34,0 70,0 C108.659,0 140,31.34 140,70" id="circle" fill="#91BFE3"></path>
            <g id="picto" transform="translate(24.174700, 25.845200)">
                <path d="M93.3351,41.057 C93.3351,63.732 74.9531,82.114 52.2781,82.114 C29.6031,82.114 11.2211,63.732 11.2211,41.057 C11.2211,18.382 29.6031,0 52.2781,0 C74.9531,0 93.3351,18.382 93.3351,41.057" id="Fill-4" fill="#5495CF"></path>
                <path d="M78.5548,41.057 C78.5548,55.569 66.7898,67.333 52.2788,67.333 C37.7658,67.333 26.0018,55.569 26.0018,41.057 C26.0018,26.545 37.7658,14.781 52.2788,14.781 C66.7898,14.781 78.5548,26.545 78.5548,41.057" id="Fill-6" fill="#ECEEEF"></path>
                <path d="M64.5949,41.057 C64.5949,47.86 59.0799,53.374 52.2789,53.374 C45.4759,53.374 39.9609,47.86 39.9609,41.057 C39.9609,34.255 45.4759,28.74 52.2789,28.74 C59.0799,28.74 64.5949,34.255 64.5949,41.057" id="Fill-8" fill="#91BFE3"></path>
                <path d="M101.546,31.2034 L93.03,41.0574 L101.546,50.9104 L77.216,50.9104 L72.958,45.9834 L54.331,45.9834 C51.837,45.9834 49.815,43.9614 49.815,41.4674 C49.815,38.9734 51.837,36.9514 54.331,36.9514 L72.249,36.9514 L77.216,31.2034 L101.546,31.2034 Z" id="Fill-10" fill="#DAD2BD"></path>
                <path d="M55.463,64.5204 C54.981,64.3594 54.448,64.5284 54.145,64.9364 C50.463,69.8884 42.283,72.5054 30.492,72.5054 L25.751,72.5054 C13.988,72.5054 5.818,69.9004 2.126,64.9714 C1.819,64.5644 1.287,64.4004 0.808,64.5594 C0.325,64.7194 -7.10542736e-15,65.1714 -7.10542736e-15,65.6794 L-7.10542736e-15,79.9474 C-7.10542736e-15,84.5584 3.553,88.3094 7.919,88.3094 L48.353,88.3094 C52.72,88.3094 56.273,84.5584 56.273,79.9474 L56.273,65.6414 C56.273,65.1324 55.946,64.6804 55.463,64.5204" id="Fill-12" fill="#23366F"></path>
                <path d="M20.3322,50.0425 L20.3322,44.0355 C20.3322,43.7845 20.7462,43.4195 21.3972,43.4195 L34.8752,43.4195 C35.5252,43.4195 35.9402,43.7845 35.9402,44.0355 L35.9402,50.0425 L20.3322,50.0425 Z M48.3532,50.0425 L38.3022,50.0425 L38.3022,44.0355 C38.3022,42.3935 36.7652,41.0575 34.8752,41.0575 L21.3972,41.0575 C19.5082,41.0575 17.9712,42.3935 17.9712,44.0355 L17.9712,50.0425 L7.9192,50.0425 C3.5532,50.0425 0.0002,53.7935 0.0002,58.4045 L0.0002,65.6795 C0.0002,65.9355 0.0832,66.1835 0.2352,66.3875 C4.4522,72.0145 13.0362,74.8675 25.7512,74.8675 L30.4922,74.8675 C43.2392,74.8675 51.8352,72.0005 56.0392,66.3455 C56.1912,66.1425 56.2722,65.8945 56.2722,65.6415 L56.2722,58.4045 C56.2722,53.7935 52.7202,50.0425 48.3532,50.0425 L48.3532,50.0425 Z" id="Fill-14" fill="#2167AE"></path>
                <line x1="28.1359" y1="70.3712" x2="28.1359" y2="77.0152" id="Fill-16" fill="#5495CF"></line>
                <path d="M28.1359,78.1966 C27.4849,78.1966 26.9559,77.6676 26.9559,77.0156 L26.9559,70.3716 C26.9559,69.7196 27.4849,69.1906 28.1359,69.1906 C28.7879,69.1906 29.3169,69.7196 29.3169,70.3716 L29.3169,77.0156 C29.3169,77.6676 28.7879,78.1966 28.1359,78.1966" id="Fill-18" fill="#5495CF"></path>
            </g>
        </g>
    </g>
</svg>