<?xml version="1.0" encoding="UTF-8"?>
<svg width="140px" height="140px" viewBox="0 0 140 140" version="1.1" xmlns="http://www.w3.org/2000/svg" xmlns:xlink="http://www.w3.org/1999/xlink">
    <title>pictogram/light/business &amp; education/house/protection</title>
    <g id="pictogram/light/business-&amp;-education/house/protection" stroke="none" stroke-width="1" fill="none" fill-rule="evenodd">
        <g id="house-protection" transform="translate(-0.000000, 0.000000)">
            <path d="M140,70 C140,108.66 108.66,140 70,140 C31.34,140 0,108.66 0,70 C0,31.34 31.34,0 70,0 C108.66,0 140,31.34 140,70" id="circle" fill="#DDE4E3"></path>
            <g id="picto" transform="translate(22.337400, 15.392627)">
                <path d="M93.896,18.2414734 L48.581,0.192473366 C48.039,-0.0455266343 47.406,-0.0715266343 46.817,0.163473366 L1.428,18.2414734 C0.565,18.5854734 0,19.4204734 0,20.3494734 L0,58.0774734 C0,60.5724734 0.537,82.8114734 19.159,95.5624734 C28.751,102.132473 34.388,105.579473 38.502,108.095473 C41.409,109.872473 43.705,111.274473 46.232,113.065473 C46.665,113.370473 47.157,113.517473 47.661,113.478473 C47.702,113.482473 47.741,113.482473 47.782,113.482473 C48.18,113.482473 48.583,113.377473 48.948,113.159473 L50.349,112.319473 C55.855,109.024473 61.053,105.910473 76.165,95.5624734 C94.789,82.8114734 95.326,60.5724734 95.326,58.0774734 L95.326,20.3494734 C95.326,19.4204734 94.76,18.5854734 93.896,18.2414734" id="Fill-4" fill="#91BFE3"></path>
                <path d="M57.9829,20.9331734 L57.9829,28.0961734 C57.9829,28.0961734 66.0049,28.3831734 66.0049,28.0961734 L66.0049,20.9331734 L57.9829,20.9331734 Z" id="Fill-6" fill="#2167AE"></path>
                <path d="M80.1294,44.9810734 C79.0034,42.0220734 73.9604,29.0700734 73.9604,29.0700734 C73.9604,29.0700734 73.5024,26.4340734 69.8344,26.4340734 L48.5264,26.4340734 L47.8284,26.4340734 L25.4904,26.4340734 C21.8224,26.4340734 21.3644,29.0700734 21.3644,29.0700734 C21.3644,29.0700734 16.3214,42.0220734 15.1954,44.9810734 C14.0694,47.9400734 17.6964,47.4820734 17.6964,47.4820734 L47.8284,47.4820734 L48.5264,47.4820734 L77.6284,47.4820734 C77.6284,47.4820734 81.2544,47.9400734 80.1294,44.9810734" id="Fill-8" fill="#23366F"></path>
                <polygon id="Fill-10" fill="#2167AE" points="20.6772 47.4820734 20.6772 82.9380734 75.0022 82.9380734 75.0022 47.5080734"></polygon>
                <path d="M66.9008,20.9331734 L57.2018,20.9331734 C56.8418,20.9331734 56.5498,20.6411734 56.5498,20.2811734 L56.5498,19.4641734 C56.5498,19.1041734 56.8418,18.8131734 57.2018,18.8131734 L66.9008,18.8131734 C67.2608,18.8131734 67.5528,19.1041734 67.5528,19.4641734 L67.5528,20.2811734 C67.5528,20.6411734 67.2608,20.9331734 66.9008,20.9331734" id="Fill-12" fill="#23366F"></path>
                <path d="M47.6626,54.6080734 C47.6626,54.6080734 36.1416,54.3070734 36.1416,66.0610734 L36.1416,82.9380734 L47.6626,82.9380734 L59.1836,82.9380734 L59.1836,66.0610734 C59.1836,54.3070734 47.6626,54.6080734 47.6626,54.6080734" id="Fill-14" fill="#5495CF"></path>
            </g>
        </g>
    </g>
</svg>