<?xml version="1.0" encoding="UTF-8"?>
<svg width="140px" height="140px" viewBox="0 0 140 140" version="1.1" xmlns="http://www.w3.org/2000/svg" xmlns:xlink="http://www.w3.org/1999/xlink">
    <title>pictogram/dark/environment/sustainability/cycle</title>
    <g id="pictogram/dark/environment/sustainability/cycle" stroke="none" stroke-width="1" fill="none" fill-rule="evenodd">
        <g id="sustainability-cycle">
            <path d="M140,70 C140,108.66 108.66,140 70,140 C31.34,140 0,108.66 0,70 C0,31.34 31.34,0 70,0 C108.66,0 140,31.34 140,70" id="circle" fill="#91BFE3"></path>
            <g id="picto" transform="translate(15.481411, 15.259120)">
                <path d="M80.7060889,38.5245797 L80.1800889,23.9175797 C80.1650889,23.5045797 79.9480889,23.1275797 79.6010889,22.9065797 C79.2530889,22.6855797 78.8190889,22.6505797 78.4400889,22.8125797 L64.3520889,28.8305797 C56.3030889,32.7655797 53.3820889,37.8135797 55.1600889,44.7155797 C56.0690889,48.2425797 58.3370889,51.1575797 61.5920889,52.9495797 L61.7710889,53.0515797 C61.7960889,53.0675797 61.9030889,53.1275797 61.9300889,53.1415797 C61.9830889,53.1685797 62.0390889,53.1915797 62.0950889,53.2105797 C63.9350889,54.1315797 65.9460889,54.6015797 67.9690889,54.6015797 C69.0410889,54.6015797 70.1180889,54.4695797 71.1730889,54.2025797 C78.0820889,52.4535797 81.1110889,47.4715797 80.7060889,38.5245797" id="Fill-3" fill="#ECEEEF"></path>
                <path d="M39.5849889,39.8253797 L25.0809889,37.9613797 C24.6689889,37.9083797 24.2639889,38.0613797 23.9889889,38.3683797 C23.7149889,38.6753797 23.6089889,39.0973797 23.7069889,39.4983797 L27.3479889,54.3783797 C29.7309889,62.3423797 33.7799889,66.1063797 40.0229889,66.1063797 C40.5089889,66.1063797 41.0079889,66.0833797 41.5209889,66.0383797 C45.1479889,65.7163797 48.3939889,63.9543797 50.6979889,61.0293797 L50.8239889,60.8743797 C50.8429889,60.8523797 50.9169889,60.7613797 50.9339889,60.7383797 C50.9729889,60.6873797 51.0059889,60.6343797 51.0349889,60.5783797 C52.8839889,58.0293797 53.7559889,54.9153797 53.4919889,51.7863797 C52.8929889,44.6833797 48.4699889,40.8823797 39.5849889,39.8253797" id="Fill-5" fill="#ECEEEF"></path>
                <path d="M68.4018889,39.3045389 C68.0738889,39.2978797 67.7568889,39.3988797 67.4918889,39.5908797 L67.4018889,39.5208797 L67.1038889,39.9598797 C66.9838889,40.1358797 57.6988889,53.9898797 54.2658889,72.2808797 C49.5258889,58.7608797 42.9448889,53.2918797 42.4318889,52.8818797 C42.0498889,52.5318797 41.5538889,52.3918797 41.0708889,52.4968797 C40.2358889,52.6788797 39.7048889,53.5048797 39.8868889,54.3398797 C39.9598889,54.6738797 40.1508889,54.9728797 40.4428889,55.2078797 C40.4658889,55.2268797 42.8528889,57.1438797 45.4968889,61.4358797 C50.6098889,69.7328797 52.8478889,88.2658797 53.2418889,91.8438797 C53.2418889,91.9218797 53.2598889,91.9948797 53.2658889,92.0708797 C53.2738889,92.1328797 53.2748889,92.1968797 53.2858889,92.2578797 C53.2938889,92.3048797 53.2918889,92.3548797 53.3018889,92.4018797 C53.4528889,93.0948797 53.8648889,93.6898797 54.4628889,94.0728797 C54.8968889,94.3528797 55.3908889,94.4968797 55.8948889,94.4968797 C56.0848889,94.4968797 56.2758889,94.4758797 56.4658889,94.4348797 C57.7568889,94.1538797 58.6168889,92.9718797 58.5508889,91.7168797 C58.5488889,91.5678797 58.5368889,91.4198797 58.5128889,91.3078797 L58.4748889,90.8618797 C57.4508889,79.2308797 59.0928889,67.1998797 63.3548889,55.1038797 C65.1608889,49.9798797 69.5608889,41.8468797 69.6048889,41.7648797 L69.6128889,41.7488797 C69.8048889,41.4878797 69.9088889,41.1918797 69.9158889,40.8878797 C69.9348889,40.0338797 69.2558889,39.3238797 68.4018889,39.3045389" id="Fill-7" fill="#2167AE"></path>
                <path d="M93.3090889,88.7914797 C93.2210889,88.2814797 92.9630889,87.8494797 92.6090889,87.5244797 C92.2610889,87.1794797 91.8040889,86.9374797 91.2780889,86.8804797 L83.7270889,86.0564797 C82.4980889,85.9204797 81.3810889,86.8124797 81.2460889,88.0484797 C81.1110889,89.2834797 82.0030889,90.3944797 83.2390889,90.5294797 L86.6450889,90.9014797 C70.3620889,107.34948 44.2990889,109.74348 25.0620889,96.2374797 C5.18908893,82.2854797 -1.26291107,55.6774797 10.0530889,34.3454797 C10.6350889,33.2474797 10.2180889,31.8854797 9.12008893,31.3034797 C8.02308893,30.7204797 6.66008893,31.1394797 6.07808893,32.2364797 C-6.29991107,55.5694797 0.750088927,84.6664797 22.4760889,99.9204797 C31.6420889,106.35448 42.2230889,109.48748 52.7220889,109.48748 C66.2530889,109.48748 79.6440889,104.27948 89.6840889,94.2254797 L90.2130889,97.2824797 C90.4020889,98.3774797 91.3520889,99.1484797 92.4270889,99.1484797 C92.5540889,99.1484797 92.6840889,99.1384797 92.8130889,99.1154797 C94.0380889,98.9034797 94.8590889,97.7394797 94.6460889,96.5144797 L93.3090889,88.7914797 Z" id="Fill-9" fill="#DAD2BD"></path>
                <path d="M86.5615889,9.56647974 C65.5935889,-5.15652026 37.1965889,-2.59452026 19.3665889,15.2474797 L18.8345889,12.1854797 C18.6225889,10.9614797 17.4625889,10.1404797 16.2335889,10.3534797 C15.0095889,10.5654797 14.1885889,11.7304797 14.4015889,12.9544797 L15.7415889,20.6804797 C15.8335889,21.2104797 16.1055889,21.6604797 16.4815889,21.9884797 C16.8245889,22.3104797 17.2655889,22.5324797 17.7685889,22.5874797 L25.3225889,23.4154797 C25.4055889,23.4244797 25.4885889,23.4284797 25.5705889,23.4284797 C26.7035889,23.4284797 27.6775889,22.5754797 27.8045889,21.4234797 C27.9395889,20.1884797 27.0475889,19.0774797 25.8125889,18.9414797 L22.4035889,18.5684797 C38.6885889,2.13347974 64.7455889,-0.252520256 83.9755889,13.2494797 C103.842589,27.1984797 110.297589,53.8014797 98.9915889,75.1314797 C98.4095889,76.2294797 98.8275889,77.5914797 99.9255889,78.1734797 C100.261589,78.3514797 100.622589,78.4364797 100.977589,78.4354885 C101.783589,78.4354885 102.563589,78.0014797 102.967589,77.2394797 C115.334589,53.9094797 108.281589,24.8164797 86.5615889,9.56647974" id="Fill-11" fill="#DAD2BD"></path>
            </g>
        </g>
    </g>
</svg>