<?xml version="1.0" encoding="UTF-8"?>
<svg width="140px" height="140px" viewBox="0 0 140 140" version="1.1" xmlns="http://www.w3.org/2000/svg" xmlns:xlink="http://www.w3.org/1999/xlink">
    <title>pictogram/dark/environment/sustainability/living</title>
    <g id="pictogram/dark/environment/sustainability/living" stroke="none" stroke-width="1" fill="none" fill-rule="evenodd">
        <g id="sustainability-living">
            <path d="M140,70 C140,108.66 108.66,140 70,140 C31.34,140 0,108.66 0,70 C0,31.34 31.34,0 70,0 C108.66,0 140,31.34 140,70" id="circle" fill="#91BFE3"></path>
            <g id="picto" transform="translate(33.613500, 20.050884)">
                <path d="M71.887,34.1317155 C70.999,16.0297155 56.343,1.17471551 38.241,0.0717155078 C17.352,-1.22928449 -7.10542736e-15,15.3407155 -7.10542736e-15,35.9537155 C-7.10542736e-15,45.2497155 3.522,53.7187155 9.311,60.0897155 C14.442,65.7567155 17.612,73.4837155 17.872,81.1107155 L54.076,81.1107155 C54.444,73.4377155 57.644,65.6797155 62.79,59.9217155 C68.855,53.1527155 72.377,44.0557155 71.887,34.1317155" id="Fill-3" fill="#5495CF"></path>
                <path d="M49.2181,29.7919155 L37.4681,11.9649155 C37.2411,11.6209155 36.8601,11.4109155 36.4481,11.402482 C36.0281,11.3919155 35.6471,11.5909155 35.4071,11.9259155 L22.4211,30.1009155 C15.5411,40.8489155 15.7031,49.1319155 22.9321,56.1679155 C26.4261,59.5689155 30.9881,61.4139155 35.8511,61.4139155 C36.1301,61.4139155 36.4111,61.4069155 36.6921,61.3949155 L37.1011,61.3849155 C37.1761,61.3839155 37.2511,61.3829155 37.3251,61.3769155 C37.3981,61.3719155 37.4681,61.3599155 37.5361,61.3429155 C41.9991,60.9829155 46.1671,59.0399155 49.2931,55.8549155 C56.3601,48.6569155 56.3341,40.3719155 49.2181,29.7919155" id="Fill-5" fill="#2167AE"></path>
                <path d="M53.8392,87.3725155 C53.4702,87.2185155 53.0702,87.1425155 52.6402,87.1425155 L52.6562,87.1425155 C53.1482,87.1425155 53.6242,87.0345155 54.0392,86.8345155 C54.3922,86.6815155 54.7142,86.4505155 54.9912,86.1735155 C55.5902,85.5745155 55.9592,84.7455155 55.9592,83.8385155 C55.9592,82.5015155 55.1752,81.3645155 54.0392,80.8425155 C53.6242,80.6425155 53.1482,80.5355155 52.6562,80.5355155 L19.2992,80.5355155 C18.7932,80.5355155 18.3162,80.6425155 17.8862,80.8575155 C17.5482,81.0115155 17.2252,81.2415155 16.9642,81.5025155 C16.3652,82.1025155 15.9962,82.9325155 15.9962,83.8385155 C15.9962,85.1445155 16.7642,86.2965155 17.8862,86.8195155 C18.3162,87.0345155 18.7932,87.1425155 19.2992,87.1425155 L19.2842,87.1425155 C18.8392,87.1425155 18.4082,87.2335155 18.0242,87.4025155 C17.6092,87.5565155 17.2562,87.8025155 16.9482,88.1095155 C16.3492,88.6935155 15.9812,89.5235155 15.9812,90.4295155 C15.9812,92.2585155 17.4562,93.7335155 19.2842,93.7335155 L22.3882,93.7335155 C25.7682,97.5895155 30.7612,100.001516 36.3082,99.8945155 C41.5172,99.8025155 46.1262,97.4055155 49.3532,93.7335155 L52.6402,93.7335155 C53.5622,93.7335155 54.3772,93.3645155 54.9762,92.7655155 C55.5752,92.1655155 55.9442,91.3365155 55.9442,90.4295155 C55.9442,89.0315155 55.0682,87.8485155 53.8392,87.3725155" id="Fill-7" fill="#2167AE"></path>
                <path d="M37.6668,80.5448155 L37.8908,50.6398155 C37.8938,50.6408155 37.9038,50.6418155 37.9048,50.6428155 C38.0378,50.7078155 37.4548,44.8908155 37.4548,44.8908155 L37.4458,44.8898155 C37.3628,43.9558155 36.5868,43.2208155 35.6308,43.2208155 C34.7238,43.2208155 33.9758,43.8828155 33.8308,44.7488155 L33.8258,44.7478155 C33.8258,44.7478155 33.4188,50.3428155 33.3858,50.5088155 L33.3938,50.5088155 C33.3938,50.5158155 33.3908,50.5228155 33.3908,50.5288155 L33.1668,80.5248155" id="Fill-9" fill="#DAD2BD"></path>
            </g>
        </g>
    </g>
</svg>