<?xml version="1.0" encoding="UTF-8"?>
<svg width="140px" height="140px" viewBox="0 0 140 140" version="1.1" xmlns="http://www.w3.org/2000/svg" xmlns:xlink="http://www.w3.org/1999/xlink">
    <title>pictogram/dark/environment/mountain</title>
    <g id="pictogram/dark/environment/mountain" stroke="none" stroke-width="1" fill="none" fill-rule="evenodd">
        <g id="mountain" transform="translate(-0.000000, 0.000000)">
            <path d="M140,70 C140,108.66 108.66,140 70,140 C31.34,140 0,108.66 0,70 C0,31.34 31.34,0 70,0 C108.66,0 140,31.34 140,70" id="circle" fill="#91BFE3"></path>
            <g id="picto" transform="translate(20.383200, 25.077900)">
                <path d="M49.8766,29.8791 L49.8766,4.3991 C49.8766,2.9271 48.3406,1.9591 47.0126,2.5941 L22.8906,14.1251 C21.4386,14.8191 21.3586,16.8571 22.7516,17.6621 L46.8746,31.6111 C48.2086,32.3821 49.8766,31.4201 49.8766,29.8791" id="Fill-4" fill="#5495CF"></path>
                <path d="M47.318,39.765 L47.318,2.299 C47.318,1.029 48.347,0 49.617,0 C50.886,0 51.916,1.029 51.916,2.299 L51.916,39.765 L47.318,39.765 Z" id="Fill-6" fill="#23366F"></path>
                <path d="M32.9166,69.2202 L32.9946,69.1432 L38.1956,62.7202 C38.7996,61.9752 39.9366,61.9752 40.5406,62.7202 L48.4326,72.4652 L48.4446,72.4772 C49.0486,73.2222 50.1856,73.2222 50.7886,72.4772 L50.9346,72.3372 L58.7236,62.7202 C59.3266,61.9752 60.4636,61.9752 61.0676,62.7202 L66.2466,69.1142 L66.3626,69.2202 C66.9666,69.9652 68.1036,69.9652 68.7076,69.2202 L73.8156,62.9122 L53.1326,37.3772 C51.3216,35.1412 47.9116,35.1412 46.1006,37.3772 L25.4406,62.8842 L30.5726,69.2202 C31.1756,69.9652 32.3126,69.9652 32.9166,69.2202" id="Fill-8" fill="#ECEEEF"></path>
                <path d="M73.816,62.9126 L68.707,69.2206 C68.103,69.9656 66.966,69.9656 66.363,69.2206 L66.246,69.1146 L61.067,62.7206 C60.464,61.9756 59.327,61.9756 58.723,62.7206 L50.934,72.3366 L50.789,72.4766 C50.185,73.2226 49.048,73.2226 48.444,72.4766 L48.433,72.4646 L40.54,62.7206 C39.937,61.9756 38.8,61.9756 38.196,62.7206 L32.994,69.1426 L32.916,69.2206 C32.313,69.9656 31.176,69.9656 30.572,69.2206 L25.44,62.8846 L0,94.2936 C12.677,107.0336 30.224,114.9226 49.617,114.9226 C69.009,114.9226 86.557,107.0336 99.234,94.2936 L73.816,62.9126 Z" id="Fill-10" fill="#DAD2BD"></path>
            </g>
        </g>
    </g>
</svg>