<?xml version="1.0" encoding="UTF-8"?>
<svg width="140px" height="140px" viewBox="0 0 140 140" version="1.1" xmlns="http://www.w3.org/2000/svg" xmlns:xlink="http://www.w3.org/1999/xlink">
    <title>pictogram/dark/mobility/plane/plain</title>
    <g id="pictogram/dark/mobility/plane/plain" stroke="none" stroke-width="1" fill="none" fill-rule="evenodd">
        <g id="plane" transform="translate(-0.000400, 0.000000)">
            <path d="M140,70 C140,108.66 108.66,140 70,140 C31.341,140 0,108.66 0,70 C0,31.34 31.341,0 70,0 C108.66,0 140,31.34 140,70" id="circle" fill="#91BFE3"></path>
            <g id="picto" transform="translate(12.216800, 14.352400)" fill="#2167AE">
                <path d="M112.209,50.766 L112.206,50.765 C110.662,50.045 76.42,34.095 69.586,31.003 C69.518,26.912 69.386,22.915 69.197,19.141 C69.176,18.364 68.563,0.105 57.731,0 C47.005,0.105 46.392,18.364 46.373,19.095 C46.182,22.91 46.05,26.91 45.981,31.003 C39.121,34.105 4.906,50.045 3.359,50.766 C1.288,51.735 0,53.722 0,55.949 L0,63.349 C0,64.561 0.52,65.666 1.425,66.382 C2.359,67.122 3.612,67.372 4.855,67.078 L45.297,57.519 L46.113,57.326 C46.281,59.117 46.522,61.842 46.771,64.662 C47.496,72.859 48.471,83.885 49.172,89.766 L36.579,96.303 C35.104,96.993 34.034,98.652 34.034,100.244 L34.034,102.976 C34.034,103.985 34.469,104.909 35.23,105.511 C36.01,106.126 37.047,106.342 38.131,106.087 L51.17,102.614 C51.199,102.754 51.23,102.881 51.256,102.995 C52.223,107.125 53.631,109.225 54.937,110.286 C56.093,111.226 57.169,111.353 57.783,111.321 C57.839,111.324 57.898,111.326 57.96,111.326 C58.542,111.326 59.431,111.167 60.395,110.465 C61.764,109.469 63.287,107.369 64.311,102.998 C64.335,102.889 64.363,102.767 64.393,102.634 C68.507,103.786 77.349,106.283 77.525,106.333 C78.552,106.576 79.591,106.359 80.369,105.742 C81.13,105.141 81.566,104.217 81.566,103.208 L81.566,100.475 C81.566,98.884 80.497,97.226 79.114,96.581 L66.393,89.783 C67.097,83.896 68.073,72.83 68.801,64.603 C69.048,61.808 69.286,59.106 69.452,57.326 L69.865,57.424 L110.71,67.077 C111.963,67.377 113.21,67.12 114.143,66.382 C115.048,65.666 115.567,64.561 115.567,63.349 L115.567,55.949 C115.567,53.722 114.28,51.735 112.209,50.766" id="Fill-4"></path>
            </g>
        </g>
    </g>
</svg>