<?xml version="1.0" encoding="UTF-8"?>
<svg width="140px" height="140px" viewBox="0 0 140 140" version="1.1" xmlns="http://www.w3.org/2000/svg" xmlns:xlink="http://www.w3.org/1999/xlink">
    <title>pictogram/dark/health/medical/sign-2</title>
    <g id="pictogram/dark/health/medical/sign-2" stroke="none" stroke-width="1" fill="none" fill-rule="evenodd">
        <g id="medical-sign-2" transform="translate(-0.000000, 0.000000)">
            <path d="M0,70 C0,31.34 31.34,0 70,0 C108.66,0 140,31.34 140,70 C140,108.66 108.66,140 70,140 C31.34,140 0,108.66 0,70" id="circle" fill="#91BFE3"></path>
            <g id="picto" transform="translate(18.035060, 15.774300)">
                <path d="M101.29474,67.356 L80.13674,54.355 L101.40774,41.371 C103.88374,39.86 104.67274,36.598 103.16174,34.122 L93.36574,18.073 C91.85474,15.597 88.59174,14.808 86.11674,16.319 L66.59974,28.232 L66.59974,5.274 C66.59974,2.374 64.22674,0 61.32574,0 L42.52374,0 C39.62274,0 37.24974,2.374 37.24974,5.274 L37.24974,28.002 L17.87474,16.096 C15.40274,14.578 12.13874,15.357 10.61974,17.829 L0.775739994,33.849 C-0.742260006,36.32 0.0367399936,39.584 2.50873999,41.103 L23.93874,54.271 L2.54373999,67.331 C0.0677399936,68.842 -0.721260006,72.104 0.789739994,74.58 L10.58574,90.629 C12.09674,93.105 15.35974,93.894 17.83574,92.383 L37.24974,80.533 L37.24974,103.185 C37.24974,106.086 39.62274,108.459 42.52374,108.459 L61.32574,108.459 C64.22674,108.459 66.59974,106.086 66.59974,103.185 L66.59974,80.485 L85.92874,92.363 C88.40074,93.881 91.66474,93.102 93.18374,90.63 L103.02674,74.61 C104.54574,72.139 103.76574,68.875 101.29474,67.356" id="Fill-4" fill="#5495CF"></path>
                <path d="M51.79034,24.4344 C48.71734,24.4344 46.21734,26.9344 46.21734,30.0064 C46.21734,33.0794 48.71734,35.5794 51.79034,35.5794 C54.86234,35.5794 57.36234,33.0794 57.36234,30.0064 C57.36234,26.9344 54.86234,24.4344 51.79034,24.4344" id="Fill-6" fill="#DAD2BD"></path>
                <path d="M51.83964,35.6199 C49.12864,35.6199 46.92264,37.6759 46.9236397,40.2389 L48.14064,83.4049 C48.15264,85.3129 49.80664,86.8619 51.83964,86.8619 C53.87864,86.8619 55.53764,85.3019 55.53764,83.4209 L56.75664,40.2029 C56.75664,37.6759 54.54964,35.6199 51.83964,35.6199" id="Fill-8" fill="#2167AE"></path>
                <path d="M60.22764,43.2065 C59.53064,43.2065 58.96664,43.7715 58.96664,44.4675 C58.96664,45.8505 57.84164,46.9765 56.45864,46.9765 L49.80264,46.9765 C49.75964,46.9765 49.71764,46.9845 49.67564,46.9885 L48.47264,46.9885 C45.69864,46.9885 43.44264,49.2455 43.44264,52.0195 C43.44264,54.4285 45.12964,56.4415 47.39464,56.9305 L47.31864,54.2315 C46.51564,53.8135 45.96464,52.9845 45.96464,52.0195 C45.96464,50.6365 47.08964,49.5115 48.47264,49.5115 L54.62764,49.5115 C54.67164,49.5115 54.71364,49.5025 54.75764,49.4985 L56.45864,49.4985 C59.23264,49.4985 61.48864,47.2415 61.48864,44.4675 C61.48864,43.7715 60.92464,43.2065 60.22764,43.2065" id="Fill-10" fill="#DAD2BD"></path>
                <path d="M56.34794,54.6878 L56.27194,57.3418 C57.08294,57.7578 57.61594,58.5848 57.61594,59.5578 C57.61594,60.9398 56.48994,62.0648 55.10694,62.0648 L48.97294,62.0648 C46.19894,62.0648 43.94294,64.3208 43.94294,67.0948 C43.94294,69.4768 45.59194,71.4698 47.81894,71.9868 L47.74194,69.2668 C46.98194,68.8358 46.46494,68.0308 46.46494,67.0948 C46.46494,65.7128 47.58994,64.5878 48.97294,64.5878 L55.10694,64.5878 C57.87994,64.5878 60.13794,62.3308 60.13794,59.5578 C60.13794,57.2088 58.52794,55.2388 56.34794,54.6878" id="Fill-12" fill="#DAD2BD"></path>
                <path d="M59.65704,74.6332 C59.65704,72.3052 58.07304,70.3492 55.92204,69.7782 L55.84704,72.4512 C56.61904,72.8792 57.13504,73.6902 57.13504,74.6332 C57.13504,76.0152 56.01004,77.1412 54.62704,77.1412 L54.62604,77.1412 L47.97204,77.1412 C45.19804,77.1412 42.94104,79.3982 42.94104,82.1722 C42.94104,82.8682 43.50604,83.4332 44.20304,83.4332 C44.90004,83.4332 45.46404,82.8682 45.46404,82.1722 C45.46404,80.7882 46.58904,79.6632 47.97204,79.6632 L54.62704,79.6632 L54.63004,79.6632 C57.40204,79.6612 59.65704,77.4062 59.65704,74.6332" id="Fill-14" fill="#DAD2BD"></path>
            </g>
        </g>
    </g>
</svg>