<?xml version="1.0" encoding="UTF-8"?>
<svg width="140px" height="140px" viewBox="0 0 140 140" version="1.1" xmlns="http://www.w3.org/2000/svg" xmlns:xlink="http://www.w3.org/1999/xlink">
    <title>pictogram/dark/mobility/location/protection</title>
    <g id="pictogram/dark/mobility/location/protection" stroke="none" stroke-width="1" fill="none" fill-rule="evenodd">
        <g id="location-protection" transform="translate(-0.000000, 0.000000)">
            <path d="M140,70 C140,108.66 108.659,140 70,140 C31.34,140 0,108.66 0,70 C0,31.34 31.34,0 70,0 C108.659,0 140,31.34 140,70" id="circle" fill="#91BFE3"></path>
            <g id="picto" transform="translate(23.737200, 16.861687)">
                <path d="M90.838,17.5502134 L47.345,0.227213378 C46.68,-0.0637866218 45.941,-0.0757866218 45.266,0.194213378 L1.687,17.5502134 C0.662,17.9592134 0,18.9362134 0,20.0392134 L0,56.2622134 C0,58.6842134 0.523,80.2782134 18.613,92.6652134 C27.83,98.9782134 33.247,102.290213 37.238,104.731213 C40.008,106.425213 42.195,107.762213 44.601,109.466213 C45.062,109.791213 45.578,109.960954 46.047,109.960954 C46.105,109.960954 46.161,109.957213 46.217,109.952213 C46.769,109.999213 47.289,109.854213 47.753,109.576213 L49.099,108.770213 C54.375,105.613213 59.359,102.630213 73.91,92.6652134 C92.002,80.2782134 92.525,58.6842134 92.525,56.2622134 L92.525,20.0392134 C92.525,18.9362134 91.862,17.9592134 90.838,17.5502134" id="Fill-4" fill="#5495CF"></path>
                <path d="M55.0215,65.7582134 C54.9765,65.7542134 54.9315,65.7512134 54.8865,65.7512134 L37.6375,65.7512134 C37.5925,65.7512134 37.5475,65.7542134 37.5025,65.7582134 C33.1795,66.2042134 19.0745,68.1292134 19.0745,74.1822134 C19.0745,79.9992134 32.7515,83.0432134 46.2615,83.0432134 C59.7725,83.0432134 73.4505,79.9992134 73.4505,74.1822134 C73.4505,68.1292134 59.3445,66.2042134 55.0215,65.7582134" id="Fill-6" fill="#2167AE"></path>
                <path d="M62.5313,29.2733134 C58.2313,24.9723134 52.5143,22.6043134 46.4323,22.6043134 C40.3523,22.6043134 34.6353,24.9723134 30.3353,29.2733134 C26.0353,33.5733134 23.6663,39.2903134 23.6663,45.3713134 C23.6663,51.4513134 26.0353,57.1693134 30.3413,61.4753134 L45.9283,76.7063134 C46.0683,76.8433134 46.2513,76.9113134 46.4323,76.9113134 C46.6153,76.9113134 46.7983,76.8423134 46.9373,76.7063134 L62.5313,61.4693134 C71.4073,52.5923134 71.4073,38.1493134 62.5313,29.2733134" id="Fill-8" fill="#DAD2BD"></path>
                <path d="M46.4327,33.7630134 C40.0877,33.7630134 34.9257,38.9260134 34.9257,45.2710134 C34.9257,51.6160134 40.0877,56.7780134 46.4327,56.7780134 C52.7787,56.7780134 57.9417,51.6160134 57.9417,45.2710134 C57.9417,38.9260134 52.7787,33.7630134 46.4327,33.7630134" id="Fill-10" fill="#5495CF"></path>
            </g>
        </g>
    </g>
</svg>