<?xml version="1.0" encoding="UTF-8"?>
<svg width="140px" height="140px" viewBox="0 0 140 140" version="1.1" xmlns="http://www.w3.org/2000/svg" xmlns:xlink="http://www.w3.org/1999/xlink">
    <title>pictogram/light/environment/weather/storm-cycle</title>
    <g id="pictogram/light/environment/weather/storm-cycle" stroke="none" stroke-width="1" fill="none" fill-rule="evenodd">
        <g id="storm-cycle" transform="translate(-0.000100, 0.000000)">
            <path d="M140.045,70.022 C140.045,108.694 108.695,140.044 70.023,140.044 C31.35,140.044 0,108.694 0,70.022 C0,31.35 31.35,0 70.023,0 C108.695,0 140.045,31.35 140.045,70.022" id="circle" fill="#DDE4E3"></path>
            <g id="picto" transform="translate(15.481511, 15.277920)">
                <path d="M93.3090889,88.7915797 C93.2210889,88.2815797 92.9630889,87.8495797 92.6090889,87.5245797 C92.2610889,87.1795797 91.8040889,86.9375797 91.2780889,86.8805797 L83.7270889,86.0565797 C82.4980889,85.9205797 81.3810889,86.8125797 81.2460889,88.0485797 C81.1110889,89.2835797 82.0030889,90.3945797 83.2390889,90.5295797 L86.6450889,90.9015797 C70.3620889,107.34958 44.2990889,109.74358 25.0620889,96.2375797 C5.18908893,82.2855797 -1.26291107,55.6775797 10.0530889,34.3455797 C10.6350889,33.2475797 10.2180889,31.8855797 9.12008893,31.3035797 C8.02308893,30.7205797 6.66008893,31.1395797 6.07808893,32.2365797 C-6.29991107,55.5695797 0.750088927,84.6665797 22.4760889,99.9205797 C31.6420889,106.35458 42.2230889,109.48758 52.7220889,109.48758 C66.2530889,109.48758 79.6440889,104.27958 89.6840889,94.2255797 L90.2130889,97.2825797 C90.4020889,98.3775797 91.3520889,99.1485797 92.4270889,99.1485797 C92.5540889,99.1485797 92.6840889,99.1385797 92.8130889,99.1155797 C94.0380889,98.9035797 94.8590889,97.7395797 94.6460889,96.5145797 L93.3090889,88.7915797 Z" id="Fill-4" fill="#5495CF"></path>
                <path d="M86.5615889,9.56647974 C65.5935889,-5.15652026 37.1965889,-2.59452026 19.3665889,15.2474797 L18.8345889,12.1854797 C18.6225889,10.9614797 17.4625889,10.1404797 16.2335889,10.3534797 C15.0095889,10.5654797 14.1885889,11.7304797 14.4015889,12.9544797 L15.7415889,20.6804797 C15.8335889,21.2104797 16.1055889,21.6604797 16.4815889,21.9884797 C16.8245889,22.3104797 17.2655889,22.5324797 17.7685889,22.5874797 L25.3225889,23.4154797 C25.4055889,23.4244797 25.4885889,23.4284797 25.5705889,23.4284797 C26.7035889,23.4284797 27.6775889,22.5754797 27.8045889,21.4234797 C27.9395889,20.1884797 27.0475889,19.0774797 25.8125889,18.9414797 L22.4035889,18.5684797 C38.6885889,2.13347974 64.7455889,-0.252520256 83.9755889,13.2494797 C103.842589,27.1984797 110.297589,53.8014797 98.9915889,75.1314797 C98.4095889,76.2294797 98.8275889,77.5914797 99.9255889,78.1734797 C100.261589,78.3514797 100.622589,78.4364797 100.977589,78.4354885 C101.783589,78.4354885 102.563589,78.0014797 102.967589,77.2394797 C115.334589,53.9094797 108.281589,24.8164797 86.5615889,9.56647974" id="Fill-6" fill="#5495CF"></path>
                <path d="M70.0419889,67.7885797 L70.6029889,67.7885797 L70.6029889,67.7825797 C70.6419889,67.7825797 70.6809889,67.7885797 70.7209889,67.7885797 C78.9179889,67.7885797 85.5639889,61.0375797 85.5639889,52.7085797 C85.5639889,45.6225797 80.7469889,39.6945797 74.2619889,38.0795797 C72.5959889,28.5015797 64.3809889,21.2205797 54.4759889,21.2205797 C43.3679889,21.2205797 34.3629889,30.3685797 34.3629889,41.6535797 C34.3629889,42.1905797 34.4019889,42.7175797 34.4419889,43.2445797 C28.2899889,43.8285797 23.4729889,49.0845797 23.4729889,55.4875797 C23.4729889,62.2815797 28.8949889,67.7885797 35.5819889,67.7885797 L38.9969889,67.7885797" id="Fill-8" fill="#2167AE"></path>
                <path d="M56.0136889,48.4878797 L56.5936889,48.4898797 L56.5936889,48.4908797 L56.0136889,48.4878797 Z M66.9086889,67.0528797 C66.7046889,66.9068797 66.4526889,66.8418797 66.2046889,66.8578797 L57.5536889,66.8578797 L57.6256889,48.4948797 L57.6256889,48.4908797 C57.6256889,47.7068797 57.0576889,47.5328797 56.9446889,47.5068797 C56.8306889,47.4798797 56.2456889,47.3818797 55.9006889,48.0748797 L42.9306889,73.2778797 C42.7966889,73.4948797 42.7456889,73.7498797 42.7876889,74.0038797 C42.8336889,74.2838797 42.9856889,74.5298797 43.2136889,74.6948797 C43.4186889,74.8428797 43.6786889,74.9148797 43.9206889,74.8918797 L52.5946889,74.8918797 L52.5946889,93.2298797 C52.5946889,93.9948797 53.1156889,94.1768797 53.2756889,94.2148797 C53.3066889,94.2218797 53.3736889,94.2348797 53.4626889,94.2348797 C53.6936889,94.2348797 54.0696889,94.1468797 54.3196889,93.6448797 L67.1966889,68.4708797 C67.3296889,68.2548797 67.3796889,67.9998797 67.3386889,67.7458797 C67.2916889,67.4668797 67.1406889,67.2208797 66.9086889,67.0528797 L66.9086889,67.0528797 Z" id="Fill-10" fill="#91BFE3"></path>
            </g>
        </g>
    </g>
</svg>