<?xml version="1.0" encoding="UTF-8"?>
<svg width="140px" height="140px" viewBox="0 0 140 140" version="1.1" xmlns="http://www.w3.org/2000/svg" xmlns:xlink="http://www.w3.org/1999/xlink">
    <title>pictogram/light/communication/rating/1 very poor</title>
    <g id="pictogram/light/communication/rating/1-very-poor" stroke="none" stroke-width="1" fill="none" fill-rule="evenodd">
        <g id="rating-very-poor" transform="translate(0.000000, 0.000000)">
            <path d="M140,70 C140,108.66 108.66,140 70,140 C31.34,140 0,108.66 0,70 C0,31.34 31.34,0 70,0 C108.66,0 140,31.34 140,70" id="circle" fill="#DDE4E3"></path>
            <g id="picto" transform="translate(20.649792, 44.692600)">
                <path d="M26.2137081,9.7512 C26.0587081,9.2992 25.6597081,8.9762 25.1867081,8.9172 L17.9217081,8.0092 L14.2577081,0.6902 C14.0467081,0.2672 13.6137081,0.0002 13.1407081,0.0002 C12.6677081,0.0002 12.2347081,0.2672 12.0227081,0.6902 L8.35870814,8.0092 L1.09470814,8.9172 C0.621708143,8.9762 0.222708143,9.2992 0.0677081432,9.7512 C-0.0872918568,10.2032 0.0287081432,10.7032 0.365708143,11.0412 L5.82570814,16.5012 L3.99370814,24.7492 C3.88770814,25.2222 4.06570814,25.7122 4.44870814,26.0092 C4.83170814,26.3062 5.35170814,26.3552 5.78270814,26.1332 L13.1407081,22.3722 L20.4987081,26.1332 C20.6787081,26.2252 20.8737081,26.2702 21.0677081,26.2702 C21.3387081,26.2702 21.6097081,26.1822 21.8327081,26.0092 C22.2157081,25.7122 22.3927081,25.2222 22.2877081,24.7492 L20.4557081,16.5012 L25.9157081,11.0412 C26.2527081,10.7032 26.3687081,10.2032 26.2137081,9.7512" id="Fill-4" fill="#91BFE3"></path>
                <path d="M58.3695081,26.009 C58.7525081,25.713 58.9305081,25.222 58.8255081,24.749 L56.9925081,16.501 L62.4525081,11.041 C62.7895081,10.703 62.9055081,10.203 62.7505081,9.751 C62.5955081,9.3 62.1965081,8.976 61.7235081,8.917 L54.4595081,8.009 L50.7955081,0.69 C50.5835081,0.267 50.1505081,0 49.6775081,0 C49.2045081,0 48.7715081,0.267 48.5595081,0.69 L44.8955081,8.009 L37.6325081,8.917 C37.1585081,8.976 36.7595081,9.3 36.6045081,9.751 C36.4495081,10.203 36.5655081,10.703 36.9035081,11.041 L42.3635081,16.501 L40.5305081,24.749 C40.4255081,25.222 40.6025081,25.713 40.9855081,26.009 C41.2095081,26.182 41.4785081,26.27 41.7505081,26.27 C41.9445081,26.27 42.1405081,26.225 42.3195081,26.133 L49.6775081,22.372 L57.0365081,26.133 C57.4675081,26.354 57.9865081,26.305 58.3695081,26.009" id="Fill-6" fill="#2167AE"></path>
                <path d="M98.6327081,10.0379 C98.4777081,9.5859 98.0787081,9.2629 97.6057081,9.2039 L90.3407081,8.2959 L86.6767081,0.9769 C86.4657081,0.5539 86.0327081,0.2869 85.5597081,0.2869 C85.0867081,0.2869 84.6537081,0.5539 84.4417081,0.9769 L80.7777081,8.2959 L73.5137081,9.2039 C73.0407081,9.2629 72.6417081,9.5859 72.4867081,10.0379 C72.3317081,10.4899 72.4477081,10.9899 72.7847081,11.3279 L78.2457081,16.7879 L76.4127081,25.0369 C76.3067081,25.5089 76.4847081,25.9999 76.8677081,26.2959 C77.2507081,26.5929 77.7707081,26.6419 78.2017081,26.4209 L85.5597081,22.6599 L92.9177081,26.4209 C93.0977081,26.5129 93.2927081,26.5581165 93.4867081,26.5581165 C93.7577081,26.5581165 94.0287081,26.4689 94.2517081,26.2959 C94.6347081,25.9999 94.8117081,25.5089 94.7067081,25.0369 L92.8747081,16.7879 L98.3347081,11.3279 C98.6717081,10.9899 98.7877081,10.4899 98.6327081,10.0379" id="Fill-8" fill="#2167AE"></path>
                <path d="M43.6053081,40.4929 L36.3413081,39.5849 L32.6773081,32.2659 C32.4653081,31.8429 32.0323081,31.5759 31.5603081,31.5759 C31.0863081,31.5759 30.6533081,31.8429 30.4413081,32.2659 L26.7773081,39.5849 L19.5143081,40.4929 C19.0403081,40.5519 18.6413081,40.8759 18.4863081,41.3269 C18.3313081,41.7789 18.4473081,42.2799 18.7853081,42.6169 L24.2453081,48.0769 L22.4123081,56.3259 C22.3073081,56.7989 22.4843081,57.2889 22.8673081,57.5859 C23.2513081,57.8829 23.7703081,57.9319 24.2013081,57.7099 L31.5603081,53.9489 L38.9183081,57.7099 C39.0973081,57.8019 39.2923081,57.8469 39.4863081,57.8469 C39.7583081,57.8469 40.0283081,57.7589 40.2513081,57.5859 C40.6343081,57.2889 40.8123081,56.7989 40.7073081,56.3259 L38.8743081,48.0769 L44.3343081,42.6169 C44.6713081,42.2799 44.7873081,41.7789 44.6323081,41.3269 C44.4783081,40.8759 44.0793081,40.5519 43.6053081,40.4929" id="Fill-10" fill="#2167AE"></path>
                <path d="M80.6053081,40.4929 L73.3413081,39.5849 L69.6773081,32.2659 C69.4653081,31.8429 69.0323081,31.5759 68.5603081,31.5759 C68.0863081,31.5759 67.6533081,31.8429 67.4413081,32.2659 L63.7773081,39.5849 L56.5143081,40.4929 C56.0403081,40.5519 55.6413081,40.8759 55.4863081,41.3269 C55.3313081,41.7789 55.4473081,42.2799 55.7853081,42.6169 L61.2453081,48.0769 L59.4123081,56.3259 C59.3073081,56.7989 59.4843081,57.2889 59.8673081,57.5859 C60.2503081,57.8829 60.7713081,57.9319 61.2013081,57.7099 L68.5603081,53.9489 L75.9183081,57.7099 C76.0973081,57.8019 76.2923081,57.8469 76.4863081,57.8469 C76.7583081,57.8469 77.0283081,57.7589 77.2513081,57.5859 C77.6343081,57.2889 77.8123081,56.7989 77.7073081,56.3259 L75.8743081,48.0769 L81.3343081,42.6169 C81.6713081,42.2799 81.7873081,41.7789 81.6323081,41.3269 C81.4783081,40.8759 81.0793081,40.5519 80.6053081,40.4929" id="Fill-12" fill="#2167AE"></path>
            </g>
        </g>
    </g>
</svg>