<?xml version="1.0" encoding="UTF-8"?>
<svg width="140px" height="140px" viewBox="0 0 140 140" version="1.1" xmlns="http://www.w3.org/2000/svg" xmlns:xlink="http://www.w3.org/1999/xlink">
    <title>pictogram/light/environment/disaster/fire</title>
    <g id="pictogram/light/environment/disaster/fire" stroke="none" stroke-width="1" fill="none" fill-rule="evenodd">
        <g id="fire">
            <path d="M140,70 C140,108.66 108.66,140 70,140 C31.34,140 0,108.66 0,70 C0,31.34 31.34,0 70,0 C108.66,0 140,31.34 140,70" id="circle" fill="#DDE4E3"></path>
            <g id="picto" transform="translate(36.232261, 22.363645)">
                <path d="M55.800439,30.7493547 C48.074439,24.0433547 45.088439,13.4063547 47.608439,1.56535473 C47.720439,1.03535473 47.476439,0.505354728 47.023439,0.208354728 C46.569439,-0.0886452722 45.959439,-0.0626452722 45.518439,0.251354728 C39.850439,4.29135473 32.873439,9.26435473 21.610439,25.3223547 C21.385439,22.0923547 21.371439,16.8523547 22.721439,10.9513547 C22.852439,10.3793547 22.589439,9.79035473 22.074439,9.50735473 C21.561439,9.22435473 20.922439,9.31635473 20.508439,9.73235473 C12.613439,17.6853547 9.16643904,23.7483547 8.92043904,24.1883547 C-2.33856096,43.2973547 -4.84556096,71.8453547 12.672439,87.1203547 C18.728439,92.4993547 25.615439,95.2793547 32.785439,95.2793547 C34.035439,95.2793547 35.294439,95.1943547 36.557439,95.0243547 C45.883439,93.7703547 54.907439,87.7143547 60.699439,78.8193547 C71.392439,62.3003547 69.377439,42.5333547 55.800439,30.7493547" id="Fill-4" fill="#2167AE"></path>
                <path d="M44.614439,60.5863547 C43.548439,59.3793547 42.079439,58.3463547 40.525439,57.2513547 C37.072439,54.8193547 33.501439,52.3053547 33.894439,47.6613547 C33.938439,47.1513547 33.681439,46.6623547 33.236439,46.4093547 C32.791439,46.1553547 32.240439,46.1833547 31.822439,46.4803547 C27.618439,49.4773547 24.992439,52.3923547 22.134439,57.2363547 C17.076439,65.8063547 15.822439,78.5083547 23.458439,85.1713547 C26.406439,87.7883547 29.984439,89.1733547 33.704439,89.1733547 C34.376439,89.1733547 35.052439,89.1283547 35.730439,89.0373547 C40.168439,88.4403547 44.097439,85.9723547 46.514439,82.2623547 C51.083439,75.2023547 50.373439,67.0993547 44.614439,60.5863547" id="Fill-6" fill="#91BFE3"></path>
            </g>
        </g>
    </g>
</svg>