<?xml version="1.0" encoding="UTF-8"?>
<svg width="140px" height="140px" viewBox="0 0 140 140" version="1.1" xmlns="http://www.w3.org/2000/svg" xmlns:xlink="http://www.w3.org/1999/xlink">
    <title>pictogram/dark/finance/shareholder/dolar</title>
    <g id="pictogram/dark/finance/shareholder/dolar" stroke="none" stroke-width="1" fill="none" fill-rule="evenodd">
        <g id="shareholder-dolar" transform="translate(-0.000000, 0.000000)">
            <path d="M0,70 C0,31.34 31.34,0 70,0 C108.66,0 140,31.34 140,70 C140,108.66 108.66,140 70,140 C31.34,140 0,108.66 0,70" id="circle" fill="#91BFE3"></path>
            <g id="picto" transform="translate(16.838000, 8.338500)">
                <path d="M53.162,131.6549 C75.638,131.6549 95.624,121.0509 108.432,104.5859 L102.219,88.9329 C99.586,81.0749 97.148,74.4329 95.657,72.2589 C95.146,71.4399 94.675,70.7309 94.288,70.2469 C93.368,69.0949 92.44,68.1189 91.508,67.2649 C91.418,67.1809 91.328,67.1099 91.238,67.0279 C90.998,66.8139 90.756,66.5939 90.515,66.3979 C88.611,64.8079 86.681,63.7709 84.728,63.0829 C83.183,62.5379 81.625,62.2139 80.056,62.0259 C78.987,61.8979 77.914,61.8279 76.837,61.7929 C75.515,61.7499 74.185,61.7526735 72.853,61.7526735 L53.035,61.7549 L39.173,61.7569 L36.74,61.7526735 C30.712,61.7526735 24.777,61.6409 19.079,66.3979 C18.838,66.5939 18.596,66.8139 18.355,67.0279 C18.266,67.1099 18.176,67.1809 18.086,67.2649 C17.153,68.1189 16.225,69.0949 15.306,70.2469 C14.919,70.7309 14.447,71.4399 13.935,72.2589 C12.874,73.8079 11.345,77.5099 9.607,82.2699 L7.10542736e-15,107.1669 C12.838,122.1489 31.884,131.6549 53.162,131.6549" id="Fill-4" fill="#2167AE"></path>
                <path d="M54.828,83.3819 C45.322,83.3819 37.588,91.1159 37.588,100.6219 C37.588,110.1279 45.322,117.8619 54.828,117.8619 C64.335,117.8619 72.068,110.1279 72.068,100.6219 C72.068,91.1159 64.335,83.3819 54.828,83.3819" id="Fill-6" fill="#DAD2BD"></path>
                <path d="M80.5682,27.633 C80.5682,42.894 69.0442,55.266 54.8282,55.266 C40.6122,55.266 29.0882,42.894 29.0882,27.633 C29.0882,12.372 40.6122,0 54.8282,0 C69.0442,0 80.5682,12.372 80.5682,27.633" id="Fill-8" fill="#23366F"></path>
                <path d="M69.0409,61.8677 C69.0409,61.8677 67.6369,55.5437 66.8749,52.3997 C66.3989,50.4377 66.8199,48.7957 68.1489,47.3967 C69.3729,46.1087 70.4829,44.7427 71.1939,43.0387 C73.2169,38.1887 73.7829,33.0787 73.6449,27.8307 C73.6269,27.1367 73.4829,26.6907 73.1399,26.4297 C72.8739,26.2287 72.4929,26.1347 71.9379,26.1377 C64.9379,26.1757 58.9529,22.6757 52.7449,19.9377 C46.2279,17.0627 36.9119,20.8617 35.8789,27.1557 C35.8329,34.6017 36.0609,41.9477 41.5519,47.6547 C42.5509,48.6927 43.0349,50.0907 42.7199,51.5787 C41.9879,55.0227 40.3609,61.8697 40.3609,61.8697 C40.3609,61.8697 44.2619,72.0387 54.8419,72.0387 C65.4229,72.0387 69.0409,61.8677 69.0409,61.8677" id="Fill-10" fill="#5495CF"></path>
                <path d="M57.5233,104.815 C57.5233,106.03 56.7103,107.047 55.6033,107.382 L55.6033,102.248 C56.7103,102.583 57.5233,103.6 57.5233,104.815 M52.3853,97.875 C52.3853,96.753 53.0763,95.791 54.0533,95.386 L54.0533,100.364 C53.0763,99.96 52.3853,98.997 52.3853,97.875 M57.7753,97.875 C57.7753,98.303 58.1223,98.65 58.5503,98.65 C58.9783,98.65 59.3253,98.303 59.3253,97.875 C59.3253,95.713 57.6953,93.944 55.6033,93.683 L55.6033,90.935 C55.6033,90.507 55.2563,90.16 54.8283,90.16 C54.4003,90.16 54.0533,90.507 54.0533,90.935 L54.0533,93.77 C52.2103,94.232 50.8353,95.89 50.8353,97.875 C50.8353,99.86 52.2103,101.518 54.0533,101.98 L54.0533,107.382 C52.9463,107.047 52.1333,106.03 52.1333,104.815 C52.1333,104.387 51.7863,104.04 51.3583,104.04 C50.9303,104.04 50.5833,104.387 50.5833,104.815 C50.5833,106.89 52.0823,108.615 54.0533,108.982 L54.0533,111.755 C54.0533,112.183 54.4003,112.53 54.8283,112.53 C55.2563,112.53 55.6033,112.183 55.6033,111.755 L55.6033,108.982 C57.5743,108.615 59.0733,106.89 59.0733,104.815 C59.0733,102.739 57.5743,101.015 55.6033,100.648 L55.6033,95.233 C56.8393,95.478 57.7753,96.568 57.7753,97.875" id="Fill-12" fill="#2167AE"></path>
            </g>
        </g>
    </g>
</svg>