<?xml version="1.0" encoding="UTF-8"?>
<svg width="140px" height="140px" viewBox="0 0 140 140" version="1.1" xmlns="http://www.w3.org/2000/svg" xmlns:xlink="http://www.w3.org/1999/xlink">
    <title>pictogram/light/mobility/plane/globe</title>
    <defs>
        <path d="M7.10542736e-15,45.769 C7.10542736e-15,71.047 20.491,91.539 45.769,91.539 L45.769,91.539 C71.047,91.539 91.539,71.047 91.539,45.769 L91.539,45.769 C91.539,20.491 71.047,0 45.769,0 L45.769,0 C20.491,0 7.10542736e-15,20.491 7.10542736e-15,45.769 L7.10542736e-15,45.769 Z" id="path-1"></path>
    </defs>
    <g id="pictogram/light/mobility/plane/globe" stroke="none" stroke-width="1" fill="none" fill-rule="evenodd">
        <g id="plane-globe">
            <path d="M140,70 C140,108.66 108.659,140 70,140 C31.34,140 0,108.66 0,70 C0,31.34 31.34,0 70,0 C108.659,0 140,31.34 140,70" id="circle" fill="#DDE4E3"></path>
            <g id="picto" transform="translate(24.230500, 24.519100)">
                <path d="M91.539,45.9172 C91.539,20.6392 71.047,0.1472 45.769,0.1472 C20.491,0.1472 0,20.6392 0,45.9172 C0,71.1952 20.491,91.6872 45.769,91.6872 C71.047,91.6872 91.539,71.1952 91.539,45.9172" id="Fill-4" fill="#2167AE"></path>
                <g id="Group-15" transform="translate(13.046500, 0.000000)" fill="#5495CF">
                    <path d="M32.723,2.5 C28.978,2.5 23.755,19.011 23.755,45.901 C23.755,72.791 28.978,89.303 32.723,89.303 C36.468,89.303 41.691,72.791 41.691,45.901 C41.691,19.011 36.468,2.5 32.723,2.5 M32.723,91.803 C25.195,91.803 21.255,68.711 21.255,45.901 C21.255,23.091 25.195,0 32.723,0 C40.251,0 44.191,23.091 44.191,45.901 C44.191,68.711 40.251,91.803 32.723,91.803" id="Fill-11"></path>
                    <path d="M32.723,2.5 C16.058,2.5 2.5,21.97 2.5,45.901 C2.5,69.833 16.058,89.303 32.723,89.303 C49.387,89.303 62.945,69.833 62.945,45.901 C62.945,21.97 49.387,2.5 32.723,2.5 M32.723,91.803 C14.68,91.803 0,71.211 0,45.901 C0,20.591 14.68,0 32.723,0 C50.766,0 65.445,20.591 65.445,45.901 C65.445,71.211 50.766,91.803 32.723,91.803" id="Fill-13"></path>
                </g>
                <g id="Group-21" transform="translate(0.000100, 0.147900)">
                    <mask id="mask-2" fill="white">
                        <use xlink:href="#path-1"></use>
                    </mask>
                    <g id="Clip-17"></g>
                    <polygon id="Fill-16" fill="#5495CF" mask="url(#mask-2)" points="4.857 24.134 86.734 24.134 86.734 21.634 4.857 21.634"></polygon>
                    <polygon id="Fill-18" fill="#5495CF" mask="url(#mask-2)" points="4.939 69.904 86.465 69.904 86.465 67.404 4.939 67.404"></polygon>
                    <polygon id="Fill-19" fill="#5495CF" mask="url(#mask-2)" points="-0.727 47.082 14.448 47.082 14.448 44.582 -0.727 44.582"></polygon>
                    <polygon id="Fill-20" fill="#5495CF" mask="url(#mask-2)" points="14.448 47.082 93.075 47.082 93.075 44.582 14.448 44.582"></polygon>
                </g>
                <path d="M79.9511,42.8952 L79.9491,42.8942 C78.9791,42.4422 57.4731,32.4242 53.1811,30.4832 C53.1391,27.9142 53.0551,25.4032 52.9371,23.0332 C52.9241,22.5442 52.5391,11.0772 45.7361,11.0112 C38.9991,11.0772 38.6141,22.5442 38.6021,23.0032 C38.4821,25.4002 38.3991,27.9122 38.3561,30.4832 C34.0481,32.4312 12.5581,42.4422 11.5871,42.8952 C10.2861,43.5032 9.4771,44.7512 9.4771,46.1502 L9.4771,50.7982 C9.4771,51.5592 9.8041,52.2532 10.3721,52.7032 C10.9591,53.1672 11.7461,53.3252 12.5261,53.1402 L37.9271,47.1372 L38.4391,47.0152 C38.5451,48.1402 38.6961,49.8512 38.8521,51.6232 C39.3071,56.7712 39.9201,63.6962 40.3601,67.3892 L32.4511,71.4952 C31.5241,71.9282 30.8521,72.9702 30.8521,73.9702 L30.8521,75.6862 C30.8521,76.3202 31.1261,76.9002 31.6031,77.2782 C32.0941,77.6652 32.7451,77.8002 33.4261,77.6402 L41.6151,75.4582 C41.6341,75.5462 41.6521,75.6262 41.6691,75.6982 C42.2761,78.2922 43.1611,79.6112 43.9811,80.2772 C44.7071,80.8682 45.3831,80.9482 45.7681,80.9272 C45.8041,80.9292 45.8411,80.9302 45.8801,80.9302 C46.2451,80.9302 46.8041,80.8312 47.4091,80.3902 C48.2681,79.7642 49.2251,78.4452 49.8681,75.7002 C49.8841,75.6312 49.9011,75.5552 49.9201,75.4712 C52.5041,76.1952 58.0561,77.7632 58.1681,77.7942 C58.8121,77.9472 59.4651,77.8112 59.9541,77.4232 C60.4311,77.0452 60.7061,76.4652 60.7061,75.8322 L60.7061,74.1162 C60.7061,73.1162 60.0341,72.0752 59.1661,71.6692 L51.1761,67.4002 C51.6181,63.7032 52.2311,56.7522 52.6881,51.5852 C52.8441,49.8302 52.9931,48.1332 53.0971,47.0152 L53.3571,47.0772 L79.0101,53.1392 C79.7971,53.3282 80.5801,53.1662 81.1661,52.7032 C81.7341,52.2532 82.0601,51.5592 82.0601,50.7982 L82.0601,46.1502 C82.0601,44.7512 81.2521,43.5032 79.9511,42.8952" id="Fill-22" fill="#91BFE3"></path>
            </g>
        </g>
    </g>
</svg>