<?xml version="1.0" encoding="UTF-8"?>
<svg width="140px" height="140px" viewBox="0 0 140 140" version="1.1" xmlns="http://www.w3.org/2000/svg" xmlns:xlink="http://www.w3.org/1999/xlink">
    <title>pictogram/light/mobility/plane/protection</title>
    <g id="pictogram/light/mobility/plane/protection" stroke="none" stroke-width="1" fill="none" fill-rule="evenodd">
        <g id="plane-protection">
            <path d="M140,70 C140,108.66 108.659,140 70,140 C31.34,140 0,108.66 0,70 C0,31.34 31.34,0 70,0 C108.659,0 140,31.34 140,70" id="circle" fill="#DDE4E3"></path>
            <g id="picto" transform="translate(24.281900, 18.605550)">
                <path d="M90.097,17.60075 L46.468,0.14775 C45.976,-0.04925 45.422,-0.04925 44.931,0.14775 L1.303,17.60075 C0.516,17.91475 0,18.67675 0,19.52275 L0,50.90875 C0,64.86875 6.252,77.87475 17.152,86.59175 L44.405,108.39475 C44.784,108.69975 45.242,108.84975 45.7,108.84975 C46.157,108.84975 46.615,108.69775 46.993,108.39675 L74.248,86.59375 L74.246,86.59375 C85.148,77.87475 91.4,64.86875 91.4,50.90875 L91.4,19.52275 C91.4,18.67675 90.884,17.91475 90.097,17.60075" id="Fill-4" fill="#2167AE"></path>
                <path d="M79.8821,48.73895 L79.8801,48.73795 C78.9101,48.28595 57.4041,38.26795 53.1121,36.32695 C53.0701,33.75795 52.9861,31.24695 52.8681,28.87695 C52.8551,28.38795 52.4701,16.92095 45.6671,16.85495 C38.9301,16.92095 38.5451,28.38795 38.5331,28.84695 C38.4131,31.24395 38.3301,33.75595 38.2871,36.32695 C33.9791,38.27495 12.4891,48.28595 11.5181,48.73895 C10.2171,49.34695 9.4081,50.59495 9.4081,51.99395 L9.4081,56.64195 C9.4081,57.40295 9.7351,58.09695 10.3031,58.54695 C10.8901,59.01095 11.6771,59.16895 12.4571,58.98395 L37.8571,52.98095 L38.3701,52.85895 C38.4761,53.98395 38.6271,55.69495 38.7831,57.46695 C39.2381,62.61495 39.8511,69.53995 40.2911,73.23295 L32.3821,77.33895 C31.4551,77.77195 30.7831,78.81395 30.7831,79.81395 L30.7831,81.52995 C30.7831,82.16395 31.0571,82.74395 31.5341,83.12195 C32.0251,83.50895 32.6761,83.64395 33.3571,83.48395 L41.5461,81.30195 C41.5651,81.38995 41.5831,81.46995 41.6001,81.54195 C42.2071,84.13595 43.0911,85.45495 43.9111,86.12095 C44.6381,86.71195 45.3141,86.79195 45.6991,86.77095 C45.7351,86.77295 45.7721,86.77395 45.8111,86.77395 C46.1761,86.77395 46.7341,86.67495 47.3391,86.23395 C48.1991,85.60795 49.1551,84.28895 49.7991,81.54395 C49.8151,81.47495 49.8321,81.39895 49.8511,81.31495 C52.4351,82.03895 57.9871,83.60695 58.0991,83.63795 C58.7431,83.79095 59.3961,83.65495 59.8851,83.26695 C60.3621,82.88895 60.6371,82.30895 60.6371,81.67595 L60.6371,79.95995 C60.6371,78.95995 59.9651,77.91895 59.0971,77.51295 L51.1071,73.24395 C51.5491,69.54695 52.1621,62.59595 52.6191,57.42895 C52.7751,55.67395 52.9241,53.97695 53.0281,52.85895 L53.2871,52.92095 L78.9411,58.98295 C79.7281,59.17195 80.5111,59.00995 81.0971,58.54695 C81.6651,58.09695 81.9911,57.40295 81.9911,56.64195 L81.9911,51.99395 C81.9911,50.59495 81.1831,49.34695 79.8821,48.73895" id="Fill-6" fill="#91BFE3"></path>
            </g>
        </g>
    </g>
</svg>