<?xml version="1.0" encoding="UTF-8"?>
<svg width="140px" height="140px" viewBox="0 0 140 140" version="1.1" xmlns="http://www.w3.org/2000/svg" xmlns:xlink="http://www.w3.org/1999/xlink">
    <title>pictogram/light/mobility/plane/warning</title>
    <g id="pictogram/light/mobility/plane/warning" stroke="none" stroke-width="1" fill="none" fill-rule="evenodd">
        <g id="plane-warning" transform="translate(-0.000400, 0.000000)">
            <path d="M140,70 C140,108.66 108.66,140 70,140 C31.341,140 0,108.66 0,70 C0,31.34 31.341,0 70,0 C108.66,0 140,31.34 140,70" id="circle" fill="#DDE4E3"></path>
            <g id="picto" transform="translate(12.216800, 14.352400)">
                <path d="M112.209,50.766 L112.205,50.765 C110.662,50.045 76.42,34.095 69.586,31.003 C69.518,26.912 69.385,22.915 69.197,19.141 C69.176,18.364 68.563,0.105 57.731,0 C47.004,0.105 46.392,18.364 46.373,19.095 C46.182,22.91 46.05,26.91 45.981,31.003 C39.121,34.105 4.906,50.045 3.359,50.766 C1.287,51.735 0,53.722 0,55.949 L0,63.349 C0,64.561 0.52,65.666 1.424,66.382 C2.359,67.122 3.612,67.372 4.855,67.078 L45.297,57.519 L46.113,57.326 C46.281,59.117 46.522,61.842 46.771,64.662 C47.496,72.859 48.471,83.885 49.172,89.766 L36.579,96.303 C35.104,96.993 34.033,98.652 34.033,100.244 L34.033,102.976 C34.033,103.985 34.469,104.909 35.23,105.511 C36.01,106.126 37.047,106.342 38.131,106.087 L51.17,102.614 C51.199,102.754 51.229,102.881 51.256,102.995 C52.223,107.125 53.631,109.225 54.937,110.286 C56.093,111.226 57.169,111.353 57.783,111.321 C57.839,111.324 57.898,111.326 57.96,111.326 C58.541,111.326 59.43,111.167 60.395,110.465 C61.764,109.469 63.287,107.369 64.311,102.998 C64.335,102.889 64.363,102.767 64.393,102.634 C68.507,103.786 77.348,106.283 77.525,106.333 C78.551,106.576 79.59,106.359 80.369,105.742 C81.129,105.141 81.566,104.217 81.566,103.208 L81.566,100.475 C81.566,98.884 80.496,97.226 79.114,96.581 L66.393,89.783 C67.097,83.896 68.073,72.83 68.801,64.603 C69.048,61.808 69.286,59.106 69.452,57.326 L69.865,57.424 L110.709,67.077 C111.963,67.377 113.21,67.12 114.143,66.382 C115.048,65.666 115.566,64.561 115.566,63.349 L115.566,55.949 C115.566,53.722 114.279,51.735 112.209,50.766" id="Fill-4" fill="#2167AE"></path>
                <path d="M83.2597,72.5078 L59.1247,28.2608 C58.9477,27.9378 58.6097,27.7368 58.2417,27.7368 C57.8737,27.7368 57.5357,27.9378 57.3597,28.2608 L33.2247,72.5078 C33.0547,72.8198 33.0617,73.1978 33.2417,73.5028 C33.4237,73.8078 33.7517,73.9948 34.1077,73.9948 L82.3767,73.9948 C82.7317,73.9948 83.0597,73.8078 83.2407,73.5028 C83.4217,73.1978 83.4297,72.8198 83.2597,72.5078" id="Fill-6" fill="#91BFE3"></path>
                <path d="M58.2422,57.9053 C57.6862,57.9053 57.2362,57.4553 57.2362,56.8993 L57.2362,41.8943 C57.2362,41.3383 57.6862,40.8883 58.2422,40.8883 C58.7982,40.8883 59.2482,41.3383 59.2482,41.8943 L59.2482,56.8993 C59.2482,57.4553 58.7982,57.9053 58.2422,57.9053" id="Fill-8" fill="#2167AE"></path>
                <path d="M58.2422,67.9739 C57.6862,67.9739 57.2362,67.5239 57.2362,66.9679 L57.2362,62.9329 C57.2362,62.3779 57.6862,61.9279 58.2422,61.9279 C58.7982,61.9279 59.2482,62.3779 59.2482,62.9329 L59.2482,66.9679 C59.2482,67.5239 58.7982,67.9739 58.2422,67.9739" id="Fill-10" fill="#2167AE"></path>
            </g>
        </g>
    </g>
</svg>