<?xml version="1.0" encoding="UTF-8"?>
<svg width="140px" height="140px" viewBox="0 0 140 140" version="1.1" xmlns="http://www.w3.org/2000/svg" xmlns:xlink="http://www.w3.org/1999/xlink">
    <title>pictogram/dark/health/cardio</title>
    <g id="pictogram/dark/health/cardio" stroke="none" stroke-width="1" fill="none" fill-rule="evenodd">
        <g id="cardio" transform="translate(-0.000300, -0.000100)">
            <path d="M70.06,0 C108.753,0 140.12,31.367 140.12,70.06 C140.12,108.752 108.753,140.119 70.06,140.119 C31.367,140.119 0,108.752 0,70.06 C0,31.367 31.367,0 70.06,0" id="circle" fill="#91BFE3"></path>
            <g id="picto" transform="translate(13.465800, 34.329504)">
                <path d="M95.633,7.49909603 C90.813,2.69009603 84.377,0.0810960262 77.619,0.0760960262 C69.682,0.101096026 62.102,3.92109603 57.367,10.267096 C57.109,10.485096 56.132,10.484096 55.902,10.299096 C51.843,4.82209603 45.902,1.26209603 39.172,0.274096026 C32.452,-0.712903974 25.751,0.985096026 20.302,5.05409603 C13.878,9.85109603 10.045,17.514096 10.0499951,25.592096 C10.255,31.640096 12.52,37.508096 16.38,42.057096 C16.86,42.698096 45.931,73.718096 54.779,83.152096 C55.187,83.646096 55.763,83.950096 56.4,84.009096 C56.475,84.017096 56.5499951,84.020096 56.625,84.020096 C57.182,84.020096 57.718,83.826096 58.155,83.461096 C58.506,83.166096 95.522,43.556096 96.816,42.094096 L96.817,42.095096 C100.695,37.477096 102.941,31.609096 103.139,25.528096 C103.118,18.709096 100.452,12.306096 95.633,7.49909603" id="Fill-4" fill="#2167AE"></path>
                <path d="M56.605,61.982296 C56.577,61.982296 56.55,61.981296 56.523,61.980296 C55.691,61.948296 54.595,61.408296 54.242,59.992296 L46.83,30.343296 L40.805,42.392296 C40.253,43.493296 39.009,44.262296 37.779,44.262296 L2.25,44.262296 C1.008,44.262296 -7.10542736e-15,43.254296 -7.10542736e-15,42.012296 C-7.10542736e-15,40.769296 1.008,39.762296 2.25,39.762296 L37.089,39.762296 L45.212,23.516296 C45.824,22.293296 46.918,21.949296 47.741,22.044296 C48.562,22.134296 49.558,22.702296 49.89,24.030296 L56.903,52.084296 L63.296,32.907296 C63.645,31.857296 64.498,31.161296 65.52,31.089296 C66.54,31.008296 67.484,31.586296 67.978,32.576296 L75.326,47.270296 L81.68,40.916296 C82.37,40.225296 83.489,39.762296 84.466,39.762296 L110.938,39.762296 C112.181,39.762296 113.188,40.769296 113.188,42.012296 C113.188,43.254296 112.181,44.262296 110.938,44.262296 L84.698,44.262296 L76.796,52.164296 C76.149,52.812296 75.277,53.105296 74.403,52.960296 C73.53,52.819296 72.794,52.268296 72.384,51.449296 L66.068,38.819296 L58.95,60.173296 C58.504,61.513296 57.427,61.981296 56.605,61.982296" id="Fill-6" fill="#DAD2BD"></path>
            </g>
        </g>
    </g>
</svg>