<?xml version="1.0" encoding="UTF-8"?>
<svg width="140px" height="140px" viewBox="0 0 140 140" version="1.1" xmlns="http://www.w3.org/2000/svg" xmlns:xlink="http://www.w3.org/1999/xlink">
    <title>pictogram/dark/environment/emission/decrease </title>
    <g id="pictogram/dark/environment/emission/decrease-" stroke="none" stroke-width="1" fill="none" fill-rule="evenodd">
        <g id="emission-decrease-">
            <path d="M140,70 C140,108.66 108.66,140 70,140 C31.34,140 0,108.66 0,70 C0,31.34 31.34,0 70,0 C108.66,0 140,31.34 140,70" id="circle" fill="#91BFE3"></path>
            <g id="picto" transform="translate(21.582400, 17.444900)">
                <path d="M63.0304,96.0756 L70.7374,104.7066 C70.7434,104.7136 70.7524,104.7186 70.7594,104.7256 C70.8074,104.7776 70.8614,104.8236 70.9184,104.8666 C70.9224,104.8696 70.9254,104.8736 70.9294,104.8756 C71.1294,105.0216 71.3734,105.1106 71.6394,105.1106 C71.9064,105.1106 72.1504,105.0216 72.3504,104.8756 C72.3544,104.8736 72.3574,104.8696 72.3614,104.8666 C72.4184,104.8236 72.4724,104.7776 72.5214,104.7256 C72.5284,104.7186 72.5364,104.7136 72.5434,104.7056 L80.2494,96.0756 C80.6954,95.5766 80.6514,94.8116 80.1534,94.3666 C79.6544,93.9206 78.8884,93.9646 78.4434,94.4626 L72.8504,100.7266 L72.8504,82.3156 C72.8504,81.6476 72.3084,81.1056 71.6394,81.1056 C70.9714,81.1056 70.4294,81.6476 70.4294,82.3156 L70.4294,100.7266 L64.8364,94.4626 C64.5964,94.1956 64.2654,94.0586 63.9324,94.0586 C63.6454,94.0586 63.3574,94.1596 63.1274,94.3666 C62.6284,94.8116 62.5854,95.5766 63.0304,96.0756" id="Fill-3" fill="#DAD2BD"></path>
                <path d="M39.7838,95.6934 L47.4908,104.3244 C47.4968,104.3314 47.5058,104.3364 47.5128,104.3434 C47.5608,104.3954 47.6148,104.4414 47.6718,104.4844 C47.6758,104.4874 47.6788,104.4914 47.6828,104.4944 C47.8828,104.6394 48.1268,104.7284 48.3928,104.7284 C48.6598,104.7284 48.9038,104.6394 49.1038,104.4944 C49.1078,104.4914 49.1108,104.4874 49.1148,104.4844 C49.1718,104.4424 49.2258,104.3954 49.2748,104.3434 C49.2818,104.3364 49.2898,104.3314 49.2968,104.3234 L57.0028,95.6934 C57.4488,95.1944 57.4048,94.4294 56.9068,93.9844 C56.4078,93.5384 55.6418,93.5824 55.1968,94.0804 L49.6038,100.3444 L49.6038,81.9334 C49.6038,81.2654 49.0618,80.7234 48.3928,80.7234 C47.7248,80.7234 47.1828,81.2654 47.1828,81.9334 L47.1828,100.3444 L41.5898,94.0804 C41.3508,93.8134 41.0188,93.6764 40.6858,93.6764 C40.3988,93.6764 40.1118,93.7774 39.8808,93.9844 C39.3818,94.4294 39.3388,95.1944 39.7838,95.6934" id="Fill-5" fill="#DAD2BD"></path>
                <path d="M16.5372,95.6934 L24.2442,104.3244 C24.2502,104.3314 24.2592,104.3364 24.2662,104.3434 C24.3142,104.3954 24.3682,104.4414 24.4252,104.4844 C24.4292,104.4874 24.4332,104.4914 24.4362,104.4944 C24.6362,104.6394 24.8802,104.7284 25.1472,104.7284 C25.4132,104.7284 25.6572,104.6394 25.8572,104.4944 C25.8612,104.4914 25.8642,104.4874 25.8682,104.4844 C25.9252,104.4424 25.9792,104.3954 26.0282,104.3434 C26.0352,104.3364 26.0432,104.3314 26.0502,104.3234 L33.7562,95.6934 C34.2022,95.1944 34.1582,94.4294 33.6602,93.9844 C33.1612,93.5384 32.3952,93.5824 31.9502,94.0804 L26.3572,100.3444 L26.3572,81.9334 C26.3572,81.2654 25.8152,80.7234 25.1472,80.7234 C24.4782,80.7234 23.9362,81.2654 23.9362,81.9334 L23.9362,100.3444 L18.3432,94.0804 C18.1042,93.8134 17.7722,93.6764 17.4392,93.6764 C17.1522,93.6764 16.8652,93.7774 16.6342,93.9844 C16.1352,94.4294 16.0922,95.1944 16.5372,95.6934" id="Fill-7" fill="#DAD2BD"></path>
                <path d="M79.652,25.631 C76.484,10.706 63.51,0 48.354,0 C30.681,0 16.304,14.592 16.304,32.529 C16.304,32.77 16.309,33.009 16.318,33.246 C6.893,35.032 -7.10542736e-15,43.319 -7.10542736e-15,53.241 C-7.10542736e-15,64.464 9.001,73.595 20.066,73.595 L72.677,73.595 C72.792,73.595 72.905,73.594 73.02,73.592 L74.436,73.586 L74.436,73.53 C86.939,72.613 96.836,61.998 96.836,49.082 C96.836,38.202 89.832,28.733 79.652,25.631" id="Fill-9" fill="#2167AE"></path>
                <path d="M36.0948,51.8063 C34.2398,51.8063 32.6368,51.3943 31.2838,50.5713 C29.9328,49.7483 28.8968,48.6133 28.1778,47.1653 C27.4578,45.7183 27.0988,44.0763 27.0988,42.2383 C27.0988,40.4013 27.4538,38.7583 28.1648,37.3113 C28.8748,35.8643 29.9068,34.7293 31.2588,33.9053 C32.6108,33.0823 34.2048,32.6703 36.0428,32.6703 C37.4288,32.6703 38.6768,32.9393 39.7858,33.4763 C40.8958,34.0133 41.8018,34.7763 42.5038,35.7643 C43.2058,36.7523 43.6778,37.9223 43.9208,39.2743 L40.9048,39.2743 C40.5748,37.9923 40.0078,37.0213 39.2008,36.3623 C38.3958,35.7033 37.3338,35.3743 36.0168,35.3743 C34.7858,35.3743 33.7288,35.6733 32.8448,36.2713 C31.9608,36.8683 31.2838,37.6933 30.8168,38.7413 C30.3488,39.7903 30.1148,40.9553 30.1148,42.2383 C30.1148,43.6083 30.3438,44.8123 30.8038,45.8523 C31.2628,46.8923 31.9388,47.6943 32.8318,48.2573 C33.7238,48.8213 34.7948,49.1023 36.0428,49.1023 C36.8918,49.1023 37.6508,48.9423 38.3178,48.6213 C38.9848,48.3003 39.5348,47.8413 39.9688,47.2433 C40.4018,46.6453 40.7138,45.9393 40.9048,45.1243 L43.8428,45.1243 C43.6518,46.4763 43.2138,47.6553 42.5298,48.6603 C41.8448,49.6653 40.9518,50.4413 39.8518,50.9873 C38.7508,51.5333 37.4988,51.8063 36.0948,51.8063" id="Fill-11" fill="#DAD2BD"></path>
                <path d="M55.0743,49.1022 C56.2873,49.1022 57.3413,48.8162 58.2333,48.2442 C59.1263,47.6722 59.8103,46.8752 60.2873,45.8522 C60.7633,44.8302 61.0033,43.6422 61.0033,42.2902 C61.0033,40.9382 60.7633,39.7422 60.2873,38.7022 C59.8103,37.6632 59.1213,36.8472 58.2203,36.2582 C57.3193,35.6692 56.2703,35.3742 55.0743,35.3742 C53.8953,35.3742 52.8553,35.6692 51.9543,36.2582 C51.0533,36.8472 50.3553,37.6632 49.8613,38.7022 C49.3673,39.7422 49.1203,40.9382 49.1203,42.2902 C49.1203,43.6422 49.3633,44.8302 49.8483,45.8522 C50.3343,46.8752 51.0273,47.6722 51.9283,48.2442 C52.8293,48.8162 53.8793,49.1022 55.0743,49.1022 M55.1003,51.8062 C53.2803,51.8062 51.6903,51.3992 50.3293,50.5842 C48.9693,49.7702 47.9253,48.6432 47.1963,47.2052 C46.4693,45.7652 46.1043,44.1272 46.1043,42.2902 C46.1043,40.4362 46.4693,38.7802 47.1963,37.3242 C47.9253,35.8682 48.9693,34.7292 50.3293,33.9052 C51.6903,33.0822 53.2803,32.6702 55.1003,32.6702 C56.9213,32.6702 58.5023,33.0822 59.8453,33.9052 C61.1883,34.7292 62.2243,35.8682 62.9523,37.3242 C63.6803,38.7802 64.0453,40.4362 64.0453,42.2902 C64.0453,44.1272 63.6843,45.7652 62.9663,47.2052 C62.2463,48.6432 61.2103,49.7702 59.8583,50.5842 C58.5073,51.3992 56.9213,51.8062 55.1003,51.8062" id="Fill-13" fill="#DAD2BD"></path>
                <path d="M65.9942,51.3903 L65.9942,49.5183 L70.2062,46.0603 L70.2452,46.0213 C70.2542,46.0123 70.2582,45.9993 70.2582,45.9823 C70.7612,45.5833 71.1382,45.2193 71.3892,44.8903 C71.6402,44.5613 71.7652,44.1713 71.7652,43.7203 C71.7652,43.2173 71.6002,42.8153 71.2722,42.5113 C70.9422,42.2083 70.5012,42.0563 69.9462,42.0563 C69.2692,42.0563 68.7802,42.2603 68.4762,42.6673 C68.1742,43.0753 68.0222,43.5733 68.0222,44.1623 L65.8112,44.1623 C65.8112,43.0533 66.1542,42.1083 66.8392,41.3283 C67.5232,40.5483 68.5512,40.1583 69.9202,40.1583 C71.1162,40.1583 72.0822,40.4793 72.8192,41.1203 C73.5562,41.7613 73.9242,42.6023 73.9242,43.6423 C73.9242,44.5263 73.7202,45.2543 73.3132,45.8263 C72.9052,46.3983 72.3202,46.9883 71.5572,47.5943 L71.5062,47.6463 L69.2442,49.5183 L73.9502,49.5183 L73.9502,51.3903 L65.9942,51.3903 Z" id="Fill-15" fill="#DAD2BD"></path>
            </g>
        </g>
    </g>
</svg>