<?xml version="1.0" encoding="UTF-8"?>
<svg width="140px" height="140px" viewBox="0 0 140 140" version="1.1" xmlns="http://www.w3.org/2000/svg" xmlns:xlink="http://www.w3.org/1999/xlink">
    <title>pictogram/dark/environment/emission/increase </title>
    <g id="pictogram/dark/environment/emission/increase-" stroke="none" stroke-width="1" fill="none" fill-rule="evenodd">
        <g id="emission-increase-">
            <path d="M140,70 C140,108.66 108.66,140 70,140 C31.34,140 0,108.66 0,70 C0,31.34 31.34,0 70,0 C108.66,0 140,31.34 140,70" id="circle" fill="#91BFE3"></path>
            <g id="picto" transform="translate(21.282600, 13.912100)">
                <path d="M79.652,33.3811 C76.484,18.4561 63.51,7.7501 48.354,7.7501 C30.681,7.7501 16.304,22.3421 16.304,40.2791 C16.304,40.5201 16.309,40.7591 16.318,40.9961 C6.893,42.7821 -7.10542736e-15,51.0691 -7.10542736e-15,60.9911 C-7.10542736e-15,72.2141 9.001,81.3451 20.066,81.3451 L72.677,81.3451 C72.792,81.3451 72.905,81.3441 73.02,81.3421 L74.436,81.3361 L74.436,81.2801 C86.939,80.3631 96.836,69.7481 96.836,56.8321 C96.836,45.9521 89.832,36.4831 79.652,33.3811" id="Fill-3" fill="#2167AE"></path>
                <path d="M36.0948,59.5569 C34.2398,59.5569 32.6368,59.1449 31.2838,58.3219 C29.9328,57.4989 28.8968,56.3639 28.1778,54.9159 C27.4578,53.4689 27.0988,51.8269 27.0988,49.9889 C27.0988,48.1519 27.4538,46.5089 28.1648,45.0619 C28.8748,43.6149 29.9068,42.4799 31.2588,41.6559 C32.6108,40.8329 34.2048,40.4209 36.0428,40.4209 C37.4288,40.4209 38.6768,40.6899 39.7858,41.2269 C40.8958,41.7639 41.8018,42.5269 42.5038,43.5149 C43.2058,44.5029 43.6778,45.6729 43.9208,47.0249 L40.9048,47.0249 C40.5748,45.7429 40.0078,44.7719 39.2008,44.1129 C38.3958,43.4539 37.3338,43.1249 36.0168,43.1249 C34.7858,43.1249 33.7288,43.4239 32.8448,44.0219 C31.9608,44.6189 31.2838,45.4439 30.8168,46.4919 C30.3488,47.5409 30.1148,48.7059 30.1148,49.9889 C30.1148,51.3589 30.3438,52.5629 30.8038,53.6029 C31.2628,54.6429 31.9388,55.4449 32.8318,56.0079 C33.7238,56.5719 34.7948,56.8529 36.0428,56.8529 C36.8918,56.8529 37.6508,56.6929 38.3178,56.3719 C38.9848,56.0509 39.5348,55.5919 39.9688,54.9939 C40.4018,54.3959 40.7138,53.6899 40.9048,52.8749 L43.8428,52.8749 C43.6518,54.2269 43.2138,55.4059 42.5298,56.4109 C41.8448,57.4159 40.9518,58.1919 39.8518,58.7379 C38.7508,59.2839 37.4988,59.5569 36.0948,59.5569" id="Fill-5" fill="#DAD2BD"></path>
                <path d="M55.0743,56.8528 C56.2873,56.8528 57.3413,56.5668 58.2333,55.9948 C59.1263,55.4228 59.8103,54.6258 60.2873,53.6028 C60.7633,52.5808 61.0033,51.3928 61.0033,50.0408 C61.0033,48.6888 60.7633,47.4928 60.2873,46.4528 C59.8103,45.4138 59.1213,44.5978 58.2203,44.0088 C57.3193,43.4198 56.2703,43.1248 55.0743,43.1248 C53.8953,43.1248 52.8553,43.4198 51.9543,44.0088 C51.0533,44.5978 50.3553,45.4138 49.8613,46.4528 C49.3673,47.4928 49.1203,48.6888 49.1203,50.0408 C49.1203,51.3928 49.3633,52.5808 49.8483,53.6028 C50.3343,54.6258 51.0273,55.4228 51.9283,55.9948 C52.8293,56.5668 53.8793,56.8528 55.0743,56.8528 M55.1003,59.5568 C53.2803,59.5568 51.6903,59.1498 50.3293,58.3348 C48.9693,57.5208 47.9253,56.3938 47.1963,54.9558 C46.4693,53.5158 46.1043,51.8778 46.1043,50.0408 C46.1043,48.1868 46.4693,46.5308 47.1963,45.0748 C47.9253,43.6188 48.9693,42.4798 50.3293,41.6558 C51.6903,40.8328 53.2803,40.4208 55.1003,40.4208 C56.9213,40.4208 58.5023,40.8328 59.8453,41.6558 C61.1883,42.4798 62.2243,43.6188 62.9523,45.0748 C63.6803,46.5308 64.0453,48.1868 64.0453,50.0408 C64.0453,51.8778 63.6843,53.5158 62.9663,54.9558 C62.2463,56.3938 61.2103,57.5208 59.8583,58.3348 C58.5073,59.1498 56.9213,59.5568 55.1003,59.5568" id="Fill-7" fill="#DAD2BD"></path>
                <path d="M65.9942,59.1408 L65.9942,57.2688 L70.2062,53.8108 L70.2452,53.7718 C70.2542,53.7628 70.2582,53.7498 70.2582,53.7328 C70.7612,53.3338 71.1382,52.9698 71.3892,52.6408 C71.6402,52.3118 71.7652,51.9218 71.7652,51.4708 C71.7652,50.9678 71.6002,50.5658 71.2722,50.2618 C70.9422,49.9588 70.5012,49.8068 69.9462,49.8068 C69.2692,49.8068 68.7802,50.0108 68.4762,50.4178 C68.1742,50.8258 68.0222,51.3238 68.0222,51.9128 L65.8112,51.9128 C65.8112,50.8038 66.1542,49.8588 66.8392,49.0788 C67.5232,48.2988 68.5512,47.9088 69.9202,47.9088 C71.1162,47.9088 72.0822,48.2298 72.8192,48.8708 C73.5562,49.5118 73.9242,50.3528 73.9242,51.3928 C73.9242,52.2768 73.7202,53.0048 73.3132,53.5768 C72.9052,54.1488 72.3202,54.7388 71.5572,55.3448 L71.5062,55.3968 L69.2442,57.2688 L73.9502,57.2688 L73.9502,59.1408 L65.9942,59.1408 Z" id="Fill-9" fill="#DAD2BD"></path>
                <path d="M13.5177,32.9212 C13.5177,35.3632 11.5377,37.3432 9.0957,37.3432 C6.6527,37.3432 4.6727,35.3632 4.6727,32.9212 C4.6727,30.4782 6.6527,28.4992 9.0957,28.4992 C11.5377,28.4992 13.5177,30.4782 13.5177,32.9212" id="Fill-11" fill="#2167AE"></path>
                <path d="M91.9488,23.3014 C91.9488,25.7434 89.9688,27.7234 87.5268,27.7234 C85.0838,27.7234 83.1038,25.7434 83.1038,23.3014 C83.1038,20.8594 85.0838,18.8794 87.5268,18.8794 C89.9688,18.8794 91.9488,20.8594 91.9488,23.3014" id="Fill-13" fill="#2167AE"></path>
                <path d="M79.8067,16.1709 C79.8067,17.6669 78.5947,18.8789 77.0987,18.8789 C75.6027,18.8789 74.3907,17.6669 74.3907,16.1709 C74.3907,14.6749 75.6027,13.4629 77.0987,13.4629 C78.5947,13.4629 79.8067,14.6749 79.8067,16.1709" id="Fill-15" fill="#2167AE"></path>
                <path d="M37.1896,2.708 C37.1896,4.204 35.9776,5.416 34.4816,5.416 C32.9856,5.416 31.7736,4.204 31.7736,2.708 C31.7736,1.212 32.9856,0 34.4816,0 C35.9776,0 37.1896,1.212 37.1896,2.708" id="Fill-17" fill="#2167AE"></path>
                <path d="M31.1329,8.4038 C31.1329,9.4188 30.3099,10.2418 29.2949,10.2418 C28.2799,10.2418 27.4569,9.4188 27.4569,8.4038 C27.4569,7.3888 28.2799,6.5658 29.2949,6.5658 C30.3099,6.5658 31.1329,7.3888 31.1329,8.4038" id="Fill-19" fill="#2167AE"></path>
                <path d="M33.7809,96.8236 L26.0739,88.1926 C26.0679,88.1856 26.0589,88.1806 26.0519,88.1736 C26.0029,88.1216 25.9499,88.0756 25.8929,88.0326 C25.8889,88.0296 25.8849,88.0256 25.8809,88.0226 C25.6809,87.8776 25.4369,87.7886 25.1709,87.7886 C24.9049,87.7886 24.6599,87.8776 24.4609,88.0226 C24.4569,88.0256 24.4529,88.0296 24.4489,88.0326 C24.3919,88.0746 24.3389,88.1216 24.2899,88.1736 C24.2829,88.1806 24.2749,88.1856 24.2679,88.1926 L16.5619,96.8236 C16.1159,97.3226 16.1589,98.0876 16.6579,98.5326 C17.1569,98.9786 17.9229,98.9346 18.3669,98.4366 L23.9609,92.1726 L23.9609,110.5836 C23.9609,111.2516 24.5029,111.7936 25.1709,111.7936 C25.8399,111.7936 26.3819,111.2516 26.3819,110.5836 L26.3819,92.1726 L31.9749,98.4366 C32.2139,98.7036 32.5459,98.8406 32.8779,98.8406 C33.1649,98.8406 33.4529,98.7396 33.6839,98.5326 C34.1829,98.0876 34.2259,97.3226 33.7809,96.8236" id="Fill-21" fill="#DAD2BD"></path>
                <path d="M57.0274,97.2057 L49.3204,88.5747 C49.3144,88.5677 49.3054,88.5627 49.2984,88.5557 C49.2494,88.5037 49.1964,88.4577 49.1394,88.4147 C49.1354,88.4117 49.1314,88.4077 49.1274,88.4057 C48.9274,88.2597 48.6834,88.1707 48.4174,88.1707 C48.1514,88.1707 47.9064,88.2597 47.7074,88.4057 C47.7034,88.4077 47.6994,88.4117 47.6954,88.4147 C47.6384,88.4577 47.5854,88.5037 47.5364,88.5557 C47.5294,88.5627 47.5214,88.5677 47.5144,88.5757 L39.8084,97.2057 C39.3624,97.7047 39.4054,98.4697 39.9044,98.9147 C40.4034,99.3607 41.1694,99.3167 41.6134,98.8187 L47.2064,92.5547 L47.2064,110.9657 C47.2064,111.6337 47.7484,112.1757 48.4174,112.1757 C49.0864,112.1757 49.6284,111.6337 49.6284,110.9657 L49.6284,92.5547 L55.2214,98.8187 C55.4604,99.0867 55.7924,99.2227 56.1244,99.2227 C56.4114,99.2227 56.6994,99.1217 56.9304,98.9147 C57.4294,98.4697 57.4724,97.7047 57.0274,97.2057" id="Fill-23" fill="#DAD2BD"></path>
                <path d="M80.2735,97.2057 L72.5665,88.5747 C72.5605,88.5677 72.5515,88.5627 72.5445,88.5557 C72.4965,88.5037 72.4425,88.4577 72.3855,88.4147 C72.3815,88.4117 72.3785,88.4077 72.3745,88.4057 C72.1745,88.2597 71.9305,88.1707 71.6645,88.1707 C71.3975,88.1707 71.1535,88.2597 70.9535,88.4057 C70.9495,88.4077 70.9465,88.4117 70.9425,88.4147 C70.8855,88.4577 70.8315,88.5037 70.7825,88.5557 C70.7755,88.5627 70.7675,88.5677 70.7605,88.5757 L63.0545,97.2057 C62.6085,97.7047 62.6525,98.4697 63.1505,98.9147 C63.6495,99.3607 64.4155,99.3167 64.8605,98.8187 L70.4535,92.5547 L70.4535,110.9657 C70.4535,111.6337 70.9955,112.1757 71.6645,112.1757 C72.3325,112.1757 72.8745,111.6337 72.8745,110.9657 L72.8745,92.5547 L78.4675,98.8187 C78.7075,99.0867 79.0385,99.2227 79.3715,99.2227 C79.6585,99.2227 79.9465,99.1217 80.1765,98.9147 C80.6755,98.4697 80.7185,97.7047 80.2735,97.2057" id="Fill-25" fill="#DAD2BD"></path>
            </g>
        </g>
    </g>
</svg>