<?xml version="1.0" encoding="UTF-8"?>
<svg width="140px" height="140px" viewBox="0 0 140 140" version="1.1" xmlns="http://www.w3.org/2000/svg" xmlns:xlink="http://www.w3.org/1999/xlink">
    <title>pictogram/light/people/gesture/empowerment/global</title>
    <defs>
        <polygon id="path-1" points="0 0 139.9998 0 139.9998 139.9998 0 139.9998"></polygon>
    </defs>
    <g id="pictogram/light/people/gesture/empowerment/global" stroke="none" stroke-width="1" fill="none" fill-rule="evenodd">
        <g id="gesture-empowerment-global" transform="translate(0.000000, 0.000000)">
            <g id="Group-3">
                <mask id="mask-2" fill="white">
                    <use xlink:href="#path-1"></use>
                </mask>
                <g id="Clip-2"></g>
                <path d="M139.9998,70 C139.9998,108.66 108.6598,140 69.9998,140 C31.3398,140 -0.0002,108.66 -0.0002,70 C-0.0002,31.34 31.3398,0 69.9998,0 C108.6598,0 139.9998,31.34 139.9998,70" id="Fill-1" fill="#DDE4E3" mask="url(#mask-2)"></path>
            </g>
            <g id="Group-34" transform="translate(0.000000, 6.442800)">
                <path d="M131.5423,58.316 C133.9833,57.642 137.1823,55.785 139.2913,53.594 C135.8923,29.744 120.4733,9.77 99.3633,0 C99.2743,0.008 94.2473,2.468 92.1573,4.228 C90.7533,5.41 89.5063,6.771 90.0013,8.809 C90.4623,10.705 92.2523,10.345 93.5823,10.578 C95.3573,10.888 95.6373,11.779 95.0283,13.29 C94.1923,15.366 92.4323,16.391 90.5353,17.199 C88.6633,17.996 86.6803,18.543 84.8363,19.396 C83.5833,19.976 82.6343,20.781 83.2943,22.603 C84.6863,26.439 83.7363,27.611 79.5063,27.528 C77.6623,27.491 76.2623,27.886 76.0883,30.013 C75.9213,32.046 76.6613,33.483 78.7983,33.99 C80.9463,34.5 83.3573,33.378 84.8473,31.11 C85.5923,29.975 86.2063,28.726 87.0953,27.718 C89.6163,24.859 95.0503,25.581 96.7263,28.882 C97.2823,29.978 96.9433,32.195 98.8473,31.762 C100.3773,31.415 99.4343,29.547 99.5953,28.36 C99.7053,27.549 99.8533,26.767 100.8053,26.677 C101.8103,26.582 102.3933,27.272 102.6173,28.146 C102.8473,29.045 102.8973,29.99 103.0273,30.916 C103.2653,32.614 104.0513,33.238 105.6003,32.157 C106.2853,31.679 107.1293,31.264 107.6763,31.922 C109.4803,34.093 111.9343,34.102 114.4023,34.332 C115.7833,34.46 117.2313,34.981 117.3003,36.671 C117.3623,38.183 116.2633,39.124 114.9793,39.75 C113.1803,40.626 111.5133,39.88 109.8223,39.29 C107.4083,38.447 104.8453,37.32 102.5643,39.257 C100.9073,40.665 99.5263,40.421 97.9553,39.45 C96.2723,38.41 94.7413,37.219 93.9673,35.3 C93.4733,34.073 92.4463,33.238 91.2483,33.275 C86.7303,33.415 82.4143,34.649 78.1613,36.093 C77.8623,36.194 77.5293,36.467 77.3963,36.748 C75.4443,40.881 72.2253,44.123 69.6643,47.825 C69.2933,48.36 69.1883,49.094 69.0163,49.75 C67.9173,53.919 68.4383,58.034 69.6623,62.059 C71.3183,67.507 74.0023,69.327 79.6733,68.93 C81.3573,68.812 83.0183,68.367 84.6873,68.058 C90.2363,67.029 93.3553,69.491 93.5413,75.105 C93.5963,76.762 93.7723,78.491 94.8883,79.667 C97.5013,82.422 97.5673,85.327 96.1053,88.589 C95.1453,90.734 95.2773,92.856 96.5483,94.926 C97.4863,96.456 97.9723,98.165 98.1773,99.98 C98.4063,101.999 98.6843,104.037 99.2123,105.994 C100.3173,110.081 103.7023,111.039 106.9793,111.045 C109.0193,110.822 111.1813,110.115 112.5573,107.945 C115.3653,104.735 118.2163,101.57 118.1203,96.871 C118.0933,95.6 118.9533,94.676 120.0443,94.038 C123.3273,92.121 124.0003,89.159 123.3963,85.686 C123.2063,84.598 123.0543,83.501 122.8033,82.428 C122.2073,79.88 122.8813,77.717 124.6993,75.889 C126.6803,73.898 128.7393,71.98 130.6603,69.932 C132.4963,67.975 133.9513,65.744 133.8153,62.915 C133.7333,61.201 133.1363,59.913 130.9123,60.57 C129.3283,61.038 127.6693,61.254 125.3603,61.722 C127.3403,59.422 129.4853,58.884 131.5423,58.316" id="Fill-4" fill="#91BFE3"></path>
                <path d="M21.5926,13.3111 C23.8636,12.8411 25.8176,11.5811 27.9516,10.7731 C28.5486,10.5471 29.1916,9.9821 29.8176,10.6721 C30.4056,11.3191 29.9626,11.8791 29.6306,12.5041 C27.8126,15.9371 25.6146,19.1301 23.1276,22.0821 C20.2836,25.4581 15.7636,24.1151 15.1806,20.2251 C15.1336,20.2161 15.0866,20.2121 15.0396,20.2041 C6.2556,31.3251 0.7756,45.1751 0.0786,60.2751 C0.1336,60.3041 0.1866,60.3341 0.2426,60.3621 C1.0646,60.0431 0.8716,59.2611 1.0516,58.6371 C1.8626,55.8361 3.4746,53.7001 6.4606,53.1521 C9.3006,52.6311 11.9166,53.0841 13.4806,55.9721 C13.6786,56.3371 13.9856,56.6571 14.2876,56.9511 C14.8666,57.5141 15.6136,57.9641 16.3456,57.4931 C17.3836,56.8251 16.4246,56.1961 16.1046,55.5871 C14.5476,52.6241 15.0086,49.7801 17.3006,47.7161 C20.9286,44.4471 23.0576,39.9211 26.8126,36.6651 C28.6816,35.0451 29.8506,32.8321 32.7846,33.1621 C33.6746,33.2611 34.5096,32.9451 34.7376,31.9161 C34.9306,31.0381 34.4446,30.4981 33.7146,30.0701 C32.9076,29.5981 31.9436,29.0791 32.4096,27.9211 C32.8376,26.8581 33.9216,27.0021 34.8476,26.9691 C35.2726,26.9541 35.7006,27.0031 36.1226,26.9691 C38.8146,26.7511 40.6336,24.3741 40.2616,21.5771 C39.7526,17.7391 37.5126,15.4611 34.6786,16.1511 C32.9026,16.5841 31.8666,15.8951 30.6306,14.4571 C31.2986,14.4571 31.6296,14.4141 31.9456,14.4641 C35.3486,15.0031 37.9456,14.0001 38.6856,11.8421 C39.5406,9.3541 38.2296,6.6461 35.2966,4.8771 C34.7286,4.5351 34.0806,4.3031 33.7706,3.6511 C29.2996,6.3601 25.1586,9.5591 21.4166,13.1671 C21.4766,13.2151 21.5286,13.2641 21.5926,13.3111" id="Fill-6" fill="#91BFE3"></path>
                <path d="M59.034,81.9463 C57.756,81.3113 56.406,80.8483 54.936,80.6193 C51.946,80.1543 48.488,80.3813 46.352,77.9473 C44.044,75.3173 41.976,72.8203 38.05,73.2863 C37.847,73.3103 37.569,73.0923 37.394,72.9183 C34.029,69.5783 29.904,70.3143 25.851,70.8033 C23.76,71.0553 21.56,71.0713 19.806,72.5053 C17.034,74.7723 14.117,73.9883 12.802,70.5513 C12.362,69.4043 11.866,68.1063 10.601,67.9693 C7.974,67.6873 8.576,66.3423 9.275,64.8043 C9.656,63.9673 10.214,63.1033 9.171,62.3093 C8.106,61.4993 7.265,62.0943 6.434,62.7343 C6.233,62.8893 6.059,63.0803 5.883,63.2653 C2.728,66.5643 2.555,66.5633 0.222,63.2163 C0.147,63.2193 0.077,63.2273 0.004,63.2323 C0.004,63.3403 0,63.4483 0,63.5573 C0,66.0663 0.135,68.5433 0.392,70.9843 C0.44,70.9883 0.485,70.9953 0.533,71.0003 C4.984,71.2113 9.303,71.7013 12.702,75.1343 C13.777,76.2203 15.281,76.6003 16.902,76.6703 C19.308,76.7743 20.722,78.7443 19.659,80.6323 C16.767,85.7643 18.952,90.0753 21.585,94.3503 C22.903,96.4893 24.814,98.0913 26.961,99.3053 C31.644,101.9543 34.331,105.7253 35.02,111.1893 C35.611,115.8753 36.848,120.4803 37.8,125.1213 C37.828,125.3463 37.867,125.5653 37.91,125.7813 C41.355,127.5623 44.968,129.0633 48.717,130.2583 C48.667,130.0653 48.604,129.8633 48.524,129.6513 C47.663,126.9533 48.148,124.5043 49.661,122.1213 C51.468,119.2773 51.906,115.7423 54.217,113.1043 C55.012,112.1963 54.793,110.8173 54.742,109.6343 C54.638,107.2173 55.54,105.4873 57.584,104.0563 C61.473,101.3363 62.206,98.9963 60.884,94.4503 C60.375,92.7043 60.542,91.2033 61.43,89.5923 C63.154,86.4663 62.201,83.5193 59.034,81.9463" id="Fill-8" fill="#91BFE3"></path>
                <polygon id="Fill-10" fill="#5495CF" points="94.6419 34.5596 106.5319 59.4406 78.5999 97.9056 52.9149 98.6406 39.8969 58.1266"></polygon>
                <path d="M42.2591,50.4615 C44.3291,49.0475 46.8901,49.0235 48.9371,50.1695 L46.3731,46.1015 C44.2501,42.7325 45.1341,38.2205 48.3501,36.0235 C51.5661,33.8265 55.8941,34.7755 58.0171,38.1445 L71.5101,59.5525 C73.6331,62.9205 72.7481,67.4335 69.5321,69.6305 C68.4881,70.3435 67.3281,70.7255 66.1631,70.8005 C64.4731,70.9095 62.7751,70.3705 61.4151,69.2635 C61.9981,71.9565 60.9751,74.8545 58.6381,76.4505 C57.6611,77.1195 56.5721,77.4775 55.4801,77.5475 C53.2091,77.6935 50.9221,76.5955 49.5771,74.4625 L40.4051,59.9105 C38.4141,56.7525 39.2441,52.5215 42.2591,50.4615" id="Fill-12" fill="#91BFE3"></path>
                <path d="M89.5223,55.3252 C90.7833,55.2442 92.0383,54.8252 93.1623,54.0402 C96.5563,51.6702 97.4523,46.8672 95.1623,43.3112 L80.8773,21.1232 C78.5873,17.5672 73.9803,16.6052 70.5863,18.9752 C67.1923,21.3452 66.2963,26.1492 68.5853,29.7042 L82.8713,51.8932 C84.4023,54.2722 86.9733,55.4902 89.5223,55.3252" id="Fill-14" fill="#91BFE3"></path>
                <path d="M77.2996,62.8765 C78.4636,62.8015 79.6246,62.4195 80.6676,61.7065 C83.8836,59.5095 84.7696,54.9965 82.6466,51.6285 L66.1836,25.5085 C64.0606,22.1395 59.7326,21.1895 56.5166,23.3875 C53.3016,25.5845 52.4156,30.0965 54.5386,33.4655 L71.0016,59.5865 C72.4356,61.8605 74.8756,63.0325 77.2996,62.8765" id="Fill-16" fill="#91BFE3"></path>
                <path d="M79.1815,59.9747 C76.7285,61.2377 73.7165,60.2737 72.4525,57.8207 C71.1895,55.3677 72.1545,52.3557 74.6075,51.0927 C77.0595,49.8287 80.0725,50.7937 81.3355,53.2467 C82.5985,55.6997 81.6345,58.7117 79.1815,59.9747" id="Fill-18" fill="#2167AE"></path>
                <path d="M67.971,67.9 C65.593,69.125 62.671,68.19 61.447,65.811 C60.222,63.433 61.157,60.511 63.535,59.287 C65.914,58.062 68.835,58.997 70.06,61.376 C71.284,63.754 70.349,66.675 67.971,67.9" id="Fill-20" fill="#2167AE"></path>
                <path d="M56.9783,74.751 C54.7793,75.883 52.0803,75.019 50.9473,72.82 C49.8153,70.622 50.6803,67.922 52.8783,66.79 C55.0773,65.658 57.7763,66.522 58.9093,68.721 C60.0413,70.919 59.1763,73.619 56.9783,74.751" id="Fill-22" fill="#2167AE"></path>
                <path d="M91.5672,52.7227 C89.1142,53.9857 86.1022,53.0217 84.8382,50.5687 C83.5752,48.1157 84.5402,45.1027 86.9932,43.8407 C89.4452,42.5767 92.4582,43.5417 93.7212,45.9947 C94.9842,48.4477 94.0202,51.4597 91.5672,52.7227" id="Fill-24" fill="#2167AE"></path>
                <path d="M109.387,50.5801 C108.801,46.8461 107.412,43.2831 105.318,40.1351 L98.97,30.5941 C96.856,27.4171 92.913,26.1971 89.503,27.6661 L71.342,35.4861 C67.342,37.2091 65.456,41.9961 67.128,46.1811 C68.8,50.3641 73.398,52.3601 77.398,50.6381 L89.715,45.3341 L95.648,54.2511 L56.16,91.3471 C53.28,94.0541 52.191,98.0641 52.965,101.7681 L51.988,113.6601 L87.569,125.0521 L87.469,117.4211 C87.491,115.1361 87.511,112.9811 87.524,111.0421 L87.386,111.0141 L87.251,100.7511 L87.251,92.3891 C87.251,92.3891 87.25,90.5071 88.737,89.2491 L99.149,80.4351 C107.288,72.7881 111.121,61.6121 109.387,50.5801" id="Fill-26" fill="#5495CF"></path>
                <polygon id="Fill-28" fill="#5495CF" points="52.6365 97.772 52.6365 100.472 54.5325 100.474"></polygon>
                <path d="M77.6854,48.7291 C74.6784,50.2771 70.9864,49.0951 69.4374,46.0881 C67.8894,43.0821 69.0714,39.3891 72.0784,37.8401 C75.0854,36.2921 78.7784,37.4751 80.3264,40.4811 C81.8744,43.4881 80.6924,47.1811 77.6854,48.7291" id="Fill-30" fill="#2167AE"></path>
                <path d="M88.1868,100.7647 L71.6328,100.6247 L68.8418,100.6007 L52.2878,100.46052 C49.1318,100.4347 48.8488,103.2417 48.8488,103.2417 L46.6088,129.5467 C53.9188,132.1357 61.7808,133.5567 69.9778,133.5567 C78.6748,133.5567 86.9948,131.9597 94.6768,129.0607 L91.5788,103.6027 C91.5788,103.6027 91.3428,100.7917 88.1868,100.7647" id="Fill-32" fill="#2167AE"></path>
            </g>
        </g>
    </g>
</svg>