<?xml version="1.0" encoding="UTF-8"?>
<svg width="140px" height="140px" viewBox="0 0 140 140" version="1.1" xmlns="http://www.w3.org/2000/svg" xmlns:xlink="http://www.w3.org/1999/xlink">
    <title>pictogram/light/security/lock/globe</title>
    <defs>
        <path d="M7.10542736e-15,45.77 C7.10542736e-15,71.048 20.491,91.539 45.769,91.539 L45.769,91.539 C71.047,91.539 91.539,71.048 91.539,45.77 L91.539,45.77 C91.539,20.491 71.047,0 45.769,0 L45.769,0 C20.491,0 7.10542736e-15,20.491 7.10542736e-15,45.77 L7.10542736e-15,45.77 Z" id="path-1"></path>
    </defs>
    <g id="pictogram/light/security/lock/globe" stroke="none" stroke-width="1" fill="none" fill-rule="evenodd">
        <g id="lock-globe" transform="translate(-0.000000, 0.000000)">
            <path d="M140,70 C140,108.66 108.66,140 70,140 C31.34,140 0,108.66 0,70 C0,31.34 31.34,0 70,0 C108.66,0 140,31.34 140,70" id="circle" fill="#DDE4E3"></path>
            <g id="picto" transform="translate(24.230500, 24.098700)">
                <path d="M91.539,45.9173 C91.539,20.6393 71.047,0.1473 45.769,0.1473 C20.492,0.1473 0,20.6393 0,45.9173 C0,71.1953 20.492,91.6873 45.769,91.6873 C71.047,91.6873 91.539,71.1953 91.539,45.9173" id="Fill-4" fill="#2167AE"></path>
                <g id="Group-15" transform="translate(13.047500, 0.000000)" fill="#5495CF">
                    <path d="M32.722,2.5 C28.977,2.5 23.754,19.011 23.754,45.901 C23.754,72.791 28.977,89.303 32.722,89.303 C36.467,89.303 41.69,72.791 41.69,45.901 C41.69,19.011 36.467,2.5 32.722,2.5 M32.722,91.803 C25.193,91.803 21.254,68.711 21.254,45.901 C21.254,23.091 25.193,0 32.722,0 C40.251,0 44.19,23.091 44.19,45.901 C44.19,68.711 40.251,91.803 32.722,91.803" id="Fill-11"></path>
                    <path d="M32.722,2.5 C16.057,2.5 2.5,21.97 2.5,45.901 C2.5,69.833 16.057,89.303 32.722,89.303 C49.387,89.303 62.944,69.833 62.944,45.901 C62.944,21.97 49.387,2.5 32.722,2.5 M32.722,91.803 C14.679,91.803 7.10542736e-15,71.211 7.10542736e-15,45.901 C7.10542736e-15,20.591 14.679,0 32.722,0 C50.765,0 65.444,20.591 65.444,45.901 C65.444,71.211 50.765,91.803 32.722,91.803" id="Fill-13"></path>
                </g>
                <g id="Group-21" transform="translate(0.000400, 0.131300)">
                    <mask id="mask-2" fill="white">
                        <use xlink:href="#path-1"></use>
                    </mask>
                    <g id="Clip-17"></g>
                    <polygon id="Fill-16" fill="#5495CF" mask="url(#mask-2)" points="4.858 24.135 86.734 24.135 86.734 21.635 4.858 21.635"></polygon>
                    <polygon id="Fill-18" fill="#5495CF" mask="url(#mask-2)" points="4.939 69.905 86.465 69.905 86.465 67.405 4.939 67.405"></polygon>
                    <polygon id="Fill-19" fill="#5495CF" mask="url(#mask-2)" points="-0.726 47.083 14.449 47.083 14.449 44.583 -0.726 44.583"></polygon>
                    <polygon id="Fill-20" fill="#5495CF" mask="url(#mask-2)" points="14.449 47.083 93.075 47.083 93.075 44.583 14.449 44.583"></polygon>
                </g>
                <g id="Group-26" transform="translate(25.321500, 20.960400)">
                    <path d="M20.447,5.048 C26.471,5.048 31.371,9.948 31.371,15.973 L31.371,17.935 L9.523,17.935 L9.523,15.973 C9.523,9.948 14.423,5.048 20.447,5.048 M36.42,19.039 L36.42,15.973 C36.42,7.166 29.254,0 20.447,0 C11.641,0 4.475,7.166 4.475,15.973 L4.475,19.04 C1.813,20.604 -7.10542736e-15,23.667 -7.10542736e-15,27.183 L-7.10542736e-15,40.633 C-7.10542736e-15,45.733 3.812,49.882 8.499,49.882 L32.397,49.882 C37.084,49.882 40.896,45.733 40.896,40.633 L40.896,27.183 C40.896,23.666 39.082,20.603 36.42,19.039" id="Fill-22" fill="#91BFE3"></path>
                    <path d="M26.3332,31.6655 C26.3332,28.4195 23.6932,25.7795 20.4472,25.7795 C17.2012,25.7795 14.5612,28.4195 14.5612,31.6655 C14.5612,34.0065 15.9382,36.0275 17.9232,36.9745 L17.9232,41.7495 C17.9232,43.1435 19.0532,44.2735 20.4472,44.2735 C21.8412,44.2735 22.9712,43.1435 22.9712,41.7495 L22.9712,36.9745 C24.9552,36.0275 26.3332,34.0065 26.3332,31.6655" id="Fill-24" fill="#2167AE"></path>
                </g>
            </g>
        </g>
    </g>
</svg>