<?xml version="1.0" encoding="UTF-8"?>
<svg width="140px" height="140px" viewBox="0 0 140 140" version="1.1" xmlns="http://www.w3.org/2000/svg" xmlns:xlink="http://www.w3.org/1999/xlink">
    <title>pictogram/dark/environment/globe/care</title>
    <defs>
        <path d="M7.10542736e-15,45.77 C7.10542736e-15,71.047 20.491,91.539 45.769,91.539 L45.769,91.539 C71.047,91.539 91.539,71.047 91.539,45.77 L91.539,45.77 C91.539,20.492 71.047,-1.42108547e-14 45.769,-1.42108547e-14 L45.769,-1.42108547e-14 C20.491,-1.42108547e-14 7.10542736e-15,20.492 7.10542736e-15,45.77 L7.10542736e-15,45.77 Z" id="path-1"></path>
    </defs>
    <g id="pictogram/dark/environment/globe/care" stroke="none" stroke-width="1" fill="none" fill-rule="evenodd">
        <g id="globe-care">
            <path d="M140,70 C140,108.66 108.66,140 70,140 C31.34,140 0,108.66 0,70 C0,31.34 31.34,0 70,0 C108.66,0 140,31.34 140,70" id="circle" fill="#91BFE3"></path>
            <g id="picto" transform="translate(24.230500, 24.098700)">
                <path d="M91.539,45.9172 C91.539,20.6392 71.047,0.1472 45.769,0.1472 C20.492,0.1472 0,20.6392 0,45.9172 C0,71.1952 20.492,91.6872 45.769,91.6872 C71.047,91.6872 91.539,71.1952 91.539,45.9172" id="Fill-3" fill="#2167AE"></path>
                <g id="Group-14" transform="translate(13.046500, 0.000000)" fill="#5495CF">
                    <path d="M32.723,2.5 C28.978,2.5 23.755,19.011 23.755,45.901 C23.755,72.791 28.978,89.303 32.723,89.303 C36.468,89.303 41.691,72.791 41.691,45.901 C41.691,19.011 36.468,2.5 32.723,2.5 M32.723,91.803 C25.194,91.803 21.255,68.711 21.255,45.901 C21.255,23.091 25.194,0 32.723,0 C40.252,0 44.191,23.091 44.191,45.901 C44.191,68.711 40.252,91.803 32.723,91.803" id="Fill-10"></path>
                    <path d="M32.723,2.5 C16.058,2.5 2.5,21.97 2.5,45.901 C2.5,69.833 16.058,89.303 32.723,89.303 C49.388,89.303 62.946,69.833 62.946,45.901 C62.946,21.97 49.388,2.5 32.723,2.5 M32.723,91.803 C14.68,91.803 0,71.211 0,45.901 C0,20.591 14.68,0 32.723,0 C50.766,0 65.446,20.591 65.446,45.901 C65.446,71.211 50.766,91.803 32.723,91.803" id="Fill-12"></path>
                </g>
                <g id="Group-20" transform="translate(0.000500, 0.147300)">
                    <mask id="mask-2" fill="white">
                        <use xlink:href="#path-1"></use>
                    </mask>
                    <g id="Clip-16"></g>
                    <polygon id="Fill-15" fill="#5495CF" mask="url(#mask-2)" points="4.858 24.135 86.734 24.135 86.734 21.635 4.858 21.635"></polygon>
                    <polygon id="Fill-17" fill="#5495CF" mask="url(#mask-2)" points="4.939 69.904 86.465 69.904 86.465 67.404 4.939 67.404"></polygon>
                    <polygon id="Fill-18" fill="#5495CF" mask="url(#mask-2)" points="-0.727 47.083 14.448 47.083 14.448 44.583 -0.727 44.583"></polygon>
                    <polygon id="Fill-19" fill="#5495CF" mask="url(#mask-2)" points="14.449 47.083 93.075 47.083 93.075 44.583 14.449 44.583"></polygon>
                </g>
                <path d="M27.3112,39.5028 C27.3922,41.9648 28.2952,44.3268 29.8572,46.1868 L29.8582,46.1858 C30.5092,46.9138 44.7882,62.1898 44.9182,62.2968 C45.1532,62.4928 45.4482,62.5998 45.7572,62.5998 C45.7982,62.5998 45.8392,62.5978 45.8812,62.5938 C46.2342,62.5618 46.5522,62.3928 46.7782,62.1198 C52.2462,56.2898 61.5072,46.4028 61.6932,46.1538 C63.2322,44.3408 64.1452,41.9778 64.2272044,39.5428 C64.2302,36.2708 62.6842,33.1788 60.0912,31.2428 C57.8922,29.6008 55.1902,28.9158 52.4742,29.3138 C49.8032,29.7058 47.4412,31.1008 45.8062,33.2488 C45.7772,33.2508 45.7422,33.2508 45.7132,33.2488 C43.7882,30.7418 40.7702,29.2418 37.6112,29.2318 L37.5772,29.2318 C34.8462,29.2318 32.2782,30.2958 30.3412,32.2278 C28.3962,34.1678 27.3212,36.7518 27.3112,39.5028 L27.3112,39.5028 Z" id="Fill-21" fill="#DAD2BD"></path>
            </g>
        </g>
    </g>
</svg>