<?xml version="1.0" encoding="UTF-8"?>
<svg width="140px" height="140px" viewBox="0 0 140 140" version="1.1" xmlns="http://www.w3.org/2000/svg" xmlns:xlink="http://www.w3.org/1999/xlink">
    <title>pictogram/light/environment/trees/light</title>
    <g id="pictogram/light/environment/trees/light" stroke="none" stroke-width="1" fill="none" fill-rule="evenodd">
        <g id="trees-light">
            <path d="M70,0 C31.34,0 0,31.34 0,70 C0,84.803 4.607,98.523 12.448,109.832 C25.085,128.056 46.143,140 70,140 C93.857,140 114.915,128.056 127.552,109.832 C135.393,98.523 140,84.803 140,70 C140,31.34 108.66,0 70,0" id="circle" fill="#DDE4E3"></path>
            <g id="picto" transform="translate(9.352496, 23.170197)">
                <path d="M49.8536042,67.5495027 L45.6936042,63.4665027 C42.9396042,66.2725027 39.5596042,70.3365027 37.7286042,76.2765027 L37.7286042,65.1855027 L31.9006042,65.1855027 L31.9006042,76.3175027 C31.3956042,74.6685027 30.7476042,73.0775027 29.9576042,71.5525027 C28.0336042,67.8425027 25.5996042,65.1615027 23.9366042,63.4665027 L19.7766042,67.5495027 C23.0436042,70.8785027 26.7536042,75.6395027 27.3236042,83.3865027 L27.2036042,108.324503 C31.8896042,110.880503 36.8996042,112.913503 42.1566042,114.351503 L42.3056042,83.3865027 C42.8766042,75.6395027 46.5856042,70.8785027 49.8536042,67.5495027" id="Fill-3" fill="#91BFE3"></path>
                <path d="M75.4097042,58.8166027 L75.4107042,115.262603 C83.8157042,113.456603 91.6567042,110.141603 98.6417042,105.614603 L98.6437042,58.8166027 L75.4097042,58.8166027 Z" id="Fill-5" fill="#23366F"></path>
                <path d="M51.3941042,29.3524027 L51.1761042,26.8924027 C51.1761042,17.7684027 43.7791042,10.3704027 34.6541042,10.3704027 C25.5291042,10.3704027 18.1321042,17.7684027 18.1321042,26.8924027 L17.9141042,29.3524027 C17.2511042,36.8094027 13.3881042,34.4534027 7.20810419,38.6794027 C2.84110419,41.6644027 -0.0198958119,46.6924027 0,52.3864027 C0.0321041881,61.5174027 7.57010419,68.8494027 16.7011042,68.8494027 L52.6061042,68.8494027 C61.7381042,68.8494027 69.2761042,61.5174027 69.3081982,52.3864027 C69.3271042,46.6924027 66.4661042,41.6644027 62.0991042,38.6794027 C55.9191042,34.4534027 52.0561042,36.8094027 51.3941042,29.3524027" id="Fill-7" fill="#5495CF"></path>
                <path d="M112.848704,38.6405027 C111.422704,38.0355027 110.615704,36.5285027 110.881704,35.0035027 C111.015704,34.2305027 111.086704,33.4345027 111.086704,32.6235027 C111.086704,26.8815027 107.592704,21.9585027 102.615704,19.8585027 C101.214704,19.2675027 100.398704,17.7745027 100.664704,16.2775027 C100.853704,15.2155027 100.920704,14.1105027 100.850704,12.9775027 C100.414704,5.94650272 94.6607042,0.307502725 87.6227042,0.0125027246 C79.7017042,-0.319497275 73.1757042,6.00350272 73.1757042,13.8515027 C73.1757042,14.6635027 73.2457042,15.4575027 73.3807042,16.2305027 C73.6437042,17.7465027 72.8557042,19.2605027 71.4377042,19.8585027 C66.4607042,21.9585027 62.9667042,26.8815027 62.9667042,32.6235027 C62.9667042,33.4345027 63.0367042,34.2305027 63.1717042,35.0035027 C63.4377042,36.5285027 62.6307042,38.0355027 61.2047042,38.6405027 C56.0767042,40.8155027 52.5297042,45.9915027 52.7697042,51.9665027 C53.0597042,59.1745027 58.9457042,65.0085027 66.1557042,65.2385027 C71.9647042,65.4245027 102.088704,65.4245027 107.897704,65.2385027 C115.107704,65.0085027 120.993704,59.1745027 121.283704,51.9665027 C121.523704,45.9915027 117.976704,40.8155027 112.848704,38.6405027" id="Fill-9" fill="#91BFE3"></path>
            </g>
        </g>
    </g>
</svg>