<?xml version="1.0" encoding="UTF-8"?>
<svg width="140px" height="140px" viewBox="0 0 140 140" version="1.1" xmlns="http://www.w3.org/2000/svg" xmlns:xlink="http://www.w3.org/1999/xlink">
    <title>pictogram/light/environment/earth/america</title>
    <defs>
        <path d="M70,0 C31.34,0 0,31.34 0,70 L0,70 C0,108.66 31.34,140 70,140 L70,140 C108.66,140 140,108.66 140,70 L140,70" id="path-1"></path>
        <path d="M70,0 C31.34,0 0,31.34 0,70 L0,70 C0,108.66 31.34,140 70,140 L70,140 C108.66,140 140,108.66 140,70 L140,70" id="path-3"></path>
        <path d="M70,0 C31.34,0 0,31.34 0,70 L0,70 C0,108.66 31.34,140 70,140 L70,140 C108.66,140 140,108.66 140,70 L140,70" id="path-5"></path>
        <path d="M70,0 C31.34,0 0,31.34 0,70 L0,70 C0,108.66 31.34,140 70,140 L70,140 C108.66,140 140,108.66 140,70 L140,70" id="path-7"></path>
        <path d="M70,0 C31.34,0 0,31.34 0,70 L0,70 C0,108.66 31.34,140 70,140 L70,140 C108.66,140 140,108.66 140,70 L140,70" id="path-9"></path>
        <path d="M70,0 C31.34,0 0,31.34 0,70 L0,70 C0,108.66 31.34,140 70,140 L70,140 C108.66,140 140,108.66 140,70 L140,70" id="path-11"></path>
        <path d="M70,0 C31.34,0 0,31.34 0,70 L0,70 C0,108.66 31.34,140 70,140 L70,140 C108.66,140 140,108.66 140,70 L140,70" id="path-13"></path>
        <path d="M70,0 C31.34,0 0,31.34 0,70 L0,70 C0,108.66 31.34,140 70,140 L70,140 C108.66,140 140,108.66 140,70 L140,70" id="path-15"></path>
        <path d="M70,0 C31.34,0 0,31.34 0,70 L0,70 C0,108.66 31.34,140 70,140 L70,140 C108.66,140 140,108.66 140,70 L140,70" id="path-17"></path>
        <path d="M70,0 C31.34,0 0,31.34 0,70 L0,70 C0,108.66 31.34,140 70,140 L70,140 C108.66,140 140,108.66 140,70 L140,70 C140,31.34 108.66,0 70,0 Z" id="path-19"></path>
        <path d="M70,0 C31.34,0 0,31.34 0,70 L0,70 C0,108.66 31.34,140 70,140 L70,140 C108.66,140 140,108.66 140,70 L140,70" id="path-21"></path>
    </defs>
    <g id="pictogram/light/environment/earth/america" stroke="none" stroke-width="1" fill="none" fill-rule="evenodd">
        <g id="earth-america" transform="translate(0.000000, -0.000100)">
            <path d="M140,70 C140,108.66 108.66,140 70,140 C31.34,140 0,108.66 0,70 C0,31.34 31.34,0 70,0 C108.66,0 140,31.34 140,70" id="circle" fill="#DDE4E3"></path>
            <g id="picto" transform="translate(0.000000, 0.000100)">
                <g id="Group-6">
                    <mask id="mask-2" fill="white">
                        <use xlink:href="#path-1"></use>
                    </mask>
                    <g id="Clip-5"></g>
                    <path d="M71,7.6931 C71,7.6931 68.108,11.0181 68.694,11.9351 C69.28,12.8521 60.97,11.1591 60.567,13.5401 C60.164,15.9211 56.21,10.6171 56.21,10.6171 C56.21,10.6171 55.408,9.5581 59.65,9.3711 C63.892,9.1831 69.982,5.9821 71,7.6931" id="Fill-4" fill="#5495CF" mask="url(#mask-2)"></path>
                </g>
                <g id="Group-9">
                    <mask id="mask-4" fill="white">
                        <use xlink:href="#path-3"></use>
                    </mask>
                    <g id="Clip-8"></g>
                    <path d="M81.5478,67.9605 C81.5478,67.9605 74.3248,68.4575 76.1588,69.4895 C77.9938,70.5215 81.4328,70.4445 81.5478,67.9605" id="Fill-7" fill="#5495CF" mask="url(#mask-4)"></path>
                </g>
                <g id="Group-12">
                    <mask id="mask-6" fill="white">
                        <use xlink:href="#path-5"></use>
                    </mask>
                    <g id="Clip-11"></g>
                    <path d="M104.019,18.0115 L109.293,20.8775 C109.293,20.8775 110.21,21.5085 110.01,19.7025 C109.809,17.8965 104.793,17.5525 104.277,17.6965 C103.761,17.8395 104.019,18.0115 104.019,18.0115" id="Fill-10" fill="#5495CF" mask="url(#mask-6)"></path>
                </g>
                <g id="Group-15">
                    <mask id="mask-8" fill="white">
                        <use xlink:href="#path-7"></use>
                    </mask>
                    <g id="Clip-14"></g>
                    <path d="M67.0766,64.4207 C66.8606,64.5007 65.2056,65.1437 67.0986,65.4757 C67.1026,65.4767 67.1046,65.4767 67.1086,65.4777 C69.0016,65.7237 71.2956,66.2187 71.7706,67.1957 C72.6046,68.9157 75.4716,67.1957 75.4716,67.1957 C75.4716,67.1957 71.1576,64.0447 67.0766,64.4207" id="Fill-13" fill="#5495CF" mask="url(#mask-8)"></path>
                </g>
                <g id="Group-18">
                    <mask id="mask-10" fill="white">
                        <use xlink:href="#path-9"></use>
                    </mask>
                    <g id="Clip-17"></g>
                    <path d="M108.9204,23.0848 C108.4534,22.1198 107.4724,21.5428 106.7014,21.2218 L106.7014,21.2228 C106.7014,21.2228 105.6464,20.8998 106.1834,21.4368 L108.7194,23.9738 C108.7194,23.9738 109.7514,24.8048 108.9204,23.0848" id="Fill-16" fill="#5495CF" mask="url(#mask-10)"></path>
                </g>
                <g id="Group-21">
                    <mask id="mask-12" fill="white">
                        <use xlink:href="#path-11"></use>
                    </mask>
                    <g id="Clip-20"></g>
                    <path d="M88.0825,18.3553 C87.7385,13.0823 87.3955,11.8203 87.3955,11.8203 C87.3955,11.8203 83.0385,8.0373 75.0125,6.7753 C73.6725,6.5653 72.8335,8.0183 72.1315,9.2103 C72.1235,9.2243 71.5075,10.1843 70.9995,10.3113 C70.4885,10.4383 70.4755,10.7213 70.4755,10.7213 L70.4835,10.7243 C70.4275,10.9623 72.3945,11.9163 74.2095,12.3943 C76.3885,12.9673 82.9235,20.6483 85.2165,21.2213 C87.5095,21.7943 88.4265,23.6293 88.0825,18.3553" id="Fill-19" fill="#5495CF" mask="url(#mask-12)"></path>
                </g>
                <g id="Group-24">
                    <mask id="mask-14" fill="white">
                        <use xlink:href="#path-13"></use>
                    </mask>
                    <g id="Clip-23"></g>
                    <path d="M118.8091,27.1834 C118.8091,27.1834 123.1651,26.3524 121.5601,24.1744 C120.4921,22.7244 116.8381,18.6004 114.3751,15.8664 C113.5151,15.1594 112.6371,14.4734 111.7431,13.8074 C111.2961,14.5864 110.4891,16.2034 110.3251,18.0114 C110.0961,20.5344 111.1271,25.1204 112.3891,25.1204 C113.6491,25.1204 117.5481,27.1834 116.3851,29.3614 C115.2221,31.5404 120.2991,35.8964 120.2991,35.8964 C120.2991,35.8964 122.9361,36.3554 122.3631,34.8654 C121.7891,33.3744 118.8091,27.1834 118.8091,27.1834" id="Fill-22" fill="#5495CF" mask="url(#mask-14)"></path>
                </g>
                <g id="Group-27">
                    <mask id="mask-16" fill="white">
                        <use xlink:href="#path-15"></use>
                    </mask>
                    <g id="Clip-26"></g>
                    <path d="M139.0454,58.4117 C137.4414,48.8247 133.9234,39.9337 128.8524,32.0837 C128.8494,32.0817 128.4864,31.5447 128.2154,31.1167 C126.8944,29.0277 126.7194,30.5087 126.7194,30.5087 C126.7194,30.5087 125.3154,38.8057 122.9364,38.4197 C121.4964,38.1847 124.1114,42.6327 124.2264,45.8427 C124.3404,49.0527 125.5734,60.4317 127.5224,63.2977 C128.7694,65.1327 130.6714,67.9477 132.0314,69.8017 C132.7054,70.6007 134.1724,71.7877 135.9044,69.8037 C137.6694,67.8667 139.7544,64.6377 139.5024,61.6077 C139.4904,61.4647 139.2834,59.8337 139.0454,58.4117" id="Fill-25" fill="#5495CF" mask="url(#mask-16)"></path>
                </g>
                <g id="Group-30">
                    <mask id="mask-18" fill="white">
                        <use xlink:href="#path-17"></use>
                    </mask>
                    <g id="Clip-29"></g>
                    <path d="M55.165,2.6473 C53.234,2.4783 50.998,2.7623 48.702,3.3103 C43.92,4.8353 39.369,6.8693 35.096,9.3333 C37.337,9.2373 41.394,8.8993 43.484,7.6933 C45.796,6.3593 52.452,4.4053 55.322,3.5953 C55.323,3.5953 55.323,3.5953 55.323,3.5943 C56.584,3.2333 55.397,2.7373 55.165,2.6473" id="Fill-28" fill="#5495CF" mask="url(#mask-18)"></path>
                </g>
                <g id="Group-33">
                    <mask id="mask-20" fill="white">
                        <use xlink:href="#path-19"></use>
                    </mask>
                    <g id="Clip-32"></g>
                    <path d="M107.6387,13.2733 C107.4417,12.6903 107.2267,12.0543 106.9967,11.3613 C106.8587,10.9493 106.6167,10.5373 106.2917,10.1303 C101.8267,7.4183 97.0257,5.2093 91.9777,3.5403 C92.1847,4.9913 92.7327,7.7603 94.0447,9.3703 C95.8787,11.6213 102.1847,14.4573 103.9047,14.1553 C104.9517,13.9703 106.7187,15.4393 107.9427,16.6173 C107.9487,16.6233 107.9547,16.6283 107.9607,16.6343 C107.9897,16.6643 108.0957,16.7723 108.2387,16.9073 C108.5247,17.1763 108.7387,17.3813 108.9617,17.4143 C108.9617,17.4143 109.3497,17.5243 109.3357,17.0233 C109.3217,16.5213 107.6927,13.4313 107.6377,13.2693 L107.6387,13.2733 Z" id="Fill-31" fill="#5495CF" mask="url(#mask-20)"></path>
                </g>
                <g id="Group-36">
                    <mask id="mask-22" fill="white">
                        <use xlink:href="#path-21"></use>
                    </mask>
                    <g id="Clip-35"></g>
                    <path d="M115.8281,90.6995 C114.5671,88.7505 104.5921,89.2085 103.2161,87.4895 C101.8411,85.7695 101.8411,82.6745 99.2031,82.1005 C96.5671,81.5275 93.1271,80.7245 91.0631,78.8905 C89.0001,77.0555 83.3821,79.2345 81.3181,77.8585 C79.2551,76.4825 77.4201,77.0555 75.8151,77.8585 C74.2101,78.6605 72.6961,82.2155 71.7901,80.8395 C70.8851,79.4635 69.0131,80.9545 66.8341,79.6165 C65.4531,78.7685 63.3181,76.5975 64.6941,74.3045 C66.0701,72.0115 60.1081,73.7315 60.1081,71.3235 C60.1081,71.1145 60.1171,70.8935 60.1301,70.6695 C60.1321,70.6645 60.1331,70.6365 60.1331,70.6095 C60.1351,70.5785 60.1371,70.5475 60.1391,70.5165 C60.1731,69.4025 62.3961,65.8735 61.9711,65.4485 C61.5411,65.0175 59.6121,65.2995 59.6121,65.2995 C58.4231,65.3755 56.8531,65.5675 56.4391,66.0495 C55.7511,66.8525 51.5091,70.8655 50.0191,66.5085 C48.5291,62.1515 50.3631,55.8455 54.4901,55.9605 C58.6181,56.0745 64.1211,54.9285 65.8411,58.3675 C66.8661,60.4185 67.6801,61.2825 68.1731,61.6505 L68.1731,61.6505 C68.1731,61.6505 68.2991,61.7565 68.4721,61.8405 C68.5211,61.8655 68.5611,61.8825 68.5951,61.8945 L68.6031,61.8975 C68.6611,61.9175 68.6941,61.9225 68.6941,61.9225 L68.6941,61.9185 C68.9091,61.9675 69.1441,61.9365 69.3091,61.6505 C70.5701,59.4575 67.5891,55.6455 70.8711,51.1355 L70.8711,51.1345 C71.9801,49.9225 73.0991,48.6845 73.6371,48.0495 C74.8981,46.5595 78.4521,39.2215 81.0891,39.2215 C82.1011,39.2215 83.0961,38.8485 83.9381,38.3905 L83.9391,38.3895 C85.9491,36.8705 82.8531,36.5795 82.8531,36.5795 L82.8531,36.5785 C81.1361,36.3425 79.4791,35.7455 79.8281,34.2915 C80.5151,31.4255 85.1021,31.7695 85.2161,30.1645 C85.3311,28.5595 80.1721,27.6415 78.6821,24.5465 C77.1911,21.4505 77.1911,24.4315 73.6371,23.2855 C70.0821,22.1385 71.0631,30.5085 70.0001,30.7375 C68.9361,30.9675 60.7961,24.8905 60.7961,24.8905 C60.7961,24.8905 59.6491,22.8265 62.9741,21.5655 C64.8981,20.8365 66.5061,19.3035 67.5231,18.1385 C67.5261,18.1365 67.5271,18.1355 67.5291,18.1335 C68.5971,17.0365 69.3811,17.7885 69.6011,18.0515 C69.6201,18.0745 69.6371,18.0965 69.6561,18.1195 C69.6621,18.1285 69.6661,18.1335 69.6661,18.1335 L69.6651,18.1315 C70.3691,18.9925 71.4741,20.0045 73.0631,20.5335 C76.1591,21.5655 79.2551,20.3045 76.5031,18.6995 C73.7511,17.0945 68.8221,13.1965 66.4141,13.8845 C64.0061,14.5725 65.6111,17.4385 61.7131,16.2915 C57.8151,15.1455 52.5411,15.5575 51.5091,13.8035 C50.4771,12.0495 47.0381,13.4255 46.8091,11.4765 C46.5791,9.5275 48.8721,7.9225 39.7011,11.4765 C30.5291,15.0305 34.5411,16.2915 32.3631,16.4065 C30.1841,16.5215 26.6301,15.9485 27.0891,18.1265 C27.0891,18.1265 34.5411,18.5845 37.2931,18.1265 C40.0441,17.6675 37.6371,23.2855 36.3761,26.0365 C35.1151,28.7885 39.1271,30.9675 35.4581,34.0625 C31.7891,37.1575 32.2481,46.6745 33.5091,49.8845 C34.3321,51.9785 35.5911,56.3545 36.3691,59.1515 C36.3691,59.1545 36.3701,59.1555 36.3701,59.1575 C37.1151,61.7865 37.9361,59.7455 37.9481,59.7165 C38.1121,58.2755 38.0181,55.7895 37.1781,51.4895 C35.2291,41.5145 42.6821,62.7245 41.5351,64.6745 C40.3891,66.6225 48.6431,72.2415 51.5091,72.1265 C54.3761,72.0115 57.0131,75.6805 59.9941,76.7125 C62.9741,77.7435 65.1271,81.9865 68.6941,81.9865 C70.3491,81.9865 71.1811,82.9735 71.6041,84.0325 C72.2501,85.5855 71.3431,87.3035 70.7661,88.1615 C70.6361,88.3345 70.5021,88.5165 70.3641,88.7085 C70.3621,88.7095 70.3561,88.7165 70.3561,88.7165 L70.3571,88.7165 C69.1151,90.4345 67.6271,92.8225 67.5601,94.4825 C67.4461,97.3485 68.7071,98.8395 71.2291,102.6225 C73.7511,106.4065 75.5861,109.7315 79.5991,110.7625 C83.6111,111.7945 75.0131,123.6035 74.2101,126.3555 C73.4081,129.1075 71.5731,135.8715 74.4391,135.8715 C77.3061,135.8715 76.9621,132.2025 82.3501,129.6805 C87.7391,127.1575 106.4271,115.9225 111.7011,104.5725 C116.9741,93.2215 117.0891,92.6485 115.8281,90.6995" id="Fill-34" fill="#5495CF" mask="url(#mask-22)"></path>
                </g>
            </g>
        </g>
    </g>
</svg>