<?xml version="1.0" encoding="UTF-8"?>
<svg width="140px" height="140px" viewBox="0 0 140 140" version="1.1" xmlns="http://www.w3.org/2000/svg" xmlns:xlink="http://www.w3.org/1999/xlink">
    <title>pictogram/light/environment/earth/oceania</title>
    <defs>
        <path d="M0,70 C0,108.661 31.34,140 70,140 L70,140 C108.66,140 140,108.661 140,70 L140,70 C140,31.341 108.66,0 70,0 L70,0 C31.34,0 0,31.341 0,70 L0,70 Z" id="path-1"></path>
        <path d="M0,70 C0,108.661 31.34,140 70,140 L70,140 C108.66,140 140,108.661 140,70 L140,70 C140,31.341 108.66,0 70,0 L70,0 C31.34,0 0,31.341 0,70" id="path-3"></path>
        <path d="M0,70 C0,108.661 31.34,140 70,140 L70,140 C108.66,140 140,108.661 140,70 L140,70 C140,31.341 108.66,0 70,0 L70,0 C31.34,0 0,31.341 0,70" id="path-5"></path>
        <path d="M0,70 C0,108.661 31.34,140 70,140 L70,140 C108.66,140 140,108.661 140,70 L140,70 C140,31.341 108.66,0 70,0 L70,0 C31.34,0 0,31.341 0,70" id="path-7"></path>
        <path d="M0,70 C0,108.661 31.34,140 70,140 L70,140 C108.66,140 140,108.661 140,70 L140,70 C140,31.341 108.66,0 70,0 L70,0 C31.34,0 0,31.341 0,70" id="path-9"></path>
        <path d="M0,70 C0,108.661 31.34,140 70,140 L70,140 C108.66,140 140,108.661 140,70 L140,70 C140,31.341 108.66,0 70,0 L70,0 C31.34,0 0,31.341 0,70" id="path-11"></path>
        <path d="M0,70 C0,108.661 31.34,140 70,140 L70,140 C108.66,140 140,108.661 140,70 L140,70 C140,31.341 108.66,0 70,0 L70,0 C31.34,0 0,31.341 0,70" id="path-13"></path>
        <path d="M0,70 C0,108.661 31.34,140 70,140 L70,140 C108.66,140 140,108.661 140,70 L140,70 C140,31.341 108.66,0 70,0 L70,0 C31.34,0 0,31.341 0,70" id="path-15"></path>
        <path d="M0,70 C0,108.661 31.34,140 70,140 L70,140 C108.66,140 140,108.661 140,70 L140,70 C140,31.341 108.66,0 70,0 L70,0 C31.34,0 0,31.341 0,70" id="path-17"></path>
        <path d="M0,70 C0,108.661 31.34,140 70,140 L70,140 C108.66,140 140,108.661 140,70 L140,70 C140,31.341 108.66,0 70,0 L70,0 C31.34,0 0,31.341 0,70" id="path-19"></path>
        <path d="M0,70 C0,108.661 31.34,140 70,140 L70,140 C108.66,140 140,108.661 140,70 L140,70 C140,31.341 108.66,0 70,0 L70,0 C31.34,0 0,31.341 0,70" id="path-21"></path>
        <path d="M0,70 C0,108.661 31.34,140 70,140 L70,140 C108.66,140 140,108.661 140,70 L140,70 C140,31.341 108.66,0 70,0 L70,0 C31.34,0 0,31.341 0,70" id="path-23"></path>
        <path d="M0,70 C0,108.661 31.34,140 70,140 L70,140 C108.66,140 140,108.661 140,70 L140,70 C140,31.341 108.66,0 70,0 L70,0 C31.34,0 0,31.341 0,70" id="path-25"></path>
        <path d="M0,70 C0,108.661 31.34,140 70,140 L70,140 C108.66,140 140,108.661 140,70 L140,70 C140,31.341 108.66,0 70,0 L70,0 C31.34,0 0,31.341 0,70" id="path-27"></path>
        <path d="M0,70 C0,108.661 31.34,140 70,140 L70,140 C108.66,140 140,108.661 140,70 L140,70 C140,31.341 108.66,0 70,0 L70,0 C31.34,0 0,31.341 0,70" id="path-29"></path>
        <path d="M0,70 C0,108.661 31.34,140 70,140 L70,140 C108.66,140 140,108.661 140,70 L140,70 C140,31.341 108.66,0 70,0 L70,0 C31.34,0 0,31.341 0,70" id="path-31"></path>
        <path d="M0,70 C0,108.661 31.34,140 70,140 L70,140 C108.66,140 140,108.661 140,70 L140,70 C140,31.341 108.66,0 70,0 L70,0 C31.34,0 0,31.341 0,70" id="path-33"></path>
        <path d="M0,70 C0,108.661 31.34,140 70,140 L70,140 C108.66,140 140,108.661 140,70 L140,70 C140,31.341 108.66,0 70,0 L70,0 C31.34,0 0,31.341 0,70" id="path-35"></path>
        <path d="M0,70 C0,108.661 31.34,140 70,140 L70,140 C108.66,140 140,108.661 140,70 L140,70 C140,31.341 108.66,0 70,0 L70,0 C31.34,0 0,31.341 0,70" id="path-37"></path>
        <path d="M0,70 C0,108.661 31.34,140 70,140 L70,140 C108.66,140 140,108.661 140,70 L140,70 C140,31.341 108.66,0 70,0 L70,0 C31.34,0 0,31.341 0,70" id="path-39"></path>
        <path d="M0,70 C0,108.661 31.34,140 70,140 L70,140 C108.66,140 140,108.661 140,70 L140,70 C140,31.341 108.66,0 70,0 L70,0 C31.34,0 0,31.341 0,70" id="path-41"></path>
        <path d="M0,70 C0,108.661 31.34,140 70,140 L70,140 C108.66,140 140,108.661 140,70 L140,70 C140,31.341 108.66,0 70,0 L70,0 C31.34,0 0,31.341 0,70" id="path-43"></path>
        <path d="M0,70 C0,108.661 31.34,140 70,140 L70,140 C108.66,140 140,108.661 140,70 L140,70 C140,31.341 108.66,0 70,0 L70,0 C31.34,0 0,31.341 0,70" id="path-45"></path>
        <path d="M0,70 C0,108.661 31.34,140 70,140 L70,140 C108.66,140 140,108.661 140,70 L140,70 C140,31.341 108.66,0 70,0 L70,0 C31.34,0 0,31.341 0,70" id="path-47"></path>
        <path d="M0,70 C0,108.661 31.34,140 70,140 L70,140 C108.66,140 140,108.661 140,70 L140,70 C140,31.341 108.66,0 70,0 L70,0 C31.34,0 0,31.341 0,70" id="path-49"></path>
        <path d="M0,70 C0,108.661 31.34,140 70,140 L70,140 C108.66,140 140,108.661 140,70 L140,70 C140,31.341 108.66,0 70,0 L70,0 C31.34,0 0,31.341 0,70" id="path-51"></path>
        <path d="M0,70 C0,108.661 31.34,140 70,140 L70,140 C108.66,140 140,108.661 140,70 L140,70 C140,31.341 108.66,0 70,0 L70,0 C31.34,0 0,31.341 0,70" id="path-53"></path>
        <path d="M0,70 C0,108.661 31.34,140 70,140 L70,140 C108.66,140 140,108.661 140,70 L140,70 C140,31.341 108.66,0 70,0 L70,0 C31.34,0 0,31.341 0,70" id="path-55"></path>
        <path d="M0,70 C0,108.661 31.34,140 70,140 L70,140 C108.66,140 140,108.661 140,70 L140,70 C140,31.341 108.66,0 70,0 L70,0 C31.34,0 0,31.341 0,70" id="path-57"></path>
        <path d="M0,70 C0,108.661 31.34,140 70,140 L70,140 C108.66,140 140,108.661 140,70 L140,70 C140,31.341 108.66,0 70,0 L70,0 C31.34,0 0,31.341 0,70" id="path-59"></path>
        <path d="M0,70 C0,108.661 31.34,140 70,140 L70,140 C108.66,140 140,108.661 140,70 L140,70 C140,31.341 108.66,0 70,0 L70,0 C31.34,0 0,31.341 0,70" id="path-61"></path>
        <path d="M0,70 C0,108.661 31.34,140 70,140 L70,140 C108.66,140 140,108.661 140,70 L140,70 C140,31.341 108.66,0 70,0 L70,0 C31.34,0 0,31.341 0,70" id="path-63"></path>
        <path d="M0,70 C0,108.661 31.34,140 70,140 L70,140 C108.66,140 140,108.661 140,70 L140,70 C140,31.341 108.66,0 70,0 L70,0 C31.34,0 0,31.341 0,70" id="path-65"></path>
        <path d="M0,70 C0,108.661 31.34,140 70,140 L70,140 C108.66,140 140,108.661 140,70 L140,70 C140,31.341 108.66,0 70,0 L70,0 C31.34,0 0,31.341 0,70" id="path-67"></path>
        <path d="M0,70 C0,108.661 31.34,140 70,140 L70,140 C108.66,140 140,108.661 140,70 L140,70 C140,31.341 108.66,0 70,0 L70,0 C31.34,0 0,31.341 0,70 L0,70 Z" id="path-69"></path>
        <path d="M0,70 C0,108.661 31.34,140 70,140 L70,140 C108.66,140 140,108.661 140,70 L140,70 C140,31.341 108.66,0 70,0 L70,0 C31.34,0 0,31.341 0,70" id="path-71"></path>
        <path d="M0,70 C0,108.661 31.34,140 70,140 L70,140 C108.66,140 140,108.661 140,70 L140,70 C140,31.341 108.66,0 70,0 L70,0 C31.34,0 0,31.341 0,70" id="path-73"></path>
        <path d="M0,70 C0,108.661 31.34,140 70,140 L70,140 C108.66,140 140,108.661 140,70 L140,70 C140,31.341 108.66,0 70,0 L70,0 C31.34,0 0,31.341 0,70" id="path-75"></path>
    </defs>
    <g id="pictogram/light/environment/earth/oceania" stroke="none" stroke-width="1" fill="none" fill-rule="evenodd">
        <g id="earth-oceania" transform="translate(-0.000100, 0.000000)">
            <path d="M140.045,70.022 C140.045,108.694 108.695,140.044 70.023,140.044 C31.35,140.044 0,108.694 0,70.022 C0,31.35 31.35,0 70.023,0 C108.695,0 140.045,31.35 140.045,70.022" id="circle" fill="#DDE4E3"></path>
            <g id="picto" transform="translate(0.000100, 0.021500)">
                <g id="Group-6">
                    <mask id="mask-2" fill="white">
                        <use xlink:href="#path-1"></use>
                    </mask>
                    <g id="Clip-5"></g>
                    <path d="M123.6631,70.4267 C123.6791,70.4317 123.6901,70.4327 123.6971,70.4327 L123.6631,69.9337 L123.6631,70.4267 Z M123.4461,71.2517 C123.3471,71.2517 123.2431,71.2407 123.1361,71.2177 C122.6641,71.1167 122.1791,70.7977 122.1601,70.3127 C122.1521,70.1257 122.2221,69.9467 122.3551,69.8077 C122.6631,69.4867 123.2921,69.4357 123.6491,69.4337 C124.0441,69.4187 124.2511,69.6237 124.3341,69.7507 C124.5111,70.0177 124.4931,70.3667 124.2821,70.7887 C124.1321,71.0867 123.8251,71.2517 123.4461,71.2517 L123.4461,71.2517 Z" id="Fill-4" fill="#91BFE3" mask="url(#mask-2)"></path>
                </g>
                <g id="Group-9">
                    <mask id="mask-4" fill="white">
                        <use xlink:href="#path-3"></use>
                    </mask>
                    <g id="Clip-8"></g>
                    <path d="M85.7705,94.1968 C85.7705,94.1968 84.3955,94.6268 83.6215,94.1968 C82.8475,93.7668 82.4455,94.1108 82.7615,94.9708 C83.0765,95.8308 84.0795,98.9838 85.7705,96.8628 C87.4615,94.7418 85.7705,94.1968 85.7705,94.1968" id="Fill-7" fill="#5495CF" mask="url(#mask-4)"></path>
                </g>
                <g id="Group-12">
                    <mask id="mask-6" fill="white">
                        <use xlink:href="#path-5"></use>
                    </mask>
                    <g id="Clip-11"></g>
                    <path d="M111.0508,91.3878 C111.0508,91.3878 111.3188,94.4738 110.0188,95.7978 C108.7198,97.1208 109.7898,97.5028 109.5608,98.2288 C109.3308,98.9548 109.2168,100.1008 110.8598,98.9928 C112.5038,97.8848 114.1848,96.9198 113.2678,95.7978 C112.3498,94.6748 112.3888,91.9608 112.0448,91.0438 C111.7008,90.1268 111.0298,90.5468 111.0508,91.3878" id="Fill-10" fill="#5495CF" mask="url(#mask-6)"></path>
                </g>
                <g id="Group-15">
                    <mask id="mask-8" fill="white">
                        <use xlink:href="#path-7"></use>
                    </mask>
                    <g id="Clip-14"></g>
                    <path d="M107.1909,98.3433 C107.1909,98.3433 103.5609,101.4393 102.2989,101.4393 C101.0379,101.4393 99.3949,103.2733 100.4649,103.8463 C101.5349,104.4193 103.7519,102.7003 106.0059,101.9743 C108.2609,101.2473 109.0289,96.8953 107.1909,98.3433" id="Fill-13" fill="#5495CF" mask="url(#mask-8)"></path>
                </g>
                <g id="Group-18">
                    <mask id="mask-10" fill="white">
                        <use xlink:href="#path-9"></use>
                    </mask>
                    <g id="Clip-17"></g>
                    <path d="M25.102,40.2542 C25.102,40.2542 32.287,50.0762 34.885,50.1522 C37.484,50.2282 36.682,45.9482 37.025,45.7952 C37.37,45.6432 35.726,44.2672 35.535,45.0312 C35.344,45.7952 33.586,44.0762 33.471,43.5792 C33.357,43.0822 29.764,40.9042 29,40.5602 C28.236,40.2162 28.083,39.4132 27.586,39.1082 C27.089,38.8022 24.49,39.0692 25.102,40.2542" id="Fill-16" fill="#5495CF" mask="url(#mask-10)"></path>
                </g>
                <g id="Group-21">
                    <mask id="mask-12" fill="white">
                        <use xlink:href="#path-11"></use>
                    </mask>
                    <g id="Clip-20"></g>
                    <path d="M39.1655,50.1532 C39.1655,50.1532 36.8345,50.0372 36.3945,50.9162 C35.9555,51.7952 38.9165,52.2162 43.2735,52.0062 C47.6305,51.7952 48.0505,51.9102 48.1655,51.5852 C48.2805,51.2602 44.2675,50.6682 45.6625,50.5532 C47.0575,50.4392 46.3115,49.3692 44.7645,49.7512 C43.2165,50.1332 39.1655,50.1532 39.1655,50.1532" id="Fill-19" fill="#5495CF" mask="url(#mask-12)"></path>
                </g>
                <g id="Group-24">
                    <mask id="mask-14" fill="white">
                        <use xlink:href="#path-13"></use>
                    </mask>
                    <g id="Clip-23"></g>
                    <path d="M49.1113,33.5471 C49.1113,33.5471 43.6363,37.9611 43.0353,38.5341 C42.4333,39.1081 41.7453,40.2541 41.2863,39.7951 C40.8283,39.3371 39.6243,40.4261 39.7383,41.2861 C39.8533,42.1461 40.6563,43.5501 41.3433,44.1521 C42.0313,44.7541 41.4803,45.9581 43.4183,45.6711 C45.3573,45.3851 46.8473,45.1561 46.8473,45.7151 C46.8473,46.2731 49.5413,45.4421 49.5703,44.0371 C49.5983,42.6331 50.6023,39.7381 51.6913,39.5951 C52.7803,39.4511 52.2073,38.7061 51.2903,37.9901 C50.3723,37.2731 50.5733,35.4961 52.0063,35.3531 C53.4393,35.2091 53.4973,33.9201 53.0673,33.6901 C52.6363,33.4611 51.4043,33.8621 51.1463,33.0021 C50.8883,32.1431 49.6753,33.0911 49.1113,33.5471" id="Fill-22" fill="#5495CF" mask="url(#mask-14)"></path>
                </g>
                <g id="Group-27">
                    <mask id="mask-16" fill="white">
                        <use xlink:href="#path-15"></use>
                    </mask>
                    <g id="Clip-26"></g>
                    <path d="M60.376,37.8465 C60.376,37.8465 58.771,38.4195 57.366,38.5915 C55.962,38.7635 53.927,38.7065 53.64,39.9965 C53.354,41.2865 51.949,43.8945 52.694,44.6395 C53.439,45.3845 52.78,46.5025 53.182,46.8175 C53.583,47.1335 54.357,47.4195 54.328,46.2165 C54.299,45.0125 54.271,43.4925 54.873,43.6645 C55.475,43.8365 55.79,45.7945 56.077,45.8905 C56.363,45.9865 57.939,45.3565 57.51,44.9835 C57.08,44.6105 55.79,42.6045 56.65,42.2035 C57.51,41.8015 58.542,40.5985 57.624,40.8565 C56.707,41.1145 54.031,42.1915 54.529,40.5405 C55.026,38.8905 59.43,39.3655 60.118,38.9355 C60.806,38.5055 60.884,37.6795 60.376,37.8465" id="Fill-25" fill="#5495CF" mask="url(#mask-16)"></path>
                </g>
                <g id="Group-30">
                    <mask id="mask-18" fill="white">
                        <use xlink:href="#path-17"></use>
                    </mask>
                    <g id="Clip-29"></g>
                    <path d="M58.5127,53.1378 C58.5127,53.1378 58.9287,51.5758 59.8597,51.3748 C60.7917,51.1748 60.9207,50.4008 61.5077,50.3428 C62.0957,50.2858 63.6287,50.1998 63.4707,50.5438 C63.3137,50.8878 61.2207,51.3748 61.0637,51.5758 C60.9067,51.7768 58.2407,54.1408 58.5127,53.1378" id="Fill-28" fill="#5495CF" mask="url(#mask-18)"></path>
                </g>
                <g id="Group-33">
                    <mask id="mask-20" fill="white">
                        <use xlink:href="#path-19"></use>
                    </mask>
                    <g id="Clip-32"></g>
                    <path d="M51.9492,50.6443 C51.9492,50.6443 51.0602,50.7443 51.3182,51.1463 C51.5762,51.5473 50.4442,51.3033 50.2432,51.3893 C50.0432,51.4753 50.6302,52.4783 51.2752,52.1203 C51.9202,51.7623 52.9812,51.4893 52.9522,51.2893 C52.9242,51.0883 52.3562,50.5453 51.9492,50.6443" id="Fill-31" fill="#5495CF" mask="url(#mask-20)"></path>
                </g>
                <g id="Group-36">
                    <mask id="mask-22" fill="white">
                        <use xlink:href="#path-21"></use>
                    </mask>
                    <g id="Clip-35"></g>
                    <path d="M56.8935,50.864 C56.8935,50.864 55.4605,51.017 55.2885,50.788 C55.1165,50.558 54.4285,50.596 54.0845,50.864 C53.7405,51.131 53.9985,51.475 54.9155,51.332 C55.8325,51.189 57.0655,51.244 57.1515,51.001 C57.2375,50.759 56.8935,50.864 56.8935,50.864" id="Fill-34" fill="#5495CF" mask="url(#mask-22)"></path>
                </g>
                <g id="Group-39">
                    <mask id="mask-24" fill="white">
                        <use xlink:href="#path-23"></use>
                    </mask>
                    <g id="Clip-38"></g>
                    <path d="M54.9731,52.364 C54.9731,52.364 53.8981,51.887 53.4531,52.197 C53.0101,52.507 54.4571,53.152 54.8721,52.923 C55.2881,52.694 55.4191,52.524 54.9731,52.364" id="Fill-37" fill="#5495CF" mask="url(#mask-24)"></path>
                </g>
                <g id="Group-42">
                    <mask id="mask-26" fill="white">
                        <use xlink:href="#path-25"></use>
                    </mask>
                    <g id="Clip-41"></g>
                    <path d="M87.5478,50.2899 C87.5478,50.2899 91.4748,54.4709 92.9368,54.4989 C94.3978,54.5279 94.3408,53.8109 93.3948,53.0949 C92.4488,52.3779 89.1818,49.5979 90.0698,49.3109 C90.9588,49.0249 91.5318,48.4229 90.4708,47.8209 C89.4108,47.2189 88.2068,46.8469 88.1208,46.0729 C88.0348,45.2989 81.1558,42.4609 79.2358,41.8019 C77.3158,41.1429 75.6528,42.4329 74.8498,43.2059 C74.0478,43.9799 72.7868,42.9479 72.8158,41.4869 C72.8438,40.0249 70.2638,39.7669 69.2608,40.3979 C68.2578,41.0279 70.2038,42.4849 71.2228,42.4589 C72.2418,42.4329 71.7548,43.4639 70.6938,43.3779 C69.6338,43.2919 71.4678,45.9289 71.9268,44.8109 C72.3848,43.6939 74.6208,45.4709 75.9398,45.6139 C77.2578,45.7569 79.1498,47.3629 79.0348,48.4799 C78.9208,49.5979 77.7168,49.5979 77.8308,49.9129 C77.9458,50.2289 78.3468,50.9169 80.3538,50.0279 C82.3598,49.1389 81.9018,51.8409 83.6778,51.8369 C85.4558,51.8339 84.6818,50.2289 86.0858,49.9419 C87.4898,49.6549 87.5478,50.2899 87.5478,50.2899" id="Fill-40" fill="#5495CF" mask="url(#mask-26)"></path>
                </g>
                <g id="Group-45">
                    <mask id="mask-28" fill="white">
                        <use xlink:href="#path-27"></use>
                    </mask>
                    <g id="Clip-44"></g>
                    <path d="M73.0591,46.5026 C73.0591,46.5026 72.9151,46.8176 72.6861,46.9606 C72.4571,47.1046 72.5431,48.2226 73.2021,48.1216 C73.8611,48.0216 74.0481,45.9866 73.0591,46.5026" id="Fill-43" fill="#5495CF" mask="url(#mask-28)"></path>
                </g>
                <g id="Group-48">
                    <mask id="mask-30" fill="white">
                        <use xlink:href="#path-29"></use>
                    </mask>
                    <g id="Clip-47"></g>
                    <path d="M58.312,14.5869 C58.312,14.5869 56.435,14.6869 55.818,16.0919 C55.202,17.4959 57.094,17.4679 57.38,16.8799 C57.667,16.2919 58.799,15.4609 59.144,15.0599 C59.487,14.6589 58.484,14.5009 58.312,14.5869" id="Fill-46" fill="#5495CF" mask="url(#mask-30)"></path>
                </g>
                <g id="Group-51">
                    <mask id="mask-32" fill="white">
                        <use xlink:href="#path-31"></use>
                    </mask>
                    <g id="Clip-50"></g>
                    <path d="M57.0937,20.2191 C57.0937,20.2191 56.1627,20.2051 55.7187,20.3051 C55.2737,20.4051 54.8007,22.0821 55.1157,22.4981 C55.4317,22.9131 54.5567,22.8851 54.6717,23.4011 C54.7867,23.9161 56.5497,25.3781 56.7787,24.6331 C57.0077,23.8881 56.1767,23.0631 57.1947,22.5291 C58.2117,21.9961 58.1107,20.1851 57.0937,20.2191" id="Fill-49" fill="#5495CF" mask="url(#mask-32)"></path>
                </g>
                <g id="Group-54">
                    <mask id="mask-34" fill="white">
                        <use xlink:href="#path-33"></use>
                    </mask>
                    <g id="Clip-53"></g>
                    <path d="M58.0972,24.2175 C58.0972,24.2175 59.5012,24.2175 59.6882,25.1635 C59.8742,26.1095 59.1292,26.3955 58.8922,25.8085 C58.6562,25.2205 57.9822,25.1065 57.6962,24.7625 C57.4092,24.4185 58.0972,24.2175 58.0972,24.2175" id="Fill-52" fill="#5495CF" mask="url(#mask-34)"></path>
                </g>
                <g id="Group-57">
                    <mask id="mask-36" fill="white">
                        <use xlink:href="#path-35"></use>
                    </mask>
                    <g id="Clip-56"></g>
                    <path d="M62.3677,28.9325 C62.3677,28.9325 61.8667,28.5745 61.0927,29.2905 C60.3187,30.0075 59.0717,30.5805 59.0997,30.0505 C59.1287,29.5205 57.3087,30.3085 56.8497,31.2395 C56.3917,32.1715 57.2227,31.3405 58.5987,31.0825 C59.9747,30.8245 58.9997,32.2285 59.8457,32.5725 C60.6907,32.9165 61.3787,32.7735 61.2497,32.0855 C61.1207,31.3975 62.9837,31.1395 63.0417,30.4085 C63.0987,29.6775 62.3677,28.9325 62.3677,28.9325" id="Fill-55" fill="#5495CF" mask="url(#mask-36)"></path>
                </g>
                <g id="Group-60">
                    <mask id="mask-38" fill="white">
                        <use xlink:href="#path-37"></use>
                    </mask>
                    <g id="Clip-59"></g>
                    <path d="M57.9087,26.7971 C57.9087,26.7971 56.7637,26.6391 57.0367,27.4421 C57.3087,28.2441 58.2687,27.7431 58.3977,27.3561 C58.5267,26.9691 57.9087,26.7971 57.9087,26.7971" id="Fill-58" fill="#5495CF" mask="url(#mask-38)"></path>
                </g>
                <g id="Group-63">
                    <mask id="mask-40" fill="white">
                        <use xlink:href="#path-39"></use>
                    </mask>
                    <g id="Clip-62"></g>
                    <path d="M61.4795,25.9086 C61.4795,25.9086 60.3755,26.4106 60.0745,26.9116 C59.7735,27.4136 60.3755,28.2876 61.1645,27.6426 C61.9525,26.9976 62.4685,26.4966 62.1665,26.2526 C61.8665,26.0086 61.7945,25.7496 61.4795,25.9086" id="Fill-61" fill="#5495CF" mask="url(#mask-40)"></path>
                </g>
                <g id="Group-66">
                    <mask id="mask-42" fill="white">
                        <use xlink:href="#path-41"></use>
                    </mask>
                    <g id="Clip-65"></g>
                    <path d="M53.7261,27.614 C53.7261,27.614 51.5481,30.151 50.8171,30.48 C50.0861,30.81 50.7601,31.412 52.3501,29.95 C53.9411,28.488 54.5001,27.772 54.2991,27.614 C54.0991,27.456 53.7261,27.614 53.7261,27.614" id="Fill-64" fill="#5495CF" mask="url(#mask-42)"></path>
                </g>
                <g id="Group-69">
                    <mask id="mask-44" fill="white">
                        <use xlink:href="#path-43"></use>
                    </mask>
                    <g id="Clip-68"></g>
                    <path d="M54.6616,26.1665 C54.5716,26.1375 53.6256,26.5285 53.9986,26.7845 C54.3706,27.0405 54.9736,26.8835 55.0586,26.6395 C55.1446,26.3955 54.6616,26.1665 54.6616,26.1665" id="Fill-67" fill="#5495CF" mask="url(#mask-44)"></path>
                </g>
                <g id="Group-72">
                    <mask id="mask-46" fill="white">
                        <use xlink:href="#path-45"></use>
                    </mask>
                    <g id="Clip-71"></g>
                    <path d="M59.9888,41.8019 C59.9888,41.8019 61.6518,41.5149 61.8808,41.6299 C62.1098,41.7449 62.1528,42.3609 61.2358,42.3749 C60.3188,42.3899 59.9888,42.4469 59.8028,42.1029 C59.6158,41.7589 59.9888,41.8019 59.9888,41.8019" id="Fill-70" fill="#5495CF" mask="url(#mask-46)"></path>
                </g>
                <g id="Group-75">
                    <mask id="mask-48" fill="white">
                        <use xlink:href="#path-47"></use>
                    </mask>
                    <g id="Clip-74"></g>
                    <path d="M62.8266,43.6363 C62.8266,43.6363 62.0666,43.4353 61.8516,43.6363 C61.6366,43.8373 63.1566,44.8973 63.3566,44.6113 C63.5566,44.3243 63.7146,43.8083 62.8266,43.6363" id="Fill-73" fill="#5495CF" mask="url(#mask-48)"></path>
                </g>
                <g id="Group-78">
                    <mask id="mask-50" fill="white">
                        <use xlink:href="#path-49"></use>
                    </mask>
                    <g id="Clip-77"></g>
                    <path d="M66.581,42.9536 C66.581,42.9536 64.446,42.9626 64.603,43.3356 C64.761,43.7076 65.435,43.8656 66.495,43.7366 C67.556,43.6076 68.373,44.6106 68.53,44.3096 C68.688,44.0086 67.731,42.8916 66.581,42.9536" id="Fill-76" fill="#5495CF" mask="url(#mask-50)"></path>
                </g>
                <g id="Group-81">
                    <mask id="mask-52" fill="white">
                        <use xlink:href="#path-51"></use>
                    </mask>
                    <g id="Clip-80"></g>
                    <path d="M64.2309,37.2445 C64.2309,37.2445 63.4279,38.0755 63.7299,38.9495 C64.0299,39.8245 64.6179,40.6125 64.4889,39.6955 C64.3599,38.7775 65.5919,38.5205 65.6209,38.1045 C65.6499,37.6885 64.8369,37.7895 64.6419,38.0905 C64.4459,38.3915 64.2599,38.7925 64.3169,38.1905 C64.3739,37.5885 64.7089,37.4735 64.6419,37.2445 C64.5749,37.0155 64.2309,37.2445 64.2309,37.2445" id="Fill-79" fill="#5495CF" mask="url(#mask-52)"></path>
                </g>
                <g id="Group-84">
                    <mask id="mask-54" fill="white">
                        <use xlink:href="#path-53"></use>
                    </mask>
                    <g id="Clip-83"></g>
                    <path d="M89.7261,134.3812 C89.0291,133.9372 82.0821,133.3882 80.5541,130.8652 C79.0251,128.3432 84.2651,128.2672 84.5871,127.8842 C84.9111,127.5022 78.3371,121.5412 69.3181,121.3112 C60.2991,121.0822 60.7581,121.6742 58.7701,122.0562 C56.7831,122.4392 49.4631,123.6832 48.7581,124.9802 C47.6211,127.0722 49.6931,126.9832 50.1151,128.9102 C50.6591,131.4002 47.0761,129.7952 46.0821,128.1142 C45.0891,126.4322 40.2181,127.5112 40.8851,128.8022 C40.8851,128.8022 42.3721,133.3322 50.4121,137.2022 C56.6301,139.0112 63.1981,140.0002 70.0001,140.0002 C76.3441,140.0002 82.4851,139.1412 88.3291,137.5602 C90.3571,136.7322 91.4081,135.4512 89.7261,134.3812" id="Fill-82" fill="#5495CF" mask="url(#mask-54)"></path>
                </g>
                <g id="Group-87">
                    <mask id="mask-56" fill="white">
                        <use xlink:href="#path-55"></use>
                    </mask>
                    <g id="Clip-86"></g>
                    <path d="M92.4585,47.8211 C92.4585,47.8211 94.0255,48.6431 94.8095,47.8211 C95.5925,46.9991 96.4715,46.5031 96.5475,47.1711 C96.6245,47.8401 95.9745,48.9671 94.5035,49.0251 C93.0315,49.0821 91.8665,48.6941 91.9235,47.9421 C91.9805,47.1901 92.4585,47.8211 92.4585,47.8211" id="Fill-85" fill="#5495CF" mask="url(#mask-56)"></path>
                </g>
                <g id="Group-90">
                    <mask id="mask-58" fill="white">
                        <use xlink:href="#path-57"></use>
                    </mask>
                    <g id="Clip-89"></g>
                    <path d="M105.6626,54.9866 C105.6626,54.9866 104.8976,54.8146 104.9556,55.2346 C105.0126,55.6556 105.8536,56.1526 106.3116,56.0756 C106.7706,55.9996 106.1206,55.1016 105.6626,54.9866" id="Fill-88" fill="#5495CF" mask="url(#mask-58)"></path>
                </g>
                <g id="Group-93">
                    <mask id="mask-60" fill="white">
                        <use xlink:href="#path-59"></use>
                    </mask>
                    <g id="Clip-92"></g>
                    <path d="M104.8027,52.8847 C104.8027,52.8847 104.2487,52.5407 104.1717,52.8847 C104.0957,53.2287 104.7257,53.8017 105.0317,53.6877 C105.3377,53.5727 105.0877,53.0117 104.8027,52.8847" id="Fill-91" fill="#5495CF" mask="url(#mask-60)"></path>
                </g>
                <g id="Group-96">
                    <mask id="mask-62" fill="white">
                        <use xlink:href="#path-61"></use>
                    </mask>
                    <g id="Clip-95"></g>
                    <path d="M99.6816,48.9102 C99.6816,48.9102 99.6816,50.6302 100.5796,50.8592 C101.4776,51.0882 101.0766,50.1522 100.7136,49.8842 C100.3496,49.6172 100.0256,49.0822 100.0826,48.7382 C100.1396,48.3942 99.6516,48.4912 99.6816,48.9102" id="Fill-94" fill="#5495CF" mask="url(#mask-62)"></path>
                </g>
                <g id="Group-99">
                    <mask id="mask-64" fill="white">
                        <use xlink:href="#path-63"></use>
                    </mask>
                    <g id="Clip-98"></g>
                    <path d="M109.9043,72.3561 C109.9043,72.3561 109.4033,71.4531 109.0873,70.8941 C108.7723,70.3351 108.2273,70.2061 108.2703,70.6941 C108.3133,71.1811 109.8903,73.8891 110.3633,73.8611 C110.8363,73.8321 110.5353,73.3021 109.9043,72.3561" id="Fill-97" fill="#5495CF" mask="url(#mask-64)"></path>
                </g>
                <g id="Group-102">
                    <mask id="mask-66" fill="white">
                        <use xlink:href="#path-65"></use>
                    </mask>
                    <g id="Clip-101"></g>
                    <path d="M121.8135,70.8369 C121.8135,70.8369 121.0115,70.9519 121.0405,71.5539 C121.0685,72.1549 122.3435,72.7709 122.3295,72.1269 C122.3155,71.4819 122.4305,70.9369 121.8135,70.8369" id="Fill-100" fill="#5495CF" mask="url(#mask-66)"></path>
                </g>
                <g id="Group-105">
                    <mask id="mask-68" fill="white">
                        <use xlink:href="#path-67"></use>
                    </mask>
                    <g id="Clip-104"></g>
                    <path d="M12.4399,42.0004 C12.4399,42.0004 13.6559,41.9454 12.7109,44.1234 C11.7639,46.3024 14.8889,44.6964 15.0609,43.3214 C15.2319,41.9454 13.9819,38.4174 13.0829,39.2364 C12.1829,40.0564 12.4399,42.0004 12.4399,42.0004" id="Fill-103" fill="#5495CF" mask="url(#mask-68)"></path>
                </g>
                <g id="Group-111">
                    <mask id="mask-70" fill="white">
                        <use xlink:href="#path-69"></use>
                    </mask>
                    <g id="Clip-110"></g>
                    <path d="M81.4097,128.7497 C81.4097,128.7497 83.4587,127.9717 84.7197,128.7497 C85.9807,129.5277 86.8217,127.2737 84.7197,126.3557 C82.6177,125.4387 77.9967,123.3027 77.9967,123.3027 L76.5417,127.5407 L81.4097,128.7497 Z" id="Fill-109" fill="#5495CF" mask="url(#mask-70)"></path>
                </g>
                <g id="Group-114">
                    <mask id="mask-72" fill="white">
                        <use xlink:href="#path-71"></use>
                    </mask>
                    <g id="Clip-113"></g>
                    <path d="M77.2851,0.3783 C75.1561,0.1583 72.9961,0.0463 70.8151,0.0213 L67.4901,0.0643 C43.3361,0.9173 22.3001,13.9933 10.3861,33.3103 L10.3891,33.3753 C10.3891,33.3753 12.4521,32.0373 11.6881,33.9483 C10.9231,35.8593 9.6241,43.7323 11.5351,42.8913 C13.4461,42.0503 13.6751,36.5473 15.2031,34.5603 C16.7321,32.5723 23.2291,24.7763 24.7581,24.7003 C26.2861,24.6233 27.4331,26.6873 26.8981,27.3753 C26.3631,28.0633 26.5151,29.9743 27.9681,28.6743 C29.4201,27.3753 30.0321,29.9743 29.4961,31.5023 C28.9621,33.0313 28.8091,35.7823 30.0321,36.9293 C31.2551,38.0753 30.1081,39.7573 31.5601,40.7513 C33.0131,41.7443 35.0761,42.2033 34.3891,39.9863 C33.7011,37.7703 29.1151,35.9363 30.5671,31.7323 C31.3941,29.3373 33.0131,29.6723 34.2411,30.5583 L34.2411,30.5553 C34.2411,30.5553 37.1551,32.5693 39.4051,30.7793 C41.0651,29.5193 42.5961,27.8843 42.1841,26.6873 C41.3441,24.2413 37.6751,23.4003 39.7391,20.9553 C41.8021,18.5093 43.8661,19.4263 43.1781,20.1903 C42.4901,20.9553 42.7201,23.4513 44.2481,21.4773 C45.7771,19.5023 48.9871,18.0503 51.2801,17.2093 C53.5731,16.3683 61.5981,10.6363 57.8531,8.2673 C54.1081,5.8973 60.2231,3.9103 60.0701,5.1333 C59.9171,6.3563 62.8221,4.6743 63.7391,5.8973 C64.6561,7.1203 64.1971,7.9613 66.1081,7.3493 C68.0191,6.7383 67.4841,5.4393 66.4901,5.0563 C65.4961,4.6743 67.9421,3.0693 70.3891,3.3753 C72.7311,3.6683 78.9811,0.8913 77.2851,0.3783" id="Fill-112" fill="#5495CF" mask="url(#mask-72)"></path>
                </g>
                <g id="Group-117">
                    <mask id="mask-74" fill="white">
                        <use xlink:href="#path-73"></use>
                    </mask>
                    <g id="Clip-116"></g>
                    <path d="M91.4839,68.8783 C91.4839,68.8783 87.3569,63.9103 87.8159,61.7703 C88.2739,59.6293 85.5229,57.0313 84.9109,54.7383 C84.6769,53.8603 84.3759,53.6233 84.0929,53.6623 C82.9329,53.4843 83.1829,55.0653 83.1839,55.0713 C83.0639,56.3903 82.6849,59.7413 81.7769,61.6173 C80.6299,63.9863 78.0319,60.9293 75.8919,59.9363 C74.5109,59.2943 74.7869,57.8913 75.4629,56.7493 L75.4609,56.7493 C75.4609,56.7493 75.4659,56.7413 75.4769,56.7273 C75.5429,56.6163 75.6119,56.5093 75.6839,56.4043 C76.0329,55.8173 76.5589,54.6663 75.4639,54.4623 C74.1389,54.1733 72.1809,53.9393 70.9329,53.7163 L70.9339,53.7173 C70.9339,53.7173 69.2609,53.3603 68.5059,55.1383 C68.4999,55.1533 68.4939,55.1603 68.4869,55.1743 C68.3859,55.4393 68.2659,55.7203 68.0959,56.0373 C67.0259,58.0243 66.7199,57.7193 63.5089,57.1843 C60.2989,56.6493 59.4589,63.2223 53.1909,65.4393 C46.9229,67.6553 45.8539,70.2543 48.1469,75.6753 C50.4399,81.0963 48.9869,82.6363 51.6629,85.9993 C54.3379,89.3623 63.2799,82.6363 67.1779,81.4893 C71.0759,80.3433 72.3759,84.3943 73.5989,85.0823 C74.8219,85.7703 75.0509,81.2603 76.8849,86.5343 C78.7199,91.8083 87.5089,92.6493 88.5029,90.5093 C89.4969,88.3683 93.0889,84.7763 94.9999,79.5023 C96.9109,74.2293 91.4839,68.8783 91.4839,68.8783" id="Fill-115" fill="#5495CF" mask="url(#mask-74)"></path>
                </g>
                <g id="Group-120">
                    <mask id="mask-76" fill="white">
                        <use xlink:href="#path-75"></use>
                    </mask>
                    <g id="Clip-119"></g>
                    <path d="M75.4604,56.7494 L75.4634,56.7494 C75.4674,56.7414 75.4724,56.7344 75.4774,56.7274 C75.4664,56.7414 75.4604,56.7494 75.4604,56.7494" id="Fill-118" fill="#5495CF" mask="url(#mask-76)"></path>
                </g>
            </g>
        </g>
    </g>
</svg>