<?xml version="1.0" encoding="UTF-8"?>
<svg width="140px" height="140px" viewBox="0 0 140 140" version="1.1" xmlns="http://www.w3.org/2000/svg" xmlns:xlink="http://www.w3.org/1999/xlink">
    <title>pictogram/dark/business &amp; education/shop/care</title>
    <defs>
        <path d="M70,0 C31.339,0 2.88657986e-15,31.34 2.88657986e-15,70 L2.88657986e-15,70 C2.88657986e-15,108.659 31.339,140 70,140 L70,140 C108.546,140 139.816,108.843 139.999,70.339 L139.999,70.339 L139.999,69.66" id="path-1"></path>
    </defs>
    <g id="pictogram/dark/business-&amp;-education/shop/care" stroke="none" stroke-width="1" fill="none" fill-rule="evenodd">
        <g id="shop-care">
            <path d="M70,0 C31.34,0 0,31.34 0,70 C0,84.803 4.606,98.523 12.448,109.832 C25.085,128.056 46.143,140 70,140 C93.856,140 114.914,128.056 127.552,109.832 C135.393,98.523 140,84.803 140,70 C140,31.34 108.66,0 70,0" id="circle" fill="#91BFE3"></path>
            <g id="picto">
                <path d="M108.0654,49.7963 C105.4324,49.7963 103.2914,47.6543 103.2914,45.0213 C103.2914,44.3313 102.7304,43.7713 102.0404,43.7713 C101.3504,43.7713 100.7904,44.3313 100.7904,45.0213 C100.7904,47.6543 98.6484,49.7963 96.0154,49.7963 C93.3854,49.7963 91.2434,47.6563 91.2414,45.0263 C91.2404,44.3363 90.6814,43.7773 89.9914,43.7773 C89.3014,43.7773 88.7424,44.3363 88.7414,45.0253 C88.7384,47.6563 86.5954,49.7963 83.9654,49.7963 C81.3584,49.7963 79.2314,47.6943 79.1914,45.0953 L79.1914,45.0223 L79.1904,45.0223 L79.1904,45.0213 C79.1904,44.3303 78.6304,43.7713 77.9404,43.7713 C77.2504,43.7713 76.6904,44.3313 76.6904,45.0213 C76.6904,47.6543 74.5474,49.7963 71.9154,49.7963 C69.2854,49.7963 67.1434,47.6563 67.1404,45.0253 C67.1394,44.3363 66.5804,43.7773 65.8904,43.7773 C65.2004,43.7773 64.6414,44.3363 64.6404,45.0263 C64.6384,47.6563 62.4964,49.7963 59.8664,49.7963 C57.2334,49.7963 55.0904,47.6543 55.0904,45.0213 C55.0904,44.3313 54.5314,43.7713 53.8404,43.7713 C53.1504,43.7713 52.5904,44.3313 52.5904,45.0213 C52.5904,47.6543 50.4484,49.7963 47.8154,49.7963 C45.1854,49.7963 43.0434,47.6563 43.0414,45.0263 C43.0404,44.3363 42.4814,43.7773 41.7914,43.7773 C41.1014,43.7773 40.5424,44.3363 40.5414,45.0253 C40.5384,47.6563 38.3964,49.7963 35.7664,49.7963 C35.0764,49.7963 34.5164,50.3563 34.5164,51.0463 L34.5164,78.9423 C34.5164,79.6133 35.0464,80.1653 35.7174,80.1913 L58.0394,81.0663 C61.9744,81.2593 65.0574,84.4963 65.0574,88.4373 C65.0574,92.3693 61.9814,95.6073 58.0544,95.8073 L45.6784,96.4393 C45.0824,96.4703 44.5894,96.9183 44.5044,97.5103 C44.4194,98.1013 44.7654,98.6703 45.3294,98.8673 L63.6874,105.2933 C64.4064,105.5443 65.1584,105.6683 65.9084,105.6683 C66.9984,105.6683 68.0844,105.4053 69.0624,104.8883 L106.6764,84.9753 C107.1884,84.7033 107.7504,84.4973 108.3454,84.3593 C108.9134,84.2293 109.3154,83.7243 109.3154,83.1413 L109.3154,51.0463 C109.3154,50.3563 108.7554,49.7963 108.0654,49.7963" id="Fill-3" fill="#5495CF"></path>
                <path d="M114.0908,43.7714 L89.9908,43.7714 L77.9418,43.7714 L77.9408,43.7714 L65.8918,43.7714 L53.8418,43.7714 L53.8408,43.7714 L41.7918,43.7714 L41.7908,43.7714 L29.7408,43.7714 C29.0508,43.7714 28.4908,44.3314 28.4908,45.0214 C28.4908,49.0324 31.7548,52.2964 35.7668,52.2964 C38.2688,52.2964 40.4808,51.0244 41.7898,49.0924 C43.0998,51.0244 45.3128,52.2964 47.8158,52.2964 C50.3198,52.2964 52.5318,51.0244 53.8408,49.0934 C55.1508,51.0244 57.3618,52.2964 59.8658,52.2964 C62.3678,52.2964 64.5808,51.0244 65.8908,49.0924 C67.1998,51.0234 69.4118,52.2964 71.9158,52.2964 C74.4198,52.2964 76.6318,51.0244 77.9408,49.0934 C79.2498,51.0244 81.4628,52.2964 83.9668,52.2964 C86.4688,52.2964 88.6808,51.0244 89.9898,49.0924 C91.2998,51.0244 93.5128,52.2964 96.0158,52.2964 C98.5188,52.2964 100.7308,51.0254 102.0408,49.0944 C103.3498,51.0254 105.5618,52.2964 108.0658,52.2964 C112.0768,52.2964 115.3408,49.0324 115.3408,45.0214 C115.3408,44.3314 114.7808,43.7714 114.0908,43.7714" id="Fill-5" fill="#23366F"></path>
                <path d="M82.9238,75.466 C82.9238,63.712 71.4028,64.013 71.4028,64.013 C71.4028,64.013 59.8828,63.712 59.8828,75.466 L59.8828,109.608 L82.9238,107.927 L82.9238,75.466 Z" id="Fill-7" fill="#2167AE"></path>
                <path d="M115.2763,44.5726 L109.2513,26.4986 C109.0813,25.9886 108.6033,25.6436 108.0653,25.6436 L35.7663,25.6436 C35.2283,25.6436 34.7513,25.9886 34.5813,26.4986 L28.5553,44.5726 C28.4283,44.9536 28.4923,45.3726 28.7273,45.6986 C28.9623,46.0246 29.3393,46.2186 29.7413,46.2186 L114.0903,46.2186 C114.4923,46.2186 114.8703,46.0246 115.1043,45.6986 C115.3393,45.3726 115.4033,44.9536 115.2763,44.5726" id="Fill-9" fill="#2167AE"></path>
                <path d="M96.8867,83.5243 C100.6937,81.5093 105.4087,82.8233 107.6247,86.5163 C109.9617,90.4113 108.6407,95.4663 104.6977,97.7193 L67.9037,118.7443 L54.4347,106.1143 L96.8867,83.5243 Z" id="Fill-12" fill="#C4BDAA"></path>
                <g id="Group-17">
                    <mask id="mask-2" fill="white">
                        <use xlink:href="#path-1"></use>
                    </mask>
                    <g id="Clip-16"></g>
                    <path d="M116.8301,86.5165 C114.6141,82.8235 109.8971,81.5095 106.0921,83.5245 L68.4781,103.4375 C67.1281,104.1525 65.5411,104.2715 64.1001,103.7675 L45.7421,97.3425 L58.1181,96.7105 C62.7071,96.4765 66.3081,92.6875 66.3081,88.0925 L66.3081,88.0915 C66.3081,83.4895 62.6961,79.6975 58.1011,79.4725 L-0.2999,77.1955 C-0.1529,87.5705 2.2381,97.4005 6.4301,106.2145 L51.2951,121.9075 C59.1111,124.7865 67.8011,124.0635 75.0331,119.9305 L106.2201,102.1095 C104.3611,98.8355 105.4601,94.6625 108.7141,92.7385 C111.5601,91.0555 115.1211,91.6465 117.2881,93.9675 C118.3161,91.6425 118.2411,88.8685 116.8301,86.5165" id="Fill-15" fill="#DAD2BD" mask="url(#mask-2)"></path>
                </g>
                <path d="M108.7138,92.7389 C111.5608,91.0559 115.1208,91.6459 117.2878,93.9669 C116.6138,95.4929 115.4648,96.8259 113.9018,97.7189 L106.2198,102.1089 C104.3608,98.8349 105.4598,94.6629 108.7138,92.7389" id="Fill-18" fill="#ECEEEF"></path>
                <path d="M52.6328,88.0833 C52.6328,85.0623 55.0818,82.6143 58.1028,82.6143 C61.1228,82.6143 63.5708,85.0623 63.5708,88.0833 C63.5708,91.1043 61.1228,93.5523 58.1028,93.5523 C55.0818,93.5523 52.6328,91.1043 52.6328,88.0833" id="Fill-21" fill="#ECEEEF"></path>
            </g>
        </g>
    </g>
</svg>