<?xml version="1.0" encoding="UTF-8"?>
<svg width="140px" height="140px" viewBox="0 0 140 140" version="1.1" xmlns="http://www.w3.org/2000/svg" xmlns:xlink="http://www.w3.org/1999/xlink">
    <title>pictogram/dark/business &amp; education/shop/plain</title>
    <g id="pictogram/dark/business-&amp;-education/shop/plain" stroke="none" stroke-width="1" fill="none" fill-rule="evenodd">
        <g id="shop" transform="translate(-0.000300, 0.000000)">
            <path d="M140,70 C140,108.66 108.66,140 70,140 C31.34,140 0,108.66 0,70 C0,31.34 31.34,0 70,0 C108.66,0 140,31.34 140,70" id="circle" fill="#91BFE3"></path>
            <g id="picto" transform="translate(19.464300, 30.000400)">
                <path d="M92.816,21.1925 L8.293,21.1925 C7.602,21.1925 7.043,21.7525 7.043,22.4425 L7.043,78.7295 C7.043,79.4195 7.602,79.9795 8.293,79.9795 L92.816,79.9795 C93.506,79.9795 94.066,79.4195 94.066,78.7295 L94.066,22.4425 C94.066,21.7525 93.506,21.1925 92.816,21.1925" id="Fill-4" fill="#5495CF"></path>
                <path d="M99.86,22.4425 L98.61,22.4425 L87.023,22.4425 L87.022,22.4425 L85.773,22.4425 L84.523,22.4425 L84.522,22.4425 L72.936,22.4425 L72.935,22.4425 L71.686,22.4425 L71.685,22.4425 L70.436,22.4425 L70.435,22.4425 L58.848,22.4425 L57.599,22.4425 L57.598,22.4425 L56.348,22.4425 L44.761,22.4425 L44.76,22.4425 L43.511,22.4425 L42.261,22.4425 L42.26,22.4425 L30.674,22.4425 L30.673,22.4425 L29.424,22.4425 L29.423,22.4425 L28.174,22.4425 L28.173,22.4425 L16.587,22.4425 L16.586,22.4425 L15.337,22.4425 L14.087,22.4425 L14.086,22.4425 L2.5,22.4425 L1.25,22.4425 L-7.10542736e-15,22.4425 C-7.10542736e-15,27.0155 3.719,30.7355 8.293,30.7355 C11.266,30.7355 13.872,29.1575 15.337,26.8005 C16.8,29.1575 19.406,30.7355 22.38,30.7355 C25.354,30.7355 27.96,29.1575 29.424,26.7985 C30.888,29.1575 33.494,30.7355 36.467,30.7355 C39.441,30.7355 42.047,29.1575 43.511,26.8005 C44.975,29.1575 47.581,30.7355 50.554,30.7355 C53.529,30.7355 56.134,29.1575 57.598,26.7995 C59.063,29.1575 61.669,30.7355 64.642,30.7355 C67.616,30.7355 70.221,29.1575 71.686,26.8005 C73.15,29.1575 75.756,30.7355 78.729,30.7355 C81.704,30.7355 84.309,29.1575 85.773,26.7985 C87.237,29.1575 89.842,30.7355 92.816,30.7355 C97.389,30.7355 101.11,27.0155 101.11,22.4425 L99.86,22.4425 Z" id="Fill-6" fill="#DAD2BD"></path>
                <path d="M101.0455,21.985 L94.0015,0.855 C93.8315,0.344 93.3545,0 92.8165,0 L8.2925,0 C7.7545,0 7.2765,0.344 7.1075,0.855 L0.0645,21.985 C-0.0625,22.366 0.000144470047,22.785 0.2355,23.111 C0.4705,23.437 0.8485,23.631 1.2495,23.631 L99.8595,23.631 C100.2615,23.631 100.6395,23.437 100.8735,23.111 C101.1085,22.785 101.1725,22.366 101.0455,21.985" id="Fill-8" fill="#2167AE"></path>
                <path d="M50.5738,40.567 C50.5738,40.567 39.0528,40.266 39.0528,52.02 L39.0528,79.999 L50.5738,79.999 L62.0948,79.999 L62.0948,52.02 C62.0948,40.266 50.5738,40.567 50.5738,40.567" id="Fill-10" fill="#ECEEEF"></path>
            </g>
        </g>
    </g>
</svg>