<?xml version="1.0" encoding="UTF-8"?>
<svg width="140px" height="140px" viewBox="0 0 140 140" version="1.1" xmlns="http://www.w3.org/2000/svg" xmlns:xlink="http://www.w3.org/1999/xlink">
    <title>pictogram/light/health/medical/sign-1</title>
    <g id="pictogram/light/health/medical/sign-1" stroke="none" stroke-width="1" fill="none" fill-rule="evenodd">
        <g id="medical-sign-1" transform="translate(-0.000000, 0.000000)">
            <path d="M0,70 C0,31.34 31.34,0 70,0 C108.66,0 140,31.34 140,70 C140,108.66 108.66,140 70,140 C31.34,140 0,108.66 0,70" id="circle" fill="#DDE4E3"></path>
            <g id="picto" transform="translate(20.019561, 24.363300)">
                <path d="M99.9479394,19.1069 L0.0129393871,19.1069 C0.0129393871,19.1069 -0.616060613,28.2789 6.89693939,28.2789 L6.90093939,28.2789 C6.89893939,28.3059 6.28293939,37.4489 13.7859394,37.4489 L13.7809394,37.4489 C13.7809394,37.4489 13.1519394,46.6219 20.6649394,46.6219 L79.2949394,46.6219 C86.8089394,46.6219 86.1799394,37.4489 86.1799394,37.4489 L86.1749394,37.4489 C93.6769394,37.4489 93.0609394,28.3059 93.0589394,28.2789 L93.0629394,28.2789 C100.576939,28.2789 99.9479394,19.1069 99.9479394,19.1069" id="Fill-4" fill="#5495CF"></path>
                <path d="M50.4574394,0 C45.7114394,0 41.8504394,3.861 41.8504394,8.607 C41.8504394,13.354 45.7114394,17.215 50.4574394,17.215 C55.2024394,17.215 59.0634394,13.354 59.0634394,8.607 C59.0634394,3.861 55.2024394,0 50.4574394,0" id="Fill-6" fill="#91BFE3"></path>
                <path d="M50.4565394,17.2773 C46.3065394,17.2773 42.9295394,20.4243 42.9315385,24.3483 L44.7935394,90.4323 C44.8115394,93.3523 47.3445394,95.7233 50.4565394,95.7233 C53.5785394,95.7233 56.1185394,93.3363 56.1175394,90.4563 L57.9835394,24.2943 C57.9835394,20.4243 54.6055394,17.2773 50.4565394,17.2773" id="Fill-8" fill="#2167AE"></path>
                <path d="M63.2978394,28.8916 C62.2318394,28.8916 61.3668394,29.7556 61.3668394,30.8226 C61.3668394,32.9396 59.6448394,34.6626 57.5278394,34.6626 L47.3388394,34.6626 C47.2718394,34.6626 47.2088394,34.6756 47.1438394,34.6826 L45.3008394,34.6826 C41.0548394,34.6826 37.6008394,38.1366 37.6008394,42.3826 C37.6008394,46.0716 40.1838394,49.1536 43.6518394,49.9016 L43.5348394,45.7706 C42.3068394,45.1296 41.4628394,43.8616 41.4628394,42.3826 C41.4628394,40.2666 43.1848394,38.5436 45.3008394,38.5436 L54.7238394,38.5436 C54.7928394,38.5436 54.8568394,38.5306 54.9228394,38.5236 L57.5278394,38.5236 C61.7748394,38.5236 65.2288394,35.0686 65.2288394,30.8226 C65.2288394,29.7556 64.3638394,28.8916 63.2978394,28.8916" id="Fill-10" fill="#91BFE3"></path>
                <path d="M57.3583394,46.4683 L57.2423394,50.5313 C58.4833394,51.1683 59.2983394,52.4343 59.2983394,53.9233 C59.2983394,56.0393 57.5763394,57.7623 55.4583394,57.7623 L46.0673394,57.7623 C41.8213394,57.7623 38.3673394,61.2163 38.3673394,65.4623 C38.3673394,69.1093 40.8923394,72.1603 44.3013394,72.9523 L44.1833394,68.7873 C43.0193394,68.1273 42.2283394,66.8943 42.2283394,65.4623 C42.2283394,63.3463 43.9513394,61.6233 46.0673394,61.6233 L55.4583394,61.6233 C59.7043394,61.6233 63.1603394,58.1693 63.1603394,53.9233 C63.1603394,50.3273 60.6963394,47.3123 57.3583394,46.4683" id="Fill-12" fill="#91BFE3"></path>
                <path d="M62.4242394,77.0029 C62.4242394,73.4389 59.9992394,70.4449 56.7062394,69.5709 L56.5912394,73.6629 C57.7732394,74.3169 58.5632394,75.5589 58.5632394,77.0029 C58.5632394,79.1189 56.8402394,80.8419 54.7242394,80.8419 L54.7222394,80.8419 L44.5352394,80.8419 C40.2892394,80.8419 36.8342394,84.2979 36.8342394,88.5439 C36.8342394,89.6099 37.6982394,90.4749 38.7652394,90.4749 C39.8322394,90.4749 40.6962394,89.6099 40.6962394,88.5439 C40.6962394,86.4259 42.4192394,84.7029 44.5352394,84.7029 L54.7242394,84.7029 L54.7292394,84.7029 C58.9722394,84.6999 62.4242394,81.2479 62.4242394,77.0029" id="Fill-14" fill="#91BFE3"></path>
            </g>
        </g>
    </g>
</svg>