<?xml version="1.0" encoding="UTF-8"?>
<svg width="140px" height="140px" viewBox="0 0 140 140" version="1.1" xmlns="http://www.w3.org/2000/svg" xmlns:xlink="http://www.w3.org/1999/xlink">
    <title>pictogram/dark/device/cloud/data</title>
    <g id="pictogram/dark/device/cloud/data" stroke="none" stroke-width="1" fill="none" fill-rule="evenodd">
        <g id="cloud-data">
            <path d="M140,70 C140,108.66 108.66,140 70,140 C31.34,140 0,108.66 0,70 C0,31.34 31.34,0 70,0 C108.66,0 140,31.34 140,70" id="circle" fill="#91BFE3"></path>
            <g id="picto" transform="translate(21.850800, 22.568100)">
                <path d="M73.094,72.224 L73.278,72.224 C85.991,72.224 96.298,61.753 96.298,48.837 C96.298,37.847 88.827,28.653 78.77,26.147 C76.185,11.293 63.446,0 48.083,0 C30.855,0 16.89,14.188 16.89,31.69 C16.89,32.523 16.95,33.341 17.012,34.158 C7.47,35.063 0,43.215 0,53.146 C0,63.682 8.408,72.224 18.779,72.224 L73.094,72.224 Z" id="Fill-4" fill="#2167AE"></path>
                <path d="M67.5913,75.421 C67.5913,86.159 58.8863,94.863 48.1493,94.863 C37.4113,94.863 28.7063,86.159 28.7063,75.421 C28.7063,64.683 37.4113,55.979 48.1493,55.979 C58.8863,55.979 67.5913,64.683 67.5913,75.421" id="Fill-6" fill="#DAD2BD"></path>
                <path d="M48.1492,87.5673 C46.9062,87.5673 45.8992,86.5603 45.8992,85.3173 L45.8992,65.5243 C45.8992,64.2823 46.9062,63.2743 48.1492,63.2743 C49.3922,63.2743 50.3992,64.2823 50.3992,65.5243 L50.3992,85.3173 C50.3992,86.5603 49.3922,87.5673 48.1492,87.5673" id="Fill-8" fill="#2167AE"></path>
                <path d="M58.0454,77.1165 L38.2524,77.1165 C37.0104,77.1165 36.0024,76.1095 36.0024,74.8665 C36.0024,73.6235 37.0104,72.6165 38.2524,72.6165 L58.0454,72.6165 C59.2884,72.6165 60.2954,73.6235 60.2954,74.8665 C60.2954,76.1095 59.2884,77.1165 58.0454,77.1165" id="Fill-10" fill="#2167AE"></path>
            </g>
        </g>
    </g>
</svg>