<?xml version="1.0" encoding="UTF-8"?>
<svg width="140px" height="140px" viewBox="0 0 140 140" version="1.1" xmlns="http://www.w3.org/2000/svg" xmlns:xlink="http://www.w3.org/1999/xlink">
    <title>pictogram/dark/finance/balance</title>
    <g id="pictogram/dark/finance/balance" stroke="none" stroke-width="1" fill="none" fill-rule="evenodd">
        <g id="balance" transform="translate(-0.000000, 0.000000)">
            <path d="M140,70 C140,108.66 108.66,140 70,140 C31.34,140 0,108.66 0,70 C0,31.34 31.34,0 70,0 C108.66,0 140,31.34 140,70" id="circle" fill="#91BFE3"></path>
            <g id="picto" transform="translate(14.847900, 0.143500)">
                <path d="M7.5559,84.5562 L35.8549,84.5872 L21.7049,59.9292 L7.5559,84.5562 Z M38.0139,87.0892 L38.0129,87.0892 L5.3959,87.0542 C4.9499,87.0532 4.5379,86.8152 4.3149,86.4292 C4.0919,86.0432 4.0909,85.5682 4.3129,85.1812 L20.6219,56.7962 C20.8449,56.4082 21.2589,56.1692 21.7059,56.1692 L21.7059,56.1692 C22.1539,56.1692 22.5669,56.4082 22.7899,56.7962 L39.0979,85.2172 C39.3209,85.6042 39.3199,86.0802 39.0959,86.4662 C38.8719,86.8522 38.4599,87.0892 38.0139,87.0892 L38.0139,87.0892 Z" id="Fill-4" fill="#DAD2BD"></path>
                <path d="M74.4484,84.5562 L102.7464,84.5872 L88.5974,59.9292 L74.4484,84.5562 Z M104.9064,87.0892 L104.9054,87.0892 L72.2884,87.0542 C71.8424,87.0532 71.4304,86.8152 71.2074,86.4292 C70.9844,86.0432 70.9834,85.5682 71.2054,85.1812 L87.5144,56.7962 C87.7374,56.4082 88.1514,56.1692 88.5984,56.1692 L88.5984,56.1692 C89.0464,56.1692 89.4594,56.4082 89.6824,56.7962 L105.9904,85.2172 C106.2124,85.6042 106.2114,86.0802 105.9884,86.4662 C105.7644,86.8522 105.3524,87.0892 104.9064,87.0892 L104.9064,87.0892 Z" id="Fill-6" fill="#DAD2BD"></path>
                <path d="M88.5983,58.6687 L21.7053,58.6687 C21.0153,58.6687 20.4553,58.1087 20.4553,57.4187 C20.4553,56.7287 21.0153,56.1687 21.7053,56.1687 L88.5983,56.1687 C89.2883,56.1687 89.8483,56.7287 89.8483,57.4187 C89.8483,58.1087 89.2883,58.6687 88.5983,58.6687" id="Fill-8" fill="#DAD2BD"></path>
                <polygon id="Fill-10" fill="#DAD2BD" points="50.9265 0 59.3775 0 56.5515 54.068 53.7755 54.068"></polygon>
                <path d="M24.2136,57.4187 C24.2136,58.8037 23.0906,59.9267 21.7056,59.9267 C20.3206,59.9267 19.1976,58.8037 19.1976,57.4187 C19.1976,56.0337 20.3206,54.9107 21.7056,54.9107 C23.0906,54.9107 24.2136,56.0337 24.2136,57.4187" id="Fill-12" fill="#5495CF"></path>
                <path d="M62.4069,58.9011 C62.4069,62.9081 59.1579,66.1561 55.1519,66.1561 C51.1449,66.1561 47.8969,62.9081 47.8969,58.9011 C47.8969,54.8941 51.1449,51.6461 55.1519,51.6461 C59.1579,51.6461 62.4069,54.8941 62.4069,58.9011" id="Fill-14" fill="#2167AE"></path>
                <path d="M91.1062,57.5644 C91.1062,58.9494 89.9832,60.0724 88.5982,60.0724 C87.2132,60.0724 86.0902,58.9494 86.0902,57.5644 C86.0902,56.1794 87.2132,55.0564 88.5982,55.0564 C89.9832,55.0564 91.1062,56.1794 91.1062,57.5644" id="Fill-16" fill="#5495CF"></path>
                <path d="M88.8415,105.4188 C99.8365,105.4188 108.7485,96.5058 108.7485,85.5118 L68.9345,85.5118 C68.9345,96.5058 77.8475,105.4188 88.8415,105.4188" id="Fill-18" fill="#5495CF"></path>
                <path d="M108.9626,86.4931 L68.2336,86.4931 C67.4966,86.4931 66.8926,85.8901 66.8926,85.1521 L66.8926,84.8021 C66.8926,84.0651 67.4966,83.4611 68.2336,83.4611 L108.9626,83.4611 C109.6996,83.4611 110.3036,84.0651 110.3036,84.8021 L110.3036,85.1521 C110.3036,85.8901 109.6996,86.4931 108.9626,86.4931" id="Fill-20" fill="#2167AE"></path>
                <path d="M21.9494,105.7913 C32.9434,105.7913 41.8564,96.8783 41.8564,85.8843 L2.0424,85.8843 C2.0424,96.8783 10.9544,105.7913 21.9494,105.7913" id="Fill-22" fill="#5495CF"></path>
                <path d="M42.07,86.8654 L1.341,86.8654 C0.604,86.8654 0,86.2624 0,85.5244 L0,85.1744 C0,84.4374 0.604,83.8344 1.341,83.8344 L42.07,83.8344 C42.808,83.8344 43.411,84.4374 43.411,85.1744 L43.411,85.5244 C43.411,86.2624 42.808,86.8654 42.07,86.8654" id="Fill-24" fill="#2167AE"></path>
            </g>
        </g>
    </g>
</svg>