<?xml version="1.0" encoding="UTF-8"?>
<svg width="140px" height="140px" viewBox="0 0 140 140" version="1.1" xmlns="http://www.w3.org/2000/svg" xmlns:xlink="http://www.w3.org/1999/xlink">
    <title>pictogram/dark/finance/globe-chart</title>
    <defs>
        <path d="M-3.55271368e-15,45.77 C-3.55271368e-15,71.047 20.493,91.539 45.77,91.539 L45.77,91.539 C71.048,91.539 91.54,71.047 91.54,45.77 L91.54,45.77 C91.54,20.491 71.048,0 45.77,0 L45.77,0 C20.493,0 -3.55271368e-15,20.491 -3.55271368e-15,45.77 L-3.55271368e-15,45.77 Z" id="path-1"></path>
        <path d="M-3.55271368e-15,45.77 C-3.55271368e-15,71.047 20.493,91.539 45.77,91.539 L45.77,91.539 C71.048,91.539 91.54,71.047 91.54,45.77 L91.54,45.77 C91.54,20.491 71.048,0 45.77,0 L45.77,0 C20.493,0 -3.55271368e-15,20.491 -3.55271368e-15,45.77 L-3.55271368e-15,45.77 Z" id="path-3"></path>
    </defs>
    <g id="pictogram/dark/finance/globe-chart" stroke="none" stroke-width="1" fill="none" fill-rule="evenodd">
        <g id="globe-chart" transform="translate(-0.000000, 0.000000)">
            <path d="M140,70 C140,108.66 108.66,140 70,140 C31.34,140 0,108.66 0,70 C0,31.34 31.34,0 70,0 C108.66,0 140,31.34 140,70" id="circle" fill="#91BFE3"></path>
            <g id="picto" transform="translate(21.729800, 21.429400)">
                <path d="M91.5397,45.9172 C91.5397,20.6392 71.0477,0.1472 45.7697,0.1472 C20.4927,0.1472 0.0007,20.6392 0.0007,45.9172 C0.0007,71.1952 20.4927,91.6872 45.7697,91.6872 C71.0477,91.6872 91.5397,71.1952 91.5397,45.9172" id="Fill-4" fill="#2167AE"></path>
                <g id="Group-10" transform="translate(0.000000, 0.147600)">
                    <mask id="mask-2" fill="white">
                        <use xlink:href="#path-1"></use>
                    </mask>
                    <g id="Clip-7"></g>
                    <polygon id="Fill-6" fill="#5495CF" mask="url(#mask-2)" points="4.812 23.885 86.003 23.885 86.003 21.885 4.812 21.885"></polygon>
                    <polygon id="Fill-8" fill="#5495CF" mask="url(#mask-2)" points="-0.726 46.832 14.322 46.832 14.322 44.832 -0.726 44.832"></polygon>
                    <polygon id="Fill-9" fill="#5495CF" mask="url(#mask-2)" points="14.322 46.832 92.29 46.832 92.29 44.832 14.322 44.832"></polygon>
                </g>
                <g id="Group-15" transform="translate(13.047200, 0.000000)" fill="#5495CF">
                    <path d="M32.723,2.5 C28.978,2.5 23.755,19.011 23.755,45.901 C23.755,72.791 28.978,89.303 32.723,89.303 C36.468,89.303 41.691,72.791 41.691,45.901 C41.691,19.011 36.468,2.5 32.723,2.5 M32.723,91.803 C25.194,91.803 21.255,68.711 21.255,45.901 C21.255,23.091 25.194,0 32.723,0 C40.252,0 44.191,23.091 44.191,45.901 C44.191,68.711 40.252,91.803 32.723,91.803" id="Fill-11"></path>
                    <path d="M32.723,2.5 C16.058,2.5 2.5,21.97 2.5,45.901 C2.5,69.833 16.058,89.303 32.723,89.303 C49.388,89.303 62.945,69.833 62.945,45.901 C62.945,21.97 49.388,2.5 32.723,2.5 M32.723,91.803 C14.68,91.803 -7.10542736e-15,71.211 -7.10542736e-15,45.901 C-7.10542736e-15,20.591 14.68,0 32.723,0 C50.766,0 65.445,20.591 65.445,45.901 C65.445,71.211 50.766,91.803 32.723,91.803" id="Fill-13"></path>
                </g>
                <g id="Group-21" transform="translate(0.000000, 0.147600)">
                    <mask id="mask-4" fill="white">
                        <use xlink:href="#path-3"></use>
                    </mask>
                    <g id="Clip-17"></g>
                    <polygon id="Fill-16" fill="#5495CF" mask="url(#mask-4)" points="4.859 24.135 86.735 24.135 86.735 21.635 4.859 21.635"></polygon>
                    <polygon id="Fill-18" fill="#5495CF" mask="url(#mask-4)" points="4.939 69.904 86.465 69.904 86.465 67.404 4.939 67.404"></polygon>
                    <polygon id="Fill-19" fill="#5495CF" mask="url(#mask-4)" points="-0.726 47.082 14.449 47.082 14.449 44.582 -0.726 44.582"></polygon>
                    <polygon id="Fill-20" fill="#5495CF" mask="url(#mask-4)" points="14.45 47.082 93.076 47.082 93.076 44.582 14.45 44.582"></polygon>
                </g>
                <g id="Group-28" transform="translate(36.770200, 49.740000)" fill="#DAD2BD">
                    <path d="M6,19 L7,19 C10.313,19 13,21.686 13,25 L13,40 C13,43.314 10.313,46 7,46 L6,46 C2.686,46 0,43.314 0,40 L0,25 C0,21.686 2.686,19 6,19" id="Fill-22"></path>
                    <path d="M40,8 L41,8 C44.313,8 47,10.686 47,14 L47,40 C47,43.314 44.313,46 41,46 L40,46 C36.686,46 34,43.314 34,40 L34,14 C34,10.686 36.686,8 40,8" id="Fill-24"></path>
                    <path d="M23,0 L24,0 C27.313,0 30,2.686 30,6 L30,40 C30,43.314 27.313,46 24,46 L23,46 C19.686,46 17,43.314 17,40 L17,6 C17,2.686 19.686,0 23,0" id="Fill-26"></path>
                </g>
            </g>
        </g>
    </g>
</svg>