<?xml version="1.0" encoding="UTF-8"?>
<svg width="140px" height="140px" viewBox="0 0 140 140" version="1.1" xmlns="http://www.w3.org/2000/svg" xmlns:xlink="http://www.w3.org/1999/xlink">
    <title>pictogram/dark/finance/wealth</title>
    <g id="pictogram/dark/finance/wealth" stroke="none" stroke-width="1" fill="none" fill-rule="evenodd">
        <g id="wealth" transform="translate(-0.000000, 0.000000)">
            <path d="M140,70 C140,108.66 108.66,140 70,140 C31.34,140 0,108.66 0,70 C0,31.34 31.34,0 70,0 C108.66,0 140,31.34 140,70" id="circle" fill="#91BFE3"></path>
            <g id="picto" transform="translate(16.509288, 39.959900)">
                <path d="M0.0165117673,23.224 C-0.0524882327,23.694 0.0955117673,24.177 0.446511767,24.517 L53.1795118,75.517 C53.4705118,75.799 53.8465118,75.939 54.2225118,75.939 C54.6045118,75.939 54.9875118,75.793 55.2805118,75.502 L106.547512,24.502 C106.889512,24.162 107.032512,23.687 106.964512,23.224 L0.0165117673,23.224 Z" id="Fill-4" fill="#DAD2BD"></path>
                <path d="M106.624012,22.4574 L87.5820118,0.4574 C87.4140118,0.2634 87.2280118,0.0864 86.9920118,0.0004 L69.5020118,23.2244 L106.972012,23.2244 C106.932012,22.9494 106.819012,22.6824 106.624012,22.4574" id="Fill-6" fill="#2167AE"></path>
                <polyline id="Fill-8" fill="#2167AE" points="53.7690118 0.0205 37.7220118 23.2245 69.5020118 23.2245 53.8830118 0.0205"></polyline>
                <path d="M22.9838118,0.039 L37.7218118,23.224 L0.0318117673,23.224 C0.0768117673,22.916 0.191811767,22.616 0.427811767,22.379 L22.3998118,0.379 C22.5628118,0.216 22.7588118,0.095 22.9718118,0.021 L22.9838118,0.039 Z" id="Fill-10" fill="#2167AE"></path>
                <polygon id="Fill-12" fill="#5495CF" points="53.8827118 0.02 69.5027118 23.224 37.7217118 23.224 53.7687118 0.02 22.9837118 0.039 37.7217118 23.224 54.2747118 75.939 69.5027118 23.224 86.9917118 0"></polygon>
            </g>
        </g>
    </g>
</svg>