<?xml version="1.0" encoding="UTF-8"?>
<svg width="140px" height="140px" viewBox="0 0 140 140" version="1.1" xmlns="http://www.w3.org/2000/svg" xmlns:xlink="http://www.w3.org/1999/xlink">
    <title>pictogram/dark/device/mobile-call</title>
    <g id="pictogram/dark/device/mobile-call" stroke="none" stroke-width="1" fill="none" fill-rule="evenodd">
        <g id="mobile-call">
            <path d="M140,70 C140,108.66 108.66,140 70,140 C31.34,140 0,108.66 0,70 C0,31.34 31.34,0 70,0 C108.66,0 140,31.34 140,70" id="circle" fill="#91BFE3"></path>
            <g id="picto" transform="translate(23.019666, 19.465234)">
                <path d="M80.6043343,25.8808655 C79.6033343,25.8808655 78.6893343,25.2078655 78.4273343,24.1928655 C77.8903343,22.1138655 76.7983343,20.2068655 75.2693343,18.6778655 C73.8183343,17.2268655 72.0153343,16.1628655 70.0563343,15.6028655 C68.8623343,15.2608655 68.1703343,14.0148655 68.5123343,12.8208655 C68.8543343,11.6258655 70.1003343,10.9348655 71.2943343,11.2758655 C73.9863343,12.0468655 76.4613343,13.5058655 78.4513343,15.4958655 C80.5483343,17.5928655 82.0463343,20.2108655 82.7843343,23.0678655 C83.0953343,24.2708655 82.3723343,25.4978655 81.1683343,25.8088655 C80.9803343,25.8578655 80.7903343,25.8808655 80.6043343,25.8808655" id="Fill-4" fill="#ECEEEF"></path>
                <path d="M91.7081343,24.7818655 C90.5221343,24.7818655 89.5301343,23.8548655 89.4631343,22.6558655 C89.2021343,17.9178655 87.2071343,13.4588655 83.8481343,10.0998655 C80.5381343,6.78886551 76.1451343,4.79886551 71.4791343,4.49586551 C70.2391343,4.41486551 69.2991343,3.34486551 69.3801343,2.10386551 C69.4601343,0.863865514 70.5301343,-0.0761344864 71.7711343,0.00486551356 C77.5281343,0.378865514 82.9471343,2.83386551 87.0301343,6.91786551 C91.1741343,11.0608655 93.6341343,16.5618655 93.9571343,22.4078655 C94.0251343,23.6488655 93.0751343,24.7098655 91.8341343,24.7788655 C91.7921343,24.7808655 91.7501343,24.7818655 91.7081343,24.7818655" id="Fill-6" fill="#ECEEEF"></path>
                <path d="M63.1025343,101.069066 L30.5655343,101.069066 C26.4005343,101.069066 22.9925343,97.6610655 22.9925343,93.4960655 L22.9925343,27.6510655 C22.9925343,23.4850655 26.4005343,20.0770655 30.5655343,20.0770655 L63.1025343,20.0770655 C67.2675343,20.0770655 70.6755343,23.4850655 70.6755343,27.6510655 L70.6755343,93.4960655 C70.6755343,97.6610655 67.2675343,101.069066 63.1025343,101.069066" id="Fill-8" fill="#2167AE"></path>
                <path d="M61.8608343,88.9917655 L31.8078343,88.9917655 C28.9968343,88.9917655 26.6968343,86.6917655 26.6968343,83.8817655 L26.6968343,28.7997655 C26.6968343,25.9887655 28.9968343,23.6887655 31.8078343,23.6887655 L61.8608343,23.6887655 C64.6718343,23.6887655 66.9718343,25.9887655 66.9718343,28.7997655 L66.9718343,83.8817655 C66.9718343,86.6917655 64.6718343,88.9917655 61.8608343,88.9917655" id="Fill-10" fill="#5495CF"></path>
                <path d="M49.2114343,92.7545655 C50.4284343,94.0675655 50.3514343,96.1185655 49.0384343,97.3365655 C47.7254343,98.5535655 45.6744343,98.4765655 44.4574343,97.1635655 C43.2394343,95.8505655 43.3164343,93.7995655 44.6294343,92.5815655 C45.9424343,91.3645655 47.9944343,91.4415655 49.2114343,92.7545655" id="Fill-12" fill="#DAD2BD"></path>
                <path d="M13.3563343,25.8808655 C13.1703343,25.8808655 12.9803343,25.8578655 12.7923343,25.8088655 C11.5883343,25.4978655 10.8653343,24.2708655 11.1763343,23.0678655 C11.9143343,20.2108655 13.4123343,17.5928655 15.5093343,15.4958655 C17.4993343,13.5058655 19.9743343,12.0468655 22.6663343,11.2758655 C23.8603343,10.9338655 25.1063343,11.6258655 25.4483343,12.8208655 C25.7903343,14.0148655 25.0983343,15.2608655 23.9043343,15.6028655 C21.9453343,16.1628655 20.1423343,17.2268655 18.6913343,18.6778655 C17.1623343,20.2068655 16.0703343,22.1138655 15.5333343,24.1928655 C15.2713343,25.2078655 14.3573343,25.8808655 13.3563343,25.8808655" id="Fill-14" fill="#ECEEEF"></path>
                <path d="M2.25243426,24.7819655 C2.21043426,24.7819655 2.16843426,24.7809655 2.12643426,24.7779655 C0.885434261,24.7099655 -0.0645657389,23.6479655 0.0034342611,22.4079655 C0.327434261,16.5619655 2.78643426,11.0609655 6.93043426,6.91696551 C11.0134343,2.83396551 16.4324343,0.378965514 22.1894343,0.00496551356 C23.4294343,-0.0750344864 24.5004343,0.863965514 24.5804343,2.10396551 C24.6614343,3.34396551 23.7214343,4.41496551 22.4814343,4.49596551 C17.8154343,4.79896551 13.4224343,6.78896551 10.1124343,10.0989655 C6.75343426,13.4579655 4.75943426,17.9179655 4.49743426,22.6559655 C4.43043426,23.8549655 3.43843426,24.7819655 2.25243426,24.7819655" id="Fill-16" fill="#ECEEEF"></path>
            </g>
        </g>
    </g>
</svg>