<?xml version="1.0" encoding="UTF-8"?>
<svg width="140px" height="140px" viewBox="0 0 140 140" version="1.1" xmlns="http://www.w3.org/2000/svg" xmlns:xlink="http://www.w3.org/1999/xlink">
    <title>pictogram/dark/device/watch</title>
    <g id="pictogram/dark/device/watch" stroke="none" stroke-width="1" fill="none" fill-rule="evenodd">
        <g id="watch">
            <path d="M140,70 C140,108.66 108.66,140 70,140 C31.34,140 0,108.66 0,70 C0,31.34 31.34,0 70,0 C108.66,0 140,31.34 140,70" id="circle" fill="#91BFE3"></path>
            <g id="picto" transform="translate(39.630900, 21.103500)">
                <path d="M59.052,53.991 C58.121,53.991 57.366,53.236 57.366,52.305 L57.366,45.561 C57.366,44.63 58.121,43.875 59.052,43.875 C59.983,43.875 60.738,44.63 60.738,45.561 L60.738,52.305 C60.738,53.236 59.983,53.991 59.052,53.991" id="Fill-4" fill="#2167AE"></path>
                <path d="M28.664,20.27 C12.858,20.27 0,33.128 0,48.933 C0,64.737 12.858,77.596 28.664,77.596 C44.469,77.596 57.327,64.737 57.327,48.933 C57.327,33.128 44.469,20.27 28.664,20.27" id="Fill-6" fill="#DAD2BD"></path>
                <path d="M28.6643,77.5957 C23.1013,77.5957 17.9063,75.9977 13.5053,73.2437 C13.5003,73.2977 13.4893,73.3487 13.4893,73.4047 L13.4893,82.6177 C13.4893,90.9857 20.2963,97.7927 28.6643,97.7927 C37.0313,97.7927 43.8383,90.9857 43.8383,82.6177 L43.8383,73.4047 C43.8383,73.3487 43.8273,73.2977 43.8223,73.2437 C39.4213,75.9977 34.2273,77.5957 28.6643,77.5957" id="Fill-8" fill="#2167AE"></path>
                <path d="M28.6635,50.6188 L18.5465,50.6188 C17.6145,50.6188 16.8605,49.8638 16.8605,48.9328 C16.8605,48.0018 17.6145,47.2468 18.5465,47.2468 L26.9775,47.2468 L26.9775,32.0718 C26.9775,31.1408 27.7325,30.3858 28.6635,30.3858 C29.5945,30.3858 30.3495,31.1408 30.3495,32.0718 L30.3495,48.9328 C30.3495,49.8638 29.5945,50.6188 28.6635,50.6188" id="Fill-10" fill="#2167AE"></path>
                <path d="M28.6643,20.27 C34.2263,20.27 39.4203,21.868 43.8213,24.622 C43.8263,24.564 43.8383,24.509 43.8383,24.451 L43.8383,15.175 C43.8383,6.808 37.0313,0 28.6643,0 C20.2963,0 13.4893,6.808 13.4893,15.175 L13.4893,24.632 C17.8933,21.873 23.0943,20.27 28.6643,20.27" id="Fill-12" fill="#2167AE"></path>
            </g>
        </g>
    </g>
</svg>