<?xml version="1.0" encoding="UTF-8"?>
<svg width="140px" height="140px" viewBox="0 0 140 140" version="1.1" xmlns="http://www.w3.org/2000/svg" xmlns:xlink="http://www.w3.org/1999/xlink">
    <title>pictogram/dark/device/web</title>
    <g id="pictogram/dark/device/web" stroke="none" stroke-width="1" fill="none" fill-rule="evenodd">
        <g id="web" transform="translate(-0.000100, 0.000000)">
            <path d="M140,70 C140,108.66 108.66,140 70,140 C31.34,140 0,108.66 0,70 C0,31.34 31.34,0 70,0 C108.66,0 140,31.34 140,70" id="circle" fill="#91BFE3"></path>
            <g id="picto" transform="translate(21.916800, 33.099200)">
                <path d="M95.757,48.966 L95.757,6.42 C95.757,2.88 92.877,0 89.338,0 L6.419,0 C2.879,0 7.10542736e-15,2.88 7.10542736e-15,6.42 L7.10542736e-15,49.176 L7.10542736e-15,49.926 L0.012,49.926 L0.012,57.495 C0.012,60.626 2.55,63.164 5.682,63.164 L90.19,63.164 C93.321,63.164 95.86,60.626 95.86,57.495 L95.86,48.966 L95.757,48.966 Z" id="Fill-4" fill="#ECEEEF"></path>
                <path d="M91.2472,49.1761 L4.5102,49.1761 L4.5102,7.2461 C4.5102,5.6811 5.7792,4.4121 7.3452,4.4121 L88.4122,4.4121 C89.9772,4.4121 91.2472,5.6811 91.2472,7.2461 L91.2472,49.1761 Z" id="Fill-6" fill="#5495CF"></path>
                <polygon id="Fill-8" fill="#2167AE" points="59.8546 74.0512 36.0176 74.0512 38.4976 63.1642 57.3756 63.1642"></polygon>
                <path d="M65.8879,78.4407 L29.9839,78.4407 C29.1689,78.4407 28.5089,77.7797 28.5089,76.9657 L28.5089,75.3867 C28.5089,74.6487 29.1069,74.0507 29.8439,74.0507 L66.0289,74.0507 C66.7659,74.0507 67.3639,74.6487 67.3639,75.3867 L67.3639,76.9657 C67.3639,77.7797 66.7029,78.4407 65.8879,78.4407" id="Fill-10" fill="#ECEEEF"></path>
                <polygon id="Fill-12" fill="#DAD2BD" points="27.0421 32.9786 23.7481 22.2596 26.0501 22.2596 28.2851 29.8976 30.5451 22.2596 32.5491 22.2596 34.8491 29.9186 37.0631 22.2596 39.3641 22.2596 36.0291 32.9786 33.7731 32.9786 31.5581 25.6136 29.3411 32.9786"></polygon>
                <polygon id="Fill-14" fill="#DAD2BD" points="43.4152 32.9786 40.1232 22.2596 42.4252 22.2596 44.6602 29.8976 46.9182 22.2596 48.9222 22.2596 51.2242 29.9186 53.4382 22.2596 55.7392 22.2596 52.4042 32.9786 50.1462 32.9786 47.9322 25.6136 45.7152 32.9786"></polygon>
                <polygon id="Fill-16" fill="#DAD2BD" points="59.7882 32.9786 56.4972 22.2596 58.7962 22.2596 61.0332 29.8976 63.2922 22.2596 65.2972 22.2596 67.5952 29.9186 69.8112 22.2596 72.1112 22.2596 68.7782 32.9786 66.5192 32.9786 64.3052 25.6136 62.0902 32.9786"></polygon>
            </g>
        </g>
    </g>
</svg>