<?xml version="1.0" encoding="UTF-8"?>
<svg width="140px" height="140px" viewBox="0 0 140 140" version="1.1" xmlns="http://www.w3.org/2000/svg" xmlns:xlink="http://www.w3.org/1999/xlink">
    <title>pictogram/light/device/desktop</title>
    <g id="pictogram/light/device/desktop" stroke="none" stroke-width="1" fill="none" fill-rule="evenodd">
        <g id="desktop">
            <path d="M140,70 C140,108.66 108.66,140 70,140 C31.34,140 0,108.66 0,70 C0,31.34 31.34,0 70,0 C108.66,0 140,31.34 140,70" id="circle" fill="#DDE4E3"></path>
            <g id="picto" transform="translate(22.069700, 30.779600)">
                <path d="M89.434,0 L6.427,0 C2.883,0 0,2.883 0,6.426 L0,49.228 L0,49.979 L0.013,49.979 L0.013,57.495 C0.013,60.625 2.551,63.164 5.683,63.164 L90.191,63.164 C93.322,63.164 95.86,60.625 95.86,57.495 L95.86,49.979 L95.86,49.228 L95.86,48.966 L95.86,6.426 C95.86,2.883 92.977,0 89.434,0" id="Fill-4" fill="#91BFE3"></path>
                <path d="M91.2474,49.1759 L4.5104,49.1759 L4.5104,7.2459 C4.5104,5.6809 5.7794,4.4119 7.3454,4.4119 L88.4124,4.4119 C89.9784,4.4119 91.2474,5.6809 91.2474,7.2459 L91.2474,49.1759 Z" id="Fill-6" fill="#2167AE"></path>
                <polygon id="Fill-8" fill="#5495CF" points="59.7975 74.051 35.9605 74.051 38.4975 63.251 57.3755 63.251"></polygon>
                <path d="M65.8885,78.4406 L29.9845,78.4406 C29.1695,78.4406 28.5085,77.7796 28.5085,76.9656 L28.5085,75.3866 C28.5085,74.6486 29.1065,74.0506 29.8445,74.0506 L66.0285,74.0506 C66.7665,74.0506 67.3635,74.6486 67.3635,75.3866 L67.3635,76.9656 C67.3635,77.7796 66.7035,78.4406 65.8885,78.4406" id="Fill-10" fill="#91BFE3"></path>
            </g>
        </g>
    </g>
</svg>