<?xml version="1.0" encoding="UTF-8"?>
<svg width="140px" height="140px" viewBox="0 0 140 140" version="1.1" xmlns="http://www.w3.org/2000/svg" xmlns:xlink="http://www.w3.org/1999/xlink">
    <title>pictogram/light/device/mobile</title>
    <g id="pictogram/light/device/mobile" stroke="none" stroke-width="1" fill="none" fill-rule="evenodd">
        <g id="mobile">
            <path d="M140,70 C140,108.66 108.66,140 70,140 C31.34,140 0,108.66 0,70 C0,31.34 31.34,0 70,0 C108.66,0 140,31.34 140,70" id="circle" fill="#DDE4E3"></path>
            <g id="picto" transform="translate(42.587200, 23.438200)">
                <path d="M47.252,93.123 L7.574,93.123 C3.408,93.123 0,89.715 0,85.55 L0,7.574 C0,3.408 3.408,0 7.574,0 L47.252,0 C51.417,0 54.825,3.408 54.825,7.574 L54.825,85.55 C54.825,89.715 51.417,93.123 47.252,93.123" id="Fill-3" fill="#2167AE"></path>
                <path d="M45.4556,79.2367 L9.3696,79.2367 C6.5596,79.2367 4.2596,76.9367 4.2596,74.1267 L4.2596,9.2637 C4.2596,6.4527 6.5596,4.1527 9.3696,4.1527 L45.4556,4.1527 C48.2666,4.1527 50.5656,6.4527 50.5656,9.2637 L50.5656,74.1267 C50.5656,76.9367 48.2666,79.2367 45.4556,79.2367" id="Fill-5" fill="#5495CF"></path>
                <path d="M30.1461,83.5631 C31.5461,85.0731 31.4571,87.4311 29.9471,88.8311 C28.4381,90.2311 26.0791,90.1421 24.6791,88.6321 C23.2801,87.1231 23.3691,84.7641 24.8781,83.3641 C26.3881,81.9641 28.7461,82.0531 30.1461,83.5631" id="Fill-7" fill="#91BFE3"></path>
            </g>
        </g>
    </g>
</svg>