<?xml version="1.0" encoding="UTF-8"?>
<svg width="140px" height="140px" viewBox="0 0 140 140" version="1.1" xmlns="http://www.w3.org/2000/svg" xmlns:xlink="http://www.w3.org/1999/xlink">
    <title>pictogram/light/device/wifi</title>
    <g id="pictogram/light/device/wifi" stroke="none" stroke-width="1" fill="none" fill-rule="evenodd">
        <g id="wifi" transform="translate(0.000000, 0.000000)">
            <path d="M140,70 C140,108.66 108.66,140 70,140 C31.34,140 0,108.66 0,70 C0,31.34 31.34,0 70,0 C108.66,0 140,31.34 140,70" id="circle" fill="#DDE4E3"></path>
            <g id="picto" transform="translate(19.617348, 23.412700)">
                <path d="M95.5001519,100.0906 L79.4761519,76.9916 L8.65215195,91.7656 L28.1671519,109.6006 L80.8941519,109.6006 C86.1691519,107.0416 91.0671519,103.8326 95.5001519,100.0906" id="Fill-4" fill="#5495CF"></path>
                <path d="M74.9000519,0 L25.8650519,0 C20.3630519,0 15.9030519,4.46 15.9030519,9.962 L15.9030519,107.792 C26.0150519,113.39 37.6420519,116.587 50.0190519,116.587 C62.6960519,116.587 74.5810519,113.227 84.8620519,107.374 L84.8620519,9.962 C84.8620519,4.46 80.4020519,0 74.9000519,0" id="Fill-6" fill="#2167AE"></path>
                <path d="M74.0919519,4.651 L27.0019519,4.651 C23.3619519,4.651 20.4119519,7.601 20.4119519,11.24 L20.4119519,109.855 C29.4979519,114.167 39.6559519,116.587 50.3829519,116.587 C61.2369519,116.587 71.5129519,114.116 80.6809519,109.707 L80.6809519,11.24 C80.6809519,7.601 77.7309519,4.651 74.0919519,4.651" id="Fill-8" fill="#5495CF"></path>
                <path d="M56.7921519,68.6455 C56.3601519,68.6455 55.9411519,68.4215 55.7091519,68.0215 C54.6711519,66.2285 52.7421519,65.1145 50.6741519,65.1145 C48.6051519,65.1145 46.6761519,66.2285 45.6381519,68.0215 C45.2931519,68.6185 44.5281519,68.8235 43.9301519,68.4775 C43.3331519,68.1315 43.1291519,67.3665 43.4741519,66.7695 C44.9571519,64.2065 47.7161519,62.6145 50.6741519,62.6145 C53.6311519,62.6145 56.3901519,64.2065 57.8731519,66.7695 C58.2191519,67.3665 58.0141519,68.1315 57.4171519,68.4775 C57.2201519,68.5915 57.0041519,68.6455 56.7921519,68.6455" id="Fill-10" fill="#ECEEEF"></path>
                <path d="M62.9098519,65.1142 C62.4778519,65.1142 62.0588519,64.8902 61.8268519,64.4902 C59.5288519,60.5192 55.2558519,58.0522 50.6738519,58.0522 C46.0918519,58.0522 41.8178519,60.5192 39.5208519,64.4902 C39.1748519,65.0872 38.4108519,65.2912 37.8128519,64.9462 C37.2148519,64.6002 37.0108519,63.8352 37.3568519,63.2382 C40.0998519,58.4972 45.2028519,55.5522 50.6738519,55.5522 C56.1448519,55.5522 61.2478519,58.4972 63.9908519,63.2382 C64.3368519,63.8352 64.1318519,64.6002 63.5348519,64.9462 C63.3378519,65.0602 63.1218519,65.1142 62.9098519,65.1142" id="Fill-12" fill="#ECEEEF"></path>
                <path d="M68.9857519,61.5109 C68.5557519,61.5109 68.1377519,61.2889 67.9047519,60.8909 C64.3397519,54.7839 57.7367519,50.9899 50.6737519,50.9899 C43.6107519,50.9899 37.0077519,54.7839 33.4427519,60.8909 C33.0947519,61.4869 32.3287519,61.6879 31.7327519,61.3399 C31.1367519,60.9919 30.9347519,60.2269 31.2837519,59.6309 C35.2947519,52.7589 42.7247519,48.4899 50.6737519,48.4899 C58.6227519,48.4899 66.0527519,52.7589 70.0637519,59.6309 C70.4117519,60.2269 70.2107519,60.9919 69.6147519,61.3399 C69.4167519,61.4559 69.1997519,61.5109 68.9857519,61.5109" id="Fill-14" fill="#ECEEEF"></path>
                <path d="M31.1937519,51.6954 C32.0697519,50.7514 32.7037519,49.5604 32.9857519,48.1914 C33.8347519,44.0584 31.1277519,39.8774 26.9407519,38.8524 L16.0237519,36.5984 C11.8357519,35.5734 7.75375195,38.0934 6.90575195,42.2264 C6.05475195,46.3594 8.52675195,50.0034 12.7137519,51.0284 L23.8667519,53.8204 C26.6677519,54.5064 29.4227519,53.6044 31.1937519,51.6954" id="Fill-16" fill="#91BFE3"></path>
                <path d="M27.4473519,65.8534 C28.2563519,64.9814 28.8463519,63.8844 29.1193519,62.6254 C29.9563519,58.7454 27.4473519,54.7854 23.5143519,53.7824 L8.79935195,50.0104 C4.86635195,49.0064 0.99935195,51.3394 0.16135195,55.2204 C-0.67664805,59.1004 1.83235195,63.0594 5.76535195,64.0634 L20.4813519,67.8364 C23.1363519,68.5124 25.7633519,67.6694 27.4473519,65.8534" id="Fill-18" fill="#91BFE3"></path>
                <path d="M6.24865195,84.9454 C6.78865195,82.4474 8.66665195,80.6334 10.9846519,80.0464 L6.23365195,78.8354 C2.30165195,77.8324 -0.20834805,73.8734 0.62965195,69.9934 C1.46765195,66.1124 5.33565195,63.7794 9.26765195,64.7824 L20.8336519,67.4544 C24.7666519,68.4574 27.2766519,72.4164 26.4386519,76.2974 C26.1656519,77.5564 25.5756519,78.6524 24.7666519,79.5254 C23.5926519,80.7914 21.9586519,81.5834 20.1756519,81.7174 C22.4956519,83.3014 23.7706519,86.1634 23.1616519,88.9814 C22.9076519,90.1624 22.3536519,91.1904 21.5946519,92.0084 C20.0176519,93.7094 17.5546519,94.5014 15.0646519,93.8664 L11.5036519,93.2354 C7.81565195,92.2954 5.46265195,88.5844 6.24865195,84.9454" id="Fill-20" fill="#91BFE3"></path>
                <path d="M13.7747519,85.0866 C12.2817519,86.6966 12.3767519,89.2126 13.9867519,90.7056 C15.5967519,92.1986 18.1127519,92.1036 19.6057519,90.4936 C21.0987519,88.8836 21.0037519,86.3676 19.3937519,84.8746 C17.7837519,83.3816 15.2677519,83.4766 13.7747519,85.0866" id="Fill-22" fill="#5495CF"></path>
                <path d="M16.6465519,71.8612 C15.1535519,73.4712 15.2485519,75.9872 16.8585519,77.4802 C18.4685519,78.9732 20.9845519,78.8782 22.4775519,77.2682 C23.9705519,75.6582 23.8755519,73.1422 22.2655519,71.6492 C20.6555519,70.1562 18.1395519,70.2512 16.6465519,71.8612" id="Fill-24" fill="#5495CF"></path>
                <path d="M19.7084519,58.1926 C18.2154519,59.8026 18.3104519,62.3186 19.9204519,63.8116 C21.5304519,65.3046 24.0464519,65.2096 25.5394519,63.5996 C27.0324519,61.9896 26.9374519,59.4736 25.3274519,57.9806 C23.7174519,56.4876 21.2014519,56.5826 19.7084519,58.1926" id="Fill-26" fill="#5495CF"></path>
                <path d="M23.6843519,44.2422 C22.1913519,45.8522 22.2863519,48.3682 23.8963519,49.8612 C25.5063519,51.3542 28.0223519,51.2592 29.5153519,49.6492 C31.0083519,48.0392 30.9133519,45.5232 29.3033519,44.0302 C27.6933519,42.5372 25.1773519,42.6322 23.6843519,44.2422" id="Fill-28" fill="#5495CF"></path>
                <path d="M71.5825519,73.2702 C68.2715519,69.7412 62.7265519,69.5652 59.1995519,72.8742 C57.7965519,74.1892 56.9245519,75.8562 56.5885519,77.6102 C56.0795519,80.2702 56.8065519,83.1312 58.8035519,85.2582 L80.1555519,109.9442 C85.6485519,107.3582 90.7495519,104.0822 95.3475519,100.2232 L71.5825519,73.2702 Z" id="Fill-30" fill="#91BFE3"></path>
                <path d="M66.5396519,73.8458 C63.4496519,73.2868 60.4916519,75.3378 59.9326519,78.4268 C59.3736519,81.5168 61.4246519,84.4748 64.5146519,85.0338 C67.6036519,85.5938 70.5616519,83.5418 71.1206519,80.4528 C71.6806519,77.3628 69.6286519,74.4048 66.5396519,73.8458" id="Fill-32" fill="#5495CF"></path>
            </g>
        </g>
    </g>
</svg>