<?xml version="1.0" encoding="UTF-8"?>
<svg width="140px" height="140px" viewBox="0 0 140 140" version="1.1" xmlns="http://www.w3.org/2000/svg" xmlns:xlink="http://www.w3.org/1999/xlink">
    <title>pictogram/light/environment/sustainability/growth</title>
    <defs>
        <path d="M-1.94289029e-15,69.999 C-1.94289029e-15,108.658 31.34,139.999 70,139.999 L70,139.999 C108.659,139.999 140,108.658 140,69.999 L140,69.999 C140,31.339 108.659,0 70,0 L70,0 C31.34,0 -1.94289029e-15,31.339 -1.94289029e-15,69.999" id="path-1"></path>
    </defs>
    <g id="pictogram/light/environment/sustainability/growth" stroke="none" stroke-width="1" fill="none" fill-rule="evenodd">
        <g id="sustainability-growth">
            <path d="M140,70 C140,108.66 108.66,140 70,140 C31.34,140 0,108.66 0,70 C0,31.34 31.34,0 70,0 C108.66,0 140,31.34 140,70" id="circle" fill="#DDE4E3"></path>
            <g id="picto" transform="translate(0.000500, 0.000900)">
                <g id="Group-8" transform="translate(34.124400, 82.917898)">
                    <path d="M63.1397,0.952301908 C66.9837,-1.08269809 71.7467,0.244301908 73.9857,3.97430191 C76.3457,7.90830191 75.0117,13.0133019 71.0287,15.2893019 L33.8667,36.5243019 L20.2627,23.7683019 L63.1397,0.952301908 Z" id="Fill-4" fill="#2167AE"></path>
                    <path d="M66.378,21.5123019 C38.426,21.9943019 -7.10542736e-15,21.0503019 -7.10542736e-15,21.0503019 L-7.10542736e-15,16.7903019 C-7.10542736e-15,16.7903019 7.636,7.90430191 14.515,8.36330191 C21.394,8.82130191 31.941,3.01230191 42.642,4.99930191 C53.343,6.98730191 57.206,11.0243019 66.378,10.6873019 L66.378,21.5123019 Z" id="Fill-6" fill="#91BFE3"></path>
                </g>
                <g id="Group-11">
                    <mask id="mask-2" fill="white">
                        <use xlink:href="#path-1"></use>
                    </mask>
                    <g id="Clip-10"></g>
                    <path d="M75.1919,120.6402 L106.6899,102.6402 C104.8129,99.3342 105.9229,95.1202 109.2099,93.1772 C112.0849,91.4762 115.6799,92.0732 117.8699,94.4172 C118.9079,92.0692 118.8319,89.2672 117.4069,86.8922 C115.1689,83.1622 110.4049,81.8352 106.5609,83.8702 L68.5709,103.9822 C67.2079,104.7042 65.6049,104.8252 64.1489,104.3152 L45.6079,97.8262 L58.1079,97.1882 C62.7419,96.9512 66.3789,93.1242 66.3789,88.4832 L66.3789,88.4832 C66.3789,83.8352 62.7319,80.0052 58.0889,79.7772 L-0.1761,77.4942 C1.0399,88.8192 4.9369,99.3372 10.8589,108.4172 L51.2159,122.6372 C59.1099,125.5452 67.8869,124.8142 75.1919,120.6402" id="Fill-9" fill="#5495CF" mask="url(#mask-2)"></path>
                </g>
                <g id="Group-22" transform="translate(40.830139, 19.330908)">
                    <path d="M57.0340611,15.8136918 L56.5080611,1.20569181 C56.4930611,0.793691808 56.2760611,0.415691808 55.9290611,0.194691808 C55.5810611,-0.0263081917 55.1460611,-0.0613081917 54.7680611,0.100691808 L40.6800611,6.11869181 C32.6310611,10.0526918 29.7100611,15.1006918 31.4890611,22.0036918 C32.3970611,25.5296918 34.6640611,28.4436918 37.9280611,30.2426918 L38.0990611,30.3396918 C38.1260611,30.3566918 38.2340611,30.4176918 38.2620611,30.4316918 C38.3150611,30.4586918 38.3690611,30.4806918 38.4240611,30.4996918 C40.2630611,31.4196918 42.2740611,31.8896918 44.2960611,31.8896918 C45.3690611,31.8896918 46.4450611,31.7576918 47.5010611,31.4906918 C54.4090611,29.7416918 57.4390611,24.7596918 57.0340611,15.8136918" id="Fill-12" fill="#91BFE3"></path>
                    <path d="M15.9129611,17.1134918 L1.40896108,15.2494918 C0.999961081,15.1964918 0.591961081,15.3494918 0.317961081,15.6564918 C0.0429610813,15.9634918 -0.0620389187,16.3864918 0.0359610813,16.7864918 L3.67596108,31.6664918 C6.05896108,39.6304918 10.1079611,43.3944918 16.3509611,43.3944918 C16.8369611,43.3944918 17.3359611,43.3714918 17.8489611,43.3254918 C21.4759611,43.0044918 24.7219611,41.2414918 27.0259611,38.3184918 L27.1529611,38.1624918 C27.1719611,38.1394918 27.2479611,38.0454918 27.2659611,38.0214918 C27.3019611,37.9724918 27.3329611,37.9224918 27.3609611,37.8704918 C29.2109611,35.3204918 30.0839611,32.2044918 29.8199611,29.0744918 C29.2209611,21.9714918 24.7979611,18.1704918 15.9129611,17.1134918" id="Fill-14" fill="#91BFE3"></path>
                    <path d="M44.7302611,16.5920918 C44.4002611,16.5940918 44.0892611,16.6850918 43.8262611,16.8740918 L43.7352611,16.8010918 L43.4312611,17.2480918 C43.3342611,17.3910918 33.9832611,31.3080918 30.5772611,49.5770918 C25.7302611,35.8070918 19.0402611,30.3920918 18.7762611,30.1850918 C18.3912611,29.8240918 17.8892611,29.6790918 17.3992611,29.7850918 C16.9952611,29.8730918 16.6492611,30.1130918 16.4252611,30.4620918 C16.2012611,30.8090918 16.1272611,31.2240918 16.2142611,31.6280918 C16.2872611,31.9610918 16.4782611,32.2600918 16.7712611,32.4960918 C16.7952611,32.5150918 19.1812611,34.4320918 21.8252611,38.7240918 C26.9342611,47.0150918 29.1762611,65.5530918 29.5702611,69.1310918 C29.5702611,69.1920918 29.5772611,69.2530918 29.5972611,69.4110918 L30.1042611,69.4490918 L29.6102611,69.5370918 L29.6302611,69.6900918 C29.7802611,70.3830918 30.1932611,70.9770918 30.7902611,71.3610918 C31.2242611,71.6410918 31.7192611,71.7850918 32.2232611,71.7850918 C32.4132611,71.7850918 32.6042611,71.7640918 32.7942611,71.7230918 C34.0992611,71.4390918 34.9902611,70.2170918 34.8642611,68.8370918 C34.8602611,68.7380918 34.8532611,68.6380918 34.8412611,68.5960918 L34.8032611,68.1520918 C33.7782611,56.5230918 35.4202611,44.4910918 39.6832611,32.3920918 C41.4882611,27.2680918 45.8892611,19.1350918 45.9332611,19.0530918 L45.9422611,19.0350918 C46.1332611,18.7750918 46.2372611,18.4800918 46.2442611,18.1760918 L46.2442611,18.1750918 C46.2632611,17.3220918 45.5842611,16.6120918 44.7302611,16.5920918 L44.7302611,16.5920918 Z" id="Fill-16" fill="#2167AE"></path>
                    <path d="M68.3792611,73.8458918 C71.2542611,72.1458918 74.8502611,72.7418918 77.0392611,75.0868918 C76.3582611,76.6278918 75.1972611,77.9738918 73.6202611,78.8758918 L65.8602611,83.3098918 C63.9822611,80.0028918 65.0922611,75.7888918 68.3792611,73.8458918" id="Fill-18" fill="#2167AE"></path>
                    <path d="M11.7371611,69.1436918 C11.7371611,66.0926918 14.2101611,63.6196918 17.2611611,63.6196918 C20.3121611,63.6196918 22.7851611,66.0926918 22.7851611,69.1436918 C22.7851611,72.1946918 20.3121611,74.6676918 17.2611611,74.6676918 C14.2101611,74.6676918 11.7371611,72.1946918 11.7371611,69.1436918" id="Fill-20" fill="#2167AE"></path>
                </g>
            </g>
        </g>
    </g>
</svg>