<?xml version="1.0" encoding="UTF-8"?>
<svg width="140px" height="140px" viewBox="0 0 140 140" version="1.1" xmlns="http://www.w3.org/2000/svg" xmlns:xlink="http://www.w3.org/1999/xlink">
    <title>pictogram/light/security/digital/lock</title>
    <g id="pictogram/light/security/digital/lock" stroke="none" stroke-width="1" fill="none" fill-rule="evenodd">
        <g id="digital-lock" transform="translate(-0.000000, 0.000000)">
            <path d="M0,70 C0,31.34 31.34,0 70,0 C108.66,0 140,31.34 140,70 C140,108.66 108.66,140 70,140 C31.34,140 0,108.66 0,70" id="circle" fill="#DDE4E3"></path>
            <g id="picto" transform="translate(16.267400, 32.549500)">
                <path d="M95.6877578,61.106 L11.9946422,61.106 C11.9946422,61.106 11.9967,16.088 11.9946422,15.185 C11.9897,13.261 12.3057,9.879 14.3277,7.556 C16.0907,5.528 18.9087,4.5 22.6997,4.5 L84.9827,4.5 C88.7737,4.5 91.5917,5.528 93.3547,7.556 C95.3767,9.879 95.6927,13.261 95.6877578,15.185 C95.6857,16.088 95.6877578,61.106 95.6877578,61.106 M100.1637,15.939 C100.1637,13.683 100.1577,8.546 96.7787,4.634 C94.1217,1.559 90.1537,0 84.9827,0 L22.6997,0 C17.5287,0 13.5607,1.559 10.9037,4.634 C7.5247,8.546 7.5187,13.683 7.5187,15.939 C7.5187,16.334 7.5267,65.606 7.5267,65.606 L36.4857,65.606 L36.4857,68.949 L71.1967,68.949 L71.1967,65.606 L100.1557,65.606 C100.1557,65.606 100.1637,16.334 100.1637,15.939" id="Fill-4" fill="#5495CF"></path>
                <path d="M95.6877578,61.106 L11.9946422,61.106 C11.9946422,61.106 11.9967,16.088 11.9946422,15.185 C11.9897,13.261 12.3057,9.879 14.3277,7.556 C16.0907,5.528 18.9087,4.5 22.6997,4.5 L84.9827,4.5 C88.7737,4.5 91.5917,5.528 93.3547,7.556 C95.3767,9.879 95.6927,13.261 95.6877578,15.185 C95.6857,16.088 95.6877578,61.106 95.6877578,61.106" id="Fill-6" fill="#ECEEEF"></path>
                <path d="M106.215,64.5372 L66.642,64.5372 C66.026,64.5372 65.497,65.0152 65.402,65.6232 C65.366,65.8532 64.942,67.8732 61.158,67.8732 L46.307,67.8732 C42.986,67.8732 42.348,65.7412 42.29,65.5142 C42.162,64.9432 41.655,64.5372 41.07,64.5372 L1.25,64.5372 C0.56,64.5372 0,65.1082 0,65.7992 C0,70.0592 0,74.8882 7.81,74.8882 L99.655,74.8882 C107.465,74.8882 107.465,70.0592 107.465,65.7872 C107.465,65.0972 106.905,64.5372 106.215,64.5372" id="Fill-8" fill="#2167AE"></path>
                <path d="M53.3322,19.2374 C57.6242,19.2374 61.1162,22.7294 61.1162,27.0214 L61.1162,28.4194 L45.5482,28.4194 L45.5482,27.0214 C45.5482,22.7294 49.0402,19.2374 53.3322,19.2374 M64.7132,29.2064 L64.7132,27.0214 C64.7132,20.7464 59.6072,15.6404 53.3322,15.6404 C47.0572,15.6404 41.9512,20.7464 41.9512,27.0214 L41.9512,29.2074 C40.0552,30.3214 38.7632,32.5044 38.7632,35.0084 L38.7632,44.5924 C38.7632,48.2264 41.4792,51.1824 44.8192,51.1824 L61.8472,51.1824 C65.1862,51.1824 67.9022,48.2264 67.9022,44.5924 L67.9022,35.0084 C67.9022,32.5034 66.6102,30.3204 64.7132,29.2064" id="Fill-10" fill="#2167AE"></path>
                <path d="M57.5265,38.1915 C57.5265,35.8785 55.6445,33.9975 53.3325,33.9975 C51.0195,33.9975 49.1375,35.8785 49.1375,38.1915 C49.1375,39.8585 50.1225,41.2885 51.5335,41.9645 L51.5335,45.3775 C51.5335,46.3705 52.3395,47.1755 53.3325,47.1755 C54.3255,47.1755 55.1305,46.3705 55.1305,45.3775 L55.1305,41.9645 C56.5425,41.2885 57.5265,39.8585 57.5265,38.1915" id="Fill-12" fill="#91BFE3"></path>
            </g>
        </g>
    </g>
</svg>