<?xml version="1.0" encoding="UTF-8"?>
<svg width="140px" height="140px" viewBox="0 0 140 140" version="1.1" xmlns="http://www.w3.org/2000/svg" xmlns:xlink="http://www.w3.org/1999/xlink">
    <title>pictogram/dark/finance/cash/euro</title>
    <g id="pictogram/dark/finance/cash/euro" stroke="none" stroke-width="1" fill="none" fill-rule="evenodd">
        <g id="cash-euro" transform="translate(-0.000000, 0.000000)">
            <path d="M70,0 L70,0 C108.66,0 140,31.34 140,70 C140,108.66 108.66,140 70,140 C31.34,140 0,108.66 0,70 C0,31.34 31.34,0 70,0" id="circle" fill="#91BFE3"></path>
            <g id="picto" transform="translate(17.858911, 38.000000)">
                <g id="Group-10" transform="translate(0.000000, 7.074600)" fill="#5495CF">
                    <path d="M9.88858864,6 L9.88858864,7 C9.88858864,10.314 12.5755886,13 15.8885886,13 L57.5645886,13 C60.8775886,13 63.5645886,10.314 63.5645886,7 L63.5645886,6 C63.5645886,2.686 60.8775886,1.42108547e-14 57.5645886,1.42108547e-14 L15.8885886,1.42108547e-14 C12.5755886,1.42108547e-14 9.88858864,2.686 9.88858864,6" id="Fill-4"></path>
                    <path d="M19.8836886,42.9003 L19.8836886,43.9003 C19.8836886,47.2143 22.5696886,49.9003 25.8836886,49.9003 L57.5646886,49.9003 C60.8776886,49.9003 63.5646886,47.2143 63.5646886,43.9003 L63.5646886,42.9003 C63.5646886,39.5863 60.8776886,36.9003 57.5646886,36.9003 L25.8836886,36.9003 C22.5696886,36.9003 19.8836886,39.5863 19.8836886,42.9003" id="Fill-6"></path>
                    <path d="M0.00818863665,24.4019 L-3.55271368e-15,25.4019 C-0.0258113633,28.7159 2.63918864,31.4229 5.95318864,31.4489 L57.5141886,31.4499 C60.8281886,31.4759 63.5351886,28.8109 63.5611886,25.4969 L63.5693631,24.4969 C63.5941886,21.1839 60.9291886,18.4769 57.6151886,18.4509 L6.05418864,18.4489 C2.74118864,18.4229 0.0341886367,21.0879 0.00818863665,24.4019" id="Fill-8"></path>
                </g>
                <path d="M72.2816886,0 C54.6366886,0 40.2816886,14.355 40.2816886,32 C40.2816886,49.645 54.6366886,64 72.2816886,64 C89.9266886,64 104.281689,49.645 104.281689,32 C104.281689,14.355 89.9266886,0 72.2816886,0" id="Fill-11" fill="#2167AE"></path>
                <path d="M81.9393886,50.7827 C73.7283886,50.7827 66.7583886,45.3957 64.3593886,37.9727 L77.9153886,37.9727 C78.8233886,37.9727 79.5593886,37.2377 79.5593886,36.3297 C79.5593886,35.4217 78.8233886,34.6857 77.9153886,34.6857 L63.6323886,34.6857 C63.5313886,33.9047 63.4613886,33.1137 63.4613886,32.3047 C63.4613886,31.4967 63.5313886,30.7057 63.6323886,29.9247 L77.9153886,29.9247 C78.8233886,29.9247 79.5593886,29.1887 79.5593886,28.2817 C79.5593886,27.3737 78.8233886,26.6367 77.9153886,26.6367 L64.3593886,26.6367 C66.7583886,19.2157 73.7283886,13.8287 81.9393886,13.8287 C82.8473886,13.8287 83.5833886,13.0927 83.5833886,12.1847 C83.5833886,11.2767 82.8473886,10.5407 81.9393886,10.5407 C71.8983886,10.5407 63.4283886,17.3767 60.9273886,26.6367 L57.7933886,26.6367 C56.8863886,26.6367 56.1503886,27.3737 56.1503886,28.2817 C56.1503886,29.1887 56.8863886,29.9247 57.7933886,29.9247 L60.3073886,29.9247 C60.2213886,30.7067 60.1743886,31.5007 60.1743886,32.3047 C60.1743886,33.1097 60.2213886,33.9037 60.3073886,34.6857 L57.7933886,34.6857 C56.8863886,34.6857 56.1503886,35.4217 56.1503886,36.3297 C56.1503886,37.2377 56.8863886,37.9727 57.7933886,37.9727 L60.9273886,37.9727 C63.4283886,47.2347 71.8983886,54.0707 81.9393886,54.0707 C82.8473886,54.0707 83.5833886,53.3347 83.5833886,52.4267 C83.5833886,51.5187 82.8473886,50.7827 81.9393886,50.7827" id="Fill-13" fill="#DAD2BD"></path>
            </g>
        </g>
    </g>
</svg>