<?xml version="1.0" encoding="UTF-8"?>
<svg width="140px" height="140px" viewBox="0 0 140 140" version="1.1" xmlns="http://www.w3.org/2000/svg" xmlns:xlink="http://www.w3.org/1999/xlink">
    <title>pictogram/dark/people/gesture/care</title>
    <defs>
        <polygon id="path-1" points="0 0 140 0 140 139.9999 0 139.9999"></polygon>
        <path d="M2.88657986e-15,69.999 C2.88657986e-15,108.658 31.339,139.999 69.999,139.999 L69.999,139.999 C108.659,139.999 139.999,108.658 139.999,69.999 L139.999,69.999 C139.999,31.339 108.659,0 69.999,0 L69.999,0 C31.339,0 2.88657986e-15,31.339 2.88657986e-15,69.999 L2.88657986e-15,69.999 Z" id="path-3"></path>
        <path d="M2.88657986e-15,69.999 C2.88657986e-15,108.658 31.339,139.999 69.999,139.999 L69.999,139.999 C108.659,139.999 139.999,108.658 139.999,69.999 L139.999,69.999 C139.999,31.339 108.659,0 69.999,0 L69.999,0 C31.339,0 2.88657986e-15,31.339 2.88657986e-15,69.999" id="path-5"></path>
        <path d="M2.88657986e-15,69.999 C2.88657986e-15,108.658 31.339,139.999 69.999,139.999 L69.999,139.999 C108.659,139.999 139.999,108.658 139.999,69.999 L139.999,69.999 C139.999,31.339 108.659,0 69.999,0 L69.999,0 C31.339,0 2.88657986e-15,31.339 2.88657986e-15,69.999" id="path-7"></path>
        <path d="M2.88657986e-15,69.999 C2.88657986e-15,108.658 31.339,139.999 69.999,139.999 L69.999,139.999 C108.659,139.999 139.999,108.658 139.999,69.999 L139.999,69.999 C139.999,31.339 108.659,0 69.999,0 L69.999,0 C31.339,0 2.88657986e-15,31.339 2.88657986e-15,69.999" id="path-9"></path>
    </defs>
    <g id="pictogram/dark/people/gesture/care" stroke="none" stroke-width="1" fill="none" fill-rule="evenodd">
        <g id="gesture-care" transform="translate(0.000000, 0.000000)">
            <g id="Group-3">
                <mask id="mask-2" fill="white">
                    <use xlink:href="#path-1"></use>
                </mask>
                <g id="Clip-2"></g>
                <path d="M140,70 C140,108.66 108.66,140 70,140 C31.34,140 0,108.66 0,70 C0,31.34 31.34,0 70,0 C108.66,0 140,31.34 140,70" id="Fill-1" fill="#91BFE3" mask="url(#mask-2)"></path>
            </g>
            <path d="M49.1614,38.7253 C49.2524,41.5213 50.2784,44.2033 52.0524,46.3163 L52.0524,46.3153 C52.7934,47.1413 69.0084,64.4893 69.1554,64.6103 C69.4224,64.8333 69.7574,64.9543 70.1084,64.9543 C70.1554,64.9543 70.2014,64.9523 70.2484,64.9483 C70.6494,64.9113 71.0114,64.7203 71.2674,64.4103 C77.4774,57.7893 87.9944,46.5613 88.2064,46.2783 C89.9544,44.2193 90.9904,41.5353 91.0844038,38.7703 C91.0874,35.0553 89.3314,31.5443 86.3864,29.3443 C83.8894,27.4803 80.8204,26.7023 77.7364,27.1533 C74.7044,27.5993 72.0214,29.1843 70.1634,31.6223 C70.1304,31.6253 70.0914,31.6253 70.0584,31.6223 C67.8724,28.7753 64.4444,27.0723 60.8574,27.0613 L60.8184,27.0613 C57.7184,27.0613 54.8014,28.2693 52.6014,30.4643 C50.3924,32.6673 49.1704,35.6013 49.1614,38.7253 L49.1614,38.7253 Z" id="Fill-4" fill="#2167AE"></path>
            <g id="Group-18" transform="translate(0.000700, 0.000900)">
                <g id="Group-8">
                    <mask id="mask-4" fill="white">
                        <use xlink:href="#path-3"></use>
                    </mask>
                    <g id="Clip-7"></g>
                    <path d="M96.887,77.3301 C100.693,75.3151 105.409,76.6291 107.625,80.3221 C109.962,84.2171 108.641,89.2711 104.698,91.5251 L67.904,112.5501 L54.435,99.9201 L96.887,77.3301 Z" id="Fill-6" fill="#C4BDAA" mask="url(#mask-4)"></path>
                </g>
                <g id="Group-11">
                    <mask id="mask-6" fill="white">
                        <use xlink:href="#path-5"></use>
                    </mask>
                    <g id="Clip-10"></g>
                    <path d="M116.8299,80.3223 C114.6149,76.6293 109.8979,75.3153 106.0919,77.3303 L68.4779,97.2433 C67.1279,97.9583 65.5409,98.0773 64.0999,97.5723 L45.7429,91.1483 L58.1179,90.5153 C62.7069,90.2813 66.3079,86.4923 66.3079,81.8973 L66.3079,81.8973 C66.3079,77.2953 62.6969,73.5033 58.0999,73.2783 L-0.3001,71.0013 C-0.1541,81.3763 2.2379,91.2053 6.4299,100.0203 L51.2939,115.7123 C59.1109,118.5923 67.8009,117.8683 75.0329,113.7363 L106.2199,95.9143 C104.3609,92.6413 105.4599,88.4683 108.7139,86.5443 C111.5599,84.8613 115.1209,85.4523 117.2879,87.7733 C118.3169,85.4473 118.2409,82.6743 116.8299,80.3223" id="Fill-9" fill="#DAD2BD" mask="url(#mask-6)"></path>
                </g>
                <g id="Group-14">
                    <mask id="mask-8" fill="white">
                        <use xlink:href="#path-7"></use>
                    </mask>
                    <g id="Clip-13"></g>
                    <path d="M108.7142,86.5445 C111.5612,84.8615 115.1202,85.4525 117.2882,87.7735 C116.6132,89.2985 115.4642,90.6315 113.9022,91.5245 L106.2202,95.9155 C104.3602,92.6405 105.4602,88.4685 108.7142,86.5445" id="Fill-12" fill="#ECEEEF" mask="url(#mask-8)"></path>
                </g>
                <g id="Group-17">
                    <mask id="mask-10" fill="white">
                        <use xlink:href="#path-9"></use>
                    </mask>
                    <g id="Clip-16"></g>
                    <path d="M52.6326,81.8887 C52.6326,78.8677 55.0816,76.4197 58.1026,76.4197 C61.1226,76.4197 63.5706,78.8677 63.5706,81.8887 C63.5706,84.9097 61.1226,87.3587 58.1026,87.3587 C55.0816,87.3587 52.6326,84.9097 52.6326,81.8887" id="Fill-15" fill="#ECEEEF" mask="url(#mask-10)"></path>
                </g>
            </g>
        </g>
    </g>
</svg>