<?xml version="1.0" encoding="UTF-8"?>
<svg width="140px" height="140px" viewBox="0 0 140 140" version="1.1" xmlns="http://www.w3.org/2000/svg" xmlns:xlink="http://www.w3.org/1999/xlink">
    <title>pictogram/dark/people/gesture/function</title>
    <g id="pictogram/dark/people/gesture/function" stroke="none" stroke-width="1" fill="none" fill-rule="evenodd">
        <g id="gesture-function">
            <path d="M140,70 C140,108.66 108.66,140 70,140 C31.34,140 0,108.66 0,70 C0,31.34 31.34,0 70,0 C108.66,0 140,31.34 140,70" id="Fill-1" fill="#91BFE3"></path>
            <g id="Group-13" transform="translate(38.612262, 24.188900)">
                <path d="M11.7752382,0 L57.7752382,0 C60.5362382,0 62.7752382,2.239 62.7752382,5 C62.7752382,7.761 60.5362382,10 57.7752382,10 L11.7752382,10 C9.01423821,10 6.77523821,7.761 6.77523821,5 C6.77523821,2.239 9.01423821,0 11.7752382,0" id="Fill-3" fill="#5495CF"></path>
                <path d="M11.7752382,14.4369 L57.7752382,14.4369 C60.5362382,14.4369 62.7752382,16.6759 62.7752382,19.4369 C62.7752382,22.1979 60.5362382,24.4369 57.7752382,24.4369 L11.7752382,24.4369 C9.01423821,24.4369 6.77523821,22.1979 6.77523821,19.4369 C6.77523821,16.6759 9.01423821,14.4369 11.7752382,14.4369" id="Fill-5" fill="#2167AE"></path>
                <path d="M59.1331382,56.6976 C59.1331382,53.7086 56.6871382,51.2636 53.6991382,51.2636 C52.1431382,51.2636 50.7441382,51.9356 49.7511382,52.9936 C49.2711382,50.4856 47.0611382,48.5736 44.4201382,48.5736 C42.5181382,48.5736 40.8441382,49.5666 39.8721382,51.0556 L39.8721382,50.8966 C39.8721382,47.9076 37.4271382,45.4626 34.4381382,45.4626 C31.4491382,45.4626 29.0041382,47.9076 29.0041382,50.8966 L29.0041382,22.3396 C29.0041382,19.3516 26.5591382,16.9056 23.5701382,16.9056 C20.5811382,16.9056 18.1351382,19.3516 18.1351382,22.3396 L18.1351382,57.9116 C18.1351382,57.9116 18.1351382,60.8626 16.9031382,60.9766 C15.6711382,61.0906 14.9281382,59.5706 14.9281382,59.5696 L10.2961382,50.2606 C8.96513821,47.5846 5.68613821,46.4846 3.01013821,47.8166 C0.334138208,49.1476 -0.765861792,52.4266 0.566138208,55.1026 L15.2531382,84.6206 C18.3791382,93.3616 26.7091382,99.6276 36.5241382,99.6276 C49.0101382,99.6276 59.1331382,89.5046 59.1331382,77.0186 C59.1331382,76.9816 59.1281382,76.9476 59.1271382,76.9116 C59.1281382,76.8926 59.1331382,76.8766 59.1331382,76.8576 L59.1331382,56.6976 Z" id="Fill-7" fill="#DAD2BD"></path>
                <path d="M19.5137382,22.6513 C19.5137382,20.4113 21.3297382,18.5953 23.5697382,18.5953 C25.8097382,18.5953 27.6257382,20.4113 27.6257382,22.6513 C27.6257382,24.8913 25.8097382,26.7073 23.5697382,26.7073 C21.3297382,26.7073 19.5137382,24.8913 19.5137382,22.6513" id="Fill-9" fill="#ECEEEF"></path>
                <path d="M6.17683821,54.5209 C5.05983821,52.2049 2.50083821,51.0539 0.0988382076,51.6219 C-0.122161792,52.9009 0.0468382076,54.2579 0.673838208,55.5089 L3.75383821,61.6599 C6.36783821,60.3419 7.45383821,57.1679 6.17683821,54.5209" id="Fill-11" fill="#ECEEEF"></path>
            </g>
        </g>
    </g>
</svg>