<?xml version="1.0" encoding="UTF-8"?>
<svg width="140px" height="140px" viewBox="0 0 140 140" version="1.1" xmlns="http://www.w3.org/2000/svg" xmlns:xlink="http://www.w3.org/1999/xlink">
    <title>pictogram/dark/people/gesture/handshake</title>
    <defs>
        <polygon id="path-1" points="0 0 139.9998 0 139.9998 139.9999 0 139.9999"></polygon>
        <polygon id="path-3" points="0.2501 0 0.7499 0 0.7499 1 0.2501 1"></polygon>
        <polygon id="path-5" points="0.2286 0 0.7714 0 0.7714 3.408 0.2286 3.408"></polygon>
        <polygon id="path-7" points="0 -1.42108547e-14 39.4135839 -1.42108547e-14 39.4135839 53.5134177 0 53.5134177"></polygon>
    </defs>
    <g id="pictogram/dark/people/gesture/handshake" stroke="none" stroke-width="1" fill="none" fill-rule="evenodd">
        <g id="gesture-handshake" transform="translate(-0.000000, 0.000000)">
            <g id="Group-3" transform="translate(0.250100, 0.000000)">
                <mask id="mask-2" fill="white">
                    <use xlink:href="#path-1"></use>
                </mask>
                <g id="Clip-2"></g>
                <path d="M139.9998,70 C139.9998,108.66 108.6598,140 69.9998,140 C31.3398,140 -0.0002,108.66 -0.0002,70 C-0.0002,31.34 31.3398,0 69.9998,0 C108.6598,0 139.9998,31.34 139.9998,70" id="Fill-1" fill="#91BFE3" mask="url(#mask-2)"></path>
            </g>
            <g id="Group-37" transform="translate(0.000000, 23.112800)">
                <g id="Group-6" transform="translate(0.000000, 46.383200)">
                    <mask id="mask-4" fill="white">
                        <use xlink:href="#path-3"></use>
                    </mask>
                    <g id="Clip-5"></g>
                    <path d="M0.2499,0.5035 L0.2499,0.5045 C0.2499,0.5015 0.2499,0.4985 0.2499,0.4955 C0.2499,0.4985 0.2499,0.5015 0.2499,0.5035" id="Fill-4" fill="#91BFE3" mask="url(#mask-4)"></path>
                </g>
                <path d="M107.7797,58.9262 L83.1887,43.5112 L73.7357,30.9882 L60.6017,34.5082 L28.8057,17.9052 L16.7407,54.2792 L63.5977,86.9502 L64.0957,86.4332 C64.4577,86.8212 64.8687,87.1722 65.3387,87.4672 L75.2897,93.7052 C78.2267,95.5462 82.1357,94.6492 83.9767,91.7122 L83.9777,91.7122 C85.0897,89.9392 85.1967,87.8122 84.4647,85.9992 C87.2797,87.2512 90.6837,86.2782 92.3637,83.5952 C93.7077,81.4522 93.5877,78.7942 92.2857,76.7962 L93.2627,77.4092 C96.1997,79.2502 100.1097,78.3532 101.9507,75.4172 C102.9417,73.8352 103.1337,71.9732 102.6457,70.3022 C105.2867,71.0792 108.2427,70.0532 109.7727,67.6142 C111.6127,64.6762 110.7167,60.7672 107.7797,58.9262" id="Fill-7" fill="#DAD2BD"></path>
                <g id="Group-11" transform="translate(0.021500, 46.887600)">
                    <mask id="mask-6" fill="white">
                        <use xlink:href="#path-5"></use>
                    </mask>
                    <g id="Clip-10"></g>
                    <path d="M0.2284,0.001 C0.2284,1.144 0.2614,2.278 0.3144,3.408 C0.2604,2.278 0.2284,1.143 0.2284,0 L0.2284,0.001 Z" id="Fill-9" fill="#23366F" mask="url(#mask-6)"></path>
                </g>
                <path d="M107.1947,11.749 C107.1947,11.749 102.3657,16.199 91.5497,21.385 C91.3037,21.503 90.0877,20.732 89.8487,20.61 C88.7167,20.032 77.7857,12.691 73.0057,17.271 L53.2977,31.058 L46.9667,35.62 C44.6187,37.311 44.0077,40.545 45.5777,42.976 C47.1497,45.411 50.3557,46.183 52.8637,44.732 L69.7557,34.741 L96.4987,52.428 L107.5957,58.826 L127.5867,46.03 L107.1947,11.749 Z" id="Fill-12" fill="#2167AE"></path>
                <path d="M52.8148,38.3095 C53.8468,39.9075 53.3878,42.0395 51.7898,43.0715 C50.1918,44.1025 48.0598,43.6435 47.0288,42.0455 C45.9968,40.4485 46.4558,38.3165 48.0538,37.2845 C49.6508,36.2525 51.7838,36.7115 52.8148,38.3095" id="Fill-14" fill="#23366F"></path>
                <path d="M40.5702,60.3056 L40.5702,60.3056 C42.4382,62.4146 42.5062,65.4056 40.7222,66.9846 L35.8772,71.2726 C34.0932,72.8516 31.1332,72.4216 29.2662,70.3116 C27.3992,68.2016 27.3312,65.2116 29.1142,63.6326 L33.9592,59.3446 C35.7432,57.7656 38.7032,58.1956 40.5702,60.3056" id="Fill-16" fill="#2167AE"></path>
                <path d="M50.9628,66.0869 L50.9628,66.0869 C53.0548,68.5699 52.7378,72.2789 50.2548,74.3709 L43.5108,80.0529 C41.0278,82.1459 37.3188,81.8289 35.2268,79.3449 C33.1338,76.8619 33.4508,73.1529 35.9348,71.0609 L42.6788,65.3789 C45.1618,63.2869 48.8708,63.6039 50.9628,66.0869" id="Fill-18" fill="#2167AE"></path>
                <path d="M60.0712,73.7949 L60.0712,73.7949 C62.1632,76.2779 61.8462,79.9869 59.3632,82.0789 L52.6192,87.7609 C50.1362,89.8539 46.4262,89.5369 44.3352,87.0529 C42.2422,84.5699 42.5592,80.8609 45.0432,78.7689 L51.7872,73.0869 C54.2702,70.9949 57.9792,71.3119 60.0712,73.7949" id="Fill-20" fill="#2167AE"></path>
                <path d="M39.6102,61.6049 C40.6422,63.2029 40.1832,65.3349 38.5852,66.3669 C36.9872,67.3979 34.8552,66.9389 33.8232,65.3409 C32.7922,63.7439 33.2512,61.6119 34.8492,60.5799 C36.4462,59.5479 38.5782,60.0069 39.6102,61.6049" id="Fill-22" fill="#23366F"></path>
                <path d="M49.3705,67.7758 C50.4025,69.3738 49.9435,71.5058 48.3455,72.5378 C46.7475,73.5688 44.6155,73.1098 43.5835,71.5118 C42.5525,69.9148 43.0115,67.7828 44.6095,66.7508 C46.2065,65.7188 48.3385,66.1778 49.3705,67.7758" id="Fill-24" fill="#23366F"></path>
                <path d="M58.684,75.1806 C59.716,76.7786 59.257,78.9106 57.659,79.9426 C56.061,80.9736 53.929,80.5146 52.897,78.9166 C51.866,77.3186 52.325,75.1866 53.922,74.1556 C55.52,73.1236 57.652,73.5826 58.684,75.1806" id="Fill-26" fill="#23366F"></path>
                <g id="Group-30" transform="translate(0.250100, 5.579300)">
                    <mask id="mask-8" fill="white">
                        <use xlink:href="#path-7"></use>
                    </mask>
                    <g id="Clip-29"></g>
                    <path d="M37.7918,11.594 L26.8048,6.211 C26.4888,6.056 26.1578,5.974 25.8268,5.941 C25.6608,5.807 25.4798,5.687 25.2808,5.589 L14.3958,0.255 C14.1048,0.113 13.8018,0.04 13.4978,-1.42108547e-14 C6.4018,9.689 1.7348,21.264 0.4008,33.84 C0.3768,34.064 0.3548,34.288 0.3338,34.513 C0.2498,35.38 0.1868,36.252 0.1348,37.127 C0.1188,37.412 0.0968,37.695 0.0838,37.98 C0.0328,39.081 -0.0002,40.186 -0.0002,41.3 C-0.0002,41.302 -0.0002,41.305 -0.0002,41.308 C-0.0002,42.451 0.0318,43.587 0.0858,44.716 L4.9428,47.096 C5.1908,47.218 5.4488,47.287 5.7088,47.335 C5.9148,47.529 6.1418,47.705 6.4078,47.836 L17.3948,53.219 C18.8268,53.921 20.5728,53.324 21.2738,51.892 L39.1198,15.473 C39.8208,14.041 39.2238,12.296 37.7918,11.594" id="Fill-28" fill="#5495CF" mask="url(#mask-8)"></path>
                </g>
                <path d="M140.1708,43.75 C139.4288,26.948 132.7708,11.687 122.2198,0 L112.0568,6.133 C111.9578,6.18 111.8568,6.218 111.7608,6.276 L98.8608,14.239 C97.5048,15.076 97.0798,16.872 97.9168,18.229 L119.4308,53.085 C120.2688,54.442 122.0638,54.867 123.4208,54.029 L134.8088,47.001 C134.9608,46.939 135.1118,46.873 135.2558,46.784 L140.1708,43.75 Z" id="Fill-31" fill="#5495CF"></path>
                <path d="M71.4657,79.1401 L71.4657,79.1401 C73.5577,81.6231 73.2407,85.3321 70.7577,87.4241 L64.0137,93.1061 C61.5297,95.1991 57.8207,94.8821 55.7287,92.3981 C53.6367,89.9151 53.9537,86.2061 56.4367,84.1141 L63.1817,78.4321 C65.6647,76.3401 69.3737,76.6571 71.4657,79.1401" id="Fill-33" fill="#2167AE"></path>
                <path d="M69.8554,80.8188 C70.8874,82.4168 70.4274,84.5488 68.8304,85.5808 C67.2314,86.6118 65.1004,86.1528 64.0684,84.5548 C63.0374,82.9568 63.4954,80.8258 65.0934,79.7938 C66.6914,78.7618 68.8234,79.2208 69.8554,80.8188" id="Fill-35" fill="#23366F"></path>
            </g>
        </g>
    </g>
</svg>