<?xml version="1.0" encoding="UTF-8"?>
<svg width="140px" height="140px" viewBox="0 0 140 140" version="1.1" xmlns="http://www.w3.org/2000/svg" xmlns:xlink="http://www.w3.org/1999/xlink">
    <title>pictogram/light/people/youth/empowerment</title>
    <defs>
        <polygon id="path-1" points="0 0 140 0 140 139.9999 0 139.9999"></polygon>
        <polygon id="path-3" points="0 0.24595 1 0.24595 1 0.75405 0 0.75405"></polygon>
        <polygon id="path-5" points="1.42108547e-14 0.23065 1.783 0.23065 1.783 0.76935 1.42108547e-14 0.76935"></polygon>
    </defs>
    <g id="pictogram/light/people/youth/empowerment" stroke="none" stroke-width="1" fill="none" fill-rule="evenodd">
        <g id="youth-empowerment">
            <g id="Group-11">
                <g id="Group-3">
                    <mask id="mask-2" fill="white">
                        <use xlink:href="#path-1"></use>
                    </mask>
                    <g id="Clip-2"></g>
                    <path d="M70,-0.0001 C31.34,-0.0001 0,31.3399 0,69.9999 C0,108.6599 31.34,139.9999 70,139.9999 C108.66,139.9999 140,108.6599 140,69.9999 C140,31.3399 108.66,-0.0001 70,-0.0001" id="Fill-1" fill="#DDE4E3" mask="url(#mask-2)"></path>
                </g>
                <path d="M82.0046,138.9535 C78.8716,139.4825 75.6716,139.8155 72.4186,139.9385 C75.6756,139.8285 78.8746,139.4945 82.0046,138.9535" id="Fill-4" fill="#91BFE3"></path>
                <g id="Group-8" transform="translate(69.733700, 139.245950)">
                    <mask id="mask-4" fill="white">
                        <use xlink:href="#path-3"></use>
                    </mask>
                    <g id="Clip-7"></g>
                    <path d="M0.2665,0.75395 C0.4795,0.75395 0.6885,0.73995 0.9015,0.73795 C0.6335,0.74195 0.3665,0.74895 0.0985,0.74995 C0.1545,0.74995 0.2105,0.75395 0.2665,0.75395" id="Fill-6" fill="#91BFE3" mask="url(#mask-4)"></path>
                </g>
                <path d="M84.3996,138.5101 C84.0456,138.5821 83.6896,138.6491 83.3336,138.7161 C83.6896,138.6471 84.0456,138.5841 84.3996,138.5101" id="Fill-9" fill="#91BFE3"></path>
            </g>
            <g id="Group-51" transform="translate(25.338061, 26.506989)">
                <path d="M57.9956392,112.208711 C57.5546392,112.293711 57.1106392,112.369711 56.6666392,112.446711 C57.1106392,112.371711 57.5546392,112.291711 57.9956392,112.208711" id="Fill-12" fill="#ECEEEF"></path>
                <g id="Group-16" transform="translate(45.297039, 112.723661)">
                    <mask id="mask-6" fill="white">
                        <use xlink:href="#path-5"></use>
                    </mask>
                    <g id="Clip-15"></g>
                    <path d="M1.783,0.70815 C1.19,0.72815 0.596,0.74815 1.42108547e-14,0.75315 C0.596,0.74515 1.19,0.73015 1.783,0.70815" id="Fill-14" fill="#ECEEEF" mask="url(#mask-6)"></path>
                </g>
                <path d="M86.2734392,38.6071114 C86.2734392,51.2261114 76.7454392,61.4551114 64.9914392,61.4551114 C53.2374392,61.4551114 43.7094392,51.2261114 43.7094392,38.6071114 C43.7094392,25.9891114 53.2374392,15.7601114 64.9914392,15.7601114 C76.7454392,15.7601114 86.2734392,25.9891114 86.2734392,38.6071114" id="Fill-17" fill="#23366F"></path>
                <path d="M49.9521392,34.2839114 C49.5881392,35.2799114 49.3721392,36.4599114 49.3721392,37.9079114 C49.3341392,44.0639114 49.5221392,50.1379114 54.0631392,54.8569114 C54.8891392,55.7149114 55.2891392,56.8709114 55.0281392,58.1009114 C54.4241392,60.9489114 53.0781392,66.6109114 53.0781392,66.6109114 C53.0781392,66.6109114 56.3031392,75.0179114 65.0511392,75.0179114 C73.7991392,75.0179114 76.7911392,66.6089114 76.7911392,66.6089114 C76.7911392,66.6089114 75.6301392,61.3799114 75.0001392,58.7799114 C74.6071392,57.1579114 74.9541392,55.7999114 76.0541392,54.6439114 C77.0651392,53.5789114 77.9841392,52.4499114 78.5711392,51.0399114 C80.1581392,47.2369114 80.6601392,38.7489114 80.6091392,34.1809114 C78.1721392,32.5729114 73.2701392,30.2269114 65.3531392,30.2269114 C57.6001392,30.2269114 52.5601392,32.5969114 49.9521392,34.2839114" id="Fill-19" fill="#5495CF"></path>
                <path d="M85.7449392,29.5509114 C85.7609392,29.8089114 85.7639392,29.9589114 85.7639392,29.9589114 C73.8799392,24.4019114 65.1469392,24.9159114 65.1469392,24.9159114 C65.1469392,24.9159114 56.4139392,24.4019114 44.5309392,29.9589114 C44.3149392,31.3999114 44.0609392,33.0749114 43.9389392,33.8799114 C43.8949392,34.0359114 43.8649392,34.1959114 43.8649392,34.3629114 C43.8649392,35.4989114 44.9409392,36.4209114 46.2679392,36.4209114 C46.8519392,36.4209114 47.3789392,36.2349114 47.7949392,35.9389114 L47.8059392,35.9439114 C47.8059392,35.9439114 47.8229392,35.9269114 47.8479392,35.9019114 C47.9669392,35.8119114 48.0759392,35.7129114 48.1719392,35.6049114 C48.5159392,35.3049114 49.1089392,34.8289114 49.9519392,34.2839114 C52.5609392,32.5959114 57.5999392,30.2269114 65.3539392,30.2269114 C68.7779392,30.2269114 71.6359392,30.6669114 73.9779392,31.2959114 C74.0519392,31.3159114 74.1259392,31.3379114 74.2009392,31.3579114 C77.1529392,32.1769114 79.2609392,33.2909114 80.6089392,34.1809114 C81.2879392,34.6289114 81.7859392,35.0229114 82.0909392,35.2889114 C82.1959392,35.4109114 82.3169392,35.5209114 82.4509392,35.6199114 C82.4739392,35.6439114 82.4879392,35.6589114 82.4879392,35.6589114 L82.4989392,35.6549114 C82.9159392,35.9509114 83.4429392,36.1369114 84.0259392,36.1369114 C85.3539392,36.1369114 86.4289392,35.2149114 86.4289392,34.0779114 C86.4289392,33.9109114 86.3989392,33.7519114 86.3559392,33.5959114 C86.2299392,32.7669114 85.9639392,31.0179114 85.7449392,29.5509114 Z" id="Fill-21" fill="#91BFE3"></path>
                <path d="M85.7450392,29.5510114 C85.5810392,26.8190114 83.9060392,10.9780114 67.0750392,9.85101143 C67.0760392,9.82801143 67.0820392,9.80701143 67.0820392,9.78501143 C67.0820392,8.88701143 66.3540392,8.15801143 65.4550392,8.15801143 C64.5570392,8.15801143 63.8290392,8.88701143 63.8290392,9.78501143 C63.8290392,9.79901143 63.8330392,9.81201143 63.8330392,9.82601143 C44.8110392,10.6830114 44.5310392,29.9590114 44.5310392,29.9590114 C56.4140392,24.4020114 65.1470392,24.9160114 65.1470392,24.9160114 C65.1470392,24.9160114 73.8800392,24.4020114 85.7640392,29.9590114 C85.7640392,29.9590114 85.7610392,29.8090114 85.7450392,29.5510114" id="Fill-23" fill="#2167AE"></path>
                <path d="M15.7678392,9.91911143 L15.5168392,9.54211143 C15.3848392,9.74711143 15.2048392,9.92411143 14.9728392,10.0441114 C14.2698392,10.4061114 13.4068392,10.1291114 13.0448392,9.42611143 C12.9068392,9.15911143 12.8628392,8.86911143 12.8978392,8.59111143 L11.9588392,8.99611143 L12.4808392,9.80611143 C12.9198392,10.4881114 13.6558392,10.8361114 14.3868392,10.7901114 C14.7478392,10.7661114 15.1078392,10.6461114 15.4298392,10.4211114 C15.5788392,10.3171114 15.7048392,10.1931114 15.8198392,10.0601114 C15.8048392,10.0141114 15.7908392,9.96811143 15.7678392,9.91911143" id="Fill-25" fill="#5495CF"></path>
                <path d="M8.21033923,14.3932114 C7.52833923,14.7442114 6.69133923,14.4762114 6.34033923,13.7942114 C5.98933923,13.1132114 6.25733923,12.2762114 6.93933923,11.9252114 C7.62133923,11.5742114 8.45833923,11.8422114 8.80933923,12.5232114 C9.16033923,13.2052114 8.89233923,14.0422114 8.21033923,14.3932114 L8.21033923,14.3932114 Z M5.06033923,16.3562114 C4.43033923,16.6812114 3.65633923,16.4332114 3.33233923,15.8032114 C3.00733923,15.1732114 3.25533923,14.3992114 3.88533923,14.0752114 C4.51533923,13.7502114 5.28933923,13.9982114 5.61333923,14.6282114 C5.93833923,15.2582114 5.69033923,16.0322114 5.06033923,16.3562114 L5.06033923,16.3562114 Z M8.26233923,3.22121143 C8.29833923,3.29821143 8.33933923,3.37321143 8.38633923,3.44721143 C8.33933923,3.37321143 8.29833923,3.29821143 8.26233923,3.22121143 L8.26233923,3.22121143 Z M11.9543392,8.99721143 L10.9493392,9.43021143 C11.4003392,9.48821143 11.8163392,9.75921143 12.0403392,10.1942114 C12.4023392,10.8962114 12.1263392,11.7602114 11.4233392,12.1222114 C10.7203392,12.4842114 9.85633923,12.2072114 9.49533923,11.5042114 C9.14633923,10.8282114 9.39433923,10.0072114 10.0403392,9.62321143 C9.18033923,9.61621143 8.36433923,9.09021143 7.99333923,8.22221143 C7.98533923,8.20421143 7.97633923,8.18721143 7.96933923,8.16921143 C7.48933923,6.97021143 8.03033923,5.59821143 9.17633923,5.10421143 L9.39333923,5.01121143 L9.43133923,4.99421143 L9.43133923,4.99421143 L13.3903392,3.28921143 L11.9083392,0.988211433 C11.2523392,-0.0307885667 9.93133923,-0.306788567 8.95933923,0.372211433 C8.12833923,0.953211433 7.82533923,2.04021143 8.16233923,2.98121143 L7.69833923,2.24521143 C7.08933923,1.27921143 5.84933923,1.00721143 4.92833923,1.63721143 C4.00633923,2.26721143 3.75233923,3.56021143 4.36133923,4.52521143 L4.87633923,5.34221143 C4.22033923,4.83121143 3.30833923,4.76621143 2.58733923,5.25821143 C1.66633923,5.88821143 1.41233923,7.18121143 2.02033923,8.14621143 L2.75633923,9.31221143 C2.16933923,8.98321143 1.43533923,8.99021143 0.84233923,9.39521143 C-0.0226607698,9.98621143 -0.25966077,11.1982114 0.31033923,12.1032114 L0.34833923,12.1642114 L2.93933923,16.2742114 C3.32433923,16.8852114 3.98033923,17.2002114 4.63133923,17.1582114 C4.94433923,17.1382114 5.25633923,17.0352114 5.53633923,16.8442114 C6.20533923,16.3862114 6.49833923,15.5562114 6.33133923,14.7842114 C6.72133923,15.1012114 7.20833923,15.2562114 7.69233923,15.2252114 C8.02633923,15.2032114 8.35933923,15.0932114 8.65833923,14.8892114 C9.44833923,14.3492114 9.74333923,13.3212114 9.42733923,12.4302114 C9.83133923,12.8032114 10.3583392,12.9872114 10.8833392,12.9542114 C11.2173392,12.9322114 11.5503392,12.8222114 11.8493392,12.6182114 C12.7703392,11.9882114 13.0243392,10.6952114 12.4163392,9.73021143 L11.9543392,8.99721143 Z" id="Fill-27" fill="#5495CF"></path>
                <path d="M9.49503923,11.5046114 C9.85703923,12.2076114 10.7200392,12.4836114 11.4230392,12.1226114 C12.1260392,11.7596114 12.4020392,10.8966114 12.0400392,10.1936114 C11.8170392,9.75861143 11.4000392,9.48861143 10.9490392,9.43061143 L10.9120392,9.44661143 C10.6270392,9.56861143 10.3310392,9.62561143 10.0400392,9.62361143 C9.39403923,10.0066114 9.14603923,10.8276114 9.49503923,11.5046114" id="Fill-29" fill="#23366F"></path>
                <path d="M8.21033923,14.3932114 C8.89233923,14.0422114 9.16033923,13.2052114 8.80933923,12.5232114 C8.45833923,11.8422114 7.62133923,11.5742114 6.93933923,11.9252114 C6.25733923,12.2762114 5.98933923,13.1132114 6.34033923,13.7942114 C6.69133923,14.4762114 7.52833923,14.7442114 8.21033923,14.3932114" id="Fill-31" fill="#23366F"></path>
                <path d="M5.06003923,16.3566114 C5.69003923,16.0326114 5.93803923,15.2586114 5.61303923,14.6286114 C5.28903923,13.9986114 4.51503923,13.7506114 3.88503923,14.0756114 C3.25503923,14.3996114 3.00803923,15.1736114 3.33203923,15.8036114 C3.65603923,16.4336114 4.43003923,16.6816114 5.06003923,16.3566114" id="Fill-33" fill="#23366F"></path>
                <path d="M15.5052392,11.0798114 L15.5052392,11.0798114 L15.5052392,11.0798114 Z" id="Fill-35" fill="#2167AE"></path>
                <path d="M12.8978392,8.59151143 C12.8628392,8.86851143 12.9068392,9.15851143 13.0448392,9.42651143 C13.4068392,10.1295114 14.2698392,10.4055114 14.9728392,10.0435114 C15.2048392,9.92451143 15.3848392,9.74651143 15.5168392,9.54151143 L14.4418392,7.92651143 L12.8978392,8.59151143 Z" id="Fill-37" fill="#23366F"></path>
                <path d="M15.6035392,10.9875114 L15.5055392,11.0795114 C15.5055392,11.0795114 15.5485392,11.0465114 15.6035392,10.9875114" id="Fill-39" fill="#2167AE"></path>
                <polygon id="Fill-41" fill="#2167AE" points="11.9543392 8.99771143 11.9583392 8.99571143 11.6923392 8.58271143"></polygon>
                <path d="M11.6927392,8.58271143 L11.5797392,8.40371143 C11.5797392,8.40371143 11.5787392,8.40471143 11.5787392,8.40571143 L11.6927392,8.58271143 Z" id="Fill-43" fill="#2167AE"></path>
                <path d="M15.4173392,10.4216114 C15.0953392,10.6466114 14.7353392,10.7666114 14.3743392,10.7896114 C13.6433392,10.8366114 12.9073392,10.4876114 12.4683392,9.80661143 L11.9493392,8.99961143 L11.9543392,8.99761143 L11.9513392,8.99361143 L12.8853392,8.59161143 L14.4293392,7.92661143 L15.5043392,9.54161143 L15.7553392,9.91961143 C15.7783392,9.96761143 15.7923392,10.0136114 15.8073392,10.0606114 C15.6923392,10.1926114 15.5663392,10.3176114 15.4173392,10.4216114 L15.4173392,10.4216114 Z M11.5733392,8.41161143 C11.4213392,8.60861143 11.2293392,8.77761143 10.9943392,8.89961143 C10.1323392,9.34261143 9.07433923,9.00461143 8.63133923,8.14261143 C8.60333923,8.08861143 8.58733923,8.03161143 8.56533923,7.97661143 C8.24033923,7.14861143 8.58033923,6.19461143 9.38733923,5.77861143 C9.51933923,5.71161143 9.65633923,5.66761143 9.79533923,5.63461143 C9.80733923,5.63261143 9.81933923,5.63161143 9.83133923,5.62961143 L9.83033923,5.62761143 C10.5803392,5.47461143 11.3703392,5.82061143 11.7393392,6.53561143 C11.7483392,6.55461143 11.7533392,6.57561143 11.7623392,6.59461143 C12.0483392,7.20461143 11.9543392,7.89761143 11.5673392,8.40361143 L11.5733392,8.41161143 Z M20.0673392,9.42961143 C19.8993392,8.35961143 19.5013392,7.33861143 18.9013392,6.43661143 L17.0813392,3.70261143 C16.4763392,2.79161143 15.3463392,2.44261143 14.3693392,2.86261143 L13.3783392,3.28961143 L9.41933923,4.99461143 L9.42133923,4.99861143 L9.39333923,5.01061143 L9.17633923,5.10461143 C8.03033923,5.59761143 7.48933923,6.96961143 7.96933923,8.16961143 C7.97633923,8.18761143 7.98533923,8.20461143 7.99333923,8.22261143 C8.36433923,9.09061143 9.18033923,9.61661143 10.0403392,9.62361143 C10.3313392,9.62561143 10.6263392,9.56861143 10.9123392,9.44661143 L10.9493392,9.43061143 L11.9443392,9.00161143 L12.4043392,9.73061143 C13.0123392,10.6956114 12.7583392,11.9886114 11.8373392,12.6186114 C11.5373392,12.8226114 11.2053392,12.9326114 10.8713392,12.9536114 C10.3463392,12.9876114 9.81933923,12.8036114 9.41533923,12.4296114 C9.73033923,13.3206114 9.43633923,14.3496114 8.64533923,14.8896114 C8.34633923,15.0936114 8.01433923,15.2036114 7.68033923,15.2246114 C7.19533923,15.2556114 6.70933923,15.1016114 6.31933923,14.7836114 C6.48633923,15.5556114 6.19333923,16.3866114 5.52333923,16.8436114 C5.24333923,17.0356114 4.93133923,17.1376114 4.61833923,17.1576114 C3.96733923,17.1996114 3.31233923,16.8856114 2.92633923,16.2746114 L0.33633923,12.1636114 L3.80333923,22.9536114 L3.80333923,23.4836114 L3.83533923,23.4836114 L4.17733923,23.4856114 L8.53033923,23.5236114 L9.33033923,23.5296114 L13.7233392,23.5676114 L13.7233392,21.4116114 C13.7233392,21.4116114 13.7233392,20.8726114 14.1493392,20.5116114 L17.1333392,17.9856114 C19.4653392,15.7946114 20.5643392,12.5916114 20.0673392,9.42961143 L20.0673392,9.42961143 Z" id="Fill-45" fill="#2167AE"></path>
                <path d="M11.7744392,6.59491143 C11.7654392,6.57491143 11.7614392,6.55491143 11.7514392,6.53591143 C11.3814392,5.81791143 10.5854392,5.46991143 9.83143923,5.62891143 C9.81943923,5.63191143 9.80743923,5.63291143 9.79543923,5.63491143 C9.65643923,5.66691143 9.51943923,5.71091143 9.38743923,5.77891143 C8.58043923,6.19491143 8.24043923,7.14891143 8.56543923,7.97591143 C8.58743923,8.03191143 8.60243923,8.08891143 8.63043923,8.14291143 C9.07443923,9.00391143 10.1324392,9.34291143 10.9944392,8.89991143 C11.2324392,8.77691143 11.4254392,8.60491143 11.5784392,8.40591143 C11.5794392,8.40491143 11.5794392,8.40391143 11.5804392,8.40391143 C11.9664392,7.89791143 12.0604392,7.20391143 11.7744392,6.59491143" id="Fill-47" fill="#23366F"></path>
                <path d="M98.7978392,75.1999114 C98.3758392,74.5219114 97.9848392,73.9359114 97.6658392,73.5359114 C96.9048392,72.5839114 96.1378392,71.7769114 95.3668392,71.0709114 C95.2928392,71.0019114 95.2178392,70.9429114 95.1448392,70.8749114 C94.9448392,70.6989114 94.7458392,70.5159114 94.5448392,70.3539114 C92.9718392,69.0399114 91.3758392,68.1819114 89.7618392,67.6139114 C88.4848392,67.1619114 87.1948392,66.8949114 85.8978392,66.7389114 C85.0148392,66.6329114 84.1278392,66.5759114 83.2368392,66.5469114 C82.1438392,66.5109114 81.0448392,66.5139114 79.9428392,66.5139114 L63.5568392,66.5149114 L52.0958392,66.5159114 L50.0848392,66.5139114 C48.9318392,66.5139114 47.7838392,66.5139114 46.6408392,66.5549114 L46.6408392,66.5519114 L27.6498392,66.5519114 C27.6498392,66.5519114 20.6648392,66.7309114 19.4378392,59.7699114 L19.4378392,59.7679114 C19.3418392,59.1969114 19.2488392,58.6439114 19.1588392,58.1109114 C17.7768392,49.5679114 16.0388392,34.2599114 16.0128392,34.0319114 L15.2878392,26.2669114 L15.2708392,26.2659114 L15.2498392,26.0519114 L15.2038392,25.5779114 L15.0588392,24.3829114 C15.0588392,24.3829114 14.9908392,23.5769114 14.0868392,23.5699114 L13.7358392,23.5669114 L9.34183923,23.5299114 L8.54283923,23.5229114 L4.18983923,23.4859114 L3.84683923,23.4828522 L3.81583923,23.4828522 L3.79783923,23.4828522 C2.89383923,23.4749114 2.81283923,24.2799114 2.81283923,24.2799114 L2.70183923,25.5779114 C2.70183923,25.5779114 2.62883923,29.8629114 2.53483923,35.2919114 L2.53583923,35.2919114 L2.53483923,35.2919114 C2.53483923,35.2919114 1.76683923,66.9109114 10.7858392,79.3519114 C15.5568392,85.9349114 22.7798392,88.4929114 31.2468392,88.8489114 L31.3888392,112.219911 C35.6348392,113.034911 40.0128392,113.477911 44.4938392,113.488911 C44.7618392,113.487911 45.0288392,113.480911 45.2968392,113.476911 C45.8938392,113.470911 46.4868392,113.451911 47.0798392,113.431911 C50.3338392,113.307911 53.5328392,112.975911 56.6668392,112.446911 C57.1098392,112.368911 57.5548392,112.293911 57.9958392,112.208911 C58.3518392,112.141911 58.7078392,112.074911 59.0618392,112.002911 C76.8948392,108.273911 92.2268392,97.7549114 102.247839,83.2759114 C100.862839,79.4229114 99.6448392,76.4359114 98.7978392,75.1999114" id="Fill-49" fill="#91BFE3"></path>
            </g>
        </g>
    </g>
</svg>