<?xml version="1.0" encoding="UTF-8"?>
<svg width="140px" height="140px" viewBox="0 0 140 140" version="1.1" xmlns="http://www.w3.org/2000/svg" xmlns:xlink="http://www.w3.org/1999/xlink">
    <title>pictogram/dark/people/engagement</title>
    <defs>
        <polygon id="path-1" points="0 0 140 0 140 139.9999 0 139.9999"></polygon>
        <polygon id="path-3" points="0 1.42108547e-14 71.73 1.42108547e-14 71.73 36.3290593 0 36.3290593"></polygon>
    </defs>
    <g id="pictogram/dark/people/engagement" stroke="none" stroke-width="1" fill="none" fill-rule="evenodd">
        <g id="engagement">
            <g id="Group-3">
                <mask id="mask-2" fill="white">
                    <use xlink:href="#path-1"></use>
                </mask>
                <g id="Clip-2"></g>
                <path d="M70,-0.0001 C31.34,-0.0001 0,31.3399 0,69.9999 C0,108.6599 31.34,139.9999 70,139.9999 C108.66,139.9999 140,108.6599 140,69.9999 C140,31.3399 108.66,-0.0001 70,-0.0001" id="Fill-1" fill="#91BFE3" mask="url(#mask-2)"></path>
            </g>
            <g id="Group-25" transform="translate(17.697684, 10.580527)">
                <path d="M109.549316,76.0184727 C108.899316,75.2054727 108.244316,74.5154727 107.585316,73.9124727 C107.522316,73.8524727 107.458316,73.8024727 107.395316,73.7444727 C107.225316,73.5934727 107.054316,73.4374727 106.883316,73.2994727 C105.539316,72.1764727 104.175316,71.4444727 102.797316,70.9574727 C101.705316,70.5734727 100.604316,70.3444727 99.4953158,70.2114727 C98.7413158,70.1204727 97.9833158,70.0714727 97.2223158,70.0464727 C96.2883158,70.0164727 95.3493158,70.0183134 94.4083158,70.0183134 L70.6173158,70.0204727 L68.8993158,70.0183134 C64.6403158,70.0183134 60.4483158,69.9394727 56.4233158,73.2994727 C56.2533158,73.4374727 56.0823158,73.5934727 55.9123158,73.7444727 C55.8493158,73.8024727 55.7853158,73.8524727 55.7223158,73.9124727 C55.0633158,74.5154727 54.4073158,75.2054727 53.7583158,76.0184727 C53.4853158,76.3594727 53.1523158,76.8614727 52.7903158,77.4394727 C51.4733158,79.3614727 49.1363158,85.9664727 46.7773158,93.0914727 L60.7763158,93.0904727 C61.7173158,93.0904727 62.6563158,93.0884727 63.5903158,93.1184727 C64.3503158,93.1434727 65.1093158,93.1924727 65.8633158,93.2834727 C66.9723158,93.4164727 68.0733158,93.6444727 69.1643158,94.0304727 C70.5433158,94.5164727 71.9073158,95.2484727 73.2513158,96.3714727 C73.4223158,96.5104727 73.5933158,96.6654727 73.7633158,96.8164727 C73.8263158,96.8734727 73.8903158,96.9244727 73.9533158,96.9844727 C74.6123158,97.5874727 75.2673158,98.2764727 75.9173158,99.0904727 C76.1903158,99.4324727 76.5233158,99.9324727 76.8843158,100.511473 C78.4983158,102.864473 81.6783158,112.614473 84.5253158,121.530473 C97.9123158,114.567473 108.776316,103.426473 115.349316,89.8094727 C113.414316,84.0024727 111.607316,79.0304727 110.516316,77.4394727 C110.155316,76.8614727 109.822316,76.3594727 109.549316,76.0184727" id="Fill-4" fill="#ECEEEF"></path>
                <g id="Group-8" transform="translate(12.795516, 93.090413)">
                    <mask id="mask-4" fill="white">
                        <use xlink:href="#path-3"></use>
                    </mask>
                    <g id="Clip-7"></g>
                    <path d="M64.089,7.42115935 C63.728,6.84215935 63.395,6.34115935 63.122,6.00015935 C62.472,5.18615935 61.816,4.49715935 61.157,3.89415935 C61.094,3.83415935 61.031,3.78315935 60.967,3.72615935 C60.797,3.57515935 60.627,3.42015935 60.456,3.28115935 C59.111,2.15815935 57.748,1.42515935 56.369,0.940159349 C55.278,0.554159349 54.177,0.326159349 53.068,0.192159349 C52.314,0.102159349 51.555,0.0531593491 50.794,0.0281593491 C49.861,-0.00184065091 48.922,1.42108547e-14 47.981,1.42108547e-14 L33.982,0.00115934909 L24.19,0.00315934909 L22.472,1.42108547e-14 C18.213,1.42108547e-14 14.021,-0.0788406509 9.996,3.28115935 C9.825,3.42015935 9.655,3.57515935 9.485,3.72615935 C9.422,3.78315935 9.357,3.83415935 9.294,3.89415935 C8.635,4.49715935 7.98,5.18615935 7.33,6.00015935 C7.057,6.34115935 6.724,6.84215935 6.363,7.42115935 C4.98,9.43815935 2.476,16.6111593 0,24.1311593 C11.239,31.8231593 24.831,36.3291593 39.478,36.3291593 C46.894,36.3291593 54.035,35.1671593 60.743,33.0301593 C64.561,31.8141593 68.227,30.2621593 71.73,28.4401593 C68.883,19.5241593 65.702,9.77415935 64.089,7.42115935" id="Fill-6" fill="#2167AE" mask="url(#mask-4)"></path>
                </g>
                <path d="M99.8580158,45.9168727 C99.8580158,56.6968727 91.7180158,65.4368727 81.6760158,65.4368727 C71.6340158,65.4368727 63.4940158,56.6968727 63.4940158,45.9168727 C63.4940158,35.1368727 71.6340158,26.3968727 81.6760158,26.3968727 C91.7180158,26.3968727 99.8580158,35.1368727 99.8580158,45.9168727" id="Fill-9" fill="#23366F"></path>
                <path d="M91.7153158,70.0994727 C91.7153158,70.0994727 90.7233158,65.6324727 90.1853158,63.4114727 C89.8493158,62.0254727 90.1463158,60.8654727 91.0853158,59.8774727 C91.9503158,58.9684727 92.7343158,58.0034727 93.2363158,56.7994727 C94.6653158,53.3734727 95.0653158,49.7634727 94.9673158,46.0574727 C94.9543158,45.5664727 94.8533158,45.2514727 94.6103158,45.0664727 C94.4233158,44.9254727 94.1543158,44.8584727 93.7623158,44.8604727 C88.8173158,44.8874727 84.5893158,42.4154727 80.2043158,40.4814727 C75.6003158,38.4504727 69.0203158,41.1344727 68.2903158,45.5794727 C68.2583158,50.8394727 68.4183158,56.0284727 72.2973158,60.0594727 C73.0033158,60.7924727 73.3453158,61.7804727 73.1223158,62.8314727 C72.6063158,65.2644727 71.4563158,70.1004727 71.4563158,70.1004727 C71.4563158,70.1004727 74.2113158,77.2844727 81.6853158,77.2844727 C89.1593158,77.2844727 91.7153158,70.0994727 91.7153158,70.0994727" id="Fill-11" fill="#2167AE"></path>
                <path d="M66.2258158,68.9886727 C66.2258158,79.7686727 58.0858158,88.5086727 48.0438158,88.5086727 C38.0018158,88.5086727 29.8618158,79.7686727 29.8618158,68.9886727 C29.8618158,58.2086727 38.0018158,49.4696727 48.0438158,49.4696727 C58.0858158,49.4696727 66.2258158,58.2086727 66.2258158,68.9886727" id="Fill-13" fill="#23366F"></path>
                <path d="M58.0831158,93.1712727 C58.0831158,93.1712727 57.0911158,88.7042727 56.5531158,86.4832727 C56.2171158,85.0972727 56.5141158,83.9372727 57.4531158,82.9492727 C58.3181158,82.0402727 59.1021158,81.0752727 59.6041158,79.8712727 C61.0331158,76.4452727 61.4331158,72.8362727 61.3351158,69.1292727 C61.3221158,68.6382727 61.2211158,68.3232727 60.9781158,68.1392727 C60.7911158,67.9972727 60.5221158,67.9302727 60.1301158,67.9322727 C55.1851158,67.9592727 50.9571158,65.4872727 46.5721158,63.5532727 C41.9681158,61.5222727 35.3881158,64.2062727 34.6581158,68.6512727 C34.6261158,73.9112727 34.7861158,79.1002727 38.6651158,83.1312727 C39.3711158,83.8642727 39.7131158,84.8532727 39.4901158,85.9032727 C38.9741158,88.3362727 37.8241158,93.1732727 37.8241158,93.1732727 C37.8241158,93.1732727 40.5791158,100.356273 48.0531158,100.356273 C55.5271158,100.356273 58.0831158,93.1712727 58.0831158,93.1712727" id="Fill-15" fill="#DAD2BD"></path>
                <path d="M20.1920158,21.7298727 L2.34201578,32.3318727 C0.070015783,33.6818727 -0.677984217,36.6178727 0.672015783,38.8898727 L6.76201578,49.1438727 C8.11201578,51.4168727 11.0480158,52.1648727 13.3200158,50.8148727 L17.3300158,48.4988727 L21.8410158,50.6148727 C26.3520158,52.7298727 26.3980158,47.9078727 26.3980158,47.9078727 L26.6980158,42.9348727 L31.1700158,40.2128727 C33.4420158,38.8628727 34.1900158,35.9268727 32.8410158,33.6548727 L26.7500158,23.3998727 C25.4000158,21.1278727 22.4640158,20.3798727 20.1920158,21.7298727" id="Fill-17" fill="#2167AE"></path>
                <path d="M22.8664158,30.8973727 C21.6714158,28.8413727 19.0314158,28.1383727 16.9824158,29.3293727 C15.8624158,29.9803727 15.0914158,31.1223727 14.8974158,32.4013727 C13.8754158,31.9953727 12.7564158,31.9943727 11.7314158,32.4003727 C10.6634158,32.8233727 9.82641578,33.6383727 9.37241578,34.6933727 C8.83841578,35.9383727 8.92441578,37.3823727 9.61141578,38.5703727 C10.1504158,39.4353727 10.9744158,40.1013727 11.9074158,40.4343727 C11.9994158,40.4733727 14.8934158,41.3553727 20.4834158,43.0483727 C20.5864158,43.0863727 20.6954158,43.0973727 20.8004158,43.0813727 C20.8564158,43.0713727 20.9124158,43.0553727 20.9654158,43.0303727 C21.1184158,42.9603727 21.2344158,42.8343727 21.2914158,42.6803727 C21.3154158,42.6153727 23.2484158,34.2963727 23.3424158,33.8523727 L23.3434158,33.8533727 C23.5194158,32.8533727 23.3534158,31.8093727 22.8664158,30.8973727" id="Fill-19" fill="#ECEEEF"></path>
                <path d="M63.5456158,1.23327274 L42.2696158,0.00827274254 C39.5616158,-0.147727257 37.2396158,1.92127274 37.0836158,4.63027274 L36.3796158,16.8522727 C36.2246158,19.5612727 38.2936158,21.8822727 41.0016158,22.0392727 L45.7436158,22.3692727 L48.3676158,26.7592727 C50.9906158,31.1492727 53.7996158,27.0722727 53.7996158,27.0722727 L56.9096158,23.0122727 L62.2776158,23.2632727 C64.9856158,23.4192727 67.3076158,21.3502727 67.4636158,18.6422727 L68.1676158,6.41927274 C68.3236158,3.71127274 66.2536158,1.38927274 63.5456158,1.23327274" id="Fill-21" fill="#5495CF"></path>
                <path d="M60.3009158,10.7903727 C60.2729158,9.98037274 59.6249158,9.35537274 58.7179158,9.26837274 L54.2629158,8.89637274 C54.2189158,8.85437274 54.1259158,8.62037274 54.3109158,7.99337274 C54.7519158,6.49737274 54.9229158,5.00537274 54.7469158,4.18137274 C54.6329158,3.28037274 54.0659158,2.77437274 53.1839158,2.78737274 C52.2689158,2.80237274 52.0309158,3.61837274 51.9359158,3.94937274 L51.8999158,4.10837274 C51.0209158,8.00037274 49.6489158,9.03837274 49.6399158,9.04537274 C49.6149158,9.06137274 49.5929158,9.08237274 49.5719158,9.10337274 C48.2989158,10.4563727 45.1749158,10.3693727 45.1429158,10.3683727 C44.9169158,10.3603727 44.7249158,10.5313727 44.7059158,10.7563727 L44.2469158,16.2513727 C44.2299158,16.4553727 44.3609158,16.6413727 44.5569158,16.6953727 C44.5959158,16.7063727 48.4929158,17.7783727 49.4949158,18.1253727 C49.5759158,18.1543727 50.7819158,18.5673727 52.5519158,18.7153727 C53.6989158,18.8113727 55.0829158,18.7953727 56.5509158,18.4913727 C56.8679158,18.4473727 58.1339158,18.0213727 58.0649158,16.8603727 C58.0519158,16.6503727 57.9999158,16.4483727 57.9129158,16.2633727 C58.0659158,16.1833727 58.2059158,16.0763727 58.3269158,15.9463727 C58.6139158,15.6403727 58.7639158,15.2403727 58.7499158,14.8213727 C58.7429158,14.6233727 58.6979158,14.4303727 58.6189158,14.2513727 C58.7919158,14.1683727 58.9489158,14.0533727 59.0839158,13.9093727 C59.3709158,13.6033727 59.5209158,13.2033727 59.5069158,12.7833727 C59.4999158,12.6023727 59.4639158,12.4283727 59.3999158,12.2643727 C59.5779158,12.1803727 59.7399158,12.0633727 59.8789158,11.9153727 C60.1659158,11.6083727 60.3149158,11.2093727 60.3009158,10.7903727" id="Fill-23" fill="#DAD2BD"></path>
            </g>
        </g>
    </g>
</svg>