<?xml version="1.0" encoding="UTF-8"?>
<svg width="140px" height="140px" viewBox="0 0 140 140" version="1.1" xmlns="http://www.w3.org/2000/svg" xmlns:xlink="http://www.w3.org/1999/xlink">
    <title>pictogram/dark/people/podium</title>
    <defs>
        <polygon id="path-1" points="0 0 140 0 140 139.9998 0 139.9998"></polygon>
        <polygon id="path-3" points="0 0 77.656 0 77.656 43.7246 0 43.7246"></polygon>
    </defs>
    <g id="pictogram/dark/people/podium" stroke="none" stroke-width="1" fill="none" fill-rule="evenodd">
        <g id="podium">
            <g id="Group-3">
                <mask id="mask-2" fill="white">
                    <use xlink:href="#path-1"></use>
                </mask>
                <g id="Clip-2"></g>
                <path d="M140,69.9998 C140,108.6598 108.66,139.9998 70,139.9998 C31.34,139.9998 0,108.6598 0,69.9998 C0,31.3398 31.34,-0.0002 70,-0.0002 C108.66,-0.0002 140,31.3398 140,69.9998" id="Fill-1" fill="#91BFE3" mask="url(#mask-2)"></path>
            </g>
            <g id="Group-19" transform="translate(23.266100, 21.165000)">
                <path d="M73.7475,46.4395 C73.1395,45.6785 72.5265,45.0325 71.9095,44.4685 C71.8505,44.4125 71.7905,44.3655 71.7315,44.3115 C71.5725,44.1705 71.4125,44.0245 71.2525,43.8945 C69.9945,42.8435 68.7185,42.1585 67.4285,41.7035 C66.4065,41.3425 65.3765,41.1295 64.3385,41.0045 C63.6325,40.9195 62.9225,40.8735 62.2105,40.8505 C61.3365,40.8215 60.4585,40.8243446 59.5775,40.8243446 L46.4755,40.8255 L37.3115,40.8265 L35.7035,40.8243446 C31.7185,40.8243446 27.7945,40.7495 24.0285,43.8945 C23.8685,44.0245 23.7085,44.1705 23.5495,44.3115 C23.4905,44.3655 23.4305,44.4125 23.3715,44.4685 C22.7545,45.0325 22.1415,45.6785 21.5335,46.4395 C21.2775,46.7595 20.9665,47.2275 20.6275,47.7695 C19.5115,49.3985 14.7695,69.2765 12.7815,75.2005 C20.8425,82.3895 31.2495,87.0625 42.8365,87.8415 C57.1295,88.8035 70.4415,83.6575 80.2405,74.6555 C78.1745,68.3505 75.8025,49.4465 74.6525,47.7695 C74.3145,47.2275 74.0025,46.7595 73.7475,46.4395" id="Fill-4" fill="#DAD2BD"></path>
                <path d="M64.6776,18.268 C64.6776,28.357 57.0596,36.536 47.6616,36.536 C38.2636,36.536 30.6446,28.357 30.6446,18.268 C30.6446,8.179 38.2636,0 47.6616,0 C57.0596,0 64.6776,8.179 64.6776,18.268" id="Fill-6" fill="#23366F"></path>
                <path d="M57.057,40.9001 C57.057,40.9001 56.129,36.7201 55.625,34.6401 C55.311,33.3441 55.589,32.2581 56.468,31.3331 C57.277,30.4821 58.011,29.5791 58.481,28.4521 C59.818,25.2461 60.192,21.8681 60.101,18.3991 C60.088,17.9401 59.994,17.6451 59.766,17.4721 C59.591,17.3401 59.339,17.2771 58.972,17.2791 C54.345,17.3051 50.388,14.9911 46.284,13.1811 C41.975,11.2801 35.817,13.7921 35.134,17.9521 C35.104,22.8741 35.254,27.7311 38.884,31.5041 C39.545,32.1901 39.865,33.1151 39.656,34.0981 C39.173,36.3741 38.097,40.9011 38.097,40.9011 C38.097,40.9011 40.676,47.6241 47.67,47.6241 C54.665,47.6241 57.057,40.9001 57.057,40.9001" id="Fill-8" fill="#5495CF"></path>
                <path d="M46.9568,82.2399 C46.2668,82.2399 45.7068,81.6799 45.7068,80.9899 L45.7068,61.6329 C45.7068,60.9429 46.2668,60.3829 46.9568,60.3829 C47.6468,60.3829 48.2068,60.9429 48.2068,61.6329 L48.2068,80.9899 C48.2068,81.6799 47.6468,82.2399 46.9568,82.2399" id="Fill-10" fill="#5495CF"></path>
                <g id="Group-14" transform="translate(8.141800, 75.110400)">
                    <mask id="mask-4" fill="white">
                        <use xlink:href="#path-3"></use>
                    </mask>
                    <g id="Clip-13"></g>
                    <path d="M77.656,0 L21.554,0 L0,0 L2.05,14.515 C2.048,14.613 2.035,14.709 2.035,14.808 L3.171,22.45 L3.175,22.477 L5.064,35.183 C15.021,40.626 26.444,43.725 38.592,43.725 C50.824,43.725 62.319,40.58 72.324,35.065 L74.655,18.357 L77.656,0 Z" id="Fill-12" fill="#2167AE" mask="url(#mask-4)"></path>
                </g>
                <path d="M46.9561,66.5396 C44.4711,66.5396 42.4561,64.5246 42.4561,62.0396 L42.4561,54.6356 C42.4561,52.1496 44.4711,50.1356 46.9561,50.1356 C49.4411,50.1356 51.4561,52.1496 51.4561,54.6356 L51.4561,62.0396 C51.4561,64.5246 49.4411,66.5396 46.9561,66.5396" id="Fill-15" fill="#2167AE"></path>
                <path d="M91.218,75.7746 L2.25,75.7746 C1.007,75.7746 7.10542736e-15,74.7676 7.10542736e-15,73.5246 C7.10542736e-15,72.2816 1.007,71.2746 2.25,71.2746 L91.218,71.2746 C92.461,71.2746 93.468,72.2816 93.468,73.5246 C93.468,74.7676 92.461,75.7746 91.218,75.7746" id="Fill-17" fill="#5495CF"></path>
            </g>
        </g>
    </g>
</svg>