<?xml version="1.0" encoding="UTF-8"?>
<svg width="140px" height="140px" viewBox="0 0 140 140" version="1.1" xmlns="http://www.w3.org/2000/svg" xmlns:xlink="http://www.w3.org/1999/xlink">
    <title>pictogram/dark/communication/bag</title>
    <g id="pictogram/dark/communication/bag" stroke="none" stroke-width="1" fill="none" fill-rule="evenodd">
        <g id="bag">
            <path d="M140,70 C140,108.66 108.66,140 70,140 C31.34,140 0,108.66 0,70 C0,31.34 31.34,0 70,0 C108.66,0 140,31.34 140,70" id="circle" fill="#91BFE3"></path>
            <g id="picto" transform="translate(28.489000, 30.749700)">
                <path d="M58.807,27.674 L24.215,27.674 L24.215,24.215 C24.215,14.662 31.959,6.919 41.511,6.919 C51.063,6.919 58.807,14.662 58.807,24.215 L58.807,27.674 Z M76.103,27.674 L65.725,27.674 L65.725,24.215 C65.725,10.841 54.884,0 41.511,0 C28.138,0 17.296,10.841 17.296,24.215 L17.296,27.674 L6.919,27.674 C3.098,27.674 7.10542736e-15,30.771 7.10542736e-15,34.593 L7.10542736e-15,95.608 C11.616,104.178 25.969,109.25 41.511,109.25 C57.053,109.25 71.406,104.178 83.022,95.608 L83.022,34.593 C83.022,30.771 79.924,27.674 76.103,27.674 L76.103,27.674 Z" id="Fill-4" fill="#DAD2BD"></path>
                <path d="M48.8192,79.3954 C47.7082,80.2144 46.5002,80.6034 45.0582,80.6424 L44.8432,80.6424 C43.7712,80.6424 42.9532,80.5454 40.4002,80.1554 C37.8082,79.7464 36.4832,79.6094 35.1772,79.6094 C34.3002,79.6094 33.4812,79.6684 32.6432,79.8044 C31.5322,79.9804 31.0842,80.1164 30.0712,80.5644 C32.8972,83.6634 36.9892,85.5934 41.5112,85.5934 C50.0862,85.5934 57.0242388,78.6354 57.0242388,70.0804 C57.0432,61.5634 50.0862,54.6254 41.5112,54.6254 C32.9552,54.6254 25.9982,61.5634 25.9982,70.1384 C25.9982,73.6854 27.1862,76.9394 29.1742,79.5514 L42.0762,62.5964 L40.6922,62.5964 L39.3092,62.5964 C37.8272,62.5964 36.4632,62.6934 35.4502,62.8884 C34.8452,63.0054 34.3002,63.2194 33.8712,63.5314 C33.3642,63.9024 32.7022,64.6624 32.2932,65.4024 C32.2532,65.4804 32.1762,65.6174 32.0782,65.8124 L31.3182,65.6364 L32.5852,60.7644 L48.7412,60.7644 L35.8982,77.9334 C36.7362,77.8554 37.0672,77.8364 37.7492,77.8364 C38.2752,77.8364 39.0552,77.8754 40.1272,77.9334 L42.4072,78.0704 C43.2262,78.1094 43.9272,78.1484 44.4532,78.1484 C45.6232,78.1484 46.4022,78.0504 47.1632,77.8174 C47.7472,77.6414 48.3122,77.3684 48.8192,77.0174 C49.7152,76.3944 50.5922,75.4004 51.1192,74.3874 C51.1772,74.2894 51.2552,74.1334 51.3522,73.9194 L52.0342,74.0944 C51.8202,74.9524 51.7032,75.2644 51.3522,76.0244 C50.6702,77.5634 49.8912,78.5964 48.8192,79.3954" id="Fill-6" fill="#2167AE"></path>
            </g>
        </g>
    </g>
</svg>