<?xml version="1.0" encoding="UTF-8"?>
<svg width="140px" height="140px" viewBox="0 0 140 140" version="1.1" xmlns="http://www.w3.org/2000/svg" xmlns:xlink="http://www.w3.org/1999/xlink">
    <title>pictogram/dark/communication/call</title>
    <g id="pictogram/dark/communication/call" stroke="none" stroke-width="1" fill="none" fill-rule="evenodd">
        <g id="call">
            <path d="M140,70 C140,108.66 108.66,140 70,140 C31.34,140 0,108.66 0,70 C0,31.34 31.34,0 70,0 C108.66,0 140,31.34 140,70" id="circle" fill="#91BFE3"></path>
            <g id="picto" transform="translate(26.115327, 25.881199)">
                <path d="M80.4942727,61.9667014 C72.2772727,61.7177014 65.3372727,59.7607014 57.2872727,55.4227014 C56.8412727,55.1817014 56.2932727,55.2357014 55.9012727,55.5577014 L45.3522727,64.2317014 C45.3212727,64.2567014 45.2912727,64.2827014 45.2632727,64.3117014 C45.1032727,64.4707014 44.8612727,64.4967014 44.6712727,64.3757014 C36.2622727,58.9837014 29.2522727,51.9897014 23.8372727,43.5907014 C23.7222727,43.4127014 23.7412727,43.1777014 23.9162727,42.9867014 C24.0362727,42.8667014 24.1362727,42.7377014 25.0992727,41.4407014 C26.8492727,39.0847014 30.4912727,34.1827014 32.2462727,32.4257014 C32.6372727,32.0357014 32.7242727,31.4357014 32.4632727,30.9497014 C28.3852727,23.3817014 26.5322727,16.4407014 26.2672727,7.74270144 C26.2472727,7.06770144 25.6932727,6.53070144 25.0182727,6.53070144 L1.25027271,6.53070144 C0.913272712,6.53070144 0.592272712,6.66570144 0.356272712,6.90570144 C0.121272712,7.14670144 -0.00672728787,7.47070144 0,7.80670144 C0.445272712,29.0587014 8.99827271,49.0697014 24.0832727,64.1547014 C39.1672727,79.2387014 59.1792727,87.7917014 80.4312727,88.2377014 C80.4392727,88.2377014 80.4482727,88.2377014 80.4562727,88.2377014 C80.7832727,88.2377014 81.0972727,88.1097014 81.3312727,87.8807014 C81.5712727,87.6457014 81.7062727,87.3237014 81.7062727,86.9877014 L81.7062727,63.2167014 C81.7062727,62.5407014 81.1702727,61.9877014 80.4942727,61.9667014" id="Fill-3" fill="#2167AE"></path>
                <path d="M70.3354727,37.6856014 C70.1434727,37.6856014 69.9484727,37.6606014 69.7534727,37.6086014 C68.5534727,37.2886014 67.8394727,36.0556014 68.1604727,34.8546014 C69.3034727,30.5706014 68.0684727,25.9636014 64.9374727,22.8326014 C61.8054727,19.7016014 57.1994727,18.4666014 52.9144727,19.6096014 C51.7144727,19.9296014 50.4814727,19.2166014 50.1604727,18.0156014 C49.8404727,16.8156014 50.5534727,15.5826014 51.7544727,15.2616014 C57.5854727,13.7056014 63.8564727,15.3876014 68.1194727,19.6506014 C72.3824727,23.9136014 74.0644727,30.1846014 72.5074727,36.0156014 C72.2394727,37.0216014 71.3294727,37.6856014 70.3354727,37.6856014" id="Fill-5" fill="#DAD2BD"></path>
                <path d="M84.5311727,41.4908014 C84.3391727,41.4908014 84.1441727,41.4658014 83.9491727,41.4138014 C82.7491727,41.0938014 82.0351727,39.8608014 82.3561727,38.6598014 C84.8501727,29.3178014 82.1571727,19.2708014 75.3281727,12.4418014 C68.4981727,5.61280144 58.4521727,2.91980144 49.1101727,5.41380144 C47.9091727,5.73380144 46.6761727,5.02080144 46.3551727,3.81980144 C46.0351727,2.61980144 46.7481727,1.38680144 47.9491727,1.06580144 C58.8381727,-1.84119856 70.5481727,1.29880144 78.5101727,9.25980144 C86.4711727,17.2208014 89.6101727,28.9318014 86.7031727,39.8208014 C86.4351727,40.8268014 85.5251727,41.4908014 84.5311727,41.4908014" id="Fill-7" fill="#DAD2BD"></path>
            </g>
        </g>
    </g>
</svg>