<?xml version="1.0" encoding="UTF-8"?>
<svg width="140px" height="140px" viewBox="0 0 140 140" version="1.1" xmlns="http://www.w3.org/2000/svg" xmlns:xlink="http://www.w3.org/1999/xlink">
    <title>pictogram/dark/communication/news &amp; media</title>
    <g id="pictogram/dark/communication/news-&amp;-media" stroke="none" stroke-width="1" fill="none" fill-rule="evenodd">
        <g id="news-&amp;-media" transform="translate(-0.000200, 0.000000)">
            <path d="M140,70 C140,108.66 108.66,140 70,140 C31.34,140 0,108.66 0,70 C0,31.34 31.34,0 70,0 C108.66,0 140,31.34 140,70" id="circle" fill="#91BFE3"></path>
            <g id="picto" transform="translate(22.019300, 35.118200)">
                <path d="M1.739,66.304 C2.74,67.254 4.116,67.843 5.635,67.843 C8.688,67.843 11.172,65.465 11.172,62.541 L11.172,35.439 C11.172,26.849 18.372,19.861 27.221,19.861 L72.053,19.866 C71.786,19.848 71.52,19.825 71.248,19.825 L76.323,22.156 L76.323,11.598 C76.323,5.203 71.121,0 64.725,0 L11.598,0.019 C5.202,0.019 0,5.222 0,11.618 L0,61.243 C0,61.564 0.023,61.879 0.058,62.191 C0.063,62.212 0.065,62.234 0.068,62.255 C0.254,63.769 0.849,65.155 1.739,66.304" id="Fill-6" fill="#2167AE"></path>
                <path d="M82.6487,29.348 C81.7127,24.2 77.3747,20.235 72.0537,19.866 L27.2207,19.861 C18.3717,19.861 11.1717,26.849 11.1717,35.439 L11.1717,62.541 C11.1717,65.465 8.6887,67.843 5.6347,67.843 C4.1167,67.843 2.7397,67.254 1.7387,66.304 C3.2557,68.264 5.6247,69.533 8.2897,69.533 L10.7857,69.533 L71.2477,69.533 C77.6427,69.533 82.8447,64.33 82.8447,57.935 L82.8447,31.424 C82.8447,30.714 82.7717,30.023 82.6487,29.348" id="Fill-8" fill="#5495CF"></path>
                <path d="M36.6691,33.1165 L20.1561,33.1165 C19.2411,33.1165 18.4991,33.8585 18.4991,34.7735 L18.4991,54.6235 C18.4991,55.5385 19.2411,56.2805 20.1561,56.2805 L36.6691,56.2805 C37.5851,56.2805 38.3261,55.5385 38.3261,54.6235 L38.3261,34.7735 C38.3261,33.8585 37.5851,33.1165 36.6691,33.1165" id="Fill-10" fill="#91BFE3"></path>
                <path d="M72.862,36.4833 L48.215,36.4833 C47.253,36.4833 46.472,35.7023 46.472,34.7413 C46.472,33.7793 47.253,32.9983 48.215,32.9983 L72.862,32.9983 C73.824,32.9983 74.605,33.7793 74.605,34.7413 C74.605,35.7023 73.824,36.4833 72.862,36.4833" id="Fill-12" fill="#91BFE3"></path>
                <path d="M72.862,56.3662 L48.215,56.3662 C47.253,56.3662 46.472,55.5852 46.472,54.6242 C46.472,53.6622 47.253,52.8812 48.215,52.8812 L72.862,52.8812 C73.824,52.8812 74.605,53.6622 74.605,54.6242 C74.605,55.5852 73.824,56.3662 72.862,56.3662" id="Fill-14" fill="#91BFE3"></path>
                <path d="M72.862,46.4416 L48.215,46.4416 C47.253,46.4416 46.472,45.6606 46.472,44.6996 C46.472,43.7376 47.253,42.9566 48.215,42.9566 L72.862,42.9566 C73.824,42.9566 74.605,43.7376 74.605,44.6996 C74.605,45.6606 73.824,46.4416 72.862,46.4416" id="Fill-16" fill="#91BFE3"></path>
                <path d="M95.0647,33.6925 C88.2257,37.2145 79.8167,34.5075 76.2847,27.6475 C72.7517,20.7865 75.4327,12.3705 82.2727,8.8485 C89.1117,5.3265 97.5197,8.0335 101.0527,14.8945 C104.5857,21.7545 101.9047,30.1705 95.0647,33.6925" id="Fill-18" fill="#DAD2BD"></path>
                <path d="M91.1745,44.8587 L72.6965,38.8407 C70.6505,38.1747 69.5295,35.9787 70.1895,33.9297 L71.8515,28.7147 C72.5145,26.6577 74.7215,25.5297 76.7775,26.1997 L95.2545,32.2177 C97.3005,32.8847 98.4225,35.0807 97.7615,37.1287 L96.1005,42.3437 C95.4375,44.4007 93.2295,45.5277 91.1745,44.8587" id="Fill-20" fill="#ECEEEF"></path>
                <path d="M80.9944,64.7171 L89.0834,44.2071 L74.7244,39.5051 L68.9554,60.2631 C68.9424,60.2571 68.9284,60.2521 68.9144,60.2461 L65.7244,72.0921 C65.6814,72.2351 65.6404,72.3781 65.6094,72.5211 L65.6054,72.5341 L65.6064,72.5341 C64.9944,75.4001 66.6304,78.3251 69.4774,79.2581 C72.5244,80.2561 75.8034,78.5941 76.8014,75.5481 C76.8264,75.4701 76.8434,75.3911 76.8654,75.3131 L80.9944,64.7171 C81.0234,64.7241 80.9654,64.7101 80.9944,64.7171" id="Fill-22" fill="#2167AE"></path>
            </g>
        </g>
    </g>
</svg>