<?xml version="1.0" encoding="UTF-8"?>
<svg width="140px" height="140px" viewBox="0 0 140 140" version="1.1" xmlns="http://www.w3.org/2000/svg" xmlns:xlink="http://www.w3.org/1999/xlink">
    <title>pictogram/dark/communication/notification</title>
    <g id="pictogram/dark/communication/notification" stroke="none" stroke-width="1" fill="none" fill-rule="evenodd">
        <g id="notification" transform="translate(-0.000100, 0.000000)">
            <path d="M140,70 C140,108.66 108.66,140 70,140 C31.34,140 0,108.66 0,70 C0,31.34 31.34,0 70,0 C108.66,0 140,31.34 140,70" id="circle" fill="#91BFE3"></path>
            <g id="picto" transform="translate(21.240721, 26.052196)">
                <path d="M49.045079,40.0414038 C46.546079,40.0414038 44.520079,38.0164038 44.520079,35.5164038 L44.520079,18.3174038 C44.520079,15.8174038 46.546079,13.7924038 49.045079,13.7924038 C51.544079,13.7924038 53.570079,15.8174038 53.570079,18.3174038 L53.570079,35.5164038 C53.570079,38.0164038 51.544079,40.0414038 49.045079,40.0414038" id="Fill-4" fill="#2167AE"></path>
                <path d="M49.044779,65.5412038 C42.881779,65.5412038 37.866779,70.5552038 37.866779,76.7182038 C37.866779,82.8802038 42.881779,87.8952038 49.044779,87.8952038 C55.207779,87.8952038 60.222779,82.8802038 60.222779,76.7182038 C60.222779,70.5552038 55.207779,65.5412038 49.044779,65.5412038" id="Fill-6" fill="#2167AE"></path>
                <path d="M79.586879,59.9155038 C77.621879,59.9155038 76.023879,58.3585038 76.023879,56.4445038 L76.023879,46.4485038 C76.023879,31.0815038 64.685879,19.9295038 49.064879,19.9295038 C33.674879,19.9295038 22.069879,31.3225038 22.069879,46.4315038 L22.069879,56.4255038 C22.069879,58.3505038 20.469879,59.9155038 18.502879,59.9155038 C17.658879,59.9155038 16.975879,60.5995038 16.975879,61.4425038 L16.975879,76.4325038 C16.975879,77.2755038 17.658879,77.9595038 18.502879,77.9595038 L79.586879,77.9595038 C80.429879,77.9595038 81.113879,77.2755038 81.113879,76.4325038 L81.113879,61.4425038 C81.113879,60.5995038 80.429879,59.9155038 79.586879,59.9155038" id="Fill-8" fill="#5495CF"></path>
                <path d="M14.861879,31.1385038 C14.685879,31.1385038 14.507879,31.1175038 14.329879,31.0745038 C13.121879,30.7815038 12.380879,29.5655038 12.673879,28.3575038 C15.648879,16.0825038 24.558879,11.9145038 24.936879,11.7435038 C26.067879,11.2295038 27.401879,11.7315038 27.914879,12.8625038 C28.426879,13.9915038 27.930879,15.3205038 26.805879,15.8365038 C26.482879,15.9885038 19.479879,19.3795038 17.046879,29.4185038 C16.796879,30.4475038 15.875879,31.1385038 14.861879,31.1385038" id="Fill-10" fill="#DAD2BD"></path>
                <path d="M2.25327898,29.7275038 C2.13127898,29.7275038 2.00827898,29.7175038 1.88427898,29.6975038 C0.658278976,29.4945038 -0.171721024,28.3365038 0.0302789759,27.1105038 C3.33627898,7.09750385 20.599279,0.418503846 21.332279,0.143503846 C22.496279,-0.292496154 23.792279,0.298503846 24.228279,1.46250385 C24.663279,2.62450385 24.075279,3.91950385 22.914279,4.35650385 C22.269279,4.60150385 7.34127898,10.4645038 4.47027898,27.8435038 C4.28827898,28.9455038 3.33427898,29.7275038 2.25327898,29.7275038" id="Fill-12" fill="#DAD2BD"></path>
                <path d="M82.656779,31.1385038 C81.641779,31.1385038 80.721779,30.4475038 80.471779,29.4185038 C78.033779,19.3605038 71.008779,15.9755038 70.711779,15.8365038 C69.589779,15.3125038 69.096779,13.9785038 69.614779,12.8535038 C70.131779,11.7295038 71.454779,11.2325038 72.581779,11.7435038 C72.959779,11.9145038 81.869779,16.0825038 84.844779,28.3575038 C85.137779,29.5655038 84.396779,30.7815038 83.188779,31.0745038 C83.010779,31.1175038 82.832779,31.1385038 82.656779,31.1385038" id="Fill-14" fill="#DAD2BD"></path>
                <path d="M95.265479,29.7275038 C94.184479,29.7275038 93.230479,28.9455038 93.048479,27.8435038 C90.161479,10.3715038 74.763479,4.41650385 74.608479,4.35850385 C73.444479,3.92250385 72.854479,2.62550385 73.290479,1.46250385 C73.726479,0.298503846 75.022479,-0.291496154 76.186479,0.143503846 C76.919479,0.418503846 94.182479,7.09750385 97.488479,27.1105038 C97.690479,28.3365038 96.860479,29.4945038 95.634479,29.6975038 C95.510479,29.7175038 95.387479,29.7275038 95.265479,29.7275038" id="Fill-16" fill="#DAD2BD"></path>
            </g>
        </g>
    </g>
</svg>