<?xml version="1.0" encoding="UTF-8"?>
<svg width="140px" height="140px" viewBox="0 0 140 140" version="1.1" xmlns="http://www.w3.org/2000/svg" xmlns:xlink="http://www.w3.org/1999/xlink">
    <title>pictogram/dark/communication/opening-hours</title>
    <g id="pictogram/dark/communication/opening-hours" stroke="none" stroke-width="1" fill="none" fill-rule="evenodd">
        <g id="opening-hours-" transform="translate(-0.000100, 0.000000)">
            <path d="M140,70 C140,108.66 108.66,140 70,140 C31.34,140 0,108.66 0,70 C0,31.34 31.34,0 70,0 C108.66,0 140,31.34 140,70" id="circle" fill="#91BFE3"></path>
            <g id="picto" transform="translate(23.425300, 53.800100)" fill="#2167AE">
                <path d="M0.271,32.4 L0.271,27.855 L12.646,17.505 C13.725,16.576 14.587,15.78 15.233,15.12 C15.877,14.461 16.425,13.703 16.875,12.847 C17.326,11.993 17.55,11.055 17.55,10.035 C17.55,8.385 17.01,7.065 15.93,6.075 C14.85,5.085 13.411,4.59 11.611,4.59 C9.361,4.59 7.741,5.258 6.75,6.592 C5.76,7.927 5.265,9.54 5.265,11.43 L3.55271368e-15,11.43 C3.55271368e-15,9.45 0.398,7.598 1.193,5.873 C1.988,4.148 3.248,2.738 4.973,1.642 C6.698,0.547 8.895,0 11.566,0 C13.786,0 15.743,0.413 17.438,1.238 C19.132,2.063 20.445,3.225 21.375,4.725 C22.305,6.225 22.771,7.83 22.771,9.54 C22.771,11.55 22.5,13.238 21.96,14.602 C21.42,15.968 20.625,17.123 19.576,18.068 C18.525,19.012 17.25,20.115 15.75,21.375 L8.01,27.855 L22.861,27.855 L22.861,32.4 L0.271,32.4 Z" id="Fill-4"></path>
                <path d="M31.5904,20.565 L40.9494,20.565 L40.9494,8.28 L31.5904,20.565 Z M40.9494,32.4 L40.9494,25.11 L26.0104,25.11 L26.0104,20.97 L41.4454,0.72 L46.0804,0.72 L46.0804,20.565 L50.6254,20.565 L50.6254,25.11 L46.0804,25.11 L46.0804,32.4 L40.9494,32.4 Z" id="Fill-6"></path>
                <polygon id="Fill-8" points="52.1099 32.4 63.5849 0.72 68.5799 0.72 57.1049 32.4"></polygon>
                <polygon id="Fill-10" points="76.0035 32.4 87.8385 5.265 70.4235 5.265 70.4235 0.72 93.1495 0.72 93.1495 5.265 81.2695 32.4"></polygon>
            </g>
        </g>
    </g>
</svg>