<?xml version="1.0" encoding="UTF-8"?>
<svg width="140px" height="140px" viewBox="0 0 140 140" version="1.1" xmlns="http://www.w3.org/2000/svg" xmlns:xlink="http://www.w3.org/1999/xlink">
    <title>pictogram/dark/communication/talk</title>
    <g id="pictogram/dark/communication/talk" stroke="none" stroke-width="1" fill="none" fill-rule="evenodd">
        <g id="talk">
            <path d="M140,70 C140,108.66 108.66,140 70,140 C31.34,140 0,108.66 0,70 C0,31.34 31.34,0 70,0 C108.66,0 140,31.34 140,70" id="circle" fill="#91BFE3"></path>
            <g id="picto" transform="translate(25.351600, 38.532000)">
                <path d="M108.818,59.444 C112.56,50.874 114.648,41.417 114.648,31.468 C114.648,20.147 111.944,9.463 107.172,0 L11.724,0 C5.281,0 7.10542736e-15,5.272 7.10542736e-15,11.725 L7.10542736e-15,47.72 C7.10542736e-15,54.172 5.281,59.444 11.724,59.444 L58.045,59.444 C62.699,63.317 71.599,70.766 75.546,74.36 C81.014,79.338 80.458,74.36 80.458,74.36 L80.458,59.444 L108.818,59.444 Z" id="Fill-3" fill="#2167AE"></path>
                <path d="M98.1962,17.9176 L13.4362,17.9176 C12.1932,17.9176 11.1862,16.9106 11.1862,15.6676 C11.1862,14.4246 12.1932,13.4176 13.4362,13.4176 L98.1962,13.4176 C99.4392,13.4176 100.4462,14.4246 100.4462,15.6676 C100.4462,16.9106 99.4392,17.9176 98.1962,17.9176" id="Fill-5" fill="#DAD2BD"></path>
                <path d="M98.1172,32.0944 L13.3572,32.0944 C12.1142,32.0944 11.1072,31.0874 11.1072,29.8444 C11.1072,28.6014 12.1142,27.5944 13.3572,27.5944 L98.1172,27.5944 C99.3602,27.5944 100.3672,28.6014 100.3672,29.8444 C100.3672,31.0874 99.3602,32.0944 98.1172,32.0944" id="Fill-7" fill="#DAD2BD"></path>
                <path d="M51.3045,46.2711 L13.3575,46.2711 C12.1145,46.2711 11.1075,45.2641 11.1075,44.0211 C11.1075,42.7781 12.1145,41.7711 13.3575,41.7711 L51.3045,41.7711 C52.5475,41.7711 53.5545,42.7781 53.5545,44.0211 C53.5545,45.2641 52.5475,46.2711 51.3045,46.2711" id="Fill-9" fill="#DAD2BD"></path>
            </g>
        </g>
    </g>
</svg>