<?xml version="1.0" encoding="UTF-8"?>
<svg width="140px" height="140px" viewBox="0 0 140 140" version="1.1" xmlns="http://www.w3.org/2000/svg" xmlns:xlink="http://www.w3.org/1999/xlink">
    <title>pictogram/dark/finance/chart/bar/check</title>
    <g id="pictogram/dark/finance/chart/bar/check" stroke="none" stroke-width="1" fill="none" fill-rule="evenodd">
        <g id="chart-bar-check" transform="translate(-0.000200, 0.000000)">
            <path d="M140,70 C140,108.66 108.66,140 70,140 C31.34,140 0,108.66 0,70 C0,31.34 31.34,0 70,0 C108.66,0 140,31.34 140,70" id="circle" fill="#91BFE3"></path>
            <g id="picto" transform="translate(31.938500, 30.976911)">
                <g id="Group-12" fill="#5495CF">
                    <path d="M6,9.88888857 L7,9.88888857 C10.313,9.88888857 13,12.5748886 13,15.8888886 L13,48.6558886 C13,51.9698886 10.313,54.6558886 7,54.6558886 L6,54.6558886 C2.686,54.6558886 -7.10542736e-15,51.9698886 -7.10542736e-15,48.6558886 L-7.10542736e-15,15.8888886 C-7.10542736e-15,12.5748886 2.686,9.88888857 6,9.88888857" id="Fill-4"></path>
                    <path d="M42.8994,19.8837886 L43.8994,19.8837886 C47.2124,19.8837886 49.8994,22.5697886 49.8994,25.8837886 L49.8994,48.6567886 C49.8994,51.9697886 47.2124,54.6567886 43.8994,54.6567886 L42.8994,54.6567886 C39.5854,54.6567886 36.8994,51.9697886 36.8994,48.6567886 L36.8994,25.8837886 C36.8994,22.5697886 39.5854,19.8837886 42.8994,19.8837886" id="Fill-6"></path>
                    <path d="M61.3486,6.96528857 L62.3486,6.96528857 C65.6626,6.96528857 68.3486,9.65128857 68.3486,12.9652886 L68.3486,48.9432886 C68.3486,52.2562886 65.6626,54.9432886 62.3486,54.9432886 L61.3486,54.9432886 C58.0356,54.9432886 55.3486,52.2562886 55.3486,48.9432886 L55.3486,12.9652886 C55.3486,9.65128857 58.0356,6.96528857 61.3486,6.96528857" id="Fill-8"></path>
                    <path d="M24.4004,0.00818856675 L25.4004,0 C28.7134,-0.0258114333 31.4214,2.64018857 31.4474,5.95318857 L31.4494,48.6061886 C31.4744,51.9201886 28.8094,54.6271886 25.4964,54.6531886 L24.4964,54.6603772 C21.1824,54.6861886 18.4754,52.0211886 18.4494,48.7071886 L18.4474,6.05518857 C18.4214,2.74118857 21.0874,0.0341885667 24.4004,0.00818856675" id="Fill-10"></path>
                </g>
                <path d="M61.3076,42.0643886 C73.4576,42.0643886 83.3076,51.9143886 83.3076,64.0643886 C83.3076,76.2143886 73.4576,86.0643886 61.3076,86.0643886 C49.1576,86.0643886 39.3076,76.2143886 39.3076,64.0643886 C39.3076,51.9143886 49.1576,42.0643886 61.3076,42.0643886" id="Fill-13" fill="#2167AE"></path>
                <path d="M58.8505,75.1688886 C58.2545,75.1688886 57.6825,74.9328886 57.2595,74.5098886 L49.8895,67.1398886 C49.0105,66.2608886 49.0105,64.8368886 49.8895,63.9578886 C50.7685,63.0788886 52.1925,63.0788886 53.0715,63.9578886 L58.7005,69.5868886 L69.4065,56.7508886 C70.2015,55.7958886 71.6205,55.6688886 72.5755,56.4638886 C73.5295,57.2598886 73.6575,58.6788886 72.8615,59.6328886 L60.5785,74.3598886 C60.1735,74.8458886 59.5825,75.1378886 58.9525,75.1668886 C58.9175,75.1678886 58.8835,75.1688886 58.8505,75.1688886" id="Fill-15" fill="#DAD2BD"></path>
            </g>
        </g>
    </g>
</svg>