<?xml version="1.0" encoding="UTF-8"?>
<svg width="140px" height="140px" viewBox="0 0 140 140" version="1.1" xmlns="http://www.w3.org/2000/svg" xmlns:xlink="http://www.w3.org/1999/xlink">
    <title>pictogram/light/health/mental/illbeing</title>
    <g id="pictogram/light/health/mental/illbeing" stroke="none" stroke-width="1" fill="none" fill-rule="evenodd">
        <g id="mental-illbeing">
            <path d="M70,0 C31.34,0 0,31.34 0,70 C0,108.66 31.34,140 70,140 C108.66,140 140,108.66 140,70 C140,31.34 108.66,0 70,0" id="circle" fill="#DDE4E3"></path>
            <g id="picto" transform="translate(20.489700, 23.118787)">
                <path d="M90.65,89.3509127 C95.848,87.5169127 90.956,78.4969127 90.956,78.4969127 C90.956,78.4969127 93.096,78.3449127 93.554,76.0519127 C93.944,74.1029127 88.72,72.2709127 87.512,71.9499127 C88.546,71.9069127 91.987,70.2049127 93.249,69.7839127 C94.624,69.3259127 93.402,64.4339127 93.402,64.4339127 C97.376,64.1279127 99.363,61.0709127 99.669,58.9309127 C99.975,56.7899127 90.039,46.8539127 90.039,38.3699127 C90.039,29.8859127 83.618,22.8539127 83.618,22.8539127 C86.828,22.7019127 84.688,18.8799127 84.688,18.8799127 C59.771,-7.56608732 29.874,1.49991268 29.874,1.49991268 L29.872,1.50391268 C12.81,5.10091268 0,20.2369127 0,38.3699127 C0,48.0309127 3.64,56.8389127 9.618,63.5089127 L9.617,63.5119127 C9.617,63.5119127 10.357,64.3099127 18.956,77.2749127 C24.592,85.7719127 22.84,101.188913 20.963,110.804913 C29.676,114.697913 39.321,116.880913 49.482,116.880913 C55.974,116.880913 62.252,115.977913 68.218,114.323913 L64.051,91.3379127 C64.051,91.3379127 85.453,91.1849127 90.65,89.3509127" id="Fill-4" fill="#2167AE"></path>
                <path d="M27.8466,50.5609127 C23.3186,50.5609127 19.6486,46.8319127 19.6486,42.2329127 C19.6486,37.8969127 22.9096,34.3389127 27.0756,33.9439127 C27.0486,33.5869127 27.0216,33.2299127 27.0216,32.8669127 C27.0216,25.2269127 33.1186,19.0329127 40.6386,19.0329127 C47.3456,19.0329127 52.9066,23.9619127 54.0346,30.4469127 C58.4246,31.5399127 61.6866,35.5539127 61.6866,40.3519127 C61.6866,45.9899127 57.1876,50.5609127 51.6366,50.5609127 L27.8466,50.5609127 Z" id="Fill-6" fill="#5495CF"></path>
                <path d="M49.4528,49.4920127 C49.1838,49.2990127 48.8648,49.2070127 48.5398,49.2260127 L43.4148,49.2260127 L43.4608,37.4940127 C43.4588,36.6710127 42.9188,36.2520127 42.4558,36.1430127 C41.9938,36.0380127 41.3228,36.1690127 40.9618,36.8920127 L32.1898,53.9360127 C31.8248,54.5620127 31.9898,55.3770127 32.5888,55.8090127 C32.8578,56.0020127 33.1758,56.0920127 33.5018,56.0750127 L38.6448,56.0750127 L38.6448,67.7850127 C38.6448,68.6090127 39.1848,69.0280127 39.6478,69.1380127 C39.7388,69.1590127 39.8388,69.1710127 39.9418,69.1710127 C40.3628,69.1710127 40.8528,68.9710127 41.1448,68.3880127 L49.8528,51.3630127 C50.2168,50.7380127 50.0518,49.9240127 49.4528,49.4920127" id="Fill-8" fill="#91BFE3"></path>
            </g>
        </g>
    </g>
</svg>