<?xml version="1.0" encoding="UTF-8"?>
<svg width="140px" height="140px" viewBox="0 0 140 140" version="1.1" xmlns="http://www.w3.org/2000/svg" xmlns:xlink="http://www.w3.org/1999/xlink">
    <title>pictogram/light/health/mental/mild</title>
    <g id="pictogram/light/health/mental/mild" stroke="none" stroke-width="1" fill="none" fill-rule="evenodd">
        <g id="mental-mild">
            <path d="M70,0 C31.34,0 0,31.34 0,70 C0,108.66 31.34,140 70,140 C108.66,140 140,108.66 140,70 C140,31.34 108.66,0 70,0" id="circle" fill="#DDE4E3"></path>
            <g id="picto" transform="translate(20.489700, 23.118787)">
                <path d="M90.65,89.3509127 C95.847,87.5169127 90.956,78.4969127 90.956,78.4969127 C90.956,78.4969127 93.096,78.3449127 93.554,76.0519127 C93.944,74.1029127 88.72,72.2709127 87.512,71.9499127 C88.546,71.9069127 91.987,70.2049127 93.249,69.7839127 C94.624,69.3259127 93.402,64.4339127 93.402,64.4339127 C97.376,64.1279127 99.363,61.0709127 99.669,58.9309127 C99.975,56.7899127 90.038,46.8539127 90.038,38.3699127 C90.038,29.8859127 83.618,22.8539127 83.618,22.8539127 C86.828,22.7019127 84.688,18.8799127 84.688,18.8799127 C59.771,-7.56608732 29.874,1.49991268 29.874,1.49991268 L29.872,1.50391268 C12.81,5.10091268 0,20.2369127 0,38.3699127 C0,48.0309127 3.64,56.8389127 9.618,63.5089127 L9.617,63.5119127 C9.617,63.5119127 10.356,64.3099127 18.956,77.2749127 C24.592,85.7719127 22.84,101.188913 20.963,110.804913 C29.676,114.697913 39.321,116.880913 49.482,116.880913 C55.974,116.880913 62.252,115.977913 68.218,114.323913 L64.051,91.3379127 C64.051,91.3379127 85.453,91.1849127 90.65,89.3509127" id="Fill-4" fill="#2167AE"></path>
                <path d="M60.3439,34.5037127 C60.3499,29.2497127 58.6699,24.2517127 58.6699,24.2517127 C58.6699,24.2517127 53.6599,24.3757127 48.8349,26.0527127 C45.4289,20.6537127 39.9409,16.6047127 39.9409,16.6047127 C39.9409,16.6047127 34.4529,20.6537127 31.0469,26.0527127 C26.2219,24.3757127 21.2119,24.2517127 21.2119,24.2517127 C21.2119,24.2517127 19.5319,29.2497127 19.5379,34.5037127 C17.3799,35.1127127 15.8969,35.7597127 15.8969,35.7597127 C15.8969,35.7597127 16.7289,43.1537127 20.2729,47.6737127 C20.9119,48.5467127 21.7209,49.3157127 22.6849,49.9247127 C23.6959,50.4557127 24.7649,50.7717127 25.8409,50.8887127 C30.9399,51.6147127 36.9469,49.2967127 38.1359,48.8097127 C39.2179,49.7457127 39.9409,50.2797127 39.9409,50.2797127 C39.9409,50.2797127 40.6639,49.7457127 41.7459,48.8097127 C42.9349,49.2967127 48.9429,51.6147127 54.0409,50.8887127 C55.1169,50.7717127 56.1859,50.4557127 57.1969,49.9247127 C58.1609,49.3157127 58.9699,48.5467127 59.6089,47.6737127 C63.1539,43.1537127 63.9849,35.7597127 63.9849,35.7597127 C63.9849,35.7597127 62.5029,35.1127127 60.3439,34.5037127" id="Fill-6" fill="#91BFE3"></path>
            </g>
        </g>
    </g>
</svg>