<?xml version="1.0" encoding="UTF-8"?>
<svg width="140px" height="140px" viewBox="0 0 140 140" version="1.1" xmlns="http://www.w3.org/2000/svg" xmlns:xlink="http://www.w3.org/1999/xlink">
    <title>pictogram/light/health/mental/moderate</title>
    <g id="pictogram/light/health/mental/moderate" stroke="none" stroke-width="1" fill="none" fill-rule="evenodd">
        <g id="mental-moderate" transform="translate(0.000000, -0.000100)">
            <path d="M70,0 C31.34,0 0,31.34 0,70 C0,108.66 31.34,140 70,140 C108.66,140 140,108.66 140,70 C140,31.34 108.66,0 70,0" id="circle" fill="#DDE4E3"></path>
            <g id="picto" transform="translate(20.489700, 23.119287)">
                <path d="M90.65,89.3509127 C95.848,87.5169127 90.956,78.4969127 90.956,78.4969127 C90.956,78.4969127 93.096,78.3449127 93.554,76.0519127 C93.944,74.1029127 88.72,72.2709127 87.512,71.9499127 C88.546,71.9069127 91.987,70.2049127 93.249,69.7839127 C94.624,69.3259127 93.402,64.4339127 93.402,64.4339127 C97.376,64.1279127 99.363,61.0709127 99.669,58.9309127 C99.975,56.7899127 90.039,46.8539127 90.039,38.3699127 C90.039,29.8859127 83.618,22.8539127 83.618,22.8539127 C86.828,22.7019127 84.688,18.8799127 84.688,18.8799127 C59.771,-7.56608732 29.874,1.49991268 29.874,1.49991268 L29.872,1.50391268 C12.81,5.09991268 0,20.2369127 0,38.3699127 C0,48.0309127 3.64,56.8389127 9.618,63.5089127 L9.617,63.5119127 C9.617,63.5119127 10.357,64.3099127 18.956,77.2749127 C24.592,85.7719127 22.84,101.188913 20.963,110.804913 C29.676,114.697913 39.321,116.880913 49.482,116.880913 C55.974,116.880913 62.252,115.977913 68.218,114.323913 L64.051,91.3379127 C64.051,91.3379127 85.453,91.1849127 90.65,89.3509127" id="Fill-4" fill="#2167AE"></path>
                <path d="M57.2508,52.9090127 C62.3548,52.9090127 66.4938,48.7050127 66.4938,43.5190127 C66.4938,39.1070127 63.4938,35.4160127 59.4558,34.4100127 C58.4178,28.4460127 53.3038,23.9120127 47.1358,23.9120127 C40.2188,23.9120127 34.6118,29.6090127 34.6118,36.6350127 C34.6118,36.9700127 34.6368,37.2980127 34.6618,37.6260127 C30.8298,37.9900127 27.8308,41.2620127 27.8308,45.2490127 C27.8308,49.4790127 31.2068,52.9090127 35.3708,52.9090127 L57.2508,52.9090127 Z" id="Fill-7" fill="#5495CF"></path>
                <path d="M37.8437,65.8870127 C37.1537,65.8870127 36.5937,65.3270127 36.5937,64.6370127 L36.5937,58.8280127 C36.5937,58.1380127 37.1537,57.5780127 37.8437,57.5780127 C38.5337,57.5780127 39.0937,58.1380127 39.0937,58.8280127 L39.0937,64.6370127 C39.0937,65.3270127 38.5337,65.8870127 37.8437,65.8870127" id="Fill-9" fill="#91BFE3"></path>
                <path d="M47.1622,66.0447127 C46.4722,66.0447127 45.9122,65.4847127 45.9122,64.7947127 L45.9122,58.9857127 C45.9122,58.2957127 46.4722,57.7357127 47.1622,57.7357127 C47.8522,57.7357127 48.4122,58.2957127 48.4122,58.9857127 L48.4122,64.7947127 C48.4122,65.4847127 47.8522,66.0447127 47.1622,66.0447127" id="Fill-11" fill="#91BFE3"></path>
                <path d="M56.4384,65.8870127 C55.7484,65.8870127 55.1884,65.3270127 55.1884,64.6370127 L55.1884,58.8280127 C55.1884,58.1380127 55.7484,57.5780127 56.4384,57.5780127 C57.1284,57.5780127 57.6884,58.1380127 57.6884,58.8280127 L57.6884,64.6370127 C57.6884,65.3270127 57.1284,65.8870127 56.4384,65.8870127" id="Fill-13" fill="#91BFE3"></path>
            </g>
        </g>
    </g>
</svg>