<?xml version="1.0" encoding="UTF-8"?>
<svg width="140px" height="140px" viewBox="0 0 140 140" version="1.1" xmlns="http://www.w3.org/2000/svg" xmlns:xlink="http://www.w3.org/1999/xlink">
    <title>pictogram/light/health/mental/wellbeing</title>
    <g id="pictogram/light/health/mental/wellbeing" stroke="none" stroke-width="1" fill="none" fill-rule="evenodd">
        <g id="mental-wellbeing" transform="translate(0.000000, -0.000100)">
            <path d="M0,70 C0,108.66 31.34,140 70,140 C108.66,140 140,108.66 140,70 C140,31.34 108.66,0 70,0 C31.34,0 0,31.34 0,70 Z" id="circle" fill="#DDE4E3"></path>
            <g id="picto" transform="translate(20.628243, 23.119287)">
                <path d="M90.5115565,89.3509127 C95.7085565,87.5169127 90.8175565,78.4969127 90.8175565,78.4969127 C96.9035565,76.4419127 90.9465565,72.6729127 87.3735565,71.9499127 C92.4115565,70.1449127 94.9985565,70.5969127 93.2635565,64.4339127 C108.696557,60.0619127 90.0295565,51.5829127 89.9005565,38.3699127 C89.8995565,29.8859127 83.4795565,22.8539127 83.4795565,22.8539127 C86.6895565,22.7019127 84.5495565,18.8799127 84.5495565,18.8799127 C59.6325565,-7.56608732 29.7355565,1.49991268 29.7355565,1.49991268 L29.7335565,1.50391268 C2.29655654,6.11091268 -9.94444346,43.4739127 9.47955654,63.5089127 L9.47855654,63.5119127 C19.7985565,76.5969127 26.2035565,87.8489127 20.8245565,110.804913 C34.9245565,117.307913 52.9125565,118.718913 68.0795565,114.323913 L63.9125565,91.3379127 C63.9125565,91.3379127 85.3135565,91.1849127 90.5115565,89.3509127" id="Fill-4" fill="#2167AE"></path>
                <path d="M26.4849565,38.5610127 C26.5639565,40.9870127 27.4549565,43.3160127 28.9949565,45.1500127 L28.9949565,45.1490127 C29.6379565,45.8660127 43.7139565,60.9270127 43.8419565,61.0310127 C44.0739565,61.2250127 44.3649565,61.3300127 44.6689565,61.3300127 C44.7099565,61.3300127 44.7499565,61.3280127 44.7909565,61.3240127 C45.1389565,61.2930127 45.4529565,61.1270127 45.6759565,60.8580127 C51.0659565,55.1100127 60.1959565,45.3630127 60.3799565,45.1180127 C61.8969565,43.3300127 62.7969565,41.0000127 62.877961,38.6000127 C62.8809565,35.3740127 61.3569565,32.3260127 58.7999565,30.4170127 C56.6329565,28.7990127 53.9689565,28.1230127 51.2909565,28.5150127 C48.6589565,28.9020127 46.3299565,30.2780127 44.7169565,32.3950127 C44.6889565,32.3970127 44.6539565,32.3970127 44.6259565,32.3950127 C42.7279565,29.9230127 39.7529565,28.4450127 36.6379565,28.4350127 L36.6049565,28.4350127 C33.9129565,28.4350127 31.3809565,29.4840127 29.4709565,31.3890127 C27.5539565,33.3010127 26.4939565,35.8480127 26.4849565,38.5610127 L26.4849565,38.5610127 Z" id="Fill-6" fill="#91BFE3"></path>
            </g>
        </g>
    </g>
</svg>