<?xml version="1.0" encoding="UTF-8"?>
<svg width="140px" height="140px" viewBox="0 0 140 140" version="1.1" xmlns="http://www.w3.org/2000/svg" xmlns:xlink="http://www.w3.org/1999/xlink">
    <title>pictogram/light/environment/renewable-energy/house</title>
    <g id="pictogram/light/environment/renewable-energy/house" stroke="none" stroke-width="1" fill="none" fill-rule="evenodd">
        <g id="renewable-energy-house">
            <path d="M140,70 C140,108.66 108.66,140 70,140 C31.34,140 0,108.66 0,70 C0,31.34 31.34,0 70,0 C108.66,0 140,31.34 140,70" id="circle" fill="#DDE4E3"></path>
            <g id="picto" transform="translate(21.897150, 22.217789)">
                <path d="M42.6648498,27.7013107 L42.6648498,34.8083107 C42.6648498,34.8083107 50.6248498,35.0923107 50.6248498,34.8083107 L50.6248498,27.7013107 L42.6648498,27.7013107 Z" id="Fill-3" fill="#2167AE"></path>
                <path d="M64.6370498,51.5601107 C63.5200498,48.6241107 58.5170498,35.7751107 58.5170498,35.7751107 C58.5170498,35.7751107 58.0620498,33.1591107 54.4240498,33.1591107 L33.2840498,33.1591107 L32.5910498,33.1591107 L10.4290498,33.1591107 C6.78904978,33.1591107 6.33504978,35.7751107 6.33504978,35.7751107 C6.33504978,35.7751107 1.33104978,48.6241107 0.215049784,51.5601107 C-0.901950216,54.4961107 2.69604978,54.0411107 2.69604978,54.0411107 L32.5910498,54.0411107 L33.2840498,54.0411107 L62.1560498,54.0411107 C62.1560498,54.0411107 65.7540498,54.4961107 64.6370498,51.5601107" id="Fill-5" fill="#23366F"></path>
                <polygon id="Fill-7" fill="#2167AE" points="5.65264978 54.0414107 5.65264978 87.6134107 59.5506498 87.6134107 59.5506498 54.0674107"></polygon>
                <path d="M51.5134498,27.7013107 L41.8904498,27.7013107 C41.5334498,27.7013107 41.2434498,27.4113107 41.2434498,27.0543107 L41.2434498,26.2443107 C41.2434498,25.8873107 41.5334498,25.5973107 41.8904498,25.5973107 L51.5134498,25.5973107 C51.8704498,25.5973107 52.1594498,25.8873107 52.1594498,26.2443107 L52.1594498,27.0543107 C52.1594498,27.4113107 51.8704498,27.7013107 51.5134498,27.7013107" id="Fill-9" fill="#23366F"></path>
                <path d="M32.4260498,62.0693107 C32.4260498,62.0693107 21.1950498,61.7753107 21.1950498,73.2343107 L21.1950498,87.6143107 L32.4260498,87.6143107 L43.6570498,87.6143107 L43.6570498,73.2343107 C43.6570498,61.7753107 32.4260498,62.0693107 32.4260498,62.0693107" id="Fill-11" fill="#91BFE3"></path>
                <path d="M82.4348498,37.7249107 C82.4058498,37.0349107 81.8208498,36.5029107 81.1318498,36.5299107 C80.4608498,36.5579107 79.9458498,37.1139107 79.9448498,37.7779107 L79.1758498,37.7779107 C79.1748498,37.1139107 78.6598498,36.5579107 77.9888498,36.5299107 C77.3138498,36.4989107 76.7168498,37.0349107 76.6858498,37.7249107 L74.5318498,87.6089107 L84.5778498,87.6089107 L82.4348498,37.7249107 Z" id="Fill-13" fill="#5495CF"></path>
                <path d="M81.3445498,28.9788107 C83.0025498,28.8208107 83.8795498,27.2788107 83.9835498,25.8238107 C83.9875498,25.7718107 83.9885498,25.7208107 83.9855498,25.6688107 C83.9855498,25.6688107 83.0695498,7.97081071 82.8925498,4.41781071 C82.8025498,2.62281071 82.2935498,1.34181071 81.3795498,0.609810708 C80.6555498,0.0308107081 79.9225498,-0.0171892919 79.5545498,0.00381070814 C79.1875498,-0.0171892919 78.4545498,0.0308107081 77.7305498,0.609810708 C76.8165498,1.34181071 76.3065498,2.62281071 76.2175498,4.41781071 C76.0405498,7.97081071 75.1245498,25.6688107 75.1245498,25.6688107 C75.1215498,25.7208107 75.1225498,25.7728107 75.1265498,25.8248107 C75.2355498,27.3248107 76.1615498,28.9488107 77.9745498,29.0078107 C77.9995498,29.0088107 78.0245498,29.0088107 78.0465498,29.0088107 L81.0715498,29.0098107 L81.0755498,29.0098107 C81.0885498,29.0098107 81.0995498,29.0058107 81.1135498,29.0048107 C81.1915498,29.0028107 81.2695498,28.9958107 81.3445498,28.9788107" id="Fill-15" fill="#5495CF"></path>
                <path d="M77.6106498,35.6194107 L76.0536498,33.0124107 C76.0526498,33.0114107 76.0506498,33.0104107 76.0506498,33.0094107 C75.1066498,31.4314107 73.1986498,31.4554107 71.8256498,32.1474107 C71.7796498,32.1704107 71.7356498,32.1964107 71.6926498,32.2254107 C71.6926498,32.2254107 56.9676498,42.0874107 54.0086498,44.0604107 C52.5126498,45.0584107 51.6736498,46.1524107 51.5146498,47.3124107 C51.3886498,48.2304107 51.7236498,48.8844107 51.9296498,49.1894107 C52.1006498,49.5154107 52.5176498,50.1204107 53.3856498,50.4454107 C53.7436498,50.5784107 54.1286498,50.6454107 54.5416498,50.6454107 C55.3946498,50.6454107 56.3616498,50.3604107 57.4316498,49.7914107 C60.5716498,48.1214107 76.2356498,39.8324107 76.2356498,39.8324107 C76.2816498,39.8074107 76.3266498,39.7814107 76.3686498,39.7514107 C77.5976498,38.8904107 78.5156498,37.2674107 77.6456498,35.6814107 C77.6346498,35.6604107 77.6226498,35.6404107 77.6106498,35.6194107" id="Fill-17" fill="#5495CF"></path>
                <path d="M107.57355,47.3860107 C107.41855,46.2250107 106.58255,45.1280107 105.09155,44.1260107 C102.13755,42.1420107 87.4475498,32.2310107 87.4475498,32.2310107 C87.4045498,32.2010107 87.3595498,32.1760107 87.3135498,32.1520107 C85.9575498,31.4650107 84.0625498,31.4270107 83.1005498,32.9760107 C83.0915498,32.9900107 83.0825498,33.0050107 83.0745498,33.0190107 L81.5175498,35.6030107 L81.5175498,35.6040107 L81.5175498,35.6040107 C81.4695498,35.6840107 81.4315498,35.7670107 81.4035498,35.8540107 C80.6835498,37.3560107 81.5525498,38.9020107 82.7455498,39.7410107 C82.7875498,39.7710107 82.8315498,39.7980107 82.8775498,39.8230107 C82.8775498,39.8230107 98.5135498,48.1640107 101.64855,49.8450107 C102.72155,50.4200107 103.69255,50.7090107 104.54855,50.7090107 C104.95555,50.7090107 105.33755,50.6430107 105.69155,50.5120107 C106.56055,50.1910107 106.97955,49.5870107 107.15155,49.2610107 C107.35855,48.9570107 107.69655,48.3040107 107.57355,47.3860107" id="Fill-19" fill="#5495CF"></path>
                <path d="M79.5608498,26.5096107 C76.3378498,26.5096107 73.7158498,29.1316107 73.7158498,32.3546107 C73.7158498,35.5776107 76.3378498,38.1996107 79.5608498,38.1996107 C82.7838498,38.1996107 85.4058498,35.5776107 85.4058498,32.3546107 C85.4058498,29.1316107 82.7838498,26.5096107 79.5608498,26.5096107" id="Fill-21" fill="#91BFE3"></path>
            </g>
        </g>
    </g>
</svg>