<?xml version="1.0" encoding="UTF-8"?>
<svg width="140px" height="140px" viewBox="0 0 140 140" version="1.1" xmlns="http://www.w3.org/2000/svg" xmlns:xlink="http://www.w3.org/1999/xlink">
    <title>pictogram/light/environment/renewable-energy/shop</title>
    <g id="pictogram/light/environment/renewable-energy/shop" stroke="none" stroke-width="1" fill="none" fill-rule="evenodd">
        <g id="renewable-energy-shop">
            <path d="M70,0 C31.34,0 0,31.34 0,70 C0,84.803 4.606,98.523 12.448,109.832 C25.085,128.056 46.143,140 70,140 C93.856,140 114.914,128.056 127.552,109.832 C135.393,98.523 140,84.803 140,70 C140,31.34 108.66,0 70,0" id="circle" fill="#DDE4E3"></path>
            <g id="picto" transform="translate(16.784500, 19.463250)">
                <path d="M62.1744,47.5620498 L5.9364,47.5620498 C5.2454,47.5620498 4.6864,48.1220498 4.6864,48.8120498 L4.6864,86.2630498 C4.6864,86.9530498 5.2454,87.5130498 5.9364,87.5130498 L62.1744,87.5130498 C62.8644,87.5130498 63.4244,86.9530498 63.4244,86.2630498 L63.4244,48.8120498 C63.4244,48.1220498 62.8644,47.5620498 62.1744,47.5620498" id="Fill-4" fill="#2167AE"></path>
                <path d="M66.861,48.8120498 L65.611,48.8120498 L58.738,48.8120498 L57.488,48.8120498 L56.238,48.8120498 L49.365,48.8120498 L48.115,48.8120498 L46.865,48.8120498 L39.992,48.8120498 L38.742,48.8120498 L37.492,48.8120498 L30.619,48.8120498 L29.369,48.8120498 L28.119,48.8120498 L21.246,48.8120498 L19.996,48.8120498 L18.746,48.8120498 L11.873,48.8120498 L10.623,48.8120498 L9.373,48.8120498 L2.5,48.8120498 L1.25,48.8120498 L0,48.8120498 C0,52.0850498 2.663,54.7490498 5.936,54.7490498 C7.841,54.7490498 9.536,53.8430498 10.623,52.4430498 C11.71,53.8430498 13.404,54.7490498 15.309,54.7490498 C17.215,54.7490498 18.909,53.8430498 19.996,52.4430498 C21.083,53.8430498 22.777,54.7490498 24.682,54.7490498 C26.588,54.7490498 28.282,53.8430498 29.369,52.4430498 C30.456,53.8430498 32.15,54.7490498 34.055,54.7490498 C35.961,54.7490498 37.655,53.8430498 38.742,52.4430498 C39.829,53.8430498 41.523,54.7490498 43.428,54.7490498 C45.334,54.7490498 47.028,53.8430498 48.115,52.4430498 C49.202,53.8430498 50.896,54.7490498 52.801,54.7490498 C54.707,54.7490498 56.401,53.8430498 57.488,52.4430498 C58.575,53.8430498 60.269,54.7490498 62.174,54.7490498 C65.448,54.7490498 68.111,52.0850498 68.111,48.8120498 L66.861,48.8120498 Z" id="Fill-6" fill="#91BFE3"></path>
                <path d="M68.0465,48.3755498 L63.3595,34.3165498 C63.1905,33.8055498 62.7125,33.4615498 62.1745,33.4615498 L5.9365,33.4615498 C5.3985,33.4615498 4.9205,33.8055498 4.7505,34.3165498 L0.0645,48.3755498 C-0.0625,48.7565498 0.000144470047,49.1755498 0.2355,49.5015498 C0.4705,49.8275498 0.8485,50.0205498 1.2495,50.0205498 L66.8605,50.0205498 C67.2625,50.0205498 67.6405,49.8275498 67.8745,49.5015498 C68.1095,49.1755498 68.1735,48.7565498 68.0465,48.3755498" id="Fill-8" fill="#2167AE"></path>
                <path d="M34.0553,60.8713498 C34.0553,60.8713498 26.3903,60.6713498 26.3903,68.4913498 L26.3903,87.5073498 L34.0553,87.5073498 L41.7213,87.5073498 L41.7213,68.4913498 C41.7213,60.6713498 34.0553,60.8713498 34.0553,60.8713498" id="Fill-10" fill="#ECEEEF"></path>
                <path d="M86.4674,37.7246498 C86.4374,37.0346498 85.8624,36.5026498 85.1644,36.5296498 C84.4934,36.5576498 83.9794,37.1136498 83.9784,37.7786498 L83.2074,37.7786498 C83.2064,37.1136498 82.6914,36.5576498 82.0214,36.5296498 C81.3294,36.4976498 80.7484,37.0346498 80.7184,37.7246498 L78.5654,87.6086498 L88.6104,87.6086498 L86.4674,37.7246498 Z" id="Fill-12" fill="#5495CF"></path>
                <path d="M85.3776,28.9785498 C87.0356,28.8205498 87.9116,27.2785498 88.0166,25.8235498 C88.0196,25.7715498 88.0206,25.7205498 88.0176,25.6695498 C88.0176,25.6685498 87.1016,7.97154984 86.9246,4.41754984 C86.8356,2.62254984 86.3266,1.34154984 85.4116,0.609549839 C84.6886,0.0305498394 83.9546,-0.0164501606 83.5876,0.0035498394 C83.2206,-0.0164501606 82.4856,0.0315498394 81.7636,0.609549839 C80.8486,1.34154984 80.3396,2.62354984 80.2506,4.41754984 C80.0736,7.97154984 79.1576,25.6685498 79.1576,25.6695498 C79.1546,25.7205498 79.1556,25.7725498 79.1586,25.8245498 C79.2686,27.3245498 80.1936,28.9485498 82.0066,29.0075498 C82.0316,29.0085498 82.0586,29.0095498 82.0816,29.0095498 L85.1046,29.0095498 L85.1076,29.0095498 C85.1186,29.0095498 85.1276,29.0065498 85.1386,29.0055498 C85.2196,29.0035498 85.3006,28.9965498 85.3776,28.9785498" id="Fill-14" fill="#5495CF"></path>
                <path d="M81.6432,35.6191498 L80.0872,33.0151498 L80.0872,33.0141498 C79.1432,31.4311498 77.2362,31.4541498 75.8582,32.1471498 C75.8122,32.1701498 75.7672,32.1961498 75.7252,32.2251498 C75.7252,32.2251498 61.0002,42.0871498 58.0412,44.0611498 L58.0412,44.0601498 C56.5452,45.0581498 55.7062,46.1521498 55.5472,47.3121498 C55.4212,48.2291498 55.7552,48.8831498 55.9622,49.1881498 C56.1322,49.5141498 56.5482,50.1201498 57.4182,50.4451498 C57.7762,50.5781498 58.1622,50.6451498 58.5742,50.6451498 C59.4262,50.6451498 60.3942,50.3601498 61.4632,49.7911498 C64.6052,48.1211498 80.2692,39.8321498 80.2692,39.8321498 C80.3142,39.8081498 80.3592,39.7811498 80.4012,39.7511498 C81.6302,38.8901498 82.5482,37.2681498 81.6782,35.6811498 C81.6662,35.6611498 81.6552,35.6401498 81.6432,35.6191498" id="Fill-16" fill="#5495CF"></path>
                <path d="M111.6061,47.3862498 C111.4511,46.2252498 110.6161,45.1282498 109.1241,44.1262498 C106.1701,42.1422498 91.4791,32.2302498 91.4791,32.2302498 C91.4361,32.2012498 91.3911,32.1752498 91.3451,32.1522498 C90.0031,31.4722498 88.1361,31.4272498 87.1501,32.9482498 C87.1341,32.9722498 87.1191,32.9972498 87.1051,33.0222498 L85.5491,35.6042498 C85.5021,35.6842498 85.4641,35.7672498 85.4351,35.8542498 C84.7161,37.3562498 85.5861,38.9012498 86.7791,39.7412498 C86.8211,39.7712498 86.8651,39.7982498 86.9111,39.8222498 C86.9111,39.8222498 102.5461,48.1642498 105.6811,49.8442498 C106.7541,50.4202498 107.7251,50.7082498 108.5821,50.7082498 C108.9891,50.7082498 109.3701,50.6432498 109.7241,50.5122498 C110.5931,50.1912498 111.0111,49.5882498 111.1831,49.2622498 C111.3901,48.9592498 111.7301,48.3052498 111.6061,47.3862498" id="Fill-18" fill="#5495CF"></path>
                <path d="M83.5934,26.5097498 C80.3704,26.5097498 77.7484,29.1317498 77.7484,32.3547498 C77.7484,35.5777498 80.3704,38.1997498 83.5934,38.1997498 C86.8164,38.1997498 89.4384,35.5777498 89.4384,32.3547498 C89.4384,29.1317498 86.8164,26.5097498 83.5934,26.5097498" id="Fill-20" fill="#91BFE3"></path>
            </g>
        </g>
    </g>
</svg>