<?xml version="1.0" encoding="UTF-8"?>
<svg width="140px" height="140px" viewBox="0 0 140 140" version="1.1" xmlns="http://www.w3.org/2000/svg" xmlns:xlink="http://www.w3.org/1999/xlink">
    <title>pictogram/dark/mobility/bike</title>
    <g id="pictogram/dark/mobility/bike" stroke="none" stroke-width="1" fill="none" fill-rule="evenodd">
        <g id="bike" transform="translate(-0.000400, 0.000000)">
            <path d="M140,70 C140,108.66 108.66,140 70,140 C31.341,140 0,108.66 0,70 C0,31.34 31.341,0 70,0 C108.66,0 140,31.34 140,70" id="circle" fill="#91BFE3"></path>
            <g id="picto" transform="translate(18.681130, 40.723987)">
                <path d="M41.385336,41.1140129 C41.4132699,30.1410129 32.5402699,21.2230129 21.5692699,21.1949468 C10.5962699,21.1670129 1.67826993,30.0380129 1.65019903,41.0110129 C1.62126993,51.9840129 10.4932699,60.9020129 21.4662699,60.930079 C32.4382699,60.9580129 41.3572699,52.0870129 41.385336,41.1140129" id="Fill-4" fill="#DAD2BD"></path>
                <path d="M21.5170699,22.8444129 C16.6680699,22.8444129 12.1080699,24.7264129 8.66806993,28.1464129 C5.21806993,31.5784129 3.31306993,36.1484129 3.3000079,41.0154129 C3.27406993,51.0604129 11.4250699,59.2544129 21.4700699,59.2804129 C21.4870699,59.2804129 21.5030699,59.2804129 21.5190699,59.2804129 C26.3680699,59.2804129 30.9280699,57.3984129 34.3660699,53.9784129 C37.8160699,50.5464129 39.7230699,45.9764129 39.736132,41.1094129 C39.7620699,31.0644129 31.6110699,22.8704129 21.5660699,22.8444129 C21.5490699,22.8444129 21.5320699,22.8444129 21.5170699,22.8444129 M21.5190699,62.5794129 C21.4990699,62.5794129 21.4820699,62.5794129 21.4620699,62.5794129 C9.59706993,62.5484129 -0.0299300747,52.8714129 3.55271368e-15,41.0064129 C0.0160699253,35.2594129 2.26806993,29.8614129 6.34206993,25.8084129 C10.4030699,21.7684129 15.7890699,19.5454129 21.5170699,19.5454129 C21.5360699,19.5454129 21.5540699,19.5454129 21.5740699,19.5454129 C33.4380699,19.5764129 43.0660699,29.2534129 43.0351446,41.1184129 C43.0200699,46.8654129 40.7680699,52.2634129 36.6940699,56.3164129 C32.6310699,60.3564129 27.2450699,62.5794129 21.5190699,62.5794129" id="Fill-6" fill="#2167AE"></path>
                <path d="M100.987841,41.2685129 C101.01677,30.2955129 92.1437699,21.3775129 81.1727699,21.3494468 C70.1997699,21.3215129 61.2817699,30.1925129 61.253699,41.1655129 C61.2247699,52.1385129 70.0957699,61.0565129 81.0687699,61.084579 C92.0407699,61.1125129 100.95977,52.2415129 100.987841,41.2685129" id="Fill-8" fill="#DAD2BD"></path>
                <path d="M81.1196699,22.9989129 C76.2706699,22.9989129 71.7106699,24.8809129 68.2706699,28.3009129 C64.8216699,31.7329129 62.9156699,36.3029129 62.9026079,41.1699129 C62.8766699,51.2149129 71.0276699,59.4089129 81.0726699,59.4349129 C81.0896699,59.4349129 81.1066699,59.4349129 81.1216699,59.4349129 C85.9706699,59.4349129 90.5306699,57.5529129 93.9696699,54.1329129 C97.4186699,50.7009129 99.3256699,46.1309129 99.338732,41.2639129 C99.3646699,31.2189129 91.2136699,23.0249129 81.1686699,22.9989129 C81.1516699,22.9989129 81.1356699,22.9989129 81.1196699,22.9989129 M81.1216699,62.7339129 C81.1026699,62.7339129 81.0846699,62.7339129 81.0646699,62.7339129 C69.2006699,62.7029129 59.5726699,53.0259129 59.6035953,41.1609129 C59.6186699,35.4139129 61.8706699,30.0159129 65.9446699,25.9629129 C70.0056699,21.9229129 75.3916699,19.6999129 81.1196699,19.6999129 C81.1396699,19.6999129 81.1566699,19.6999129 81.1766699,19.6999129 C93.0406699,19.7309129 102.66867,29.4079129 102.63874,41.2729129 L100.98767,41.2689129 L102.63874,41.2729129 C102.62267,47.0199129 100.37067,52.4179129 96.2966699,56.4719129 C92.2336699,60.5109129 86.8476699,62.7339129 81.1216699,62.7339129" id="Fill-10" fill="#2167AE"></path>
                <path d="M51.3197699,42.7896129 C50.7137699,42.7896129 50.1297699,42.4536129 49.8417699,41.8736129 L36.6657699,15.3496129 C36.2587699,14.5336129 36.5907699,13.5436129 37.4087699,13.1386129 C38.2197699,12.7326129 39.2147699,13.0666129 39.6187699,13.8816129 L52.7957699,40.4056129 C53.2017699,41.2216129 52.8687699,42.2116129 52.0517699,42.6166129 C51.8167699,42.7346129 51.5657699,42.7896129 51.3197699,42.7896129" id="Fill-12" fill="#5495CF"></path>
                <path d="M51.4867699,37.7718129 L40.8067699,16.2718129 L64.9637699,16.3348129 L51.4867699,37.7718129 Z M24.4977699,39.4208129 L37.9727699,17.9828129 L48.6547699,39.4828129 L24.4977699,39.4208129 Z M82.5977699,40.4828129 L62.9417699,0.916812906 C62.5377699,0.100812906 61.5457699,-0.233187094 60.7307699,0.172812906 C59.9147699,0.577812906 59.5817699,1.56781291 59.9877699,2.38381291 L65.2797699,13.0358129 L39.7917699,12.9698129 L39.7917699,7.98381291 C39.7917699,7.07281291 39.0527699,6.33481291 38.1417699,6.33481291 C37.2307699,6.33481291 36.4927699,7.07281291 36.4927699,7.98381291 L36.4927699,13.5348129 C36.4927699,13.7028129 36.5247699,13.8608129 36.5707699,14.0138129 L20.1197699,40.1848129 C20.0957699,40.2208129 20.0827699,40.2608129 20.0627699,40.2978129 C20.0377699,40.3478129 20.0087699,40.3968129 19.9877699,40.4498129 C19.9657699,40.5048129 19.9517699,40.5608129 19.9357699,40.6158129 C19.9227699,40.6638129 19.9067699,40.7098129 19.8977699,40.7578129 C19.8847699,40.8238129 19.8817699,40.8898129 19.8777699,40.9558129 C19.8757699,40.9908129 19.8677699,41.0228129 19.8677699,41.0588129 C19.8677699,41.0668129 19.8697699,41.0748129 19.8697699,41.0838129 C19.8707699,41.1488129 19.8797699,41.2138129 19.8887699,41.2788129 C19.8947699,41.3228129 19.8967699,41.3678129 19.9057699,41.4108129 C19.9177699,41.4638129 19.9377699,41.5158129 19.9537699,41.5678129 C19.9697699,41.6178129 19.9827699,41.6678129 20.0037699,41.7158129 C20.0237699,41.7638129 20.0527699,41.8088129 20.0787699,41.8548129 C20.1037699,41.9008129 20.1257699,41.9488129 20.1557699,41.9928129 C20.1847699,42.0348129 20.2207699,42.0728129 20.2547699,42.1128129 C20.2897699,42.1548129 20.3227699,42.1988129 20.3617699,42.2378129 C20.3927699,42.2688129 20.4297699,42.2948129 20.4657699,42.3238129 C20.5137699,42.3648129 20.5637699,42.4078129 20.6187699,42.4428129 C20.6257699,42.4478129 20.6317699,42.4548129 20.6387699,42.4588129 C20.6547699,42.4688129 20.6717699,42.4708129 20.6857699,42.4798129 C20.7877699,42.5398129 20.8947699,42.5868129 21.0077699,42.6238129 C21.0437699,42.6348129 21.0767699,42.6468129 21.1107699,42.6558129 C21.2407699,42.6888129 21.3737699,42.7118129 21.5117699,42.7118129 L21.5147699,42.7118129 L21.5157699,42.7118129 L51.3147699,42.7898129 L51.3187699,42.7898129 C51.4507699,42.7898129 51.5777699,42.7698129 51.7007699,42.7408129 C51.7347699,42.7318129 51.7657699,42.7198129 51.7997699,42.7088129 C51.8887699,42.6818129 51.9747699,42.6488129 52.0567699,42.6068129 C52.0917699,42.5888129 52.1277699,42.5708129 52.1607699,42.5508129 C52.2437699,42.5008129 52.3197699,42.4448129 52.3917699,42.3828129 C52.4157699,42.3628129 52.4397699,42.3458129 52.4637699,42.3248129 C52.5517699,42.2378129 52.6317699,42.1418129 52.6997699,42.0368129 C52.7037699,42.0298129 52.7117699,42.0248129 52.7157699,42.0178129 L67.7757699,18.0608129 L79.6437699,41.9508129 C79.9307699,42.5308129 80.5147699,42.8668129 81.1217699,42.8668129 C81.3677699,42.8668129 81.6197699,42.8118129 81.8537699,42.6938129 C82.6707699,42.2888129 83.0037699,41.2988129 82.5977699,40.4828129 L82.5977699,40.4828129 Z" id="Fill-14" fill="#5495CF"></path>
                <path d="M44.7826699,9.65921291 L44.7786699,9.65921291 L34.8446699,9.63321291 C33.9326699,9.63121291 33.1956699,8.89121291 33.1986608,7.98021291 C33.2006699,7.07021291 33.9396699,6.33421291 34.8476699,6.33421291 L34.8516699,6.33421291 L44.7866699,6.36021291 C45.6976699,6.36221291 46.4336699,7.10321291 46.431674,8.01421291 C46.4286699,8.92321291 45.6906699,9.65921291 44.7826699,9.65921291" id="Fill-16" fill="#2167AE"></path>
                <path d="M76.0766699,1.97641291 C74.8306699,0.723412906 73.1706699,0.030412906 71.4026699,0.026412906 L71.3986699,0.026412906 C71.3966699,0.026412906 71.3946699,0.026412906 71.3926699,0.026412906 L61.4696699,0.000412905983 L61.4656699,0.000412905983 C60.5566699,0.000412905983 59.8186699,0.736412906 59.8166538,1.64541291 C59.8126699,2.55741291 60.5516699,3.29741291 61.4616699,3.29941291 L71.3946699,3.32541291 L71.3986699,3.32541291 L71.3996699,3.32541291 C72.2836699,3.32941291 73.1136699,3.67541291 73.7376699,4.30341291 C74.3626699,4.93141291 74.7056699,5.76541291 74.7036699,6.65241291 C74.7006699,7.53741291 74.3536699,8.36941291 73.7256699,8.99441291 C73.0996699,9.61741291 72.2676699,9.96041291 71.3866699,9.96041291 L71.3736699,9.96041291 C70.4646699,9.96041291 69.7256699,10.6964129 69.7226699,11.6054129 C69.7216699,12.5174129 70.4576699,13.2574129 71.3696699,13.2594129 L71.3866699,13.2594129 C73.1466699,13.2594129 74.8036699,12.5754129 76.0526699,11.3324129 C77.3056699,10.0864129 77.9986699,8.42641291 78.0026971,6.66141291 C78.0076699,4.89341291 77.3226699,3.22941291 76.0766699,1.97641291" id="Fill-18" fill="#2167AE"></path>
            </g>
        </g>
    </g>
</svg>