<?xml version="1.0" encoding="UTF-8"?>
<svg width="140px" height="140px" viewBox="0 0 140 140" version="1.1" xmlns="http://www.w3.org/2000/svg" xmlns:xlink="http://www.w3.org/1999/xlink">
    <title>pictogram/dark/security/assistance</title>
    <g id="pictogram/dark/security/assistance" stroke="none" stroke-width="1" fill="none" fill-rule="evenodd">
        <g id="assistance" transform="translate(-0.000000, 0.000000)">
            <path d="M0,70 C0,31.34 31.34,0 70,0 C108.66,0 140,31.34 140,70 C140,108.66 108.66,140 70,140 C31.34,140 0,108.66 0,70" id="circle" fill="#91BFE3"></path>
            <g id="picto" transform="translate(16.206500, 23.401000)">
                <path d="M84.0132,51.2223 L84.0132,51.2113 C83.2772,36.2173 71.1372,23.9123 56.1422,22.9983 C39.4782,21.9603 25.5382,34.6543 24.5312,50.8453 L24.4662,50.8443 L24.4662,78.0353 L84.0502,78.0353 L84.0172,54.0513 C84.0582,53.1183 84.0602,52.1753 84.0132,51.2223" id="Fill-4" fill="#5495CF"></path>
                <path d="M81.2271,66.3356 L27.2901,66.3356 C22.2901,66.3356 18.2231,70.3476 18.2231,75.2786 L18.2231,78.2376 C18.2231,83.1696 22.2901,87.1816 27.2901,87.1816 L81.2271,87.1816 C86.2271,87.1816 90.2941,83.1696 90.2941,78.2376 L90.2941,75.2786 C90.2941,70.3476 86.2271,66.3356 81.2271,66.3356" id="Fill-16" fill="#2167AE"></path>
                <g id="Group" fill="#DAD2BD">
                    <path d="M54.179,15.355 C52.936,15.355 51.929,14.348 51.929,13.105 L51.929,2.25 C51.929,1.007 52.936,0 54.179,0 C55.422,0 56.429,1.007 56.429,2.25 L56.429,13.105 C56.429,14.348 55.422,15.355 54.179,15.355" id="Fill-6"></path>
                    <path d="M105.3372,50.7458 L94.4822,50.7458 C93.2392,50.7458 92.2322,49.7388 92.2322,48.4958 C92.2322,47.2528 93.2392,46.2458 94.4822,46.2458 L105.3372,46.2458 C106.5802,46.2458 107.5872,47.2528 107.5872,48.4958 C107.5872,49.7388 106.5802,50.7458 105.3372,50.7458" id="Fill-8"></path>
                    <path d="M13.105,50.7458 L2.25,50.7458 C1.007,50.7458 0,49.7388 0,48.4958 C0,47.2528 1.007,46.2458 2.25,46.2458 L13.105,46.2458 C14.348,46.2458 15.355,47.2528 15.355,48.4958 C15.355,49.7388 14.348,50.7458 13.105,50.7458" id="Fill-10"></path>
                    <path d="M83.0747,25.92 C82.4987,25.92 81.9227,25.7 81.4837,25.261 C80.6047,24.382 80.6047,22.958 81.4837,22.079 L89.1597,14.403 C90.0387,13.525 91.4627,13.525 92.3417,14.403 C93.2207,15.282 93.2207,16.706 92.3417,17.585 L84.6657,25.261 C84.2267,25.7 83.6507,25.92 83.0747,25.92" id="Fill-12"></path>
                    <path d="M25.4614,25.92 C24.8854,25.92 24.3094,25.7 23.8704,25.261 L16.1944,17.585 C15.3154,16.706 15.3154,15.282 16.1944,14.403 C17.0734,13.525 18.4974,13.525 19.3764,14.403 L27.0524,22.079 C27.9314,22.958 27.9314,24.382 27.0524,25.261 C26.6134,25.7 26.0374,25.92 25.4614,25.92" id="Fill-14"></path>
                </g>
            </g>
        </g>
    </g>
</svg>