<?xml version="1.0" encoding="UTF-8"?>
<svg width="140px" height="140px" viewBox="0 0 140 140" version="1.1" xmlns="http://www.w3.org/2000/svg" xmlns:xlink="http://www.w3.org/1999/xlink">
    <title>pictogram/dark/security/cone</title>
    <g id="pictogram/dark/security/cone" stroke="none" stroke-width="1" fill="none" fill-rule="evenodd">
        <g id="cone">
            <path d="M140,70 C140,108.66 108.659,140 70,140 C31.34,140 0,108.66 0,70 C0,31.34 31.34,0 70,0 C108.659,0 140,31.34 140,70" id="circle" fill="#91BFE3"></path>
            <g id="picto" transform="translate(27.109700, 15.966400)">
                <path d="M53.0026,26.462 C53.0026,26.46 53.0026,26.459 53.0016,26.457 L43.5996,0.601 L43.5996,0.6 C43.4016,0.059 43.0376,0 42.8906,0 L42.8896,0 C42.7416,0.001 42.3766,0.059 42.1816,0.601 L32.1526,28.178 L25.0226,47.788 L25.4106,47.761 L60.2236,47.761 C60.5346,47.761 60.8176,47.958 60.9266,48.251 L53.0026,26.462 Z" id="Fill-5" fill="#2167AE"></path>
                <path d="M19.696,63.8097 L66.084,63.8097 C66.384,63.8097 66.655,63.9997 66.756,64.2827 L68.463,68.9777 L68.463,68.9767 L60.926,48.2507 C60.818,47.9577 60.535,47.7607 60.223,47.7607 L25.411,47.7607 L25.022,47.7887 L25.021,47.7887 L18.314,66.2347 L19.025,64.2797 C19.125,63.9997 19.395,63.8097 19.696,63.8097" id="Fill-9" fill="#DAD2BD"></path>
                <path d="M68.4626,68.9777 L66.7556,64.2827 C66.6546,63.9997 66.3846,63.8097 66.0836,63.8097 L19.6956,63.8097 C19.3956,63.8097 19.1246,63.9997 19.0246,64.2797 L18.3146,66.2347 L8.3416,93.6587 L77.4386,93.6587 L68.4626,68.9777 Z" id="Fill-11" fill="#2167AE"></path>
                <path d="M83.03,93.6583 L77.438,93.6583 L8.342,93.6583 L2.75,93.6583 C1.231,93.6583 0,94.8893 0,96.4083 C0,97.9273 1.231,99.1583 2.75,99.1583 L83.03,99.1583 C84.549,99.1583 85.78,97.9273 85.78,96.4083 C85.78,94.8893 84.549,93.6583 83.03,93.6583" id="Fill-13" fill="#5495CF"></path>
            </g>
        </g>
    </g>
</svg>