<?xml version="1.0" encoding="UTF-8"?>
<svg width="140px" height="140px" viewBox="0 0 140 140" version="1.1" xmlns="http://www.w3.org/2000/svg" xmlns:xlink="http://www.w3.org/1999/xlink">
    <title>pictogram/dark/communication/document/blank</title>
    <g id="pictogram/dark/communication/document/blank" stroke="none" stroke-width="1" fill="none" fill-rule="evenodd">
        <g id="document-blank">
            <path d="M140,70 C140,108.66 108.659,140 70,140 C31.34,140 0,108.66 0,70 C0,31.34 31.34,0 70,0 C108.659,0 140,31.34 140,70" id="circle" fill="#91BFE3"></path>
            <g id="picto" transform="translate(27.807800, 27.966700)">
                <path d="M76.159,10.389 C76.159,4.66 71.499,0 65.77,0 L10.251,0 C4.598,0 0,4.599 0,10.251 L0,65.728 C0,71.48 4.68,76.16 10.431,76.16 L15.981,76.161 C16.672,76.161 17.231,75.601 17.231,74.911 C17.231,74.566 17.092,74.254 16.865,74.027 L74.026,16.866 C74.252,17.092 74.565,17.232 74.91,17.232 C75.6,17.232 76.16,16.672 76.16,15.982 L76.159,10.389 Z" id="Fill-4" fill="#DAD2BD"></path>
                <path d="M80.5037,14.7323 L24.9827,14.7323 C19.3307,14.7323 14.7327,19.3313 14.7327,24.9833 L14.7327,80.4603 C14.7327,86.2123 19.4117,90.8923 25.1647,90.8923 L60.1577,90.8933 C60.8487,90.8933 61.4077,90.3333 61.4077,89.6433 C61.4077,89.2973 61.2677,88.9843 61.0407,88.7583 L88.7597,60.9793 C88.9847,61.2043 89.2977,61.3443 89.6427,61.3443 C90.3327,61.3443 90.8927,60.7843 90.8927,60.0943 L90.8927,25.1213 C90.8927,19.3923 86.2327,14.7323 80.5037,14.7323" id="Fill-6" fill="#2167AE"></path>
                <path d="M90.7732,59.6595 C90.5802,59.1925 90.1242,58.8885 89.6192,58.8885 L66.0712,58.8885 C62.1322,58.8885 58.9282,62.0925 58.9282,66.0315 L58.9282,89.6465 C58.9282,90.1525 59.2332,90.6085 59.7012,90.8015 C59.8552,90.8655 60.0172,90.8965 60.1782,90.8965 C60.5032,90.8965 60.8242,90.7695 61.0632,90.5295 L90.5032,61.0215 C90.8612,60.6635 90.9672,60.1265 90.7732,59.6595" id="Fill-8" fill="#5495CF"></path>
            </g>
        </g>
    </g>
</svg>