<?xml version="1.0" encoding="UTF-8"?>
<svg width="140px" height="140px" viewBox="0 0 140 140" version="1.1" xmlns="http://www.w3.org/2000/svg" xmlns:xlink="http://www.w3.org/1999/xlink">
    <title>pictogram/dark/communication/document/check</title>
    <g id="pictogram/dark/communication/document/check" stroke="none" stroke-width="1" fill="none" fill-rule="evenodd">
        <g id="document-check">
            <path d="M70,0 L70,0 C108.659,0 140,31.34 140,70 C140,108.66 108.659,140 70,140 C31.34,140 0,108.66 0,70 C0,31.34 31.34,0 70,0" id="circle" fill="#91BFE3"></path>
            <g id="picto" transform="translate(25.848200, 25.879579)">
                <path d="M69.432,0.00492121151 L32.428,0.00392121151 C31.738,0.00392121151 31.178,0.563921212 31.178,1.25392121 C31.178,1.59892121 31.319,1.91192121 31.545,2.13792121 L2.133,31.6149212 C1.908,31.3889212 1.595,31.2499212 1.25,31.2499212 C0.56,31.2499212 0,31.8089212 0,32.4999212 L0,69.4819212 C0,75.4999212 4.897,80.3959212 10.914,80.3959212 L69.623,80.3959212 C75.561,80.3959212 80.391,75.5649212 80.391,69.6279212 L80.391,10.9639212 C80.391,4.92192121 75.475,0.00492121151 69.432,0.00492121151" id="Fill-4" fill="#2167AE"></path>
                <path d="M32.8842,0.0948212115 C32.4182,-0.0981787885 31.8792,0.00882121151 31.5222,0.366821212 L0.3902,31.5698212 C0.0322,31.9278212 -0.0738,32.4658212 0.1202,32.9318212 C0.3142,33.3988212 0.7702,33.7028212 1.2752,33.7028212 L26.1752,33.7028212 C30.3002,33.7028212 33.6562,30.3468212 33.6562,26.2218212 L33.6562,1.24982121 C33.6562,0.743821212 33.3522,0.287821212 32.8842,0.0948212115" id="Fill-6" fill="#5495CF"></path>
                <path d="M88.8354,71.3142212 C88.8354,80.9702212 81.0084,88.7972212 71.3524,88.7972212 C61.6964,88.7972212 53.8694,80.9702212 53.8694,71.3142212 C53.8694,61.6582212 61.6964,53.8312212 71.3524,53.8312212 C81.0084,53.8312212 88.8354,61.6582212 88.8354,71.3142212" id="Fill-8" fill="#DAD2BD"></path>
                <path d="M69.4047,78.4134212 C69.0737,78.4134212 68.7557,78.2824212 68.5207,78.0474212 L62.6787,72.2054212 C62.1907,71.7174212 62.1907,70.9254212 62.6787,70.4374212 C63.1677,69.9494212 63.9587,69.9494212 64.4467,70.4374212 L69.3207,75.3124212 L78.1807,64.6894212 C78.6237,64.1594212 79.4117,64.0874212 79.9417,64.5304212 C80.4717,64.9724212 80.5437,65.7604212 80.1007,66.2914212 L70.3647,77.9644212 C70.1397,78.2334212 69.8117,78.3964212 69.4617,78.4124212 C69.4417,78.4134212 69.4237,78.4134212 69.4047,78.4134212" id="Fill-10" fill="#2167AE"></path>
            </g>
        </g>
    </g>
</svg>