<?xml version="1.0" encoding="UTF-8"?>
<svg width="140px" height="140px" viewBox="0 0 140 140" version="1.1" xmlns="http://www.w3.org/2000/svg" xmlns:xlink="http://www.w3.org/1999/xlink">
    <title>pictogram/light/finance/speaker-chart</title>
    <g id="pictogram/light/finance/speaker-chart" stroke="none" stroke-width="1" fill="none" fill-rule="evenodd">
        <g id="speaker-chart" transform="translate(-0.000000, 0.000000)">
            <path d="M0,70 C0,31.34 31.34,0 70,0 C108.66,0 140,31.34 140,70 C140,108.66 108.66,140 70,140 C31.34,140 0,108.66 0,70" id="circle" fill="#DDE4E3"></path>
            <g id="picto" transform="translate(5.240200, 16.458100)">
                <path d="M89.333,78.3656 C88.307,77.0806 87.271,75.9916 86.23,75.0396 C86.131,74.9456 86.03,74.8656 85.931,74.7746 C85.662,74.5366 85.393,74.2906 85.123,74.0716 C82.999,72.2986 80.846,71.1416 78.669,70.3736 C76.944,69.7656 75.206,69.4046 73.455,69.1946 C72.264,69.0516 71.065,68.9736 69.864,68.9346 C68.39,68.8866 66.907,68.8903469 65.42,68.8903469 L43.312,68.8926 L27.848,68.8946 L25.135,68.8903469 C18.409,68.8903469 11.788,68.7656 5.432,74.0716 C5.162,74.2906 4.893,74.5366 4.624,74.7746 C4.524,74.8656 4.424,74.9456 4.324,75.0396 C3.283,75.9916 2.248,77.0806 1.222,78.3656 C0.869,78.8066 0.452,79.4216 0,80.1286 C7.181,97.5996 21.219,111.5256 38.767,118.5516 L38.018,102.0756 L52.564,102.0756 L51.45,122.2766 C55.759,123.1066 60.208,123.5416 64.76,123.5416 C78.909,123.5416 92.067,119.3306 103.078,112.1116 C99.979,102.9816 92.481,82.9746 90.86,80.6106 C90.29,79.6966 89.764,78.9056 89.333,78.3656" id="Fill-4" fill="#2167AE"></path>
                <path d="M38.0176,102.0761 L38.7666,118.5521 C42.8216,120.1751 47.0626,121.4321 51.4506,122.2771 L52.5646,102.0761 L38.0176,102.0761 Z" id="Fill-6" fill="#5495CF"></path>
                <path d="M74.0273,30.827 C74.0273,47.852 61.1713,61.654 45.3123,61.654 C29.4543,61.654 16.5973,47.852 16.5973,30.827 C16.5973,13.802 29.4543,0 45.3123,0 C61.1713,0 74.0273,13.802 74.0273,30.827" id="Fill-8" fill="#23366F"></path>
                <path d="M61.168,69.0184 C61.168,69.0184 59.602,61.9644 58.751,58.4554 C58.221,56.2674 58.69,54.4354 60.173,52.8754 C61.538,51.4384 62.776,49.9144 63.57,48.0134 C65.826,42.6024 66.458,36.9024 66.304,31.0484 C66.283,30.2734 66.124,29.7754 65.739,29.4844 C65.444,29.2604 65.019,29.1554 64.399,29.1584 C56.591,29.2014 49.914,25.2974 42.988,22.2424 C35.718,19.0354 25.326,23.2734 24.174,30.2944 C24.122,38.6004 24.375,46.7954 30.502,53.1624 C31.615,54.3204 32.156,55.8804 31.805,57.5394 C30.988,61.3814 29.174,69.0214 29.174,69.0214 C29.174,69.0214 33.524,80.3644 45.328,80.3644 C57.131,80.3644 61.168,69.0184 61.168,69.0184" id="Fill-10" fill="#5495CF"></path>
                <path d="M82.7305,41.0575 C82.1845,41.0575 81.6375,40.8605 81.2055,40.4605 C80.2925,39.6175 80.2355,38.1935 81.0785,37.2815 L91.7765,25.6965 C92.2205,25.2155 92.8675,24.9525 93.5085,24.9745 C94.1645,24.9975 94.7765,25.3055 95.1865,25.8175 L102.5345,34.9965 L114.6205,21.6985 C115.4565,20.7785 116.8775,20.7105 117.7985,21.5465 C118.7175,22.3815 118.7865,23.8045 117.9505,24.7245 L104.0905,39.9745 C103.6485,40.4625 102.9955,40.7305 102.3555,40.7105 C101.6975,40.6895 101.0815,40.3815 100.6685,39.8675 L93.3075,30.6715 L84.3845,40.3335 C83.9415,40.8145 83.3365,41.0575 82.7305,41.0575" id="Fill-12" fill="#91BFE3"></path>
                <path d="M116.7715,29.9526 C115.6675,29.9526 114.7715,29.0576 114.7715,27.9526 L114.7715,24.8466 L111.6665,24.8466 C110.5615,24.8466 109.6665,23.9516 109.6665,22.8466 C109.6665,21.7416 110.5615,20.8466 111.6665,20.8466 L116.7715,20.8466 C117.8755,20.8466 118.7715,21.7416 118.7715,22.8466 L118.7715,27.9526 C118.7715,29.0576 117.8755,29.9526 116.7715,29.9526" id="Fill-14" fill="#91BFE3"></path>
                <path d="M85.6494,47.5059 L85.6494,47.5059 C88.3354,47.5059 90.5114,49.6829 90.5114,52.3689 L90.5114,62.5809 C90.5114,65.2669 88.3354,67.4439 85.6494,67.4439 C82.9634,67.4439 80.7864,65.2669 80.7864,62.5809 L80.7864,52.3689 C80.7864,49.6829 82.9634,47.5059 85.6494,47.5059" id="Fill-16" fill="#2167AE"></path>
                <path d="M98.7793,50.4237 L98.7793,50.4237 C101.4653,50.4237 103.6413,52.6007 103.6413,55.2867 L103.6413,62.5807 C103.6413,65.2667 101.4653,67.4437 98.7793,67.4437 C96.0933,67.4437 93.9163,65.2667 93.9163,62.5807 L93.9163,55.2867 C93.9163,52.6007 96.0933,50.4237 98.7793,50.4237" id="Fill-18" fill="#2167AE"></path>
                <path d="M111.9092,39.7254 L111.9092,39.7254 C114.5952,39.7254 116.7712,41.9024 116.7712,44.5884 L116.7712,62.5804 C116.7712,65.2664 114.5952,67.4434 111.9092,67.4434 C109.2222,67.4434 107.0462,65.2664 107.0462,62.5804 L107.0462,44.5884 C107.0462,41.9024 109.2222,39.7254 111.9092,39.7254" id="Fill-20" fill="#2167AE"></path>
                <path d="M54.8867,90.663 C49.6847,95.935 41.1797,95.978 35.8917,90.759 C30.6037,85.54 30.5347,77.036 35.7377,71.764 C40.9417,66.492 49.4457,66.449 54.7337,71.668 C60.0217,76.887 60.0907,85.391 54.8867,90.663" id="Fill-22" fill="#91BFE3"></path>
                <path d="M54.6738,102.0457 L35.9638,102.075707 C33.8918,102.0797 32.2068,100.4057 32.1968,98.3337 L32.1547641,93.0637 C32.1458,90.9827 33.8278,89.2897 35.9088,89.2867 L54.6188,89.256696 C56.6918,89.2537 58.3748,90.9267 58.3848,92.9987 L58.4268444,98.2687 C58.4368,100.3497 56.7548,102.0427 54.6738,102.0457" id="Fill-24" fill="#23366F"></path>
            </g>
        </g>
    </g>
</svg>