<?xml version="1.0" encoding="UTF-8"?>
<svg width="140px" height="140px" viewBox="0 0 140 140" version="1.1" xmlns="http://www.w3.org/2000/svg" xmlns:xlink="http://www.w3.org/1999/xlink">
    <title>pictogram/finance/analytics</title>
    <g id="pictogram/finance/analytics" stroke="none" stroke-width="1" fill="none" fill-rule="evenodd">
        <g id="analytics" transform="translate(-0.000000, 0.000000)">
            <path d="M70,0 L70,0 C108.66,0 140,31.34 140,70 C140,108.66 108.66,140 70,140 C31.34,140 0,108.66 0,70 C0,31.34 31.34,0 70,0" id="circle" fill="#91BFE3"></path>
            <g id="picto" transform="translate(35.825100, 14.034511)">
                <g id="Group-12" fill="#5495CF">
                    <path d="M6,9.88888857 L7,9.88888857 C10.313,9.88888857 13,12.5748886 13,15.8888886 L13,48.6558886 C13,51.9698886 10.313,54.6558886 7,54.6558886 L6,54.6558886 C2.686,54.6558886 0,51.9698886 0,48.6558886 L0,15.8888886 C0,12.5748886 2.686,9.88888857 6,9.88888857" id="Fill-4"></path>
                    <path d="M42.8995,19.8836886 L43.8995,19.8836886 C47.2125,19.8836886 49.8995,22.5696886 49.8995,25.8836886 L49.8995,48.6566886 C49.8995,51.9696886 47.2135,54.6566886 43.8995,54.6566886 L42.8995,54.6566886 C39.5865,54.6566886 36.8995,51.9696886 36.8995,48.6566886 L36.8995,25.8836886 C36.8995,22.5696886 39.5865,19.8836886 42.8995,19.8836886" id="Fill-6"></path>
                    <path d="M61.3492,6.96528857 L62.3492,6.96528857 C65.6632,6.96528857 68.3492,9.65128857 68.3492,12.9652886 L68.3492,48.9432886 C68.3492,52.2562886 65.6632,54.9432886 62.3492,54.9432886 L61.3492,54.9432886 C58.0362,54.9432886 55.3492,52.2562886 55.3492,48.9432886 L55.3492,12.9652886 C55.3492,9.65128857 58.0362,6.96528857 61.3492,6.96528857" id="Fill-8"></path>
                    <path d="M24.4009,0.00818856675 L25.4009,-1.42108547e-14 C28.7139,-0.0258114333 31.4219,2.64018857 31.4469,5.95318857 L31.4489,48.6061886 C31.4749,51.9201886 28.8099,54.6271886 25.4959,54.6531886 L24.4959,54.6603772 C21.1829,54.6861886 18.4759,52.0211886 18.4499,48.7071886 L18.4479,6.05518857 C18.4219,2.74118857 21.0879,0.0341885667 24.4009,0.00818856675" id="Fill-10"></path>
                </g>
                <path d="M58.8213,121.599089 L49.1523,108.540089 C44.6613,110.957089 39.5953,112.232089 34.4653,112.232089 C26.1793,112.232089 18.3893,109.005089 12.5303,103.145089 C6.6723,97.2870886 3.4453,89.4970886 3.4453,81.2110886 C3.4453,72.9260886 6.6723,65.1360886 12.5303,59.2780886 C18.3893,53.4190886 26.1793,50.1920886 34.4653,50.1920886 C42.7503,50.1920886 50.5403,53.4190886 56.3993,59.2780886 C62.2583,65.1370886 65.4853,72.9260886 65.4853,81.2110886 C65.4853,89.9910886 61.7413,98.3940886 55.2123,104.272089 L65.8023,118.582089 L65.1543,118.898089 C63.2823,119.809089 61.2943,120.664089 59.2463,121.439089 L58.8213,121.599089 Z" id="Fill-13" fill="#2167AE"></path>
                <path d="M58.7789,81.5912886 C58.7789,95.0182886 47.8949,105.902289 34.4679,105.902289 C21.0419,105.902289 10.1569,95.0182886 10.1569,81.5912886 C10.1569,68.1652886 21.0419,57.2802886 34.4679,57.2802886 C47.8949,57.2802886 58.7789,68.1652886 58.7789,81.5912886" id="Fill-15" fill="#DAD2BD"></path>
            </g>
        </g>
    </g>
</svg>