<?xml version="1.0" encoding="UTF-8"?>
<svg width="140px" height="140px" viewBox="0 0 140 140" version="1.1" xmlns="http://www.w3.org/2000/svg" xmlns:xlink="http://www.w3.org/1999/xlink">
    <title>pictogram/finance/benchmark</title>
    <g id="pictogram/finance/benchmark" stroke="none" stroke-width="1" fill="none" fill-rule="evenodd">
        <g id="benchmark" transform="translate(-0.000000, 0.000000)">
            <path d="M140,70 C140,108.66 108.66,140 70,140 C31.34,140 0,108.66 0,70 C0,31.34 31.34,0 70,0 C108.66,0 140,31.34 140,70" id="circle" fill="#91BFE3"></path>
            <g id="picto" transform="translate(35.418900, 17.519400)">
                <g id="Group" transform="translate(0.000000, 29.455911)" fill="#5495CF">
                    <path d="M6,9.88878857 L7,9.88878857 C10.314,9.88878857 13,12.5747886 13,15.8887886 L13,48.6557886 C13,51.9697886 10.314,54.6557886 7,54.6557886 L6,54.6557886 C2.687,54.6557886 0,51.9697886 0,48.6557886 L0,15.8887886 C0,12.5747886 2.687,9.88878857 6,9.88878857" id="Fill-4"></path>
                    <path d="M42.8994,19.8836886 L43.8994,19.8836886 C47.2134,19.8836886 49.8994,22.5696886 49.8994,25.8836886 L49.8994,48.6556886 C49.8994,51.9696886 47.2134,54.6556886 43.8994,54.6566886 L42.8994,54.6566886 C39.5864,54.6566886 36.8994,51.9696886 36.8994,48.6566886 L36.8994,25.8836886 C36.8994,22.5696886 39.5864,19.8836886 42.8994,19.8836886" id="Fill-6"></path>
                    <path d="M61.3496,6.96518857 L62.3496,6.96518857 C65.6626,6.96518857 68.3496,9.65118857 68.3496,12.9651886 L68.3496,48.9431886 C68.3496,52.2561886 65.6626,54.9431886 62.3496,54.9431886 L61.3496,54.9431886 C58.0356,54.9431886 55.3496,52.2561886 55.3496,48.9431886 L55.3496,12.9651886 C55.3496,9.65118857 58.0356,6.96518857 61.3496,6.96518857" id="Fill-8"></path>
                    <path d="M24.4009,0.00818856675 L25.4009,0 C28.7139,-0.0258114333 31.4219,2.64018857 31.4479,5.95318857 L31.4489,48.6061886 C31.4749,51.9201886 28.8099,54.6271886 25.4969,54.6531886 L24.4969,54.6603772 C21.1829,54.6861886 18.4759,52.0211886 18.4499,48.7071886 L18.4479,6.05518857 C18.4219,2.74118857 21.0879,0.0341885667 24.4009,0.00818856675" id="Fill-10"></path>
                </g>
                <path d="M63.9966,0 L55.1756,0 C54.0716,0 53.1756,0.896 53.1756,2 C53.1756,3.104 54.0716,4 55.1756,4 L58.8716,4 L39.3236,25.51 L25.4306,8.154 C25.0216,7.643 24.4086,7.335 23.7536,7.312 C23.0866,7.289 22.4666,7.553 22.0216,8.034 L3.5406,28.045 C2.6976,28.958 2.7536,30.382 3.6666,31.225 C4.0996,31.625 4.6466,31.822 5.1926,31.822 C5.7986,31.822 6.4026,31.579 6.8466,31.099 L23.5526,13.009 L37.4586,30.381 C37.8706,30.895 38.4866,31.203 39.1446,31.224 C39.8026,31.244 40.4366,30.975 40.8796,30.488 L61.9966,7.251 L61.9966,10.821 C61.9966,11.925 62.8926,12.821 63.9966,12.821 C65.1006,12.821 65.9966,11.925 65.9966,10.821 L65.9966,2 C65.9966,0.896 65.1006,0 63.9966,0" id="Fill-13" fill="#ECEEEF"></path>
                <path d="M53.7515,119.8548 L45.8735,109.2148 C42.5165,110.9978 38.7385,111.9378 34.9125,111.9378 C28.6645,111.9378 22.7895,109.5048 18.3715,105.0858 C13.9525,100.6678 11.5195,94.7928 11.5195,88.5448 C11.5195,82.2968 13.9525,76.4218 18.3715,72.0038 C22.7895,67.5858 28.6645,65.1518 34.9125,65.1518 C41.1615,65.1518 47.0355,67.5858 51.4545,72.0038 C55.8725,76.4228 58.3055,82.2968 58.3055,88.5448 C58.3055,95.1208 55.5215,101.4148 50.6605,105.8438 L59.5885,117.9078 L58.8415,118.1858 C57.3715,118.7338 55.8375,119.2408 54.1535,119.7368 L53.7515,119.8548 Z" id="Fill-15" fill="#2167AE"></path>
                <path d="M53.2012,89.0283 C53.2012,99.0883 45.0462,107.2433 34.9862,107.2433 C24.9252,107.2433 16.7702,99.0883 16.7702,89.0283 C16.7702,78.9683 24.9252,70.8123 34.9862,70.8123 C45.0462,70.8123 53.2012,78.9683 53.2012,89.0283" id="Fill-17" fill="#DAD2BD"></path>
            </g>
        </g>
    </g>
</svg>