<?xml version="1.0" encoding="UTF-8"?>
<svg width="140px" height="140px" viewBox="0 0 140 140" version="1.1" xmlns="http://www.w3.org/2000/svg" xmlns:xlink="http://www.w3.org/1999/xlink">
    <title>pictogram/health/brain/wellbeing</title>
    <g id="pictogram/health/brain/wellbeing" stroke="none" stroke-width="1" fill="none" fill-rule="evenodd">
        <g id="brain-wellbeing" transform="translate(-0.000100, -0.000100)">
            <path d="M140,70 C140,108.66 108.66,140 70,140 C31.34,140 0,108.66 0,70 C0,31.34 31.34,0 70,0 C108.66,0 140,31.34 140,70" id="circle" fill="#91BFE3"></path>
            <g id="picto" transform="translate(14.699039, 26.435899)">
                <path d="M107.822361,32.9659008 C106.214361,30.8719008 104.107361,29.3959008 101.799361,28.5509008 C102.335361,24.5559008 101.343361,20.3569008 98.6943606,16.9069008 C95.1593606,12.3059008 89.5763606,10.2209008 84.2093606,10.9209008 C83.6423606,9.74290079 82.9503606,8.60390079 82.1223606,7.52590079 C75.6463606,-0.906099212 63.5603606,-2.49209921 55.1283606,3.98490079 C55.0103606,4.07490079 54.9083606,4.17790079 54.7933606,4.27090079 C52.2003606,3.09090079 49.3283606,2.41590079 46.2933606,2.41590079 C37.2213606,2.41590079 29.5363606,8.29890079 26.8073606,16.4529008 C22.1083606,14.9619008 16.7813606,15.7079008 12.5743606,18.9389008 C7.97436061,22.4719008 5.90136061,28.0659008 6.63236061,33.4289008 C5.82536061,33.7809008 5.04436061,34.2239008 4.31536061,34.7839008 C-0.51963939,38.4979008 -1.42863939,45.4269008 2.28436061,50.2619008 C4.45836061,53.0929008 7.73636061,54.5659008 11.0493606,54.5649008 L11.0383606,54.5769008 L45.1763606,54.5769008 C44.1393606,57.0819008 44.4253606,60.0539008 46.1953606,62.3579008 C48.4123606,65.2449008 52.2393606,66.1529008 55.4453606,64.8079008 L55.4453606,64.8099008 L70.4833606,85.4669008 C70.4833606,85.4669008 70.4883606,85.4779008 70.4983606,85.4989008 C70.6613606,85.8389008 73.0863606,88.9339008 76.1703606,88.9339008 C79.9993606,88.9339008 79.2723606,85.4679008 79.2723606,85.4669008 C79.1923606,85.3859008 77.1543606,66.3459008 77.1543606,66.3459008 L77.1523606,66.3299008 C81.6553606,69.9699008 88.2153606,70.2129008 93.0093606,66.5299008 C96.8153606,63.6069008 98.5193606,58.9689008 97.8843606,54.5349008 C100.505361,54.3999008 103.113361,53.5169008 105.352361,51.7969008 C111.234361,47.2789008 112.340361,38.8479008 107.822361,32.9659008" id="Fill-4" fill="#2167AE"></path>
                <path d="M68.6926606,23.5991008 C67.2916606,22.3331008 65.4856606,21.6891008 63.6036606,21.7821008 C63.5966606,21.7831008 63.5886606,21.7831008 63.5806606,21.7831008 C61.4046606,21.8981008 59.3766606,23.0351008 58.1356606,24.8281008 C58.1166606,24.8311008 58.0916606,24.8321008 58.0726606,24.8311008 C56.8716606,23.4081008 55.1966606,22.5271008 53.3436606,22.3481008 C51.4586606,22.1671008 49.6196606,22.7321008 48.1616606,23.9381008 C46.4406606,25.3611008 45.4816606,27.5451008 45.5956606,29.7991008 C45.7356606,31.4741008 46.4456606,33.0711008 47.5676606,34.2681008 C47.7046606,34.4331008 54.4246606,40.9271008 58.3916606,44.7571008 C58.5566606,44.9371008 58.7816606,45.0421008 59.0256606,45.0521008 C59.0546606,45.0531008 59.0826606,45.0531008 59.1106606,45.0521008 C59.3236606,45.0411008 59.5236606,44.9581008 59.6786606,44.8141008 C59.7646606,44.7371008 69.0796606,33.7231008 69.5026606,33.1991008 L69.5036606,33.1991008 C70.5166606,31.8641008 71.0576606,30.2061008 71.0286606,28.5071008 C70.9286606,26.6121008 70.0996606,24.8691008 68.6926606,23.5991008 L68.6926606,23.5991008 Z" id="Fill-6" fill="#DAD2BD"></path>
            </g>
        </g>
    </g>
</svg>