<?xml version="1.0" encoding="UTF-8"?>
<svg width="140px" height="140px" viewBox="0 0 140 140" version="1.1" xmlns="http://www.w3.org/2000/svg" xmlns:xlink="http://www.w3.org/1999/xlink">
    <title>pictogram/device/camera</title>
    <g id="pictogram/device/camera" stroke="none" stroke-width="1" fill="none" fill-rule="evenodd">
        <g id="camera">
            <path d="M140,70 C140,108.66 108.659,140 70,140 C31.34,140 0,108.66 0,70 C0,31.34 31.34,0 70,0 C108.659,0 140,31.34 140,70" id="circle" fill="#91BFE3"></path>
            <g id="picto" transform="translate(20.527100, 32.196900)">
                <path d="M61.3459,0 L37.5989,0 C34.3249,0 31.6619,2.795 31.6619,6.23 L31.6619,9.673 L35.6199,9.673 L63.3249,9.673 L63.3249,9.895 L67.2829,9.895 L67.2829,6.23 C67.2829,2.795 64.6189,0 61.3459,0" id="Fill-4" fill="#5495CF"></path>
                <path d="M85.092,7.9155 L13.853,7.9155 C6.214,7.9155 0,14.4845 0,22.5595 L0,60.5535 C0,68.6285 6.214,75.1975 13.853,75.1975 L85.092,75.1975 C92.731,75.1975 98.945,68.6285 98.945,60.5535 L98.945,22.5595 C98.945,14.4845 92.731,7.9155 85.092,7.9155" id="Fill-6" fill="#2167AE"></path>
                <path d="M89.05,21.7678 C89.05,23.9538 87.279,25.7258 85.093,25.7258 C82.906,25.7258 81.135,23.9538 81.135,21.7678 C81.135,19.5818 82.906,17.8098 85.093,17.8098 C87.279,17.8098 89.05,19.5818 89.05,21.7678" id="Fill-8" fill="#5495CF"></path>
                <path d="M49.4729,18.9723 C37.0199,18.9723 26.8879,29.1043 26.8879,41.5563 C26.8879,54.0093 37.0199,64.1413 49.4729,64.1413 C61.9249,64.1413 72.0569,54.0093 72.0569,41.5563 C72.0569,29.1043 61.9249,18.9723 49.4729,18.9723" id="Fill-10" fill="#5495CF"></path>
                <path d="M49.4729,23.7466 C39.6529,23.7466 31.6619,31.7366 31.6619,41.5566 C31.6619,51.3766 39.6529,59.3666 49.4729,59.3666 C59.2919,59.3666 67.2829,51.3766 67.2829,41.5566 C67.2829,31.7366 59.2919,23.7466 49.4729,23.7466" id="Fill-12" fill="#DAD2BD"></path>
            </g>
        </g>
    </g>
</svg>