<?xml version="1.0" encoding="UTF-8"?>
<svg width="140px" height="140px" viewBox="0 0 140 140" version="1.1" xmlns="http://www.w3.org/2000/svg" xmlns:xlink="http://www.w3.org/1999/xlink">
    <title>pictogram/environment/camping</title>
    <g id="pictogram/environment/camping" stroke="none" stroke-width="1" fill="none" fill-rule="evenodd">
        <g id="camping" transform="translate(-0.000000, -0.000100)">
            <path d="M140,70 C140,108.66 108.66,140 70,140 C31.34,140 0,108.66 0,70 C0,31.34 31.34,0 70,0 C108.66,0 140,31.34 140,70" id="circle" fill="#91BFE3"></path>
            <g id="picto" transform="translate(29.226194, 23.052794)">
                <path d="M73.5580058,9.67400569 L73.5590058,9.67100569 C73.4730058,9.64700569 73.3870058,9.62400569 73.3030058,9.60100569 C73.3000058,9.60000569 73.2980058,9.60000569 73.2940058,9.59900569 C70.5720058,8.85800569 68.6990058,8.22000569 66.9030058,5.28000569 L66.9020058,5.28300569 C64.9040058,2.11300569 61.3770058,0.00400569349 57.3540058,0 C53.3290058,-0.00399430651 49.7990058,2.10000569 47.7960058,5.26500569 L47.7930058,5.26300569 C45.9930058,8.20000569 44.1190058,8.83500569 41.3950058,9.57000569 C41.3910058,9.57100569 41.3900058,9.57300569 41.3860058,9.57300569 C41.3020058,9.59600569 41.2170058,9.61800569 41.1310058,9.64200569 L41.1310058,9.64500569 C36.3160058,11.0030057 32.7830058,15.4240057 32.7780006,20.6740057 C32.7720058,27.0100057 37.9040058,32.1510057 44.2390058,32.1560057 L70.4110058,32.1800093 C76.7460058,32.1850057 81.8860058,27.0540057 81.8910135,20.7180057 C81.8970058,15.4670057 78.3710058,11.0410057 73.5580058,9.67400569" id="Fill-4" fill="#2167AE"></path>
                <path d="M36.7020058,18.0960057 L36.7030058,18.0930057 C36.6250058,18.0730057 36.5480058,18.0510057 36.4730058,18.0310057 C36.4700058,18.0300057 36.4670058,18.0290057 36.4650058,18.0290057 C34.0140058,17.3620057 32.3280058,16.7870057 30.7130058,14.1420057 L30.7110058,14.1430057 C28.9140058,11.2910057 25.7390058,9.39200569 22.1170058,9.38900213 C18.4960058,9.38600569 15.3180058,11.2790057 13.5160058,14.1280057 L13.5140058,14.1260057 C11.8930058,16.7690057 10.2060058,17.3410057 7.75500584,18.0030057 C7.75200584,18.0040057 7.75000584,18.0040057 7.74700584,18.0050057 C7.67100584,18.0260057 7.59500584,18.0460057 7.51700584,18.0670057 L7.51700584,18.0700057 C3.18400584,19.2920057 0.00400583754,23.2710057 0,27.9970057 C-0.00599416246,33.6980057 4.61400584,38.3260057 10.3150058,38.3300057 L33.8680058,38.3510097 C39.5710058,38.3560057 44.1970058,33.7380057 44.2020117,28.0350057 C44.2070058,23.3100057 41.0340058,19.3260057 36.7020058,18.0960057" id="Fill-6" fill="#5495CF"></path>
                <path d="M65.2474058,34.2579057 C65.0204058,35.9019057 64.3014058,37.4389057 63.1844058,38.6649057 L62.6674058,39.2319057 C62.5384058,39.3749057 62.3004058,39.2839057 62.3004058,39.0899057 L62.3044058,32.1729057 L53.1504058,32.1639057 L53.1454058,43.8739057 C53.1434058,44.0159057 52.9634058,44.0759057 52.8774058,43.9619057 C50.8924058,41.3179057 49.5044058,38.2039057 48.8614058,34.9609057 L47.3224058,27.1909057 L44.6584058,27.1909057 L46.2964058,35.4679057 C47.0154058,39.0949057 48.5674058,42.5739057 50.7864058,45.5309057 L52.7574058,48.0269057 C53.0064058,48.3429057 53.1424058,48.7339057 53.1424058,49.1359057 L53.1184058,93.8869057 L62.2714058,93.8949057 L62.2974058,44.3269057 C62.2984058,43.7899057 62.5004058,43.2709057 62.8644058,42.8759057 L65.1174058,40.4249057 C66.5964058,38.7999057 67.5364058,36.7919057 67.8364058,34.6159057 L68.5204058,29.6519057 L65.8824058,29.6519057 L65.2474058,34.2579057 Z" id="Fill-8" fill="#DAD2BD"></path>
                <path d="M29.2225058,40.2215057 C29.0185058,41.7015057 28.3715058,43.0845057 27.3655058,44.1885057 L26.9015058,44.6995057 C26.7835058,44.8275057 26.5705058,44.7445057 26.5705058,44.5705057 L26.5735058,38.3445057 L18.3345058,38.3375057 L18.3295058,48.8755057 C18.3295058,49.0035057 18.1665058,49.0575057 18.0895058,48.9555057 C16.3035058,46.5755057 15.0535058,43.7725057 14.4745058,40.8535057 L13.0895058,33.8615057 L10.6915058,33.8615057 L12.1665058,41.3105057 C12.8135058,44.5745057 14.2105058,47.7065057 16.2085058,50.3675057 L17.9805058,52.6135057 C18.2055058,52.8985057 18.3275058,53.2495057 18.3275058,53.6125057 L18.3055058,93.8875057 L26.5445058,93.8945057 L26.5685058,49.2845057 C26.5685058,48.8005057 26.7495058,48.3335057 27.0775058,47.9785057 L29.1055058,45.7715057 C30.4365058,44.3095057 31.2825058,42.5015057 31.5525058,40.5425057 L32.1695058,36.0755057 L29.7945058,36.0755057 L29.2225058,40.2215057 Z" id="Fill-10" fill="#DAD2BD"></path>
                <path d="M72.9901058,93.7274057 L49.1651058,60.7854057 C49.0711058,60.6544057 48.9201058,60.5784057 48.7601058,60.5784057 L24.9351058,60.5784057 C24.8181058,60.5784057 24.7161058,60.6304057 24.6271058,60.7024057 L42.4291058,94.4984057 L72.5851058,94.5204057 C72.7731058,94.5204057 72.9451058,94.4144057 73.0301058,94.2484057 C73.1151058,94.0804057 73.1001058,93.8794057 72.9901058,93.7274057" id="Fill-12" fill="#5495CF"></path>
                <path d="M42.4296058,94.4979057 L24.6326058,60.7109057 L24.6316058,60.7109057 L24.6016058,60.6529057 L24.3286058,61.1059057 L4.02660584,93.7559057 C3.93060584,93.9109057 3.92560584,94.1039057 4.01360584,94.2639057 C4.10260584,94.4219057 4.26960584,94.5199057 4.45060584,94.5199057 L24.9346058,94.5199057 L42.4296058,94.4979057 Z" id="Fill-16" fill="#2167AE"></path>
                <path d="M23.7459058,74.2486057 C23.4019058,74.7076057 11.2089058,94.4976057 11.2089058,94.4976057 L33.3719058,94.4976057 L23.7459058,74.2486057 Z" id="Fill-18" fill="#23366F"></path>
            </g>
        </g>
    </g>
</svg>