<?xml version="1.0" encoding="UTF-8"?>
<svg width="140px" height="140px" viewBox="0 0 140 140" version="1.1" xmlns="http://www.w3.org/2000/svg" xmlns:xlink="http://www.w3.org/1999/xlink">
    <title>pictogram/mobility/car/protection</title>
    <g id="pictogram/mobility/car/protection" stroke="none" stroke-width="1" fill="none" fill-rule="evenodd">
        <g id="car-protection" transform="translate(0.000400, 0.000000)">
            <path d="M140,70 C140,108.66 108.659,140 70,140 C31.34,140 0,108.66 0,70 C0,31.34 31.34,0 70,0 C108.659,0 140,31.34 140,70" id="circle" fill="#91BFE3"></path>
            <g id="picto" transform="translate(22.337400, 15.392627)">
                <path d="M93.896,18.2414734 L48.581,0.192473366 C48.038,-0.0455266343 47.405,-0.0715266343 46.816,0.163473366 L1.428,18.2414734 C0.565,18.5854734 -1.42108547e-14,19.4204734 -1.42108547e-14,20.3494734 L-1.42108547e-14,58.0774734 C-1.42108547e-14,60.5724734 0.537,82.8114734 19.159,95.5624734 C28.751,102.132473 34.388,105.579473 38.501,108.095473 C41.408,109.872473 43.705,111.274473 46.231,113.065473 C46.664,113.370473 47.157,113.517473 47.661,113.478473 C47.701,113.482473 47.74,113.482473 47.781,113.482473 C48.18,113.482473 48.583,113.377473 48.948,113.159473 L50.348,112.319473 C55.854,109.024473 61.053,105.910473 76.165,95.5624734 C94.788,82.8114734 95.325,60.5724734 95.325,58.0774734 L95.325,20.3494734 C95.325,19.4204734 94.759,18.5854734 93.896,18.2414734" id="Fill-4" fill="#5495CF"></path>
                <path d="M29.1206,66.1876734 L18.9536,66.1876734 C18.2636,66.1876734 17.7036,66.7476734 17.7036,67.4376734 L17.7036,72.7196734 C17.7036,76.2396734 20.5136,79.1046734 23.9666,79.1046734 L24.1086,79.1046734 C27.5616,79.1046734 30.3706,76.2396734 30.3706,72.7196734 L30.3706,67.4376734 C30.3706,66.7476734 29.8106,66.1876734 29.1206,66.1876734" id="Fill-6" fill="#2167AE"></path>
                <path d="M76.3697,66.1876734 L66.4537,66.1876734 C65.7637,66.1876734 65.2037,66.7476734 65.2037,67.4376734 L65.2037,72.7196734 C65.2037,76.2396734 67.9577,79.1046734 71.3437,79.1046734 L71.4817,79.1046734 C74.8667,79.1046734 77.6197,76.2396734 77.6197,72.7196734 L77.6197,67.4376734 C77.6197,66.7476734 77.0597,66.1876734 76.3697,66.1876734" id="Fill-8" fill="#2167AE"></path>
                <path d="M24.9888,39.8541734 C24.9888,35.3051734 28.7208,31.6041734 33.3088,31.6041734 L62.0168,31.6041734 C66.6038,31.6041734 70.3358,35.3051734 70.3358,39.8541734 L70.3358,47.2521734 C69.2258,46.8931734 68.0408,46.6871734 66.8018,46.6871734 L28.5228,46.6871734 C27.2848,46.6871734 26.0978,46.8931734 24.9888,47.2521734 L24.9888,39.8541734 Z M72.8358,48.4091734 L72.8358,39.8541734 C72.8358,33.9261734 67.9818,29.1041734 62.0168,29.1041734 L33.3088,29.1041734 C27.3428,29.1041734 22.4888,33.9261734 22.4888,39.8541734 L22.4888,48.4091734 C19.6048,50.2251734 17.7038,53.3041734 17.7038,56.7891734 L17.7038,67.8541734 C17.7038,68.5441734 18.2628,69.1041734 18.9538,69.1041734 L76.3708,69.1041734 C77.0608,69.1041734 77.6208,68.5441734 77.6208,67.8541734 L77.6208,56.7891734 C77.6208,53.3041734 75.7198,50.2251734 72.8358,48.4091734 L72.8358,48.4091734 Z" id="Fill-10" fill="#91BFE3"></path>
                <path d="M27.5992,51.4376734 C24.7582,51.4376734 22.4472,53.7736734 22.4472,56.6456734 C22.4472,59.5176734 24.7582,61.8546734 27.5992,61.8546734 C30.4412,61.8546734 32.7532,59.5176734 32.7532,56.6456734 C32.7532,53.7736734 30.4412,51.4376734 27.5992,51.4376734" id="Fill-12" fill="#DAD2BD"></path>
                <path d="M67.6997,51.6197734 C64.9087,51.6197734 62.6377,53.9147734 62.6377,56.7367734 C62.6377,59.5587734 64.9087,61.8537734 67.6997,61.8537734 C70.4927,61.8537734 72.7637,59.5587734 72.7637,56.7367734 C72.7637,53.9147734 70.4927,51.6197734 67.6997,51.6197734" id="Fill-14" fill="#DAD2BD"></path>
                <path d="M76.3706,48.2291734 L71.5856,48.2291734 C70.8946,48.2291734 70.3356,47.6691734 70.3356,46.9791734 C70.3356,46.2891734 70.8946,45.7291734 71.5856,45.7291734 L76.3706,45.7291734 C77.0606,45.7291734 77.6206,46.2891734 77.6206,46.9791734 C77.6206,47.6691734 77.0606,48.2291734 76.3706,48.2291734" id="Fill-20" fill="#91BFE3"></path>
                <path d="M23.7388,48.2291734 L18.9548,48.2291734 C18.2638,48.2291734 17.7048,47.6691734 17.7048,46.9791734 C17.7048,46.2891734 18.2638,45.7291734 18.9548,45.7291734 L23.7388,45.7291734 C24.4288,45.7291734 24.9888,46.2891734 24.9888,46.9791734 C24.9888,47.6691734 24.4288,48.2291734 23.7388,48.2291734" id="Fill-23" fill="#91BFE3"></path>
            </g>
        </g>
    </g>
</svg>