<?xml version="1.0" encoding="UTF-8"?>
<svg width="140px" height="140px" viewBox="0 0 140 140" version="1.1" xmlns="http://www.w3.org/2000/svg" xmlns:xlink="http://www.w3.org/1999/xlink">
    <title>pictogram/mobility/car/front</title>
    <g id="pictogram/mobility/car/front" stroke="none" stroke-width="1" fill="none" fill-rule="evenodd">
        <g id="car-front" transform="translate(-0.000400, 0.000000)">
            <path d="M140,70 C140,108.66 108.66,140 70,140 C31.341,140 0,108.66 0,70 C0,31.34 31.341,0 70,0 C108.66,0 140,31.34 140,70" id="circle" fill="#91BFE3"></path>
            <g id="picto" transform="translate(24.826000, 33.985500)">
                <path d="M81.2482,37.697 L9.1012,37.697 L9.1012,16.21 C9.1012,8.299 15.5612,1.885 23.5312,1.885 L66.8192,1.885 C74.7892,1.885 81.2482,8.299 81.2482,16.21 L81.2482,37.697 Z" id="Fill-4" fill="#91BFE3"></path>
                <path d="M9.8546,36.9431 L80.4946,36.9431 L80.4946,16.2101 C80.4946,8.7271 74.3596,2.6391 66.8186,2.6391 L23.5316,2.6391 C15.9906,2.6391 9.8546,8.7271 9.8546,16.2101 L9.8546,36.9431 Z M82.0016,38.4511 L8.3466,38.4511 L8.3466,16.2101 C8.3466,7.8951 15.1586,1.1311 23.5316,1.1311 L66.8186,1.1311 C75.1916,1.1311 82.0016,7.8951 82.0016,16.2101 L82.0016,38.4511 Z" id="Fill-6" fill="#5495CF"></path>
                <path d="M17.216,55.9175 L1.885,55.9175 C0.844,55.9175 0,56.7615 0,57.8025 L0,65.7665 C0,71.0755 4.237,75.3945 9.444,75.3945 L9.658,75.3945 C14.865,75.3945 19.101,71.0755 19.101,65.7665 L19.101,57.8025 C19.101,56.7615 18.257,55.9175 17.216,55.9175" id="Fill-8" fill="#2167AE"></path>
                <path d="M88.4621,55.9175 L73.5101,55.9175 C72.4691,55.9175 71.6251,56.7615 71.6251,57.8025 L71.6251,65.7665 C71.6251,71.0755 75.7771,75.3945 80.8831,75.3945 L81.0921,75.3945 C86.1951,75.3945 90.3471,71.0755 90.3471,65.7665 L90.3471,57.8025 C90.3471,56.7615 89.5031,55.9175 88.4621,55.9175" id="Fill-10" fill="#2167AE"></path>
                <path d="M10.9855,16.21 C10.9855,9.351 16.6135,3.77 23.5315,3.77 L66.8185,3.77 C73.7355,3.77 79.3635,9.351 79.3635,16.21 L79.3635,27.365 C77.6905,26.823 75.9025,26.514 74.0345,26.514 L16.3145,26.514 C14.4465,26.514 12.6585,26.823 10.9855,27.365 L10.9855,16.21 Z M83.1325,29.109 L83.1325,28.838 L88.4635,28.838 C89.5055,28.838 90.3485,27.995 90.3485,26.954 C90.3485,25.913 89.5055,25.068 88.4635,25.068 L83.1325,25.068 L83.1325,16.21 C83.1325,7.272 75.8145,0 66.8185,0 L23.5315,0 C14.5345,0 7.2155,7.272 7.2155,16.21 L7.2155,25.068 L1.8865,25.068 C0.8455,25.068 0.0025,25.913 0.0025,26.954 C0.0025,27.995 0.8455,28.838 1.8865,28.838 L7.2155,28.838 L7.2155,29.109 C2.8665,31.848 0.0005,36.49 0.0005,41.746 L0.0005,58.431 C0.0005,59.472 0.8435,60.315 1.8845,60.315 L88.4635,60.315 C89.5055,60.315 90.3485,59.472 90.3485,58.431 L90.3485,41.746 C90.3485,36.49 87.4815,31.848 83.1325,29.109 L83.1325,29.109 Z" id="Fill-12" fill="#5495CF"></path>
                <path d="M14.922,33.6763 C10.638,33.6763 7.152,37.1993 7.152,41.5303 C7.152,45.8603 10.638,49.3833 14.922,49.3833 C19.207,49.3833 22.693,45.8603 22.693,41.5303 C22.693,37.1993 19.207,33.6763 14.922,33.6763" id="Fill-14" fill="#DAD2BD"></path>
                <path d="M75.3888,33.9507 C71.1788,33.9507 67.7538,37.4117 67.7538,41.6667 C67.7538,45.9217 71.1788,49.3837 75.3888,49.3837 C79.5998,49.3837 83.0258,45.9217 83.0258,41.6667 C83.0258,37.4117 79.5998,33.9507 75.3888,33.9507" id="Fill-16" fill="#DAD2BD"></path>
                <path d="M55.1164,42.4749 L35.2324,42.4749 C34.3184,42.4749 33.5774,41.7339 33.5774,40.8189 C33.5774,39.9049 34.3184,39.1629 35.2324,39.1629 L55.1164,39.1629 C56.0304,39.1629 56.7714,39.9049 56.7714,40.8189 C56.7714,41.7339 56.0304,42.4749 55.1164,42.4749" id="Fill-20" fill="#2167AE"></path>
                <path d="M55.1164,49.1543 L35.2324,49.1543 C34.3184,49.1543 33.5774,48.4133 33.5774,47.4983 C33.5774,46.5843 34.3184,45.8423 35.2324,45.8423 L55.1164,45.8423 C56.0304,45.8423 56.7714,46.5843 56.7714,47.4983 C56.7714,48.4133 56.0304,49.1543 55.1164,49.1543" id="Fill-24" fill="#2167AE"></path>
            </g>
        </g>
    </g>
</svg>