<?xml version="1.0" encoding="UTF-8"?>
<svg width="140px" height="140px" viewBox="0 0 140 140" version="1.1" xmlns="http://www.w3.org/2000/svg" xmlns:xlink="http://www.w3.org/1999/xlink">
    <title>pictogram/finance/cash/check</title>
    <g id="pictogram/finance/cash/check" stroke="none" stroke-width="1" fill="none" fill-rule="evenodd">
        <g id="cash-check" transform="translate(-0.000500, 0.000000)">
            <path d="M140,70 C140,108.66 108.66,140 70,140 C31.341,140 0,108.66 0,70 C0,31.34 31.341,0 70,0 C108.66,0 140,31.34 140,70" id="circle" fill="#91BFE3"></path>
            <g id="picto" transform="translate(16.859026, 37.999800)">
                <g id="Group-10" transform="translate(0.000000, 7.050600)" fill="#5495CF">
                    <path d="M9.88907446,6 L9.88907446,7 C9.88907446,10.314 12.5760745,13 15.8890745,13 L57.5650745,13 C60.8780745,13 63.5650745,10.314 63.5650745,7 L63.5650745,6 C63.5650745,2.686 60.8780745,0 57.5650745,0 L15.8890745,0 C12.5760745,0 9.88907446,2.686 9.88907446,6" id="Fill-4"></path>
                    <path d="M19.8841745,42.9004 L19.8841745,43.9004 C19.8841745,47.2144 22.5711745,49.9004 25.8841745,49.9004 L57.5651745,49.9004 C60.8781745,49.9004 63.5651745,47.2144 63.5651745,43.9004 L63.5651745,42.9004 C63.5651745,39.5864 60.8781745,36.9004 57.5651745,36.9004 L25.8841745,36.9004 C22.5711745,36.9004 19.8841745,39.5864 19.8841745,42.9004" id="Fill-6"></path>
                    <path d="M0.00817446194,24.4019 L3.55271368e-15,25.4019 C-0.0248255381,28.7159 2.64017446,31.4229 5.95317446,31.4489 L57.5151745,31.4499 C60.8281745,31.4759 63.5351745,28.8109 63.5621745,25.4969 L63.5693631,24.4969 C63.5951745,21.1839 60.9301745,18.4769 57.6161745,18.4509 L6.05517446,18.4489 C2.74117446,18.4229 0.0341744619,21.0879 0.00817446194,24.4019" id="Fill-8"></path>
                </g>
                <path d="M72.3099745,0 C54.6649745,0 40.3099745,14.355 40.3099745,32 C40.3099745,49.645 54.6649745,64 72.3099745,64 C89.9549745,64 104.309974,49.645 104.309974,32 C104.309974,14.355 89.9549745,0 72.3099745,0" id="Fill-11" fill="#2167AE"></path>
                <path d="M68.8675745,45.4717 C68.0325745,45.4717 67.2305745,45.1407 66.6385745,44.5477 L56.3105745,34.2207 C55.0785745,32.9887 55.0785745,30.9937 56.3105745,29.7617 C57.5425745,28.5307 59.5375745,28.5307 60.7685745,29.7617 L68.6565745,37.6497 L83.6585745,19.6627 C84.7725745,18.3257 86.7625745,18.1437 88.0985745,19.2617 C89.4355745,20.3767 89.6155745,22.3657 88.5005745,23.7027 L71.2885745,44.3387 C70.7215745,45.0187 69.8935745,45.4277 69.0095745,45.4687 C68.9615745,45.4707 68.9135745,45.4717 68.8675745,45.4717" id="Fill-13" fill="#DAD2BD"></path>
            </g>
        </g>
    </g>
</svg>