<?xml version="1.0" encoding="UTF-8"?>
<svg width="140px" height="140px" viewBox="0 0 140 140" version="1.1" xmlns="http://www.w3.org/2000/svg" xmlns:xlink="http://www.w3.org/1999/xlink">
    <title>pictogram/business &amp; education/championship</title>
    <g id="pictogram/business-&amp;-education/championship" stroke="none" stroke-width="1" fill="none" fill-rule="evenodd">
        <g id="championship" transform="translate(-0.000000, 0.000000)">
            <path d="M140,70 C140,108.66 108.66,140 70,140 C31.34,140 0,108.66 0,70 C0,31.34 31.34,0 70,0 C108.66,0 140,31.34 140,70" id="circle" fill="#91BFE3"></path>
            <g id="picto" transform="translate(26.260800, 27.515400)">
                <polygon id="Fill-4" fill="#5495CF" points="41.252 83.8766 45.652 83.8766 45.652 60.0576 41.252 60.0576"></polygon>
                <path d="M68.2333,45.5671 C67.5293,45.5671 66.8353,45.5311 66.1523,45.4581 L66.7153,40.1391 C67.2153,40.1921 67.7203,40.2191 68.2333,40.2191 C75.7083,40.2191 81.9333,34.3651 82.1113,27.1681 L82.1283,13.4761 L71.8353,13.4761 L71.8353,8.1271 L84.8033,8.1271 C85.5143,8.1271 86.1953,8.4091 86.6973,8.9111 C87.1983,9.4141 87.4783,10.0951 87.4783,10.8041 L87.4593,27.2371 C87.2043,37.5431 78.7593,45.5671 68.2333,45.5671" id="Fill-5" fill="#5495CF"></path>
                <path d="M19.245,45.5671 C19.949,45.5671 20.642,45.5311 21.326,45.4581 L20.762,40.1391 C20.263,40.1921 19.757,40.2191 19.245,40.2191 C11.77,40.2191 5.545,34.3651 5.367,27.1681 L5.35,13.4761 L15.643,13.4761 L15.643,8.1271 L2.674,8.1271 C1.964,8.1271 1.282,8.4091 0.781,8.9111 C0.28,9.4141 0,10.0951 0,10.8041 L0.018,27.2371 C0.273,37.5431 8.718,45.5671 19.245,45.5671" id="Fill-7" fill="#5495CF"></path>
                <path d="M43.3046,79.5454 C33.0006,79.5454 26.6956,89.1424 26.6956,94.3684 C26.6956,95.5834 27.6806,96.5684 28.8956,96.5684 L58.0476,96.5684 C59.2626,96.5684 60.2476,95.5834 60.2476,94.3684 C60.2476,89.3614 55.1316,79.5454 43.3046,79.5454" id="Fill-9" fill="#2167AE"></path>
                <path d="M14.5829,0 L14.5829,2.2 C14.5829,17.228 16.6659,66.259 43.4659,66.259 C62.4909,66.259 72.9689,43.509 72.9689,2.2 L72.9689,0 L14.5829,0 Z" id="Fill-11" fill="#2167AE"></path>
                <path d="M56.8495,24.6846 C56.6945,24.2326 56.2955,23.9096 55.8225,23.8496 L48.5575,22.9416 L44.8935,15.6226 C44.6815,15.2006 44.2485,14.9326 43.7755,14.9326 C43.3015,14.9326 42.8695,15.2006 42.6575,15.6226 L38.9945,22.9416 L31.7295,23.8496 C31.2555,23.9096 30.8575,24.2326 30.7025,24.6846 C30.5475,25.1366 30.6625,25.6366 31.0005,25.9746 L36.4605,31.4346 L34.6275,39.6826 C34.5235,40.1556 34.7015,40.6456 35.0835,40.9426 C35.4675,41.2386 35.9885,41.2866 36.4175,41.0666 L43.7755,37.3056 L51.1335,41.0666 C51.3135,41.1586 51.5085,41.2036 51.7035,41.2036 C51.9745,41.2036 52.2455,41.1156 52.4675,40.9426 C52.8505,40.6456 53.0285,40.1556 52.9235,39.6826 L51.0905,31.4346 L56.5505,25.9746 C56.8885,25.6366 57.0035,25.1366 56.8495,24.6846" id="Fill-13" fill="#DAD2BD"></path>
            </g>
        </g>
    </g>
</svg>