<?xml version="1.0" encoding="UTF-8"?>
<svg width="140px" height="140px" viewBox="0 0 140 140" version="1.1" xmlns="http://www.w3.org/2000/svg" xmlns:xlink="http://www.w3.org/1999/xlink">
    <title>pictogram/finance/chart/bar/analytics</title>
    <g id="pictogram/finance/chart/bar/analytics" stroke="none" stroke-width="1" fill="none" fill-rule="evenodd">
        <g id="chart-bar-analytics" transform="translate(-0.000200, 0.000000)">
            <path d="M140,70 C140,108.66 108.66,140 70,140 C31.34,140 0,108.66 0,70 C0,31.34 31.34,0 70,0 C108.66,0 140,31.34 140,70" id="circle" fill="#91BFE3"></path>
            <g id="picto" transform="translate(25.000000, 19.009000)">
                <g id="Group-12" transform="translate(10.505800, 44.991000)" fill="#5495CF">
                    <path d="M6,29.3396 L7,29.3396 C10.313,29.3396 13,32.0256 13,35.3396 L13,53.6656 C13,56.9786 10.313,59.6656 7,59.6656 L6,59.6656 C2.687,59.6656 0,56.9786 0,53.6656 L0,35.3396 C0,32.0256 2.687,29.3396 6,29.3396" id="Fill-4"></path>
                    <path d="M42.8995,18.0548 L43.8995,18.0548 C47.2125,18.0548 49.8995,20.7408 49.8995,24.0548 L49.8995,53.6658 C49.8995,56.9788 47.2125,59.6658 43.8995,59.6658 L42.8995,59.6658 C39.5865,59.6658 36.8995,56.9788 36.8995,53.6658 L36.8995,24.0548 C36.8995,20.7408 39.5865,18.0548 42.8995,18.0548" id="Fill-6"></path>
                    <path d="M61.3497,0 L62.3497,0 C65.6627,0 68.3497,2.686 68.3497,6 L68.3497,53.952 C68.3497,57.266 65.6627,59.952 62.3497,59.952 L61.3497,59.952 C58.0367,59.952 55.3497,57.266 55.3497,53.952 L55.3497,6 C55.3497,2.686 58.0367,0 61.3497,0" id="Fill-8"></path>
                    <path d="M24.4014,5.0172 L25.4014,5.00901143 C28.7144,4.9832 31.4224,7.6492 31.4474,10.9622 L31.4494,53.6152 C31.4754,56.9292 28.8094,59.6362 25.4964,59.6622 L24.4964,59.6693886 C21.1824,59.6952 18.4754,57.0302 18.4504,53.7162 L18.4484,11.0642 C18.4224,7.7502 21.0884,5.0432 24.4014,5.0172" id="Fill-10"></path>
                </g>
                <path d="M76,-1.42108547e-14 C72.687,-1.42108547e-14 70,2.687 70,6 C70,7.277 70.402,8.459 71.082,9.432 L58.337,29.017 C58.225,29.011 58.114,29 58,29 C55.646,29 53.615,30.359 52.632,32.332 L33.567,30.49 C32.682,28.281 30.525,26.72 28,26.72 C24.687,26.72 22,29.406 22,32.72 C22,33.458 22.14,34.162 22.384,34.814 L7.511,50.2 C7.027,50.074 6.523,50 6,50 C2.687,50 0,52.687 0,56 C0,59.314 2.687,62 6,62 C9.313,62 12,59.314 12,56 C12,54.872 11.683,53.82 11.142,52.919 L25.431,38.136 C26.211,38.506 27.079,38.72 28,38.72 C30.503,38.72 32.646,37.187 33.546,35.009 L52.282,36.819 C53.053,39.243 55.32,41 58,41 C61.313,41 64,38.314 64,35 C64,33.446 63.404,32.035 62.436,30.969 L74.853,11.888 C75.225,11.96 75.607,12 76,12 C79.313,12 82,9.314 82,6 C82,2.687 79.313,-1.42108547e-14 76,-1.42108547e-14" id="Fill-13" fill="#DAD2BD"></path>
            </g>
        </g>
    </g>
</svg>