<?xml version="1.0" encoding="UTF-8"?>
<svg width="140px" height="140px" viewBox="0 0 140 140" version="1.1" xmlns="http://www.w3.org/2000/svg" xmlns:xlink="http://www.w3.org/1999/xlink">
    <title>pictogram/finance/chart/bar/course</title>
    <g id="pictogram/finance/chart/bar/course" stroke="none" stroke-width="1" fill="none" fill-rule="evenodd">
        <g id="chart-bar-course" transform="translate(-0.000200, 0.000000)">
            <path d="M140,70 C140,108.66 108.66,140 70,140 C31.34,140 0,108.66 0,70 C0,31.34 31.34,0 70,0 C108.66,0 140,31.34 140,70" id="circle" fill="#91BFE3"></path>
            <g id="picto" transform="translate(35.418900, 29.800600)">
                <g id="Group-12" transform="translate(0.000000, 29.455911)" fill="#5495CF">
                    <path d="M6,9.88878857 L7,9.88878857 C10.314,9.88878857 13,12.5747886 13,15.8887886 L13,48.6557886 C13,51.9697886 10.314,54.6557886 7,54.6557886 L6,54.6557886 C2.687,54.6557886 0,51.9697886 0,48.6557886 L0,15.8887886 C0,12.5747886 2.687,9.88878857 6,9.88878857" id="Fill-4"></path>
                    <path d="M42.8994,19.8836886 L43.8994,19.8836886 C47.2134,19.8836886 49.8994,22.5696886 49.8994,25.8836886 L49.9004,48.6566886 C49.9004,51.9696886 47.2134,54.6566886 43.9004,54.6566886 L42.9004,54.6566886 C39.5864,54.6566886 36.9004,51.9696886 36.9004,48.6566886 L36.8994,25.8836886 C36.8994,22.5696886 39.5864,19.8836886 42.8994,19.8836886" id="Fill-6"></path>
                    <path d="M61.3496,6.96528857 L62.3496,6.96528857 C65.6626,6.96528857 68.3496,9.65128857 68.3496,12.9652886 L68.3496,48.9432886 C68.3496,52.2562886 65.6626,54.9432886 62.3496,54.9432886 L61.3496,54.9432886 C58.0366,54.9432886 55.3496,52.2562886 55.3496,48.9432886 L55.3496,12.9652886 C55.3496,9.65128857 58.0366,6.96528857 61.3496,6.96528857" id="Fill-8"></path>
                    <path d="M24.4014,0.00818856675 L25.4014,0 C28.7144,-0.0258114333 31.4224,2.64018857 31.4484,5.95318857 L31.4504,48.6061886 C31.4754,51.9201886 28.8104,54.6271886 25.4974,54.6531886 L24.4974,54.6603772 C21.1834,54.6861886 18.4754,52.0211886 18.4504,48.7071886 L18.4484,6.05518857 C18.4224,2.74118857 21.0884,0.0341885667 24.4014,0.00818856675" id="Fill-10"></path>
                </g>
                <path d="M63.9971,-1.42108547e-14 L55.1771,-1.42108547e-14 C54.0721,-1.42108547e-14 53.1771,0.896 53.1771,2 C53.1771,3.104 54.0721,4 55.1771,4 L58.8711,4 L39.3241,25.51 L25.4321,8.154 C25.0211,7.643 24.4091,7.335 23.7541,7.312 C23.1051,7.29 22.4671,7.553 22.0211,8.034 L3.5401,28.045 C2.6971,28.958 2.7541,30.382 3.6671,31.225 C4.1001,31.625 4.6461,31.822 5.1921,31.822 C5.7991,31.822 6.4021,31.579 6.8471,31.099 L23.5531,13.009 L37.4591,30.381 C37.8711,30.895 38.4871,31.203 39.1451,31.224 C39.7961,31.244 40.4381,30.976 40.8811,30.488 L61.9971,7.251 L61.9971,10.821 C61.9971,11.925 62.8931,12.821 63.9971,12.821 C65.1011,12.821 65.9971,11.925 65.9971,10.821 L65.9971,2 C65.9971,0.896 65.1011,-1.42108547e-14 63.9971,-1.42108547e-14" id="Fill-13" fill="#DAD2BD"></path>
            </g>
        </g>
    </g>
</svg>