<?xml version="1.0" encoding="UTF-8"?>
<svg width="140px" height="140px" viewBox="0 0 140 140" version="1.1" xmlns="http://www.w3.org/2000/svg" xmlns:xlink="http://www.w3.org/1999/xlink">
    <title>pictogram/finance/chart/bar/history</title>
    <g id="pictogram/finance/chart/bar/history" stroke="none" stroke-width="1" fill="none" fill-rule="evenodd">
        <g id="chart-bar-history" transform="translate(-0.000200, 0.000000)">
            <path d="M140,70 C140,108.66 108.66,140 70,140 C31.34,140 0,108.66 0,70 C0,31.34 31.34,0 70,0 C108.66,0 140,31.34 140,70" id="circle" fill="#91BFE3"></path>
            <g id="picto" transform="translate(19.172902, 22.728811)">
                <g id="Group-12" transform="translate(16.332898, 0.000000)" fill="#5495CF">
                    <path d="M6,9.88888857 L7,9.88888857 C10.313,9.88888857 13,12.5748886 13,15.8888886 L13,48.6558886 C13,51.9698886 10.313,54.6558886 7,54.6558886 L6,54.6558886 C2.687,54.6558886 0,51.9698886 0,48.6558886 L0,15.8888886 C0,12.5748886 2.687,9.88888857 6,9.88888857" id="Fill-4"></path>
                    <path d="M42.8995,19.8837886 L43.8995,19.8837886 C47.2125,19.8837886 49.8995,22.5697886 49.8995,25.8837886 L49.8995,48.6567886 C49.8995,51.9697886 47.2125,54.6567886 43.8995,54.6567886 L42.8995,54.6567886 C39.5865,54.6567886 36.8995,51.9697886 36.8995,48.6567886 L36.8995,25.8837886 C36.8995,22.5697886 39.5865,19.8837886 42.8995,19.8837886" id="Fill-6"></path>
                    <path d="M61.3497,6.96528857 L62.3497,6.96528857 C65.6627,6.96528857 68.3497,9.65128857 68.3497,12.9652886 L68.3497,48.9432886 C68.3497,52.2562886 65.6627,54.9432886 62.3497,54.9432886 L61.3497,54.9432886 C58.0367,54.9432886 55.3497,52.2562886 55.3497,48.9432886 L55.3497,12.9652886 C55.3497,9.65128857 58.0367,6.96528857 61.3497,6.96528857" id="Fill-8"></path>
                    <path d="M24.4014,0.00818856675 L25.4014,0 C28.7144,-0.0258114333 31.4224,2.64018857 31.4474,5.95318857 L31.4494,48.6061886 C31.4754,51.9201886 28.8094,54.6271886 25.4964,54.6531886 L24.4964,54.6603772 C21.1824,54.6861886 18.4754,52.0211886 18.4504,48.7071886 L18.4484,6.05518857 C18.4224,2.74118857 21.0884,0.0341885667 24.4014,0.00818856675" id="Fill-10"></path>
                </g>
                <path d="M96.3260981,73.4066886 L7.20309808,73.2936886 L11.1310981,69.7426886 C11.9500981,69.0026886 12.0140981,67.7376886 11.2730981,66.9186886 C10.5340981,66.0986886 9.27009808,66.0346886 8.44909808,66.7756886 L0.659098077,73.8156886 C-0.159901923,74.5556886 -0.224901923,75.8206886 0.516098077,76.6406886 L7.55609808,84.4306886 C7.95109808,84.8676886 8.49509808,85.0896886 9.04109808,85.0896886 C9.51809808,85.0896886 9.99809808,84.9196886 10.3810981,84.5736886 C11.2000981,83.8326886 11.2640981,82.5686886 10.5230981,81.7486886 L6.94909808,77.7936886 L96.3200981,77.9066886 L96.3230981,77.9066886 C97.5640981,77.9066886 98.5710981,76.9006886 98.5731011,75.6596886 C98.5750981,74.4166886 97.5680981,73.4076886 96.3260981,73.4066886" id="Fill-13" fill="#2167AE"></path>
                <path d="M40.3563981,67.4674886 C44.8893981,67.4674886 48.5633981,71.1414886 48.5633981,75.6744886 C48.5633981,80.2074886 44.8893981,83.8814886 40.3563981,83.8814886 C35.8243981,83.8814886 32.1493981,80.2074886 32.1493981,75.6744886 C32.1493981,71.1414886 35.8243981,67.4674886 40.3563981,67.4674886" id="Fill-15" fill="#DAD2BD"></path>
                <path d="M74.8006981,67.4674886 C79.3336981,67.4674886 83.0076981,71.1414886 83.0076981,75.6744886 C83.0076981,80.2074886 79.3336981,83.8814886 74.8006981,83.8814886 C70.2686981,83.8814886 66.5936981,80.2074886 66.5936981,75.6744886 C66.5936981,71.1414886 70.2686981,67.4674886 74.8006981,67.4674886" id="Fill-17" fill="#2167AE"></path>
            </g>
        </g>
    </g>
</svg>