<?xml version="1.0" encoding="UTF-8"?>
<svg width="140px" height="140px" viewBox="0 0 140 140" version="1.1" xmlns="http://www.w3.org/2000/svg" xmlns:xlink="http://www.w3.org/1999/xlink">
    <title>pictogram/communication/checklist</title>
    <g id="pictogram/communication/checklist" stroke="none" stroke-width="1" fill="none" fill-rule="evenodd">
        <g id="checklist">
            <path d="M140,70 C140,108.66 108.66,140 70,140 C31.34,140 0,108.66 0,70 C0,31.34 31.34,0 70,0 C108.66,0 140,31.34 140,70" id="circle" fill="#91BFE3"></path>
            <g id="picto" transform="translate(36.141000, 27.897900)">
                <path d="M65.4552,15.7381 C65.4552,10.5311 61.2342,6.3101 56.0272,6.3101 L11.6912,6.3101 C6.4842,6.3101 2.2632,10.5311 2.2632,15.7381 L2.2842,72.5591 C2.2842,77.7411 6.4852,81.9421 11.6682,81.9421 L56.0502,81.9421 C61.2322,81.9421 65.4332,77.7411 65.4332,72.5591 L65.4552,15.7381 Z" id="Fill-3" fill="#ECEEEF"></path>
                <path d="M14.0893,30.6744 L38.1693,30.6744 C39.6873,30.6744 40.9213,29.5474 40.9213,28.1614 C40.9213,26.7744 39.6873,25.6474 38.1693,25.6474 L14.0893,25.6474 C12.5713,25.6474 11.3363,26.7744 11.3363,28.1614 C11.3363,29.5474 12.5713,30.6744 14.0893,30.6744" id="Fill-5" fill="#DAD2BD"></path>
                <path d="M38.1689,43.4506 L14.0889,43.4506 C12.5709,43.4506 11.3369,44.5776 11.3369,45.9646 C11.3369,47.3506 12.5709,48.4776 14.0889,48.4776 L38.1689,48.4776 C39.6869,48.4776 40.9219,47.3506 40.9219,45.9646 C40.9219,44.5776 39.6869,43.4506 38.1689,43.4506" id="Fill-7" fill="#DAD2BD"></path>
                <path d="M37.6739,61.2539 L14.0889,61.2539 C12.5709,61.2539 11.3369,62.3809 11.3369,63.7669 C11.3369,65.1529 12.5709,66.2799 14.0889,66.2799 L37.6739,66.2799 C39.1919,66.2799 40.4269,65.1529 40.4269,63.7669 C40.4269,62.3809 39.1919,61.2539 37.6739,61.2539" id="Fill-9" fill="#DAD2BD"></path>
                <path d="M63.171,72.559 C63.171,76.485 59.976,79.679 56.05,79.679 L11.668,79.679 C7.742,79.679 4.547,76.485 4.547,72.558 L4.525,15.738 C4.525,11.787 7.74,8.572 11.691,8.572 L19.692,8.572 L19.692,10.586 C19.692,11.405 20.397,12.069 21.267,12.069 L46.465,12.069 C47.335,12.069 48.04,11.405 48.04,10.586 L48.04,8.572 L56.026,8.572 C59.978,8.572 63.192,11.787 63.193,15.737 L63.171,72.559 Z M56.026,4.047 L48.04,4.047 L48.04,1.482 C48.04,0.663 47.335,0 46.465,0 L21.267,0 C20.397,0 19.692,0.663 19.692,1.482 L19.692,4.047 L11.691,4.047 C5.245,4.047 -7.10542736e-15,9.292 -7.10542736e-15,15.74 L0.022,72.559 C0.022,78.98 5.247,84.204 11.668,84.204 L56.05,84.204 C62.471,84.204 67.696,78.98 67.696,72.56 L67.718,15.738 C67.718,9.292 62.474,4.047 56.026,4.047 L56.026,4.047 Z" id="Fill-11" fill="#2167AE"></path>
                <path d="M53.9741,45.8698 L55.4341,44.4098 C56.0941,43.7508 56.0941,42.6768 55.4351,42.0168 C55.1151,41.6968 54.6901,41.5198 54.2391,41.5198 L54.2381,41.5198 C53.7851,41.5198 53.3611,41.6968 53.0411,42.0168 L51.5811,43.4768 L50.1241,42.0198 C49.8041,41.6998 49.3791,41.5228 48.9281,41.5228 L48.9261,41.5228 C48.4741,41.5228 48.0491,41.6998 47.7291,42.0198 C47.0701,42.6798 47.0701,43.7528 47.7301,44.4128 L49.1871,45.8698 L47.7301,47.3278 C47.0701,47.9878 47.0701,49.0618 47.7301,49.7218 C48.0591,50.0518 48.4921,50.2168 48.9261,50.2168 C49.3591,50.2168 49.7931,50.0518 50.1231,49.7218 L51.5811,48.2638 L53.0291,49.7128 C53.6891,50.3728 54.7631,50.3728 55.4231,49.7128 C56.0821,49.0528 56.0821,47.9788 55.4231,47.3188 L53.9741,45.8698 Z" id="Fill-13" fill="#5495CF"></path>
                <path d="M56.2032,57.7077 C55.8972,57.4497 55.5072,57.3217 55.1092,57.3627 C54.7092,57.3987 54.3482,57.5887 54.0912,57.8967 L50.5652,62.1237 L48.9812,60.5367 C48.4132,59.9717 47.4262,59.9727 46.8622,60.5367 C46.5782,60.8197 46.4222,61.1957 46.4222,61.5957 C46.4222,61.9967 46.5782,62.3727 46.8612,62.6557 L49.6042,65.3977 C49.8862,65.6837 50.2632,65.8397 50.6662,65.8397 L50.7182,65.8397 L50.7372,65.8387 C51.1552,65.8177 51.5492,65.6227 51.8162,65.3017 L56.3912,59.8157 C56.6482,59.5087 56.7702,59.1207 56.7342,58.7207 C56.6982,58.3217 56.5092,57.9607 56.2032,57.7077" id="Fill-15" fill="#5495CF"></path>
                <path d="M56.2018,24.5817 C55.8958,24.3257 55.5078,24.2057 55.1068,24.2397 C54.7078,24.2757 54.3478,24.4637 54.0908,24.7717 L50.5658,28.9987 L48.9798,27.4127 C48.3958,26.8297 47.4458,26.8297 46.8618,27.4127 C46.5788,27.6957 46.4228,28.0707 46.4228,28.4717 C46.4228,28.8727 46.5788,29.2477 46.8608,29.5307 L49.6068,32.2777 C49.8898,32.5607 50.2658,32.7167 50.6658,32.7167 L50.7378,32.7137 C51.1558,32.6927 51.5488,32.4987 51.8158,32.1777 L56.3908,26.6907 C56.9218,26.0587 56.8358,25.1117 56.2018,24.5817 L56.2018,24.5817 Z" id="Fill-17" fill="#5495CF"></path>
            </g>
        </g>
    </g>
</svg>