<?xml version="1.0" encoding="UTF-8"?>
<svg width="140px" height="140px" viewBox="0 0 140 140" version="1.1" xmlns="http://www.w3.org/2000/svg" xmlns:xlink="http://www.w3.org/1999/xlink">
    <title>pictogram/environment/climate-change</title>
    <g id="pictogram/environment/climate-change" stroke="none" stroke-width="1" fill="none" fill-rule="evenodd">
        <g id="climate-change">
            <path d="M140,70 C140,108.66 108.66,140 70,140 C31.34,140 0,108.66 0,70 C0,31.34 31.34,0 70,0 C108.66,0 140,31.34 140,70" id="circle" fill="#91BFE3"></path>
            <g id="picto" transform="translate(21.725045, 20.227182)">
                <path d="M17.995155,42.8321182 L5.91415502,34.5921182 C5.57415502,34.3601182 5.14115502,34.3111182 4.75715502,34.4591182 C4.37315502,34.6091182 4.08715502,34.9371182 3.99315502,35.3381182 L0.487155023,50.2511182 C-1.11684498,59.0661182 1.21715502,64.4111182 7.83015502,67.0711182 C9.40315502,67.7041182 11.044155,68.0201182 12.691155,68.0201182 C14.580155,68.0201182 16.476155,67.6031182 18.285155,66.7691182 L18.463155,66.6891182 C18.490155,66.6781182 18.599155,66.6301182 18.626155,66.6171182 C18.681155,66.5891182 18.734155,66.5581182 18.783155,66.5231182 C21.588155,65.0901182 23.778155,62.7091182 24.963155,59.8011182 C27.651155,53.1991182 25.433155,47.8051182 17.995155,42.8321182" id="Fill-3" fill="#2167AE"></path>
                <path d="M59.399455,86.0528182 C59.130455,85.2008182 58.546455,84.5048182 57.753455,84.0918182 C57.550455,83.9868182 57.330455,83.8998182 57.148455,83.8528182 C52.665455,82.0878182 29.857455,72.8098182 21.066455,63.4218182 C16.505455,58.5518182 14.889455,54.8338182 14.872455,54.7928182 C14.691455,54.3788182 14.401455,54.0598182 14.035455,53.8678182 C13.114455,53.3888182 11.976455,53.7478182 11.496455,54.6678182 C11.219455,55.2018182 11.227455,55.8298182 11.518455,56.3918182 C11.843455,57.1198182 20.177455,75.1128182 50.736455,88.3068182 L54.665455,90.0238182 C55.149455,90.2758182 55.675455,90.4038182 56.206455,90.4038182 C56.544455,90.4038182 56.883455,90.3518182 57.215455,90.2468182 C58.067455,89.9788182 58.763455,89.3948182 59.175455,88.6028182 C59.588455,87.8098182 59.668455,86.9048182 59.399455,86.0528182" id="Fill-5" fill="#5495CF"></path>
                <path d="M61.263255,63.2972182 L61.263255,12.7392182 C61.263255,5.73521816 55.531255,-0.13078184 48.527255,0.00221816006 C41.740255,0.13221816 36.278255,5.67521816 36.278255,12.4922182 L36.278255,63.2972182 C36.278255,63.9522182 35.994255,64.5722182 35.504255,65.0082182 C31.155255,68.8702182 28.501255,74.5982182 28.806255,80.9402182 C29.310255,91.4082182 38.003255,99.7912182 48.483255,99.9382182 C59.654255,100.096218 68.759255,91.0872182 68.759255,79.9522182 C68.759255,74.0062182 66.159255,68.6702182 62.038255,65.0092182 C61.548255,64.5732182 61.263255,63.9532182 61.263255,63.2972182" id="Fill-7" fill="#5495CF"></path>
                <path d="M53.801755,69.9563182 L53.791755,29.9823182 L43.754755,29.9823182 L43.754755,69.9743182 C43.754755,70.5893182 43.436755,71.1513182 42.930755,71.5013182 C40.207755,73.3863182 38.438755,76.5513182 38.498755,80.1263182 C38.586755,85.4323182 42.816755,89.8763182 48.113755,90.2053182 C54.084755,90.5773182 59.044755,85.8443182 59.044755,79.9523182 C59.044755,76.4393182 57.279755,73.3393182 54.589755,71.4873182 C54.089755,71.1423182 53.801755,70.5643182 53.801755,69.9563182" id="Fill-9" fill="#DAD2BD"></path>
                <path d="M53.787155,12.5024182 C53.787155,9.73241816 51.541155,7.48641816 48.770155,7.48641816 C46.000155,7.48641816 43.754155,9.73241816 43.754155,12.5024182 L43.754155,29.9824182 L53.791155,29.9824182 L53.787155,12.5024182 Z" id="Fill-11" fill="#91BFE3"></path>
                <path d="M88.536155,20.8337182 C88.536155,26.5007182 83.942155,31.0947182 78.275155,31.0947182 C72.608155,31.0947182 68.014155,26.5007182 68.014155,20.8337182 C68.014155,15.1667182 72.608155,10.5727182 78.275155,10.5727182 C83.942155,10.5727182 88.536155,15.1667182 88.536155,20.8337182" id="Fill-13" fill="#2167AE"></path>
                <path d="M78.523455,27.3067182 C77.833455,27.3067182 77.273455,26.7467182 77.273455,26.0567182 L77.273455,15.6107182 C77.273455,14.9207182 77.833455,14.3607182 78.523455,14.3607182 C79.213455,14.3607182 79.773455,14.9207182 79.773455,15.6107182 L79.773455,26.0567182 C79.773455,26.7467182 79.213455,27.3067182 78.523455,27.3067182" id="Fill-15" fill="#ECEEEF"></path>
                <path d="M83.746155,21.7910182 L73.300155,21.7910182 C72.610155,21.7910182 72.050155,21.2310182 72.050155,20.5410182 C72.050155,19.8510182 72.610155,19.2910182 73.300155,19.2910182 L83.746155,19.2910182 C84.436155,19.2910182 84.996155,19.8510182 84.996155,20.5410182 C84.996155,21.2310182 84.436155,21.7910182 83.746155,21.7910182" id="Fill-17" fill="#ECEEEF"></path>
            </g>
        </g>
    </g>
</svg>