<?xml version="1.0" encoding="UTF-8"?>
<svg width="140px" height="140px" viewBox="0 0 140 140" version="1.1" xmlns="http://www.w3.org/2000/svg" xmlns:xlink="http://www.w3.org/1999/xlink">
    <title>pictogram/people/community</title>
    <defs>
        <polygon id="path-1" points="0 0 139.9999 0 139.9999 140 0 140"></polygon>
    </defs>
    <g id="pictogram/people/community" stroke="none" stroke-width="1" fill="none" fill-rule="evenodd">
        <g id="community" transform="translate(-0.000000, 0.000000)">
            <g id="Group-3">
                <mask id="mask-2" fill="white">
                    <use xlink:href="#path-1"></use>
                </mask>
                <g id="Clip-2"></g>
                <path d="M-0.0001,70 C-0.0001,31.34 31.3399,0 69.9999,0 C108.6599,0 139.9999,31.34 139.9999,70 C139.9999,108.66 108.6599,140 69.9999,140 C31.3399,140 -0.0001,108.66 -0.0001,70" id="Fill-1" fill="#91BFE3" mask="url(#mask-2)"></path>
            </g>
            <g id="Group-28" transform="translate(16.267300, 32.549500)">
                <path d="M95.6877578,61.106 L11.9946422,61.106 C11.9946422,61.106 11.9967,16.088 11.9946422,15.185 C11.9897,13.261 12.3057,9.879 14.3277,7.556 C16.0907,5.528 18.9087,4.5 22.6997,4.5 L84.9827,4.5 C88.7737,4.5 91.5917,5.528 93.3547,7.556 C95.3767,9.879 95.6927,13.261 95.6877578,15.185 C95.6857,16.088 95.6877578,61.106 95.6877578,61.106" id="Fill-4" fill="#ECEEEF"></path>
                <path d="M35.2048,39.9323 C35.0808,39.9253 34.9578,39.9093 34.8338,39.9053 C34.3438,39.8903 33.8518,39.8912131 33.3578,39.8912131 L31.6558,39.8912131 L26.0138,39.8912131 L21.3068,39.8923 L20.8758,39.8923 L19.9748,39.8912131 C17.7408,39.8912131 15.5408,39.8493 13.4298,41.6123 C13.3398,41.6853 13.2508,41.7673 13.1618,41.8463 C13.1278,41.8763 13.0948,41.9023 13.0618,41.9343 C12.7158,42.2503 12.3718,42.6123 12.0308,43.0393 C11.8878,43.2183 11.7128,43.4813 11.5238,43.7843 C11.4568,43.8813 11.3658,44.1733 11.2568,44.6063 C10.9928,45.6553 10.7118,47.5523 10.3048,49.8403 L10.3178,61.0703 L31.4128,61.0703 C32.4538,54.3753 34.1618,43.9743 34.9888,40.6823 C35.0698,40.3603 35.1418,40.1113 35.2048,39.9323" id="Fill-6" fill="#23366F"></path>
                <path d="M95.6105,45.6572 C95.4395,44.9192 95.2995,44.4282 95.2075,44.2922 C95.0175,43.9882 94.8425,43.7262 94.6995,43.5462 C94.3585,43.1202 94.0145,42.7582 93.6695,42.4422 C93.6355,42.4102 93.6025,42.3842 93.5695,42.3542 C93.4805,42.2752 93.3905,42.1932 93.3005,42.1202 C92.5955,41.5312 91.8805,41.1472 91.1575,40.8912 C90.5845,40.6902 90.0065,40.5702 89.4245,40.5002 C89.0295,40.4532 88.6315,40.4262 88.2325,40.4132 C87.7425,40.3982 87.2495,40.3991862 86.7565,40.3991862 L85.0535,40.3991862 L79.4115,40.3991862 L74.7045,40.4002 L74.2745,40.4002 L73.3725,40.3991862 C73.0495,40.3991862 72.7265,40.4002 72.4055,40.4042 C72.4775,40.6632 72.5555,40.9702 72.6415,41.3432 C73.5345,45.1822 75.1725,54.6762 76.4705,61.0702 L97.1605,61.0702 L97.1605,53.5202 C96.5605,50.3082 95.9995,47.3302 95.6105,45.6572" id="Fill-8" fill="#2167AE"></path>
                <path d="M72.4055,40.4038 C72.3045,40.0378 72.2175,39.7788 72.1515,39.6828 C71.9205,39.3138 71.7085,38.9938 71.5335,38.7758 C71.1195,38.2568 70.7005,37.8168 70.2805,37.4318 C70.2405,37.3938 70.1995,37.3608 70.1595,37.3248 C70.0505,37.2288 69.9415,37.1288 69.8325,37.0408 C68.9745,36.3238 68.1045,35.8568 67.2245,35.5458 C66.5285,35.3008 65.8255,35.1548 65.1185,35.0698 C64.6365,35.0118 64.1525,34.9808 63.6675,34.9648 C63.0715,34.9458 62.4725,34.9466949 61.8715,34.9466949 L59.8015,34.9466949 L52.9375,34.9478 L47.2125,34.9488 L46.6895,34.9488 L45.5935,34.9466949 C42.8755,34.9466949 40.2005,34.8958 37.6315,37.0408 C37.5225,37.1288 37.4135,37.2288 37.3055,37.3248 C37.2655,37.3608 37.2245,37.3938 37.1845,37.4318 C36.7635,37.8168 36.3455,38.2568 35.9305,38.7758 C35.7565,38.9938 35.5435,39.3138 35.3135,39.6828 C35.2815,39.7288 35.2445,39.8188 35.2045,39.9328 C35.1415,40.1118 35.0705,40.3598 34.9885,40.6818 C34.1615,43.9738 32.4545,54.3758 31.4135,61.0698 L76.4705,61.0698 C75.1725,54.6758 73.5345,45.1828 72.6425,41.3428 C72.5555,40.9698 72.4775,40.6638 72.4055,40.4038" id="Fill-10" fill="#DAD2BD"></path>
                <path d="M65.3493,19.5664 C65.3493,26.4454 60.1543,32.0224 53.7463,32.0224 C47.3383,32.0224 42.1433,26.4454 42.1433,19.5664 C42.1433,12.6874 47.3383,7.1104 53.7463,7.1104 C60.1543,7.1104 65.3493,12.6874 65.3493,19.5664" id="Fill-12" fill="#23366F"></path>
                <path d="M60.153,34.9985 C60.153,34.9985 59.52,32.1475 59.176,30.7305 C58.962,29.8465 59.152,29.1055 59.751,28.4755 C60.303,27.8945 60.803,27.2795 61.124,26.5105 C62.036,24.3245 62.291,22.0215 62.228,19.6555 C62.22,19.3425 62.156,19.1415 62,19.0235 C61.881,18.9335 61.709,18.8905 61.459,18.8925 C58.304,18.9095 55.606,17.3315 52.807,16.0975 C49.869,14.8015 45.67,16.5145 45.205,19.3515 C45.184,22.7075 45.286,26.0185 47.762,28.5915 C48.212,29.0595 48.43,29.6895 48.288,30.3605 C47.958,31.9125 47.225,34.9995 47.225,34.9995 C47.225,34.9995 48.983,39.5835 53.753,39.5835 C58.522,39.5835 60.153,34.9985 60.153,34.9985" id="Fill-14" fill="#5495CF"></path>
                <path d="M90.9855,27.2545 C90.9855,33.5565 86.2265,38.6645 80.3565,38.6645 C74.4865,38.6645 69.7285,33.5565 69.7285,27.2545 C69.7285,20.9525 74.4865,15.8445 80.3565,15.8445 C86.2265,15.8445 90.9855,20.9525 90.9855,27.2545" id="Fill-16" fill="#23366F"></path>
                <path d="M86.2255,41.3906 C86.2255,41.3906 85.6455,38.7796 85.3305,37.4806 C85.1345,36.6706 85.3085,35.9926 85.8575,35.4156 C86.3625,34.8836 86.8215,34.3196 87.1145,33.6156 C87.9495,31.6136 88.1835,29.5036 88.1265,27.3366 C88.1195,27.0496 88.0595,26.8656 87.9175,26.7576 C87.8085,26.6746 87.6515,26.6356 87.4225,26.6366 C84.5315,26.6526 82.0605,25.2076 79.4965,24.0766 C76.8055,22.8896 72.9595,24.4586 72.5325,27.0576 C72.5135,30.1316 72.6075,33.1656 74.8745,35.5216 C75.2875,35.9506 75.4875,36.5276 75.3575,37.1416 C75.0555,38.5636 74.3835,41.3916 74.3835,41.3916 C74.3835,41.3916 75.9935,45.5906 80.3625,45.5906 C84.7315,45.5906 86.2255,41.3906 86.2255,41.3906" id="Fill-18" fill="#5495CF"></path>
                <path d="M37.5873,26.5877 C37.5873,32.8897 32.8283,37.9977 26.9593,37.9977 C21.0893,37.9977 16.3303,32.8897 16.3303,26.5877 C16.3303,20.2857 21.0893,15.1777 26.9593,15.1777 C32.8283,15.1777 37.5873,20.2857 37.5873,26.5877" id="Fill-20" fill="#23366F"></path>
                <path d="M32.8276,40.7237 C32.8276,40.7237 32.2476,38.1127 31.9326,36.8137 C31.7366,36.0037 31.9106,35.3257 32.4596,34.7487 C32.9646,34.2167 33.4236,33.6527 33.7166,32.9487 C34.5516,30.9467 34.7856,28.8367 34.7286,26.6697 C34.7206,26.3827 34.6616,26.1987 34.5196,26.0907 C34.4106,26.0077 34.2536,25.9687 34.0236,25.9697 C31.1336,25.9857 28.6616,24.5407 26.0986,23.4097 C23.4076,22.2227 19.5616,23.7917 19.1346,26.3907 C19.1156,29.4647 19.2096,32.4987 21.4766,34.8547 C21.8896,35.2837 22.0896,35.8607 21.9596,36.4747 C21.6576,37.8967 20.9856,40.7247 20.9856,40.7247 C20.9856,40.7247 22.5956,44.9237 26.9646,44.9237 C31.3336,44.9237 32.8276,40.7237 32.8276,40.7237" id="Fill-22" fill="#5495CF"></path>
                <path d="M95.6877578,61.106 L11.9946422,61.106 C11.9946422,61.106 11.9967,16.088 11.9946422,15.185 C11.9897,13.261 12.3057,9.879 14.3277,7.556 C16.0907,5.528 18.9087,4.5 22.6997,4.5 L84.9827,4.5 C88.7737,4.5 91.5917,5.528 93.3547,7.556 C95.3767,9.879 95.6927,13.261 95.6877578,15.185 C95.6857,16.088 95.6877578,61.106 95.6877578,61.106 M100.1637,15.939 C100.1637,13.683 100.1577,8.546 96.7787,4.634 C94.1217,1.559 90.1537,0 84.9827,0 L22.6997,0 C17.5287,0 13.5607,1.559 10.9037,4.634 C7.5247,8.546 7.5187,13.683 7.5187,15.939 C7.5187,16.334 7.5267,65.606 7.5267,65.606 L36.4857,65.606 L36.4857,68.949 L71.1967,68.949 L71.1967,65.606 L100.1557,65.606 C100.1557,65.606 100.1637,16.334 100.1637,15.939" id="Fill-24" fill="#5495CF"></path>
                <path d="M106.215,64.5372 L66.642,64.5372 C66.026,64.5372 65.497,65.0152 65.402,65.6232 C65.366,65.8532 64.942,67.8732 61.158,67.8732 L46.307,67.8732 C42.986,67.8732 42.348,65.7412 42.29,65.5142 C42.162,64.9432 41.655,64.5372 41.07,64.5372 L1.25,64.5372 C0.56,64.5372 0,65.1082 0,65.7992 C0,70.0592 0,74.8882 7.81,74.8882 L99.655,74.8882 C107.465,74.8882 107.465,70.0592 107.465,65.7872 C107.465,65.0972 106.905,64.5372 106.215,64.5372" id="Fill-26" fill="#2167AE"></path>
            </g>
        </g>
    </g>
</svg>