<?xml version="1.0" encoding="UTF-8"?>
<svg width="140px" height="140px" viewBox="0 0 140 140" version="1.1" xmlns="http://www.w3.org/2000/svg" xmlns:xlink="http://www.w3.org/1999/xlink">
    <title>pictogram/communication/comments</title>
    <g id="pictogram/communication/comments" stroke="none" stroke-width="1" fill="none" fill-rule="evenodd">
        <g id="comments">
            <path d="M140,70 C140,108.66 108.66,140 70,140 C31.34,140 0,108.66 0,70 C0,31.34 31.34,0 70,0 C108.66,0 140,31.34 140,70" id="circle" fill="#91BFE3"></path>
            <g id="picto" transform="translate(21.201200, 26.199300)">
                <path d="M40.685,0 L20.959,0 C9.401,0 0,9.403 0,20.96 L0,40.688 C0,41.014 0.13,41.328 0.361,41.559 C0.592,41.791 0.906,41.92 1.233,41.92 L40.685,41.919 C52.243,41.919 61.644,32.517 61.644,20.959 C61.644,9.402 52.243,0 40.685,0" id="Fill-4" fill="#2167AE"></path>
                <path d="M47.8457,14.3836 L14.9317,14.3836 C13.6887,14.3836 12.6817,13.3766 12.6817,12.1336 C12.6817,10.8906 13.6887,9.8836 14.9317,9.8836 L47.8457,9.8836 C49.0887,9.8836 50.0957,10.8906 50.0957,12.1336 C50.0957,13.3766 49.0887,14.3836 47.8457,14.3836" id="Fill-6" fill="#DAD2BD"></path>
                <path d="M47.8151,23.9577 L14.9011,23.9577 C13.6581,23.9577 12.6511,22.9507 12.6511,21.7077 C12.6511,20.4647 13.6581,19.4577 14.9011,19.4577 L47.8151,19.4577 C49.0581,19.4577 50.0651,20.4647 50.0651,21.7077 C50.0651,22.9507 49.0581,23.9577 47.8151,23.9577" id="Fill-8" fill="#DAD2BD"></path>
                <path d="M29.6367,33.5317 L14.9007,33.5317 C13.6577,33.5317 12.6507,32.5247 12.6507,31.2817 C12.6507,30.0387 13.6577,29.0317 14.9007,29.0317 L29.6367,29.0317 C30.8797,29.0317 31.8867,30.0387 31.8867,31.2817 C31.8867,32.5247 30.8797,33.5317 29.6367,33.5317" id="Fill-10" fill="#DAD2BD"></path>
                <path d="M76.6386,45.6807 L56.9116,45.6807 C45.3546,45.6807 35.9526,55.0827 35.9526,66.6397 C35.9526,78.1977 45.3546,87.5997 56.9116,87.5997 L96.3646,87.6007 C96.6916,87.6007 97.0056,87.4717 97.2366,87.2397 C97.4676,87.0087 97.5976,86.6947 97.5976,86.3687 L97.5976,66.6407 C97.5976,55.0837 88.1956,45.6807 76.6386,45.6807" id="Fill-12" fill="#DAD2BD"></path>
                <path d="M55.2939,66.641 C55.2939,68.385 53.8799,69.799 52.1359,69.799 C50.3909,69.799 48.9779,68.385 48.9779,66.641 C48.9779,64.897 50.3909,63.483 52.1359,63.483 C53.8799,63.483 55.2939,64.897 55.2939,66.641" id="Fill-14" fill="#2167AE"></path>
                <path d="M69.9333,66.641 C69.9333,68.385 68.5193,69.799 66.7753,69.799 C65.0313,69.799 63.6173,68.385 63.6173,66.641 C63.6173,64.897 65.0313,63.483 66.7753,63.483 C68.5193,63.483 69.9333,64.897 69.9333,66.641" id="Fill-16" fill="#2167AE"></path>
                <path d="M84.573,66.641 C84.573,68.385 83.159,69.799 81.415,69.799 C79.671,69.799 78.257,68.385 78.257,66.641 C78.257,64.897 79.671,63.483 81.415,63.483 C83.159,63.483 84.573,64.897 84.573,66.641" id="Fill-18" fill="#2167AE"></path>
            </g>
        </g>
    </g>
</svg>