<?xml version="1.0" encoding="UTF-8"?>
<svg width="140px" height="140px" viewBox="0 0 140 140" version="1.1" xmlns="http://www.w3.org/2000/svg" xmlns:xlink="http://www.w3.org/1999/xlink">
    <title>pictogram/mobility/compass</title>
    <g id="pictogram/mobility/compass" stroke="none" stroke-width="1" fill="none" fill-rule="evenodd">
        <g id="compass">
            <path d="M140,70 C140,108.66 108.66,140 70,140 C31.34,140 0,108.66 0,70 C0,31.34 31.34,0 70,0 C108.66,0 140,31.34 140,70" id="circle" fill="#91BFE3"></path>
            <g id="picto" transform="translate(28.636079, 28.788102)">
                <path d="M81.867821,0.865597712 C80.954821,-0.0504022881 79.603821,-0.253402288 78.250821,0.323597712 L33.391821,19.4575977 L19.631821,32.8025977 L0.324821027,77.9395977 C-0.252178973,79.2875977 -0.052178973,80.6385977 0.858821027,81.5535977 C1.42982103,82.1275977 2.17282103,82.4235977 2.98182103,82.4235977 C3.46282103,82.4235977 3.96682103,82.3185977 4.46982103,82.1065977 L50.183821,62.8285977 L62.752821,50.2475977 L82.399821,4.48459771 C82.979821,3.13459771 82.781821,1.78159771 81.867821,0.865597712" id="Fill-6" fill="#2167AE"></path>
                <path d="M41.364121,17.9488977 C38.603121,17.9488977 35.953121,18.4348977 33.494121,19.3218977 C27.653121,21.4278977 22.893121,25.8098977 20.283121,31.3908977 C20.264121,31.4298977 20.247121,31.4698977 20.229121,31.5098977 L19.734121,32.6668977 C18.684121,35.3148977 18.101121,38.1958977 18.101121,41.2118977 C18.101121,54.0388977 28.536121,64.4748977 41.364121,64.4748977 C44.524121,64.4748977 47.537121,63.8388977 50.286121,62.6928977 L50.517121,62.5958977 C50.576121,62.5698977 50.635121,62.5418977 50.694121,62.5158977 C56.173121,60.1068977 60.552121,55.6478977 62.854121,50.1118977 C63.994121,47.3688977 64.627121,44.3638977 64.627121,41.2118977 C64.627121,28.3848977 54.191121,17.9488977 41.364121,17.9488977" id="Fill-8" fill="#DAD2BD"></path>
            </g>
        </g>
    </g>
</svg>