<?xml version="1.0" encoding="UTF-8"?>
<svg width="140px" height="140px" viewBox="0 0 140 140" version="1.1" xmlns="http://www.w3.org/2000/svg" xmlns:xlink="http://www.w3.org/1999/xlink">
    <title>pictogram/business &amp; education/customer</title>
    <g id="pictogram/business-&amp;-education/customer" stroke="none" stroke-width="1" fill="none" fill-rule="evenodd">
        <g id="customer" transform="translate(0.000000, 0.000000)">
            <path d="M70,0 C31.34,0 0,31.34 0,70 C0,84.803 4.606,98.523 12.448,109.832 C25.085,128.056 46.143,140 70,140 C93.856,140 114.914,128.056 127.552,109.832 C135.393,98.523 140,84.803 140,70 C140,31.34 108.66,0 70,0" id="circle" fill="#91BFE3"></path>
            <g id="picto" transform="translate(21.172500, 19.295700)">
                <path d="M83.6859,13.9749 C83.6869,13.9749 83.6869,13.9759 83.6869,13.9759 C83.6869,13.9759 83.6879,13.9759 83.6879,13.9769 L83.6859,13.9749 Z" id="Fill-4" fill="#DAD2BD"></path>
                <path d="M96.682,41.924 C96.347,40.723 95.269,39.874 94.024,39.829 L83.075,39.437 C82.916,39.222 82.748,38.988 82.568,38.722 C81.954,37.825 81.273,36.665 80.895,35.666 C80.501,34.654 80.186,33.101 80.016,31.868 C79.967,31.525 79.93,31.214 79.898,30.932 L87.433,22.916 C88.287,22.008 88.455,20.644 87.848,19.556 C86.747,17.584 85.383,15.687 83.687,13.976 C81.993,12.263 80.11,10.881 78.149,9.761 C77.067,9.142 75.702,9.296 74.785,10.141 L66.642,17.646 C66.29,17.618 65.895,17.582 65.448,17.526 C64.286,17.386 62.889,17.113 61.976,16.757 C60.911,16.354 59.662,15.606 58.743,14.964 C58.546,14.827 58.371,14.7 58.205,14.578 L57.814,3.629 C57.77,2.383 56.918,1.304 55.717,0.97 C53.54,0.365 51.232,0 48.826,0 C46.416,0 44.109,0.365 41.932,0.97 C40.732,1.304 39.879,2.384 39.835,3.63 L39.449,14.579 C39.234,14.737 38.999,14.905 38.735,15.085 C37.837,15.699 36.676,16.38 35.678,16.757 C34.704,17.138 33.184,17.42 31.977,17.554 C31.62,17.595 31.303,17.624 31.014,17.647 L22.869,10.141 C21.953,9.296 20.587,9.142 19.505,9.761 C17.544,10.881 15.661,12.263 13.967,13.976 C12.272,15.687 10.908,17.584 9.806,19.556 C9.199,20.644 9.368,22.008 10.221,22.916 L17.756,30.932 C17.71,31.342 17.65,31.823 17.568,32.345 C17.392,33.478 17.103,34.783 16.76,35.666 L16.76,35.666 C16.356,36.732 15.608,37.979 14.965,38.899 C14.828,39.096 14.701,39.271 14.578,39.437 L3.63,39.829 C2.385,39.874 1.305,40.726 0.972,41.927 C0.369,44.1 0,46.407 0,48.818 C0,51.227 0.369,53.535 0.972,55.709 C1.305,56.91 2.385,57.762 3.63,57.806 L14.579,58.199 C14.738,58.413 14.906,58.648 15.086,58.913 C15.701,59.81 16.381,60.971 16.76,61.97 C17.154,62.981 17.469,64.534 17.639,65.767 C17.687,66.11 17.725,66.421 17.756,66.704 L10.221,74.719 C9.368,75.627 9.199,76.991 9.806,78.08 C10.908,80.052 12.272,81.949 13.968,83.661 L13.967,83.66 C15.661,85.371 17.543,86.754 19.505,87.875 C20.587,88.494 21.953,88.339 22.869,87.494 L31.013,79.989 C31.365,80.017 31.76,80.053 32.207,80.109 C33.37,80.249 34.767,80.522 35.678,80.878 C36.744,81.281 37.992,82.029 38.911,82.672 C39.108,82.808 39.283,82.935 39.449,83.057 L39.835,94.005 C39.879,95.251 40.733,96.333 41.934,96.666 C44.11,97.27 46.416,97.635 48.826,97.635 C51.232,97.635 53.539,97.27 55.716,96.666 C56.917,96.333 57.77,95.252 57.814,94.007 L58.205,83.057 C58.42,82.899 58.655,82.731 58.92,82.55 C59.817,81.937 60.978,81.256 61.976,80.878 C62.951,80.497 64.471,80.215 65.678,80.082 C66.035,80.04 66.352,80.012 66.64,79.989 L74.785,87.494 C75.702,88.339 77.067,88.494 78.149,87.875 C80.111,86.754 81.993,85.371 83.687,83.66 L83.686,83.661 C85.382,81.949 86.746,80.052 87.848,78.08 C88.455,76.991 88.287,75.627 87.433,74.719 L79.899,66.705 C79.945,66.294 80.005,65.813 80.087,65.291 C80.263,64.158 80.552,62.853 80.895,61.969 C81.298,60.903 82.046,59.656 82.689,58.736 C82.826,58.539 82.953,58.364 83.076,58.199 L94.024,57.806 C95.269,57.762 96.347,56.912 96.682,55.712 C97.288,53.534 97.654,51.225 97.654,48.818 C97.654,46.409 97.288,44.101 96.682,41.924" id="Fill-6" fill="#DAD2BD"></path>
                <path d="M13.9662,13.9764 C13.9662,13.9764 13.9672,13.9764 13.9672,13.9754 C13.9672,13.9754 13.9672,13.9754 13.9682,13.9744 L13.9662,13.9764 Z" id="Fill-8" fill="#DAD2BD"></path>
                <path d="M81.8305,86.8033 C81.0635,85.8423 80.2895,85.0283 79.5115,84.3163 C79.4365,84.2463 79.3615,84.1863 79.2865,84.1183 C79.0855,83.9393 78.8845,83.7563 78.6835,83.5923 C77.0955,82.2663 75.4845,81.4013 73.8555,80.8273 C72.5665,80.3723 71.2675,80.1023 69.9575,79.9453 C69.0665,79.8383 68.1705,79.7803 67.2715,79.7513 C66.1695,79.7153 65.0605,79.7171135 63.9485,79.7171135 L47.4165,79.7193 L35.8515,79.7203 L33.8225,79.7171135 C28.7935,79.7171135 23.8425,79.6243 19.0895,83.5923 C18.8875,83.7563 18.6855,83.9393 18.4845,84.1183 C18.4105,84.1863 18.3345,84.2463 18.2605,84.3163 C17.4815,85.0283 16.7085,85.8423 15.9405,86.8033 C15.6185,87.2073 15.2255,87.7983 14.7985,88.4823 C13.6305,90.1853 9.9275,100.4333 7.5945,107.1853 C18.1195,114.9023 30.8775,119.7453 44.7225,120.5673 C46.0805,120.5813 47.4385,120.5863 48.7945,120.5863 C50.3255,120.5863 51.8625,120.5753 53.4005,120.5473 C67.1965,119.6773 79.9055,114.8183 90.3885,107.1003 C88.0925,100.4303 84.1425,90.1863 82.9735,88.4823 C82.5465,87.7983 82.1525,87.2073 81.8305,86.8033" id="Fill-10" fill="#2167AE"></path>
                <path d="M70.3851,51.2534 C70.3851,63.9854 60.7711,74.3064 48.9111,74.3064 C37.0531,74.3064 27.4391,63.9854 27.4391,51.2534 C27.4391,38.5214 37.0531,28.2004 48.9111,28.2004 C60.7711,28.2004 70.3851,38.5214 70.3851,51.2534" id="Fill-12" fill="#23366F"></path>
                <path d="M60.7689,79.8134 C60.7689,79.8134 59.5969,74.5384 58.9609,71.9144 C58.5649,70.2774 58.9159,68.9084 60.0249,67.7414 C61.0449,66.6674 61.9719,65.5274 62.5649,64.1054 C64.2519,60.0594 64.7249,55.7964 64.6099,51.4184 C64.5939,50.8394 64.4749,50.4674 64.1879,50.2494 C63.9659,50.0824 63.6489,50.0034 63.1859,50.0054 C57.3459,50.0374 52.3529,47.1184 47.1739,44.8334 C41.7369,42.4354 33.9659,45.6044 33.1039,50.8554 C33.0649,57.0664 33.2549,63.1954 37.8359,67.9564 C38.6689,68.8224 39.0739,69.9884 38.8109,71.2294 C38.2009,74.1024 36.8429,79.8154 36.8429,79.8154 C36.8429,79.8154 40.0969,88.2984 48.9229,88.2984 C57.7499,88.2984 60.7689,79.8134 60.7689,79.8134" id="Fill-14" fill="#5495CF"></path>
            </g>
        </g>
    </g>
</svg>