<?xml version="1.0" encoding="UTF-8"?>
<svg width="140px" height="140px" viewBox="0 0 140 140" version="1.1" xmlns="http://www.w3.org/2000/svg" xmlns:xlink="http://www.w3.org/1999/xlink">
    <title>pictogram/health/dentist</title>
    <g id="pictogram/health/dentist" stroke="none" stroke-width="1" fill="none" fill-rule="evenodd">
        <g id="dentist">
            <path d="M140,70 C140,108.66 108.659,140 70,140 C31.34,140 0,108.66 0,70 C0,31.34 31.34,0 70,0 C108.659,0 140,31.34 140,70" id="circle" fill="#91BFE3"></path>
            <g id="picto" transform="translate(21.177575, 29.487400)">
                <path d="M5.74822512,48.5675 C4.91522512,48.5675 4.24022512,47.8925 4.24022512,47.0595 L4.24022512,17.2595 L0.326225119,12.3235 C-0.0217748814,11.8855 -0.0977748814,11.2895 0.129225119,10.7775 L4.36922512,1.1895 C4.70622512,0.4275 5.59722512,0.0825 6.35722512,0.4205 C7.11922512,0.7575 7.46322512,1.6485 7.12722512,2.4105 L3.25522512,11.1645 L6.93022512,15.7985 C7.14122512,16.0645 7.25622512,16.3935 7.25622512,16.7345 L7.25622512,47.0595 C7.25622512,47.8925 6.58122512,48.5675 5.74822512,48.5675" id="Fill-4" fill="#DAD2BD"></path>
                <path d="M5.74822512,81.0248 C4.24922512,81.0248 3.03422512,79.8098 3.03422512,78.3108 L3.03422512,46.0938 C3.03422512,44.5958 4.24922512,43.3808 5.74822512,43.3808 C7.24722512,43.3808 8.46222512,44.5958 8.46222512,46.0938 L8.46222512,78.3108 C8.46222512,79.8098 7.24722512,81.0248 5.74822512,81.0248" id="Fill-6" fill="#2167AE"></path>
                <path d="M97.6437251,7.684 C97.6437251,3.448 94.1967251,0 89.9597251,0 C85.7237251,0 82.2757251,3.448 82.2757251,7.684 C82.2757251,11.405 84.9347251,14.515 88.4527251,15.218 L88.4527251,46.632 C88.4527251,47.465 89.1267251,48.14 89.9597251,48.14 C90.7917251,48.14 91.4667251,47.465 91.4667251,46.632 L91.4667251,15.218 C94.9847251,14.515 97.6437251,11.405 97.6437251,7.684" id="Fill-8" fill="#DAD2BD"></path>
                <path d="M89.9601251,78.7975 C88.4611251,78.7975 87.2461251,77.5825 87.2461251,76.0835 L87.2461251,43.8665 C87.2461251,42.3685 88.4611251,41.1535 89.9601251,41.1535 C91.4581251,41.1535 92.6731251,42.3685 92.6731251,43.8665 L92.6731251,76.0835 C92.6731251,77.5825 91.4581251,78.7975 89.9601251,78.7975" id="Fill-10" fill="#2167AE"></path>
                <path d="M74.1916251,25.0117 C74.2056251,24.9627 74.2276251,24.8997 74.2396251,24.8527 C74.2436251,24.8417 74.2386251,24.8317 74.2406251,24.8217 C74.5956251,23.6027 74.7956251,22.3187 74.7956251,20.9857 C74.7956251,13.4127 68.6566251,7.2737 61.0846251,7.2737 C59.3996251,7.2737 57.7936251,7.5927 56.3026251,8.1477 L56.3046251,8.0877 C47.3416251,11.6547 38.3126251,8.0877 38.3126251,8.0877 L38.3126251,8.1007 C36.8586251,7.5757 35.2966251,7.2737 33.6616251,7.2737 C26.0886251,7.2737 19.9506251,13.4127 19.9506251,20.9857 C19.9506251,22.3187 20.1496251,23.6027 20.5036251,24.8217 C20.5066251,24.8317 20.5026251,24.8417 20.5046251,24.8527 C20.5176251,24.8997 20.5396251,24.9627 20.5536251,25.0117 C20.5626251,25.0417 20.5716251,25.0707 20.5806251,25.0997 C21.7346251,29.0837 27.4216251,40.4607 27.7536251,40.8467 C27.7536251,40.8467 26.8346251,51.8867 29.2746251,73.2857 L29.2876251,73.2857 C29.4106251,75.3157 31.0806251,76.9307 33.1426251,76.9307 C35.2056251,76.9307 36.8756251,75.3157 36.9986251,73.2857 L37.0146251,73.2857 C37.0146251,73.2857 38.3276251,48.1257 47.3726251,48.1257 C56.4186251,48.1257 57.7306251,73.2857 57.7306251,73.2857 L57.7476251,73.2857 C57.8706251,75.3157 59.5406251,76.9307 61.6026251,76.9307 C63.6656251,76.9307 65.3356251,75.3157 65.4586251,73.2857 L65.4706251,73.2857 C67.9116251,51.8867 66.9916251,40.8467 66.9916251,40.8467 C67.3236251,40.4607 73.0106251,29.0837 74.1656251,25.0997 C74.1736251,25.0707 74.1826251,25.0417 74.1916251,25.0117" id="Fill-12" fill="#ECEEEF"></path>
            </g>
        </g>
    </g>
</svg>