<?xml version="1.0" encoding="UTF-8"?>
<svg width="140px" height="140px" viewBox="0 0 140 140" version="1.1" xmlns="http://www.w3.org/2000/svg" xmlns:xlink="http://www.w3.org/1999/xlink">
    <title>pictogram/security/digital/solution</title>
    <g id="pictogram/security/digital/solution" stroke="none" stroke-width="1" fill="none" fill-rule="evenodd">
        <g id="digital-solution" transform="translate(-0.000100, 0.000000)">
            <path d="M0,70 C0,31.34 31.34,0 70,0 C108.66,0 140,31.34 140,70 C140,108.66 108.66,140 70,140 C31.34,140 0,108.66 0,70" id="circle" fill="#91BFE3"></path>
            <g id="picto" transform="translate(16.267400, 32.549500)">
                <path d="M95.6877578,61.106 L11.9946422,61.106 C11.9946422,61.106 11.9967,16.088 11.9946422,15.185 C11.9897,13.261 12.3057,9.879 14.3277,7.556 C16.0907,5.528 18.9087,4.5 22.6997,4.5 L84.9827,4.5 C88.7737,4.5 91.5917,5.528 93.3547,7.556 C95.3767,9.879 95.6927,13.261 95.6877578,15.185 C95.6857,16.088 95.6877578,61.106 95.6877578,61.106 M100.1637,15.939 C100.1637,13.683 100.1577,8.546 96.7787,4.634 C94.1217,1.559 90.1537,0 84.9827,0 L22.6997,0 C17.5287,0 13.5607,1.559 10.9037,4.634 C7.5247,8.546 7.5187,13.683 7.5187,15.939 C7.5187,16.334 7.5267,65.606 7.5267,65.606 L36.4857,65.606 L36.4857,68.949 L71.1967,68.949 L71.1967,65.606 L100.1557,65.606 C100.1557,65.606 100.1637,16.334 100.1637,15.939" id="Fill-4" fill="#5495CF"></path>
                <path d="M95.6877578,61.106 L11.9946422,61.106 C11.9946422,61.106 11.9967,16.088 11.9946422,15.185 C11.9897,13.261 12.3057,9.879 14.3277,7.556 C16.0907,5.528 18.9087,4.5 22.6997,4.5 L84.9827,4.5 C88.7737,4.5 91.5917,5.528 93.3547,7.556 C95.3767,9.879 95.6927,13.261 95.6877578,15.185 C95.6857,16.088 95.6877578,61.106 95.6877578,61.106" id="Fill-6" fill="#ECEEEF"></path>
                <path d="M106.215,64.5372 L66.642,64.5372 C66.026,64.5372 65.497,65.0152 65.402,65.6232 C65.366,65.8532 64.942,67.8732 61.158,67.8732 L46.307,67.8732 C42.986,67.8732 42.348,65.7412 42.29,65.5142 C42.162,64.9432 41.655,64.5372 41.07,64.5372 L1.25,64.5372 C0.56,64.5372 0,65.1082 0,65.7992 C0,70.0592 0,74.8882 7.81,74.8882 L99.655,74.8882 C107.465,74.8882 107.465,70.0592 107.465,65.7872 C107.465,65.0972 106.905,64.5372 106.215,64.5372" id="Fill-8" fill="#2167AE"></path>
                <path d="M70.1237,27.1688 C69.7677,19.9118 63.8917,13.9568 56.6357,13.5148 C48.2607,12.9928 41.3057,19.6358 41.3057,27.8998 C41.3057,31.6258 42.7177,35.0208 45.0377,37.5748 C47.0947,39.8468 48.3657,42.7138 48.4697,45.7708 L62.9837,45.7708 C63.1307,42.6948 64.4137,39.8158 66.4767,37.5078 C68.9077,34.7938 70.3197,31.1468 70.1237,27.1688" id="Fill-10" fill="#5495CF"></path>
                <path d="M62.8886,48.5119 C62.7406,48.4499 62.5806,48.4199 62.4086,48.4199 L62.4146,48.4199 C62.6116,48.4199 62.8026,48.3769 62.9686,48.2969 C63.1106,48.2349 63.2396,48.1419 63.3506,48.0319 C63.5906,47.7909 63.7386,47.4589 63.7386,47.0949 C63.7386,46.5599 63.4246,46.1039 62.9686,45.8939 C62.8026,45.8139 62.6116,45.7709 62.4146,45.7709 L49.0426,45.7709 C48.8386,45.7709 48.6476,45.8139 48.4756,45.9009 C48.3406,45.9619 48.2106,46.0539 48.1056,46.1589 C47.8656,46.3999 47.7186,46.7319 47.7186,47.0949 C47.7186,47.6189 48.0256,48.0809 48.4756,48.2899 C48.6476,48.3769 48.8386,48.4199 49.0426,48.4199 L49.0356,48.4199 C48.8576,48.4199 48.6846,48.4569 48.5316,48.5249 C48.3646,48.5859 48.2226,48.6849 48.0996,48.8079 C47.8596,49.0419 47.7116,49.3739 47.7116,49.7379 C47.7116,50.4709 48.3036,51.0619 49.0356,51.0619 L50.2806,51.0619 C51.6356,52.6079 53.6376,53.5749 55.8606,53.5319 C57.9486,53.4949 59.7966,52.5339 61.0906,51.0619 L62.4086,51.0619 C62.7776,51.0619 63.1036,50.9139 63.3446,50.6739 C63.5846,50.4339 63.7326,50.1009 63.7326,49.7379 C63.7326,49.1779 63.3816,48.7029 62.8886,48.5119" id="Fill-12" fill="#2167AE"></path>
                <path d="M64.1806,29.7694 C61.4796,33.1334 60.0676,37.5114 60.0976,42.4284 C60.0976,42.8094 59.7906,43.1224 59.4106,43.1284 L59.4046,43.1284 C59.0236,43.1284 58.7166,42.8214 58.7166,42.4414 C58.6856,38.1684 59.6926,34.2694 61.6326,31.0214 C60.4726,31.1144 59.2936,30.7144 58.4776,29.9784 C57.7776,30.6474 56.7826,31.0344 55.7266,31.0344 C54.6586,31.0344 53.6706,30.6474 52.9706,29.9784 C52.1476,30.7144 50.9626,31.1144 49.8146,31.0214 C51.7546,34.2754 52.7556,38.1684 52.7306,42.4414 C52.7246,42.8214 52.4176,43.1284 52.0366,43.1284 C51.6566,43.1224 51.3496,42.8154 51.3496,42.4414 L51.3496,42.4284 C51.3796,37.5114 49.9676,33.1334 47.2666,29.7694 C47.0276,29.4744 47.0706,29.0454 47.3646,28.8054 C47.6536,28.5664 48.0836,28.6024 48.3286,28.8914 C48.7466,29.3764 49.4096,29.6524 50.1586,29.6524 C51.0856,29.6524 51.9516,29.2234 52.4116,28.5294 C52.5406,28.3324 52.7676,28.1974 53.0006,28.2224 C53.2406,28.2224 53.4616,28.3514 53.5776,28.5534 C53.9826,29.2354 54.8056,29.6524 55.7266,29.6524 C56.6416,29.6524 57.4646,29.2294 57.8696,28.5534 C57.9926,28.3514 58.2136,28.2224 58.4526,28.2164 C58.6616,28.2164 58.9066,28.3324 59.0416,28.5294 C59.4966,29.2234 60.3556,29.6524 61.2886,29.6524 C62.0376,29.6524 62.7076,29.3764 63.1186,28.8914 C63.3646,28.6024 63.7936,28.5664 64.0886,28.8054 C64.3776,29.0454 64.4206,29.4744 64.1806,29.7694" id="Fill-14" fill="#DAD2BD"></path>
            </g>
        </g>
    </g>
</svg>