<?xml version="1.0" encoding="UTF-8"?>
<svg width="140px" height="140px" viewBox="0 0 140 140" version="1.1" xmlns="http://www.w3.org/2000/svg" xmlns:xlink="http://www.w3.org/1999/xlink">
    <title>pictogram/mobility/direction/plain</title>
    <g id="pictogram/mobility/direction/plain" stroke="none" stroke-width="1" fill="none" fill-rule="evenodd">
        <g id="direction" transform="translate(-0.000100, 0.000000)">
            <path d="M140,70 C140,108.66 108.66,140 70,140 C31.34,140 0,108.66 0,70 C0,31.34 31.34,0 70,0 C108.66,0 140,31.34 140,70" id="circle" fill="#91BFE3"></path>
            <g id="picto" transform="translate(32.118559, 32.115650)" fill="#2167AE">
                <path d="M74.8013412,65.89375 L44.9183412,4.57875 C43.6763412,1.88675 41.0003412,0.13375 37.9353412,0 C37.8993412,0 37.8633412,0 37.8273412,0 C34.7663412,0.13275 32.0943412,1.88175 30.8503412,4.56575 L0.963341167,65.88975 C-0.526658833,68.91575 -0.271658833,72.13275 1.61334117,74.08675 C3.49034117,76.03375 6.45834117,76.30375 9.75534117,74.82575 C17.5403412,71.33575 34.5833412,62.89375 37.8803412,61.25575 C41.1783412,62.89375 58.2223412,71.33575 66.0073412,74.82575 C67.4133412,75.45575 68.7593412,75.76875 69.9873412,75.76875 C71.6373412,75.76875 73.0723412,75.20375 74.1503412,74.08675 C76.0343412,72.13275 76.2893412,68.91475 74.8013412,65.89375" id="Fill-4"></path>
            </g>
        </g>
    </g>
</svg>