<?xml version="1.0" encoding="UTF-8"?>
<svg width="140px" height="140px" viewBox="0 0 140 140" version="1.1" xmlns="http://www.w3.org/2000/svg" xmlns:xlink="http://www.w3.org/1999/xlink">
    <title>pictogram/environment/disaster/earthquake</title>
    <g id="pictogram/environment/disaster/earthquake" stroke="none" stroke-width="1" fill="none" fill-rule="evenodd">
        <g id="earthquake">
            <path d="M140,70 C140,108.66 108.66,140 70,140 C31.34,140 0,108.66 0,70 C0,31.34 31.34,0 70,0 C108.66,0 140,31.34 140,70" id="circle" fill="#91BFE3"></path>
            <g id="picto" transform="translate(25.365700, 23.946600)">
                <polygon id="Fill-3" fill="#2167AE" points="10.5796 37.757 10.5796 85.862 30.6116 85.862 37.4476 71.948 41.9356 85.862 48.0836 85.862 51.1566 78.411 55.1946 85.862 82.1266 85.862 82.1266 37.791"></polygon>
                <path d="M59.7114,2.792 L59.7114,12.226 C59.7114,12.226 70.2774,12.603 70.2774,12.226 L70.2774,2.792 L59.7114,2.792 Z" id="Fill-4" fill="#2167AE"></path>
                <path d="M88.8779,34.4633 C87.3959,30.5653 80.7539,13.5093 80.7539,13.5093 C80.7539,13.5093 80.1499,10.0373 75.3199,10.0373 L47.2589,10.0373 L46.3389,10.0373 L16.9189,10.0373 C12.0889,10.0373 11.4849,13.5093 11.4849,13.5093 C11.4849,13.5093 4.8439,30.5653 3.3609,34.4633 C1.8779,38.3613 6.6549,37.7573 6.6549,37.7573 L46.3389,37.7573 L47.2589,37.7573 L85.5839,37.7573 C85.5839,37.7573 90.3599,38.3613 88.8779,34.4633" id="Fill-6" fill="#23366F"></path>
                <path d="M71.457,2.792 L58.683,2.792 C58.209,2.792 57.825,2.408 57.825,1.934 L57.825,0.858 C57.825,0.384 58.209,0 58.683,0 L71.457,0 C71.931,0 72.315,0.384 72.315,0.858 L72.315,1.934 C72.315,2.408 71.931,2.792 71.457,2.792" id="Fill-8" fill="#23366F"></path>
                <path d="M46.1196,48.2375 C46.1196,48.2375 31.5686,47.8565 31.5686,62.7015 L31.5686,83.9135 L37.4476,71.9485 L42.9406,88.9765 L44.9156,92.6975 L47.4096,87.4965 L51.1566,78.4115 L56.0796,87.4965 L60.6706,87.4965 L60.6706,62.7015 C60.6706,47.8565 46.1196,48.2375 46.1196,48.2375" id="Fill-10" fill="#5495CF"></path>
                <path d="M44.645,99.6619 C44.617,99.6619 44.589,99.6609 44.562,99.6599 C43.731,99.6279 42.635,99.0879 42.282,97.6729 L36.863,75.9959 L32.831,84.0589 C32.282,85.1589 31.038,85.9279 29.806,85.9279 L2.25,85.9279 C1.007,85.9279 0,84.9209 0,83.6779 C0,82.4359 1.007,81.4279 2.25,81.4279 L29.115,81.4279 L35.246,69.1699 C35.858,67.9459 36.958,67.6069 37.775,67.6969 C38.597,67.7879 39.592,68.3569 39.924,69.6839 L44.943,89.7649 L49.342,76.5669 C49.693,75.5169 50.545,74.8209 51.566,74.7489 C52.585,74.6759 53.529,75.2449 54.023,76.2329 L59.379,86.9439 L63.74,82.5829 C64.431,81.8919 65.551,81.4279 66.527,81.4279 L87.019,81.4279 C88.262,81.4279 89.269,82.4359 89.269,83.6779 C89.269,84.9209 88.262,85.9279 87.019,85.9279 L66.758,85.9279 L60.85,91.8379 C60.202,92.4859 59.331,92.7759 58.456,92.6339 C57.583,92.4929 56.848,91.9419 56.438,91.1239 L52.115,82.4789 L46.991,97.8539 C46.542,99.1939 45.467,99.6619 44.645,99.6619" id="Fill-12" fill="#DAD2BD"></path>
            </g>
        </g>
    </g>
</svg>