<?xml version="1.0" encoding="UTF-8"?>
<svg width="140px" height="140px" viewBox="0 0 140 140" version="1.1" xmlns="http://www.w3.org/2000/svg" xmlns:xlink="http://www.w3.org/1999/xlink">
    <title>pictogram/environment/disaster/storm-surge</title>
    <g id="pictogram/environment/disaster/storm-surge" stroke="none" stroke-width="1" fill="none" fill-rule="evenodd">
        <g id="storm-surge">
            <path d="M140,70 C140,108.66 108.66,140 70,140 C31.34,140 0,108.66 0,70 C0,31.34 31.34,0 70,0 C108.66,0 140,31.34 140,70" id="circle" fill="#91BFE3"></path>
            <g id="picto" transform="translate(0.089800, 21.847398)">
                <path d="M76.9756,98.668802 C37.3946,83.826802 47.0656,35.940802 49.4226,26.420802 C47.7326,26.327802 46.1836,25.710802 44.9346,24.726802 C35.2046,17.330802 16.6276,29.369802 7.1926,42.490802 C2.9236,48.426802 1.3536,54.814802 0.7816,59.018802 C6.0036,92.515802 34.9486,118.155802 69.9106,118.155802 C86.7776,118.155802 102.2496,112.187802 114.3356,102.250802 C102.4746,103.923802 89.6426,103.418802 76.9756,98.668802" id="Fill-3" fill="#5495CF"></path>
                <path d="M75.793,12.355302 L75.796,12.354302 C75.794,12.349302 75.779,12.320302 75.753,12.272302 C75.315,11.415302 74.768,10.626302 74.132,9.916302 C69.947,4.698302 57.299,-6.232698 30.046,4.656302 C5.811,14.339302 0.686,36.998302 0,51.273302 C0.028,51.837302 0.055,52.401302 0.093,52.962302 C0.231,55.007302 0.471,57.025302 0.782,59.019302 C1.354,54.814302 2.924,48.427302 7.192,42.490302 C16.627,29.369302 35.205,17.330302 44.935,24.727302 C46.184,25.711302 47.732,26.328302 49.422,26.420302 C49.568,26.429302 49.713,26.439302 49.861,26.439302 C52.542,26.439302 54.909,25.111302 56.353,23.081302 C58.303,26.293302 61.823,28.446302 65.855,28.446302 C71.997,28.446302 76.976,23.467302 76.976,17.325302 C76.976,15.536302 76.543,13.852302 75.793,12.355302" id="Fill-6" fill="#ECEEEF"></path>
                <path d="M107.8589,65.581302 L108.3429,65.581302 L108.3429,65.576302 C108.3779,65.576302 108.4109,65.581302 108.4459,65.581302 C115.5319,65.581302 121.2769,59.745302 121.2769,52.545302 C121.2769,46.419302 117.1129,41.295302 111.5069,39.898302 C110.0669,31.619302 102.9659,25.324302 94.4019,25.324302 C84.7999,25.324302 77.0159,33.232302 77.0159,42.988302 C77.0159,43.452302 77.0489,43.908302 77.0839,44.363302 C71.7649,44.868302 67.6009,49.411302 67.6009,54.947302 C67.6009,60.820302 72.2879,65.581302 78.0689,65.581302 L81.0209,65.581302" id="Fill-8" fill="#2167AE"></path>
                <path d="M105.458,64.500102 C105.184,64.301102 104.846,64.204102 104.506,64.223102 L97.6,64.223102 L97.659,48.904102 L97.659,48.899102 C97.659,48.050102 97.112,47.620102 96.644,47.509102 C96.179,47.399102 95.495,47.540102 95.123,48.286102 L83.919,70.056102 C83.743,70.353102 83.677,70.698102 83.733,71.042102 C83.796,71.431102 84.007,71.771102 84.328,72.002102 C84.607,72.203102 84.935,72.297102 85.279,72.275102 L92.204,72.275102 L92.204,87.574102 C92.204,88.423102 92.75,88.854102 93.217,88.964102 C93.308,88.985102 93.406,88.998102 93.509,88.998102 C93.937,88.998102 94.438,88.789102 94.741,88.185102 L105.863,66.441102 C106.039,66.144102 106.104,65.799102 106.048,65.454102 C105.984,65.066102 105.773,64.727102 105.458,64.500102" id="Fill-10" fill="#DAD2BD"></path>
            </g>
        </g>
    </g>
</svg>