<?xml version="1.0" encoding="UTF-8"?>
<svg width="140px" height="140px" viewBox="0 0 140 140" version="1.1" xmlns="http://www.w3.org/2000/svg" xmlns:xlink="http://www.w3.org/1999/xlink">
    <title>pictogram/environment/disaster/tsunami</title>
    <g id="pictogram/environment/disaster/tsunami" stroke="none" stroke-width="1" fill="none" fill-rule="evenodd">
        <g id="tsunami">
            <path d="M140,70 C140,108.66 108.66,140 70,140 C31.34,140 0,108.66 0,70 C0,31.34 31.34,0 70,0 C108.66,0 140,31.34 140,70" id="circle" fill="#91BFE3"></path>
            <g id="picto" transform="translate(0.089800, 21.847398)">
                <path d="M114.3355,102.250802 C118.6065,98.738802 122.4515,94.727802 125.7895,90.311802 L125.7895,62.659802 L61.4785,62.628802 L61.4785,89.244802 C65.5305,93.040802 70.6135,96.282802 76.9755,98.668802 C89.6425,103.418802 102.4745,103.923802 114.3355,102.250802" id="Fill-3" fill="#2167AE"></path>
                <path d="M116.1988,31.200302 L104.7168,31.200302 C104.2908,31.200302 103.9458,30.855302 103.9458,30.428302 L103.9458,29.461302 C103.9458,29.035302 104.2908,28.690302 104.7168,28.690302 L116.1988,28.690302 C116.6248,28.690302 116.9698,29.035302 116.9698,29.461302 L116.9698,30.428302 C116.9698,30.855302 116.6248,31.200302 116.1988,31.200302" id="Fill-5" fill="#23366F"></path>
                <path d="M93.6338,71.408302 C93.6338,71.408302 80.1348,71.055302 80.1348,84.826302 L80.1348,104.601302 L93.6338,104.601302 L107.1328,104.601302 L107.1328,84.826302 C107.1328,71.055302 93.6338,71.408302 93.6338,71.408302" id="Fill-7" fill="#DAD2BD"></path>
                <path d="M105.6411,31.200302 L105.6411,39.680302 C105.6411,39.680302 115.1391,40.019302 115.1391,39.680302 L115.1391,31.200302 L105.6411,31.200302 Z" id="Fill-9" fill="#2167AE"></path>
                <path d="M131.8579,59.668102 C130.5249,56.165102 124.5559,40.833102 124.5559,40.833102 C124.5559,40.833102 124.0129,37.713102 119.6709,37.713102 L94.4479,37.713102 L93.6209,37.713102 L67.1769,37.713102 C62.8359,37.713102 62.2929,40.833102 62.2929,40.833102 C62.2929,40.833102 56.3229,56.165102 54.9899,59.668102 C53.6579,63.171102 57.9509,62.629102 57.9509,62.629102 L93.6209,62.629102 L94.4479,62.629102 L128.8969,62.629102 C128.8969,62.629102 133.1909,63.171102 131.8579,59.668102" id="Fill-11" fill="#23366F"></path>
                <path d="M76.9756,98.668802 C37.3946,83.826802 47.0656,35.940802 49.4226,26.420802 C47.7326,26.327802 46.1836,25.710802 44.9346,24.726802 C35.2046,17.330802 16.6276,29.369802 7.1926,42.490802 C2.9236,48.426802 1.3536,54.814802 0.7816,59.018802 C6.0036,92.515802 34.9486,118.155802 69.9106,118.155802 C86.7776,118.155802 102.2496,112.187802 114.3356,102.250802 C102.4746,103.923802 89.6426,103.418802 76.9756,98.668802" id="Fill-13" fill="#5495CF"></path>
                <path d="M75.793,12.355302 L75.796,12.354302 C75.794,12.349302 75.779,12.320302 75.753,12.272302 C75.315,11.415302 74.768,10.626302 74.132,9.916302 C69.947,4.698302 57.299,-6.232698 30.046,4.656302 C5.811,14.339302 0.686,36.998302 0,51.273302 C0.028,51.837302 0.055,52.401302 0.093,52.962302 C0.231,55.007302 0.471,57.025302 0.782,59.019302 C1.354,54.814302 2.924,48.427302 7.192,42.490302 C16.627,29.369302 35.205,17.330302 44.935,24.727302 C46.184,25.711302 47.732,26.328302 49.422,26.420302 C49.568,26.429302 49.713,26.439302 49.861,26.439302 C52.542,26.439302 54.909,25.111302 56.353,23.081302 C58.303,26.293302 61.823,28.446302 65.855,28.446302 C71.997,28.446302 76.976,23.467302 76.976,17.325302 C76.976,15.536302 76.543,13.852302 75.793,12.355302" id="Fill-16" fill="#ECEEEF"></path>
            </g>
        </g>
    </g>
</svg>