<?xml version="1.0" encoding="UTF-8"?>
<svg width="140px" height="140px" viewBox="0 0 140 140" version="1.1" xmlns="http://www.w3.org/2000/svg" xmlns:xlink="http://www.w3.org/1999/xlink">
    <title>pictogram/mobility/distance/horizontal</title>
    <g id="pictogram/mobility/distance/horizontal" stroke="none" stroke-width="1" fill="none" fill-rule="evenodd">
        <g id="distance-horizontal" transform="translate(-0.000100, 0.000000)">
            <path d="M140,70 C140,108.66 108.66,140 70,140 C31.34,140 0,108.66 0,70 C0,31.34 31.34,0 70,0 C108.66,0 140,31.34 140,70" id="circle" fill="#91BFE3"></path>
            <g id="picto" transform="translate(17.937100, 37.486700)">
                <path d="M83.935,39.6835 C79.517,39.6835 75.821,42.7405 74.822,46.8515 L29.475,46.8515 C28.831,42.2935 24.926,38.7835 20.191,38.7835 C15.005,38.7835 10.802,42.9865 10.802,48.1715 C10.802,53.3565 15.005,57.5595 20.191,57.5595 C24.257,57.5595 27.71,54.9695 29.014,51.3515 L74.837,51.3515 C75.859,55.4325 79.539,58.4595 83.935,58.4595 C89.121,58.4595 93.324,54.2565 93.324,49.0715 C93.324,43.8865 89.121,39.6835 83.935,39.6835" id="Fill-4" fill="#2167AE"></path>
                <path d="M98.2202,7.3248 C94.4062,3.5098 89.3342,1.4098 83.9412,1.4098 C78.5462,1.4098 73.4752,3.5098 69.6612,7.3248 C65.8472,11.1388 63.7452,16.2098 63.7452,21.6038 C63.7452,26.9978 65.8472,32.0688 69.6662,35.8888 L83.4922,49.3998 C83.6172,49.5208 83.7792,49.5818 83.9412,49.5818 C84.1022,49.5818 84.2642,49.5208 84.3882,49.3998 L98.2202,35.8838 C106.0932,28.0098 106.0932,15.1978 98.2202,7.3248" id="Fill-6" fill="#DAD2BD"></path>
                <path d="M83.9409,11.3073 C78.3119,11.3073 73.7329,15.8863 73.7329,21.5153 C73.7329,27.1433 78.3119,31.7223 83.9409,31.7223 C89.5689,31.7223 94.1489,27.1433 94.1489,21.5153 C94.1489,15.8863 89.5689,11.3073 83.9409,11.3073" id="Fill-8" fill="#5495CF"></path>
                <path d="M84.9116,25.6 C85.4566,25.6 85.8806,25.454 86.1826,25.163 C86.4826,24.871 86.6346,24.477 86.6346,23.981 C86.6346,23.495 86.4826,23.103 86.1826,22.806 C85.8806,22.509 85.4616,22.361 84.9266,22.361 L81.8046,22.361 L81.8046,25.6 L84.9116,25.6 Z M84.7366,21.077 C85.2326,21.077 85.6196,20.941 85.8966,20.668 C86.1746,20.396 86.3126,20.036 86.3126,19.588 C86.3126,19.131 86.1726,18.771 85.8906,18.508 C85.6076,18.246 85.2136,18.114 84.7076,18.114 L81.8046,18.114 L81.8046,21.077 L84.7366,21.077 Z M80.1256,27.001 L80.1256,16.728 L85.0146,16.728 C85.6176,16.728 86.1426,16.844 86.5906,17.078 C87.0376,17.312 87.3786,17.63 87.6116,18.034 C87.8456,18.438 87.9626,18.893 87.9626,19.398 C87.9626,19.885 87.8406,20.323 87.5976,20.711 C87.3536,21.101 87.0176,21.393 86.5906,21.587 C87.1446,21.791 87.5726,22.115 87.8746,22.558 C88.1766,23 88.3266,23.524 88.3266,24.126 C88.3266,24.671 88.2026,25.163 87.9546,25.6 C87.7066,26.038 87.3536,26.381 86.8966,26.629 C86.4386,26.877 85.8996,27.001 85.2766,27.001 L80.1256,27.001 Z" id="Fill-10" fill="#23366F"></path>
                <path d="M34.475,5.915 C30.662,2.1 25.59,0 20.196,0 C14.802,0 9.731,2.1 5.916,5.915 C2.102,9.729 0,14.8 0,20.194 C0,25.588 2.102,30.659 5.921,34.479 L19.747,47.99 C19.872,48.111 20.035,48.172 20.196,48.172 C20.358,48.172 20.519,48.111 20.643,47.99 L34.475,34.474 C42.349,26.6 42.349,13.788 34.475,5.915" id="Fill-12" fill="#DAD2BD"></path>
                <path d="M20.1958,9.8976 C14.5668,9.8976 9.9878,14.4766 9.9878,20.1056 C9.9878,25.7336 14.5668,30.3126 20.1958,30.3126 C25.8248,30.3126 30.4038,25.7336 30.4038,20.1056 C30.4038,14.4766 25.8248,9.8976 20.1958,9.8976" id="Fill-14" fill="#5495CF"></path>
                <path d="M18.5151,21.5726 L21.8281,21.5726 L20.1641,17.2236 L18.5151,21.5726 Z M15.2901,25.4686 L19.2451,15.1956 L21.1421,15.1956 L25.0971,25.4686 L23.3171,25.4686 L22.3981,23.0466 L17.9471,23.0466 L17.0271,25.4686 L15.2901,25.4686 Z" id="Fill-16" fill="#23366F"></path>
            </g>
        </g>
    </g>
</svg>