<?xml version="1.0" encoding="UTF-8"?>
<svg width="140px" height="140px" viewBox="0 0 140 140" version="1.1" xmlns="http://www.w3.org/2000/svg" xmlns:xlink="http://www.w3.org/1999/xlink">
    <title>pictogram/environment/earth/asia</title>
    <defs>
        <path d="M70,0 C31.34,0 0,31.34 0,70 L0,70 C0,108.66 31.34,140 70,140 L70,140 C108.661,140 140,108.66 140,70 L140,70 C140,31.34 108.661,0 70,0 Z" id="path-1"></path>
        <path d="M70,0 C31.34,0 0,31.34 0,70 L0,70 C0,108.66 31.34,140 70,140 L70,140 C108.661,140 140,108.66 140,70 L140,70 C140,31.34 108.661,0 70,0 Z" id="path-3"></path>
        <path d="M70,0 C31.34,0 0,31.34 0,70 L0,70 C0,108.66 31.34,140 70,140 L70,140 C108.661,140 140,108.66 140,70 L140,70" id="path-5"></path>
        <path d="M70,0 C31.34,0 0,31.34 0,70 L0,70 C0,108.66 31.34,140 70,140 L70,140 C108.661,140 140,108.66 140,70 L140,70" id="path-7"></path>
        <path d="M70,0 C31.34,0 0,31.34 0,70 L0,70 C0,108.66 31.34,140 70,140 L70,140 C108.661,140 140,108.66 140,70 L140,70" id="path-9"></path>
        <path d="M70,0 C31.34,0 0,31.34 0,70 L0,70 C0,108.66 31.34,140 70,140 L70,140 C108.661,140 140,108.66 140,70 L140,70" id="path-11"></path>
        <path d="M70,0 C31.34,0 0,31.34 0,70 L0,70 C0,108.66 31.34,140 70,140 L70,140 C108.661,140 140,108.66 140,70 L140,70" id="path-13"></path>
        <path d="M70,0 C31.34,0 0,31.34 0,70 L0,70 C0,108.66 31.34,140 70,140 L70,140 C108.661,140 140,108.66 140,70 L140,70" id="path-15"></path>
        <path d="M70,0 C31.34,0 0,31.34 0,70 L0,70 C0,108.66 31.34,140 70,140 L70,140 C108.661,140 140,108.66 140,70 L140,70" id="path-17"></path>
        <path d="M70,0 C31.34,0 0,31.34 0,70 L0,70 C0,108.66 31.34,140 70,140 L70,140 C108.661,140 140,108.66 140,70 L140,70" id="path-19"></path>
        <path d="M70,0 C31.34,0 0,31.34 0,70 L0,70 C0,108.66 31.34,140 70,140 L70,140 C108.661,140 140,108.66 140,70 L140,70" id="path-21"></path>
        <path d="M70,0 C31.34,0 0,31.34 0,70 L0,70 C0,108.66 31.34,140 70,140 L70,140 C108.661,140 140,108.66 140,70 L140,70" id="path-23"></path>
        <path d="M70,0 C31.34,0 0,31.34 0,70 L0,70 C0,108.66 31.34,140 70,140 L70,140 C108.661,140 140,108.66 140,70 L140,70" id="path-25"></path>
        <path d="M70,0 C31.34,0 0,31.34 0,70 L0,70 C0,108.66 31.34,140 70,140 L70,140 C108.661,140 140,108.66 140,70 L140,70 C140,31.34 108.661,0 70,0 Z" id="path-27"></path>
        <path d="M70,0 C31.34,0 0,31.34 0,70 L0,70 C0,108.66 31.34,140 70,140 L70,140 C108.661,140 140,108.66 140,70 L140,70" id="path-29"></path>
    </defs>
    <g id="pictogram/environment/earth/asia" stroke="none" stroke-width="1" fill="none" fill-rule="evenodd">
        <g id="earth-asia" transform="translate(0.000000, -0.000100)">
            <path d="M140,70 C140,108.66 108.66,140 70,140 C31.34,140 0,108.66 0,70 C0,31.34 31.34,0 70,0 C108.66,0 140,31.34 140,70" id="circle" fill="#91BFE3"></path>
            <g id="picto" transform="translate(0.000000, 0.000100)">
                <g id="Group-6">
                    <mask id="mask-2" fill="white">
                        <use xlink:href="#path-1"></use>
                    </mask>
                    <g id="Clip-5"></g>
                    <path d="M97.5879,102.9105 C97.5879,102.9105 101.4709,103.1585 91.8409,105.6035 C82.2109,108.0495 81.2219,102.6385 81.2219,102.6385 L85.5729,104.8395 L91.3819,103.7695 L97.5879,102.9105 Z" id="Fill-4" fill="#5495CF" mask="url(#mask-2)"></path>
                </g>
                <g id="Group-9">
                    <mask id="mask-4" fill="white">
                        <use xlink:href="#path-3"></use>
                    </mask>
                    <g id="Clip-8"></g>
                    <path d="M72.1104,100.4302 C72.1104,100.4302 71.6884,101.2502 73.5684,101.7902 C75.4494,102.3302 71.1654,101.3762 71.1654,101.3762 L70.3914,100.4302 L72.1104,100.4302 Z" id="Fill-7" fill="#5495CF" mask="url(#mask-4)"></path>
                </g>
                <g id="Group-12">
                    <mask id="mask-6" fill="white">
                        <use xlink:href="#path-5"></use>
                    </mask>
                    <g id="Clip-11"></g>
                    <path d="M77.9292,96.5469 C77.9292,96.5469 78.0162,97.7059 77.5432,97.7499 C77.0702,97.7929 77.6862,98.7109 78.7322,97.9799 C79.7792,97.2489 79.9412,97.2209 80.2272,97.2709 C80.5122,97.3209 77.9292,96.5469 77.9292,96.5469" id="Fill-10" fill="#5495CF" mask="url(#mask-6)"></path>
                </g>
                <g id="Group-15">
                    <mask id="mask-8" fill="white">
                        <use xlink:href="#path-7"></use>
                    </mask>
                    <g id="Clip-14"></g>
                    <path d="M97.5879,102.9105 C94.2579,103.3585 85.0879,103.6005 84.0449,103.7315 C82.8219,103.8845 80.3759,101.5915 79.7639,102.6605 C79.1529,103.7315 71.0509,101.1325 71.6629,100.9795 C72.2739,100.8275 73.3439,97.3105 71.6629,96.5465 C69.9809,95.7825 68.7579,95.3235 67.6879,93.7945 C67.0569,92.8925 65.0989,92.3125 63.5959,91.9865 C63.5679,91.9835 61.7589,91.8025 62.1889,93.4405 C62.1899,93.4415 62.1889,93.4415 62.1899,93.4425 C62.2929,93.8585 62.3989,94.2975 62.4899,94.7125 C62.7959,96.0875 66.6179,101.1325 67.9939,101.1325 C69.3689,101.1325 69.8279,101.7435 70.6999,102.9675 C71.5719,104.1895 77.0129,105.2605 78.6939,104.8015 C80.3759,104.3425 82.0569,104.8015 84.3499,105.7185 C86.1309,106.4315 94.4599,103.8235 97.5879,102.9105" id="Fill-13" fill="#5495CF" mask="url(#mask-8)"></path>
                </g>
                <g id="Group-18">
                    <mask id="mask-10" fill="white">
                        <use xlink:href="#path-9"></use>
                    </mask>
                    <g id="Clip-17"></g>
                    <path d="M77.8433,97.7693 C77.9083,97.7393 77.9603,97.6993 78.0013,97.6543 C77.6323,97.8133 77.5073,97.9263 77.8433,97.7693" id="Fill-16" fill="#5495CF" mask="url(#mask-10)"></path>
                </g>
                <g id="Group-21">
                    <mask id="mask-12" fill="white">
                        <use xlink:href="#path-11"></use>
                    </mask>
                    <g id="Clip-20"></g>
                    <path d="M81.4458,97.7693 C83.1278,99.1453 83.2798,97.0033 85.1148,97.8453 C86.9488,98.6863 86.9488,94.7783 88.6308,93.8283 C90.3118,92.8773 89.7008,89.9733 90.3118,87.6803 C90.9238,85.3873 89.3948,82.9413 89.3948,82.9413 L88.0188,82.0243 L80.2538,89.8203 C80.2538,89.8203 78.0828,88.9033 76.8598,89.8203 C75.6368,90.7373 74.8728,91.6553 75.9428,93.3363 C76.9418,94.9063 78.5888,97.0083 78.0018,97.6543 C78.7118,97.3473 80.3398,96.8643 81.4458,97.7693" id="Fill-19" fill="#5495CF" mask="url(#mask-12)"></path>
                </g>
                <g id="Group-24">
                    <mask id="mask-14" fill="white">
                        <use xlink:href="#path-13"></use>
                    </mask>
                    <g id="Clip-23"></g>
                    <path d="M93.2163,91.6551 C93.2163,91.6551 90.6723,99.4511 92.0203,99.7571 C92.9033,99.9571 93.4683,98.1621 93.7553,96.8971 L93.7553,96.9001 C93.7553,96.9001 94.1113,96.1241 94.3523,96.6551 L94.3533,96.6551 C94.8363,97.7771 95.7013,99.4101 96.4263,98.7471 C97.1793,98.0591 96.2683,96.0421 95.6613,94.9051 L95.6623,94.9051 C95.6623,94.9051 95.6583,94.8991 95.6573,94.8981 C95.6283,94.8431 95.5983,94.7871 95.5703,94.7361 C95.4433,94.4641 95.3023,93.9511 96.0443,93.9091 C97.0573,93.8521 97.7263,93.1831 97.0953,92.8591 C96.4653,92.5341 94.7333,91.6881 95.7683,91.8541 C95.7703,91.8551 95.7723,91.8551 95.7753,91.8551 C96.7773,92.0601 98.3613,92.2701 98.7503,91.6551 C99.3313,90.7381 95.3563,88.9031 93.2163,91.6551" id="Fill-22" fill="#5495CF" mask="url(#mask-14)"></path>
                </g>
                <g id="Group-27">
                    <mask id="mask-16" fill="white">
                        <use xlink:href="#path-15"></use>
                    </mask>
                    <g id="Clip-26"></g>
                    <path d="M120.7324,110.4573 C120.7324,110.4573 121.3434,107.5533 121.4964,106.1823 C121.5784,105.4493 120.9614,104.0743 120.3684,102.9503 C119.6494,101.4953 118.6004,103.1913 118.6004,103.1913 L118.6004,103.1893 C117.7214,105.4653 116.2734,109.0443 115.3314,110.4573 C113.9044,112.5973 113.5474,109.3873 111.7134,108.4703 C110.7334,107.9803 111.2824,106.9243 112.0044,106.0463 C112.0124,106.0363 112.0144,106.0313 112.0224,106.0203 C113.1154,104.6223 111.2594,104.4753 111.2594,104.4753 L111.2604,104.4753 C110.4224,104.4033 109.3814,104.3083 108.1974,104.1893 C105.1404,103.8843 106.0574,108.3173 103.9174,109.6933 C101.7764,111.0683 98.7194,108.6233 97.8364,108.6233 C96.9524,108.6233 95.6624,115.1963 90.4564,116.3693 C85.2504,117.5423 80.2224,121.1583 82.9444,124.2153 C85.6664,127.2723 81.7514,129.2603 89.0894,129.2603 C94.2234,129.2603 100.8514,126.9403 104.3704,125.5473 C104.3764,125.5453 104.3774,125.5453 104.3824,125.5423 C105.9104,124.9573 105.4694,125.7293 105.4694,125.7293 L105.4704,125.7283 C104.6374,126.5683 103.8474,127.6113 104.5284,128.0373 C105.7514,128.8013 107.4334,126.9673 107.4334,126.9673 L107.4334,129.1383 C113.7364,125.1393 119.3664,120.1753 124.0894,114.4313 C123.7264,114.1523 123.4424,113.9313 123.3314,113.8203 C122.8724,113.3613 120.7324,110.4573 120.7324,110.4573" id="Fill-25" fill="#5495CF" mask="url(#mask-16)"></path>
                </g>
                <g id="Group-30">
                    <mask id="mask-18" fill="white">
                        <use xlink:href="#path-17"></use>
                    </mask>
                    <g id="Clip-29"></g>
                    <path d="M99.9424,77.1326 C98.5684,76.8206 97.7354,76.2276 97.2254,75.6346 L97.2254,75.6406 C97.2254,75.6406 96.1324,74.6796 95.6034,75.9096 C95.0944,77.5286 94.8104,79.7306 96.4264,80.9186 C99.1784,82.9416 100.2484,84.0116 101.3184,83.0946 C102.3884,82.1766 103.3054,77.8966 99.9424,77.1326" id="Fill-28" fill="#5495CF" mask="url(#mask-18)"></path>
                </g>
                <g id="Group-33">
                    <mask id="mask-20" fill="white">
                        <use xlink:href="#path-19"></use>
                    </mask>
                    <g id="Clip-32"></g>
                    <path d="M94.8496,64.7313 C94.0536,64.2713 93.8226,65.0643 93.7556,65.5173 C93.7476,65.6043 93.7376,65.6963 93.7276,65.7883 C93.7276,65.7903 93.7266,65.8003 93.7266,65.8003 L93.7266,65.7973 C93.5816,67.1543 93.2386,69.0503 92.4526,70.0003 C91.2286,71.4763 92.6046,74.8393 96.5796,70.7123 C99.5416,67.6363 96.5606,65.5793 94.8496,64.7313" id="Fill-31" fill="#5495CF" mask="url(#mask-20)"></path>
                </g>
                <g id="Group-36">
                    <mask id="mask-22" fill="white">
                        <use xlink:href="#path-21"></use>
                    </mask>
                    <g id="Clip-35"></g>
                    <path d="M93.7275,65.7879 C93.7275,65.7909 93.7275,65.7949 93.7265,65.7979 L93.7275,65.8009 C93.7275,65.8009 93.7275,65.7899 93.7275,65.7879" id="Fill-34" fill="#5495CF" mask="url(#mask-22)"></path>
                </g>
                <g id="Group-39">
                    <mask id="mask-24" fill="white">
                        <use xlink:href="#path-23"></use>
                    </mask>
                    <g id="Clip-38"></g>
                    <path d="M38.4902,82.1771 C37.8862,81.5731 37.3312,80.2891 36.9352,79.1461 C36.3402,77.4101 35.1472,78.6711 35.0562,78.7711 C34.3492,79.8891 33.6632,81.4821 33.9042,83.2471 C34.3632,86.6101 39.5602,83.2471 38.4902,82.1771" id="Fill-37" fill="#5495CF" mask="url(#mask-24)"></path>
                </g>
                <g id="Group-42">
                    <mask id="mask-26" fill="white">
                        <use xlink:href="#path-25"></use>
                    </mask>
                    <g id="Clip-41"></g>
                    <path d="M125.2227,97.4446 C125.2227,97.4396 125.2227,97.4376 125.2217,97.4336 C125.1157,96.8166 124.9887,96.0026 124.8597,94.9866 C124.7257,93.9316 124.2117,92.8976 123.6767,92.0526 C123.6727,92.0426 123.6737,92.0346 123.6657,92.0216 C123.3507,91.4966 123.0447,90.2786 122.7577,90.2216 C122.4717,90.1646 120.9617,90.1386 120.9617,90.1386 C119.7787,90.0926 118.1467,90.0596 117.6757,90.2016 C116.9107,90.4316 115.3827,93.0306 114.1597,92.7246 C113.4887,92.5576 112.5497,91.8186 111.8317,91.1816 C111.8277,91.1776 111.8237,91.1746 111.8197,91.1706 C111.7977,91.1466 111.7267,91.0766 111.6087,90.9826 C111.2697,90.7146 110.5607,90.3136 109.5737,90.6386 C109.5717,90.6396 109.5707,90.6396 109.5687,90.6406 C108.8107,90.9026 107.8347,91.2226 107.0167,91.4356 C107.0147,91.4366 107.0147,91.4366 107.0127,91.4376 C105.9937,91.7296 105.1937,92.5326 105.3137,93.6496 L105.3137,93.6496 C105.3137,93.6496 105.3147,93.6496 105.3147,93.6506 C105.4107,94.5346 106.8807,94.5916 107.4927,94.5776 C107.6367,94.5746 107.7337,94.5696 107.7507,94.5676 L107.7677,94.5676 C108.2447,94.5676 108.6557,94.6696 108.8087,94.9866 C109.2677,95.9356 111.5607,95.7816 112.3247,96.0876 C113.0897,96.3936 115.0767,96.5156 115.5347,98.7476 C115.9937,100.9796 117.8277,102.3856 119.2037,99.7726 C120.5797,97.1576 122.8727,96.6996 123.1787,97.1576 C123.2797,97.3096 123.5687,97.5346 123.9047,97.7676 C124.2677,98.0066 125.4147,98.6726 125.2227,97.4446" id="Fill-40" fill="#5495CF" mask="url(#mask-26)"></path>
                </g>
                <g id="Group-45">
                    <mask id="mask-28" fill="white">
                        <use xlink:href="#path-27"></use>
                    </mask>
                    <g id="Clip-44"></g>
                    <path d="M72.812,60.3188 C72.812,60.3188 74.007,59.1838 75.51,59.9988 C77.013,60.8138 74.51,57.6038 74.51,57.6038 L72.217,58.8458 L72.812,60.3188 Z" id="Fill-43" fill="#5495CF" mask="url(#mask-28)"></path>
                </g>
                <g id="Group-48">
                    <mask id="mask-30" fill="white">
                        <use xlink:href="#path-29"></use>
                    </mask>
                    <g id="Clip-47"></g>
                    <path d="M109.917,33.6038 C110.49,31.5408 106.249,31.1958 106.707,30.0498 C106.945,29.4548 107.829,29.4788 108.626,29.6378 C108.634,29.6388 108.641,29.6408 108.649,29.6418 C108.677,29.6498 108.747,29.6668 108.862,29.6878 C109.278,29.7618 110.119,29.8278 110.363,29.2058 C110.69,28.3698 110.053,27.7238 109.381,27.3408 C109.378,27.3388 109.378,27.3378 109.375,27.3368 C107.899,26.5148 106,25.3518 107.509,25.5788 C108.954,25.7948 106.166,22.3258 103.906,19.7288 C103.091,18.7838 103.582,20.3688 103.582,20.3688 L103.582,20.3688 C107.628,27.5038 105.016,28.9748 105.216,29.4768 C105.446,30.0498 107.854,33.8328 106.936,35.5528 C106.019,37.2728 105.331,38.9928 104.987,38.9928 C104.643,38.9928 102.121,39.2218 100.745,41.6288 C99.553,43.7158 101.209,45.1128 102.004,45.5218 L102.004,45.5228 C102.004,45.5228 102.704,46.4068 103.182,46.1578 C103.659,45.9098 103.615,44.8558 103.124,44.3998 C102.663,43.9718 102.513,43.3758 102.497,43.3058 C102.248,41.9818 102.26,40.6558 103.735,40.8268 C106.707,41.1708 107.968,44.3808 108.542,42.0878 C109.115,39.7948 109.382,38.7628 110.796,38.8778 C112.21,38.9928 109.344,35.6678 109.917,33.6038" id="Fill-46" fill="#5495CF" mask="url(#mask-30)"></path>
                </g>
                <g id="Group-51" transform="translate(0.000400, 1.541909)" fill="#5495CF">
                    <path d="M109.358,16.8377915 C109.357,16.8327915 109.358,16.8307915 109.357,16.8247915 C109.339,16.7597915 109.327,16.7077915 109.319,16.6647915 C109.319,16.6627915 109.318,16.6597915 109.317,16.6577915 C108.961,15.1807915 108.126,12.8447915 106.21,10.9277915 C105.186,9.90379149 105.365,9.08679149 106.052,8.45179149 C102.019,6.02279149 97.717,3.99879149 93.207,2.41479149 C92.468,2.31579149 85.046,1.35379149 83.738,2.42379149 C82.362,3.55079149 76.401,2.21479149 71.509,0.379791485 C66.617,-1.45420851 61.114,4.04879149 60.35,2.20979149 C59.586,0.368791485 53.012,4.66079149 54.235,2.82579149 C55.458,0.991791485 47.356,3.74379149 43.84,4.66079149 C40.324,5.57779149 47.05,2.82579149 47.05,2.82579149 L46.539,2.49979149 C35.192,6.53679149 25.203,13.4177915 17.411,22.2837915 C18.036,22.1737915 18.718,22.0067915 19.296,21.8527915 L19.294,21.8537915 C19.294,21.8537915 20.469,21.4967915 19.945,22.6367915 C19.94,22.6497915 19.941,22.6537915 19.936,22.6647915 C19.463,23.5957915 18.875,24.9777915 18.617,26.5207915 C18.159,29.2727915 16.019,24.0747915 16.019,24.0747915 L14.045,26.3997915 C12.945,27.8597915 11.914,29.3737915 10.929,30.9197915 C12.313,30.0847915 13.935,29.4817915 13.573,31.5657915 C13.105,34.2547915 11.21,36.2247915 10.343,37.0037915 C9.955,37.3667915 9.378,37.1717915 9.378,37.1717915 L8.361,36.7807915 C7.95,36.6227915 7.657,36.8047915 7.657,36.8047915 L7.516,36.9107915 C2.719,46.3937915 0,57.1047915 0,68.4577915 C0,83.7137915 4.894,97.8167915 13.178,109.316791 L13.191,109.354791 L13.691,110.037791 C13.704,110.055791 13.716,110.073791 13.73,110.091791 C13.73,110.091791 13.731,110.092791 13.732,110.092791 L14.815,111.571791 C14.815,111.571791 14.798,111.507791 15.015,111.255791 C15.233,111.004791 13.711,107.941791 13.114,106.398791 C12.518,104.854791 11.318,99.9627915 11.318,98.0137915 C11.318,96.0657915 10.315,96.2367915 10.086,96.5527915 C9.96,96.7257915 9.759,97.0487915 9.602,97.3077915 L9.598,97.2977915 C9.598,97.2977915 9.591,97.3177915 9.58,97.3447915 C9.463,97.5377915 9.375,97.6877915 9.374,97.6887915 C9.015,98.1227915 8.193,98.4457915 6.694,95.7687915 C4.554,91.9467915 4.554,79.4127915 5.012,76.8137915 C5.192,75.7907915 5.61,73.8927915 6.049,71.9667915 C6.432,70.2757915 7.85,67.5737915 8.194,66.6867915 C8.538,65.7977915 7.458,65.9597915 7.458,65.9597915 C7.458,65.9597915 2.776,68.9797915 1.401,63.2467915 C0.714,60.3857915 3.099,52.5937915 4.968,47.6417915 C4.968,47.6417915 5.813,46.4937915 5.619,47.8427915 C5.617,47.8557915 5.618,47.8567915 5.616,47.8677915 C4.759,53.5877915 4.136,60.9367915 3.942,62.2917915 C3.636,64.4317915 6.082,63.8197915 6.694,63.8197915 C7.305,63.8197915 8.987,60.3037915 12.197,58.8647915 C15.407,57.4257915 15.866,55.2597915 16.477,53.1187915 C17.089,50.9797915 16.63,48.8617915 14.031,49.5497915 C11.433,50.2367915 11.28,47.7687915 11.586,46.6987915 C11.693,46.3207915 11.859,45.4227915 12.028,44.4247915 L12.027,44.4287915 C12.027,44.4287915 12.669,41.2857915 12.837,42.1637915 C12.837,42.1657915 12.838,42.1657915 12.838,42.1677915 C12.989,43.1337915 13.258,44.2317915 13.726,44.6877915 C14.643,45.5797915 16.171,48.2277915 17.089,49.5497915 C18.006,50.8717915 20.452,49.2977915 22.133,49.5497915 C23.815,49.8017915 25.955,53.1187915 24.732,53.8837915 C23.509,54.6477915 23.509,55.8707915 24.732,56.8917915 C25.156,57.2457915 25.654,57.1907915 26.124,56.9717915 L26.119,56.9777915 C26.119,56.9777915 27.505,56.4267915 27.289,57.7077915 C27.288,57.7117915 27.288,57.7127915 27.288,57.7167915 C26.949,59.4817915 26.609,62.1077915 26.872,64.7367915 C27.331,69.3227915 29.012,71.0047915 29.012,73.6037915 C29.012,76.2017915 30.694,78.4947915 32.834,76.5077915 C34.974,74.5207915 34.974,68.0997915 34.821,66.1127915 C34.669,64.1257915 39.713,64.7367915 42.823,62.4437915 C44.655,61.0937915 46.691,59.4117915 48.061,58.2547915 C48.061,58.2537915 48.061,58.2537915 48.062,58.2537915 C50.255,56.7907915 51.637,59.0117915 51.847,59.3817915 C52.17,60.0227915 52.511,60.8187915 52.859,61.8327915 C54.541,66.7247915 52.707,68.2527915 54.235,68.4577915 C55.764,68.6627915 57.14,62.5967915 58.974,70.1327915 C60.809,77.6687915 57.904,77.7307915 59.738,78.9537915 C61.573,80.1767915 62.949,83.8457915 63.866,86.5967915 C64.783,89.3487915 69.981,89.8067915 69.216,89.0427915 C68.452,88.2787915 68.605,87.5137915 67.993,84.7627915 C67.382,82.0107915 66.464,81.7057915 64.171,80.7877915 C63.099,80.3587915 62.331,79.5637915 61.814,78.8367915 C61.627,78.5547915 60.914,77.3557915 61.405,76.1327915 C61.758,75.2387915 62.26,73.9997915 62.673,73.0957915 C62.684,73.0817915 63.159,72.4357915 64.02,73.0987915 C64.025,73.1027915 64.028,73.1037915 64.033,73.1077915 C65.007,73.9957915 66.893,74.9057915 67.993,75.8967915 C68.925,76.7347915 69.723,77.7397915 70.207,78.4007915 C70.269,78.4897915 70.776,79.2287915 70.974,79.6417915 C71.184,80.0807915 72.006,79.6987915 72.407,78.5327915 C72.794,77.4107915 74.761,76.8867915 75.23,76.8307915 C75.315,76.8227915 75.401,76.8137915 75.483,76.8137915 C77.471,76.8137915 78.694,72.3797915 77.624,70.1327915 C76.554,67.8847915 72.579,65.3487915 70.7,63.6667915 C68.82,61.9857915 73.802,57.8787915 73.802,57.8787915 C73.802,57.8787915 77.471,58.4697915 76.809,60.9157915 C76.148,63.3607915 76.554,63.9727915 77.471,64.7367915 C78.388,65.5017915 79,63.5137915 78.847,61.5267915 C78.694,59.5397915 78.847,58.4697915 80.834,58.8647915 C82.319,59.1607915 86.877,56.7447915 88.958,55.0577915 L88.958,55.0587915 C88.958,55.0587915 88.963,55.0537915 88.964,55.0527915 C89.404,54.6957915 89.714,54.3797915 89.879,54.1217915 C90.98,52.8707915 92.653,50.4847915 92.464,47.6907915 C92.463,47.6867915 92.462,47.6837915 92.462,47.6787915 C92.54,45.8627915 90.873,42.2867915 89.547,40.4317915 C88.505,38.9727915 88.245,36.2387915 88.185,34.6437915 C88.198,34.1447915 88.395,33.2337915 89.628,32.9117915 C90.732,32.6127915 91.986,32.4687915 91.535,33.5527915 C90.77,35.3867915 93.675,37.2207915 95.662,40.7367915 C97.649,44.2527915 97.496,39.5137915 98.414,36.4567915 C99.331,33.3997915 94.286,31.8707915 96.274,32.4827915 C98.261,33.0937915 97.343,27.7437915 99.636,28.9667915 C101.929,30.1897915 102.541,24.2277915 102.235,21.9347915 C102.061,20.6237915 100.437,18.5647915 99.078,17.0407915 C99.06,17.0207915 99.031,16.9867915 99.009,16.9627915 C98.963,16.9137915 98.92,16.8667915 98.859,16.7957915 C98.855,16.7907915 98.851,16.7877915 98.846,16.7827915 C97.45,15.1617915 95.983,15.7527915 95.983,15.7527915 L95.986,15.7507915 C95.14,16.0817915 94.045,16.1707915 93.369,14.9027915 C92.146,12.6097915 94.592,11.8457915 98.108,12.3037915 C100.338,12.5947915 100.722,10.5497915 100.705,9.01479149 L100.706,9.01779149 C100.706,9.01779149 100.962,8.03579149 101.397,8.90079149 C101.939,9.92779149 102.541,11.2407915 102.541,11.9987915 C102.541,12.9717915 106.056,15.6247915 108.115,17.0947915 C108.132,17.1047915 109.633,17.8947915 109.358,16.8377915" id="Fill-49"></path>
                </g>
            </g>
        </g>
    </g>
</svg>