<?xml version="1.0" encoding="UTF-8"?>
<svg width="140px" height="140px" viewBox="0 0 140 140" version="1.1" xmlns="http://www.w3.org/2000/svg" xmlns:xlink="http://www.w3.org/1999/xlink">
    <title>pictogram/environment/earth/world</title>
    <defs>
        <path d="M140,70 C140,108.66 108.66,140 70,140 C31.34,140 0,108.66 0,70 C0,31.34 31.34,0 70,0 C108.66,0 140,31.34 140,70" id="path-1"></path>
    </defs>
    <g id="pictogram/environment/earth/world" stroke="none" stroke-width="1" fill="none" fill-rule="evenodd">
        <g id="earth-world" transform="translate(0.000000, -0.000100)">
            <path d="M140,70.0001 C140,108.6601 108.66,140.0001 70,140.0001 C31.34,140.0001 0,108.6601 0,70.0001 C0,31.3401 31.34,0.0001 70,0.0001 C108.66,0.0001 140,31.3401 140,70.0001" id="circle" fill="#91BFE3"></path>
            <g id="picto">
                <mask id="mask-2" fill="white">
                    <use xlink:href="#path-1"></use>
                </mask>
                <g id="Mask"></g>
                <path d="M0.3662,65.0146 C1.1852,62.1866 2.8132,60.0286 5.8282,59.4756 C8.6982,58.9496 11.3392,59.4076 12.9192,62.3236 C13.1192,62.6926 13.4292,63.0156 13.7342,63.3126 C14.3192,63.8806 15.0742,64.3356 15.8132,63.8596 C16.8612,63.1856 15.8912,62.5496 15.5692,61.9346 C13.9962,58.9426 14.4622,56.0696 16.7772,53.9846 C20.4412,50.6836 22.5922,46.1116 26.3852,42.8236 C28.2722,41.1866 29.4522,38.9526 32.4162,39.2856 C33.3152,39.3856 34.1582,39.0656 34.3882,38.0276 C34.5842,37.1396 34.0932,36.5946 33.3552,36.1626 C32.5402,35.6856 31.5672,35.1616 32.0372,33.9926 C32.4692,32.9186 33.5642,33.0646 34.5002,33.0306 C34.9292,33.0146 35.3612,33.0646 35.7872,33.0306 C38.5062,32.8106 40.3432,30.4086 39.9682,27.5836 C39.4542,23.7086 37.1912,21.4076 34.3292,22.1046 C32.5352,22.5416 31.4892,21.8456 30.2412,20.3936 C30.9142,20.3936 31.2492,20.3496 31.5692,20.4006 C35.0052,20.9456 37.6282,19.9316 38.3762,17.7526 C39.2392,15.2396 37.9152,12.5046 34.9522,10.7186 C34.3792,10.3716 33.7252,10.1386 33.4112,9.4796 C28.8962,12.2166 24.7132,15.4456 20.9332,19.0906 C20.9942,19.1396 21.0472,19.1876 21.1122,19.2356 C23.4052,18.7616 25.3792,17.4886 27.5342,16.6726 C28.1372,16.4446 28.7862,15.8736 29.4192,16.5706 C30.0132,17.2236 29.5652,17.7896 29.2302,18.4216 C27.3942,21.8886 25.1742,25.1136 22.6622,28.0946 C19.7892,31.5046 15.2252,30.1486 14.6362,26.2196 C14.5882,26.2096 14.5412,26.2066 14.4932,26.1976 C5.6212,37.4306 0.0872,51.4196 -0.6168,66.6696 C-0.5618,66.6986 -0.5078,66.7296 -0.4518,66.7576 C0.3782,66.4356 0.1832,65.6456 0.3662,65.0146" id="Fill-4" fill="#5495CF" mask="url(#mask-2)"></path>
                <path d="M58.9277,88.5575 C57.6367,87.9165 56.2727,87.4485 54.7887,87.2175 C51.7687,86.7475 48.2767,86.9765 46.1197,84.5185 C43.7877,81.8625 41.6997,79.3405 37.7337,79.8105 C37.5287,79.8355 37.2477,79.6155 37.0717,79.4395 C33.6727,76.0655 29.5067,76.8095 25.4137,77.3035 C23.3017,77.5575 21.0787,77.5735 19.3077,79.0215 C16.5077,81.3115 13.5617,80.5205 12.2327,77.0495 C11.7897,75.8905 11.2877,74.5785 10.0107,74.4415 C7.3577,74.1555 7.9647,72.7965 8.6717,71.2445 C9.0557,70.3985 9.6197,69.5265 8.5667,68.7245 C7.4907,67.9055 6.6407,68.5075 5.8027,69.1535 C5.5987,69.3095 5.4237,69.5035 5.2447,69.6895 C2.0587,73.0215 1.8837,73.0205 -0.4723,69.6405 C-0.5473,69.6435 -0.6183,69.6515 -0.6923,69.6565 C-0.6933,69.7655 -0.6963,69.8745 -0.6963,69.9845 C-0.6963,72.5185 -0.5603,75.0205 -0.3003,77.4865 C-0.2523,77.4905 -0.2073,77.4975 -0.1583,77.5015 C4.3367,77.7145 8.6997,78.2105 12.1327,81.6785 C13.2187,82.7745 14.7367,83.1575 16.3737,83.2285 C18.8047,83.3335 20.2337,85.3235 19.1587,87.2295 C16.2387,92.4145 18.4457,96.7675 21.1047,101.0855 C22.4357,103.2455 24.3657,104.8635 26.5337,106.0905 C31.2637,108.7655 33.9787,112.5745 34.6737,118.0925 C35.2707,122.8265 36.5207,127.4765 37.4817,132.1645 C37.5097,132.3915 37.5497,132.6125 37.5927,132.8315 C41.0727,134.6295 44.7207,136.1455 48.5077,137.3525 C48.4567,137.1575 48.3927,136.9535 48.3127,136.7395 C47.4427,134.0155 47.9327,131.5415 49.4617,129.1345 C51.2857,126.2625 51.7287,122.6925 54.0627,120.0275 C54.8657,119.1105 54.6447,117.7175 54.5937,116.5225 C54.4887,114.0805 55.3987,112.3335 57.4637,110.8895 C61.3917,108.1415 62.1317,105.7775 60.7957,101.1865 C60.2827,99.4235 60.4507,97.9075 61.3477,96.2795 C63.0887,93.1225 62.1267,90.1465 58.9277,88.5575" id="Fill-7" fill="#5495CF" mask="url(#mask-2)"></path>
                <path d="M125.9174,68.1312 C127.9174,65.8082 130.0844,65.2642 132.1614,64.6912 C134.6274,64.0092 137.8574,62.1342 139.9874,59.9222 C136.5544,35.8332 120.9824,15.6592 99.6604,5.7922 C99.5704,5.8002 94.4934,8.2842 92.3824,10.0622 C90.9644,11.2562 89.7044,12.6302 90.2054,14.6892 C90.6704,16.6042 92.4784,16.2402 93.8214,16.4752 C95.6144,16.7882 95.8964,17.6892 95.2824,19.2152 C94.4374,21.3112 92.6594,22.3472 90.7444,23.1632 C88.8534,23.9682 86.8504,24.5202 84.9884,25.3812 C83.7224,25.9672 82.7634,26.7802 83.4314,28.6212 C84.8364,32.4952 83.8774,33.6792 79.6054,33.5952 C77.7424,33.5582 76.3284,33.9572 76.1524,36.1052 C75.9844,38.1582 76.7314,39.6092 78.8894,40.1212 C81.0594,40.6362 83.4944,39.5032 84.9994,37.2132 C85.7524,36.0662 86.3724,34.8052 87.2694,33.7872 C89.8164,30.8992 95.3044,31.6282 96.9974,34.9632 C97.5594,36.0702 97.2154,38.3082 99.1394,37.8712 C100.6854,37.5202 99.7324,35.6342 99.8944,34.4362 C100.0054,33.6162 100.1554,32.8262 101.1174,32.7362 C102.1314,32.6392 102.7204,33.3372 102.9464,34.2192 C103.1794,35.1272 103.2304,36.0822 103.3614,37.0162 C103.6014,38.7322 104.3954,39.3622 105.9604,38.2702 C106.6514,37.7872 107.5034,37.3682 108.0564,38.0322 C109.8784,40.2262 112.3564,40.2352 114.8504,40.4672 C116.2454,40.5962 117.7074,41.1222 117.7774,42.8302 C117.8394,44.3562 116.7294,45.3062 115.4324,45.9392 C113.6154,46.8242 111.9324,46.0712 110.2244,45.4742 C107.7864,44.6232 105.1974,43.4862 102.8944,45.4412 C101.2194,46.8632 99.8254,46.6172 98.2374,45.6362 C96.5384,44.5852 94.9924,43.3832 94.2114,41.4452 C93.7114,40.2062 92.6744,39.3622 91.4634,39.3992 C86.9014,39.5402 82.5424,40.7872 78.2464,42.2452 C77.9444,42.3482 77.6074,42.6242 77.4744,42.9062 C75.5024,47.0812 72.2514,50.3562 69.6644,54.0942 C69.2894,54.6352 69.1844,55.3762 69.0094,56.0392 C67.8994,60.2502 68.4264,64.4052 69.6624,68.4712 C71.3354,73.9732 74.0464,75.8122 79.7744,75.4102 C81.4744,75.2912 83.1514,74.8422 84.8364,74.5302 C90.4424,73.4912 93.5924,75.9782 93.7804,81.6482 C93.8354,83.3212 94.0144,85.0682 95.1404,86.2552 C97.7804,89.0382 97.8464,91.9722 96.3704,95.2662 C95.3994,97.4332 95.5334,99.5752 96.8164,101.6672 C97.7654,103.2122 98.2554,104.9382 98.4624,106.7712 C98.6934,108.8112 98.9744,110.8692 99.5084,112.8452 C100.6244,116.9732 104.0434,117.9412 107.3524,117.9472 C109.4124,117.7222 111.5964,117.0082 112.9854,114.8172 C115.8224,111.5742 118.7024,108.3782 118.6044,103.6312 C118.5784,102.3472 119.4464,101.4142 120.5484,100.7702 C123.8634,98.8342 124.5434,95.8422 123.9334,92.3342 C123.7424,91.2362 123.5884,90.1282 123.3344,89.0442 C122.7324,86.4702 123.4134,84.2862 125.2504,82.4402 C127.2514,80.4282 129.3304,78.4902 131.2704,76.4232 C133.1244,74.4462 134.5944,72.1942 134.4574,69.3362 C134.3744,67.6052 133.7714,66.3042 131.5244,66.9672 C129.9244,67.4402 128.2494,67.6592 125.9174,68.1312 Z" id="Fill-10" fill="#5495CF" mask="url(#mask-2)"></path>
            </g>
        </g>
    </g>
</svg>