<?xml version="1.0" encoding="UTF-8"?>
<svg width="140px" height="140px" viewBox="0 0 140 140" version="1.1" xmlns="http://www.w3.org/2000/svg" xmlns:xlink="http://www.w3.org/1999/xlink">
    <title>pictogram/communication/edit</title>
    <g id="pictogram/communication/edit" stroke="none" stroke-width="1" fill="none" fill-rule="evenodd">
        <g id="edit" transform="translate(-0.000100, 0.000000)">
            <path d="M140,70 C140,108.66 108.66,140 70,140 C31.34,140 0,108.66 0,70 C0,31.34 31.34,0 70,0 C108.66,0 140,31.34 140,70" id="circle" fill="#91BFE3"></path>
            <g id="picto" transform="translate(28.828900, 29.835724)">
                <path d="M7.11,80.3283764 L50.164,80.3283764 L69.725,60.7673764 L69.725,17.7133764 C69.725,13.7863764 66.542,10.6033764 62.616,10.6033764 L7.11,10.6033764 C3.183,10.6033764 7.10542736e-15,13.7863764 7.10542736e-15,17.7133764 L7.10542736e-15,73.2183764 C7.10542736e-15,77.1453764 3.183,80.3283764 7.11,80.3283764" id="Fill-4" fill="#DAD2BD"></path>
                <path d="M69.7256,60.7672764 L57.2746,60.7672764 C53.3476,60.7672764 50.1646,63.9502764 50.1646,67.8772764 L50.1646,80.3282764 L69.7256,60.7672764 Z" id="Fill-6" fill="#ECEEEF"></path>
                <path d="M29.3184,55.7650764 C28.3814,54.8140764 27.5154,53.7900764 26.4434,52.9790764 C25.8534,54.4760764 25.2624,55.9740764 24.5524,57.7770764 C26.3164,57.0320764 27.8174,56.3980764 29.3184,55.7650764" id="Fill-8" fill="#2167AE"></path>
                <path d="M41.1298,50.9653764 L36.8508,45.4583764 L31.3808,41.2133764 L31.3628,41.1943764 C30.6038,42.0853764 30.2538,43.1613764 29.8678,44.2493764 C28.8668,47.2143764 27.5888,50.0703764 26.4428,52.9783764 C27.5158,53.7893764 28.3818,54.8133764 29.3178,55.7653764 C31.2988,54.9973764 33.2778,54.2273764 35.2598,53.4643764 C35.6278,53.3233764 36.0068,53.2113764 36.3798,53.0853764 C38.0688,52.4183764 39.6528,51.8983764 41.1448,50.9803764 L41.1298,50.9653764 Z" id="Fill-10" fill="#ECEEEF"></path>
                <path d="M80.6378,4.97207636 C80.6378,4.97207636 80.6378,4.97107636 80.6378,4.97107636 L77.3808,1.71307636 C77.3808,1.71307636 77.3808,1.71307636 77.3808,1.71307636 L77.2348,1.56707636 L77.2258,1.57607636 C75.1228,-0.436923639 73.0518,-0.582923639 70.9738,1.49307636 C67.2548,5.21007636 32.5308,39.6900764 31.3708,41.2060764 C32.4358,42.2280764 33.4998,43.2500764 34.5648,44.2720764 L34.5558,44.2810764 C35.7088,45.4340764 36.8988,46.6060764 38.0538,47.7610764 L41.1298,50.9660764 C42.6458,49.8050764 77.1258,15.0810764 80.8438,11.3620764 C82.9648,9.23907636 82.7788,7.12307636 80.6378,4.97207636" id="Fill-12" fill="#2167AE"></path>
            </g>
        </g>
    </g>
</svg>