<?xml version="1.0" encoding="UTF-8"?>
<svg width="140px" height="140px" viewBox="0 0 140 140" version="1.1" xmlns="http://www.w3.org/2000/svg" xmlns:xlink="http://www.w3.org/1999/xlink">
    <title>pictogram/people/environment</title>
    <defs>
        <polygon id="path-1" points="0 0 78.829 0 78.829 37.0039846 0 37.0039846"></polygon>
    </defs>
    <g id="pictogram/people/environment" stroke="none" stroke-width="1" fill="none" fill-rule="evenodd">
        <g id="environment" transform="translate(0.000000, -0.000000)">
            <path d="M70,0 C31.34,0 0,31.34 0,70 C0,108.66 31.34,140 70,140 C108.66,140 140,108.66 140,70 C140,31.34 108.66,0 70,0" id="Fill-1" fill="#91BFE3"></path>
            <g id="Group-14" transform="translate(29.835200, 9.996100)">
                <path d="M47.9472,0 L39.5002,0 C39.4182,0 39.3392,0.008 39.2612,0.022 C39.1842,0.008 39.1052,0 39.0242,0 L30.5762,0 C21.8502,0 14.7522,7.1 14.7522,15.826 C14.7522,24.551 21.8502,31.65 30.5762,31.65 L33.4702,31.65 L38.1412,36.301 C38.3762,36.535 38.6932,36.666 39.0242,36.666 L39.0402,36.666 C39.3772,36.661 39.6972,36.521 39.9292,36.277 L44.3342,31.65 L47.9472,31.65 C56.6732,31.65 63.7722,24.551 63.7722,15.825 C63.7722,7.099 56.6732,0 47.9472,0" id="Fill-3" fill="#DAD2BD"></path>
                <g id="Group-7" transform="translate(0.000000, 93.059315)">
                    <mask id="mask-2" fill="white">
                        <use xlink:href="#path-1"></use>
                    </mask>
                    <g id="Clip-6"></g>
                    <path d="M72.428,8.52218459 C72.013,7.85718459 71.631,7.28218459 71.317,6.89018459 C70.571,5.95618459 69.818,5.16418459 69.061,4.47118459 C68.989,4.40318459 68.916,4.34518459 68.843,4.27918459 C68.648,4.10518459 68.452,3.92718459 68.256,3.76818459 C66.712,2.47818459 65.146,1.63718459 63.563,1.07918459 C62.31,0.637184589 61.046,0.374184589 59.772,0.221184589 C58.906,0.117184589 58.035,0.0611845893 57.162,0.0321845893 C56.089,-0.00181541072 55.011,0 53.93,0 L37.855,0.00118458928 L26.61,0.00318458928 L24.637,0 C19.747,0 14.933,-0.0908154107 10.311,3.76818459 C10.115,3.92718459 9.919,4.10518459 9.724,4.27918459 C9.652,4.34518459 9.578,4.40318459 9.506,4.47118459 C8.749,5.16418459 7.996,5.95618459 7.25,6.89018459 C6.937,7.28218459 6.554,7.85718459 6.139,8.52218459 C4.77,10.5201846 2.44,16.9301846 0,24.1981846 C0.248,24.4311846 0.508,24.6511846 0.76,24.8801846 C11.98,32.5271846 25.534,37.0041846 40.136,37.0041846 C54.379,37.0041846 67.62,32.7391846 78.675,25.4331846 C78.725,25.3881846 78.779,25.3471846 78.829,25.3021846 C76.294,17.5661846 73.839,10.5801846 72.428,8.52218459" id="Fill-5" fill="#2167AE" mask="url(#mask-2)"></path>
                </g>
                <path d="M60.1884,65.3828 C60.1884,77.7618 50.8404,87.7978 39.3094,87.7978 C27.7784,87.7978 18.4304,77.7618 18.4304,65.3828 C18.4304,53.0038 27.7784,42.9678 39.3094,42.9678 C50.8404,42.9678 60.1884,53.0038 60.1884,65.3828" id="Fill-8" fill="#23366F"></path>
                <path d="M50.8379,93.1523 C50.8379,93.1523 49.6989,88.0233 49.0809,85.4723 C48.6949,83.8813 49.0359,82.5483 50.1149,81.4143 C51.1069,80.3703 52.0079,79.2613 52.5849,77.8793 C54.2249,73.9453 54.6849,69.8003 54.5719,65.5433 C54.5569,64.9803 54.4419,64.6183 54.1619,64.4063 C53.9469,64.2443 53.6379,64.1673 53.1879,64.1703 C47.5099,64.2013 42.6549,61.3613 37.6199,59.1413 C32.3329,56.8093 24.7769,59.8903 23.9389,64.9953 C23.9009,71.0353 24.0859,76.9943 28.5399,81.6233 C29.3499,82.4653 29.7439,83.5993 29.4869,84.8063 C28.8939,87.5993 27.5739,93.1543 27.5739,93.1543 C27.5739,93.1543 30.7379,101.4023 39.3199,101.4023 C47.9029,101.4023 50.8379,93.1523 50.8379,93.1523" id="Fill-10" fill="#5495CF"></path>
                <path d="M49.9861,14.4795 C49.6361,14.4795 49.3411,14.3565 49.1011,14.1105 C48.8601,13.8645 48.7401,13.5665 48.7401,13.2175 C48.7401,12.8675 48.8601,12.5725 49.1011,12.3325 C49.3411,12.0915 49.6361,11.9715 49.9861,11.9715 C50.3361,11.9715 50.6341,12.0915 50.8801,12.3325 C51.1261,12.5725 51.2481,12.8675 51.2481,13.2175 C51.2481,13.5665 51.1261,13.8645 50.8801,14.1105 C50.6341,14.3565 50.3361,14.4795 49.9861,14.4795 L49.9861,14.4795 Z M49.9861,15.8405 C50.4781,15.8405 50.9211,15.7225 51.3141,15.4875 C51.7081,15.2525 52.0221,14.9365 52.2571,14.5375 C52.4921,14.1385 52.6091,13.6985 52.6091,13.2175 C52.6091,12.7365 52.4921,12.2995 52.2571,11.9055 C52.0221,11.5125 51.7081,11.1975 51.3141,10.9625 C50.9211,10.7285 50.4781,10.6105 49.9861,10.6105 C49.4941,10.6105 49.0521,10.7285 48.6581,10.9625 C48.2651,11.1975 47.9501,11.5125 47.7151,11.9055 C47.4801,12.2995 47.3631,12.7365 47.3631,13.2175 C47.3631,13.6985 47.4801,14.1385 47.7151,14.5375 C47.9501,14.9365 48.2651,15.2525 48.6581,15.4875 C49.0521,15.7225 49.4941,15.8405 49.9861,15.8405 L49.9861,15.8405 Z M41.6901,22.5785 C42.5541,22.5785 43.3131,22.4065 43.9691,22.0625 C44.6251,21.7175 45.1311,21.2395 45.4861,20.6275 C45.8411,20.0155 46.0181,19.3215 46.0181,18.5455 C46.0181,17.7805 45.8661,17.1085 45.5591,16.5285 C45.2531,15.9495 44.8241,15.5015 44.2721,15.1845 C43.7201,14.8675 43.0841,14.7085 42.3621,14.7085 C41.9141,14.7085 41.5131,14.7525 41.1581,14.8405 C40.8021,14.9275 40.4831,15.0595 40.1981,15.2335 L40.5261,12.8895 L45.5271,12.8895 L45.5271,10.7745 L38.4111,10.7745 L37.5751,17.4965 L39.9031,17.4965 C40.0671,17.2665 40.3021,17.0565 40.6081,16.8655 C40.9141,16.6735 41.2751,16.5785 41.6901,16.5785 C42.2481,16.5785 42.6991,16.7475 43.0431,17.0865 C43.3871,17.4255 43.5591,17.8895 43.5591,18.4795 C43.5591,19.0815 43.3871,19.5535 43.0431,19.8975 C42.6991,20.2425 42.2481,20.4145 41.6901,20.4145 C41.1991,20.4145 40.7831,20.2865 40.4441,20.0295 C40.1061,19.7725 39.8981,19.4255 39.8211,18.9885 L37.2641,18.9885 C37.3071,19.6115 37.5121,20.1955 37.8791,20.7425 C38.2451,21.2895 38.7531,21.7315 39.4031,22.0705 C40.0541,22.4095 40.8161,22.5785 41.6901,22.5785 L41.6901,22.5785 Z M34.7551,22.4475 C35.1381,22.4475 35.4691,22.3055 35.7471,22.0215 C36.0261,21.7365 36.1651,21.3875 36.1651,20.9725 C36.1651,20.5895 36.0261,20.2585 35.7471,19.9795 C35.4691,19.7015 35.1381,19.5625 34.7551,19.5625 C34.3401,19.5625 33.9901,19.7015 33.7061,19.9795 C33.4221,20.2585 33.2801,20.5895 33.2801,20.9725 C33.2801,21.3875 33.4221,21.7365 33.7061,22.0215 C33.9901,22.3055 34.3401,22.4475 34.7551,22.4475 L34.7551,22.4475 Z M31.5091,22.3165 L31.5091,10.7745 L29.4271,10.7745 C29.2301,11.3865 28.8701,11.8945 28.3451,12.2995 C27.8201,12.7035 27.2141,12.9275 26.5251,12.9715 L26.5251,15.0865 C26.9841,15.0755 27.4351,15.0015 27.8781,14.8645 C28.3201,14.7285 28.7331,14.5345 29.1161,14.2825 L29.1161,22.3165 L31.5091,22.3165 Z" id="Fill-12" fill="#2167AE"></path>
            </g>
        </g>
    </g>
</svg>