<?xml version="1.0" encoding="UTF-8"?>
<svg width="140px" height="140px" viewBox="0 0 140 140" version="1.1" xmlns="http://www.w3.org/2000/svg" xmlns:xlink="http://www.w3.org/1999/xlink">
    <title>pictogram/health/first-aid</title>
    <g id="pictogram/health/first-aid" stroke="none" stroke-width="1" fill="none" fill-rule="evenodd">
        <g id="first-aid" transform="translate(-0.000100, 0.000000)">
            <path d="M140,70 C140,108.66 108.66,140 70,140 C31.34,140 0,108.66 0,70 C0,31.34 31.34,0 70,0 C108.66,0 140,31.34 140,70" id="circle" fill="#91BFE3"></path>
            <g id="picto" transform="translate(27.429800, 26.768800)">
                <path d="M25.6297,9.676 C25.6297,6.822 27.9517,4.5 30.8057,4.5 L55.0527,4.5 C57.9067,4.5 60.2297,6.822 60.2297,9.676 L60.2297,15.949 L64.7297,15.949 L64.7297,9.676 C64.7297,4.341 60.3887,0 55.0527,0 L30.8057,0 C25.4707,0 21.1297,4.341 21.1297,9.676 L21.1297,15.949 L25.6297,15.949 L25.6297,9.676 Z" id="Fill-4" fill="#5495CF"></path>
                <path d="M79.868,15.9494 L64.729,15.9494 L60.229,15.9494 L25.63,15.9494 L21.13,15.9494 L5.989,15.9494 C2.695,15.9494 7.10542736e-15,18.6444 7.10542736e-15,21.9394 L7.10542736e-15,70.9074 C7.10542736e-15,74.2024 2.695,76.8974 5.989,76.8974 L79.868,76.8974 C83.163,76.8974 85.858,74.2024 85.858,70.9074 L85.858,21.9394 C85.858,18.6444 83.163,15.9494 79.868,15.9494" id="Fill-6" fill="#ECEEEF"></path>
                <path d="M60.7655,40.5104 L48.8425,40.5104 L48.8425,28.5874 C48.8425,27.3494 47.8355,26.3424 46.5975,26.3424 L39.2615,26.3424 C38.0235,26.3424 37.0165,27.3494 37.0165,28.5874 L37.0165,40.5104 L25.0925,40.5104 C23.8545,40.5104 22.8475,41.5174 22.8475,42.7554 L22.8475,50.0914 C22.8475,51.3294 23.8545,52.3364 25.0925,52.3364 L37.0165,52.3364 L37.0165,64.2594 C37.0165,65.4974 38.0235,66.5054 39.2615,66.5054 L46.5975,66.5054 C47.8355,66.5054 48.8425,65.4974 48.8425,64.2594 L48.8425,52.3364 L60.7655,52.3364 C62.0035,52.3364 63.0105,51.3294 63.0105,50.0914 L63.0105,42.7554 C63.0105,41.5174 62.0035,40.5104 60.7655,40.5104" id="Fill-8" fill="#2167AE"></path>
            </g>
        </g>
    </g>
</svg>