<?xml version="1.0" encoding="UTF-8"?>
<svg width="140px" height="140px" viewBox="0 0 140 140" version="1.1" xmlns="http://www.w3.org/2000/svg" xmlns:xlink="http://www.w3.org/1999/xlink">
    <title>pictogram/business &amp; education/gear</title>
    <g id="pictogram/business-&amp;-education/gear" stroke="none" stroke-width="1" fill="none" fill-rule="evenodd">
        <g id="gear">
            <path d="M140,70 C140,108.66 108.659,140 70,140 C31.34,140 0,108.66 0,70 C0,31.34 31.34,0 70,0 C108.659,0 140,31.34 140,70" id="circle" fill="#91BFE3"></path>
            <g id="picto" transform="translate(20.165200, 19.015400)">
                <path d="M30.37,39.933 C25.094,39.933 20.801,35.641 20.801,30.364 C20.801,25.087 25.094,20.795 30.37,20.795 C35.646,20.795 39.939,25.087 39.939,30.364 C39.939,35.641 35.646,39.933 30.37,39.933 M60.149,26.148 C60.004,25.623 59.534,25.253 58.99,25.234 L51.778,24.975 C51.295,24.34 50.554,23.252 50.163,22.233 C49.744,21.139 49.548,19.622 49.469,18.832 L54.423,13.564 C54.796,13.167 54.869,12.574 54.602,12.098 C53.885,10.812 53.029,9.664 52.058,8.685 C51.088,7.704 49.948,6.837 48.671,6.107 C48.199,5.837 47.604,5.903 47.204,6.273 L41.862,11.196 C41.096,11.144 39.59,10.995 38.501,10.578 C37.423,10.165 36.334,9.399 35.759,8.96 L35.5,1.75 C35.48,1.206 35.11,0.737 34.586,0.591 C31.75,-0.197 28.99,-0.197 26.154,0.591 C25.629,0.737 25.26,1.206 25.24,1.751 L24.985,8.96 C24.409,9.399 23.321,10.165 22.243,10.578 C21.154,10.995 19.648,11.144 18.882,11.196 L13.54,6.273 C13.139,5.903 12.544,5.837 12.073,6.107 C10.795,6.837 9.655,7.704 8.684,8.685 C7.715,9.664 6.859,10.812 6.141,12.098 C5.875,12.574 5.948,13.167 6.321,13.564 L11.275,18.833 C11.187,19.719 10.974,21.205 10.581,22.233 C10.168,23.311 9.401,24.4 8.963,24.976 L1.753,25.234 C1.208,25.253 0.739,25.624 0.594,26.149 C0.199,27.568 -3.55271368e-15,28.986 -3.55271368e-15,30.364 C-3.55271368e-15,31.742 0.199,33.16 0.594,34.579 C0.739,35.104 1.208,35.474 1.753,35.494 L8.963,35.752 C9.401,36.328 10.168,37.416 10.581,38.495 C10.999,39.588 11.196,41.106 11.274,41.895 L6.321,47.164 C5.948,47.561 5.875,48.154 6.141,48.63 C6.859,49.915 7.715,51.064 8.684,52.042 C9.655,53.023 10.795,53.891 12.073,54.621 C12.545,54.891 13.14,54.825 13.54,54.455 L18.882,49.532 C19.648,49.583 21.154,49.733 22.243,50.15 C23.321,50.563 24.409,51.329 24.985,51.768 L25.24,58.977 C25.26,59.521 25.629,59.991 26.154,60.137 C27.572,60.531 28.99,60.731 30.37,60.731 C31.75,60.731 33.168,60.531 34.586,60.137 C35.11,59.991 35.48,59.522 35.5,58.977 L35.759,51.768 C36.334,51.329 37.423,50.563 38.501,50.15 C39.59,49.733 41.096,49.583 41.862,49.532 L47.204,54.455 C47.604,54.825 48.198,54.891 48.671,54.621 C49.948,53.891 51.088,53.023 52.059,52.043 C53.029,51.064 53.885,49.915 54.602,48.63 C54.869,48.154 54.796,47.561 54.423,47.164 L49.469,41.895 C49.548,41.106 49.744,39.589 50.163,38.495 C50.576,37.416 51.342,36.328 51.78,35.752 L58.99,35.494 C59.534,35.474 60.004,35.104 60.149,34.579 C60.544,33.162 60.744,31.744 60.744,30.364 C60.744,28.984 60.544,27.566 60.149,26.148" id="Fill-4" fill="#2167AE"></path>
                <path d="M84.7274,54.0858 C80.6054,54.0858 77.2514,50.7318 77.2514,46.6098 C77.2514,42.4878 80.6054,39.1338 84.7274,39.1338 C88.8494,39.1338 92.2034,42.4878 92.2034,46.6098 C92.2034,50.7318 88.8494,54.0858 84.7274,54.0858 M107.3304,43.3698 C107.1854,42.8468 106.7184,42.4788 106.1764,42.4598 L100.9234,42.2718 C100.5994,41.8358 100.1124,41.1158 99.8404,40.4088 C99.5784,39.7218 99.4254,38.7348 99.3534,38.0808 L102.9674,34.2358 C103.3394,33.8408 103.4124,33.2518 103.1474,32.7778 C102.5974,31.7918 101.9394,30.9088 101.1924,30.1538 C100.4464,29.4008 99.5704,28.7338 98.5894,28.1728 C98.1184,27.9038 97.5274,27.9698 97.1284,28.3378 L93.2234,31.9368 C92.5874,31.8868 91.6134,31.7638 90.9284,31.5018 C90.2214,31.2308 89.5014,30.7438 89.0654,30.4188 L88.8774,25.1658 C88.8584,24.6238 88.4904,24.1568 87.9674,24.0118 C85.7894,23.4058 83.6654,23.4058 81.4874,24.0118 C80.9644,24.1568 80.5954,24.6238 80.5774,25.1668 L80.3914,30.4188 C79.9554,30.7438 79.2364,31.2308 78.5294,31.5018 C77.8494,31.7618 76.8714,31.8858 76.2334,31.9358 L72.3294,28.3378 C71.9294,27.9698 71.3374,27.9038 70.8694,28.1718 C69.8874,28.7328 69.0114,29.3998 68.2644,30.1548 C67.5174,30.9088 66.8594,31.7918 66.3094,32.7778 C66.0444,33.2518 66.1174,33.8408 66.4894,34.2358 L70.1034,38.0808 C70.0314,38.7348 69.8784,39.7228 69.6164,40.4098 C69.3454,41.1168 68.8584,41.8358 68.5344,42.2718 L63.2804,42.4598 C62.7384,42.4788 62.2714,42.8468 62.1264,43.3698 C61.8234,44.4598 61.6694,45.5498 61.6694,46.6098 C61.6694,47.6708 61.8234,48.7608 62.1264,49.8508 C62.2714,50.3728 62.7384,50.7408 63.2804,50.7598 L68.5354,50.9488 C68.8824,51.4168 69.3584,52.1368 69.6164,52.8108 C69.8784,53.4978 70.0314,54.4848 70.1034,55.1388 L66.4894,58.9838 C66.1174,59.3788 66.0444,59.9688 66.3094,60.4418 C66.8594,61.4288 67.5174,62.3108 68.2644,63.0658 C69.0114,63.8198 69.8874,64.4868 70.8694,65.0478 C71.3384,65.3158 71.9304,65.2508 72.3294,64.8818 L76.2334,61.2848 C76.8714,61.3348 77.8494,61.4588 78.5294,61.7188 C79.2364,61.9898 79.9554,62.4768 80.3914,62.8008 L80.5774,68.0538 C80.5954,68.5958 80.9644,69.0638 81.4874,69.2088 C82.5764,69.5118 83.6654,69.6648 84.7274,69.6648 C85.7894,69.6648 86.8784,69.5118 87.9674,69.2088 C88.4904,69.0638 88.8584,68.5968 88.8774,68.0548 L89.0654,62.8008 C89.5014,62.4768 90.2214,61.9898 90.9284,61.7188 C91.6084,61.4588 92.5854,61.3348 93.2234,61.2848 L97.1284,64.8818 C97.5274,65.2508 98.1174,65.3158 98.5894,65.0468 C99.5704,64.4858 100.4464,63.8198 101.1924,63.0658 C101.9394,62.3108 102.5974,61.4288 103.1474,60.4418 C103.4124,59.9688 103.3394,59.3788 102.9674,58.9838 L99.3534,55.1388 C99.4244,54.4858 99.5764,53.5018 99.8414,52.8108 C100.1124,52.1038 100.5994,51.3848 100.9234,50.9488 L106.1764,50.7598 C106.7184,50.7408 107.1854,50.3728 107.3304,49.8508 C107.6334,48.7608 107.7874,47.6708 107.7874,46.6098 C107.7874,45.5498 107.6334,44.4598 107.3304,43.3698" id="Fill-6" fill="#DAD2BD"></path>
                <path d="M48.3661,92.3197 C44.2441,92.3197 40.8901,88.9657 40.8901,84.8437 C40.8901,80.7217 44.2441,77.3677 48.3661,77.3677 C52.4881,77.3677 55.8421,80.7217 55.8421,84.8437 C55.8421,88.9657 52.4881,92.3197 48.3661,92.3197 M70.9701,81.6037 C70.8251,81.0817 70.3581,80.7137 69.8161,80.6937 L64.5621,80.5057 C64.2381,80.0697 63.7511,79.3507 63.4801,78.6437 C63.2171,77.9567 63.0651,76.9687 62.9931,76.3147 L66.6071,72.4707 C66.9791,72.0747 67.0521,71.4847 66.7871,71.0107 C66.2351,70.0237 65.5771,69.1417 64.8311,68.3877 C64.0841,67.6327 63.2081,66.9657 62.2271,66.4067 C61.7591,66.1377 61.1671,66.2037 60.7671,66.5717 L56.8631,70.1697 C56.2251,70.1197 55.2471,69.9957 54.5671,69.7357 C53.8601,69.4647 53.1411,68.9777 52.7051,68.6527 L52.5161,63.3997 C52.4971,62.8577 52.1291,62.3907 51.6061,62.2457 C49.4281,61.6397 47.3041,61.6397 45.1261,62.2457 C44.6031,62.3907 44.2341,62.8577 44.2161,63.3997 L44.0301,68.6527 C43.5941,68.9777 42.8751,69.4647 42.1681,69.7357 C41.4881,69.9957 40.5101,70.1197 39.8721,70.1697 L35.9681,66.5717 C35.5671,66.2037 34.9751,66.1377 34.5081,66.4067 C33.5261,66.9667 32.6501,67.6337 31.9031,68.3887 C31.1561,69.1427 30.4981,70.0257 29.9481,71.0117 C29.6831,71.4857 29.7561,72.0747 30.1281,72.4697 L33.7421,76.3147 C33.6701,76.9687 33.5171,77.9567 33.2551,78.6437 C32.9841,79.3507 32.4971,80.0697 32.1731,80.5057 L26.9191,80.6937 C26.3771,80.7137 25.9101,81.0817 25.7651,81.6037 C25.4621,82.6937 25.3081,83.7837 25.3081,84.8437 C25.3081,85.9047 25.4621,86.9947 25.7651,88.0847 C25.9101,88.6067 26.3771,88.9747 26.9191,88.9937 L32.1731,89.1827 C32.4971,89.6187 32.9841,90.3377 33.2551,91.0447 C33.5171,91.7317 33.6701,92.7187 33.7421,93.3737 L30.1281,97.2177 C29.7561,97.6127 29.6831,98.2027 29.9481,98.6757 C30.4981,99.6627 31.1561,100.5457 31.9031,101.2997 C32.6501,102.0537 33.5261,102.7207 34.5081,103.2817 C34.9761,103.5497 35.5681,103.4847 35.9681,103.1157 L39.8721,99.5187 C40.5101,99.5687 41.4881,99.6927 42.1681,99.9527 C42.8751,100.2237 43.5941,100.7107 44.0301,101.0347 L44.2161,106.2877 C44.2341,106.8297 44.6031,107.2977 45.1261,107.4427 C46.2151,107.7457 47.3041,107.8987 48.3661,107.8987 C49.4281,107.8987 50.5171,107.7457 51.6061,107.4427 C52.1291,107.2977 52.4971,106.8307 52.5161,106.2887 L52.7051,101.0347 C53.1411,100.7107 53.8601,100.2237 54.5671,99.9527 C55.2471,99.6927 56.2251,99.5687 56.8631,99.5187 L60.7671,103.1157 C61.1661,103.4847 61.7581,103.5497 62.2271,103.2817 C63.2081,102.7217 64.0841,102.0547 64.8311,101.2997 C65.5771,100.5467 66.2351,99.6637 66.7871,98.6767 C67.0521,98.2037 66.9791,97.6127 66.6071,97.2177 L62.9931,93.3737 C63.0651,92.7187 63.2171,91.7317 63.4801,91.0447 C63.7511,90.3377 64.2381,89.6187 64.5621,89.1827 L69.8161,88.9937 C70.3581,88.9747 70.8251,88.6067 70.9701,88.0847 C71.2721,86.9967 71.4261,85.9067 71.4261,84.8437 C71.4261,83.7807 71.2721,82.6907 70.9701,81.6037" id="Fill-8" fill="#5495CF"></path>
            </g>
        </g>
    </g>
</svg>