<?xml version="1.0" encoding="UTF-8"?>
<svg width="140px" height="140px" viewBox="0 0 140 140" version="1.1" xmlns="http://www.w3.org/2000/svg" xmlns:xlink="http://www.w3.org/1999/xlink">
    <title>pictogram/people/gesture/empowerment</title>
    <defs>
        <polygon id="path-1" points="0 0 139.9998 0 139.9998 139.9998 0 139.9998"></polygon>
    </defs>
    <g id="pictogram/people/gesture/empowerment" stroke="none" stroke-width="1" fill="none" fill-rule="evenodd">
        <g id="gesture-empowerment" transform="translate(0.000000, 0.000000)">
            <g id="Group-3">
                <mask id="mask-2" fill="white">
                    <use xlink:href="#path-1"></use>
                </mask>
                <g id="Clip-2"></g>
                <path d="M139.9998,70 C139.9998,108.66 108.6598,140 69.9998,140 C31.3398,140 -0.0002,108.66 -0.0002,70 C-0.0002,31.34 31.3398,0 69.9998,0 C108.6598,0 139.9998,31.34 139.9998,70" id="Fill-1" fill="#91BFE3" mask="url(#mask-2)"></path>
            </g>
            <polygon id="Fill-4" fill="#C4BDAA" points="94.6639 41.0024 106.5539 65.8834 78.6219 104.3484 52.9369 105.0834 39.9189 64.5694"></polygon>
            <g id="Group-27" transform="translate(39.343433, 24.118363)">
                <path d="M2.93766663,32.7854365 C5.00766663,31.3714365 7.56866663,31.3474365 9.61566663,32.4934365 L7.05166663,28.4254365 C4.92866663,25.0564365 5.81366663,20.5444365 9.02866663,18.3474365 C12.2446666,16.1504365 16.5726666,17.0994365 18.6956666,20.4684365 L32.1886666,41.8774365 C34.3116666,45.2454365 33.4266666,49.7584365 30.2106666,51.9554365 C29.1666666,52.6684365 28.0066666,53.0504365 26.8416666,53.1254365 C25.1516666,53.2344365 23.4536666,52.6954365 22.0936666,51.5874365 C22.6766666,54.2814365 21.6536666,57.1794365 19.3176666,58.7744365 C18.3396666,59.4434365 17.2506666,59.8014365 16.1586666,59.8714365 C13.8876666,60.0184365 11.6006666,58.9204365 10.2556666,56.7874365 L1.08366663,42.2344365 C-0.907333374,39.0764365 -0.0773333744,34.8464365 2.93766663,32.7854365" id="Fill-5" fill="#DAD2BD"></path>
                <path d="M50.2008666,37.6496365 C51.4618666,37.5676365 52.7168666,37.1496365 53.8408666,36.3646365 C57.2348666,33.9946365 58.1308666,29.1916365 55.8408666,25.6356365 L41.5558666,3.44763654 C39.2658666,-0.108363462 34.6588666,-1.07036346 31.2648666,1.29963654 C27.8708666,3.66963654 26.9748666,8.47363654 29.2638666,12.0286365 L43.5498666,34.2176365 C45.0808666,36.5966365 47.6518666,37.8146365 50.2008666,37.6496365" id="Fill-7" fill="#DAD2BD"></path>
                <path d="M37.9781666,45.2009365 C39.1421666,45.1259365 40.3031666,44.7439365 41.3471666,44.0309365 C44.5621666,41.8339365 45.4481666,37.3209365 43.3251666,33.9529365 L26.8621666,7.83293654 C24.7391666,4.46393654 20.4111666,3.51393654 17.1951666,5.71193654 C13.9801666,7.90893654 13.0941666,12.4209365 15.2171666,15.7899365 L31.6801666,41.9109365 C33.1141666,44.1849365 35.5541666,45.3569365 37.9781666,45.2009365" id="Fill-9" fill="#DAD2BD"></path>
                <path d="M39.8599666,42.2991365 C37.4069666,43.5621365 34.3949666,42.5981365 33.1309666,40.1451365 C31.8679666,37.6921365 32.8329666,34.6801365 35.2859666,33.4171365 C37.7379666,32.1531365 40.7509666,33.1181365 42.0139666,35.5711365 C43.2769666,38.0241365 42.3129666,41.0361365 39.8599666,42.2991365" id="Fill-11" fill="#ECEEEF"></path>
                <path d="M28.6495666,50.2244365 C26.2715666,51.4494365 23.3505666,50.5144365 22.1255666,48.1354365 C20.9005666,45.7574365 21.8355666,42.8354365 24.2135666,41.6114365 C26.5925666,40.3864365 29.5135666,41.3214365 30.7385666,43.7004365 C31.9625666,46.0784365 31.0275666,48.9994365 28.6495666,50.2244365" id="Fill-13" fill="#ECEEEF"></path>
                <path d="M17.6568666,57.0754365 C15.4578666,58.2074365 12.7588666,57.3434365 11.6258666,55.1444365 C10.4938666,52.9464365 11.3588666,50.2464365 13.5568666,49.1144365 C15.7558666,47.9824365 18.4558666,48.8464365 19.5878666,51.0444365 C20.7198666,53.2434365 19.8548666,55.9434365 17.6568666,57.0754365" id="Fill-15" fill="#ECEEEF"></path>
                <path d="M52.2457666,35.0471365 C49.7927666,36.3101365 46.7807666,35.3461365 45.5167666,32.8931365 C44.2537666,30.4401365 45.2187666,27.4271365 47.6717666,26.1651365 C50.1237666,24.9011365 53.1367666,25.8661365 54.3997666,28.3181365 C55.6627666,30.7721365 54.6987666,33.7841365 52.2457666,35.0471365" id="Fill-17" fill="#ECEEEF"></path>
                <path d="M70.0655666,32.9045365 C69.4795666,29.1705365 68.0905666,25.6075365 65.9965666,22.4595365 L59.6485666,12.9185365 C57.5345666,9.74153654 53.5915666,8.52153654 50.1815666,9.99053654 L32.0205666,17.8105365 C28.0205666,19.5335365 26.1345666,24.3205365 27.8075666,28.5055365 C29.4785666,32.6885365 34.0765666,34.6845365 38.0765666,32.9625365 L50.3935666,27.6585365 L56.3265666,36.5755365 L16.8385666,73.6715365 C13.9585666,76.3785365 12.8695666,80.3885365 13.6435666,84.0925365 L12.6665666,95.9845365 L48.2475666,107.376537 L48.1485666,99.7455365 C48.1695666,97.4605365 48.1895666,95.3055365 48.2025666,93.3665365 L48.0645666,93.3385365 L47.9305666,83.0755365 L47.9305666,74.7135365 C47.9305666,74.7135365 47.9285666,72.8315365 49.4155666,71.5735365 L59.8275666,62.7595365 C67.9665666,55.1125365 71.7995666,43.9365365 70.0655666,32.9045365" id="Fill-19" fill="#C4BDAA"></path>
                <polygon id="Fill-21" fill="#C4BDAA" points="13.3150666 80.0964365 13.3150666 82.7964365 15.2110666 82.7984365"></polygon>
                <path d="M38.3638666,31.0535365 C35.3568666,32.6015365 31.6648666,31.4195365 30.1158666,28.4125365 C28.5678666,25.4065365 29.7498666,21.7135365 32.7568666,20.1645365 C35.7638666,18.6165365 39.4568666,19.7995365 41.0048666,22.8055365 C42.5528666,25.8125365 41.3708666,29.5055365 38.3638666,31.0535365" id="Fill-23" fill="#ECEEEF"></path>
                <path d="M48.8653666,83.0891365 L32.3113666,82.9491365 L29.5203666,82.9251365 L12.9663666,82.784957 C9.81036663,82.7591365 9.52736663,85.5661365 9.52736663,85.5661365 L7.28736663,111.871137 C14.5973666,114.460137 22.4593666,115.881137 30.6563666,115.881137 C39.3533666,115.881137 47.6733666,114.284137 55.3553666,111.385137 L52.2573666,85.9271365 C52.2573666,85.9271365 52.0213666,83.1161365 48.8653666,83.0891365" id="Fill-25" fill="#2167AE"></path>
            </g>
        </g>
    </g>
</svg>