<?xml version="1.0" encoding="UTF-8"?>
<svg width="140px" height="144px" viewBox="0 0 140 144" version="1.1" xmlns="http://www.w3.org/2000/svg" xmlns:xlink="http://www.w3.org/1999/xlink">
    <title>pictogram/people/gesture/operation</title>
    <defs>
        <polygon id="path-1" points="0 0 140 0 140 139.9999 0 139.9999"></polygon>
        <path d="M2.88657986e-15,69.999 C2.88657986e-15,108.658 31.339,139.999 69.999,139.999 L69.999,139.999 C108.659,139.999 139.999,108.658 139.999,69.999 L139.999,69.999 C139.999,31.339 108.659,0 69.999,0 L69.999,0 C31.339,0 2.88657986e-15,31.339 2.88657986e-15,69.999 L2.88657986e-15,69.999 Z" id="path-3"></path>
        <path d="M2.88657986e-15,69.999 C2.88657986e-15,108.658 31.339,139.999 69.999,139.999 L69.999,139.999 C108.659,139.999 139.999,108.658 139.999,69.999 L139.999,69.999 C139.999,31.339 108.659,0 69.999,0 L69.999,0 C31.339,0 2.88657986e-15,31.339 2.88657986e-15,69.999" id="path-5"></path>
        <path d="M2.88657986e-15,69.999 C2.88657986e-15,108.658 31.339,139.999 69.999,139.999 L69.999,139.999 C108.659,139.999 139.999,108.658 139.999,69.999 L139.999,69.999 C139.999,31.339 108.659,0 69.999,0 L69.999,0 C31.339,0 2.88657986e-15,31.339 2.88657986e-15,69.999" id="path-7"></path>
        <path d="M2.88657986e-15,69.999 C2.88657986e-15,108.658 31.339,139.999 69.999,139.999 L69.999,139.999 C108.659,139.999 139.999,108.658 139.999,69.999 L139.999,69.999 C139.999,31.339 108.659,0 69.999,0 L69.999,0 C31.339,0 2.88657986e-15,31.339 2.88657986e-15,69.999" id="path-9"></path>
    </defs>
    <g id="pictogram/people/gesture/operation" stroke="none" stroke-width="1" fill="none" fill-rule="evenodd">
        <g id="gesture-operation" transform="translate(0.000000, -0.000000)">
            <g id="Group-3">
                <mask id="mask-2" fill="white">
                    <use xlink:href="#path-1"></use>
                </mask>
                <g id="Clip-2"></g>
                <path d="M140,70 C140,108.66 108.66,140 70,140 C31.34,140 0,108.66 0,70 C0,31.34 31.34,0 70,0 C108.66,0 140,31.34 140,70" id="Fill-1" fill="#91BFE3" mask="url(#mask-2)"></path>
            </g>
            <g id="Group-12" transform="translate(43.083300, 19.623400)">
                <path d="M47.8108,32.2897 L55.0718,32.0297 C55.3938,30.8707 55.5828,29.6617 55.5828,28.4097 C55.5828,27.1567 55.3938,25.9477 55.0718,24.7897 L47.8108,24.5287 C47.8108,24.5287 46.4298,22.9127 45.7898,21.2417 C45.1688,19.6187 45.0258,17.2317 45.0258,17.2317 L50.0028,11.9387 C49.4158,10.8887 48.6998,9.8957 47.8198,9.0067 C46.9378,8.1157 45.9528,7.3907 44.9088,6.7937 L39.5658,11.7177 C39.5658,11.7177 37.2068,11.6627 35.5828,11.0407 C33.9128,10.4007 32.2958,9.0197 32.2958,9.0197 L32.0358,1.7587 C30.8768,1.4367 29.6668,1.2477 28.4158,1.2477 C27.1628,1.2477 25.9538,1.4367 24.7948,1.7587 L24.5388,9.0197 C24.5388,9.0197 22.9218,10.4007 21.2508,11.0407 C19.6268,11.6627 17.2678,11.7177 17.2678,11.7177 L11.9248,6.7937 C10.8808,7.3907 9.8958,8.1157 9.0148,9.0067 C8.1338,9.8957 7.4168,10.8887 6.8308,11.9387 L11.8078,17.2317 C11.8078,17.2317 11.6648,19.6187 11.0438,21.2417 C10.4038,22.9127 9.0228,24.5287 9.0228,24.5287 L1.7618,24.7897 C1.4398,25.9477 1.2498,27.1567 1.2498,28.4097 C1.2498,29.6617 1.4398,30.8707 1.7618,32.0297 L9.0228,32.2897 C9.0228,32.2897 10.4038,33.9067 11.0438,35.5767 C11.6648,37.2007 11.8078,39.5867 11.8078,39.5867 L6.8308,44.8797 C7.4168,45.9307 8.1338,46.9227 9.0148,47.8117 C9.8958,48.7027 10.8808,49.4287 11.9248,50.0247 L17.2678,45.1017 C17.2678,45.1017 19.6268,45.1567 21.2508,45.7777 C22.9218,46.4177 24.5388,47.7987 24.5388,47.7987 L24.7948,55.0597 C25.9538,55.3817 27.1628,55.5717 28.4158,55.5717 C29.6668,55.5717 30.8768,55.3817 32.0358,55.0597 L32.2958,47.7987 C32.2958,47.7987 33.9128,46.4177 35.5828,45.7777 C37.2068,45.1567 39.5658,45.1017 39.5658,45.1017 L44.9088,50.0247 C45.9528,49.4287 46.9378,48.7027 47.8198,47.8117 C48.6998,46.9227 49.4158,45.9307 50.0028,44.8797 L45.0258,39.5867 C45.0258,39.5867 45.1688,37.2007 45.7898,35.5767 C46.4298,33.9067 47.8108,32.2897 47.8108,32.2897" id="Fill-4" fill="#2167AE"></path>
                <path d="M26.011,54.069 C27.637,54.403 29.192,54.404 30.82,54.069 L31.047,47.754 C31.059,47.404 31.218,47.075 31.484,46.848 C31.557,46.786 33.285,45.319 35.136,44.611 C36.94,43.92 39.431,43.854 39.536,43.852 C39.865,43.84 40.175,43.963 40.413,44.182 L45.059,48.464 C45.751,48.004 46.378,47.491 46.931,46.933 C47.484,46.374 47.99,45.742 48.443,45.047 L44.115,40.443 C43.879,40.192 43.757,39.855 43.778,39.512 C43.784,39.406 43.94,36.913 44.623,35.13 C45.331,33.279 46.798,31.55 46.86,31.478 C47.088,31.212 47.416,31.053 47.766,31.041 L54.081,30.814 C54.248,30 54.333,29.195 54.333,28.41 C54.333,27.624 54.248,26.819 54.081,26.005 L47.766,25.778 C47.416,25.766 47.088,25.607 46.86,25.341 C46.798,25.268 45.331,23.539 44.623,21.689 C43.94,19.906 43.784,17.412 43.778,17.307 C43.757,16.964 43.879,16.627 44.115,16.376 L48.443,11.772 C47.99,11.076 47.484,10.444 46.931,9.886 C46.378,9.327 45.751,8.815 45.059,8.355 L40.413,12.636 C40.175,12.857 39.865,12.986 39.536,12.967 C39.431,12.965 36.94,12.899 35.136,12.208 C33.285,11.499 31.557,10.033 31.484,9.971 C31.218,9.743 31.059,9.415 31.047,9.065 L30.82,2.75 C29.192,2.414 27.637,2.414 26.011,2.75 L25.787,9.065 C25.775,9.415 25.616,9.743 25.35,9.971 C25.277,10.033 23.549,11.499 21.698,12.208 C19.893,12.899 17.402,12.965 17.297,12.967 C16.979,12.987 16.659,12.857 16.421,12.636 L11.774,8.355 C11.082,8.815 10.455,9.327 9.903,9.886 C9.35,10.444 8.843,11.076 8.39,11.772 L12.719,16.376 C12.954,16.627 13.076,16.963 13.055,17.307 C13.05,17.412 12.894,19.906 12.211,21.689 C11.502,23.539 10.036,25.268 9.974,25.34 C9.746,25.607 9.418,25.766 9.068,25.778 L2.753,26.005 C2.585,26.818 2.5,27.624 2.5,28.41 C2.5,29.195 2.585,30.001 2.753,30.814 L9.068,31.041 C9.418,31.053 9.746,31.212 9.974,31.478 C10.036,31.551 11.502,33.279 12.211,35.13 C12.894,36.913 13.05,39.407 13.055,39.512 C13.076,39.856 12.954,40.192 12.719,40.443 L8.39,45.047 C8.843,45.742 9.35,46.374 9.903,46.933 C10.455,47.491 11.082,48.004 11.774,48.464 L16.421,44.182 C16.659,43.963 16.979,43.84 17.297,43.852 C17.402,43.854 19.893,43.92 21.698,44.611 C23.549,45.319 25.277,46.786 25.35,46.848 C25.616,47.075 25.775,47.404 25.787,47.754 L26.011,54.069 Z M28.416,56.821 C27.121,56.821 25.79,56.634 24.46,56.264 C23.935,56.118 23.565,55.649 23.546,55.104 L23.309,48.419 C22.769,48.009 21.781,47.319 20.803,46.945 C19.814,46.567 18.449,46.426 17.728,46.377 L12.772,50.944 C12.372,51.314 11.779,51.381 11.305,51.111 C10.106,50.425 9.036,49.611 8.126,48.692 C7.215,47.772 6.412,46.694 5.74,45.489 C5.474,45.014 5.547,44.421 5.92,44.024 L10.515,39.137 C10.439,38.395 10.257,37.019 9.876,36.024 C9.502,35.047 8.812,34.059 8.403,33.518 L1.717,33.278 C1.173,33.259 0.704,32.889 0.558,32.364 C0.188,31.034 0,29.704 0,28.41 C0,27.115 0.188,25.784 0.558,24.454 C0.704,23.929 1.173,23.56 1.717,23.54 L8.403,23.3 C8.812,22.76 9.502,21.772 9.877,20.795 C10.257,19.8 10.439,18.424 10.515,17.682 L5.92,12.795 C5.547,12.398 5.474,11.805 5.74,11.329 C6.412,10.125 7.215,9.047 8.126,8.127 C9.036,7.207 10.106,6.393 11.305,5.708 C11.779,5.438 12.372,5.506 12.772,5.875 L17.728,10.442 C18.449,10.392 19.814,10.252 20.804,9.873 C21.781,9.499 22.769,8.81 23.309,8.4 L23.546,1.715 C23.565,1.17 23.935,0.701 24.46,0.555 C27.12,-0.185 29.709,-0.185 32.37,0.555 C32.895,0.701 33.265,1.17 33.284,1.714 L33.524,8.4 C34.065,8.809 35.053,9.499 36.03,9.874 C37.019,10.252 38.385,10.392 39.105,10.442 L44.061,5.875 C44.463,5.506 45.055,5.439 45.529,5.708 C46.727,6.393 47.797,7.207 48.708,8.127 C49.619,9.048 50.422,10.125 51.094,11.329 C51.36,11.805 51.286,12.398 50.913,12.795 L46.319,17.682 C46.394,18.424 46.577,19.8 46.958,20.795 C47.332,21.772 48.021,22.76 48.431,23.3 L55.117,23.54 C55.661,23.56 56.131,23.93 56.277,24.455 C56.646,25.785 56.833,27.116 56.833,28.41 C56.833,29.703 56.646,31.033 56.277,32.364 C56.131,32.889 55.661,33.259 55.117,33.278 L48.431,33.518 C48.021,34.059 47.332,35.047 46.958,36.024 C46.577,37.019 46.394,38.395 46.319,39.137 L50.913,44.024 C51.286,44.421 51.36,45.014 51.094,45.489 C50.422,46.694 49.619,47.771 48.708,48.692 C47.797,49.612 46.727,50.426 45.529,51.111 C45.054,51.38 44.462,51.313 44.061,50.944 L39.105,46.377 C38.385,46.426 37.019,46.567 36.03,46.945 C35.053,47.319 34.065,48.009 33.524,48.419 L33.284,55.105 C33.265,55.649 32.895,56.118 32.37,56.264 C31.04,56.634 29.71,56.821 28.416,56.821 L28.416,56.821 Z" id="Fill-6" fill="#2167AE"></path>
                <path d="M36.176,28.4093 C36.176,32.6953 32.701,36.1703 28.415,36.1703 C24.129,36.1703 20.655,32.6953 20.655,28.4093 C20.655,24.1233 24.129,20.6483 28.415,20.6483 C32.701,20.6483 36.176,24.1233 36.176,28.4093" id="Fill-8" fill="#91BFE3"></path>
                <path d="M28.4153,21.8985 C24.8253,21.8985 21.9053,24.8195 21.9053,28.4095 C21.9053,31.9995 24.8253,34.9195 28.4153,34.9195 C32.0053,34.9195 34.9263,31.9995 34.9263,28.4095 C34.9263,24.8195 32.0053,21.8985 28.4153,21.8985 M28.4153,37.4195 C23.4473,37.4195 19.4053,33.3775 19.4053,28.4095 C19.4053,23.4405 23.4473,19.3985 28.4153,19.3985 C33.3843,19.3985 37.4263,23.4405 37.4263,28.4095 C37.4263,33.3775 33.3843,37.4195 28.4153,37.4195" id="Fill-10" fill="#91BFE3"></path>
            </g>
            <g id="Group-25" transform="translate(0.000600, 0.000900)">
                <g id="Group-15">
                    <mask id="mask-4" fill="white">
                        <use xlink:href="#path-3"></use>
                    </mask>
                    <g id="Clip-14"></g>
                    <path d="M96.8871,77.3301 C100.6931,75.3151 105.4091,76.6291 107.6251,80.3221 C109.9621,84.2171 108.6411,89.2711 104.6981,91.5251 L67.9041,112.5501 L54.4351,99.9201 L96.8871,77.3301 Z" id="Fill-13" fill="#C4BDAA" mask="url(#mask-4)"></path>
                </g>
                <g id="Group-18">
                    <mask id="mask-6" fill="white">
                        <use xlink:href="#path-5"></use>
                    </mask>
                    <g id="Clip-17"></g>
                    <path d="M116.83,80.3223 C114.615,76.6303 109.898,75.3153 106.092,77.3303 L68.478,97.2433 C67.128,97.9583 65.541,98.0773 64.1,97.5723 L45.743,91.1483 L58.118,90.5163 C62.707,90.2813 66.308,86.4923 66.308,81.8983 L66.308,81.8973 C66.308,77.2953 62.697,73.5033 58.1,73.2783 L-0.3,71.0013 C-0.154,81.3763 2.238,91.2063 6.43,100.0203 L51.294,115.7133 C59.111,118.5923 67.801,117.8693 75.033,113.7363 L106.22,95.9153 C104.361,92.6413 105.46,88.4683 108.714,86.5443 C111.56,84.8613 115.121,85.4523 117.288,87.7733 C118.317,85.4473 118.241,82.6743 116.83,80.3223" id="Fill-16" fill="#DAD2BD" mask="url(#mask-6)"></path>
                </g>
                <g id="Group-21">
                    <mask id="mask-8" fill="white">
                        <use xlink:href="#path-7"></use>
                    </mask>
                    <g id="Clip-20"></g>
                    <path d="M108.7143,86.5445 C111.5613,84.8615 115.1203,85.4525 117.2883,87.7735 C116.6133,89.2985 115.4643,90.6315 113.9023,91.5245 L106.2203,95.9155 C104.3603,92.6405 105.4603,88.4685 108.7143,86.5445" id="Fill-19" fill="#ECEEEF" mask="url(#mask-8)"></path>
                </g>
                <g id="Group-24">
                    <mask id="mask-10" fill="white">
                        <use xlink:href="#path-9"></use>
                    </mask>
                    <g id="Clip-23"></g>
                    <path d="M52.6327,81.8887 C52.6327,78.8677 55.0817,76.4197 58.1017,76.4197 C61.1227,76.4197 63.5707,78.8677 63.5707,81.8887 C63.5707,84.9097 61.1227,87.3587 58.1017,87.3587 C55.0817,87.3587 52.6327,84.9097 52.6327,81.8887" id="Fill-22" fill="#ECEEEF" mask="url(#mask-10)"></path>
                </g>
            </g>
        </g>
    </g>
</svg>