<?xml version="1.0" encoding="UTF-8"?>
<svg width="140px" height="140px" viewBox="0 0 140 140" version="1.1" xmlns="http://www.w3.org/2000/svg" xmlns:xlink="http://www.w3.org/1999/xlink">
    <title>pictogram/people/gesture/care/single</title>
    <defs>
        <polygon id="path-1" points="0.25 0.25 0.75 0.25 0.75 0.75 0.25 0.75"></polygon>
        <polygon id="path-3" points="0.25 0.25 0.75 0.25 0.75 0.75 0.25 0.75"></polygon>
        <path d="M70,0 C31.339,0 2.88657986e-15,31.34 2.88657986e-15,70 L2.88657986e-15,70 C2.88657986e-15,108.66 31.339,140 70,140 L70,140 C108.546,140 139.816,108.844 139.999,70.339 L139.999,70.339 L139.999,69.66 C139.816,31.157 108.546,0 70,0 Z" id="path-5"></path>
        <path d="M70,0 C31.339,0 2.88657986e-15,31.34 2.88657986e-15,70 L2.88657986e-15,70 C2.88657986e-15,108.66 31.339,140 70,140 L70,140 C108.546,140 139.816,108.844 139.999,70.339 L139.999,70.339 L139.999,69.66" id="path-7"></path>
        <path d="M70,0 C31.339,0 2.88657986e-15,31.34 2.88657986e-15,70 L2.88657986e-15,70 C2.88657986e-15,108.66 31.339,140 70,140 L70,140 C108.546,140 139.816,108.844 139.999,70.339 L139.999,70.339 L139.999,69.66" id="path-9"></path>
        <path d="M70,0 C31.339,0 2.88657986e-15,31.34 2.88657986e-15,70 L2.88657986e-15,70 C2.88657986e-15,108.66 31.339,140 70,140 L70,140 C108.546,140 139.816,108.844 139.999,70.339 L139.999,70.339 L139.999,69.66 C139.816,31.157 108.546,0 70,0 Z" id="path-11"></path>
        <path d="M70,0 C31.339,0 2.88657986e-15,31.34 2.88657986e-15,70 L2.88657986e-15,70 C2.88657986e-15,108.66 31.339,140 70,140 L70,140 C108.546,140 139.816,108.844 139.999,70.339 L139.999,70.339 L139.999,69.66" id="path-13"></path>
        <path d="M70,0 C31.339,0 2.88657986e-15,31.34 2.88657986e-15,70 L2.88657986e-15,70 C2.88657986e-15,108.66 31.339,140 70,140 L70,140 C108.546,140 139.816,108.844 139.999,70.339 L139.999,70.339 L139.999,69.66" id="path-15"></path>
        <path d="M70,0 C31.339,0 2.88657986e-15,31.34 2.88657986e-15,70 L2.88657986e-15,70 C2.88657986e-15,108.66 31.339,140 70,140 L70,140 C108.546,140 139.816,108.844 139.999,70.339 L139.999,70.339 L139.999,69.66" id="path-17"></path>
    </defs>
    <g id="pictogram/people/gesture/care/single" stroke="none" stroke-width="1" fill="none" fill-rule="evenodd">
        <g id="gesture-care-individual" transform="translate(-0.000000, 0.000000)">
            <path d="M140.55,70 C140.55,108.66 109.209,140 70.55,140 C31.89,140 0.55,108.66 0.55,70 C0.55,31.34 31.89,0 70.55,0 C109.209,0 140.55,31.34 140.55,70" id="Fill-1" fill="#91BFE3"></path>
            <g id="Group-9" transform="translate(0.000000, 139.250000)">
                <g id="Group-5">
                    <mask id="mask-2" fill="white">
                        <use xlink:href="#path-1"></use>
                    </mask>
                    <g id="Clip-4"></g>
                    <path d="" id="Fill-3" fill="#DAD2BD" mask="url(#mask-2)"></path>
                </g>
                <g id="Group-8">
                    <mask id="mask-4" fill="white">
                        <use xlink:href="#path-3"></use>
                    </mask>
                    <g id="Clip-7"></g>
                    <path d="" id="Fill-6" fill="#ECEEEF" mask="url(#mask-4)"></path>
                </g>
            </g>
            <g id="Group-31" transform="translate(0.550000, 0.000000)">
                <g id="Group-12">
                    <mask id="mask-6" fill="white">
                        <use xlink:href="#path-5"></use>
                    </mask>
                    <g id="Clip-11"></g>
                    <path d="M37.9033,95.855 L68.3263,108.858 C68.3263,108.858 103.1293,81.476 103.2543,81.522 C101.1203,75.011 98.9713,68.891 97.7843,67.159 C97.4343,66.599 97.1133,66.115 96.8493,65.785 C96.2213,64.999 95.5883,64.333 94.9513,63.75 C94.8893,63.692 94.8293,63.643 94.7673,63.587 C94.6023,63.441 94.4383,63.292 94.2733,63.157 C92.9733,62.072 91.6563,61.364 90.3233,60.895 C89.2683,60.522 88.2043,60.301 87.1323,60.172 C86.4043,60.085 85.6713,60.038 84.9353,60.014 C84.0333,59.984 83.1263,59.985848 82.2163,59.985848 L68.6863,59.988 L59.2233,59.989 L57.5633,59.985848 C53.4473,59.985848 49.3953,59.91 45.5063,63.157 C45.3403,63.292 45.1753,63.441 45.0113,63.587 C44.9503,63.643 44.8883,63.692 44.8283,63.75 C44.1903,64.333 43.5573,64.999 42.9293,65.785 C42.6663,66.115 42.3433,66.599 41.9953,67.159 C41.0463,68.543 39.5493,72.445 37.9033,77.193 L37.9033,95.855 Z" id="Fill-10" fill="#2167AE" mask="url(#mask-6)"></path>
                </g>
                <g id="Group-15">
                    <mask id="mask-8" fill="white">
                        <use xlink:href="#path-7"></use>
                    </mask>
                    <g id="Clip-14"></g>
                    <path d="M87.4834,36.6934 C87.4834,47.1124 79.6164,55.5584 69.9114,55.5584 C60.2064,55.5584 52.3384,47.1124 52.3384,36.6934 C52.3384,26.2744 60.2064,17.8284 69.9114,17.8284 C79.6164,17.8284 87.4834,26.2744 87.4834,36.6934" id="Fill-13" fill="#23366F" mask="url(#mask-8)"></path>
                </g>
                <g id="Group-18">
                    <mask id="mask-10" fill="white">
                        <use xlink:href="#path-9"></use>
                    </mask>
                    <g id="Clip-17"></g>
                    <path d="M79.6133,60.0648 C79.6133,60.0648 78.6553,55.7478 78.1343,53.6008 C77.8103,52.2618 78.0973,51.1408 79.0053,50.1858 C79.8413,49.3068 80.5983,48.3738 81.0843,47.2108 C82.4653,43.8998 82.8513,40.4108 82.7573,36.8288 C82.7443,36.3548 82.6463,36.0498 82.4113,35.8718 C82.2303,35.7348 81.9703,35.6708 81.5923,35.6728 C76.8123,35.6988 72.7263,33.3088 68.4893,31.4398 C64.0393,29.4778 57.6803,32.0708 56.9743,36.3678 C56.9433,41.4508 57.0983,46.4658 60.8473,50.3618 C61.5293,51.0708 61.8603,52.0248 61.6443,53.0408 C61.1453,55.3918 60.0353,60.0668 60.0353,60.0668 C60.0353,60.0668 62.6973,67.0078 69.9203,67.0078 C77.1433,67.0078 79.6133,60.0648 79.6133,60.0648" id="Fill-16" fill="#5495CF" mask="url(#mask-10)"></path>
                </g>
                <g id="Group-21">
                    <mask id="mask-12" fill="white">
                        <use xlink:href="#path-11"></use>
                    </mask>
                    <g id="Clip-20"></g>
                    <path d="M96.8867,82.0497 C100.6937,80.0347 105.4087,81.3487 107.6247,85.0417 C109.9617,88.9367 108.6407,93.9917 104.6977,96.2447 L67.9037,117.2697 L54.4347,104.6397 L96.8867,82.0497 Z" id="Fill-19" fill="#C4BDAA" mask="url(#mask-12)"></path>
                </g>
                <g id="Group-24">
                    <mask id="mask-14" fill="white">
                        <use xlink:href="#path-13"></use>
                    </mask>
                    <g id="Clip-23"></g>
                    <path d="M116.8301,85.0418 C114.6141,81.3488 109.8971,80.0348 106.0921,82.0498 L68.4781,101.9628 C67.1281,102.6778 65.5411,102.7968 64.1001,102.2928 L45.7421,95.8678 L58.1181,95.2358 C62.7071,95.0018 66.3081,91.2128 66.3081,86.6178 L66.3081,86.6168 C66.3081,82.0148 62.6961,78.2228 58.1011,77.9978 L-0.2999,75.7208 C-0.1529,86.0958 2.2381,95.9258 6.4301,104.7398 L51.2951,120.4328 C59.1111,123.3118 67.8011,122.5888 75.0331,118.4558 L106.2201,100.6348 C104.3611,97.3608 105.4601,93.1878 108.7141,91.2638 C111.5601,89.5808 115.1211,90.1718 117.2881,92.4928 C118.3161,90.1678 118.2411,87.3938 116.8301,85.0418" id="Fill-22" fill="#DAD2BD" mask="url(#mask-14)"></path>
                </g>
                <g id="Group-27">
                    <mask id="mask-16" fill="white">
                        <use xlink:href="#path-15"></use>
                    </mask>
                    <g id="Clip-26"></g>
                    <path d="M108.7138,91.2643 C111.5608,89.5813 115.1208,90.1713 117.2878,92.4923 C116.6138,94.0183 115.4648,95.3513 113.9018,96.2443 L106.2198,100.6343 C104.3608,97.3603 105.4598,93.1883 108.7138,91.2643" id="Fill-25" fill="#ECEEEF" mask="url(#mask-16)"></path>
                </g>
                <g id="Group-30">
                    <mask id="mask-18" fill="white">
                        <use xlink:href="#path-17"></use>
                    </mask>
                    <g id="Clip-29"></g>
                    <path d="M52.6328,86.6086 C52.6328,83.5876 55.0818,81.1396 58.1028,81.1396 C61.1228,81.1396 63.5708,83.5876 63.5708,86.6086 C63.5708,89.6296 61.1228,92.0776 58.1028,92.0776 C55.0818,92.0776 52.6328,89.6296 52.6328,86.6086" id="Fill-28" fill="#ECEEEF" mask="url(#mask-18)"></path>
                </g>
            </g>
        </g>
    </g>
</svg>