<?xml version="1.0" encoding="UTF-8"?>
<svg width="140px" height="140px" viewBox="0 0 140 140" version="1.1" xmlns="http://www.w3.org/2000/svg" xmlns:xlink="http://www.w3.org/1999/xlink">
    <title>pictogram/communication/gift</title>
    <g id="pictogram/communication/gift" stroke="none" stroke-width="1" fill="none" fill-rule="evenodd">
        <g id="gift" transform="translate(-0.000100, 0.000000)">
            <path d="M140,70 C140,108.66 108.66,140 70,140 C31.34,140 0,108.66 0,70 C0,31.34 31.34,0 70,0 C108.66,0 140,31.34 140,70" id="circle" fill="#91BFE3"></path>
            <g id="picto" transform="translate(27.464900, 28.407900)">
                <path d="M75.5925,83.1835 L10.1655,83.1835 C7.8955,83.1835 6.0385,81.3265 6.0385,79.0565 L6.0385,31.2855 C6.0385,29.0155 7.8955,27.1575 10.1655,27.1575 L75.5925,27.1575 C77.8625,27.1575 79.7195,29.0155 79.7195,31.2855 L79.7195,79.0565 C79.7195,81.3265 77.8625,83.1835 75.5925,83.1835" id="Fill-4" fill="#2167AE"></path>
                <path d="M82.739,30.9796 L2.331,30.9796 C1.049,30.9796 7.10542736e-15,29.9306 7.10542736e-15,28.6486 L7.10542736e-15,20.9286 C7.10542736e-15,19.6466 1.049,18.5976 2.331,18.5976 L82.739,18.5976 C84.021,18.5976 85.07,19.6466 85.07,20.9286 L85.07,28.6486 C85.07,29.9306 84.021,30.9796 82.739,30.9796" id="Fill-6" fill="#5495CF"></path>
                <polygon id="Fill-8" fill="#DAD2BD" points="45.5352 52.1709 45.5352 30.9799 39.5352 30.9799 39.5352 52.1709 6.0392 52.1709 6.0392 58.1709 39.5352 58.1709 39.5352 83.1839 45.5352 83.1839 45.5352 58.1709 79.7212 58.1709 79.7212 52.1709"></polygon>
                <path d="M64.9116,7.873 C64.3146,7.873 63.7436,7.974 63.2096,8.158 L63.1656,8.101 C64.3956,7.322 65.2176,5.958 65.2176,4.395 C65.2176,1.968 63.2496,0 60.8226,0 C59.6846,0 58.6586,0.444 57.8776,1.153 L57.8716,1.145 L57.7586,1.251 C57.7376,1.271 57.7166,1.29 57.6966,1.311 L43.0086,15.14 L28.3216,1.311 C28.3006,1.29 28.2786,1.271 28.2586,1.251 L28.1456,1.145 L28.1396,1.153 C27.3586,0.444 26.3316,0 25.1946,0 C22.7676,0 20.7996,1.968 20.7996,4.395 C20.7996,5.958 21.6216,7.322 22.8506,8.101 L22.8076,8.158 C22.2736,7.974 21.7026,7.873 21.1056,7.873 C18.1506,7.873 15.7546,10.269 15.7546,13.223 C15.7546,16.178 18.1506,18.574 21.1056,18.574 L43.0086,18.574 L64.9116,18.574 C67.8666,18.574 70.2626,16.178 70.2626,13.223 C70.2626,10.269 67.8666,7.873 64.9116,7.873" id="Fill-10" fill="#DAD2BD"></path>
            </g>
        </g>
    </g>
</svg>