<?xml version="1.0" encoding="UTF-8"?>
<svg width="140px" height="140px" viewBox="0 0 140 140" version="1.1" xmlns="http://www.w3.org/2000/svg" xmlns:xlink="http://www.w3.org/1999/xlink">
    <title>pictogram/environment/globe/resource</title>
    <defs>
        <path d="M7.10542736e-15,45.77 C7.10542736e-15,71.047 20.491,91.539 45.769,91.539 L45.769,91.539 C71.047,91.539 91.539,71.047 91.539,45.77 L91.539,45.77 C91.539,20.492 71.047,-1.42108547e-14 45.769,-1.42108547e-14 L45.769,-1.42108547e-14 C20.491,-1.42108547e-14 7.10542736e-15,20.492 7.10542736e-15,45.77 L7.10542736e-15,45.77 Z" id="path-1"></path>
    </defs>
    <g id="pictogram/environment/globe/resource" stroke="none" stroke-width="1" fill="none" fill-rule="evenodd">
        <g id="globe-resource">
            <path d="M140,70 C140,108.66 108.66,140 70,140 C31.34,140 0,108.66 0,70 C0,31.34 31.34,0 70,0 C108.66,0 140,31.34 140,70" id="circle" fill="#91BFE3"></path>
            <g id="picto" transform="translate(24.230500, 24.098700)">
                <path d="M91.539,45.9172 C91.539,20.6392 71.047,0.1472 45.769,0.1472 C20.492,0.1472 0,20.6392 0,45.9172 C0,71.1952 20.492,91.6872 45.769,91.6872 C71.047,91.6872 91.539,71.1952 91.539,45.9172" id="Fill-3" fill="#2167AE"></path>
                <g id="Group-14" transform="translate(13.046500, 0.000000)" fill="#5495CF">
                    <path d="M32.723,2.5 C28.978,2.5 23.755,19.011 23.755,45.901 C23.755,72.791 28.978,89.303 32.723,89.303 C36.468,89.303 41.691,72.791 41.691,45.901 C41.691,19.011 36.468,2.5 32.723,2.5 M32.723,91.803 C25.194,91.803 21.255,68.711 21.255,45.901 C21.255,23.091 25.194,0 32.723,0 C40.252,0 44.191,23.091 44.191,45.901 C44.191,68.711 40.252,91.803 32.723,91.803" id="Fill-10"></path>
                    <path d="M32.723,2.5 C16.058,2.5 2.5,21.97 2.5,45.901 C2.5,69.833 16.058,89.303 32.723,89.303 C49.388,89.303 62.946,69.833 62.946,45.901 C62.946,21.97 49.388,2.5 32.723,2.5 M32.723,91.803 C14.68,91.803 0,71.211 0,45.901 C0,20.591 14.68,0 32.723,0 C50.766,0 65.446,20.591 65.446,45.901 C65.446,71.211 50.766,91.803 32.723,91.803" id="Fill-12"></path>
                </g>
                <g id="Group-20" transform="translate(0.000500, 0.147300)">
                    <mask id="mask-2" fill="white">
                        <use xlink:href="#path-1"></use>
                    </mask>
                    <g id="Clip-16"></g>
                    <polygon id="Fill-15" fill="#5495CF" mask="url(#mask-2)" points="4.858 24.135 86.734 24.135 86.734 21.635 4.858 21.635"></polygon>
                    <polygon id="Fill-17" fill="#5495CF" mask="url(#mask-2)" points="4.939 69.904 86.465 69.904 86.465 67.404 4.939 67.404"></polygon>
                    <polygon id="Fill-18" fill="#5495CF" mask="url(#mask-2)" points="-0.727 47.083 14.448 47.083 14.448 44.583 -0.727 44.583"></polygon>
                    <polygon id="Fill-19" fill="#5495CF" mask="url(#mask-2)" points="14.449 47.083 93.075 47.083 93.075 44.583 14.449 44.583"></polygon>
                </g>
                <g id="Group-25" transform="translate(27.078110, 38.321808)">
                    <path d="M24.4476898,14.4670916 L19.2346898,0.804091574 C19.0876898,0.420091574 18.7606898,0.132091574 18.3596898,0.0350915739 C17.9586898,-0.0619084261 17.5366898,0.0450915739 17.2306898,0.320091574 L5.83768983,10.5620916 C-0.511310172,16.8830916 -1.64731017,22.6030916 2.26268983,28.5630916 C4.26068983,31.6070916 7.34768983,33.6340916 11.0186898,34.2840916 L11.2096898,34.3210916 C11.2396898,34.3270916 11.3576898,34.3500916 11.3876898,34.3540916 C11.4476898,34.3630916 11.4956898,34.3660916 11.5676898,34.3660916 C12.1616898,34.4470916 12.7566898,34.4880916 13.3496898,34.4880916 C15.8716898,34.4880916 18.3476898,33.7620916 20.4796898,32.3760916 C26.4566898,28.4910916 27.7156898,22.7970916 24.4476898,14.4670916" id="Fill-21" fill="#DAD2BD"></path>
                    <path d="M14.7504898,51.8674916 C5.39848983,33.2384916 12.2294898,18.8664916 12.2294898,18.8664916 C12.4614898,18.4474916 12.4734898,18.2614916 12.7724898,18.0634916 C13.2554898,17.7444916 13.9064898,17.8764916 14.2264898,18.3594916 C14.3644898,18.5674916 14.4024898,18.8054916 14.3804898,19.0364916 L14.3914898,19.0364916 C14.3914898,19.0364916 12.2854898,26.0454916 12.6594898,32.9104916 C13.1094898,41.1654916 16.4584898,47.1784916 19.1744898,52.2144916" id="Fill-23" fill="#5495CF"></path>
                </g>
            </g>
        </g>
    </g>
</svg>