<?xml version="1.0" encoding="UTF-8"?>
<svg width="140px" height="140px" viewBox="0 0 140 140" version="1.1" xmlns="http://www.w3.org/2000/svg" xmlns:xlink="http://www.w3.org/1999/xlink">
    <title>pictogram/business &amp; education/helpdesk</title>
    <g id="pictogram/business-&amp;-education/helpdesk" stroke="none" stroke-width="1" fill="none" fill-rule="evenodd">
        <g id="helpdesk">
            <path d="M70,0 C31.34,0 0,31.34 0,70 C0,84.803 4.607,98.523 12.448,109.832 C25.086,128.056 46.143,140 70,140 C93.857,140 114.914,128.056 127.552,109.832 C135.393,98.523 140,84.803 140,70 C140,31.34 108.66,0 70,0" id="circle" fill="#91BFE3"></path>
            <g id="picto" transform="translate(22.117200, 23.488700)">
                <path d="M85.334,76.8381 C84.441,75.7201 83.54,74.7731 82.635,73.9441 C82.549,73.8631 82.461,73.7931 82.374,73.7141 C82.141,73.5061 81.906,73.2931 81.671,73.1021 C79.824,71.5601 77.95,70.5531 76.056,69.8851 C74.557,69.3561 73.044,69.0421 71.521,68.8591 C70.483,68.7341 69.441,68.6671 68.397,68.6331 C67.113,68.5911 65.823,68.5938784 64.529,68.5938784 L45.295,68.5961 L31.841,68.5981 L29.48,68.5938784 C23.629,68.5938784 17.868,68.4851 12.338,73.1021 C12.104,73.2931 11.869,73.5061 11.636,73.7141 C11.549,73.7931 11.461,73.8631 11.374,73.9441 C10.469,74.7731 9.568,75.7201 8.676,76.8381 C8.301,77.3081 7.843,77.9961 7.347,78.7911 C5.707,81.1821 2.92,88.8511 0,97.5481 C12.521,109.3001 29.355,116.5111 47.883,116.5111 C65.706,116.5111 81.964,109.8381 94.322,98.8691 C91.289,89.6121 88.352,81.2541 86.663,78.7911 C86.167,77.9961 85.709,77.3081 85.334,76.8381" id="Fill-3" fill="#2167AE"></path>
                <path d="M72.0176,35.4784 C72.0176,50.2904 60.8326,62.2984 47.0356,62.2984 C33.2386,62.2984 22.0526,50.2904 22.0526,35.4784 C22.0526,20.6664 33.2386,8.6584 47.0356,8.6584 C60.8326,8.6584 72.0176,20.6664 72.0176,35.4784" id="Fill-5" fill="#23366F"></path>
                <path d="M60.8301,68.7058 C60.8301,68.7058 59.4671,62.5678 58.7271,59.5158 C58.2661,57.6118 58.6741,56.0178 59.9641,54.6608 C61.1521,53.4108 62.2291,52.0848 62.9201,50.4308 C64.8831,45.7238 65.4331,40.7638 65.2981,35.6708 C65.2801,34.9968 65.1421,34.5638 64.8081,34.3108 C64.5501,34.1158 64.1811,34.0238 63.6421,34.0268 C56.8481,34.0638 51.0391,30.6668 45.0141,28.0098 C38.6871,25.2198 29.6461,28.9068 28.6431,35.0148 L28.6431,35.0148 C28.5991,42.2418 28.8191,49.3718 34.1491,54.9108 C35.1191,55.9188 35.5901,57.2758 35.2831,58.7188 C34.5731,62.0618 32.9941,68.7078 32.9941,68.7078 C32.9941,68.7078 36.7791,78.5778 47.0491,78.5778 C57.3171,78.5778 60.8301,68.7058 60.8301,68.7058" id="Fill-7" fill="#5495CF"></path>
                <path d="M80.9238,30.502 C80.6618,25.928 79.2468,16.363 72.3208,9.088 C66.5788,3.058 58.3578,0 47.8828,0 C37.0318,0 28.4698,3.074 22.4338,9.136 C14.5348,17.07 13.5168,27.526 13.3868,30.351 C12.6088,30.797 12.0178,31.509 12.0178,32.664 L12.0178,37.479 L12.0178,42.294 C12.0178,45.733 17.2178,45.307 17.2178,45.307 L17.2178,37.479 L17.2178,29.651 C17.2178,29.651 16.6768,29.608 15.9458,29.663 C16.2358,26.299 17.6208,17.499 24.2248,10.88 C29.7738,5.319 37.7338,2.5 47.8828,2.5 C57.6368,2.5 65.2438,5.291 70.4948,10.796 C76.3728,16.959 77.9358,25.164 78.3378,29.683 C77.5008,29.601 76.8498,29.651 76.8498,29.651 L76.8498,37.479 L76.8498,45.307 C76.8498,45.307 82.0498,45.733 82.0498,42.294 L82.0498,37.479 L82.0498,32.664 C82.0498,31.632 81.5778,30.954 80.9238,30.502" id="Fill-9" fill="#ECEEEF"></path>
                <path d="M42.1211,60.2451 L36.4781,60.2451 C36.1521,60.2451 35.8851,60.5131 35.8851,60.8401 L35.8851,61.1211 L25.9651,61.1211 C24.1061,61.1211 22.7421,60.6451 21.9111,59.7071 C20.6791,58.3161 20.9121,56.2591 20.9141,56.2451 L20.9251,44.1181 L18.4251,44.1181 L18.4251,56.0141 C18.3711,56.5681 18.2141,59.2811 20.0181,61.3401 C21.3441,62.8531 23.3451,63.6211 25.9651,63.6211 L35.8851,63.6211 L35.8851,63.9021 C35.8851,64.2291 36.1521,64.4971 36.4781,64.4971 L42.1211,64.4971 C42.4471,64.4971 42.7161,64.2291 42.7161,63.9021 L42.7161,60.8401 C42.7161,60.5131 42.4471,60.2451 42.1211,60.2451" id="Fill-11" fill="#ECEEEF"></path>
                <path d="M74.4336,47.224 L75.5696,47.224 C76.8986,47.224 77.9866,46.137 77.9866,44.808 L77.9866,29.651 C77.9866,28.322 76.8986,27.235 75.5696,27.235 L74.4336,27.235 C73.1056,27.235 72.0176,28.322 72.0176,29.651 L72.0176,44.808 C72.0176,46.137 73.1056,47.224 74.4336,47.224" id="Fill-13" fill="#DAD2BD"></path>
                <path d="M19.6338,46.9747 L18.4978,46.9747 C17.1688,46.9747 16.0818,45.8877 16.0818,44.5587 L16.0818,29.4017 C16.0818,28.0727 17.1688,26.9857 18.4978,26.9857 L19.6338,26.9857 C20.9628,26.9857 22.0498,28.0727 22.0498,29.4017 L22.0498,44.5587 C22.0498,45.8877 20.9628,46.9747 19.6338,46.9747" id="Fill-15" fill="#DAD2BD"></path>
            </g>
        </g>
    </g>
</svg>