<?xml version="1.0" encoding="UTF-8"?>
<svg width="140px" height="140px" viewBox="0 0 140 140" version="1.1" xmlns="http://www.w3.org/2000/svg" xmlns:xlink="http://www.w3.org/1999/xlink">
    <title>pictogram/communication/help</title>
    <g id="pictogram/communication/help" stroke="none" stroke-width="1" fill="none" fill-rule="evenodd">
        <g id="help" transform="translate(-0.000100, 0.000000)">
            <path d="M140,70 C140,108.66 108.66,140 70,140 C31.34,140 0,108.66 0,70 C0,31.34 31.34,0 70,0 C108.66,0 140,31.34 140,70" id="circle" fill="#91BFE3"></path>
            <g id="picto" transform="translate(30.200800, 14.310600)" fill="#2167AE">
                <path d="M39.799,79.599 C37.314,79.599 35.299,77.584 35.299,75.099 C35.299,72.614 37.314,70.599 39.799,70.599 C56.782,70.599 70.599,56.782 70.599,39.8 C70.599,22.817 56.782,9 39.799,9 C22.816,9 9,22.817 9,39.8 C9,42.285 6.985,44.3 4.5,44.3 C2.015,44.3 -7.10542736e-15,42.285 -7.10542736e-15,39.8 C-7.10542736e-15,17.854 17.854,0 39.799,0 C61.745,0 79.599,17.854 79.599,39.8 C79.599,61.745 61.745,79.599 39.799,79.599" id="Fill-4"></path>
                <path d="M39.7993,111.3784 C37.3143,111.3784 35.2993,109.3634 35.2993,106.8784 L35.2993,95.5984 C35.2993,93.1134 37.3143,91.0984 39.7993,91.0984 C42.2843,91.0984 44.2993,93.1134 44.2993,95.5984 L44.2993,106.8784 C44.2993,109.3634 42.2843,111.3784 39.7993,111.3784" id="Fill-6"></path>
            </g>
        </g>
    </g>
</svg>