<?xml version="1.0" encoding="UTF-8"?>
<svg width="140px" height="140px" viewBox="0 0 140 140" version="1.1" xmlns="http://www.w3.org/2000/svg" xmlns:xlink="http://www.w3.org/1999/xlink">
    <title>pictogram/business &amp; education/house/plain</title>
    <g id="pictogram/business-&amp;-education/house/plain" stroke="none" stroke-width="1" fill="none" fill-rule="evenodd">
        <g id="house" transform="translate(-0.000100, 0.000000)">
            <path d="M140,70 C140,108.66 108.66,140 70,140 C31.34,140 0,108.66 0,70 C0,31.34 31.34,0 70,0 C108.66,0 140,31.34 140,70" id="circle" fill="#91BFE3"></path>
            <g id="picto" transform="translate(27.014919, 27.981600)">
                <path d="M56.3561811,2.779 L56.3561811,12.166 C56.3561811,12.166 66.8711811,12.542 66.8711811,12.166 L66.8711811,2.779 L56.3561811,2.779 Z" id="Fill-4" fill="#2167AE"></path>
                <path d="M85.3795811,34.2939 C83.9035811,30.4159 77.2955811,13.4429 77.2955811,13.4429 C77.2955811,13.4429 76.6945811,9.9889 71.8885811,9.9889 L43.9655811,9.9889 L43.0505811,9.9889 L13.7755811,9.9889 C8.96858107,9.9889 8.36758107,13.4429 8.36758107,13.4429 C8.36758107,13.4429 1.75958107,30.4159 0.28358107,34.2939 C-1.19041893,38.1719 3.56158107,37.5719 3.56158107,37.5719 L43.0505811,37.5719 L43.9655811,37.5719 L82.1025811,37.5719 C82.1025811,37.5719 86.8545811,38.1719 85.3795811,34.2939" id="Fill-6" fill="#23366F"></path>
                <polygon id="Fill-8" fill="#2167AE" points="7.46648107 37.5716 7.46648107 84.0366 78.6604811 84.0366 78.6604811 37.6056"></polygon>
                <path d="M68.0436811,2.779 L55.3326811,2.779 C54.8606811,2.779 54.4796811,2.397 54.4796811,1.925 L54.4796811,0.854 C54.4796811,0.383 54.8606811,0 55.3326811,0 L68.0436811,0 C68.5156811,0 68.8976811,0.383 68.8976811,0.854 L68.8976811,1.925 C68.8976811,2.397 68.5156811,2.779 68.0436811,2.779" id="Fill-10" fill="#23366F"></path>
                <path d="M42.8316811,46.9101 C42.8316811,46.9101 27.7336811,46.5151 27.7336811,61.9191 L27.7336811,84.0361 L42.8316811,84.0361 L57.9296811,84.0361 L57.9296811,61.9191 C57.9296811,46.5151 42.8316811,46.9101 42.8316811,46.9101" id="Fill-12" fill="#DAD2BD"></path>
            </g>
        </g>
    </g>
</svg>