<?xml version="1.0" encoding="UTF-8"?>
<svg width="140px" height="140px" viewBox="0 0 140 140" version="1.1" xmlns="http://www.w3.org/2000/svg" xmlns:xlink="http://www.w3.org/1999/xlink">
    <title>pictogram/business &amp; education/house/care</title>
    <defs>
        <path d="M70,0 C31.339,0 2.88657986e-15,31.339 2.88657986e-15,70 L2.88657986e-15,70 C2.88657986e-15,108.66 31.339,140 70,140 L70,140 C108.547,140 139.816,108.844 139.999,70.339 L139.999,70.339 L139.999,69.66" id="path-1"></path>
    </defs>
    <g id="pictogram/business-&amp;-education/house/care" stroke="none" stroke-width="1" fill="none" fill-rule="evenodd">
        <g id="house-care">
            <path d="M70,0 C31.34,0 0,31.34 0,70 C0,84.803 4.607,98.523 12.448,109.832 C25.086,128.056 46.143,140 70,140 C93.857,140 114.914,128.056 127.552,109.832 C135.393,98.523 140,84.803 140,70 C140,31.34 108.66,0 70,0" id="circle" fill="#91BFE3"></path>
            <g id="picto" transform="translate(0.000300, 0.000000)">
                <path d="M82.5544,30.0717 L82.5544,38.7857 C82.5544,38.7857 92.3134,39.1337 92.3134,38.7857 L92.3134,30.0717 L82.5544,30.0717 Z" id="Fill-3" fill="#2167AE"></path>
                <path d="M109.4948,59.3255 C108.1248,55.7255 101.9898,39.9705 101.9898,39.9705 C101.9898,39.9705 101.4318,36.7635 96.9718,36.7635 L71.0518,36.7635 L70.2018,36.7635 L43.0278,36.7635 C38.5658,36.7635 38.0088,39.9705 38.0088,39.9705 C38.0088,39.9705 31.8738,55.7255 30.5048,59.3255 C29.1358,62.9255 33.5478,62.3675 33.5478,62.3675 L70.2018,62.3675 L71.0518,62.3675 L106.4518,62.3675 C106.4518,62.3675 110.8638,62.9255 109.4948,59.3255" id="Fill-5" fill="#23366F"></path>
                <polygon id="Fill-7" fill="#2167AE" points="37.1725 62.3679 37.1725 103.5319 103.2585 103.5319 103.2585 62.3989"></polygon>
                <path d="M93.403,30.0717 L81.604,30.0717 C81.166,30.0717 80.811,29.7167 80.811,29.2787 L80.811,28.2857 C80.811,27.8477 81.166,27.4927 81.604,27.4927 L93.403,27.4927 C93.84,27.4927 94.196,27.8477 94.196,28.2857 L94.196,29.2787 C94.196,29.7167 93.84,30.0717 93.403,30.0717" id="Fill-9" fill="#23366F"></path>
                <path d="M69.9997,72.4624 C69.9997,72.4624 57.1497,72.1264 57.1497,85.2354 L57.1497,112.5074 L69.9997,112.5074 L82.8497,112.5074 L82.8497,85.2354 C82.8497,72.1264 69.9997,72.4624 69.9997,72.4624" id="Fill-11" fill="#5495CF"></path>
                <g id="Group-16">
                    <mask id="mask-2" fill="white">
                        <use xlink:href="#path-1"></use>
                    </mask>
                    <g id="Clip-15"></g>
                    <path d="M116.8298,86.6557 C114.6148,82.9627 109.8978,81.6487 106.0918,83.6637 L68.4778,103.5767 C67.1288,104.2917 65.5418,104.4107 64.1008,103.9067 L45.7428,97.4817 L58.1178,96.8497 C62.7068,96.6157 66.3078,92.8267 66.3078,88.2317 L66.3078,88.2307 C66.3078,83.6287 62.6968,79.8367 58.0998,79.6117 L-0.3002,77.3347 C-0.1532,87.7097 2.2378,97.5397 6.4298,106.3537 L51.2948,122.0467 C59.1108,124.9257 67.8008,124.2027 75.0328,120.0697 L106.2198,102.2487 C104.3608,98.9747 105.4608,94.8017 108.7148,92.8777 C111.5598,91.1947 115.1208,91.7857 117.2888,94.1067 C118.3168,91.7817 118.2408,89.0077 116.8298,86.6557" id="Fill-14" fill="#DAD2BD" mask="url(#mask-2)"></path>
                </g>
                <path d="M108.7146,92.8781 C111.5616,91.1951 115.1206,91.7851 117.2886,94.1061 C116.6136,95.6321 115.4646,96.9651 113.9026,97.8581 L106.2206,102.2481 C104.3606,98.9741 105.4606,94.8021 108.7146,92.8781" id="Fill-17" fill="#ECEEEF"></path>
                <path d="M52.6325,88.2224 C52.6325,85.2014 55.0815,82.7534 58.1025,82.7534 C61.1225,82.7534 63.5705,85.2014 63.5705,88.2224 C63.5705,91.2434 61.1225,93.6914 58.1025,93.6914 C55.0815,93.6914 52.6325,91.2434 52.6325,88.2224" id="Fill-20" fill="#ECEEEF"></path>
            </g>
        </g>
    </g>
</svg>