<?xml version="1.0" encoding="UTF-8"?>
<svg width="140px" height="140px" viewBox="0 0 140 140" version="1.1" xmlns="http://www.w3.org/2000/svg" xmlns:xlink="http://www.w3.org/1999/xlink">
    <title>pictogram/communication/legislation</title>
    <g id="pictogram/communication/legislation" stroke="none" stroke-width="1" fill="none" fill-rule="evenodd">
        <g id="legislation">
            <path d="M140,70 C140,108.66 108.66,140 70,140 C31.34,140 0,108.66 0,70 C0,31.34 31.34,0 70,0 C108.66,0 140,31.34 140,70" id="circle" fill="#91BFE3"></path>
            <g id="picto" transform="translate(28.693600, 23.538600)">
                <path d="M70.532,12.102 C62.729,4.298 52.353,0 41.317,0 C30.281,0 19.906,4.298 12.102,12.102 C4.299,19.905 0,30.281 0,41.316 C0,52.352 4.299,62.727 12.113,70.543 L40.401,98.184 C40.656,98.433 40.986,98.556 41.317,98.556 C41.647,98.556 41.978,98.431 42.233,98.184 L70.532,70.531 C86.64,54.421 86.64,28.21 70.532,12.102" id="Fill-3" fill="#2167AE"></path>
                <path d="M36.532,35.6353 C36.267,35.4733 35.954,35.4083 35.646,35.4513 C35.197,35.4933 34.766,35.6513 34.397,35.9103 C34.016,36.1723 33.686,36.5023 33.424,36.8843 C33.156,37.2793 32.941,37.7083 32.786,38.1603 C32.629,38.6023 32.546,39.0683 32.543,39.5373 C32.545,40.1173 32.703,40.6853 33.002,41.1813 C33.361,41.7613 33.879,42.2263 34.494,42.5223 L45.443,48.4903 C45.645,48.5733 45.902,48.6643 46.233,48.7653 C46.569,48.8683 46.919,48.9193 47.27,48.9173566 C47.671,48.9173566 48.061,48.8003 48.395,48.5823 C48.742,48.3573 49.042,48.0673 49.277,47.7283 C49.517,47.3913 49.712,47.0233 49.855,46.6353 C49.99,46.2963 50.062,45.9353 50.071,45.5703 C50.097,44.7293 49.803,43.9083 49.25,43.2753 C48.7,42.6643 48.052,42.1503 47.331,41.7553 L37.29,36.0443 C37.048,35.9213 36.796,35.7853 36.532,35.6353 M45.535,22.6843 C44.545,21.6583 43.158,21.1143 41.734,21.1913 C40.606,21.2013 39.51,21.5643 38.598,22.2293 C37.639,22.8533 37.074,23.9323 37.106,25.0753 C37.166,26.2463 37.747,27.3273 38.69,28.0233 C39.866,28.9603 41.141,29.7673 42.491,30.4293 C44.022,31.2003 45.677,31.9653 47.455,32.7243 C49.18,33.4643 50.831,34.3723 52.381,35.4333 C53.824,36.4093 55.091,37.6233 56.127,39.0233 C57.141,40.4513 57.665,42.1713 57.619,43.9223 C57.665,45.8933 57.072,47.8253 55.929,49.4313 C54.783,51.0233 53.166,52.2153 51.306,52.8383 C52.42,53.6523 53.301,54.7443 53.859,56.0063 C54.394,57.2543 54.665,58.6003 54.653,59.9593 C54.688,61.5293 54.288,63.0783 53.496,64.4353 C52.736,65.7113 51.709,66.8073 50.484,67.6493 C49.213,68.5183 47.803,69.1673 46.316,69.5683 C44.809,69.9893 43.253,70.2043 41.688,70.2063 C39.86,70.2213 38.039,69.9863 36.275,69.5083 C34.701,69.0843 33.223,68.3613 31.923,67.3783 C30.674,66.4073 29.681,65.1463 29.03,63.7053 C28.305,62.0483 27.953,60.2523 27.998,58.4443 L35.545,58.4443 C35.622,60.1883 36.178,61.4973 37.217,62.3693 C38.254,63.2413 39.684,63.6773 41.509,63.6773 C42.663,63.7163 43.797,63.3623 44.722,62.6723 C45.623,61.9403 46.11,60.8173 46.031,59.6603 C46.061,58.4693 45.516,57.3363 44.566,56.6163 C43.386,55.6603 42.1,54.8433 40.733,54.1833 C39.203,53.4123 37.519,52.6313 35.682,51.8423 C33.901,51.0773 32.191,50.1553 30.573,49.0873 C29.049,48.0893 27.71,46.8343 26.615,45.3773 C25.517,43.8883 24.947,42.0763 24.995,40.2263 C24.937,38.2523 25.536,36.3143 26.698,34.7173 C27.932,33.1473 29.608,31.9813 31.51,31.3703 C30.725,30.5373 30.068,29.5933 29.558,28.5693 C29.089,27.5173 28.861,26.3743 28.892,25.2223 C28.861,23.6393 29.249,22.0763 30.017,20.6913 C30.75,19.3943 31.744,18.2643 32.937,17.3723 C34.166,16.4653 35.547,15.7863 37.014,15.3653 C40.158,14.4433 43.506,14.4733 46.633,15.4533 C48.135,15.9313 49.521,16.7123 50.71,17.7483 C51.876,18.7653 52.814,20.0173 53.464,21.4213 C54.16,23.0013 54.501,24.7133 54.465,26.4393 L46.903,26.4393 C46.953,25.0573 46.463,23.7103 45.535,22.6843" id="Fill-5" fill="#DAD2BD"></path>
            </g>
        </g>
    </g>
</svg>