<?xml version="1.0" encoding="UTF-8"?>
<svg width="140px" height="140px" viewBox="0 0 140 140" version="1.1" xmlns="http://www.w3.org/2000/svg" xmlns:xlink="http://www.w3.org/1999/xlink">
    <title>pictogram/communication/lightbulb/plain</title>
    <g id="pictogram/communication/lightbulb/plain" stroke="none" stroke-width="1" fill="none" fill-rule="evenodd">
        <g id="idea" transform="translate(0.000000, 0.000000)">
            <path d="M140,70 C140,108.66 108.66,140 70,140 C31.34,140 0,108.66 0,70 C0,31.34 31.34,0 70,0 C108.66,0 140,31.34 140,70" id="circle" fill="#91BFE3"></path>
            <g id="picto" transform="translate(34.930900, 23.490026)">
                <path d="M70.094,33.2799736 C69.228,15.6299736 54.937,1.14497361 37.287,0.0699736119 C16.918,-1.19902639 0,14.9579736 0,35.0569736 C0,44.1209736 3.434,52.3789736 9.079,58.5909736 C14.081,64.1159736 17.172,71.5799736 17.426,79.0159736 L52.727,79.0159736 C53.086,71.5349736 56.207,64.0419736 61.224,58.4269736 C67.137,51.8259736 70.572,42.9559736 70.094,33.2799736" id="Fill-4" fill="#5495CF"></path>
                <path d="M52.4961,85.1930736 C52.1361,85.0430736 51.7471,84.9680736 51.3271,84.9680736 L51.3421,84.9680736 C51.8221,84.9680736 52.2861,84.8630736 52.6911,84.6690736 C53.0351,84.5190736 53.3501,84.2940736 53.6201,84.0250736 C54.2041,83.4400736 54.5631,82.6310736 54.5631,81.7470736 C54.5631,80.4440736 53.7991,79.3350736 52.6911,78.8260736 C52.2861,78.6310736 51.8221,78.5260736 51.3421,78.5260736 L18.8181,78.5260736 C18.3231,78.5260736 17.8591,78.6310736 17.4391,78.8400736 C17.1101,78.9900736 16.7951,79.2150736 16.5401,79.4700736 C15.9561,80.0540736 15.5971,80.8630736 15.5971,81.7470736 C15.5971,83.0210736 16.3461,84.1440736 17.4391,84.6530736 C17.8591,84.8630736 18.3231,84.9680736 18.8181,84.9680736 L18.8031,84.9680736 C18.3681,84.9680736 17.9491,85.0580736 17.5741,85.2230736 C17.1701,85.3730736 16.8251,85.6120736 16.5261,85.9120736 C15.9411,86.4810736 15.5821,87.2900736 15.5821,88.1740736 C15.5821,89.9570736 17.0201,91.3950736 18.8031,91.3950736 L21.8291,91.3950736 C25.1251,95.1550736 29.9941,97.5070736 35.4021,97.4030736 C40.4811,97.3130736 44.9751,94.9760736 48.1211,91.3950736 L51.3271,91.3950736 C52.2261,91.3950736 53.0201,91.0360736 53.6051,90.4510736 C54.1891,89.8670736 54.5481,89.0580736 54.5481,88.1740736 C54.5481,86.8110736 53.6941,85.6570736 52.4961,85.1930736" id="Fill-6" fill="#2167AE"></path>
                <path d="M55.6391,39.6056736 C49.0681,47.7886736 45.6341,58.4356736 45.7091,70.3966736 C45.7091,71.3226736 44.9621,72.0846736 44.0361,72.0996736 L44.0211,72.0996736 C43.0961,72.0996736 42.3491,71.3526736 42.3491,70.4266736 C42.2741,60.0336736 44.7231,50.5516736 49.4421,42.6516736 C46.6191,42.8756736 43.7531,41.9046736 41.7661,40.1136736 C40.0641,41.7406736 37.6451,42.6816736 35.0771,42.6816736 C32.4781,42.6816736 30.0741,41.7406736 28.3721,40.1136736 C26.3711,41.9046736 23.4891,42.8756736 20.6961,42.6516736 C25.4151,50.5656736 27.8491,60.0336736 27.7891,70.4266736 C27.7741,71.3526736 27.0281,72.0996736 26.1021,72.0996736 C25.1761,72.0846736 24.4301,71.3376736 24.4301,70.4266736 L24.4301,70.3966736 C24.5041,58.4356736 21.0701,47.7886736 14.4991,39.6056736 C13.9171,38.8886736 14.0211,37.8436736 14.7381,37.2606736 C15.4401,36.6786736 16.4851,36.7686736 17.0831,37.4706736 C18.0981,38.6496736 19.7111,39.3216736 21.5331,39.3216736 C23.7871,39.3216736 25.8931,38.2766736 27.0131,36.5886736 C27.3271,36.1116736 27.8791,35.7826736 28.4461,35.8426736 C29.0291,35.8426736 29.5661,36.1556736 29.8501,36.6486736 C30.8361,38.3066736 32.8371,39.3216736 35.0771,39.3216736 C37.3021,39.3216736 39.3031,38.2916736 40.2881,36.6486736 C40.5871,36.1556736 41.1241,35.8426736 41.7071,35.8276736 C42.2141,35.8276736 42.8121,36.1116736 43.1401,36.5886736 C44.2451,38.2766736 46.3361,39.3216736 48.6061,39.3216736 C50.4281,39.3216736 52.0551,38.6496736 53.0561,37.4706736 C53.6531,36.7686736 54.6981,36.6786736 55.4151,37.2606736 C56.1171,37.8436736 56.2211,38.8886736 55.6391,39.6056736" id="Fill-8" fill="#ECEEEF"></path>
            </g>
        </g>
    </g>
</svg>