<?xml version="1.0" encoding="UTF-8"?>
<svg width="140px" height="140px" viewBox="0 0 140 140" version="1.1" xmlns="http://www.w3.org/2000/svg" xmlns:xlink="http://www.w3.org/1999/xlink">
    <title>pictogram/business &amp; education/lighthouse</title>
    <defs>
        <polygon id="path-1" points="0 140 140 140 140 0 0 0"></polygon>
    </defs>
    <g id="pictogram/business-&amp;-education/lighthouse" stroke="none" stroke-width="1" fill="none" fill-rule="evenodd">
        <g id="lighthouse" transform="translate(-0.000200, 0.000000)">
            <path d="M140,70 C140,108.66 108.66,140 70,140 C31.34,140 0,108.66 0,70 C0,31.34 31.34,0 70,0 C108.66,0 140,31.34 140,70" id="circle" fill="#91BFE3"></path>
            <g id="picto" transform="translate(0.000200, 0.000000)">
                <path d="M116.0174,51.9807 C115.9194,51.9807 115.8204,51.9687 115.7204,51.9447 L98.9954,47.8767 C98.3254,47.7137 97.9134,47.0377 98.0764,46.3667 C98.2394,45.6957 98.9124,45.2837 99.5864,45.4477 L116.3124,49.5157 C116.9824,49.6787 117.3944,50.3547 117.2314,51.0257 C117.0914,51.5977 116.5804,51.9807 116.0174,51.9807" id="Fill-4" fill="#DAD2BD"></path>
                <path d="M99.2733,39.541 C98.7123,39.541 98.2043,39.162 98.0613,38.594 C97.8943,37.924 98.3013,37.245 98.9713,37.078 L115.7133,32.892 C116.3793,32.725 117.0613,33.132 117.2293,33.802 C117.3963,34.472 116.9893,35.15 116.3193,35.318 L99.5773,39.503 C99.4753,39.529 99.3743,39.541 99.2733,39.541" id="Fill-6" fill="#DAD2BD"></path>
                <path d="M40.6258,39.541 C40.5248,39.541 40.4228,39.529 40.3198,39.503 L23.6788,35.317 C23.0088,35.149 22.6028,34.47 22.7718,33.8 C22.9398,33.131 23.6158,32.724 24.2878,32.893 L40.9298,37.078 C41.5998,37.247 42.0058,37.926 41.8368,38.596 C41.6938,39.163 41.1858,39.541 40.6258,39.541" id="Fill-8" fill="#DAD2BD"></path>
                <path d="M23.9822,52.0979 C23.4222,52.0979 22.9142,51.7199 22.7712,51.1529 C22.6022,50.4829 23.0082,49.8039 23.6782,49.6349 L40.3202,45.4499 C40.9972,45.2809 41.6692,45.6879 41.8362,46.3569 C42.0052,47.0269 41.5992,47.7059 40.9292,47.8739 L24.2882,52.0599 C24.1852,52.0859 24.0832,52.0979 23.9822,52.0979" id="Fill-10" fill="#DAD2BD"></path>
                <path d="M69.9754,16.1127 C60.0544,16.1127 51.9834,24.1837 51.9834,34.1047 C51.9834,34.7957 52.5424,35.3547 53.2334,35.3547 L86.7174,35.3547 C87.4084,35.3547 87.9674,34.7957 87.9674,34.1047 C87.9674,24.1837 79.8964,16.1127 69.9754,16.1127" id="Fill-12" fill="#DAD2BD"></path>
                <path d="M103.4598,116.5676 L96.1908,116.5676 L87.9668,50.6526 L87.9668,34.1046 C87.9668,33.4146 87.4078,32.8546 86.7168,32.8546 L53.2318,32.8546 C52.5428,32.8546 51.9818,33.4146 51.9818,34.1046 L51.9818,50.6526 L43.7738,116.5676 L36.4898,116.5676 C35.7998,116.5676 35.2398,117.1276 35.2398,117.8176 C35.2398,118.5076 35.7998,119.0676 36.4898,119.0676 L103.4598,119.0676 C104.1498,119.0676 104.7098,118.5076 104.7098,117.8176 C104.7098,117.1276 104.1498,116.5676 103.4598,116.5676" id="Fill-14" fill="#2167AE"></path>
                <mask id="mask-2" fill="white">
                    <use xlink:href="#path-1"></use>
                </mask>
                <g id="Clip-17"></g>
                <polygon id="Fill-16" fill="#5495CF" mask="url(#mask-2)" points="51.983 50.6 87.967 50.6 87.967 32.855 51.983 32.855"></polygon>
                <path d="M90.9031,35.3551 L49.0471,35.3551 C48.3561,35.3551 47.7971,34.7951 47.7971,34.1051 C47.7971,33.4151 48.3561,32.8551 49.0471,32.8551 L90.9031,32.8551 C91.5931,32.8551 92.1531,33.4151 92.1531,34.1051 C92.1531,34.7951 91.5931,35.3551 90.9031,35.3551" id="Fill-18" fill="#2167AE" mask="url(#mask-2)"></path>
                <path d="M72.2361,102.6733 L67.7641,102.6733 C66.2831,102.6733 65.0701,103.8853 65.0701,105.3673 L65.0701,115.2923 L65.0701,116.3743 L65.0701,119.0683 L67.7641,119.0683 L72.2361,119.0683 L74.9301,119.0683 L74.9301,116.3743 L74.9301,115.5353 L74.9301,105.3673 C74.9301,103.8853 73.7171,102.6733 72.2361,102.6733" id="Fill-19" fill="#23366F" mask="url(#mask-2)"></path>
                <path d="M71.7635,89.6276 L68.2375,89.6276 C67.4615,89.6276 66.8275,88.9936 66.8275,88.2196 L66.8275,84.6926 C66.8275,83.9176 67.4615,83.2846 68.2375,83.2846 L71.7635,83.2846 C72.5375,83.2846 73.1715,83.9176 73.1715,84.6926 L73.1715,88.2196 C73.1715,88.9936 72.5375,89.6276 71.7635,89.6276" id="Fill-20" fill="#91BFE3" mask="url(#mask-2)"></path>
                <path d="M71.7381,70.1195 L68.2121,70.1195 C67.4371,70.1195 66.8031,69.4855 66.8031,68.7115 L66.8031,65.1845 C66.8031,64.4095 67.4371,63.7765 68.2121,63.7765 L71.7381,63.7765 C72.5121,63.7765 73.1461,64.4095 73.1461,65.1845 L73.1461,68.7115 C73.1461,69.4855 72.5121,70.1195 71.7381,70.1195" id="Fill-21" fill="#91BFE3" mask="url(#mask-2)"></path>
            </g>
        </g>
    </g>
</svg>