<?xml version="1.0" encoding="UTF-8"?>
<svg width="140px" height="140px" viewBox="0 0 140 140" version="1.1" xmlns="http://www.w3.org/2000/svg" xmlns:xlink="http://www.w3.org/1999/xlink">
    <title>pictogram/mobility/location/search</title>
    <g id="pictogram/mobility/location/search" stroke="none" stroke-width="1" fill="none" fill-rule="evenodd">
        <g id="location-search" transform="translate(-0.000100, 0.000000)">
            <path d="M140,70 C140,108.66 108.66,140 70,140 C31.34,140 0,108.66 0,70 C0,31.34 31.34,0 70,0 C108.66,0 140,31.34 140,70" id="circle" fill="#91BFE3"></path>
            <g id="picto" transform="translate(25.649800, 22.405400)">
                <path d="M87.6044,86.8811 L67.9074,63.0261 C66.3334,61.1181 63.5954,60.7181 61.5404,62.0951 L60.8634,62.5481 C60.7304,62.6371 60.6034,62.7331 60.4794,62.8341 C59.4924,63.6501 58.8804,64.8011 58.7584,66.0761 C58.6374,67.3521 59.0194,68.5981 59.8344,69.5861 L79.5324,93.4421 C80.4774,94.5871 81.8424,95.1891 83.2274,95.1891 C84.1484,95.1891 85.0794,94.9231 85.8994,94.3721 L86.5754,93.9201 C86.7084,93.8311 86.8364,93.7351 86.9594,93.6331 C88.9994,91.9491 89.2884,88.9211 87.6044,86.8811" id="Fill-4" fill="#5495CF"></path>
                <path d="M39.11,9 C22.507,9 9,22.507 9,39.11 C9,55.712 22.507,69.219 39.11,69.219 C55.713,69.219 69.22,55.712 69.22,39.11 C69.22,22.507 55.713,9 39.11,9 M39.11,78.219 C17.545,78.219 0,60.675 0,39.11 C0,17.545 17.545,0 39.11,0 C60.675,0 78.22,17.545 78.22,39.11 C78.22,60.675 60.675,78.219 39.11,78.219" id="Fill-6" fill="#5495CF"></path>
                <path d="M51.0771,25.0237 C44.4781,18.4257 33.7421,18.4257 27.1431,25.0237 C23.9471,28.2197 22.1861,32.4697 22.1861,36.9907 C22.1861,41.5107 23.9471,45.7607 27.1541,48.9667 L38.2361,59.7957 C38.4791,60.0337 38.7951,60.1527 39.1101,60.1527 C39.4251,60.1527 39.7411,60.0337 39.9831,59.7957 L51.0771,48.9577 C57.6751,42.3587 57.6751,31.6217 51.0771,25.0237" id="Fill-8" fill="#2167AE"></path>
                <path d="M39.1103,28.0007 C34.1923,28.0007 30.1913,32.0007 30.1913,36.9187 C30.1913,41.8367 34.1923,45.8377 39.1103,45.8377 C44.0273,45.8377 48.0283,41.8367 48.0283,36.9187 C48.0283,32.0007 44.0273,28.0007 39.1103,28.0007" id="Fill-10" fill="#DAD2BD"></path>
            </g>
        </g>
    </g>
</svg>