<?xml version="1.0" encoding="UTF-8"?>
<svg width="140px" height="140px" viewBox="0 0 140 140" version="1.1" xmlns="http://www.w3.org/2000/svg" xmlns:xlink="http://www.w3.org/1999/xlink">
    <title>pictogram/security/lock/earth</title>
    <defs>
        <path d="M140,70 C140,108.66 108.66,140 70,140 C31.34,140 0,108.66 0,70 C0,31.34 31.34,0 70,0 C108.66,0 140,31.34 140,70" id="path-1"></path>
    </defs>
    <g id="pictogram/security/lock/earth" stroke="none" stroke-width="1" fill="none" fill-rule="evenodd">
        <g id="lock-earth">
            <path d="M140,70.007 C140,108.667 108.66,140.007 70,140.007 C31.34,140.007 0,108.667 0,70.007 C0,31.347 31.34,0.007 70,0.007 C108.66,0.007 140,31.347 140,70.007" id="circle" fill="#91BFE3"></path>
            <g id="picto">
                <g id="Group-13">
                    <mask id="mask-2" fill="white">
                        <use xlink:href="#path-1"></use>
                    </mask>
                    <g id="Mask"></g>
                    <path d="M0.3665,65.0149 C1.1855,62.1869 2.8135,60.0289 5.8285,59.4759 C8.6975,58.9499 11.3395,59.4079 12.9195,62.3239 C13.1195,62.6929 13.4295,63.0159 13.7345,63.3129 C14.3195,63.8809 15.0745,64.3359 15.8135,63.8599 C16.8615,63.1859 15.8915,62.5499 15.5685,61.9349 C13.9965,58.9429 14.4625,56.0699 16.7765,53.9849 C20.4415,50.6839 22.5925,46.1119 26.3845,42.8239 C28.2725,41.1869 29.4525,38.9529 32.4165,39.2859 C33.3155,39.3859 34.1585,39.0659 34.3875,38.0279 C34.5845,37.1399 34.0925,36.5949 33.3555,36.1629 C32.5405,35.6859 31.5665,35.1619 32.0375,33.9929 C32.4695,32.9189 33.5645,33.0649 34.5005,33.0309 C34.9285,33.0149 35.3615,33.0649 35.7875,33.0309 C38.5055,32.8109 40.3435,30.4089 39.9685,27.5839 C39.4535,23.7089 37.1915,21.4079 34.3295,22.1049 C32.5355,22.5419 31.4895,21.8459 30.2405,20.3939 C30.9145,20.3939 31.2495,20.3499 31.5685,20.4009 C35.0055,20.9459 37.6285,19.9319 38.3765,17.7529 C39.2395,15.2399 37.9155,12.5049 34.9525,10.7189 C34.3785,10.3719 33.7255,10.1389 33.4115,9.4799 C28.8965,12.2169 24.7135,15.4459 20.9335,19.0909 C20.9945,19.1399 21.0475,19.1879 21.1125,19.2359 C23.4055,18.7619 25.3785,17.4889 27.5345,16.6729 C28.1375,16.4449 28.7865,15.8739 29.4195,16.5709 C30.0135,17.2239 29.5655,17.7899 29.2305,18.4219 C27.3945,21.8889 25.1745,25.1139 22.6625,28.0949 C19.7895,31.5049 15.2255,30.1489 14.6355,26.2199 C14.5885,26.2099 14.5415,26.2069 14.4935,26.1979 C5.6215,37.4309 0.0875,51.4199 -0.6165,66.6699 C-0.5615,66.6989 -0.5075,66.7299 -0.4515,66.7579 C0.3785,66.4359 0.1835,65.6459 0.3665,65.0149" id="Fill-4" fill="#5495CF" mask="url(#mask-2)"></path>
                    <path d="M58.9278,88.5579 C57.6368,87.9169 56.2728,87.4489 54.7898,87.2179 C51.7688,86.7479 48.2768,86.9769 46.1198,84.5189 C43.7888,81.8629 41.6998,79.3409 37.7338,79.8109 C37.5288,79.8359 37.2488,79.6159 37.0718,79.4399 C33.6718,76.0659 29.5058,76.8099 25.4138,77.3039 C23.3018,77.5579 21.0788,77.5739 19.3078,79.0219 C16.5078,81.3119 13.5618,80.5209 12.2328,77.0499 C11.7898,75.8909 11.2878,74.5789 10.0108,74.4419 C7.3578,74.1559 7.9648,72.7969 8.6718,71.2449 C9.0568,70.3989 9.6198,69.5269 8.5668,68.7249 C7.4908,67.9059 6.6418,68.5079 5.8018,69.1539 C5.5988,69.3099 5.4228,69.5039 5.2448,69.6899 C2.0588,73.0219 1.8838,73.0209 -0.4722,69.6409 C-0.5472,69.6439 -0.6182,69.6519 -0.6922,69.6569 C-0.6932,69.7659 -0.6962,69.8749 -0.6962,69.9849 C-0.6962,72.5189 -0.5602,75.0209 -0.3002,77.4869 C-0.2512,77.4909 -0.2072,77.4979 -0.1582,77.5019 C4.3368,77.7149 8.6998,78.2109 12.1328,81.6789 C13.2188,82.7749 14.7368,83.1579 16.3738,83.2289 C18.8048,83.3339 20.2338,85.3239 19.1588,87.2299 C16.2388,92.4149 18.4448,96.7679 21.1048,101.0859 C22.4358,103.2459 24.3658,104.8639 26.5348,106.0909 C31.2648,108.7659 33.9788,112.5749 34.6738,118.0929 C35.2708,122.8269 36.5208,127.4769 37.4818,132.1649 C37.5098,132.3919 37.5498,132.6129 37.5928,132.8319 C41.0728,134.6299 44.7208,136.1459 48.5078,137.3529 C48.4568,137.1579 48.3928,136.9539 48.3128,136.7399 C47.4428,134.0159 47.9338,131.5419 49.4618,129.1349 C51.2858,126.2629 51.7288,122.6929 54.0628,120.0279 C54.8658,119.1109 54.6448,117.7179 54.5938,116.5229 C54.4888,114.0809 55.3988,112.3339 57.4638,110.8899 C61.3918,108.1419 62.1318,105.7779 60.7958,101.1869 C60.2828,99.4239 60.4508,97.9079 61.3488,96.2799 C63.0888,93.1229 62.1268,90.1469 58.9278,88.5579" id="Fill-7" fill="#5495CF" mask="url(#mask-2)"></path>
                    <path d="M131.5247,66.9675 C129.9247,67.4405 128.2497,67.6595 125.9177,68.1315 C127.9177,65.8085 130.0847,65.2645 132.1607,64.6915 C134.6277,64.0095 137.8577,62.1345 139.9877,59.9225 C136.5547,35.8335 120.9817,15.6595 99.6607,5.7925 C99.5707,5.8005 94.4937,8.2845 92.3827,10.0625 C90.9647,11.2565 89.7047,12.6305 90.2057,14.6895 C90.6707,16.6045 92.4777,16.2405 93.8217,16.4755 C95.6147,16.7885 95.8967,17.6895 95.2827,19.2155 C94.4377,21.3115 92.6597,22.3475 90.7437,23.1635 C88.8527,23.9685 86.8497,24.5205 84.9887,25.3815 C83.7227,25.9675 82.7637,26.7805 83.4317,28.6215 C84.8367,32.4955 83.8777,33.6795 79.6047,33.5955 C77.7427,33.5585 76.3277,33.9575 76.1527,36.1055 C75.9847,38.1585 76.7317,39.6095 78.8897,40.1215 C81.0597,40.6365 83.4947,39.5035 84.9987,37.2135 C85.7517,36.0665 86.3717,34.8055 87.2697,33.7875 C89.8167,30.8995 95.3047,31.6285 96.9977,34.9635 C97.5587,36.0705 97.2157,38.3085 99.1397,37.8715 C100.6847,37.5205 99.7317,35.6345 99.8947,34.4365 C100.0057,33.6165 100.1557,32.8265 101.1167,32.7365 C102.1317,32.6395 102.7207,33.3375 102.9467,34.2195 C103.1797,35.1275 103.2307,36.0825 103.3617,37.0165 C103.6017,38.7325 104.3957,39.3625 105.9597,38.2705 C106.6517,37.7875 107.5037,37.3685 108.0557,38.0325 C109.8787,40.2265 112.3567,40.2355 114.8507,40.4675 C116.2447,40.5965 117.7077,41.1225 117.7777,42.8305 C117.8397,44.3565 116.7287,45.3065 115.4317,45.9395 C113.6157,46.8245 111.9327,46.0715 110.2237,45.4745 C107.7857,44.6235 105.1977,43.4865 102.8937,45.4415 C101.2197,46.8635 99.8257,46.6175 98.2377,45.6365 C96.5387,44.5855 94.9927,43.3835 94.2117,41.4455 C93.7117,40.2065 92.6747,39.3625 91.4637,39.3995 C86.9017,39.5405 82.5417,40.7875 78.2467,42.2455 C77.9447,42.3485 77.6077,42.6245 77.4747,42.9065 C75.5027,47.0815 72.2517,50.3565 69.6637,54.0945 C69.2897,54.6355 69.1847,55.3765 69.0097,56.0395 C67.8997,60.2505 68.4267,64.4055 69.6617,68.4715 C71.3347,73.9735 74.0467,75.8125 79.7747,75.4105 C81.4737,75.2915 83.1517,74.8425 84.8367,74.5305 C90.4427,73.4915 93.5927,75.9785 93.7797,81.6485 C93.8357,83.3215 94.0147,85.0685 95.1407,86.2555 C97.7807,89.0385 97.8467,91.9725 96.3707,95.2665 C95.3997,97.4335 95.5337,99.5755 96.8167,101.6675 C97.7647,103.2125 98.2557,104.9385 98.4627,106.7715 C98.6937,108.8115 98.9737,110.8695 99.5087,112.8455 C100.6237,116.9735 104.0427,117.9415 107.3527,117.9475 C109.4127,117.7225 111.5967,117.0085 112.9857,114.8175 C115.8227,111.5745 118.7017,108.3785 118.6047,103.6315 C118.5777,102.3475 119.4467,101.4145 120.5487,100.7705 C123.8637,98.8345 124.5437,95.8425 123.9327,92.3345 C123.7427,91.2365 123.5887,90.1285 123.3347,89.0445 C122.7327,86.4705 123.4137,84.2865 125.2497,82.4405 C127.2507,80.4285 129.3307,78.4905 131.2707,76.4235 C133.1247,74.4465 134.5947,72.1945 134.4567,69.3365 C134.3737,67.6055 133.7707,66.3045 131.5247,66.9675" id="Fill-10" fill="#5495CF" mask="url(#mask-2)"></path>
                </g>
                <g id="Group-18" transform="translate(41.107300, 35.191600)">
                    <path d="M28.537,7.045 C36.945,7.045 43.784,13.884 43.784,22.292 L43.784,25.03 L13.29,25.03 L13.29,22.292 C13.29,13.884 20.13,7.045 28.537,7.045 M50.829,26.572 L50.829,22.292 C50.829,10.001 40.829,0 28.537,0 C16.246,0 6.245,10.001 6.245,22.292 L6.245,26.573 C2.53,28.756 -7.10542736e-15,33.031 -7.10542736e-15,37.938 L-7.10542736e-15,56.71 C-7.10542736e-15,63.827 5.32,69.618 11.862,69.618 L45.215,69.618 C51.756,69.618 57.076,63.827 57.076,56.71 L57.076,37.938 C57.076,33.029 54.546,28.755 50.829,26.572" id="Fill-14" fill="#2167AE"></path>
                    <path d="M36.7521,44.1716 C36.7521,39.6416 33.0671,35.9566 28.5371,35.9566 C24.0071,35.9566 20.3221,39.6416 20.3221,44.1716 C20.3221,47.4396 22.2441,50.2596 25.0141,51.5816 L25.0141,58.2456 C25.0141,60.1916 26.5911,61.7686 28.5371,61.7686 C30.4831,61.7686 32.0591,60.1916 32.0591,58.2456 L32.0591,51.5816 C34.8291,50.2596 36.7521,47.4396 36.7521,44.1716" id="Fill-16" fill="#DAD2BD"></path>
                </g>
            </g>
        </g>
    </g>
</svg>