<?xml version="1.0" encoding="UTF-8"?>
<svg width="140px" height="140px" viewBox="0 0 140 140" version="1.1" xmlns="http://www.w3.org/2000/svg" xmlns:xlink="http://www.w3.org/1999/xlink">
    <title>pictogram/security/lock/plain</title>
    <g id="pictogram/security/lock/plain" stroke="none" stroke-width="1" fill="none" fill-rule="evenodd">
        <g id="lock" transform="translate(-0.000000, 0.000000)">
            <path d="M140,70 C140,108.66 108.66,140 70,140 C31.34,140 0,108.66 0,70 C0,31.34 31.34,0 70,0 C108.66,0 140,31.34 140,70" id="circle" fill="#91BFE3"></path>
            <g id="picto" transform="translate(35.333300, 27.715200)">
                <path d="M34.665,8.559 C44.878,8.559 53.186,16.867 53.186,27.08 L53.186,30.407 L16.144,30.407 L16.144,27.08 C16.144,16.867 24.452,8.559 34.665,8.559 M61.745,32.279 L61.745,27.08 C61.745,12.15 49.595,1.42108547e-14 34.665,1.42108547e-14 C19.734,1.42108547e-14 7.585,12.15 7.585,27.08 L7.585,32.281 C3.073,34.933 7.10542736e-15,40.125 7.10542736e-15,46.086 L7.10542736e-15,68.89 C7.10542736e-15,77.535 6.462,84.569 14.409,84.569 L54.925,84.569 C62.871,84.569 69.333,77.535 69.333,68.89 L69.333,46.086 C69.333,40.124 66.259,34.93 61.745,32.279" id="Fill-4" fill="#2167AE"></path>
                <path d="M44.6442,53.6581 C44.6442,48.1551 40.1672,43.6791 34.6652,43.6791 C29.1622,43.6791 24.6852,48.1551 24.6852,53.6581 C24.6852,57.6281 27.0212,61.0541 30.3852,62.6601 L30.3852,70.7551 C30.3852,73.1181 32.3012,75.0341 34.6652,75.0341 C37.0282,75.0341 38.9442,73.1181 38.9442,70.7551 L38.9442,62.6601 C42.3082,61.0541 44.6442,57.6281 44.6442,53.6581" id="Fill-6" fill="#DAD2BD"></path>
            </g>
        </g>
    </g>
</svg>