<?xml version="1.0" encoding="UTF-8"?>
<svg width="140px" height="140px" viewBox="0 0 140 140" version="1.1" xmlns="http://www.w3.org/2000/svg" xmlns:xlink="http://www.w3.org/1999/xlink">
    <title>pictogram/communication/mail</title>
    <g id="pictogram/communication/mail" stroke="none" stroke-width="1" fill="none" fill-rule="evenodd">
        <g id="mail" transform="translate(-0.000100, 0.000000)">
            <path d="M140,70 C140,108.66 108.66,140 70,140 C31.34,140 0,108.66 0,70 C0,31.34 31.34,0 70,0 C108.66,0 140,31.34 140,70" id="circle" fill="#91BFE3"></path>
            <g id="picto" transform="translate(30.760800, 29.211100)">
                <path d="M3.907,78.3524 L33.332,53.3704 L4.184,31.4124 C3.819,31.1534 3.815,31.1944 3.63,31.3404 C1.412,33.4494 0,36.4874 0,39.8834 L0,70.0564 C0,73.3164 1.534,76.7004 3.598,78.7984 C4.094,78.2754 3.411,78.7684 3.907,78.3524" id="Fill-4" fill="#2167AE"></path>
                <path d="M74.5717,78.3524 L45.1467,53.3704 L74.2947,31.4124 C74.6597,31.1534 74.6637,31.1944 74.8487,31.3404 C77.0667,33.4494 78.4787,36.4874 78.4787,39.8834 L78.4787,70.0564 C78.4787,73.3164 76.9447,76.7004 74.8807,78.7984 C74.3847,78.2754 75.0677,78.7684 74.5717,78.3524" id="Fill-14" fill="#2167AE"></path>
                <path d="M74.6626,31.207 L42.0026,1.121 C41.4246,0.554 40.6806,0.189 39.8876,0.056 C39.8136,0.042 39.7396,0.034 39.6646,0.025 C39.5236,0.01 39.3826,0 39.2396,0 C39.0956,0 38.9556,0.01 38.8136,0.025 C38.7396,0.034 38.6656,0.042 38.5906,0.056 C37.7986,0.189 37.0536,0.554 36.4756,1.121 L3.8156,31.207 L5.2546,32.219 L33.3316,53.37 L38.5696,48.924 C38.8416,48.696 39.0096,48.492 39.2346,48.496 L39.2396,48.408 L39.2446,48.496 C39.4686,48.492 39.6376,48.696 39.9096,48.924 L45.1466,53.37 L73.2246,32.219 L74.6626,31.207 Z" id="Fill-16" fill="#DAD2BD"></path>
                <path d="M74.5717,78.3524 L39.7347,48.7724 C39.7347,48.7724 39.5007,48.5024 39.2507,48.4994 L39.2507,48.4954 C39.2467,48.4954 39.2437,48.4974 39.2397,48.4974 C39.2357,48.4974 39.2317,48.4954 39.2277,48.4954 L39.2277,48.4994 C38.9777,48.5024 38.7437,48.7724 38.7437,48.7724 L38.7437,48.7724 L3.9067,78.3524 C3.5167,78.6794 3.3567,78.6694 4.0197,79.2014 C5.8537,80.6854 8.1367,81.5774 10.6187,81.5774 L39.2277,81.5774 L67.8597,81.5774 C70.3417,81.5774 72.6257,80.6854 74.4597,79.2014 C75.1217,78.6694 74.9617,78.6794 74.5717,78.3524" id="Fill-20" fill="#5495CF"></path>
            </g>
        </g>
    </g>
</svg>