<?xml version="1.0" encoding="UTF-8"?>
<svg width="140px" height="140px" viewBox="0 0 140 140" version="1.1" xmlns="http://www.w3.org/2000/svg" xmlns:xlink="http://www.w3.org/1999/xlink">
    <title>pictogram/communication/microphone/modern</title>
    <g id="pictogram/communication/microphone/modern" stroke="none" stroke-width="1" fill="none" fill-rule="evenodd">
        <g id="microphone-modern">
            <path d="M140,70 C140,108.66 108.66,140 70,140 C31.34,140 0,108.66 0,70 C0,31.34 31.34,0 70,0 C108.66,0 140,31.34 140,70" id="circle" fill="#91BFE3"></path>
            <g id="picto" transform="translate(23.716037, 32.583819)">
                <path d="M88.1770634,52.0891813 L71.5740634,37.4301813 L71.5670634,37.4391813 L70.6750634,36.6521813 C66.8470634,33.2721813 66.4820634,27.4081813 69.8620634,23.5811813 C73.2410634,19.7531813 79.1050634,19.3881813 82.9330634,22.7671813 C83.7710634,23.5071813 85.0490634,23.4271813 85.7880634,22.5901813 C86.5280634,21.7521813 86.4480634,20.4741813 85.6110634,19.7341813 C80.1100634,14.8781813 71.6850634,15.4021813 66.8290634,20.9031813 C61.9730634,26.4031813 62.4970634,34.8281813 67.9970634,39.6841813 L85.0610634,54.7491813 C85.0910634,54.7751813 85.1240634,54.7931813 85.1550634,54.8181813 L85.4990634,55.1221813 C89.2010634,58.3901813 89.5540634,64.0611813 86.2860634,67.7631813 C83.0170634,71.4651813 77.3470634,71.8181813 73.6450634,68.5501813 L50.6080634,48.2121813 L47.9290634,51.2451813 L70.9670634,71.5831813 C73.4350634,73.7621813 76.5050634,74.8321813 79.5640634,74.8321813 C83.1670634,74.8321813 86.7530634,73.3471813 89.3190634,70.4411813 C94.0640634,65.0671813 93.5520634,56.8341813 88.1770634,52.0891813" id="Fill-3" fill="#2167AE"></path>
                <path d="M32.6574634,15.8634813 C32.8884634,24.8524813 25.7654634,32.3274813 16.7494634,32.5584813 C7.73246338,32.7904813 0.236463378,25.6904813 0.00546337832,16.7014813 C-0.225536622,7.71148132 6.89746338,0.237481325 15.9144634,0.00548132465 C24.9304634,-0.225518675 32.4274634,6.87348132 32.6574634,15.8634813" id="Fill-5" fill="#DAD2BD"></path>
                <path d="M42.4338634,25.6335813 L26.7078634,42.0235813 C24.9668634,43.8385813 22.0848634,43.9025813 20.2648634,42.1665813 L15.6198634,37.7675813 C13.7908634,36.0235813 13.7268634,33.1265813 15.4758634,31.3035813 L31.2018634,14.9135813 C32.9438634,13.0985813 35.8258634,13.0345813 37.6458634,14.7705813 L42.2898634,19.1705813 C44.1188634,20.9135813 44.1828634,23.8105813 42.4338634,25.6335813" id="Fill-7" fill="#2167AE"></path>
                <path d="M67.4304634,56.3607813 C67.3614634,56.2947813 67.2874634,56.2377813 67.2164634,56.1747813 L58.1614634,46.4427813 C58.1834634,46.4147813 58.1394634,46.4697813 58.1614634,46.4427813 L40.6844634,27.5037813 L28.4374634,40.2267813 L47.3554634,56.8507813 C47.3424634,56.8607813 47.3294634,56.8737813 47.3164634,56.8847813 L58.1704634,66.2697813 C58.2974634,66.3837813 58.4234634,66.4987813 58.5554634,66.6027813 L58.5684634,66.6137813 L58.5694634,66.6117813 C61.2744634,68.7137813 65.1844634,68.4777813 67.6134634,65.9547813 C70.2124634,63.2547813 70.1304634,58.9597813 67.4304634,56.3607813" id="Fill-9" fill="#5495CF"></path>
            </g>
        </g>
    </g>
</svg>