<?xml version="1.0" encoding="UTF-8"?>
<svg width="140px" height="140px" viewBox="0 0 140 140" version="1.1" xmlns="http://www.w3.org/2000/svg" xmlns:xlink="http://www.w3.org/1999/xlink">
    <title>pictogram/business &amp; education/office/plain</title>
    <g id="pictogram/business-&amp;-education/office/plain" stroke="none" stroke-width="1" fill="none" fill-rule="evenodd">
        <g id="office" transform="translate(0.000000, 0.000000)">
            <path d="M140,70 C140,108.66 108.659,140 70,140 C31.34,140 0,108.66 0,70 C0,31.34 31.34,0 70,0 C108.659,0 140,31.34 140,70" id="circle" fill="#91BFE3"></path>
            <g id="picto" transform="translate(22.039800, 31.534900)">
                <path d="M45.554,0 L8.05,0 C3.605,0 0,3.604 0,8.05 L0,89.429 C12.53,101.224 29.394,108.465 47.96,108.465 C49.862,108.465 51.741,108.368 53.604,108.219 L53.604,8.05 C53.604,3.604 50,0 45.554,0" id="Fill-4" fill="#5495CF"></path>
                <path d="M88.4348,19.2383 L67.6058,19.2383 C63.4718,19.2383 60.1218,22.5893 60.1218,26.7233 L60.1218,107.3903 C73.8468,104.9843 86.1908,98.5873 95.9188,89.4293 L95.9188,26.7233 C95.9188,22.5893 92.5678,19.2383 88.4348,19.2383" id="Fill-6" fill="#2167AE"></path>
                <g id="Group-2" transform="translate(65.480500, 25.602600)" fill="#DAD2BD">
                    <path d="M7.634,9.814 L2.181,9.814 C0.977,9.814 0,8.838 0,7.634 L0,2.181 C0,0.976 0.977,0 2.181,0 L7.634,0 C8.838,0 9.815,0.976 9.815,2.181 L9.815,7.634 C9.815,8.838 8.838,9.814 7.634,9.814" id="Fill-8"></path>
                    <path d="M22.8987,9.814 L17.4457,9.814 C16.2417,9.814 15.2647,8.838 15.2647,7.634 L15.2647,2.181 C15.2647,0.976 16.2417,0 17.4457,0 L22.8987,0 C24.1027,0 25.0797,0.976 25.0797,2.181 L25.0797,7.634 C25.0797,8.838 24.1027,9.814 22.8987,9.814" id="Fill-10"></path>
                    <path d="M7.634,25.8891 L2.181,25.8891 C0.977,25.8891 0,24.9131 0,23.7091 L0,18.2561 C0,17.0511 0.977,16.0751 2.181,16.0751 L7.634,16.0751 C8.838,16.0751 9.815,17.0511 9.815,18.2561 L9.815,23.7091 C9.815,24.9131 8.838,25.8891 7.634,25.8891" id="Fill-12"></path>
                    <path d="M22.8987,25.8891 L17.4457,25.8891 C16.2417,25.8891 15.2647,24.9131 15.2647,23.7091 L15.2647,18.2561 C15.2647,17.0511 16.2417,16.0751 17.4457,16.0751 L22.8987,16.0751 C24.1027,16.0751 25.0797,17.0511 25.0797,18.2561 L25.0797,23.7091 C25.0797,24.9131 24.1027,25.8891 22.8987,25.8891" id="Fill-14"></path>
                    <path d="M7.634,41.9641 L2.181,41.9641 C0.977,41.9641 0,40.9881 0,39.7841 L0,34.3311 C0,33.1271 0.977,32.1501 2.181,32.1501 L7.634,32.1501 C8.838,32.1501 9.815,33.1271 9.815,34.3311 L9.815,39.7841 C9.815,40.9881 8.838,41.9641 7.634,41.9641" id="Fill-16"></path>
                    <path d="M22.8987,41.9641 L17.4457,41.9641 C16.2417,41.9641 15.2647,40.9881 15.2647,39.7841 L15.2647,34.3311 C15.2647,33.1271 16.2417,32.1501 17.4457,32.1501 L22.8987,32.1501 C24.1027,32.1501 25.0797,33.1271 25.0797,34.3311 L25.0797,39.7841 C25.0797,40.9881 24.1027,41.9641 22.8987,41.9641" id="Fill-18"></path>
                    <path d="M7.634,58.0392 L2.181,58.0392 C0.977,58.0392 0,57.0632 0,55.8592 L0,50.4062 C0,49.2022 0.977,48.2252 2.181,48.2252 L7.634,48.2252 C8.838,48.2252 9.815,49.2022 9.815,50.4062 L9.815,55.8592 C9.815,57.0632 8.838,58.0392 7.634,58.0392" id="Fill-20"></path>
                    <path d="M22.8987,58.0392 L17.4457,58.0392 C16.2417,58.0392 15.2647,57.0632 15.2647,55.8592 L15.2647,50.4062 C15.2647,49.2022 16.2417,48.2252 17.4457,48.2252 L22.8987,48.2252 C24.1027,48.2252 25.0797,49.2022 25.0797,50.4062 L25.0797,55.8592 C25.0797,57.0632 24.1027,58.0392 22.8987,58.0392" id="Fill-22"></path>
                </g>
                <g id="Group" transform="translate(6.630900, 8.399100)" fill="#ECEEEF">
                    <path d="M7.633,9.814 L2.18,9.814 C0.976,9.814 0,8.838 0,7.634 L0,2.181 C0,0.977 0.976,0 2.18,0 L7.633,0 C8.837,0 9.814,0.977 9.814,2.181 L9.814,7.634 C9.814,8.838 8.837,9.814 7.633,9.814" id="Fill-24"></path>
                    <path d="M22.8977,9.814 L17.4447,9.814 C16.2407,9.814 15.2647,8.838 15.2647,7.634 L15.2647,2.181 C15.2647,0.977 16.2407,0 17.4447,0 L22.8977,0 C24.1017,0 25.0787,0.977 25.0787,2.181 L25.0787,7.634 C25.0787,8.838 24.1017,9.814 22.8977,9.814" id="Fill-26"></path>
                    <path d="M38.1623,9.814 L32.7093,9.814 C31.5053,9.814 30.5293,8.838 30.5293,7.634 L30.5293,2.181 C30.5293,0.977 31.5053,0 32.7093,0 L38.1623,0 C39.3663,0 40.3433,0.977 40.3433,2.181 L40.3433,7.634 C40.3433,8.838 39.3663,9.814 38.1623,9.814" id="Fill-28"></path>
                    <path d="M7.633,27.0175 L2.18,27.0175 C0.976,27.0175 0,26.0415 0,24.8375 L0,19.3845 C0,18.1795 0.976,17.2035 2.18,17.2035 L7.633,17.2035 C8.837,17.2035 9.814,18.1795 9.814,19.3845 L9.814,24.8375 C9.814,26.0415 8.837,27.0175 7.633,27.0175" id="Fill-30"></path>
                    <path d="M22.8977,27.0175 L17.4447,27.0175 C16.2407,27.0175 15.2647,26.0415 15.2647,24.8375 L15.2647,19.3845 C15.2647,18.1795 16.2407,17.2035 17.4447,17.2035 L22.8977,17.2035 C24.1017,17.2035 25.0787,18.1795 25.0787,19.3845 L25.0787,24.8375 C25.0787,26.0415 24.1017,27.0175 22.8977,27.0175" id="Fill-32"></path>
                    <path d="M38.1623,27.0175 L32.7093,27.0175 C31.5053,27.0175 30.5293,26.0415 30.5293,24.8375 L30.5293,19.3845 C30.5293,18.1795 31.5053,17.2035 32.7093,17.2035 L38.1623,17.2035 C39.3663,17.2035 40.3433,18.1795 40.3433,19.3845 L40.3433,24.8375 C40.3433,26.0415 39.3663,27.0175 38.1623,27.0175" id="Fill-34"></path>
                    <path d="M7.633,43.0926 L2.18,43.0926 C0.976,43.0926 0,42.1166 0,40.9126 L0,35.4596 C0,34.2546 0.976,33.2786 2.18,33.2786 L7.633,33.2786 C8.837,33.2786 9.814,34.2546 9.814,35.4596 L9.814,40.9126 C9.814,42.1166 8.837,43.0926 7.633,43.0926" id="Fill-36"></path>
                    <path d="M22.8977,43.0926 L17.4447,43.0926 C16.2407,43.0926 15.2647,42.1166 15.2647,40.9126 L15.2647,35.4596 C15.2647,34.2546 16.2407,33.2786 17.4447,33.2786 L22.8977,33.2786 C24.1017,33.2786 25.0787,34.2546 25.0787,35.4596 L25.0787,40.9126 C25.0787,42.1166 24.1017,43.0926 22.8977,43.0926" id="Fill-38"></path>
                    <path d="M38.1623,43.0926 L32.7093,43.0926 C31.5053,43.0926 30.5293,42.1166 30.5293,40.9126 L30.5293,35.4596 C30.5293,34.2546 31.5053,33.2786 32.7093,33.2786 L38.1623,33.2786 C39.3663,33.2786 40.3433,34.2546 40.3433,35.4596 L40.3433,40.9126 C40.3433,42.1166 39.3663,43.0926 38.1623,43.0926" id="Fill-40"></path>
                    <path d="M7.633,59.1676 L2.18,59.1676 C0.976,59.1676 0,58.1916 0,56.9876 L0,51.5346 C0,50.3306 0.976,49.3536 2.18,49.3536 L7.633,49.3536 C8.837,49.3536 9.814,50.3306 9.814,51.5346 L9.814,56.9876 C9.814,58.1916 8.837,59.1676 7.633,59.1676" id="Fill-42"></path>
                    <path d="M22.8977,59.1676 L17.4447,59.1676 C16.2407,59.1676 15.2647,58.1916 15.2647,56.9876 L15.2647,51.5346 C15.2647,50.3306 16.2407,49.3536 17.4447,49.3536 L22.8977,49.3536 C24.1017,49.3536 25.0787,50.3306 25.0787,51.5346 L25.0787,56.9876 C25.0787,58.1916 24.1017,59.1676 22.8977,59.1676" id="Fill-44"></path>
                    <path d="M38.1623,59.1676 L32.7093,59.1676 C31.5053,59.1676 30.5293,58.1916 30.5293,56.9876 L30.5293,51.5346 C30.5293,50.3306 31.5053,49.3536 32.7093,49.3536 L38.1623,49.3536 C39.3663,49.3536 40.3433,50.3306 40.3433,51.5346 L40.3433,56.9876 C40.3433,58.1916 39.3663,59.1676 38.1623,59.1676" id="Fill-46"></path>
                    <path d="M7.633,75.2427 L2.18,75.2427 C0.976,75.2427 0,74.2667 0,73.0627 L0,67.6097 C0,66.4057 0.976,65.4287 2.18,65.4287 L7.633,65.4287 C8.837,65.4287 9.814,66.4057 9.814,67.6097 L9.814,73.0627 C9.814,74.2667 8.837,75.2427 7.633,75.2427" id="Fill-48"></path>
                    <path d="M22.8977,75.2427 L17.4447,75.2427 C16.2407,75.2427 15.2647,74.2667 15.2647,73.0627 L15.2647,67.6097 C15.2647,66.4057 16.2407,65.4287 17.4447,65.4287 L22.8977,65.4287 C24.1017,65.4287 25.0787,66.4057 25.0787,67.6097 L25.0787,73.0627 C25.0787,74.2667 24.1017,75.2427 22.8977,75.2427" id="Fill-50"></path>
                    <path d="M38.1623,75.2427 L32.7093,75.2427 C31.5053,75.2427 30.5293,74.2667 30.5293,73.0627 L30.5293,67.6097 C30.5293,66.4057 31.5053,65.4287 32.7093,65.4287 L38.1623,65.4287 C39.3663,65.4287 40.3433,66.4057 40.3433,67.6097 L40.3433,73.0627 C40.3433,74.2667 39.3663,75.2427 38.1623,75.2427" id="Fill-52"></path>
                </g>
            </g>
        </g>
    </g>
</svg>