<?xml version="1.0" encoding="UTF-8"?>
<svg width="140px" height="140px" viewBox="0 0 140 140" version="1.1" xmlns="http://www.w3.org/2000/svg" xmlns:xlink="http://www.w3.org/1999/xlink">
    <title>pictogram/business &amp; education/office/care</title>
    <defs>
        <path d="M70,0 C31.339,0 2.88657986e-15,31.34 2.88657986e-15,70 L2.88657986e-15,70 C2.88657986e-15,108.66 31.339,140 70,140 L70,140 C108.546,140 139.816,108.844 139.999,70.339 L139.999,70.339 L139.999,69.66" id="path-1"></path>
    </defs>
    <g id="pictogram/business-&amp;-education/office/care" stroke="none" stroke-width="1" fill="none" fill-rule="evenodd">
        <g id="office-care" transform="translate(0.000000, -0.000100)">
            <path d="M140,70 C140,108.66 108.659,140 70,140 C31.34,140 0,108.66 0,70 C0,31.34 31.34,0 70,0 C108.659,0 140,31.34 140,70" id="circle" fill="#91BFE3"></path>
            <g id="picto" transform="translate(0.000000, 0.000100)">
                <path d="M68.0918,21.6371 L38.3448,21.6371 C34.8198,21.6371 31.9598,24.4961 31.9598,28.0221 L31.9598,92.5681 C41.8978,101.9241 55.2748,107.6671 69.9998,107.6671 C71.5078,107.6671 72.9978,107.5901 74.4768,107.4711 L74.4768,28.0221 C74.4768,24.4961 71.6178,21.6371 68.0918,21.6371" id="Fill-4" fill="#5495CF"></path>
                <path d="M102.1025,36.8961 L85.5815,36.8961 C82.3035,36.8961 79.6455,39.5541 79.6455,42.8331 L79.6455,106.8141 C90.5325,104.9061 100.3235,99.8321 108.0395,92.5681 L108.0395,42.8331 C108.0395,39.5541 105.3805,36.8961 102.1025,36.8961" id="Fill-6" fill="#2167AE"></path>
                <g id="Group-2" transform="translate(83.896000, 41.944100)" fill="#5495CF">
                    <path d="M5.604,7.784 L2.181,7.784 C0.977,7.784 0,6.808 0,5.604 L0,2.18 C0,0.976 0.977,0 2.181,0 L5.604,0 C6.808,0 7.785,0.976 7.785,2.18 L7.785,5.604 C7.785,6.808 6.808,7.784 5.604,7.784" id="Fill-8"></path>
                    <path d="M17.7114,7.784 L14.2884,7.784 C13.0844,7.784 12.1074,6.808 12.1074,5.604 L12.1074,2.18 C12.1074,0.976 13.0844,0 14.2884,0 L17.7114,0 C18.9154,0 19.8924,0.976 19.8924,2.18 L19.8924,5.604 C19.8924,6.808 18.9154,7.784 17.7114,7.784" id="Fill-10"></path>
                    <path d="M5.604,20.534 L2.181,20.534 C0.977,20.534 0,19.558 0,18.354 L0,14.93 C0,13.726 0.977,12.75 2.181,12.75 L5.604,12.75 C6.808,12.75 7.785,13.726 7.785,14.93 L7.785,18.354 C7.785,19.558 6.808,20.534 5.604,20.534" id="Fill-12"></path>
                    <path d="M17.7114,20.534 L14.2884,20.534 C13.0844,20.534 12.1074,19.558 12.1074,18.354 L12.1074,14.93 C12.1074,13.726 13.0844,12.75 14.2884,12.75 L17.7114,12.75 C18.9154,12.75 19.8924,13.726 19.8924,14.93 L19.8924,18.354 C19.8924,19.558 18.9154,20.534 17.7114,20.534" id="Fill-14"></path>
                    <path d="M5.604,33.284 L2.181,33.284 C0.977,33.284 0,32.308 0,31.104 L0,27.68 C0,26.476 0.977,25.5 2.181,25.5 L5.604,25.5 C6.808,25.5 7.785,26.476 7.785,27.68 L7.785,31.104 C7.785,32.308 6.808,33.284 5.604,33.284" id="Fill-16"></path>
                    <path d="M17.7114,33.284 L14.2884,33.284 C13.0844,33.284 12.1074,32.308 12.1074,31.104 L12.1074,27.68 C12.1074,26.476 13.0844,25.5 14.2884,25.5 L17.7114,25.5 C18.9154,25.5 19.8924,26.476 19.8924,27.68 L19.8924,31.104 C19.8924,32.308 18.9154,33.284 17.7114,33.284" id="Fill-18"></path>
                    <path d="M5.604,46.0342 L2.181,46.0342 C0.977,46.0342 0,45.0582 0,43.8542 L0,40.4302 C0,39.2262 0.977,38.2502 2.181,38.2502 L5.604,38.2502 C6.808,38.2502 7.785,39.2262 7.785,40.4302 L7.785,43.8542 C7.785,45.0582 6.808,46.0342 5.604,46.0342" id="Fill-20"></path>
                    <path d="M17.7114,46.0342 L14.2884,46.0342 C13.0844,46.0342 12.1074,45.0582 12.1074,43.8542 L12.1074,40.4302 C12.1074,39.2262 13.0844,38.2502 14.2884,38.2502 L17.7114,38.2502 C18.9154,38.2502 19.8924,39.2262 19.8924,40.4302 L19.8924,43.8542 C19.8924,45.0582 18.9154,46.0342 17.7114,46.0342" id="Fill-22"></path>
                </g>
                <g id="Group" transform="translate(37.218200, 28.299000)" fill="#ECEEEF">
                    <path d="M5.604,7.784 L2.181,7.784 C0.977,7.784 0,6.808 0,5.604 L0,2.18 C0,0.976 0.977,0 2.181,0 L5.604,0 C6.808,0 7.785,0.976 7.785,2.18 L7.785,5.604 C7.785,6.808 6.808,7.784 5.604,7.784" id="Fill-24"></path>
                    <path d="M17.7115,7.784 L14.2885,7.784 C13.0845,7.784 12.1075,6.808 12.1075,5.604 L12.1075,2.18 C12.1075,0.976 13.0845,0 14.2885,0 L17.7115,0 C18.9155,0 19.8925,0.976 19.8925,2.18 L19.8925,5.604 C19.8925,6.808 18.9155,7.784 17.7115,7.784" id="Fill-26"></path>
                    <path d="M29.8189,7.784 L26.3959,7.784 C25.1919,7.784 24.2149,6.808 24.2149,5.604 L24.2149,2.18 C24.2149,0.976 25.1919,0 26.3959,0 L29.8189,0 C31.0229,0 31.9999,0.976 31.9999,2.18 L31.9999,5.604 C31.9999,6.808 31.0229,7.784 29.8189,7.784" id="Fill-28"></path>
                    <path d="M5.604,21.4291 L2.181,21.4291 C0.977,21.4291 0,20.4531 0,19.2491 L0,15.8251 C0,14.6211 0.977,13.6451 2.181,13.6451 L5.604,13.6451 C6.808,13.6451 7.785,14.6211 7.785,15.8251 L7.785,19.2491 C7.785,20.4531 6.808,21.4291 5.604,21.4291" id="Fill-30"></path>
                    <path d="M17.7115,21.4291 L14.2885,21.4291 C13.0845,21.4291 12.1075,20.4531 12.1075,19.2491 L12.1075,15.8251 C12.1075,14.6211 13.0845,13.6451 14.2885,13.6451 L17.7115,13.6451 C18.9155,13.6451 19.8925,14.6211 19.8925,15.8251 L19.8925,19.2491 C19.8925,20.4531 18.9155,21.4291 17.7115,21.4291" id="Fill-32"></path>
                    <path d="M29.8189,21.4291 L26.3959,21.4291 C25.1919,21.4291 24.2149,20.4531 24.2149,19.2491 L24.2149,15.8251 C24.2149,14.6211 25.1919,13.6451 26.3959,13.6451 L29.8189,13.6451 C31.0229,13.6451 31.9999,14.6211 31.9999,15.8251 L31.9999,19.2491 C31.9999,20.4531 31.0229,21.4291 29.8189,21.4291" id="Fill-34"></path>
                    <path d="M5.604,34.1791 L2.181,34.1791 C0.977,34.1791 0,33.2031 0,31.9991 L0,28.5751 C0,27.3711 0.977,26.3951 2.181,26.3951 L5.604,26.3951 C6.808,26.3951 7.785,27.3711 7.785,28.5751 L7.785,31.9991 C7.785,33.2031 6.808,34.1791 5.604,34.1791" id="Fill-36"></path>
                    <path d="M17.7115,34.1791 L14.2885,34.1791 C13.0845,34.1791 12.1075,33.2031 12.1075,31.9991 L12.1075,28.5751 C12.1075,27.3711 13.0845,26.3951 14.2885,26.3951 L17.7115,26.3951 C18.9155,26.3951 19.8925,27.3711 19.8925,28.5751 L19.8925,31.9991 C19.8925,33.2031 18.9155,34.1791 17.7115,34.1791" id="Fill-38"></path>
                    <path d="M29.8189,34.1791 L26.3959,34.1791 C25.1919,34.1791 24.2149,33.2031 24.2149,31.9991 L24.2149,28.5751 C24.2149,27.3711 25.1919,26.3951 26.3959,26.3951 L29.8189,26.3951 C31.0229,26.3951 31.9999,27.3711 31.9999,28.5751 L31.9999,31.9991 C31.9999,33.2031 31.0229,34.1791 29.8189,34.1791" id="Fill-40"></path>
                    <path d="M5.604,46.9291 L2.181,46.9291 C0.977,46.9291 0,45.9531 0,44.7491 L0,41.3251 C0,40.1211 0.977,39.1451 2.181,39.1451 L5.604,39.1451 C6.808,39.1451 7.785,40.1211 7.785,41.3251 L7.785,44.7491 C7.785,45.9531 6.808,46.9291 5.604,46.9291" id="Fill-42"></path>
                    <path d="M17.7115,46.9291 L14.2885,46.9291 C13.0845,46.9291 12.1075,45.9531 12.1075,44.7491 L12.1075,41.3251 C12.1075,40.1211 13.0845,39.1451 14.2885,39.1451 L17.7115,39.1451 C18.9155,39.1451 19.8925,40.1211 19.8925,41.3251 L19.8925,44.7491 C19.8925,45.9531 18.9155,46.9291 17.7115,46.9291" id="Fill-44"></path>
                    <path d="M29.8189,46.9291 L26.3959,46.9291 C25.1919,46.9291 24.2149,45.9531 24.2149,44.7491 L24.2149,41.3251 C24.2149,40.1211 25.1919,39.1451 26.3959,39.1451 L29.8189,39.1451 C31.0229,39.1451 31.9999,40.1211 31.9999,41.3251 L31.9999,44.7491 C31.9999,45.9531 31.0229,46.9291 29.8189,46.9291" id="Fill-46"></path>
                    <path d="M29.8189,59.6793 L26.3959,59.6793 C25.1919,59.6793 24.2149,58.7033 24.2149,57.4993 L24.2149,54.0753 C24.2149,52.8713 25.1919,51.8953 26.3959,51.8953 L29.8189,51.8953 C31.0229,51.8953 31.9999,52.8713 31.9999,54.0753 L31.9999,57.4993 C31.9999,58.7033 31.0229,59.6793 29.8189,59.6793" id="Fill-48"></path>
                </g>
                <g id="Group-53">
                    <mask id="mask-2" fill="white">
                        <use xlink:href="#path-1"></use>
                    </mask>
                    <g id="Clip-52"></g>
                    <path d="M116.8301,86.6559 C114.6141,82.9629 109.8971,81.6489 106.0921,83.6639 L68.4781,103.5769 C67.1281,104.2919 65.5411,104.4109 64.1001,103.9069 L45.7421,97.4819 L58.1181,96.8499 C62.7071,96.6159 66.3081,92.8269 66.3081,88.2319 L66.3081,88.2309 C66.3081,83.6289 62.6961,79.8369 58.1011,79.6119 L-0.2999,77.3349 C-0.1529,87.7099 2.2381,97.5399 6.4301,106.3539 L51.2951,122.0469 C59.1111,124.9259 67.8011,124.2029 75.0331,120.0699 L106.2201,102.2489 C104.3611,98.9749 105.4601,94.8019 108.7141,92.8779 C111.5601,91.1949 115.1211,91.7859 117.2881,94.1069 C118.3161,91.7819 118.2411,89.0079 116.8301,86.6559" id="Fill-51" fill="#DAD2BD" mask="url(#mask-2)"></path>
                </g>
                <path d="M108.7138,92.8783 C111.5608,91.1953 115.1208,91.7853 117.2878,94.1063 C116.6138,95.6323 115.4648,96.9653 113.9018,97.8583 L106.2198,102.2483 C104.3608,98.9743 105.4598,94.8023 108.7138,92.8783" id="Fill-54" fill="#ECEEEF"></path>
                <path d="M52.6328,88.2227 C52.6328,85.2017 55.0818,82.7537 58.1028,82.7537 C61.1228,82.7537 63.5708,85.2017 63.5708,88.2227 C63.5708,91.2437 61.1228,93.6917 58.1028,93.6917 C55.0818,93.6917 52.6328,91.2437 52.6328,88.2227" id="Fill-57" fill="#ECEEEF"></path>
            </g>
        </g>
    </g>
</svg>