<?xml version="1.0" encoding="UTF-8"?>
<svg width="140px" height="140px" viewBox="0 0 140 140" version="1.1" xmlns="http://www.w3.org/2000/svg" xmlns:xlink="http://www.w3.org/1999/xlink">
    <title>pictogram/environment/palms</title>
    <g id="pictogram/environment/palms" stroke="none" stroke-width="1" fill="none" fill-rule="evenodd">
        <g id="palms">
            <path d="M140,70 C140,108.66 108.66,140 70,140 C31.34,140 0,108.66 0,70 C0,31.34 31.34,0 70,0 C108.66,0 140,31.34 140,70" id="circle" fill="#91BFE3"></path>
            <g id="picto" transform="translate(12.737400, 27.933030)">
                <path d="M28.9677,73.1919698 L25.2337,104.30597 C30.0437,106.78697 35.1737,108.72897 40.5527,110.04697 L36.1307,73.1919698 L28.9677,73.1919698 Z" id="Fill-3" fill="#5495CF"></path>
                <path d="M69.0243,57.9229698 L62.5523,111.85097 C70.0633,111.28897 77.2443,109.55197 83.9073,106.80597 L78.0423,57.9229698 L69.0243,57.9229698 Z" id="Fill-5" fill="#23366F"></path>
                <path d="M46.536,52.7325698 C48.95,45.3255698 56.451,41.9775698 63.847,43.6615698 C60.018,38.1675698 49.948,34.7555698 40.294,44.3275698 C40.96,36.1705698 46.067,29.0235698 50.379,27.2295698 C43.873,26.6825698 35.218,31.0935698 32.554,39.5825698 C29.89,31.0935698 21.235,26.6825698 14.729,27.2295698 C19.041,29.0235698 24.149,36.1705698 24.814,44.3275698 C15.161,34.7555698 5.09,38.1675698 1.262,43.6615698 C8.658,41.9775698 16.159,45.3255698 18.573,52.7325698 C11.331,50.6515698 1.997,55.3265698 -7.10542736e-15,63.8705698 C20.639,54.6605698 28.968,73.1915698 28.968,73.1915698 L32.554,73.1915698 L36.14,73.1915698 C36.14,73.1915698 44.47,54.6605698 65.109,63.8705698 C63.111,55.3265698 53.777,50.6515698 46.536,52.7325698" id="Fill-7" fill="#ECEEEF"></path>
                <path d="M91.1425,32.1650698 C94.1815,22.8400698 103.6245,18.6250698 112.9365,20.7440698 C108.1175,13.8280698 95.4385,9.53306977 83.2845,21.5830698 C84.1225,11.3130698 90.5525,2.31606977 95.9815,0.0570697735 C87.7895,-0.630930226 76.8925,4.92206977 73.5395,15.6100698 C70.1865,4.92206977 59.2895,-0.630930226 51.0985,0.0570697735 C56.5275,2.31606977 62.9575,11.3130698 63.7955,21.5830698 C51.6415,9.53306977 38.9625,13.8280698 34.1425,20.7440698 C43.4545,18.6250698 52.8985,22.8400698 55.9365,32.1650698 C46.8205,29.5450698 35.0685,35.4310698 32.5545,46.1880698 C58.5385,34.5920698 69.0245,57.9230698 69.0245,57.9230698 L73.5395,57.9230698 L78.0555,57.9230698 C78.0555,57.9230698 88.5405,34.5920698 114.5255,46.1880698 C112.0105,35.4310698 100.2585,29.5450698 91.1425,32.1650698" id="Fill-9" fill="#5495CF"></path>
            </g>
        </g>
    </g>
</svg>