<?xml version="1.0" encoding="UTF-8"?>
<svg width="140px" height="140px" viewBox="0 0 140 140" version="1.1" xmlns="http://www.w3.org/2000/svg" xmlns:xlink="http://www.w3.org/1999/xlink">
    <title>pictogram/communication/pencil</title>
    <g id="pictogram/communication/pencil" stroke="none" stroke-width="1" fill="none" fill-rule="evenodd">
        <g id="pencil" transform="translate(-0.000100, 0.000000)">
            <path d="M140,70 C140,108.66 108.66,140 70,140 C31.34,140 0,108.66 0,70 C0,31.34 31.34,0 70,0 C108.66,0 140,31.34 140,70" id="circle" fill="#91BFE3"></path>
            <g id="picto" transform="translate(27.064700, 27.069889)">
                <path d="M13.2748,67.9523105 C14.8118,69.4893105 16.3988,71.0513105 17.9378,72.5903105 C18.2228,72.3353105 61.4238,29.1943105 82.7368,7.87531054 C83.1028,7.50831054 83.5648,7.19731054 83.6078,6.60531054 C82.1448,5.14131054 80.6148,3.61131054 79.0918,2.08831054 C75.7248,5.48531054 14.6618,66.4833105 13.2748,67.9523105" id="Fill-4" fill="#DAD2BD"></path>
                <path d="M6.325,83.1906105 C5.082,81.9286105 3.933,80.5696105 2.51,79.4936105 C1.727,81.4806105 0.943,83.4686105 3.55271368e-15,85.8606105 C2.342,84.8716105 4.334,84.0316105 6.325,83.1906105" id="Fill-6" fill="#2167AE"></path>
                <path d="M83.5878,6.58451054 C83.4858,7.10351054 83.0818,7.48851054 82.7158,7.85451054 C61.4038,29.1735105 17.9168,72.1085105 17.9168,72.5695105 C19.2768,73.9865105 20.6378,75.4045105 21.9978,76.8215105 C24.0098,75.2825105 78.9478,20.0215105 83.8798,15.0855105 C86.7028,12.2615105 86.4488,9.44551054 83.5878,6.58451054" id="Fill-8" fill="#2167AE"></path>
                <path d="M79.2858,2.28241054 C78.7668,2.38441054 78.3818,2.78841054 78.0158,3.15441054 C56.6968,24.4664105 13.6768,67.5774105 13.3008,67.9534105 C11.8838,66.5934105 10.4658,65.2324105 9.0488,63.8724105 C10.5878,61.8604105 65.8488,6.92241054 70.7848,1.99041054 C73.6088,-0.832589464 76.4248,-0.578589464 79.2858,2.28241054" id="Fill-10" fill="#2167AE"></path>
                <path d="M21.998,76.8215105 L16.32,69.5145105 L9.062,63.8815105 L9.038,63.8565105 C8.031,65.0385105 7.567,66.4655105 7.054,67.9105105 C5.725,71.8445105 4.03,75.6345105 2.51,79.4935105 C3.933,80.5695105 5.082,81.9285105 6.325,83.1905105 C8.953,82.1725105 11.58,81.1505105 14.21,80.1385105 C14.697,79.9505105 15.2,79.8015105 15.696,79.6355105 C17.937,78.7495105 20.038,78.0605105 22.019,76.8425105 L21.998,76.8215105 Z" id="Fill-12" fill="#ECEEEF"></path>
            </g>
        </g>
    </g>
</svg>