<?xml version="1.0" encoding="UTF-8"?>
<svg width="140px" height="140px" viewBox="0 0 140 140" version="1.1" xmlns="http://www.w3.org/2000/svg" xmlns:xlink="http://www.w3.org/1999/xlink">
    <title>pictogram/business &amp; education/product/supply-chain</title>
    <g id="pictogram/business-&amp;-education/product/supply-chain" stroke="none" stroke-width="1" fill="none" fill-rule="evenodd">
        <g id="supply-chain">
            <path d="M140,70 C140,108.66 108.659,140 70,140 C31.34,140 0,108.66 0,70 C0,31.34 31.34,0 70,0 C108.659,0 140,31.34 140,70" id="circle" fill="#91BFE3"></path>
            <g id="picto" transform="translate(14.365711, 16.231320)">
                <path d="M49.5170889,80.2995797 L24.6910889,80.2995797 C23.1770889,80.2995797 21.9400889,79.0615797 21.9400889,77.5475797 L21.9400889,55.0705797 C21.9400889,53.5575797 23.1770889,52.3195797 24.6910889,52.3195797 L49.5170889,52.3195797 C51.0310889,52.3195797 52.2680889,53.5575797 52.2680889,55.0705797 L52.2680889,77.5475797 C52.2680889,79.0615797 51.0310889,80.2995797 49.5170889,80.2995797" id="Fill-4" fill="#DAD2BD"></path>
                <path d="M52.8441889,56.4646797 L20.8111889,56.4646797 C20.1021889,56.4646797 19.5211889,55.8846797 19.5211889,55.1746797 L19.5211889,53.6096797 C19.5211889,52.8996797 20.1021889,52.3196797 20.8111889,52.3196797 L52.8441889,52.3196797 C53.5531889,52.3196797 54.1341889,52.8996797 54.1341889,53.6096797 L54.1341889,55.1746797 C54.1341889,55.8846797 53.5531889,56.4646797 52.8441889,56.4646797" id="Fill-6" fill="#ECEEEF"></path>
                <path d="M43.3636889,63.8064797 L31.6186889,63.8064797 C30.8566889,63.8064797 30.2336889,63.1834797 30.2336889,62.4214797 C30.2336889,61.6594797 30.8566889,61.0364797 31.6186889,61.0364797 L43.3636889,61.0364797 C44.1256889,61.0364797 44.7486889,61.6594797 44.7486889,62.4214797 C44.7486889,63.1834797 44.1256889,63.8064797 43.3636889,63.8064797" id="Fill-8" fill="#C4BDAA"></path>
                <path d="M87.1293889,80.2995797 L62.3033889,80.2995797 C60.7893889,80.2995797 59.5523889,79.0615797 59.5523889,77.5475797 L59.5523889,55.0705797 C59.5523889,53.5575797 60.7893889,52.3195797 62.3033889,52.3195797 L87.1293889,52.3195797 C88.6433889,52.3195797 89.8803889,53.5575797 89.8803889,55.0705797 L89.8803889,77.5475797 C89.8803889,79.0615797 88.6433889,80.2995797 87.1293889,80.2995797" id="Fill-10" fill="#DAD2BD"></path>
                <path d="M90.4564889,56.4646797 L58.4234889,56.4646797 C57.7144889,56.4646797 57.1334889,55.8846797 57.1334889,55.1746797 L57.1334889,53.6096797 C57.1334889,52.8996797 57.7144889,52.3196797 58.4234889,52.3196797 L90.4564889,52.3196797 C91.1654889,52.3196797 91.7464889,52.8996797 91.7464889,53.6096797 L91.7464889,55.1746797 C91.7464889,55.8846797 91.1654889,56.4646797 90.4564889,56.4646797" id="Fill-12" fill="#ECEEEF"></path>
                <path d="M80.9760889,63.8064797 L69.2310889,63.8064797 C68.4690889,63.8064797 67.8450889,63.1834797 67.8450889,62.4214797 C67.8450889,61.6594797 68.4690889,61.0364797 69.2310889,61.0364797 L80.9760889,61.0364797 C81.7380889,61.0364797 82.3610889,61.6594797 82.3610889,62.4214797 C82.3610889,63.1834797 81.7380889,63.8064797 80.9760889,63.8064797" id="Fill-14" fill="#C4BDAA"></path>
                <path d="M68.2543889,52.1605797 L43.4293889,52.1605797 C41.9153889,52.1605797 40.6773889,50.9225797 40.6773889,49.4085797 L40.6773889,26.9315797 C40.6773889,25.4185797 41.9153889,24.1805797 43.4293889,24.1805797 L68.2543889,24.1805797 C69.7683889,24.1805797 71.0063889,25.4185797 71.0063889,26.9315797 L71.0063889,49.4085797 C71.0063889,50.9225797 69.7683889,52.1605797 68.2543889,52.1605797" id="Fill-16" fill="#DAD2BD"></path>
                <path d="M71.5814889,28.3256797 L39.5494889,28.3256797 C38.8394889,28.3256797 38.2594889,27.7456797 38.2594889,27.0356797 L38.2594889,25.4706797 C38.2594889,24.7606797 38.8394889,24.1806797 39.5494889,24.1806797 L71.5814889,24.1806797 C72.2914889,24.1806797 72.8714889,24.7606797 72.8714889,25.4706797 L72.8714889,27.0356797 C72.8714889,27.7456797 72.2914889,28.3256797 71.5814889,28.3256797" id="Fill-18" fill="#ECEEEF"></path>
                <path d="M62.1010889,35.6675797 L50.3560889,35.6675797 C49.5940889,35.6675797 48.9710889,35.0445797 48.9710889,34.2825797 C48.9710889,33.5205797 49.5940889,32.8975797 50.3560889,32.8975797 L62.1010889,32.8975797 C62.8630889,32.8975797 63.4870889,33.5205797 63.4870889,34.2825797 C63.4870889,35.0445797 62.8630889,35.6675797 62.1010889,35.6675797" id="Fill-20" fill="#C4BDAA"></path>
                <path d="M93.3080889,88.7910797 C93.2370889,88.3780797 93.0500889,88.0180797 92.7960889,87.7210797 C92.7900889,87.7130797 92.7850889,87.7060797 92.7790889,87.6990797 C92.7300889,87.6430797 92.6770889,87.5900797 92.6220889,87.5390797 C92.2730889,87.1860797 91.8110889,86.9380797 91.2780889,86.8800797 L83.7260889,86.0560797 C82.5000889,85.9210797 81.3800889,86.8120797 81.2450889,88.0480797 C81.1110889,89.2840797 82.0020889,90.3950797 83.2380889,90.5290797 L86.6450889,90.9010797 C70.3630889,107.34908 44.3000889,109.74308 25.0620889,96.2370797 C5.18908893,82.2850797 -1.26291107,55.6780797 10.0520889,34.3460797 C10.6350889,33.2480797 10.2170889,31.8860797 9.12008893,31.3030797 C8.02008893,30.7210797 6.65908893,31.1390797 6.07808893,32.2370797 C-6.29991107,55.5690797 0.750088927,84.6670797 22.4760889,99.9200797 C31.6410889,106.35408 42.2220889,109.48808 52.7210889,109.48808 C66.2530889,109.48808 79.6440889,104.27908 89.6830889,94.2250797 L90.2120889,97.2830797 C90.4020889,98.3770797 91.3520889,99.1490797 92.4260889,99.1490797 C92.5540889,99.1490797 92.6830889,99.1380797 92.8130889,99.1160797 C94.0370889,98.9030797 94.8580889,97.7390797 94.6460889,96.5150797 L93.3080889,88.7910797 Z" id="Fill-22" fill="#5495CF"></path>
                <path d="M89.5609889,9.56647974 C68.5929889,-5.15652026 40.1949889,-2.59452026 22.3659889,15.2474797 L21.8339889,12.1854797 C21.6219889,10.9614797 20.4529889,10.1414797 19.2329889,10.3534797 C18.0089889,10.5654797 17.1879889,11.7304797 17.4009889,12.9544797 L18.7409889,20.6804797 C18.8329889,21.2194797 19.1129889,21.6794797 19.4989889,22.0084797 C19.8399889,22.3194797 20.2749889,22.5344797 20.7679889,22.5874797 L28.3219889,23.4154797 C28.4049889,23.4244797 28.4879889,23.4284797 28.5699889,23.4284797 C29.7029889,23.4284797 30.6769889,22.5754797 30.8029889,21.4234797 C30.9389889,20.1884797 30.0469889,19.0774797 28.8119889,18.9414797 L25.4019889,18.5684797 C41.6889889,2.13347974 67.7469889,-0.252520256 86.9749889,13.2494797 C106.841989,27.1984797 113.296989,53.8014797 101.990989,75.1314797 C101.408989,76.2294797 101.827989,77.5914797 102.924989,78.1734797 C103.260989,78.3514797 103.621989,78.4354797 103.976989,78.4354797 C104.783989,78.4354797 105.562989,78.0014797 105.966989,77.2394797 C118.332989,53.9094797 111.280989,24.8164797 89.5609889,9.56647974" id="Fill-24" fill="#5495CF"></path>
            </g>
        </g>
    </g>
</svg>