<?xml version="1.0" encoding="UTF-8"?>
<svg width="140px" height="140px" viewBox="0 0 140 140" version="1.1" xmlns="http://www.w3.org/2000/svg" xmlns:xlink="http://www.w3.org/1999/xlink">
    <title>pictogram/communication/rating/4 very good</title>
    <g id="pictogram/communication/rating/4-very-good" stroke="none" stroke-width="1" fill="none" fill-rule="evenodd">
        <g id="rating-very-good" transform="translate(0.000000, 0.000000)">
            <path d="M140,70 C140,108.66 108.66,140 70,140 C31.34,140 0,108.66 0,70 C0,31.34 31.34,0 70,0 C108.66,0 140,31.34 140,70" id="circle" fill="#91BFE3"></path>
            <g id="picto" transform="translate(20.649792, 44.691900)">
                <path d="M21.0677081,26.271 C21.3387081,26.271 21.6097081,26.183 21.8327081,26.01 C22.2157081,25.713 22.3927081,25.223 22.2877081,24.75 L20.4557081,16.502 L25.9157081,11.042 C26.2527081,10.704 26.3687081,10.204 26.2137081,9.752 C26.0587081,9.3 25.6597081,8.977 25.1867081,8.917 L17.9217081,8.01 L14.2577081,0.691 C14.0467081,0.268 13.6137081,0 13.1407081,0 C12.6677081,0 12.2347081,0.268 12.0227081,0.691 L8.35870814,8.01 L1.09470814,8.917 C0.621708143,8.977 0.222708143,9.3 0.0677081432,9.752 C-0.0872918568,10.204 0.0287081432,10.704 0.365708143,11.042 L5.82570814,16.502 L3.99370814,24.75 C3.88770814,25.223 4.06570814,25.713 4.44870814,26.01 C4.83170814,26.306 5.35070814,26.356 5.78270814,26.134 L13.1407081,22.373 L20.4987081,26.134 C20.6787081,26.226 20.8737081,26.271 21.0677081,26.271" id="Fill-4" fill="#DAD2BD"></path>
                <path d="M61.7230081,8.9175 L54.4590081,8.0095 L50.7950081,0.6905 C50.5830081,0.2675 50.1510081,0.0005 49.6780081,0.0005 C49.2040081,0.0005 48.7720081,0.2675 48.5600081,0.6905 L44.8960081,8.0095 L37.6320081,8.9175 C37.1590081,8.9765 36.7600081,9.3005 36.6050081,9.7515 C36.4500081,10.2035 36.5660081,10.7045 36.9030081,11.0415 L42.3630081,16.5015 L40.5310081,24.7505 C40.4250081,25.2225 40.6030081,25.7135 40.9860081,26.0095 C41.2090081,26.1825 41.4790081,26.2715 41.7510081,26.2715 C41.9450081,26.2715 42.1400081,26.2265 42.3200081,26.1335 L49.6780081,22.3735 L57.0360081,26.1335 C57.4670081,26.3545 57.9870081,26.3055 58.3690081,26.0095 C58.7530081,25.7135 58.9300081,25.2225 58.8250081,24.7505 L56.9920081,16.5015 L62.4520081,11.0415 C62.7890081,10.7045 62.9060081,10.2035 62.7500081,9.7515 C62.5960081,9.3005 62.1970081,8.9765 61.7230081,8.9175" id="Fill-6" fill="#DAD2BD"></path>
                <path d="M98.6327081,10.0391 C98.4777081,9.5871 98.0797081,9.2641 97.6057081,9.2051 L90.3407081,8.2961 L86.6767081,0.9771 C86.4657081,0.5541 86.0327081,0.2871 85.5597081,0.2871 C85.0867081,0.2871 84.6537081,0.5541 84.4417081,0.9771 L80.7777081,8.2961 L73.5137081,9.2051 C73.0397081,9.2641 72.6417081,9.5871 72.4867081,10.0391 C72.3317081,10.4911 72.4477081,10.9911 72.7847081,11.3291 L78.2457081,16.7891 L76.4127081,25.0371 C76.3067081,25.5101 76.4847081,26.0001 76.8677081,26.2971 C77.2507081,26.5941 77.7697081,26.6421 78.2017081,26.4211 L85.5597081,22.6601 L92.9177081,26.4211 C93.0977081,26.5131 93.2927081,26.5581 93.4867081,26.5581 C93.7577081,26.5581 94.0287081,26.4701 94.2517081,26.2971 C94.6347081,26.0001 94.8117081,25.5101 94.7067081,25.0371 L92.8747081,16.7891 L98.3347081,11.3291 C98.6717081,10.9911 98.7877081,10.4911 98.6327081,10.0391" id="Fill-8" fill="#DAD2BD"></path>
                <path d="M43.6053081,40.4942 L36.3413081,39.5862 L32.6773081,32.2672 C32.4653081,31.8442 32.0323081,31.5772 31.5603081,31.5772 C31.0863081,31.5772 30.6533081,31.8442 30.4413081,32.2672 L26.7773081,39.5862 L19.5143081,40.4942 C19.0403081,40.5532 18.6413081,40.8772 18.4863081,41.3282 C18.3313081,41.7802 18.4473081,42.2812 18.7853081,42.6182 L24.2453081,48.0782 L22.4123081,56.3272 C22.3073081,56.7992 22.4843081,57.2902 22.8673081,57.5862 C23.2503081,57.8832 23.7703081,57.9322 24.2013081,57.7102 L31.5603081,53.9502 L38.9183081,57.7102 C39.0973081,57.8032 39.2923081,57.848218 39.4863081,57.848218 C39.7583081,57.848218 40.0283081,57.7592 40.2513081,57.5862 C40.6343081,57.2902 40.8123081,56.7992 40.7073081,56.3272 L38.8743081,48.0782 L44.3343081,42.6182 C44.6713081,42.2812 44.7873081,41.7802 44.6323081,41.3282 C44.4783081,40.8772 44.0793081,40.5532 43.6053081,40.4942" id="Fill-10" fill="#DAD2BD"></path>
                <path d="M81.6327081,41.3286 C81.4777081,40.8766 81.0797081,40.5536 80.6057081,40.4946 L73.3407081,39.5856 L69.6767081,32.2666 C69.4657081,31.8436 69.0327081,31.5766 68.5597081,31.5766 C68.0867081,31.5766 67.6537081,31.8436 67.4417081,32.2666 L63.7777081,39.5856 L56.5137081,40.4946 C56.0397081,40.5536 55.6417081,40.8766 55.4867081,41.3286 C55.3317081,41.7806 55.4477081,42.2806 55.7847081,42.6186 L61.2457081,48.0786 L59.4127081,56.3266 C59.3067081,56.7996 59.4847081,57.2896 59.8677081,57.5866 C60.2507081,57.8836 60.7707081,57.9326 61.2017081,57.7106 L68.5597081,53.9496 L75.9177081,57.7106 C76.0977081,57.8026 76.2927081,57.8476 76.4867081,57.8476 C76.7577081,57.8476 77.0287081,57.7596 77.2517081,57.5866 C77.6347081,57.2896 77.8117081,56.7996 77.7067081,56.3266 L75.8747081,48.0786 L81.3347081,42.6186 C81.6717081,42.2806 81.7877081,41.7806 81.6327081,41.3286" id="Fill-12" fill="#2167AE"></path>
            </g>
        </g>
    </g>
</svg>