<?xml version="1.0" encoding="UTF-8"?>
<svg width="140px" height="140px" viewBox="0 0 140 140" version="1.1" xmlns="http://www.w3.org/2000/svg" xmlns:xlink="http://www.w3.org/1999/xlink">
    <title>pictogram/communication/reload</title>
    <g id="pictogram/communication/reload" stroke="none" stroke-width="1" fill="none" fill-rule="evenodd">
        <g id="reload">
            <path d="M140,70 C140,108.66 108.66,140 70,140 C31.34,140 0,108.66 0,70 C0,31.34 31.34,0 70,0 C108.66,0 140,31.34 140,70" id="circle" fill="#91BFE3"></path>
            <g id="picto" transform="translate(22.999898, 34.000500)">
                <path d="M81.5236017,14.38 C80.1846017,13.602 78.4606017,14.059 77.6586017,15.439 C77.2746017,16.084 77.1646017,16.84 77.3486017,17.568 C77.5326017,18.296 77.9896017,18.909 78.6346017,19.293 L78.6786017,19.319 C83.1316017,21.902 86.3126017,26.066 87.6346017,31.042 C88.9566017,36.017 88.2616017,41.209 85.6766017,45.661 C82.2506017,51.567 75.8776017,55.246 69.0486017,55.262 L31.7026017,55.262 L37.9596017,49.005 C38.9996017,47.835 38.8936017,46.035 37.7236017,44.995 C36.6406017,44.034 35.0126017,44.039 33.8976017,45.043 L22.7856017,56.143 C22.7126017,56.228 22.6476017,56.319 22.5916017,56.415 C22.4506017,56.579 22.3296017,56.769 22.2226017,57.005 C22.0846017,57.343 22.0096017,57.705 22.0006017,58.122 C22.0076017,58.496 22.0836017,58.858 22.2466017,59.241 C22.3436017,59.443 22.4636017,59.631 22.6056017,59.801 C22.6606017,59.886 22.7296017,59.977 22.8386017,60.105 L33.8956017,71.161 C34.4296017,71.697 35.1396017,71.995 35.9136017,71.999 C36.6666017,71.99 37.3766017,71.695 37.9296017,71.151 C39.0176017,70.03 39.0176017,68.273 37.9186017,67.14 L31.7066017,60.942 L69.0486017,60.942 C82.8116017,60.937 94.0046017,49.739 94.0006017,35.98 C93.9976017,27.097 89.2156017,18.82 81.5236017,14.38" id="Fill-3" fill="#2167AE"></path>
                <path d="M71.7540017,12.758 C71.6570017,12.555 71.5360017,12.367 71.3950017,12.197 C71.3390017,12.113 71.2710017,12.022 71.1610017,11.894 L60.1050017,0.838 C59.5710017,0.302 58.8610017,0.004 58.0870017,0 C57.3340017,0.009 56.6240017,0.304 56.0710017,0.847 C54.9820017,1.968 54.9820017,3.726 56.0820017,4.859 L62.2940017,11.057 L24.9510017,11.057 C11.1890017,11.062 -0.00499832565,22.259 3.55271368e-15,36.019 C0.00300167435,44.902 4.78500167,53.178 12.4770017,57.619 C12.9170017,57.875 13.3990017,57.997 13.8760017,57.997 C14.8500017,57.997 15.8030017,57.486 16.3410017,56.56 C16.7260017,55.915 16.8370017,55.158 16.6520017,54.43 C16.4680017,53.703 16.0110017,53.09 15.3660017,52.706 L15.3220017,52.68 C10.8680017,50.096 7.68800167,45.933 6.36600167,40.958 C5.04400167,35.982 5.73900167,30.79 8.32300167,26.338 C11.7500017,20.431 18.1230017,16.753 24.9520017,16.737 L62.2970017,16.737 L56.0410017,22.993 C55.0010017,24.164 55.1070017,25.964 56.2770017,27.004 C57.3590017,27.965 58.9870017,27.96 60.1030017,26.956 L71.2140017,15.856 C71.2870017,15.771 71.3520017,15.68 71.4090017,15.584 C71.5500017,15.42 71.6710017,15.229 71.7780017,14.994 C71.9160017,14.655 71.9910017,14.294 72,13.877 C71.9930017,13.503 71.9170017,13.141 71.7540017,12.758" id="Fill-5" fill="#DAD2BD"></path>
            </g>
        </g>
    </g>
</svg>