<?xml version="1.0" encoding="UTF-8"?>
<svg width="140px" height="140px" viewBox="0 0 140 140" version="1.1" xmlns="http://www.w3.org/2000/svg" xmlns:xlink="http://www.w3.org/1999/xlink">
    <title>pictogram/finance/report</title>
    <g id="pictogram/finance/report" stroke="none" stroke-width="1" fill="none" fill-rule="evenodd">
        <g id="report" transform="translate(-0.000500, 0.000000)">
            <path d="M140,70 C140,108.66 108.66,140 70,140 C31.341,140 0,108.66 0,70 C0,31.34 31.341,0 70,0 C108.66,0 140,31.34 140,70" id="circle" fill="#91BFE3"></path>
            <g id="picto" transform="translate(24.000000, 34.972900)">
                <path d="M89.75,0 L2.25,0 C1.01,0 0,1.009 0,2.25 L0,60.5 L92,60.5 L92,2.25 C92,1.009 90.99,0 89.75,0" id="Fill-4" fill="#5495CF"></path>
                <path d="M-1.0658141e-14,59.334 L-1.0658141e-14,59.834 L0.5,59.877 L0.5,59.946 L-1.0658141e-14,59.971 L0.364,59.971 L-1.0658141e-14,60 L-1.0658141e-14,64.541 C-1.0658141e-14,65.781 1.01,66.791 2.25,66.791 L16.026,66.791 L12.192,77.973 C11.879,78.887 12.366,79.882 13.28,80.196 C14.194,80.509 15.189,80.022 15.503,79.107 L19.727,66.791 L73.145,66.791 L77.368,79.107 C77.682,80.022 78.677,80.509 79.591,80.196 C80.505,79.882 80.992,78.887 80.679,77.973 L76.845,66.791 L89.75,66.791 C90.99,66.791 92,65.781 92,64.541 L92,59.348 L-1.0658141e-14,59.334 Z" id="Fill-6" fill="#2167AE"></path>
                <path d="M12.75,47.7771 C12.174,47.7771 11.599,47.5571 11.159,47.1181 C10.28,46.2391 10.28,44.8151 11.159,43.9361 L33.909,21.1861 C34.788,20.3071 36.212,20.3071 37.091,21.1861 L53,37.0951 L75.909,14.1861 C76.788,13.3071 78.212,13.3071 79.091,14.1861 C79.97,15.0651 79.97,16.4891 79.091,17.3681 L54.591,41.8681 C53.712,42.7471 52.288,42.7471 51.409,41.8681 L35.5,25.9591 L14.341,47.1181 C13.901,47.5571 13.326,47.7771 12.75,47.7771" id="Fill-8" fill="#DAD2BD"></path>
                <path d="M78.0723,27.4555 C77.1053,27.4555 76.3223,26.6715 76.3223,25.7055 L76.3223,16.9555 L67.5723,16.9555 C66.6053,16.9555 65.8223,16.1715 65.8223,15.2055 C65.8223,14.2395 66.6053,13.4555 67.5723,13.4555 L78.0723,13.4555 C79.0393,13.4555 79.8223,14.2395 79.8223,15.2055 L79.8223,25.7055 C79.8223,26.6715 79.0393,27.4555 78.0723,27.4555" id="Fill-10" fill="#DAD2BD"></path>
            </g>
        </g>
    </g>
</svg>