<?xml version="1.0" encoding="UTF-8"?>
<svg width="140px" height="140px" viewBox="0 0 140 140" version="1.1" xmlns="http://www.w3.org/2000/svg" xmlns:xlink="http://www.w3.org/1999/xlink">
    <title>pictogram/finance/results/euro</title>
    <g id="pictogram/finance/results/euro" stroke="none" stroke-width="1" fill="none" fill-rule="evenodd">
        <g id="results-euro" transform="translate(-0.000000, 0.000000)">
            <path d="M70,0 L70,0 C108.66,0 140,31.34 140,70 C140,108.66 108.66,140 70,140 C31.34,140 0,108.66 0,70 C0,31.34 31.34,0 70,0" id="circle" fill="#91BFE3"></path>
            <g id="picto" transform="translate(16.858911, 29.239774)">
                <g id="Group-10" transform="translate(-0.000000, 15.810726)" fill="#5495CF">
                    <path d="M9.88858864,6 L9.88858864,7 C9.88858864,10.314 12.5755886,13 15.8885886,13 L57.5645886,13 C60.8775886,13 63.5645886,10.314 63.5645886,7 L63.5645886,6 C63.5645886,2.686 60.8775886,0 57.5645886,0 L15.8885886,0 C12.5755886,0 9.88858864,2.686 9.88858864,6" id="Fill-4"></path>
                    <path d="M19.8836886,42.9003 L19.8836886,43.9003 C19.8836886,47.2143 22.5696886,49.9003 25.8836886,49.9003 L57.5646886,49.9003 C60.8776886,49.9003 63.5646886,47.2143 63.5646886,43.9003 L63.5646886,42.9003 C63.5646886,39.5863 60.8776886,36.9003 57.5646886,36.9003 L25.8836886,36.9003 C22.5696886,36.9003 19.8836886,39.5863 19.8836886,42.9003" id="Fill-6"></path>
                    <path d="M0.00818863665,24.4018 L-3.55271368e-15,25.4018 C-0.0258113633,28.7158 2.63918864,31.4228 5.95318864,31.4488 L57.5141886,31.4498 C60.8281886,31.4758 63.5351886,28.8108 63.5611886,25.4968 L63.5693631,24.4968 C63.5941886,21.1838 60.9291886,18.4768 57.6151886,18.4508 L6.05418864,18.4488 C2.74118864,18.4228 0.0331886367,21.0878 0.00818863665,24.4018" id="Fill-8"></path>
                </g>
                <path d="M100.616189,13.4618256 L67.1751886,0.141825575 C66.7741886,-0.0331744252 66.3071886,-0.0531744252 65.8721886,0.120825575 L32.3771886,13.4618256 C31.7401886,13.7158256 31.3231886,14.3328256 31.3231886,15.0178256 L31.3231886,42.8598256 C31.3231886,44.7018256 31.7191886,61.1138256 45.4611886,70.5238256 C52.5411886,75.3718256 56.7001886,77.9158256 59.7371886,79.7728256 C61.8811886,81.0838256 63.5761886,82.1188256 65.4411886,83.4408256 C65.7601886,83.6658256 66.1241886,83.7738256 66.4951886,83.7448256 C66.5251886,83.7478256 66.5541886,83.7478256 66.5841886,83.7478256 C66.8791886,83.7478256 67.1761886,83.6708256 67.4451886,83.5098256 L68.4791886,82.8898256 C72.5421886,80.4578256 76.3791886,78.1598256 87.5311886,70.5238256 C101.274189,61.1138256 101.671189,44.7018256 101.671189,42.8598256 L101.671189,15.0178256 C101.671189,14.3328256 101.253189,13.7158256 100.616189,13.4618256" id="Fill-11" fill="#2167AE"></path>
                <path d="M75.9486886,64.2318256 C66.0116886,64.2318256 57.5736886,57.7148256 54.6706886,48.7328256 L71.0786886,48.7328256 C72.1776886,48.7328256 73.0676886,47.8418256 73.0676886,46.7438256 C73.0676886,45.6458256 72.1776886,44.7548256 71.0786886,44.7548256 L53.7816886,44.7548256 C53.6596886,43.8108256 53.5906886,42.8508256 53.5906886,41.8748256 C53.5906886,40.8978256 53.6596886,39.9378256 53.7816886,38.9938256 L71.0786886,38.9938256 C72.1776886,38.9938256 73.0676886,38.1038256 73.0676886,37.0048256 C73.0676886,35.9068256 72.1776886,35.0168256 71.0786886,35.0168256 L54.6706886,35.0168256 C57.5736886,26.0348256 66.0116886,19.5178256 75.9486886,19.5178256 C77.0466886,19.5178256 77.9376886,18.6278256 77.9376886,17.5288256 C77.9376886,16.4308256 77.0466886,15.5408256 75.9486886,15.5408256 C63.7996886,15.5408256 53.5506886,23.8118256 50.5246886,35.0168256 L46.7326886,35.0168256 C45.6346886,35.0168256 44.7436886,35.9068256 44.7436886,37.0048256 C44.7436886,38.1038256 45.6346886,38.9938256 46.7326886,38.9938256 L49.7736886,38.9938256 C49.6696886,39.9408256 49.6126886,40.9008256 49.6126886,41.8748256 C49.6126886,42.8478256 49.6696886,43.8088256 49.7736886,44.7548256 L46.7326886,44.7548256 C45.6346886,44.7548256 44.7436886,45.6458256 44.7436886,46.7438256 C44.7436886,47.8418256 45.6346886,48.7328256 46.7326886,48.7328256 L50.5246886,48.7328256 C53.5506886,59.9388256 63.7996886,68.2098256 75.9486886,68.2098256 C77.0466886,68.2098256 77.9376886,67.3188256 77.9376886,66.2208256 C77.9376886,65.1228256 77.0466886,64.2318256 75.9486886,64.2318256" id="Fill-13" fill="#DAD2BD"></path>
            </g>
        </g>
    </g>
</svg>