<?xml version="1.0" encoding="UTF-8"?>
<svg width="140px" height="140px" viewBox="0 0 140 140" version="1.1" xmlns="http://www.w3.org/2000/svg" xmlns:xlink="http://www.w3.org/1999/xlink">
    <title>pictogram/finance/results/dolar</title>
    <g id="pictogram/finance/results/dolar" stroke="none" stroke-width="1" fill="none" fill-rule="evenodd">
        <g id="results-dolar" transform="translate(-0.000000, 0.000000)">
            <path d="M70,0 L70,0 C108.66,0 140,31.34 140,70 C140,108.66 108.66,140 70,140 C31.34,140 0,108.66 0,70 C0,31.34 31.34,0 70,0" id="circle" fill="#91BFE3"></path>
            <g id="picto" transform="translate(16.858911, 26.125122)">
                <g id="Group-10" transform="translate(-0.000000, 18.925378)" fill="#5495CF">
                    <path d="M9.88858864,6 L9.88858864,7 C9.88858864,10.314 12.5755886,13 15.8885886,13 L57.5645886,13 C60.8775886,13 63.5645886,10.314 63.5645886,7 L63.5645886,6 C63.5645886,2.686 60.8775886,0 57.5645886,0 L15.8885886,0 C12.5755886,0 9.88858864,2.686 9.88858864,6" id="Fill-4"></path>
                    <path d="M19.8836886,42.9003 L19.8836886,43.9003 C19.8836886,47.2143 22.5696886,49.9003 25.8836886,49.9003 L57.5646886,49.9003 C60.8776886,49.9003 63.5646886,47.2143 63.5646886,43.9003 L63.5646886,42.9003 C63.5646886,39.5863 60.8776886,36.9003 57.5646886,36.9003 L25.8836886,36.9003 C22.5696886,36.9003 19.8836886,39.5863 19.8836886,42.9003" id="Fill-6"></path>
                    <path d="M0.00818863665,24.4018 L-3.55271368e-15,25.4018 C-0.0258113633,28.7158 2.63918864,31.4228 5.95318864,31.4488 L57.5141886,31.4498 C60.8281886,31.4758 63.5351886,28.8108 63.5611886,25.4968 L63.5693631,24.4968 C63.5941886,21.1838 60.9291886,18.4768 57.6151886,18.4508 L6.05418864,18.4488 C2.74118864,18.4228 0.0331886367,21.0878 0.00818863665,24.4018" id="Fill-8"></path>
                </g>
                <path d="M99.2606886,13.4621777 L65.8186886,0.142177735 C65.4186886,-0.0338222645 64.9506886,-0.0528222645 64.5166886,0.121177735 L31.0216886,13.4621777 C30.3846886,13.7151777 29.9666886,14.3321777 29.9666886,15.0181777 L29.9666886,42.8601777 C29.9666886,44.7011777 30.3636886,61.1131777 44.1056886,70.5231777 C51.1846886,75.3711777 55.3446886,77.9151777 58.3806886,79.7721777 C60.5256886,81.0831777 62.2196886,82.1181777 64.0846886,83.4401777 C64.4046886,83.6651777 64.7676886,83.7741777 65.1396886,83.7451777 C65.1696886,83.7481777 65.1986886,83.7481777 65.2286886,83.7481777 C65.5226886,83.7481777 65.8206886,83.6701777 66.0896886,83.5091777 L67.1236886,82.8891777 C71.1866886,80.4581777 75.0236886,78.1601777 86.1746886,70.5231777 C99.9186886,61.1131777 100.315689,44.7011777 100.315689,42.8601777 L100.315689,15.0181777 C100.315689,14.3321777 99.8976886,13.7151777 99.2606886,13.4621777" id="Fill-11" fill="#2167AE"></path>
                <path d="M72.3822886,51.4885777 C72.3822886,54.9175777 70.0972886,57.8195777 66.9712886,58.7605777 L66.9712886,44.2155777 C70.0972886,45.1565777 72.3822886,48.0595777 72.3822886,51.4885777 M57.9002886,31.9265777 C57.9002886,28.7615777 59.8442886,26.0465777 62.6012886,24.9055777 L62.6012886,38.9455777 C59.8442886,37.8045777 57.9002886,35.0895777 57.9002886,31.9265777 M73.0922886,31.9265777 C73.0922886,33.1325777 74.0712886,34.1115777 75.2782886,34.1115777 C76.4842886,34.1115777 77.4632886,33.1325777 77.4632886,31.9265777 C77.4632886,25.8265777 72.8752886,20.7895777 66.9712886,20.0595777 L66.9712886,12.3625777 C66.9712886,11.1555777 65.9922886,10.1765777 64.7862886,10.1765777 C63.5802886,10.1765777 62.6012886,11.1555777 62.6012886,12.3625777 L62.6012886,20.3275777 C57.3992886,21.6275777 53.5292886,26.3265777 53.5292886,31.9265777 C53.5292886,37.5245777 57.3992886,42.2225777 62.6012886,43.5225777 L62.6012886,58.7605777 C59.4742886,57.8195777 57.1892886,54.9175777 57.1892886,51.4885777 C57.1892886,50.2825777 56.2112886,49.3035777 55.0042886,49.3035777 C53.7982886,49.3035777 52.8192886,50.2825777 52.8192886,51.4885777 C52.8192886,57.3395777 57.0432886,62.2145777 62.6012886,63.2455777 L62.6012886,71.0515777 C62.6012886,72.2585777 63.5802886,73.2365777 64.7862886,73.2365777 C65.9922886,73.2365777 66.9712886,72.2585777 66.9712886,71.0515777 L66.9712886,63.2455777 C72.5282886,62.2145777 76.7522886,57.3395777 76.7522886,51.4885777 C76.7522886,45.6365777 72.5282886,40.7615777 66.9712886,39.7305777 L66.9712886,24.4755777 C70.4552886,25.1645777 73.0922886,28.2415777 73.0922886,31.9265777" id="Fill-13" fill="#DAD2BD"></path>
            </g>
        </g>
    </g>
</svg>