<?xml version="1.0" encoding="UTF-8"?>
<svg width="140px" height="140px" viewBox="0 0 140 140" version="1.1" xmlns="http://www.w3.org/2000/svg" xmlns:xlink="http://www.w3.org/1999/xlink">
    <title>pictogram/mobility/rocket</title>
    <g id="pictogram/mobility/rocket" stroke="none" stroke-width="1" fill="none" fill-rule="evenodd">
        <g id="rocket" transform="translate(-0.000300, 0.000000)">
            <path d="M140,70 C140,108.66 108.66,140 70,140 C31.341,140 0,108.66 0,70 C0,31.34 31.341,0 70,0 C108.66,0 140,31.34 140,70" id="circle" fill="#91BFE3"></path>
            <g id="picto" transform="translate(33.426049, 14.473500)">
                <path d="M66.1530508,69.8515 C63.2610508,65.8435 61.4130508,64.3925 59.5290508,63.4435 L57.3790508,62.3645 L56.8720508,64.7155 C54.3700508,76.3255 49.5590508,86.3985 45.8920508,91.9555 L44.7320508,93.7155 L65.5430508,104.0065 C66.1640508,104.2645 66.9940508,104.6075 67.9720508,104.6075 C68.4860508,104.6075 69.0430508,104.5135 69.6310508,104.2595 C71.0960508,103.6315 72.1210508,102.3155 72.3710508,100.7365 C74.3900508,87.9295 72.5310508,78.6925 66.1530508,69.8515" id="Fill-4" fill="#5495CF"></path>
                <path d="M27.2555508,91.9569 C23.5895508,86.4019 18.7785508,76.3289 16.2755508,64.7169 L15.7685508,62.3659 L13.6185508,63.4449 C11.7345508,64.3939 9.88655082,65.8459 6.99555082,69.8529 C0.616550823,78.6919 -1.24144918,87.9309 0.777550823,100.7379 C1.02655082,102.3159 2.05155082,103.6329 3.51955082,104.2629 C4.09955082,104.5119 4.65055082,104.6059 5.16255082,104.6059 C6.15755082,104.6059 7.01955082,104.2499 7.71955082,103.9559 L28.4155508,93.7169 L27.2555508,91.9569 Z" id="Fill-6" fill="#5495CF"></path>
                <path d="M36.5192508,0.033 C36.5192508,0.033 36.4632508,0 36.3942508,0 C36.3252508,0 36.2682508,0.033 36.2682508,0.033 C33.5652508,1.543 7.11725082,17.414 11.2852508,58.447 C14.0102508,82.997 26.3452508,98.526 27.8922508,100.389 L28.0522508,100.579 L44.7352508,100.579 L44.8962508,100.389 C46.4422508,98.526 58.7772508,82.997 61.5022508,58.447 C65.6712508,17.414 39.2232508,1.543 36.5192508,0.033" id="Fill-8" fill="#2167AE"></path>
                <path d="M36.3043508,31.3061 C30.6303508,31.3061 26.0153508,35.9221 26.0153508,41.5951 C26.0153508,47.2691 30.6303508,51.8841 36.3043508,51.8841 C41.9783508,51.8841 46.5933508,47.2691 46.5933508,41.5951 C46.5933508,35.9221 41.9783508,31.3061 36.3043508,31.3061" id="Fill-10" fill="#DAD2BD"></path>
            </g>
        </g>
    </g>
</svg>