<?xml version="1.0" encoding="UTF-8"?>
<svg width="140px" height="140px" viewBox="0 0 140 140" version="1.1" xmlns="http://www.w3.org/2000/svg" xmlns:xlink="http://www.w3.org/1999/xlink">
    <title>pictogram/communication/search</title>
    <g id="pictogram/communication/search" stroke="none" stroke-width="1" fill="none" fill-rule="evenodd">
        <g id="search" transform="translate(-0.000100, 0.000000)">
            <path d="M140,70 C140,108.66 108.66,140 70,140 C31.34,140 0,108.66 0,70 C0,31.34 31.34,0 70,0 C108.66,0 140,31.34 140,70" id="circle" fill="#91BFE3"></path>
            <g id="picto" transform="translate(29.364200, 26.412200)">
                <path d="M80.2412,79.3931 L62.3142,57.6811 C60.8362,55.8921 58.2672,55.5161 56.3392,56.8081 L55.7232,57.2201 C55.5982,57.3041 55.4782,57.3941 55.3642,57.4891 C54.4372,58.2541 53.8632,59.3341 53.7492,60.5311 C53.6352,61.7271 53.9932,62.8971 54.7592,63.8241 L72.6862,85.5361 C73.5732,86.6111 74.8542,87.1751 76.1532,87.1751 C77.0172,87.1751 77.8902,86.9251 78.6602,86.4091 L79.2752,85.9971 C79.4002,85.9141 79.5202,85.8241 79.6362,85.7281 C80.5632,84.9631 81.1372,83.8831 81.2512,82.6861 C81.3652,81.4901 81.0072,80.3201 80.2412,79.3931" id="Fill-4" fill="#2167AE"></path>
                <path d="M36,9 C21.112,9 9,21.112 9,36 C9,50.888 21.112,63 36,63 C50.888,63 63,50.888 63,36 C63,21.112 50.888,9 36,9 M36,72 C16.15,72 0,55.85 0,36 C0,16.149 16.15,-1.42108547e-14 36,-1.42108547e-14 C55.85,-1.42108547e-14 72,16.149 72,36 C72,55.85 55.85,72 36,72" id="Fill-6" fill="#2167AE"></path>
                <path d="M36,9.0001 C21.112,9.0001 9,21.1121 9,35.9991 C9,50.8881 21.112,62.9991 36,62.9991 C50.888,62.9991 63,50.8881 63,35.9991 C63,21.1121 50.888,9.0001 36,9.0001" id="Fill-8" fill="#DAD2BD"></path>
            </g>
        </g>
    </g>
</svg>