<?xml version="1.0" encoding="UTF-8"?>
<svg width="140px" height="140px" viewBox="0 0 140 140" version="1.1" xmlns="http://www.w3.org/2000/svg" xmlns:xlink="http://www.w3.org/1999/xlink">
    <title>pictogram/mobility/ship</title>
    <defs>
        <path d="M70,0 C31.34,0 0,31.34 0,70 L0,70 C0,84.802 4.607,98.524 12.448,109.831 L12.448,109.831 C25.086,128.056 46.143,140 70,140 L70,140 C93.857,140 114.915,128.056 127.552,109.831 L127.552,109.831 C135.393,98.524 139.999,84.802 139.999,70 L139.999,70" id="path-1"></path>
    </defs>
    <g id="pictogram/mobility/ship" stroke="none" stroke-width="1" fill="none" fill-rule="evenodd">
        <g id="ship" transform="translate(-0.000200, 0.000000)">
            <path d="M70,0 C31.34,0 0,31.34 0,70 C0,84.803 4.607,98.523 12.448,109.832 C25.086,128.056 46.144,140 70,140 C93.857,140 114.915,128.056 127.552,109.832 C135.394,98.523 140,84.803 140,70 C140,31.34 108.66,0 70,0" id="circle" fill="#91BFE3"></path>
            <g id="picto" transform="translate(0.000200, 0.000000)">
                <g id="Group-20" transform="translate(24.866900, 26.734300)">
                    <path d="M62.4317,0 L27.8347,0 C26.7927,0 25.9487,0.844 25.9487,1.886 L25.9487,9.737 C25.9487,10.778 26.7927,11.623 27.8347,11.623 L62.4317,11.623 C63.4727,11.623 64.3177,10.778 64.3177,9.737 L64.3177,1.886 C64.3177,0.844 63.4727,0 62.4317,0" id="Fill-12" fill="#5495CF"></path>
                    <path d="M62.4317,8.885 L27.8347,8.885 C17.2547,8.885 8.6487,17.702 8.6487,28.541 L8.6487,41.87 C8.6487,42.911 9.4937,43.756 10.5357,43.756 C11.5767,43.756 12.4207,42.911 12.4207,41.87 L77.8447,41.87 C77.8447,42.911 78.6897,43.756 79.7317,43.756 C80.7727,43.756 81.6177,42.911 81.6177,41.87 L81.6177,28.541 C81.6177,17.702 73.0107,8.885 62.4317,8.885" id="Fill-14" fill="#DAD2BD"></path>
                    <path d="M43.255,89.8072 L45.133,89.8072 L45.133,26.6702 L45.133,26.6692 C45.13,26.6692 45.127,26.6692 45.124,26.6692 L45.133,26.6562 C44.722,26.6112 44.071,26.9392 44.071,26.9392 L43.247,27.2782 L38.431,29.2572 L38.429,29.2572 L1.17,44.5672 C0.461,44.8582 0,45.5472 0,46.3122 C0,62.5982 5.111,78.0032 14.78,90.8602 C15.137,91.3352 15.695,91.6132 16.287,91.6132 L45.133,91.6132 C44.118,91.6132 43.298,90.8112 43.255,89.8072" id="Fill-16" fill="#2167AE"></path>
                    <path d="M89.0968,44.5677 C89.0968,44.5677 46.0138,26.8657 45.8508,26.7977 C45.8038,26.7787 45.7548,26.7717 45.7068,26.7577 C45.6858,26.7507 45.6638,26.7447 45.6418,26.7387 C45.4758,26.6957 45.3048,26.6567 45.1328,26.6567 L45.1328,89.8077 L43.2548,89.8077 C43.2978,90.8107 44.1178,91.6137 45.1328,91.6137 L73.9758,91.6147 C74.5688,91.6147 75.1268,91.3367 75.4838,90.8637 C85.1558,78.0077 90.2668,62.6027 90.2668,46.3127 C90.2668,45.5477 89.8058,44.8577 89.0968,44.5677" id="Fill-18" fill="#5495CF"></path>
                </g>
                <g id="Group-23">
                    <mask id="mask-2" fill="white">
                        <use xlink:href="#path-1"></use>
                    </mask>
                    <g id="Clip-22"></g>
                    <path d="M98.3768,113.3982 C93.1918,110.7582 89.6048,105.2732 89.5858,98.9262 C89.5838,98.1222 89.1348,97.3592 88.3798,97.0842 C87.0168,96.5872 85.7378,97.5832 85.7378,98.8782 C85.7378,107.8112 78.6868,115.0802 70.0178,115.0802 C61.4818,115.0802 54.5158,108.0322 54.3018,99.2882 C54.3038,99.1922 54.3058,99.0952 54.3058,98.9992 C54.3128,98.0282 53.6428,97.1282 52.6838,96.9792 C51.4828,96.7922 50.4498,97.7142 50.4498,98.8782 C50.4498,99.0152 50.4508,99.1512 50.4538,99.2882 C50.3048,105.4092 46.8408,110.6892 41.8518,113.3112 C39.9748,114.1902 32.1008,116.9932 13.8488,113.0772 C26.9198,129.7212 47.2128,140.4262 70.0178,140.4262 C92.8228,140.4262 113.1158,129.7212 126.1878,113.0762 C108.5028,116.8712 100.5608,114.3582 98.3768,113.3982" id="Fill-21" fill="#23366F" mask="url(#mask-2)"></path>
                </g>
            </g>
        </g>
    </g>
</svg>