<?xml version="1.0" encoding="UTF-8"?>
<svg width="140px" height="140px" viewBox="0 0 140 140" version="1.1" xmlns="http://www.w3.org/2000/svg" xmlns:xlink="http://www.w3.org/1999/xlink">
    <title>pictogram/communication/sound</title>
    <g id="pictogram/communication/sound" stroke="none" stroke-width="1" fill="none" fill-rule="evenodd">
        <g id="sound">
            <path d="M140,70 C140,108.66 108.66,140 70,140 C31.34,140 0,108.66 0,70 C0,31.34 31.34,0 70,0 C108.66,0 140,31.34 140,70" id="circle" fill="#91BFE3"></path>
            <g id="picto" transform="translate(17.705600, 31.325969)">
                <path d="M7.042,22.8684314 C3.159,22.8684314 0,25.7574314 0,29.3084314 L0,48.0394314 C0,51.5904314 3.159,54.4784314 7.042,54.4784314 L17.561,54.4784314 L17.561,22.8684314 L7.042,22.8684314 Z" id="Fill-3" fill="#5495CF"></path>
                <path d="M50.5008,9.86433138 C47.6468,8.21733138 43.9958,8.51033138 40.2708,10.6623314 C40.1058,10.7503314 24.0868,19.2813314 17.5618,22.8873314 L17.5618,54.4593314 C24.0868,58.0653314 40.1058,66.5973314 40.2178,66.6573314 C42.3838,67.9073314 44.5068,68.5363314 46.4628,68.5363314 C47.9188,68.5363314 49.2828,68.1873314 50.5008,67.4843314 C53.3538,65.8373314 54.9248,62.5283314 54.9248,58.1653314 L54.9248,19.1823314 C54.9248,14.8213314 53.3538,11.5103314 50.5008,9.86433138" id="Fill-5" fill="#2167AE"></path>
                <path d="M67.2207,53.0923314 C66.4437,53.0923314 65.6887,52.6893314 65.2717,51.9693314 C64.6487,50.8933314 65.0157,49.5173314 66.0917,48.8943314 C69.7307,46.7883314 71.9907,42.8723314 71.9907,38.6743314 C71.9907,34.4753314 69.7307,30.5593314 66.0917,28.4533314 C65.0157,27.8303314 64.6487,26.4543314 65.2717,25.3783314 C65.8937,24.3033314 67.2707,23.9363314 68.3457,24.5583314 C73.3697,27.4663314 76.4907,32.8743314 76.4907,38.6743314 C76.4907,44.4733314 73.3697,49.8823314 68.3457,52.7893314 C67.9907,52.9943314 67.6027,53.0923314 67.2207,53.0923314" id="Fill-7" fill="#DAD2BD"></path>
                <path d="M74.245,65.2615314 C73.468,65.2615314 72.712,64.8585314 72.295,64.1375314 C71.673,63.0625314 72.041,61.6855314 73.116,61.0635314 C81.088,56.4515314 86.04,47.8725314 86.04,38.6735314 C86.04,29.4755314 81.088,20.8965314 73.116,16.2845314 C72.041,15.6615314 71.673,14.2855314 72.295,13.2095314 C72.918,12.1345314 74.294,11.7665314 75.37,12.3895314 C84.727,17.8025314 90.54,27.8745314 90.54,38.6735314 C90.54,49.4735314 84.727,59.5445314 75.37,64.9585314 C75.015,65.1635314 74.627,65.2615314 74.245,65.2615314" id="Fill-9" fill="#DAD2BD"></path>
                <path d="M81.4124,77.3476314 C80.6384,77.3476314 79.8854,76.9486314 79.4674,76.2316314 C78.8404,75.1586314 79.2024,73.7806314 80.2764,73.1546314 C92.4964,66.0196314 100.0884,52.8076314 100.0884,38.6736314 C100.0884,24.5406314 92.4964,11.3276314 80.2764,4.19363138 C79.2024,3.56663138 78.8404,2.18963138 79.4674,1.11563138 C80.0934,0.0426313753 81.4714,-0.319368625 82.5444,0.307631375 C96.1414,8.24563138 104.5884,22.9466314 104.5884,38.6736314 C104.5884,54.4016314 96.1414,69.1026314 82.5444,77.0406314 C82.1884,77.2486314 81.7974,77.3476314 81.4124,77.3476314" id="Fill-11" fill="#DAD2BD"></path>
            </g>
        </g>
    </g>
</svg>