<?xml version="1.0" encoding="UTF-8"?>
<svg width="140px" height="140px" viewBox="0 0 140 140" version="1.1" xmlns="http://www.w3.org/2000/svg" xmlns:xlink="http://www.w3.org/1999/xlink">
    <title>pictogram/environment/sustainability/energie</title>
    <g id="pictogram/environment/sustainability/energie" stroke="none" stroke-width="1" fill="none" fill-rule="evenodd">
        <g id="sustainability-energie">
            <path d="M140,70 C140,108.66 108.66,140 70,140 C31.34,140 0,108.66 0,70 C0,31.34 31.34,0 70,0 C108.66,0 140,31.34 140,70" id="circle" fill="#91BFE3"></path>
            <g id="picto" transform="translate(24.718800, 20.794267)">
                <path d="M83.6147,23.9484335 L68.2017,0.562433482 C67.9747,0.218433482 67.5937,0.00843348156 67.1807,0 C66.7817,-0.0105665184 66.3797,0.188433482 66.1407,0.523433482 L49.1157,24.3484335 C40.2077,38.2654335 40.4027,48.9764335 49.7297,58.0554335 C54.2397,62.4454335 60.1277,64.8264335 66.4067,64.8254338 C66.7677,64.8254338 67.1307,64.8184335 67.4937,64.8024335 L67.6567,64.7984335 C67.7547,64.7974335 67.8527,64.7954335 68.0457,64.7884335 C68.1337,64.7874335 68.2217,64.7864335 68.3097,64.7804335 C68.3927,64.7734335 68.4727,64.7594335 68.5497,64.7374335 C74.3237,64.2804335 79.7167,61.7694335 83.7607,57.6514335 C92.8787,48.3624335 92.8297,37.6504335 83.6147,23.9484335" id="Fill-3" fill="#2167AE"></path>
                <path d="M67.8066,37.1670335 L67.7976,37.1660335 C67.7146,36.2320335 66.9386,35.4970335 65.9836,35.4970335 C65.0756,35.4970335 64.3276,36.1590335 64.1826,37.0250335 L64.1776,37.0240335 C64.1776,37.0240335 63.7706,42.6200335 63.7376,42.7850335 L63.7456,42.7850335 C63.7446,42.7920335 63.7436,42.7990335 63.7436,42.8060335 L63.5186,68.7430335 C63.5186,82.6210335 52.2276,93.9120335 38.3506,93.9120335 C24.4726,93.9110335 13.1816,82.6210335 13.1816,68.7430335 L13.1816,59.5820335 C13.1816,58.3390335 12.1746,57.3320335 10.9316,57.3320335 C9.6896,57.3320335 8.6816,58.3390335 8.6816,59.5820335 L8.6816,68.7430335 C8.6816,85.1020335 21.9916,98.4110335 38.3506,98.4120335 C54.7096,98.4120335 68.0186,85.1030335 68.0186,68.7630335 L68.2426,42.9170335 C68.2456,42.9170335 68.2556,42.9180335 68.2576,42.9190335 C68.3896,42.9840335 67.8066,37.1670335 67.8066,37.1670335" id="Fill-5" fill="#DAD2BD"></path>
                <path d="M4.7328,40.8471335 C4.0428,40.8471335 3.4828,40.2871335 3.4828,39.5971335 L3.4828,29.2341335 C3.4828,28.5431335 4.0428,27.9841335 4.7328,27.9841335 C5.4228,27.9841335 5.9828,28.5431335 5.9828,29.2341335 L5.9828,39.5971335 C5.9828,40.2871335 5.4228,40.8471335 4.7328,40.8471335" id="Fill-9" fill="#5495CF"></path>
                <path d="M18.6611,40.8471335 C17.9711,40.8471335 17.4111,40.2871335 17.4111,39.5971335 L17.4111,29.2341335 C17.4111,28.5431335 17.9711,27.9841335 18.6611,27.9841335 C19.3511,27.9841335 19.9111,28.5431335 19.9111,29.2341335 L19.9111,39.5971335 C19.9111,40.2871335 19.3511,40.8471335 18.6611,40.8471335" id="Fill-13" fill="#5495CF"></path>
                <path d="M22.143,38.3888335 L1.25,38.3888335 C0.56,38.3888335 0,38.9488335 0,39.6388335 L0,52.5688335 C0,57.6488335 4.133,61.7818335 9.213,61.7818335 L14.18,61.7818335 C19.26,61.7818335 23.393,57.6488335 23.393,52.5688335 L23.393,39.6388335 C23.393,38.9488335 22.833,38.3888335 22.143,38.3888335" id="Fill-15" fill="#2167AE"></path>
            </g>
        </g>
    </g>
</svg>