<?xml version="1.0" encoding="UTF-8"?>
<svg width="140px" height="140px" viewBox="0 0 140 140" version="1.1" xmlns="http://www.w3.org/2000/svg" xmlns:xlink="http://www.w3.org/1999/xlink">
    <title>pictogram/environment/sustainability/plant</title>
    <g id="pictogram/environment/sustainability/plant" stroke="none" stroke-width="1" fill="none" fill-rule="evenodd">
        <g id="sustainability-plant" transform="translate(0.000000, -0.000400)">
            <path d="M140,70 C140,108.66 108.66,140 70,140 C31.34,140 0,108.66 0,70 C0,31.34 31.34,0 70,0 C108.66,0 140,31.34 140,70" id="circle" fill="#91BFE3"></path>
            <g id="picto" transform="translate(0.000500, 0.004400)">
                <g id="Group-14" transform="translate(34.124400, 48.656896)">
                    <path d="M32.7877,1.05940447 L32.7727,1.07040447 C32.5797,0.790404474 32.2717,0.594404474 31.9067,0.594404474 C31.3157,0.594404474 30.8357,1.07440447 30.8357,1.66440447 C30.8357,1.91940447 30.9377,2.14340447 31.0857,2.32740447 L31.0777,2.33340447 C31.0777,2.33340447 33.0997,4.77440447 34.8627,9.78640447 C38.5317,20.2194045 35.9597,42.5184045 35.9597,42.5184045 L40.3657,42.5184045 L40.5927,39.1784045 C42.5017,12.9074045 32.7877,1.05940447 32.7877,1.05940447" id="Fill-4" fill="#5495CF"></path>
                    <path d="M48.6075,0.523804474 C48.3675,0.190804474 47.9845,-0.0321955261 47.5655,0.00380447392 L42.0065,0.127804474 C38.4425,0.386804474 36.4435,1.99280447 36.0655,4.89980447 C35.8705,6.39980447 36.3105,7.93480447 37.3125,9.16080447 C37.3305,9.18380447 37.3705,9.23280447 37.3895,9.25580447 C37.4145,9.28380447 37.4405,9.31080447 37.4665,9.33680447 C38.3455,10.3118045 39.5355,10.9418045 40.8325,11.1168045 C41.1315,11.1568045 41.4205,11.1768045 41.7025,11.1768045 C44.1525,11.1768045 45.9285,9.64980447 46.9835,6.63480447 L48.7695,1.67780447 C48.9085,1.28980447 48.8485,0.857804474 48.6075,0.523804474" id="Fill-6" fill="#ECEEEF"></path>
                    <path d="M35.2413,11.0477045 C35.2273,11.0077045 35.2113,10.9687045 35.1943,10.9317045 C34.7353,9.70470447 33.8593,8.68270447 32.7173,8.04570447 C30.1583,6.61770447 27.6783,7.26470447 25.3513,9.96070447 L21.8733,13.9187045 C21.6013,14.2277045 21.4993,14.6517045 21.6003,15.0507045 C21.7013,15.4497045 21.9923,15.7737045 22.3793,15.9167045 L27.5963,17.8397045 C28.5923,18.1507045 29.5063,18.3057045 30.3363,18.3057045 C32.3483,18.3057045 33.8683,17.3937045 34.8733,15.5777045 C35.6043,14.2547045 35.7583,12.6647045 35.2773,11.1657045 C35.2693,11.1357045 35.2513,11.0767045 35.2413,11.0477045" id="Fill-8" fill="#ECEEEF"></path>
                    <path d="M63.1397,35.2133045 C66.9837,33.1783045 71.7467,34.5053045 73.9857,38.2353045 C76.3457,42.1693045 75.0117,47.2743045 71.0287,49.5503045 L33.8667,70.7853045 L20.2627,58.0293045 L63.1397,35.2133045 Z" id="Fill-10" fill="#2167AE"></path>
                    <path d="M66.378,55.7733045 C38.426,56.2553045 -7.10542736e-15,55.3113045 -7.10542736e-15,55.3113045 L-7.10542736e-15,51.0513045 C-7.10542736e-15,51.0513045 7.636,42.1653045 14.515,42.6243045 C21.394,43.0823045 31.941,37.2733045 42.642,39.2603045 C53.343,41.2483045 57.206,45.2853045 66.378,44.9483045 L66.378,55.7733045 Z" id="Fill-12" fill="#DAD2BD"></path>
                </g>
                <g id="Group-17" fill="#5495CF">
                    <path d="M75.1919,120.6402 L106.6899,102.6402 C104.8129,99.3342 105.9229,95.1202 109.2099,93.1772 C112.0849,91.4762 115.6799,92.0732 117.8699,94.4172 C118.9079,92.0692 118.8319,89.2672 117.4069,86.8922 C115.1689,83.1622 110.4049,81.8352 106.5609,83.8702 L68.5709,103.9822 C67.2079,104.7042 65.6049,104.8252 64.1489,104.3152 L45.6079,97.8262 L58.1079,97.1882 C62.7419,96.9512 66.3789,93.1242 66.3789,88.4832 L66.3789,88.4832 C66.3789,83.8352 62.7319,80.0052 58.0889,79.7772 L-0.1761,77.4942 C1.0399,88.8192 4.9369,99.3372 10.8589,108.4172 L51.2159,122.6372 C59.1099,125.5452 67.8869,124.8142 75.1919,120.6402" id="Fill-15"></path>
                </g>
                <g id="Group-22" transform="translate(52.567300, 82.950600)" fill="#2167AE">
                    <path d="M56.6421,10.2262 C59.5171,8.5262 63.1131,9.1222 65.3021,11.4672 C64.6211,13.0082 63.4601,14.3542 61.8831,15.2562 L54.1231,19.6902 C52.2451,16.3832 53.3551,12.1692 56.6421,10.2262" id="Fill-18"></path>
                    <path d="M0,5.524 C0,2.473 2.473,0 5.524,0 C8.575,0 11.048,2.473 11.048,5.524 C11.048,8.575 8.575,11.048 5.524,11.048 C2.473,11.048 0,8.575 0,5.524" id="Fill-20"></path>
                </g>
            </g>
        </g>
    </g>
</svg>