<?xml version="1.0" encoding="UTF-8"?>
<svg width="140px" height="140px" viewBox="0 0 140 140" version="1.1" xmlns="http://www.w3.org/2000/svg" xmlns:xlink="http://www.w3.org/1999/xlink">
    <title>pictogram/health/teeth</title>
    <g id="pictogram/health/teeth" stroke="none" stroke-width="1" fill="none" fill-rule="evenodd">
        <g id="teeth">
            <path d="M140,70 C140,108.66 108.659,140 70,140 C31.34,140 0,108.66 0,70 C0,31.34 31.34,0 70,0 C108.659,0 140,31.34 140,70" id="circle" fill="#91BFE3"></path>
            <g id="picto" transform="translate(38.330000, 35.909900)" fill="#ECEEEF">
                <path d="M61.589,20.14 C61.605,20.084 61.629,20.013 61.644,19.96 C61.647,19.947 61.642,19.936 61.645,19.924 C62.047,18.541 62.274,17.082 62.274,15.568 C62.274,6.97 55.304,0 46.705,0 C44.793,0 42.969,0.362 41.277,0.992 L41.279,0.924 C31.103,4.974 20.85,0.924 20.85,0.924 L20.85,0.938 C19.198,0.342 17.426,0 15.568,0 C6.971,0 0,6.97 0,15.568 C0,17.082 0.227,18.541 0.63,19.924 C0.633,19.936 0.627,19.947 0.631,19.96 C0.645,20.013 0.67,20.084 0.686,20.14 C0.695,20.174 0.705,20.207 0.716,20.24 C2.026,24.763 8.485,37.681 8.861,38.12 C8.861,38.12 7.817,50.655 10.588,74.952 L10.602,74.952 C10.742,77.258 12.638,79.091 14.98,79.091 C17.321,79.091 19.218,77.258 19.358,74.952 L19.376,74.952 C19.376,74.952 20.866,46.385 31.137,46.385 C41.407,46.385 42.898,74.952 42.898,74.952 L42.916,74.952 C43.056,77.258 44.952,79.091 47.294,79.091 C49.636,79.091 51.532,77.258 51.672,74.952 L51.687,74.952 C54.457,50.655 53.413,38.12 53.413,38.12 C53.789,37.681 60.248,24.763 61.559,20.24 C61.569,20.207 61.578,20.174 61.589,20.14"></path>
            </g>
        </g>
    </g>
</svg>