<?xml version="1.0" encoding="UTF-8"?>
<svg width="140px" height="140px" viewBox="0 0 140 140" version="1.1" xmlns="http://www.w3.org/2000/svg" xmlns:xlink="http://www.w3.org/1999/xlink">
    <title>pictogram/environment/trees/dark</title>
    <defs>
        <path d="M70,0 C31.34,0 0,31.341 0,70 L0,70 C0,108.661 31.34,140.001 70,140.001 L70,140.001 C108.66,140.001 140,108.661 140,70 L140,70 C140,31.341 108.66,0 70,0 Z" id="path-1"></path>
    </defs>
    <g id="pictogram/environment/trees/dark" stroke="none" stroke-width="1" fill="none" fill-rule="evenodd">
        <g id="trees-dark">
            <path d="M140,70.0006 C140,108.6606 108.66,140.0006 70,140.0006 C31.34,140.0006 0,108.6606 0,70.0006 C0,31.3406 31.34,0.0006 70,0.0006 C108.66,0.0006 140,31.3406 140,70.0006" id="circle" fill="#91BFE3"></path>
            <g id="picto">
                <g id="Group-6">
                    <mask id="mask-2" fill="white">
                        <use xlink:href="#path-1"></use>
                    </mask>
                    <g id="Clip-5"></g>
                    <path d="M52.1699,86.7524 C49.2869,89.6904 45.7479,93.9444 43.8319,100.1634 L43.8319,88.5514 L37.7299,88.5514 L37.7299,100.2064 C37.2009,98.4794 36.5229,96.8144 35.6949,95.2174 C33.6809,91.3344 31.1329,88.5264 29.3919,86.7524 L25.0369,91.0264 C28.4579,94.5124 32.3409,99.4974 32.9389,107.6074 L32.9389,130.5664 C37.7939,133.6504 43.0539,136.1514 48.6239,137.9754 L48.6239,133.3264 L48.6239,115.6624 L48.6239,107.6074 C49.2209,99.4974 53.1049,94.5124 56.5249,91.0264 L52.1699,86.7524 Z" id="Fill-4" fill="#2167AE" mask="url(#mask-2)"></path>
                    <path d="M106.9692,97.3202 C104.0862,100.2582 100.5472,104.5122 98.6312,110.7312 L98.6312,99.1192 L92.5292,99.1192 L92.5292,110.7742 C91.9992,109.0472 91.3222,107.3822 90.4942,105.7852 C88.4802,101.9022 85.9322,99.0942 84.1912,97.3202 L79.8362,101.5942 C83.2572,105.0802 87.1402,110.0652 87.7382,118.1752 L87.7382,140.5382 C93.2612,139.0952 98.5192,137.0002 103.4222,134.3302 L103.4222,126.2302 L103.4222,118.1752 C104.0202,110.0652 107.9042,105.0802 111.3242,101.5942 L106.9692,97.3202 Z" id="Fill-7" fill="#2167AE" mask="url(#mask-2)"></path>
                </g>
                <path d="M134.6352,65.9828 C134.6352,63.4308 133.2862,61.1948 131.2622,59.9478 C130.5542,59.5108 130.3682,58.5778 130.8562,57.9038 C132.2482,55.9768 132.6382,53.3948 131.6622,51.0368 C130.6862,48.6798 128.5832,47.1298 126.2372,46.7518 C125.4292,46.6218 124.8772,45.8498 125.0702,45.0548 C125.6342,42.7328 125.0102,40.1808 123.1962,38.3668 C121.3832,36.5528 118.8302,35.9288 116.5082,36.4928 C115.7132,36.6858 114.9412,36.1338 114.8112,35.3268 C114.4332,32.9798 112.8832,30.8768 110.5262,29.9008 C108.1682,28.9238 105.5862,29.3148 103.6592,30.7068 C102.9852,31.1948 102.0522,31.0088 101.6152,30.3008 C100.3682,28.2768 98.1322,26.9278 95.5802,26.9278 C93.0292,26.9278 90.7922,28.2768 89.5452,30.3008 C89.1082,31.0088 88.1762,31.1948 87.5012,30.7068 C85.5742,29.3148 82.9922,28.9238 80.6342,29.9008 C78.2772,30.8768 76.7272,32.9798 76.3492,35.3268 C76.2192,36.1338 75.4472,36.6858 74.6522,36.4928 C72.3302,35.9288 69.7782,36.5528 67.9642,38.3668 C66.1502,40.1808 65.5262,42.7328 66.0902,45.0548 C66.2832,45.8498 65.7312,46.6218 64.9242,46.7518 C62.5762,47.1298 60.4742,48.6798 59.4982,51.0368 C58.5212,53.3948 58.9122,55.9768 60.3042,57.9038 C60.7922,58.5778 60.6062,59.5108 59.8982,59.9478 C57.8742,61.1948 56.5252,63.4308 56.5252,65.9828 C56.5252,68.5348 57.8742,70.7708 59.8982,72.0178 C60.6062,72.4548 60.7922,73.3878 60.3042,74.0618 C58.9122,75.9888 58.5212,78.5708 59.4982,80.9288 C60.4742,83.2858 62.5762,84.8358 64.9242,85.2138 C65.7312,85.3438 66.2832,86.1158 66.0902,86.9108 C65.5262,89.2328 66.1502,91.7848 67.9642,93.5988 C69.7782,95.4118 72.3302,96.0368 74.6522,95.4728 C75.4472,95.2798 76.2192,95.8318 76.3492,96.6388 C76.7272,98.9858 78.2772,101.0888 80.6342,102.0648 C82.9922,103.0408 85.5742,102.6508 87.5012,101.2588 C88.1762,100.7708 89.1082,100.9568 89.5452,101.6648 C90.7922,103.6888 93.0292,105.0378 95.5802,105.0378 C98.1322,105.0378 100.3682,103.6888 101.6152,101.6648 C102.0522,100.9568 102.9852,100.7708 103.6592,101.2588 C105.5862,102.6508 108.1682,103.0408 110.5262,102.0648 C112.8832,101.0888 114.4332,98.9858 114.8112,96.6388 C114.9412,95.8318 115.7132,95.2798 116.5082,95.4728 C118.8302,96.0368 121.3832,95.4118 123.1962,93.5988 C125.0102,91.7848 125.6342,89.2328 125.0702,86.9108 C124.8772,86.1158 125.4292,85.3438 126.2372,85.2138 C128.5832,84.8358 130.6862,83.2858 131.6622,80.9288 C132.6382,78.5708 132.2482,75.9888 130.8562,74.0618 C130.3682,73.3878 130.5542,72.4548 131.2622,72.0178 C133.2862,70.7708 134.6352,68.5348 134.6352,65.9828" id="Fill-11" fill="#23366F"></path>
                <path d="M58.1382,51.0374 L57.9092,48.4624 C57.9092,38.9094 50.1652,31.1654 40.6122,31.1654 C31.0592,31.1654 23.3152,38.9094 23.3152,48.4624 L23.0862,51.0374 C22.3932,58.8444 18.3492,56.3784 11.8792,60.8014 C7.3072,63.9274 4.3122,69.1904 4.33210044,75.1524 C4.3662,84.7114 12.2582,92.3884 21.8172,92.3884 L59.4072,92.3884 C68.9672,92.3884 76.8592,84.7114 76.8922996,75.1524 C76.9122,69.1904 73.9172,63.9274 69.3462,60.8014 C62.8752,56.3784 58.8312,58.8444 58.1382,51.0374" id="Fill-13" fill="#5495CF"></path>
            </g>
        </g>
    </g>
</svg>