<?xml version="1.0" encoding="UTF-8"?>
<svg width="140px" height="140px" viewBox="0 0 140 140" version="1.1" xmlns="http://www.w3.org/2000/svg" xmlns:xlink="http://www.w3.org/1999/xlink">
    <title>pictogram/mobility/truck/plain</title>
    <g id="pictogram/mobility/truck/plain" stroke="none" stroke-width="1" fill="none" fill-rule="evenodd">
        <g id="truck" transform="translate(-0.000200, 0.000000)">
            <path d="M140,70 C140,108.66 108.66,140 70,140 C31.34,140 0,108.66 0,70 C0,31.34 31.34,0 70,0 C108.66,0 140,31.34 140,70" id="circle" fill="#91BFE3"></path>
            <g id="picto" transform="translate(26.272900, 24.245300)">
                <path d="M21.6266,72.7769 C20.9366,72.7769 20.3766,73.3369 20.3766,74.0269 L8.4956,74.0269 C8.4956,73.3369 7.9366,72.7769 7.2456,72.7769 C6.5556,72.7769 5.9956,73.3369 5.9956,74.0269 L5.9956,82.2159 C5.9956,87.2959 9.7366,91.4279 14.3356,91.4279 L14.5366,91.4279 C19.1356,91.4279 22.8766,87.2959 22.8766,82.2159 L22.8766,74.0269 C22.8766,73.3369 22.3166,72.7769 21.6266,72.7769" id="Fill-4" fill="#2167AE"></path>
                <path d="M80.2184,72.7769 C79.5284,72.7769 78.9684,73.3369 78.9684,74.0269 L67.0874,74.0269 C67.0874,73.3369 66.5284,72.7769 65.8374,72.7769 C65.1474,72.7769 64.5874,73.3369 64.5874,74.0269 L64.5874,82.2159 C64.5874,87.2959 68.3284,91.4279 72.9284,91.4279 L73.1294,91.4279 C77.7274,91.4279 81.4684,87.2959 81.4684,82.2159 L81.4684,74.0269 C81.4684,73.3369 80.9084,72.7769 80.2184,72.7769" id="Fill-6" fill="#2167AE"></path>
                <path d="M69.358,33.962 C69.358,35.645 67.994,37.009 66.311,37.009 L21.199,37.009 C19.515,37.009 18.151,35.645 18.151,33.962 L18.151,15.036 C18.151,13.353 19.515,11.988 21.199,11.988 L65.591,11.988 C67.671,11.988 69.358,13.675 69.358,15.755 L69.358,33.962 Z M86.206,34.044 L81.468,34.044 L81.468,14.343 C81.468,6.434 75.452,0 68.056,0 L19.407,0 C12.012,0 5.996,6.434 5.996,14.343 L5.996,34.044 L1.25,34.044 C0.559,34.044 7.10542736e-15,34.603 7.10542736e-15,35.294 C7.10542736e-15,35.984 0.559,36.544 1.25,36.544 L5.996,36.544 L5.996,54.965 C5.996,55.655 6.555,56.215 7.246,56.215 L80.218,56.215 C80.909,56.215 81.468,55.655 81.468,54.965 L81.468,36.544 L86.206,36.544 C86.896,36.544 87.456,35.984 87.456,35.294 C87.456,34.603 86.896,34.044 86.206,34.044 L86.206,34.044 Z" id="Fill-8" fill="#2167AE"></path>
                <path d="M7.0523,52.4083 L80.4163,52.4083 C83.6143,52.4083 86.2043,55.0003 86.2043,58.1973 L86.2043,80.6153 C86.2043,81.2543 85.6873,81.7733 85.0473,81.7733 L2.4213,81.7733 C1.7813,81.7733 1.2633,81.2543 1.2633,80.6153 L1.2633,58.1973 C1.2633,55.0003 3.8553,52.4083 7.0523,52.4083" id="Fill-10" fill="#5495CF"></path>
                <path d="M14.4352,60.1544 C10.6502,60.1544 7.5712,63.2664 7.5712,67.0904 C7.5712,70.9154 10.6502,74.0264 14.4352,74.0264 C18.2202,74.0264 21.2992,70.9154 21.2992,67.0904 C21.2992,63.2664 18.2202,60.1544 14.4352,60.1544" id="Fill-12" fill="#DAD2BD"></path>
                <path d="M73.027,60.1544 C69.243,60.1544 66.164,63.2664 66.164,67.0904 C66.164,70.9154 69.243,74.0264 73.027,74.0264 C76.813,74.0264 79.892,70.9154 79.892,67.0904 C79.892,63.2664 76.813,60.1544 73.027,60.1544" id="Fill-14" fill="#DAD2BD"></path>
                <path d="M53.5367,64.4326 L33.9967,64.4326 C33.3067,64.4326 32.7467,63.8726 32.7467,63.1826 C32.7467,62.4926 33.3067,61.9326 33.9967,61.9326 L53.5367,61.9326 C54.2267,61.9326 54.7867,62.4926 54.7867,63.1826 C54.7867,63.8726 54.2267,64.4326 53.5367,64.4326" id="Fill-16" fill="#91BFE3"></path>
                <path d="M53.5367,72.2487 L33.9967,72.2487 C33.3067,72.2487 32.7467,71.6887 32.7467,70.9987 C32.7467,70.3087 33.3067,69.7487 33.9967,69.7487 L53.5367,69.7487 C54.2267,69.7487 54.7867,70.3087 54.7867,70.9987 C54.7867,71.6887 54.2267,72.2487 53.5367,72.2487" id="Fill-18" fill="#91BFE3"></path>
            </g>
        </g>
    </g>
</svg>