<?xml version="1.0" encoding="UTF-8"?>
<svg width="140px" height="140px" viewBox="0 0 140 140" version="1.1" xmlns="http://www.w3.org/2000/svg" xmlns:xlink="http://www.w3.org/1999/xlink">
    <title>pictogram/environment/warming/globe/thermometer</title>
    <defs>
        <path d="M7.10542736e-15,45.77 C7.10542736e-15,71.047 20.491,91.539 45.769,91.539 L45.769,91.539 C71.047,91.539 91.539,71.047 91.539,45.77 L91.539,45.77 C91.539,20.492 71.047,-1.42108547e-14 45.769,-1.42108547e-14 L45.769,-1.42108547e-14 C20.491,-1.42108547e-14 7.10542736e-15,20.492 7.10542736e-15,45.77 L7.10542736e-15,45.77 Z" id="path-1"></path>
        <polygon id="path-3" points="-3.55271368e-15 0 36.3896764 0 36.3896764 90.9748172 -3.55271368e-15 90.9748172"></polygon>
    </defs>
    <g id="pictogram/environment/warming/globe/thermometer" stroke="none" stroke-width="1" fill="none" fill-rule="evenodd">
        <g id="warming-globe-thermometer">
            <path d="M140,70 C140,108.66 108.66,140 70,140 C31.34,140 0,108.66 0,70 C0,31.34 31.34,0 70,0 C108.66,0 140,31.34 140,70" id="circle" fill="#91BFE3"></path>
            <g id="picto" transform="translate(24.230500, 24.098700)">
                <path d="M91.539,45.9172 C91.539,20.6392 71.047,0.1472 45.769,0.1472 C20.492,0.1472 0,20.6392 0,45.9172 C0,71.1952 20.492,91.6872 45.769,91.6872 C71.047,91.6872 91.539,71.1952 91.539,45.9172" id="Fill-3" fill="#2167AE"></path>
                <g id="Group-14" transform="translate(13.046500, 0.000000)" fill="#5495CF">
                    <path d="M32.723,2.5 C28.978,2.5 23.755,19.011 23.755,45.901 C23.755,72.791 28.978,89.303 32.723,89.303 C36.468,89.303 41.691,72.791 41.691,45.901 C41.691,19.011 36.468,2.5 32.723,2.5 M32.723,91.803 C25.194,91.803 21.255,68.711 21.255,45.901 C21.255,23.091 25.194,0 32.723,0 C40.252,0 44.191,23.091 44.191,45.901 C44.191,68.711 40.252,91.803 32.723,91.803" id="Fill-10"></path>
                    <path d="M32.723,2.5 C16.058,2.5 2.5,21.97 2.5,45.901 C2.5,69.833 16.058,89.303 32.723,89.303 C49.388,89.303 62.946,69.833 62.946,45.901 C62.946,21.97 49.388,2.5 32.723,2.5 M32.723,91.803 C14.68,91.803 0,71.211 0,45.901 C0,20.591 14.68,0 32.723,0 C50.766,0 65.446,20.591 65.446,45.901 C65.446,71.211 50.766,91.803 32.723,91.803" id="Fill-12"></path>
                </g>
                <g id="Group-20" transform="translate(0.000500, 0.147300)">
                    <mask id="mask-2" fill="white">
                        <use xlink:href="#path-1"></use>
                    </mask>
                    <g id="Clip-16"></g>
                    <polygon id="Fill-15" fill="#5495CF" mask="url(#mask-2)" points="4.858 24.135 86.734 24.135 86.734 21.635 4.858 21.635"></polygon>
                    <polygon id="Fill-17" fill="#5495CF" mask="url(#mask-2)" points="4.939 69.904 86.465 69.904 86.465 67.404 4.939 67.404"></polygon>
                    <polygon id="Fill-18" fill="#5495CF" mask="url(#mask-2)" points="-0.727 47.083 14.448 47.083 14.448 44.583 -0.727 44.583"></polygon>
                    <polygon id="Fill-19" fill="#5495CF" mask="url(#mask-2)" points="14.449 47.083 93.075 47.083 93.075 44.583 14.449 44.583"></polygon>
                </g>
                <g id="Group-28" transform="translate(0.385924, 0.153483)">
                    <g id="Group-23" transform="translate(-0.000000, 0.000000)">
                        <mask id="mask-4" fill="white">
                            <use xlink:href="#path-3"></use>
                        </mask>
                        <g id="Clip-22"></g>
                        <path d="M29.5666764,57.6190172 L29.5666764,11.5970172 C29.5666764,5.22001718 24.3476764,-0.118982817 17.9726764,0.00201718322 C11.7946764,0.120017183 6.82267636,5.16601718 6.82267636,11.3720172 L6.82267636,57.6190172 C6.82267636,58.2150172 6.56467636,58.7800172 6.11867636,59.1760172 C2.15967636,62.6920172 -0.256323639,67.9060172 0.0216763614,73.6790172 C0.480676361,83.2080172 8.39367636,90.8390172 17.9326764,90.9730172 C28.1016764,91.1160172 36.3896764,82.9160172 36.3896764,72.7800172 C36.3896764,67.3670172 34.0236764,62.5100172 30.2726764,59.1770172 C29.8256764,58.7810172 29.5666764,58.2160172 29.5666764,57.6190172" id="Fill-21" fill="#5495CF" mask="url(#mask-4)"></path>
                    </g>
                    <path d="M22.7746764,63.6808172 L22.7646764,27.2928172 L13.6286764,27.2928172 L13.6286764,63.6968172 C13.6286764,64.2568172 13.3386764,64.7688172 12.8786764,65.0868172 C10.3996764,66.8028172 8.78967636,69.6838172 8.84367636,72.9388172 C8.92367636,77.7688172 12.7746764,81.8138172 17.5956764,82.1138172 C23.0316764,82.4518172 27.5466764,78.1428172 27.5466764,72.7798172 C27.5466764,69.5818172 25.9406764,66.7608172 23.4916764,65.0748172 C23.0356764,64.7608172 22.7746764,64.2338172 22.7746764,63.6808172" id="Fill-24" fill="#DAD2BD"></path>
                    <path d="M22.7609764,11.3808172 C22.7609764,8.85881718 20.7169764,6.81481718 18.1949764,6.81481718 C15.6729764,6.81481718 13.6279764,8.85881718 13.6279764,11.3808172 L13.6279764,27.2928172 L22.7649764,27.2928172 L22.7609764,11.3808172 Z" id="Fill-26" fill="#91BFE3"></path>
                </g>
            </g>
        </g>
    </g>
</svg>