<?xml version="1.0" encoding="UTF-8"?>
<svg width="140px" height="140px" viewBox="0 0 140 140" version="1.1" xmlns="http://www.w3.org/2000/svg" xmlns:xlink="http://www.w3.org/1999/xlink">
    <title>pictogram/environment/weather/windstorm</title>
    <g id="pictogram/environment/weather/windstorm" stroke="none" stroke-width="1" fill="none" fill-rule="evenodd">
        <g id="windstorm">
            <path d="M140,70 C140,108.66 108.66,140 70,140 C31.34,140 0,108.66 0,70 C0,31.34 31.34,0 70,0 C108.66,0 140,31.34 140,70" id="circle" fill="#91BFE3"></path>
            <g id="picto" transform="translate(6.356400, 21.486054)">
                <path d="M90.4356,81.014646 L90.4406,81.021646 L93.1746,74.681646 L96.2306,67.598646 L106.5156,50.502646 L103.7106,50.502646 L93.5476,66.325646 C93.0276,67.134646 91.7786,66.548646 92.0676,65.631646 L95.2316,55.594646 L89.3016,55.594646 L85.6206,67.166646 C85.3576,67.992646 84.1686,67.928646 83.9956,67.079646 L78.7946,41.620646 L72.1366,41.620646 L76.6206,64.063646 C76.6966,64.463646 76.1376,64.639646 75.9706,64.268646 L72.0756,55.594646 L66.0686,55.594646 L73.6306,72.639646 C74.8166,75.312646 75.8806,79.184646 75.2306,81.095646 L63.1236,118.473646 C63.3876,118.489646 63.6526,118.497646 63.9166,118.510646 C68.9226,118.490646 73.8006,117.938646 78.5066,116.920646 L90.1376,82.056646 C90.2486,81.726646 90.3436,81.372646 90.4356,81.014646" id="Fill-3" fill="#DAD2BD"></path>
                <path d="M111.3511,20.204646 C111.7261,18.785646 111.9131,17.289646 111.8811,15.745646 C111.7061,7.21764599 104.7931,0.247645992 96.2671,0.00664599178 C92.9221,-0.0873540082 89.7991,0.839645992 87.1871,2.49964599 C85.6411,3.48264599 83.6841,3.48264599 82.1371,2.49964599 C79.5251,0.839645992 76.4011,-0.0883540082 73.0551,0.00664599178 C64.5061,0.249645992 57.5861,7.25564599 57.4421,15.806646 C57.4151,17.395646 57.6191,18.932646 58.0221,20.386646 C58.5221,22.191646 57.6141,24.073646 55.9131,24.857646 C50.2501,27.467646 46.3621,33.272646 46.5611,39.961646 C46.8121,48.428646 53.7051,55.309646 62.1721,55.548646 C65.7161,55.648646 81.5331,55.554646 84.9151,55.554646 C88.2981,55.554646 103.8481,55.561646 107.2271,55.554646 C115.9201,55.537646 123.0961,48.499646 123.2741,39.808646 C123.4121,33.041646 119.3701,27.202646 113.5541,24.695646 C111.8071,23.942646 110.8641,22.043646 111.3511,20.204646" id="Fill-5" fill="#2167AE"></path>
                <path d="M6.5025,39.198346 C5.8125,39.198346 5.2525,38.638346 5.2525,37.948346 C5.2525,37.258346 5.8125,36.698346 6.5025,36.698346 L34.5225,36.698346 C34.8745,36.665346 38.7975,36.215346 38.7975,31.831346 C38.7975,30.470346 38.4205,29.440346 37.6465,28.683346 C36.1475,27.219346 33.6295,27.258346 33.6025,27.259346 C33.5635,27.260346 33.5215,27.259346 33.4845,27.257346 C33.4665,27.256346 31.0105,27.130346 29.4885,28.613346 C28.5815,29.497346 28.1505,30.831346 28.2075,32.580346 C28.2305,33.270346 27.6885,33.847346 26.9985,33.870346 C26.3315,33.892346 25.7315,33.351346 25.7085,32.661346 C25.6275,30.169346 26.3185,28.199346 27.7635,26.804346 C29.9535,24.688346 33.0955,24.737346 33.5905,24.759346 C34.0755,24.755346 37.2425,24.808346 39.3775,26.879346 C40.6515,28.115346 41.2975,29.781346 41.2975,31.831346 C41.2975,37.278346 36.9235,39.030346 34.6115,39.195346 L6.5025,39.198346 Z" id="Fill-7" fill="#ECEEEF"></path>
                <path d="M40.8081,64.500646 C39.8791,64.500646 37.1881,64.327646 35.2451,62.450646 C33.8011,61.055646 33.1091,59.084646 33.1901,56.593646 C33.2131,55.903646 33.8251,55.359646 34.4801,55.384646 C35.1701,55.407646 35.7121,55.984646 35.6891,56.674646 C35.6321,58.423646 36.0631,59.757646 36.9711,60.641646 C38.4931,62.124646 40.9461,61.998646 40.9721,61.997646 C41.0091,61.995646 41.0521,61.994646 41.0881,61.995646 C41.1051,61.996646 43.6301,62.034646 45.1281,60.571646 C45.9031,59.814646 46.2791,58.784646 46.2791,57.423646 C46.2791,52.916646 42.0941,52.565646 41.9151,52.553646 L13.9841,52.556646 C13.2941,52.556646 12.7341,51.996646 12.7341,51.306646 C12.7341,50.616646 13.2941,50.056646 13.9841,50.056646 L42.0041,50.056646 C44.4061,50.224646 48.7791,51.976646 48.7791,57.423646 C48.7791,59.472646 48.1331,61.138646 46.8591,62.375646 C44.7241,64.445646 41.5571,64.499646 41.0721,64.495646 C41.0161,64.497646 40.9261,64.500646 40.8081,64.500646" id="Fill-9" fill="#ECEEEF"></path>
                <path d="M1.25,45.808746 C0.56,45.808746 -7.10542736e-15,45.248746 -7.10542736e-15,44.558746 C-7.10542736e-15,43.868746 0.56,43.308746 1.25,43.308746 L61.714,43.308746 C62.065,43.275746 65.989,42.825746 65.989,38.441746 C65.989,37.080746 65.612,36.050746 64.837,35.293746 C63.339,33.829746 60.822,33.868746 60.793,33.869746 C60.754,33.870746 60.713,33.869746 60.676,33.867746 C60.658,33.866746 58.202,33.740746 56.68,35.223746 C55.773,36.107746 55.342,37.441746 55.399,39.190746 C55.421,39.880746 54.88,40.457746 54.19,40.480746 C53.54,40.502746 52.922,39.961746 52.9,39.271746 C52.819,36.779746 53.51,34.809746 54.955,33.414746 C57.145,31.298746 60.292,31.347746 60.782,31.369746 C61.274,31.365746 64.433,31.418746 66.568,33.489746 C67.843,34.725746 68.489,36.391746 68.489,38.441746 C68.489,43.888746 64.115,45.640746 61.803,45.805746 L1.25,45.808746 Z" id="Fill-11" fill="#ECEEEF"></path>
            </g>
        </g>
    </g>
</svg>