<?xml version="1.0" encoding="UTF-8"?>
<svg width="140px" height="140px" viewBox="0 0 140 140" version="1.1" xmlns="http://www.w3.org/2000/svg" xmlns:xlink="http://www.w3.org/1999/xlink">
    <title>pictogram/environment/weather/snow</title>
    <g id="pictogram/environment/weather/snow" stroke="none" stroke-width="1" fill="none" fill-rule="evenodd">
        <g id="snow">
            <path d="M140,70 C140,108.66 108.66,140 70,140 C31.34,140 0,108.66 0,70 C0,31.34 31.34,0 70,0 C108.66,0 140,31.34 140,70" id="circle" fill="#91BFE3"></path>
            <g id="picto" transform="translate(30.393100, 28.561500)">
                <path d="M65.083,21.079 C62.578,8.817 51.965,0 39.555,0 C25.163,0 13.455,11.887 13.455,26.496 C13.455,26.794 13.464,27.089 13.478,27.377 C5.713,28.7 0,35.465 0,43.588 C0,52.658 7.271,60.037 16.21,60.037 L59.625,60.037 C59.738,60.037 59.85,60.036 59.961,60.034 L60.729,60.03 L60.729,60.006 C71.019,59.423 79.214,50.742 79.214,40.156 C79.214,31.261 73.444,23.531 65.083,21.079" id="Fill-3" fill="#2167AE"></path>
                <path d="M15.9624,68.477 C11.9904,68.477 8.7594,71.708 8.7594,75.68 C8.7594,79.651 11.9904,82.883 15.9624,82.883 C19.9344,82.883 23.1654,79.651 23.1654,75.68 C23.1654,71.708 19.9344,68.477 15.9624,68.477" id="Fill-5" fill="#ECEEEF"></path>
                <path d="M39.7744,68.477 C35.8024,68.477 32.5714,71.708 32.5714,75.68 C32.5714,79.651 35.8024,82.883 39.7744,82.883 C43.7464,82.883 46.9774,79.651 46.9774,75.68 C46.9774,71.708 43.7464,68.477 39.7744,68.477" id="Fill-7" fill="#ECEEEF"></path>
                <path d="M63.5864,68.477 C59.6144,68.477 56.3834,71.708 56.3834,75.68 C56.3834,79.651 59.6144,82.883 63.5864,82.883 C67.5584,82.883 70.7894,79.651 70.7894,75.68 C70.7894,71.708 67.5584,68.477 63.5864,68.477" id="Fill-9" fill="#ECEEEF"></path>
            </g>
        </g>
    </g>
</svg>