<?xml version="1.0" encoding="UTF-8"?>
<svg width="140px" height="140px" viewBox="0 0 140 140" version="1.1" xmlns="http://www.w3.org/2000/svg" xmlns:xlink="http://www.w3.org/1999/xlink">
    <title>pictogram/environment/weather/tornado</title>
    <g id="pictogram/environment/weather/tornado" stroke="none" stroke-width="1" fill="none" fill-rule="evenodd">
        <g id="tornado">
            <path d="M140,70 C140,108.66 108.66,140 70,140 C31.34,140 0,108.66 0,70 C0,31.34 31.34,0 70,0 C108.66,0 140,31.34 140,70" id="circle" fill="#91BFE3"></path>
            <g id="picto" transform="translate(32.308139, 20.933289)">
                <path d="M49.0858607,9.72971125 C44.3698607,7.27571125 39.3088607,5.15271125 34.1698607,3.66271125 C20.8468607,-0.70128875 9.9688607,-1.30428875 7.3268607,2.60371125 C6.4818607,3.40071125 6.2558607,4.08171125 6.2558607,4.08171125 C6.2558607,4.08171125 -16.4021393,50.7017113 24.5238607,74.4757113 C31.1648607,78.3327113 36.0798607,81.7167113 39.6688607,84.6837113 C47.8398607,92.8767113 41.1628607,104.143711 41.1628607,104.143711 C49.4208607,104.013711 58.9398607,82.9517113 58.9398607,82.9517113 L58.9398607,82.9517113 C63.6928607,74.2617113 66.2288607,63.9257113 60.9818607,53.9827113 C53.0958607,39.0387113 58.8458607,37.3647113 65.2708607,36.6077113 C70.3318607,36.8137113 73.8368607,35.8187113 74.8738607,33.5027113 C77.2428607,28.2087113 65.8988607,17.9037113 49.0858607,9.72971125" id="Fill-4" fill="#ECEEEF"></path>
                <path d="M69.8495607,30.5742113 C67.9465607,35.0512113 52.9325607,32.9542113 36.3165607,25.8912113 C19.6995607,18.8272113 7.7725607,9.47221125 9.6755607,4.99421125 C11.5785607,0.51721125 26.5915607,2.61421125 43.2085607,9.67821125 C59.8255607,16.7412113 71.7525607,26.0972113 69.8495607,30.5742113" id="Fill-6" fill="#DAD2BD"></path>
            </g>
        </g>
    </g>
</svg>