<?xml version="1.0" encoding="UTF-8"?>
<svg width="140px" height="140px" viewBox="0 0 140 140" version="1.1" xmlns="http://www.w3.org/2000/svg" xmlns:xlink="http://www.w3.org/1999/xlink">
    <title>pictogram/business &amp; education/work-balance</title>
    <g id="pictogram/business-&amp;-education/work-balance" stroke="none" stroke-width="1" fill="none" fill-rule="evenodd">
        <g id="work-balance" transform="translate(0.000000, 0.000000)">
            <path d="M140,70 C140,108.66 108.659,140 70,140 C31.34,140 0,108.66 0,70 C0,31.34 31.34,0 70,0 C108.659,0 140,31.34 140,70" id="circle" fill="#91BFE3"></path>
            <g id="picto" transform="translate(12.192097, 13.542226)">
                <path d="M88.0843029,77.627374 C87.3763029,76.741374 86.6623029,75.989374 85.9433029,75.332374 C85.8753029,75.267374 85.8063029,75.212374 85.7363029,75.149374 C85.5513029,74.985374 85.3653029,74.815374 85.1793029,74.664374 C83.7143029,73.440374 82.2283029,72.642374 80.7263029,72.112374 C79.5363029,71.693374 78.3363029,71.444374 77.1283029,71.298374 C76.3063029,71.200374 75.4793029,71.146374 74.6493029,71.119374 C73.6323029,71.086374 72.6093029,71.0882009 71.5833029,71.0882009 L56.3273029,71.090374 L45.6553029,71.091374 L43.7833029,71.0882009 C39.1423029,71.0882009 34.5733029,71.002374 30.1883029,74.664374 C30.0013029,74.815374 29.8153029,74.985374 29.6303029,75.149374 C29.5623029,75.212374 29.4913029,75.267374 29.4233029,75.332374 C28.7043029,75.989374 27.9903029,76.741374 27.2823029,77.627374 C26.9843029,78.000374 26.6213029,78.545374 26.2283029,79.176374 C24.9283029,81.072374 22.7173029,87.155374 20.4013029,94.053374 C30.3333029,103.374374 43.6853029,109.094374 58.3803029,109.094374 C72.5173029,109.094374 85.4113029,103.801374 95.2133029,95.101374 C92.8083029,87.759374 90.4783029,81.129374 89.1393029,79.176374 C88.7453029,78.545374 88.3823029,78.000374 88.0843029,77.627374" id="Fill-4" fill="#2167AE"></path>
                <path d="M77.5228029,44.822674 C77.5228029,56.570674 68.6518029,66.094674 57.7078029,66.094674 C46.7638029,66.094674 37.8928029,56.570674 37.8928029,44.822674 C37.8928029,33.073674 46.7638029,23.549674 57.7078029,23.549674 C68.6518029,23.549674 77.5228029,33.073674 77.5228029,44.822674" id="Fill-6" fill="#23366F"></path>
                <path d="M68.6487029,71.177074 C68.6487029,71.177074 67.5677029,66.309074 66.9807029,63.888074 C66.6157029,62.378074 66.9387029,61.114074 67.9617029,60.037074 C68.9047029,59.046074 69.7587029,57.994074 70.3057029,56.682074 C71.8637029,52.948074 72.2987029,49.015074 72.1927029,44.975074 C72.1787029,44.440074 72.0687029,44.097074 71.8037029,43.896074 C71.5997029,43.742074 71.3057029,43.669074 70.8787029,43.671074 C65.4907029,43.701074 60.8827029,41.006074 56.1037029,38.899074 C51.0867029,36.685074 43.9157029,39.610074 43.1207029,44.455074 C43.0847029,50.187074 43.2587029,55.842074 47.4867029,60.235074 C48.2557029,61.035074 48.6287029,62.111074 48.3857029,63.256074 C47.8237029,65.907074 46.5707029,71.179074 46.5707029,71.179074 C46.5707029,71.179074 49.5737029,79.007074 57.7177029,79.007074 C65.8637029,79.007074 68.6487029,71.177074 68.6487029,71.177074" id="Fill-8" fill="#5495CF"></path>
                <path d="M114.661403,58.680274 L108.254403,54.164274 C107.909403,53.922274 107.518403,53.798274 107.126403,53.768274 L107.114403,53.767274 C107.034403,53.7625865 106.955403,53.761274 106.874403,53.764274 C106.380403,53.764274 105.883403,53.916274 105.467403,54.249274 L99.5454029,59.006274 C98.5764029,59.784274 98.4224029,61.201274 99.2004029,62.169274 C99.6444029,62.722274 100.297403,63.010274 100.955403,63.010274 C101.450403,63.010274 101.947403,62.848274 102.363403,62.514274 L105.034403,60.369274 C105.151403,83.514274 88.4144029,103.635274 65.2634029,107.687274 C41.3444029,111.874274 17.9674029,97.623274 10.8854029,74.536274 C10.5204029,73.348274 9.25940286,72.681274 8.07340286,73.045274 C6.88640286,73.410274 6.21840286,74.668274 6.58240286,75.856274 C13.4234029,98.153274 34.1484029,112.917274 56.9084029,112.915274 C59.9244029,112.915274 62.9784029,112.656274 66.0384029,112.120274 C91.2844029,107.701274 109.550403,85.801274 109.530403,60.569274 L112.069403,62.359274 C112.463403,62.636274 112.915403,62.769274 113.363403,62.769274 C114.070403,62.769274 114.766403,62.437274 115.204403,61.815274 C115.920403,60.800274 115.677403,59.396274 114.661403,58.680274" id="Fill-10" fill="#DAD2BD"></path>
                <path d="M8.20640286,59.072774 C8.28540286,59.091774 8.36640286,59.098774 8.44640286,59.108774 C8.51840286,59.115774 8.58840286,59.140774 8.65940286,59.140774 C8.67240286,59.140774 8.68540286,59.136774 8.69840286,59.136774 C8.71240286,59.136774 8.72640286,59.140774 8.74040286,59.140774 C9.23440286,59.140774 9.73240286,58.978774 10.1474029,58.645774 L16.0744029,53.889774 C17.0434029,53.111774 17.1984029,51.695774 16.4214029,50.726774 C15.6434029,49.756774 14.2264029,49.602774 13.2584029,50.379774 L10.5834029,52.526774 C10.4774029,29.389774 27.2154029,9.27777398 50.3594029,5.22677398 C74.2724029,1.04277398 97.6474029,15.289774 104.735403,38.366774 C105.100403,39.554774 106.359403,40.220774 107.546403,39.856774 C108.734403,39.491774 109.401403,38.233774 109.036403,37.045774 C101.284403,11.803774 75.7154029,-3.78022602 49.5844029,0.794773979 C24.3464029,5.21177398 6.07840286,27.101774 6.08640286,52.325774 L3.54640286,50.535774 C2.52640286,49.819774 1.12540286,50.064774 0.410402855,51.079774 C-0.304597145,52.095774 -0.0615971448,53.499774 0.954402855,54.215774 L7.36540286,58.730774 C7.62640286,58.913774 7.91340286,59.011774 8.20640286,59.072774" id="Fill-12" fill="#DAD2BD"></path>
            </g>
        </g>
    </g>
</svg>