<?xml version="1.0" encoding="UTF-8"?>
<svg width="140px" height="140px" viewBox="0 0 140 140" version="1.1" xmlns="http://www.w3.org/2000/svg" xmlns:xlink="http://www.w3.org/1999/xlink">
    <title>pictogram/people/youth/man</title>
    <defs>
        <polygon id="path-1" points="0 0 140 0 140 139.9998 0 139.9998"></polygon>
    </defs>
    <g id="pictogram/people/youth/man" stroke="none" stroke-width="1" fill="none" fill-rule="evenodd">
        <g id="youth" transform="translate(0.000000, 0.000000)">
            <g id="Group-3">
                <mask id="mask-2" fill="white">
                    <use xlink:href="#path-1"></use>
                </mask>
                <g id="Clip-2"></g>
                <path d="M70,0 C31.34,0 0,31.34 0,70 C0,108.66 31.34,140 70,140 C108.66,140 140,108.66 140,70 C140,31.34 108.66,0 70,0" id="Fill-1" fill="#91BFE3" mask="url(#mask-2)"></path>
            </g>
            <g id="Group-14" transform="translate(20.201200, 19.144800)">
                <path d="M49.799,120.8547 C68.553,120.8547 85.57,113.4647 98.137,101.4577 C95.432,93.3987 92.935,86.6137 91.4,84.3757 C90.868,83.5227 90.377,82.7857 89.975,82.2817 C89.018,81.0837 88.052,80.0677 87.081,79.1797 C86.988,79.0927 86.895,79.0177 86.802,78.9327 C86.551,78.7107 86.3,78.4807 86.048,78.2767 C84.068,76.6227 82.059,75.5437 80.028,74.8277 C78.42,74.2607 76.798,73.9237 75.165,73.7277 C74.053,73.5937 72.936,73.5217 71.816,73.4857 C70.44,73.4407 69.057,73.4434674 67.67,73.4434674 L47.048,73.4457 L32.623,73.4477 L30.091,73.4434674 C23.818,73.4434674 17.643,73.3277 11.714,78.2767 C11.462,78.4807 11.211,78.7107 10.96,78.9327 C10.867,79.0177 10.773,79.0927 10.68,79.1797 C9.709,80.0677 8.744,81.0837 7.786,82.2817 C7.384,82.7857 6.894,83.5227 6.361,84.3757 C4.891,86.5217 2.557,92.6347 7.10542736e-15,100.0367 C12.691,112.8857 30.312,120.8547 49.799,120.8547" id="Fill-4" fill="#2167AE"></path>
                <path d="M75.6984,37.9387 C75.6984,53.8197 63.7064,66.6937 48.9134,66.6937 C34.1204,66.6937 22.1284,53.8197 22.1284,37.9387 C22.1284,22.0577 34.1204,9.1837 48.9134,9.1837 C63.7064,9.1837 75.6984,22.0577 75.6984,37.9387" id="Fill-6" fill="#23366F"></path>
                <path d="M30.1774,32.7214 C29.6874,34.0064 29.3444,35.5534 29.1954,37.4414 C29.1474,45.1904 29.3834,52.8344 35.0974,58.7734 C36.1374,59.8534 36.6414,61.3084 36.3134,62.8564 C35.5524,66.4394 33.8594,73.5654 33.8594,73.5654 C33.8594,73.5654 37.9174,84.1474 48.9274,84.1474 C59.9374,84.1474 63.7034,73.5634 63.7034,73.5634 C63.7034,73.5634 62.2424,66.9834 61.4484,63.7104 C60.9544,61.6694 61.3924,59.9604 62.7754,58.5054 C64.0484,57.1644 65.2044,55.7434 65.9444,53.9704 C68.0494,48.9234 68.6384,38.8104 68.4934,33.3494 C68.4874,33.0954 68.4574,32.8824 68.4144,32.6894 C65.3154,30.6674 59.1694,27.7754 49.3074,27.7754 C39.7894,27.7754 33.5264,30.6114 30.1774,32.7214" id="Fill-8" fill="#5495CF"></path>
                <path d="M75.7408,32.0148 C75.5828,30.9718 75.2488,28.7708 74.9728,26.9248 C74.9918,27.2498 74.9958,27.4368 74.9958,27.4368 C60.0398,20.4438 49.0488,21.0898 49.0488,21.0898 C49.0488,21.0898 38.0568,20.4438 23.1008,27.4368 C22.8298,29.2498 22.5108,31.3578 22.3558,32.3718 C22.3018,32.5678 22.2638,32.7688 22.2638,32.9798 C22.2638,34.4098 23.6178,35.5698 25.2878,35.5698 C26.0218,35.5698 26.6858,35.3368 27.2098,34.9638 L27.2238,34.9698 C27.2238,34.9698 27.2438,34.9478 27.2758,34.9168 C27.4268,34.8038 27.5628,34.6798 27.6848,34.5428 C28.1498,34.1368 28.9828,33.4738 30.1778,32.7218 C33.5268,30.6108 39.7888,27.7748 49.3078,27.7748 C59.1698,27.7748 65.3158,30.6668 68.4148,32.6888 C69.3178,33.2788 69.9758,33.7978 70.3748,34.1448 C70.5058,34.2998 70.6578,34.4368 70.8248,34.5628 C70.8548,34.5918 70.8738,34.6118 70.8738,34.6118 L70.8868,34.6058 C71.4108,34.9788 72.0748,35.2118 72.8088,35.2118 C74.4798,35.2118 75.8338,34.0528 75.8338,32.6218 C75.8338,32.4118 75.7958,32.2098 75.7408,32.0148" id="Fill-10" fill="#DAD2BD"></path>
                <path d="M74.9728,26.925 C74.7668,23.492 72.6608,3.549 51.4748,2.13 C51.4758,2.101 51.4838,2.075 51.4838,2.047 C51.4838,0.916 50.5668,0 49.4368,0 C48.3058,0 47.3898,0.916 47.3898,2.047 C47.3898,2.065 47.3938,2.081 47.3948,2.099 C23.4538,3.177 23.1008,27.437 23.1008,27.437 C38.0568,20.444 49.0488,21.09 49.0488,21.09 C49.0488,21.09 60.0398,20.444 74.9958,27.437 C74.9958,27.437 74.9928,27.25 74.9728,26.925" id="Fill-12" fill="#2167AE"></path>
            </g>
        </g>
    </g>
</svg>