<?xml version="1.0" encoding="UTF-8"?>
<svg width="140px" height="140px" viewBox="0 0 140 140" version="1.1" xmlns="http://www.w3.org/2000/svg" xmlns:xlink="http://www.w3.org/1999/xlink">
    <title>pictogram/business &amp; education/zurich</title>
    <g id="pictogram/business-&amp;-education/zurich" stroke="none" stroke-width="1" fill="none" fill-rule="evenodd">
        <g id="zurich">
            <path d="M70,0 L70,0 C108.659,0 140,31.34 140,70 C140,108.66 108.659,140 70,140 C31.34,140 0,108.66 0,70 C0,31.34 31.34,0 70,0" id="circle" fill="#91BFE3"></path>
            <g id="picto" transform="translate(25.410505, 25.999948)" fill="#2167AE">
                <path d="M44.4526954,0 C27.5476954,0.00905197575 12.1086954,9.60605198 4.61269543,24.766052 C-2.88430457,39.926052 -1.14230457,58.028052 9.10669543,71.479052 L46.0636954,22.876052 L38.1386954,22.876052 C34.4486954,22.828052 30.7616954,23.111052 27.1216954,23.723052 C25.4946954,24.015052 23.9466954,24.647052 22.5816954,25.579052 C20.7346954,27.049052 19.1976954,28.870052 18.0566954,30.936052 C17.9276954,31.197052 17.7156954,31.571052 17.4716954,32.092052 L15.2906954,31.604052 L18.9196954,17.650052 L65.2176954,17.650052 L28.4236954,66.887052 C30.1806954,66.706052 31.9456954,66.619052 33.7126954,66.627052 C35.2096954,66.627052 37.4716954,66.627052 40.5146954,66.903052 L47.0236954,67.278052 C49.3996954,67.424052 51.3686954,67.506052 52.8656954,67.506052 C55.4806954,67.604052 58.0946954,67.291052 60.6116954,66.578052 C62.3096954,66.054052 63.9176954,65.274052 65.3806954,64.266052 C68.1306954,62.303052 70.3866954,59.728052 71.9716954,56.743052 C72.1176954,56.467052 72.3616954,56.011052 72.6386954,55.424052 L74.6066954,55.929052 C74.1386954,57.839052 73.4846954,59.699052 72.6546954,61.482052 C71.1356954,65.292052 68.6166954,68.622052 65.3636954,71.121052 C62.2616954,73.446052 58.4836954,74.692052 54.6066954,74.670052 L53.9736954,74.670052 C49.7046954,74.553052 45.4546954,74.084052 41.2636954,73.270052 C36.3196954,72.370052 31.3136954,71.858052 26.2916954,71.739052 C23.8606954,71.732052 21.4326954,71.922052 19.0336954,72.309052 C16.4816954,72.638052 14.0026954,73.386052 11.6946954,74.523052 C25.4486954,89.578052 47.6716954,93.348052 65.6176954,83.673052 C83.5626954,73.998052 92.6386954,53.354052 87.6366954,33.581052 C82.6356954,13.808052 64.8386954,-0.0309480242 44.4526954,0" id="Fill-4"></path>
            </g>
        </g>
    </g>
</svg>