<?xml version="1.0" encoding="UTF-8"?>
<svg width="140px" height="140px" viewBox="0 0 140 140" version="1.1" xmlns="http://www.w3.org/2000/svg" xmlns:xlink="http://www.w3.org/1999/xlink">
    <title>pictogram/dark/security/digital/risk</title>
    <g id="pictogram/dark/security/digital/risk" stroke="none" stroke-width="1" fill="none" fill-rule="evenodd">
        <g id="digital-risk" transform="translate(-0.000000, 0.000000)">
            <path d="M0,70 C0,31.34 31.34,0 70,0 C108.66,0 140,31.34 140,70 C140,108.66 108.66,140 70,140 C31.34,140 0,108.66 0,70" id="circle" fill="#91BFE3"></path>
            <g id="picto" transform="translate(16.267400, 31.447400)">
                <path d="M95.6876576,61.106 L11.9945422,61.106 C11.9945422,61.106 11.9966,16.088 11.9945422,15.185 C11.9896,13.261 12.3056,9.879 14.3276,7.556 C16.0906,5.528 18.9086,4.5 22.6996,4.5 L84.9826,4.5 C88.7736,4.5 91.5906,5.528 93.3546,7.556 C95.3756,9.879 95.6926,13.261 95.6876576,15.185 C95.6856,16.088 95.6876576,61.106 95.6876576,61.106 M100.1636,15.939 C100.1636,13.683 100.1576,8.546 96.7786,4.634 C94.1216,1.559 90.1536,0 84.9826,0 L22.6996,0 C17.5286,0 13.5606,1.559 10.9036,4.634 C7.5246,8.546 7.5186,13.683 7.5186,15.939 C7.5186,16.334 7.5266,65.606 7.5266,65.606 L36.4856,65.606 L36.4856,68.949 L71.1966,68.949 L71.1966,65.606 L100.1556,65.606 C100.1556,65.606 100.1636,16.334 100.1636,15.939" id="Fill-4" fill="#5495CF"></path>
                <path d="M95.6876576,61.106 L11.9945422,61.106 C11.9945422,61.106 11.9966,16.088 11.9945422,15.185 C11.9896,13.261 12.3056,9.879 14.3276,7.556 C16.0906,5.528 18.9086,4.5 22.6996,4.5 L84.9826,4.5 C88.7736,4.5 91.5906,5.528 93.3546,7.556 C95.3756,9.879 95.6926,13.261 95.6876576,15.185 C95.6856,16.088 95.6876576,61.106 95.6876576,61.106" id="Fill-6" fill="#ECEEEF"></path>
                <path d="M106.215,64.5371 L66.642,64.5371 C66.026,64.5371 65.497,65.0151 65.402,65.6231 C65.366,65.8531 64.942,67.8731 61.157,67.8731 L46.307,67.8731 C42.986,67.8731 42.348,65.7411 42.29,65.5141 C42.162,64.9431 41.655,64.5371 41.07,64.5371 L1.25,64.5371 C0.56,64.5371 0,65.1081 0,65.7991 C0,70.0591 0,74.8881 7.81,74.8881 L99.654,74.8881 C107.465,74.8881 107.465,70.0591 107.465,65.7871 C107.465,65.0971 106.905,64.5371 106.215,64.5371" id="Fill-8" fill="#2167AE"></path>
                <path d="M75.837,48.9937 L55.941,12.5187 C55.722,12.1177 55.301,11.8677 54.844,11.8677 C54.387,11.8677 53.966,12.1177 53.746,12.5187 L33.852,48.9937 C33.641,49.3817 33.649,49.8507 33.874,50.2307 C34.1,50.6097 34.508,50.8427 34.949,50.8427 L74.739,50.8427 C75.181,50.8427 75.589,50.6097 75.815,50.2307 C76.039,49.8507 76.048,49.3807 75.837,48.9937" id="Fill-10" fill="#DAD2BD"></path>
                <path d="M54.8439,37.5789 C54.1539,37.5789 53.5939,37.0189 53.5939,36.3289 L53.5939,23.9599 C53.5939,23.2689 54.1539,22.7099 54.8439,22.7099 C55.5339,22.7099 56.0939,23.2689 56.0939,23.9599 L56.0939,36.3289 C56.0939,37.0189 55.5339,37.5789 54.8439,37.5789" id="Fill-14" fill="#2167AE"></path>
                <path d="M54.8439,45.8791 C54.1539,45.8791 53.5939,45.3191 53.5939,44.6291 L53.5939,41.3031 C53.5939,40.6121 54.1539,40.0531 54.8439,40.0531 C55.5339,40.0531 56.0939,40.6121 56.0939,41.3031 L56.0939,44.6291 C56.0939,45.3191 55.5339,45.8791 54.8439,45.8791" id="Fill-18" fill="#2167AE"></path>
            </g>
        </g>
    </g>
</svg>