<?xml version="1.0" encoding="UTF-8"?>
<svg width="140px" height="140px" viewBox="0 0 140 140" version="1.1" xmlns="http://www.w3.org/2000/svg" xmlns:xlink="http://www.w3.org/1999/xlink">
    <title>pictogram/dark/security/digital/virus</title>
    <g id="pictogram/dark/security/digital/virus" stroke="none" stroke-width="1" fill="none" fill-rule="evenodd">
        <g id="digital-virus" transform="translate(-0.000000, 0.000000)">
            <path d="M0,70 C0,31.34 31.34,0 70,0 C108.66,0 140,31.34 140,70 C140,108.66 108.66,140 70,140 C31.34,140 0,108.66 0,70" id="circle" fill="#91BFE3"></path>
            <g id="picto" transform="translate(16.267400, 32.549500)">
                <path d="M95.6877578,61.106 L11.9946422,61.106 C11.9946422,61.106 11.9967,16.088 11.9946422,15.185 C11.9897,13.261 12.3057,9.879 14.3277,7.556 C16.0907,5.528 18.9087,4.5 22.6997,4.5 L84.9827,4.5 C88.7737,4.5 91.5917,5.528 93.3547,7.556 C95.3767,9.879 95.6927,13.261 95.6877578,15.185 C95.6857,16.088 95.6877578,61.106 95.6877578,61.106 M100.1637,15.939 C100.1637,13.683 100.1577,8.546 96.7787,4.634 C94.1217,1.559 90.1537,0 84.9827,0 L22.6997,0 C17.5287,0 13.5607,1.559 10.9037,4.634 C7.5247,8.546 7.5187,13.683 7.5187,15.939 C7.5187,16.334 7.5267,65.606 7.5267,65.606 L36.4857,65.606 L36.4857,68.949 L71.1967,68.949 L71.1967,65.606 L100.1557,65.606 C100.1557,65.606 100.1637,16.334 100.1637,15.939" id="Fill-4" fill="#5495CF"></path>
                <path d="M95.6877578,61.106 L11.9946422,61.106 C11.9946422,61.106 11.9967,16.088 11.9946422,15.185 C11.9897,13.261 12.3057,9.879 14.3277,7.556 C16.0907,5.528 18.9087,4.5 22.6997,4.5 L84.9827,4.5 C88.7737,4.5 91.5917,5.528 93.3547,7.556 C95.3767,9.879 95.6927,13.261 95.6877578,15.185 C95.6857,16.088 95.6877578,61.106 95.6877578,61.106" id="Fill-6" fill="#ECEEEF"></path>
                <path d="M106.215,64.5372 L66.642,64.5372 C66.026,64.5372 65.497,65.0152 65.402,65.6232 C65.366,65.8532 64.942,67.8732 61.158,67.8732 L46.307,67.8732 C42.986,67.8732 42.348,65.7412 42.29,65.5142 C42.162,64.9432 41.655,64.5372 41.07,64.5372 L1.25,64.5372 C0.56,64.5372 0,65.1082 0,65.7992 C0,70.0592 0,74.8882 7.81,74.8882 L99.655,74.8882 C107.465,74.8882 107.465,70.0592 107.465,65.7872 C107.465,65.0972 106.905,64.5372 106.215,64.5372" id="Fill-8" fill="#2167AE"></path>
                <path d="M43.1403,33.0108 L49.3453,33.0108 C51.4163,33.0108 53.1023,34.6968 53.1023,36.7678 L53.1023,38.2868 C53.1023,38.6458 53.2413,38.9848 53.4923,39.2398 C53.7463,39.4988 54.0873,39.6428 54.4503,39.6458 C54.8023,39.6718 55.1543,39.5108 55.4133,39.2558 C55.6963,38.9778 55.8443,38.6248 55.8443,38.2628 L55.8443,36.7678 C55.8443,34.6968 57.5293,33.0108 59.6013,33.0108 L65.7243,33.0108 L65.7963,34.1268 C65.8053,34.2548 65.8033,34.3878 65.8093,34.5178 C65.8203,34.3138 65.8403,34.1118 65.8403,33.9058 C65.8403,32.6318 65.6193,31.4108 65.2283,30.2688 L43.6353,30.2688 C43.2443,31.4108 43.0233,32.6318 43.0233,33.9058 C43.0233,34.1138 43.0433,34.3168 43.0553,34.5218 C43.0613,34.3908 43.0593,34.2568 43.0673,34.1268 L43.1403,33.0108 Z" id="Fill-10" fill="#DAD2BD"></path>
                <path d="M65.3346,39.9869 C65.4916,39.3059 65.6016,38.5989 65.6866,37.8819 C68.7186,37.4179 71.0506,34.7999 71.0506,31.6399 C71.0506,30.9809 70.5166,30.4469 69.8576,30.4469 C69.1986,30.4469 68.6646,30.9809 68.6646,31.6399 C68.6646,33.4229 67.4656,34.9149 65.8366,35.3969 C65.8346,35.1019 65.8226,34.8089 65.8096,34.5179 C65.8026,34.3879 65.8046,34.2549 65.7966,34.1269 L65.7236,33.0109 L59.6016,33.0109 C57.5296,33.0109 55.8446,34.6959 55.8446,36.7679 L55.8446,38.2629 C55.8446,38.6249 55.6966,38.9779 55.4136,39.2559 C55.1546,39.5099 54.8016,39.6719 54.4506,39.6459 C54.0866,39.6429 53.7466,39.4989 53.4916,39.2399 C53.2406,38.9849 53.1026,38.6459 53.1026,38.2869 L53.1026,36.7679 C53.1026,34.6959 51.4166,33.0109 49.3446,33.0109 L43.1406,33.0109 L43.0676,34.1269 C43.0596,34.2569 43.0616,34.3909 43.0546,34.5219 C43.0416,34.8039 43.0306,35.0869 43.0266,35.3719 C41.4406,34.8639 40.2816,33.3929 40.2816,31.6399 C40.2816,30.9809 39.7476,30.4469 39.0886,30.4469 C38.4296,30.4469 37.8956,30.9809 37.8956,31.6399 C37.8956,34.7709 40.1856,37.3699 43.1766,37.8679 C43.2606,38.5909 43.3716,39.3009 43.5286,39.9859 C41.7876,40.3509 40.2456,41.4309 39.3366,43.0039 C39.0076,43.5749 39.2036,44.3049 39.7736,44.6339 C39.9616,44.7419 40.1666,44.7939 40.3696,44.7939 C40.7816,44.7939 41.1826,44.5799 41.4036,44.1969 C42.0056,43.1539 43.0536,42.4539 44.2236,42.2739 C44.5606,43.1819 44.9616,44.0379 45.4216,44.8329 C42.8466,45.6329 40.9726,48.0369 40.9726,50.8709 C40.9726,51.5299 41.5066,52.0639 42.1656,52.0639 C42.8246,52.0639 43.3586,51.5299 43.3586,50.8709 C43.3586,48.8279 44.9296,47.1629 46.9236,46.9729 C48.9326,49.3369 51.5556,50.7819 54.4326,50.7819 C57.2976,50.7819 59.9126,49.3479 61.9176,47.0009 C63.9586,47.1429 65.5806,48.8309 65.5806,50.9069 C65.5806,51.5659 66.1146,52.0999 66.7736,52.0999 C67.4326,52.0999 67.9666,51.5659 67.9666,50.9069 C67.9666,48.0439 66.0506,45.6219 63.4346,44.8479 C63.8976,44.0489 64.3006,43.1889 64.6396,42.2749 C65.8076,42.4559 66.8526,43.1549 67.4536,44.1969 C67.6746,44.5799 68.0756,44.7939 68.4876,44.7939 C68.6906,44.7939 68.8966,44.7419 69.0836,44.6339 C69.6546,44.3049 69.8506,43.5749 69.5206,43.0039 C68.6136,41.4329 67.0736,40.3539 65.3346,39.9869" id="Fill-12" fill="#2167AE"></path>
                <path d="M64.6525,28.6612 C63.3075,25.0312 61.0065,22.3602 58.2625,21.0652 C58.4275,19.0462 60.1045,17.4492 62.1655,17.4492 C62.8245,17.4492 63.3585,16.9142 63.3585,16.2552 C63.3585,15.5972 62.8245,15.0622 62.1655,15.0622 C59.0415,15.0622 56.4465,17.3432 55.9405,20.3252 C55.4445,20.2392 54.9425,20.1902 54.4325,20.1902 C53.9495,20.1902 53.4745,20.2362 53.0045,20.3142 C52.4945,17.3372 49.9015,15.0622 46.7805,15.0622 C46.1215,15.0622 45.5885,15.5972 45.5885,16.2552 C45.5885,16.9142 46.1215,17.4492 46.7805,17.4492 C48.8295,17.4492 50.4995,19.0292 50.6805,21.0312 C47.9025,22.3112 45.5685,24.9962 44.2115,28.6612 L43.6165,30.2682 L43.6345,30.2682 L65.2285,30.2682 L65.2475,30.2682 L64.6525,28.6612 Z" id="Fill-14" fill="#2167AE"></path>
            </g>
        </g>
    </g>
</svg>