<?xml version="1.0" encoding="UTF-8"?>
<svg width="140px" height="140px" viewBox="0 0 140 140" version="1.1" xmlns="http://www.w3.org/2000/svg" xmlns:xlink="http://www.w3.org/1999/xlink">
    <title>pictogram/dark/communication/lightbulb/creation</title>
    <g id="pictogram/dark/communication/lightbulb/creation" stroke="none" stroke-width="1" fill="none" fill-rule="evenodd">
        <g id="lightbulb-creation" transform="translate(-0.000100, 0.000000)">
            <path d="M140,70 C140,108.66 108.66,140 70,140 C31.34,140 0,108.66 0,70 C0,31.34 31.34,0 70,0 C108.66,0 140,31.34 140,70" id="circle" fill="#91BFE3"></path>
            <g id="picto" transform="translate(16.206800, 14.050700)">
                <path d="M84.009,53.212 C83.273,38.217 71.133,25.912 56.139,24.999 C38.835,23.921 24.463,37.647 24.463,54.721 C24.463,62.421 27.38,69.437 32.176,74.714 C36.425,79.408 39.051,85.675 39.267,91.992 L69.256,91.992 C69.56,85.637 72.211,79.344 76.474,74.574 C81.497,68.967 84.415,61.432 84.009,53.212" id="Fill-4" fill="#5495CF"></path>
                <path d="M69.0559,97.3126 C68.7509,97.1856 68.4199,97.1226 68.0629,97.1226 L68.0759,97.1226 C68.4829,97.1226 68.8779,97.0326 69.2219,96.8676 C69.5139,96.7396 69.7819,96.5496 70.0109,96.3196 C70.5069,95.8236 70.8119,95.1366 70.8119,94.3856 C70.8119,93.2786 70.1629,92.3366 69.2219,91.9036 C68.8779,91.7386 68.4829,91.6486 68.0759,91.6486 L40.4459,91.6486 C40.0259,91.6486 39.6309,91.7386 39.2749,91.9166 C38.9949,92.0436 38.7279,92.2346 38.5109,92.4516 C38.0149,92.9476 37.7089,93.6346 37.7089,94.3856 C37.7089,95.4676 38.3459,96.4216 39.2749,96.8546 C39.6309,97.0326 40.0259,97.1226 40.4459,97.1226 L40.4329,97.1226 C40.0639,97.1226 39.7069,97.1986 39.3889,97.3386 C39.0459,97.4656 38.7529,97.6686 38.4979,97.9236 C38.0019,98.4076 37.6969,99.0946 37.6969,99.8456 C37.6969,101.3596 38.9179,102.5816 40.4329,102.5816 L43.0039,102.5816 C45.8039,105.7766 49.9399,107.7746 54.5349,107.6856 C58.8489,107.6086 62.6669,105.6236 65.3399,102.5816 L68.0629,102.5816 C68.8269,102.5816 69.5009,102.2766 69.9979,101.7796 C70.4939,101.2836 70.7999,100.5966 70.7999,99.8456 C70.7999,98.6876 70.0739,97.7076 69.0559,97.3126" id="Fill-6" fill="#2167AE"></path>
                <path d="M54.179,15.355 C52.936,15.355 51.929,14.348 51.929,13.105 L51.929,2.25 C51.929,1.007 52.936,-1.42108547e-14 54.179,-1.42108547e-14 C55.422,-1.42108547e-14 56.429,1.007 56.429,2.25 L56.429,13.105 C56.429,14.348 55.422,15.355 54.179,15.355" id="Fill-8" fill="#DAD2BD"></path>
                <path d="M105.3372,50.7457 L94.4822,50.7457 C93.2392,50.7457 92.2322,49.7387 92.2322,48.4957 C92.2322,47.2527 93.2392,46.2457 94.4822,46.2457 L105.3372,46.2457 C106.5802,46.2457 107.5872,47.2527 107.5872,48.4957 C107.5872,49.7387 106.5802,50.7457 105.3372,50.7457" id="Fill-10" fill="#DAD2BD"></path>
                <path d="M13.105,50.7457 L2.25,50.7457 C1.007,50.7457 -3.55271368e-15,49.7387 -3.55271368e-15,48.4957 C-3.55271368e-15,47.2527 1.007,46.2457 2.25,46.2457 L13.105,46.2457 C14.348,46.2457 15.355,47.2527 15.355,48.4957 C15.355,49.7387 14.348,50.7457 13.105,50.7457" id="Fill-12" fill="#DAD2BD"></path>
                <path d="M83.0745,25.92 C82.4985,25.92 81.9225,25.7 81.4835,25.261 C80.6045,24.382 80.6045,22.958 81.4835,22.079 L89.1595,14.403 C90.0385,13.524 91.4625,13.524 92.3415,14.403 C93.2205,15.282 93.2205,16.707 92.3415,17.585 L84.6655,25.261 C84.2265,25.7 83.6505,25.92 83.0745,25.92" id="Fill-14" fill="#DAD2BD"></path>
                <path d="M25.4614,25.92 C24.8854,25.92 24.3094,25.7 23.8704,25.261 L16.1944,17.585 C15.3154,16.707 15.3154,15.282 16.1944,14.403 C17.0734,13.524 18.4974,13.524 19.3764,14.403 L27.0524,22.079 C27.9314,22.958 27.9314,24.382 27.0524,25.261 C26.6134,25.7 26.0374,25.92 25.4614,25.92" id="Fill-16" fill="#DAD2BD"></path>
                <path d="M54.2534,60.6851 C51.1864,60.6851 48.6914,58.1901 48.6914,55.1231 C48.6914,52.0551 51.1864,49.5601 54.2534,49.5601 C57.3204,49.5601 59.8154,52.0551 59.8154,55.1231 C59.8154,58.1901 57.3204,60.6851 54.2534,60.6851 M70.2704,52.7761 C70.1244,52.2511 69.6554,51.8811 69.1104,51.8621 L65.6644,51.7381 C65.4564,51.4421 65.2134,51.0531 65.0754,50.6931 C64.9294,50.3101 64.8354,49.7711 64.7824,49.3541 L67.1594,46.8271 C67.5334,46.4301 67.6064,45.8361 67.3404,45.3611 C66.9414,44.6461 66.4644,44.0071 65.9244,43.4621 C65.3844,42.9151 64.7504,42.4331 64.0394,42.0261 C63.5664,41.7561 62.9724,41.8221 62.5714,42.1921 L59.9954,44.5651 C59.5904,44.5261 59.0594,44.4481 58.6834,44.3041 C58.3234,44.1661 57.9334,43.9231 57.6374,43.7151 L57.5144,40.2681 C57.4944,39.7241 57.1254,39.2551 56.6004,39.1091 C55.0264,38.6711 53.4804,38.6711 51.9064,39.1091 C51.3814,39.2551 51.0114,39.7251 50.9924,40.2691 L50.8704,43.7151 C50.5764,43.9221 50.1854,44.1661 49.8254,44.3041 C49.4494,44.4481 48.9184,44.5261 48.5124,44.5651 L45.9374,42.1921 C45.5354,41.8211 44.9414,41.7551 44.4694,42.0261 C43.7594,42.4321 43.1244,42.9151 42.5844,43.4611 C42.0434,44.0081 41.5664,44.6461 41.1684,45.3611 C40.9024,45.8361 40.9754,46.4301 41.3494,46.8271 L43.7264,49.3541 C43.6734,49.7711 43.5794,50.3101 43.4334,50.6921 C43.2954,51.0531 43.0524,51.4431 42.8444,51.7381 L39.3984,51.8621 C38.8534,51.8811 38.3844,52.2511 38.2384,52.7761 C38.0194,53.5641 37.9084,54.3531 37.9084,55.1231 C37.9084,55.8921 38.0194,56.6811 38.2384,57.4691 C38.3844,57.9941 38.8534,58.3641 39.3984,58.3831 L42.8444,58.5071 C43.0524,58.8031 43.2954,59.1921 43.4334,59.5531 C43.5794,59.9351 43.6734,60.4741 43.7264,60.8911 L41.3494,63.4181 C40.9754,63.8151 40.9024,64.4091 41.1684,64.8841 C41.5664,65.5991 42.0434,66.2371 42.5844,66.7841 C43.1244,67.3301 43.7594,67.8131 44.4694,68.2191 C44.9424,68.4901 45.5354,68.4231 45.9374,68.0531 L48.5124,65.6801 C48.9184,65.7191 49.4494,65.7971 49.8254,65.9411 C50.1854,66.0791 50.5754,66.3221 50.8704,66.5301 L50.9924,69.9761 C51.0114,70.5201 51.3814,70.9901 51.9064,71.1361 C52.6934,71.3551 53.4824,71.4661 54.2534,71.4661 C55.0244,71.4661 55.8134,71.3551 56.6004,71.1361 C57.1254,70.9901 57.4944,70.5211 57.5144,69.9771 L57.6374,66.5301 C57.9334,66.3221 58.3234,66.0791 58.6834,65.9411 C59.0594,65.7971 59.5904,65.7191 59.9954,65.6801 L62.5714,68.0531 C62.9724,68.4231 63.5664,68.4901 64.0394,68.2191 C64.7504,67.8121 65.3844,67.3301 65.9234,66.7841 C66.4644,66.2381 66.9414,65.5991 67.3404,64.8841 C67.6064,64.4091 67.5334,63.8151 67.1594,63.4181 L64.7824,60.8911 C64.8354,60.4761 64.9294,59.9341 65.0754,59.5531 C65.2134,59.1931 65.4564,58.8031 65.6644,58.5071 L69.1104,58.3831 C69.6554,58.3641 70.1244,57.9941 70.2704,57.4691 C70.4884,56.6811 70.6004,55.8921 70.6004,55.1231 C70.6004,54.3531 70.4884,53.5641 70.2704,52.7761" id="Fill-18" fill="#ECEEEF"></path>
            </g>
        </g>
    </g>
</svg>