<?xml version="1.0" encoding="UTF-8"?>
<svg width="140px" height="140px" viewBox="0 0 140 140" version="1.1" xmlns="http://www.w3.org/2000/svg" xmlns:xlink="http://www.w3.org/1999/xlink">
    <title>pictogram/light/people/gesture/person/duo</title>
    <defs>
        <polygon id="path-1" points="0 0 140 0 140 139.9999 0 139.9999"></polygon>
    </defs>
    <g id="pictogram/light/people/gesture/person/duo" stroke="none" stroke-width="1" fill="none" fill-rule="evenodd">
        <g id="gesture-person-duo" transform="translate(0.000000, 0.000000)">
            <g id="Group-3">
                <mask id="mask-2" fill="white">
                    <use xlink:href="#path-1"></use>
                </mask>
                <g id="Clip-2"></g>
                <path d="M70,-0.0001 C31.34,-0.0001 0,31.3399 0,69.9999 C0,108.6599 31.34,139.9999 70,139.9999 C108.66,139.9999 140,108.6599 140,69.9999 C140,31.3399 108.66,-0.0001 70,-0.0001" id="Fill-1" fill="#DDE4E3" mask="url(#mask-2)"></path>
            </g>
            <g id="Group-22" transform="translate(0.383900, 24.533100)">
                <path d="M99.4987,14.643 C99.4987,22.729 93.3917,29.285 85.8597,29.285 C78.3267,29.285 72.2197,22.729 72.2197,14.643 C72.2197,6.556 78.3267,0 85.8597,0 C93.3917,0 99.4987,6.556 99.4987,14.643" id="Fill-4" fill="#23366F"></path>
                <path d="M93.3905,32.7832 C93.3905,32.7832 92.6465,29.4322 92.2425,27.7662 C91.9905,26.7262 92.2135,25.8562 92.9175,25.1152 C93.5665,24.4332 94.1545,23.7092 94.5315,22.8062 C95.6035,20.2362 95.9035,17.5282 95.8295,14.7482 C95.8205,14.3802 95.7445,14.1432 95.5625,14.0052 C95.4215,13.8992 95.2195,13.8482 94.9255,13.8502 C91.2165,13.8702 88.0455,12.0162 84.7555,10.5652 C81.3015,9.0422 76.3655,11.0552 75.8185,14.3892 C75.7935,18.3352 75.9145,22.2282 78.8245,25.2522 C79.3535,25.8022 79.6105,26.5432 79.4435,27.3312 C79.0555,29.1562 78.1935,32.7842 78.1935,32.7842 C78.1935,32.7842 80.2605,38.1732 85.8665,38.1732 C91.4735,38.1732 93.3905,32.7832 93.3905,32.7832" id="Fill-6" fill="#2167AE"></path>
                <path d="M68.1362,18.5395 C68.1362,26.6265 62.0292,33.1825 54.4972,33.1825 C46.9642,33.1825 40.8572,26.6265 40.8572,18.5395 C40.8572,10.4525 46.9642,3.8965 54.4972,3.8965 C62.0292,3.8965 68.1362,10.4525 68.1362,18.5395" id="Fill-8" fill="#2167AE"></path>
                <path d="M62.0279,36.6801 C62.0279,36.6801 61.2839,33.3291 60.8799,31.6631 C60.6279,30.6231 60.8509,29.7531 61.5559,29.0121 C62.2039,28.3301 62.7919,27.6061 63.1689,26.7021 C64.2409,24.1331 64.5409,21.4251 64.4679,18.6441 C64.4579,18.2761 64.3819,18.0401 64.1999,17.9021 C64.0589,17.7951 63.8569,17.7451 63.5629,17.7471 C59.8539,17.7671 56.6829,15.9121 53.3929,14.4621 C49.9389,12.9381 45.0039,14.9511 44.4559,18.2861 C44.4309,22.2321 44.5519,26.1241 47.4619,29.1491 C47.9909,29.6991 48.2479,30.4401 48.0809,31.2281 C47.6929,33.0531 46.8309,36.6811 46.8309,36.6811 C46.8309,36.6811 48.8979,42.0701 54.5039,42.0701 C60.1109,42.0701 62.0279,36.6801 62.0279,36.6801" id="Fill-10" fill="#91BFE3"></path>
                <path d="M67.8643,36.7636 C68.6963,36.8636 69.5223,37.0346 70.3413,37.3246 C71.3753,37.6886 72.3983,38.2386 73.4063,39.0806 C73.5343,39.1846 73.6623,39.3016 73.7903,39.4146 C73.8383,39.4576 73.8853,39.4956 73.9323,39.5396 C74.4263,39.9926 74.9193,40.5096 75.4063,41.1196 C75.6113,41.3766 75.8613,41.7516 76.1323,42.1866 C77.1343,43.6486 78.9433,48.9176 80.7483,54.4846 L80.8233,54.7116 L80.8233,54.7136 L85.8283,69.8466 L85.8283,69.8466 L105.6793,59.3376 C109.0873,57.5326 113.2203,58.4046 115.6393,61.2556 L115.6433,61.2546 L111.1133,47.5816 C111.1143,47.5776 111.1173,47.5736 111.1193,47.5686 C110.9093,46.9386 110.7023,46.3246 110.4983,45.7266 L110.4913,45.7086 L110.4913,45.7086 C109.2833,42.1796 108.1933,39.3086 107.4943,38.2896 C107.2233,37.8556 106.9733,37.4796 106.7683,37.2226 C106.2813,36.6136 105.7893,36.0956 105.2953,35.6436 C105.2483,35.5986 105.2003,35.5606 105.1533,35.5176 C105.0253,35.4046 104.8973,35.2876 104.7693,35.1836 C103.7603,34.3416 102.7373,33.7916 101.7033,33.4276 C100.8853,33.1386 100.0583,32.9676 99.2273,32.8676 C98.6613,32.7996 98.0923,32.7626 97.5213,32.7436 C96.8213,32.7216 96.1163,32.7224761 95.4103,32.7224761 L77.5643,32.7246 L76.2753,32.7224761 C73.0803,32.7224761 69.9353,32.6626 66.9163,35.1836 C66.7883,35.2876 66.6603,35.4046 66.5323,35.5176 C66.4853,35.5606 66.4373,35.5986 66.3903,35.6436 C66.0683,35.9386 65.7473,36.2746 65.4263,36.6336 C65.6703,36.6366 65.9163,36.6326 66.1583,36.6406 C66.7293,36.6596 67.2983,36.6956 67.8643,36.7636" id="Fill-12" fill="#91BFE3"></path>
                <path d="M65.8955,63.9043 L65.8955,63.9043 C65.8955,68.4993 62.2945,72.2883 57.7065,72.5233 L45.3305,73.1543 L63.6875,79.5793 C65.1295,80.0843 66.7155,79.9653 68.0655,79.2503 L85.8275,69.8473 L85.8285,69.8463 L80.8235,54.7133 L80.7685,54.5463 C80.7615,54.5263 80.7555,54.5053 80.7485,54.4853 C78.9435,48.9183 77.1335,43.6483 76.1315,42.1863 C75.8605,41.7523 75.6105,41.3763 75.4065,41.1203 C74.9185,40.5093 74.4265,39.9923 73.9325,39.5403 C73.8855,39.4953 73.8375,39.4573 73.7905,39.4143 C73.6625,39.3013 73.5345,39.1843 73.4065,39.0803 C72.3975,38.2383 71.3745,37.6883 70.3405,37.3243 C69.5215,37.0353 68.6965,36.8633 67.8645,36.7633 C67.2985,36.6953 66.7295,36.6593 66.1585,36.6403 C65.9165,36.6333 65.6705,36.6363 65.4265,36.6333 C64.9675,36.6273 64.5095,36.6191819 64.0475,36.6191819 L53.5465,36.6203 L46.2015,36.6213 L44.9125,36.6191819 C41.7175,36.6191819 38.5735,36.5603 35.5535,39.0803 C35.4255,39.1843 35.2975,39.3013 35.1705,39.4143 C35.1235,39.4573 35.0745,39.4953 35.0275,39.5403 C34.5335,39.9923 34.0415,40.5093 33.5545,41.1203 C33.3495,41.3763 33.0995,41.7523 32.8285,42.1863 C31.8285,43.6463 30.0425,48.7083 28.2505,54.1313 L57.6875,55.2843 C62.2845,55.5103 65.8955,59.3023 65.8955,63.9043" id="Fill-14" fill="#2167AE"></path>
                <path d="M116.418,62.3291 C116.186,61.9431 115.921,61.5891 115.639,61.2561 C113.22,58.4041 109.087,57.5331 105.68,59.3371 L85.829,69.8471 L85.827,69.8471 L68.066,79.2501 C66.716,79.9651 65.129,80.0841 63.688,79.5791 L45.33,73.1551 L57.706,72.5231 C62.295,72.2881 65.896,68.4991 65.896,63.9041 C65.896,59.3021 62.284,55.5101 57.688,55.2851 L28.251,54.1311 L0,53.0231 C1.204,64.2371 5.062,74.6511 10.925,83.6411 L50.882,97.7201 C58.699,100.5991 67.389,99.8751 74.621,95.7431 L105.808,77.9221 C103.949,74.6481 105.048,70.4751 108.302,68.5511 C111.148,66.8681 114.709,67.4591 116.876,69.7801 C117.905,67.4541 117.829,64.6811 116.418,62.3291" id="Fill-16" fill="#5495CF"></path>
                <path d="M108.302,68.5512 C111.149,66.8682 114.708,67.4592 116.876,69.7802 C116.202,71.3052 115.053,72.6392 113.491,73.5312 L105.808,77.9222 C103.949,74.6482 105.048,70.4752 108.302,68.5512" id="Fill-18" fill="#2167AE"></path>
                <path d="M52.2206,63.896 C52.2206,60.875 54.6696,58.426 57.6896,58.426 C60.7106,58.426 63.1586,60.875 63.1586,63.896 C63.1586,66.917 60.7106,69.365 57.6896,69.365 C54.6696,69.365 52.2206,66.917 52.2206,63.896" id="Fill-20" fill="#2167AE"></path>
            </g>
        </g>
    </g>
</svg>