<?xml version="1.0" encoding="UTF-8"?>
<svg width="140px" height="140px" viewBox="0 0 140 140" version="1.1" xmlns="http://www.w3.org/2000/svg" xmlns:xlink="http://www.w3.org/1999/xlink">
    <title>pictogram/light/people/gesture/person/single</title>
    <defs>
        <polygon id="path-1" points="0.25 0.25 0.75 0.25 0.75 0.75 0.25 0.75"></polygon>
        <polygon id="path-3" points="0.25 0.25 0.75 0.25 0.75 0.75 0.25 0.75"></polygon>
        <path d="M70,0 C31.339,0 2.88657986e-15,31.34 2.88657986e-15,70 L2.88657986e-15,70 C2.88657986e-15,108.66 31.339,140 70,140 L70,140 C108.546,140 139.816,108.844 139.999,70.339 L139.999,70.339 L139.999,69.66" id="path-5"></path>
        <path d="M70,0 C31.339,0 2.88657986e-15,31.34 2.88657986e-15,70 L2.88657986e-15,70 C2.88657986e-15,108.66 31.339,140 70,140 L70,140 C108.546,140 139.816,108.844 139.999,70.339 L139.999,70.339 L139.999,69.66" id="path-7"></path>
        <path d="M70,0 C31.339,0 2.88657986e-15,31.34 2.88657986e-15,70 L2.88657986e-15,70 C2.88657986e-15,108.66 31.339,140 70,140 L70,140 C108.546,140 139.816,108.844 139.999,70.339 L139.999,70.339 L139.999,69.66 C139.816,31.157 108.546,0 70,0 Z" id="path-9"></path>
        <path d="M70,0 C31.339,0 2.88657986e-15,31.34 2.88657986e-15,70 L2.88657986e-15,70 C2.88657986e-15,108.66 31.339,140 70,140 L70,140 C108.546,140 139.816,108.844 139.999,70.339 L139.999,70.339 L139.999,69.66" id="path-11"></path>
        <path d="M70,0 C31.339,0 2.88657986e-15,31.34 2.88657986e-15,70 L2.88657986e-15,70 C2.88657986e-15,108.66 31.339,140 70,140 L70,140 C108.546,140 139.816,108.844 139.999,70.339 L139.999,70.339 L139.999,69.66" id="path-13"></path>
    </defs>
    <g id="pictogram/light/people/gesture/person/single" stroke="none" stroke-width="1" fill="none" fill-rule="evenodd">
        <g id="gesture-person-single" transform="translate(-0.000000, 0.000000)">
            <path d="M140.55,70 C140.55,108.66 109.209,140 70.55,140 C31.89,140 0.55,108.66 0.55,70 C0.55,31.34 31.89,0 70.55,0 C109.209,0 140.55,31.34 140.55,70" id="Fill-1" fill="#DDE4E3"></path>
            <g id="Group-9" transform="translate(0.000000, 139.250000)">
                <g id="Group-5">
                    <mask id="mask-2" fill="white">
                        <use xlink:href="#path-1"></use>
                    </mask>
                    <g id="Clip-4"></g>
                    <path d="" id="Fill-3" fill="#DAD2BD" mask="url(#mask-2)"></path>
                </g>
                <g id="Group-8">
                    <mask id="mask-4" fill="white">
                        <use xlink:href="#path-3"></use>
                    </mask>
                    <g id="Clip-7"></g>
                    <path d="" id="Fill-6" fill="#ECEEEF" mask="url(#mask-4)"></path>
                </g>
            </g>
            <g id="Group-31" transform="translate(0.550000, 0.000000)">
                <g id="Group-12" transform="translate(37.903300, 59.985697)" fill="#2167AE">
                    <path d="M0,35.8693031 L30.423,48.8723031 C30.423,48.8723031 65.9217,23.9683031 66.0467,24.0143031 C63.9127,17.5033031 61.068,8.90530309 59.881,7.17330309 C59.531,6.61330309 59.21,6.12930309 58.946,5.79930309 C58.318,5.01330309 57.685,4.34730309 57.048,3.76430309 C56.986,3.70630309 56.926,3.65730309 56.864,3.60130309 C56.699,3.45530309 56.535,3.30630309 56.37,3.17130309 C55.07,2.08630309 53.753,1.37830309 52.42,0.909303085 C51.365,0.536303085 50.301,0.315303085 49.229,0.186303085 C48.501,0.0993030854 47.768,0.0523030854 47.032,0.0283030854 C46.13,-0.00169691457 45.223,0 44.313,0 L30.783,0.00230308543 L21.32,0.00330308543 L19.66,0 C15.544,0 11.492,-0.0756969146 7.603,3.17130309 C7.437,3.30630309 7.272,3.45530309 7.108,3.60130309 C7.047,3.65730309 6.985,3.70630309 6.925,3.76430309 C6.287,4.34730309 5.654,5.01330309 5.026,5.79930309 C4.763,6.12930309 4.44,6.61330309 4.092,7.17330309 C3.143,8.55730309 1.646,12.4593031 0,17.2073031 L0,35.8693031 Z" id="Fill-10"></path>
                </g>
                <g id="Group-15">
                    <mask id="mask-6" fill="white">
                        <use xlink:href="#path-5"></use>
                    </mask>
                    <g id="Clip-14"></g>
                    <path d="M69.9114,55.5584 C60.2064,55.5584 52.3384,47.1124 52.3384,36.6934 C52.3384,26.2744 60.2064,17.8284 69.9114,17.8284 C79.6164,17.8284 87.4834,26.2744 87.4834,36.6934 C87.4834,47.1124 79.6164,55.5584 69.9114,55.5584 Z" id="Fill-13" fill="#23366F" mask="url(#mask-6)"></path>
                </g>
                <g id="Group-18">
                    <mask id="mask-8" fill="white">
                        <use xlink:href="#path-7"></use>
                    </mask>
                    <g id="Clip-17"></g>
                    <path d="M79.6133,60.0648 C79.6133,60.0648 78.6553,55.7478 78.1343,53.6008 C77.8103,52.2618 78.0973,51.1408 79.0053,50.1858 C79.8413,49.3068 80.5983,48.3738 81.0843,47.2108 C82.4653,43.8998 82.8513,40.4108 82.7573,36.8288 C82.7443,36.3548 82.6463,36.0498 82.4113,35.8718 C82.2303,35.7348 81.9703,35.6708 81.5923,35.6728 C76.8123,35.6988 72.7263,33.3088 68.4893,31.4398 C64.0393,29.4778 57.6803,32.0708 56.9743,36.3678 C56.9433,41.4508 57.0983,46.4658 60.8473,50.3618 C61.5293,51.0708 61.8603,52.0248 61.6443,53.0408 C61.1453,55.3918 60.0353,60.0668 60.0353,60.0668 C60.0353,60.0668 62.6973,67.0078 69.9203,67.0078 C77.1433,67.0078 79.6133,60.0648 79.6133,60.0648" id="Fill-16" fill="#5495CF" mask="url(#mask-8)"></path>
                </g>
                <g id="Group-21">
                    <mask id="mask-10" fill="white">
                        <use xlink:href="#path-9"></use>
                    </mask>
                    <g id="Clip-20"></g>
                </g>
                <g id="Group-24">
                    <mask id="mask-12" fill="white">
                        <use xlink:href="#path-11"></use>
                    </mask>
                    <g id="Clip-23"></g>
                    <path d="M116.8301,85.0418 C114.6141,81.3488 109.8971,80.0348 106.0921,82.0498 L68.4781,101.9628 C67.1281,102.6778 65.5411,102.7968 64.1001,102.2928 L45.7421,95.8678 L58.1181,95.2358 C62.7071,95.0018 66.3081,91.2128 66.3081,86.6178 L66.3081,86.6168 C66.3081,82.0148 62.6961,78.2228 58.1011,77.9978 L-0.2999,75.7208 C-0.1529,86.0958 2.2381,95.9258 6.4301,104.7398 L51.2951,120.4328 C59.1111,123.3118 67.8011,122.5888 75.0331,118.4558 L106.2201,100.6348 C104.3611,97.3608 105.4601,93.1878 108.7141,91.2638 C111.5601,89.5808 115.1211,90.1718 117.2881,92.4928 C118.3161,90.1678 118.2411,87.3938 116.8301,85.0418" id="Fill-22" fill="#91BFE3" mask="url(#mask-12)"></path>
                </g>
                <g id="Group-27">
                    <mask id="mask-14" fill="white">
                        <use xlink:href="#path-13"></use>
                    </mask>
                    <g id="Clip-26"></g>
                    <path d="M117.2878,92.4923 C116.6138,94.0183 115.4648,95.3513 113.9018,96.2443 L106.2198,100.6343 C104.3608,97.3603 105.4598,93.1883 108.7138,91.2643 C111.5608,89.5813 115.1208,90.1713 117.2878,92.4923 Z" id="Fill-25" fill="#5495CF" mask="url(#mask-14)"></path>
                </g>
                <g id="Group-30" transform="translate(52.632800, 81.139600)" fill="#5495CF">
                    <path d="M5.47,0 C8.49,0 10.938,2.448 10.938,5.469 C10.938,8.49 8.49,10.938 5.47,10.938 C2.449,10.938 0,8.49 0,5.469 C0,2.448 2.449,0 5.47,0 Z" id="Fill-28"></path>
                </g>
            </g>
        </g>
    </g>
</svg>