<?xml version="1.0" encoding="UTF-8"?>
<svg width="140px" height="140px" viewBox="0 0 140 140" version="1.1" xmlns="http://www.w3.org/2000/svg" xmlns:xlink="http://www.w3.org/1999/xlink">
    <title>pictogram/light/business &amp; education/suitcase/globe</title>
    <defs>
        <path d="M7.10542736e-15,45.769 C7.10542736e-15,71.047 20.491,91.539 45.769,91.539 L45.769,91.539 C71.047,91.539 91.539,71.047 91.539,45.769 L91.539,45.769 C91.539,20.491 71.047,0 45.769,0 L45.769,0 C20.491,0 7.10542736e-15,20.491 7.10542736e-15,45.769 L7.10542736e-15,45.769 Z" id="path-1"></path>
        <path d="M7.10542736e-15,45.769 C7.10542736e-15,71.047 20.491,91.539 45.769,91.539 L45.769,91.539 C71.047,91.539 91.539,71.047 91.539,45.769 L91.539,45.769 C91.539,20.491 71.047,0 45.769,0 L45.769,0 C20.491,0 7.10542736e-15,20.491 7.10542736e-15,45.769 L7.10542736e-15,45.769 Z" id="path-3"></path>
    </defs>
    <g id="pictogram/light/business-&amp;-education/suitcase/globe" stroke="none" stroke-width="1" fill="none" fill-rule="evenodd">
        <g id="suitcase-globe">
            <path d="M140,70 C140,108.66 108.659,140 70,140 C31.34,140 0,108.66 0,70 C0,31.34 31.34,0 70,0 C108.659,0 140,31.34 140,70" id="circle" fill="#DDE4E3"></path>
            <g id="picto" transform="translate(24.230500, 24.519100)">
                <path d="M91.539,45.9172 C91.539,20.6392 71.047,0.1472 45.769,0.1472 C20.491,0.1472 0,20.6392 0,45.9172 C0,71.1952 20.491,91.6872 45.769,91.6872 C71.047,91.6872 91.539,71.1952 91.539,45.9172" id="Fill-4" fill="#2167AE"></path>
                <g id="Group-10" transform="translate(0.000100, 0.147900)">
                    <mask id="mask-2" fill="white">
                        <use xlink:href="#path-1"></use>
                    </mask>
                    <g id="Clip-7"></g>
                    <polygon id="Fill-6" fill="#5495CF" mask="url(#mask-2)" points="4.811 23.884 86.002 23.884 86.002 21.884 4.811 21.884"></polygon>
                    <polygon id="Fill-8" fill="#5495CF" mask="url(#mask-2)" points="-0.727 46.832 14.321 46.832 14.321 44.832 -0.727 44.832"></polygon>
                    <polygon id="Fill-9" fill="#5495CF" mask="url(#mask-2)" points="14.321 46.832 92.289 46.832 92.289 44.832 14.321 44.832"></polygon>
                </g>
                <g id="Group-15" transform="translate(13.046500, 0.000000)" fill="#5495CF">
                    <path d="M32.723,2.5 C28.978,2.5 23.755,19.011 23.755,45.901 C23.755,72.791 28.978,89.303 32.723,89.303 C36.468,89.303 41.691,72.791 41.691,45.901 C41.691,19.011 36.468,2.5 32.723,2.5 M32.723,91.803 C25.195,91.803 21.255,68.711 21.255,45.901 C21.255,23.091 25.195,0 32.723,0 C40.251,0 44.191,23.091 44.191,45.901 C44.191,68.711 40.251,91.803 32.723,91.803" id="Fill-11"></path>
                    <path d="M32.723,2.5 C16.058,2.5 2.5,21.97 2.5,45.901 C2.5,69.833 16.058,89.303 32.723,89.303 C49.387,89.303 62.945,69.833 62.945,45.901 C62.945,21.97 49.387,2.5 32.723,2.5 M32.723,91.803 C14.68,91.803 0,71.211 0,45.901 C0,20.591 14.68,0 32.723,0 C50.766,0 65.445,20.591 65.445,45.901 C65.445,71.211 50.766,91.803 32.723,91.803" id="Fill-13"></path>
                </g>
                <g id="Group-21" transform="translate(0.000100, 0.147900)">
                    <mask id="mask-4" fill="white">
                        <use xlink:href="#path-3"></use>
                    </mask>
                    <g id="Clip-17"></g>
                    <polygon id="Fill-16" fill="#5495CF" mask="url(#mask-4)" points="4.857 24.134 86.734 24.134 86.734 21.634 4.857 21.634"></polygon>
                    <polygon id="Fill-18" fill="#5495CF" mask="url(#mask-4)" points="4.939 69.904 86.465 69.904 86.465 67.404 4.939 67.404"></polygon>
                    <polygon id="Fill-19" fill="#5495CF" mask="url(#mask-4)" points="-0.727 47.082 14.448 47.082 14.448 44.582 -0.727 44.582"></polygon>
                    <polygon id="Fill-20" fill="#5495CF" mask="url(#mask-4)" points="14.448 47.082 93.075 47.082 93.075 44.582 14.448 44.582"></polygon>
                </g>
                <g id="Group-32" transform="translate(24.958000, 28.425600)">
                    <path d="M26.7978,8.083 C26.3268,8.083 25.9448,7.701 25.9448,7.23 L25.9448,2.15 C25.9448,1.968 25.6458,1.705 25.1758,1.705 L15.4458,1.705 C14.9768,1.705 14.6768,1.968 14.6768,2.15 L14.6768,7.23 C14.6768,7.701 14.2958,8.083 13.8248,8.083 C13.3548,8.083 12.9728,7.701 12.9728,7.23 L12.9728,2.15 C12.9728,0.964 14.0818,0 15.4458,0 L25.1758,0 C26.5398,0 27.6498,0.964 27.6498,2.15 L27.6498,7.23 C27.6498,7.701 27.2688,8.083 26.7978,8.083" id="Fill-22" fill="#91BFE3"></path>
                    <path d="M40.038,16.9378 C39.69,16.8208 39.306,16.9438 39.086,17.2378 C36.429,20.8128 30.524,22.7018 22.013,22.7018 L18.589,22.7018 C10.098,22.7018 4.2,20.8218 1.534,17.2638 C1.313,16.9698 0.93,16.8508 0.583,16.9658 C0.234,17.0818 0,17.4078 0,17.7748 L0,28.0738 C0,31.4028 2.564,34.1108 5.717,34.1108 L34.905,34.1108 C38.058,34.1108 40.623,31.4028 40.623,28.0738 L40.623,17.7468 C40.623,17.3798 40.387,17.0528 40.038,16.9378" id="Fill-24" fill="#5495CF"></path>
                    <path d="M34.9052,6.4861 L5.7172,6.4861 C2.5642,6.4861 0.0002,9.1941 0.0002,12.5231 L0.0002,17.7751 C0.0002,17.9591 0.0592,18.1381 0.1702,18.2861 C3.2142,22.3471 9.4112,24.4071 18.5892,24.4071 L22.0122,24.4071 C31.2142,24.4071 37.4192,22.3371 40.4542,18.2551 C40.5632,18.1081 40.6232,17.9301 40.6232,17.7471 L40.6232,12.5231 C40.6232,9.1941 38.0572,6.4861 34.9052,6.4861" id="Fill-26" fill="#91BFE3"></path>
                    <line x1="20.3105" y1="21.1614" x2="20.3105" y2="25.9584" id="Fill-28" fill="#2167AE"></line>
                    <path d="M20.3115,26.8105 C19.8405,26.8105 19.4585,26.4285 19.4585,25.9575 L19.4585,21.1615 C19.4585,20.6905 19.8405,20.3085 20.3115,20.3085 C20.7825,20.3085 21.1635,20.6905 21.1635,21.1615 L21.1635,25.9575 C21.1635,26.4285 20.7825,26.8105 20.3115,26.8105" id="Fill-30" fill="#2167AE"></path>
                </g>
            </g>
        </g>
    </g>
</svg>