<?xml version="1.0" encoding="UTF-8"?>
<svg width="140px" height="140px" viewBox="0 0 140 140" version="1.1" xmlns="http://www.w3.org/2000/svg" xmlns:xlink="http://www.w3.org/1999/xlink">
    <title>pictogram/light/business &amp; education/suitcase/plain</title>
    <g id="pictogram/light/business-&amp;-education/suitcase/plain" stroke="none" stroke-width="1" fill="none" fill-rule="evenodd">
        <g id="suitcase" transform="translate(0.000000, 0.000000)">
            <path d="M140.045,70.022 C140.045,108.694 108.694,140.044 70.023,140.044 C31.35,140.044 0,108.694 0,70.022 C0,31.35 31.35,0 70.023,0 C108.694,0 140.045,31.35 140.045,70.022" id="circle" fill="#DDE4E3"></path>
            <g id="picto" transform="translate(30.225300, 36.604400)">
                <path d="M52.5053,15.838 C51.5833,15.838 50.8363,15.09 50.8363,14.167 L50.8363,4.213 C50.8363,3.858 50.2483,3.341 49.3283,3.341 L30.2653,3.341 C29.3453,3.341 28.7583,3.858 28.7583,4.213 L28.7583,14.167 C28.7583,15.09 28.0103,15.838 27.0883,15.838 C26.1653,15.838 25.4183,15.09 25.4183,14.167 L25.4183,4.213 C25.4183,1.89 27.5923,0 30.2653,0 L49.3283,0 C52.0013,0 54.1753,1.89 54.1753,4.213 L54.1753,14.167 C54.1753,15.09 53.4283,15.838 52.5053,15.838" id="Fill-4" fill="#2167AE"></path>
                <path d="M78.4486,33.1874 C77.7666,32.9594 77.0126,33.1984 76.5836,33.7754 C71.3756,40.7804 59.8066,44.4814 43.1306,44.4814 L36.4236,44.4814 C19.7856,44.4814 8.2306,40.7964 3.0076,33.8254 C2.5746,33.2494 1.8216,33.0174 1.1426,33.2424 C0.4606,33.4694 0.0006,34.1084 0.0006,34.8274 L0.0006,55.0074 C0.0006,61.5294 5.0246,66.8354 11.2016,66.8354 L68.3916,66.8354 C74.5676,66.8354 79.5936,61.5294 79.5936,55.0074 L79.5936,34.7724 C79.5936,34.0524 79.1326,33.4134 78.4486,33.1874" id="Fill-6" fill="#5495CF"></path>
                <path d="M68.392,12.7092 L11.202,12.7092 C5.025,12.7092 0,18.0152 0,24.5372 L0,34.8272 C0,35.1882 0.118,35.5392 0.333,35.8282 C6.297,43.7862 18.439,47.8222 36.423,47.8222 L43.13,47.8222 C61.16,47.8222 73.317,43.7662 79.264,35.7692 C79.478,35.4812 79.593,35.1312 79.593,34.7722 L79.593,24.5372 C79.593,18.0152 74.568,12.7092 68.392,12.7092" id="Fill-8" fill="#91BFE3"></path>
                <line x1="39.7963" y1="41.4628" x2="39.7963" y2="50.8608" id="Fill-10" fill="#2167AE"></line>
                <path d="M39.7973,52.5313 C38.8743,52.5313 38.1273,51.7833 38.1273,50.8603 L38.1273,41.4633 C38.1273,40.5413 38.8743,39.7923 39.7973,39.7923 C40.7193,39.7923 41.4673,40.5413 41.4673,41.4633 L41.4673,50.8603 C41.4673,51.7833 40.7193,52.5313 39.7973,52.5313" id="Fill-12" fill="#2167AE"></path>
            </g>
        </g>
    </g>
</svg>