<?xml version="1.0" encoding="UTF-8"?>
<svg width="140px" height="140px" viewBox="0 0 140 140" version="1.1" xmlns="http://www.w3.org/2000/svg" xmlns:xlink="http://www.w3.org/1999/xlink">
    <title>pictogram/light/health/covid-19</title>
    <g id="pictogram/light/health/covid-19" stroke="none" stroke-width="1" fill="none" fill-rule="evenodd">
        <g id="covid-19" transform="translate(0.000000, 0.000200)">
            <path d="M140,70 C140,108.66 108.66,140 70,140 C31.34,140 0,108.66 0,70 C0,31.34 31.34,0 70,0 C108.66,0 140,31.34 140,70" id="circle" fill="#DDE4E3"></path>
            <g id="picto" transform="translate(12.144260, 17.802399)">
                <path d="M109.92994,44.2620013 C108.02794,44.4350013 106.46694,45.6000013 105.67394,47.1930013 L96.3169399,48.0430013 C95.3099399,38.9230013 91.0749399,30.7820013 84.7789399,24.7740013 L90.3079399,17.6980013 C92.2429399,18.1310013 94.3419399,17.4710013 95.6439399,15.8040013 C97.4469399,13.4970013 97.0379399,10.1650013 94.7299399,8.36300126 C92.4229399,6.56000126 89.0909399,6.96900126 87.2889399,9.27700126 C86.1129399,10.7820013 85.8939399,12.7170013 86.5129399,14.3860013 L80.9189399,21.5460013 C75.1679399,17.3510013 68.1989399,14.7290013 60.6369399,14.3220013 L60.6349399,9.80400126 C62.1489399,8.86900126 63.1679399,7.20900126 63.1659399,5.29900126 C63.1649399,2.37000126 60.7899399,-0.00199873617 57.8619399,0 C54.9329399,0.00200126383 52.5609399,2.37700126 52.5629399,5.30500126 C52.5639399,7.42000126 53.8129399,9.23100126 55.6049399,10.0800013 L55.6079399,14.3880013 C45.5339399,15.1630013 36.5619399,19.8590013 30.2179399,26.9620013 L23.5719399,21.7700013 C23.7699399,20.0010013 23.0889399,18.1760013 21.5839399,17 C19.2769399,15.1980013 15.9449399,15.6060013 14.1419399,17.9140013 C12.3399399,20.2210013 12.7479399,23.5530013 15.0559399,25.3560013 C16.7219399,26.6580013 18.9179399,26.7900013 20.6919399,25.9020013 L27.1179399,30.9230013 C22.9829399,37.0060013 20.5639399,44.3490013 20.5639399,52.2590013 C20.5639399,52.4990013 20.5779399,52.7360013 20.5819399,52.9750013 L9.53693995,53.9780013 C8.47093995,52.5540013 6.72493995,51.6890013 4.82293995,51.8620013 C1.90693995,52.1260013 -0.242060053,54.7050013 0.0219399468,57.6210013 C0.286939947,60.5370013 2.86593995,62.6860013 5.78193995,62.4220013 C7.88793995,62.2300013 9.57893995,60.8240013 10.2639399,58.9630013 L20.9949399,57.9880013 C22.3089399,66.6750013 26.5669399,74.3900013 32.7149399,80.1000013 L25.6649399,89.1240013 C23.8969399,88.9270013 22.0709399,89.6070013 20.8949399,91.1130013 C19.0929399,93.4200013 19.5019399,96.7520013 21.8089399,98.5540013 C24.1169399,100.357001 27.4489399,99.9480013 29.2509399,97.6410013 C30.5539399,95.9740013 30.6849399,93.7790013 29.7969399,92.0050013 L36.6209399,83.2710013 C42.5179399,87.4500013 49.6549399,89.9880013 57.3749399,90.2240013 L57.3779399,95.6980013 C55.5869399,96.5500013 54.3399399,98.3620013 54.3419399,100.477001 C54.3429399,103.405001 56.7179399,105.777001 59.6459399,105.775003 C62.5749399,105.775003 64.9469399,103.399001 64.9449399,100.470001 C64.9439399,98.5600013 63.9239399,96.9010013 62.4079399,95.9690013 L62.4049399,90.0610013 C71.3199399,89.1650013 79.3249399,85.1870013 85.3409399,79.2080013 L91.7059399,84.1810013 C91.2729399,86.1170013 91.9319399,88.2150013 93.5989399,89.5170013 C95.9069399,91.3200013 99.2389399,90.9110013 101.04094,88.6040013 C102.84394,86.2960013 102.43494,82.9650013 100.12694,81.1620013 C98.6219399,79.9860013 96.6869399,79.7670013 95.0179399,80.3870013 L88.6669399,75.4250013 C93.4539399,69.2120013 96.3569399,61.4800013 96.5349399,53.0730013 L105.85594,52.2270013 C106.86494,53.9340013 108.78194,55.0130013 110.88794,54.8220013 C113.80494,54.5570013 115.95394,51.9790013 115.68894,49.0630013 C115.42494,46.1470013 112.84594,43.9970013 109.92994,44.2620013" id="Fill-4" fill="#2167AE"></path>
                <path d="M43.6081399,42.5472013 C42.7531399,42.5472013 42.0121399,42.3572013 41.3881399,41.9772013 C40.7641399,41.5972013 40.2871399,41.0722013 39.9551399,40.4042013 C39.6231399,39.7362013 39.4571399,38.9792013 39.4571399,38.1312013 C39.4571399,37.2822013 39.6211399,36.5252013 39.9491399,35.8572013 C40.2761399,35.1892013 40.7531399,34.6652013 41.3771399,34.2842013 C42.0011399,33.9042013 42.7361399,33.7152013 43.5851399,33.7152013 C44.2241399,33.7152013 44.8001399,33.8392013 45.3121399,34.0872013 C45.8251399,34.3352013 46.2431399,34.6872013 46.5661399,35.1432013 C46.8901399,35.5992013 47.1081399,36.1392013 47.2201399,36.7632013 L45.8291399,36.7632013 C45.6761399,36.1712013 45.4151399,35.7232013 45.0431399,35.4192013 C44.6701399,35.1142013 44.1801399,34.9632013 43.5731399,34.9632013 C43.0041399,34.9632013 42.5161399,35.1012013 42.1081399,35.3772013 C41.7011399,35.6522013 41.3881399,36.0322013 41.1721399,36.5172013 C40.9571399,37.0012013 40.8481399,37.5382013 40.8481399,38.1312013 C40.8481399,38.7632013 40.9551399,39.3182013 41.1671399,39.7992013 C41.3791399,40.2782013 41.6901399,40.6492013 42.1021399,40.9082013 C42.5141399,41.1692013 43.0081399,41.2992013 43.5851399,41.2992013 C43.9761399,41.2992013 44.3271399,41.2252013 44.6341399,41.0762013 C44.9421399,40.9292013 45.1971399,40.7172013 45.3961399,40.4412013 C45.5961399,40.1642013 45.7411399,39.8392013 45.8291399,39.4632013 L47.1841399,39.4632013 C47.0961399,40.0872013 46.8941399,40.6312013 46.5791399,41.0952013 C46.2621399,41.5592013 45.8501399,41.9162013 45.3421399,42.1692013 C44.8351399,42.4212013 44.2561399,42.5472013 43.6081399,42.5472013" id="Fill-6" fill="#91BFE3"></path>
                <path d="M52.3679399,41.2991013 C52.9279399,41.2991013 53.4139399,41.1661013 53.8259399,40.9031013 C54.2379399,40.6391013 54.5549399,40.2711013 54.7739399,39.7991013 C54.9939399,39.3261013 55.1039399,38.7781013 55.1039399,38.1541013 C55.1039399,37.5301013 54.9939399,36.9791013 54.7739399,36.4981013 C54.5549399,36.0191013 54.2359399,35.6431013 53.8199399,35.3701013 C53.4039399,35.0991013 52.9199399,34.9631013 52.3679399,34.9631013 C51.8239399,34.9631013 51.3439399,35.0991013 50.9289399,35.3701013 C50.5129399,35.6431013 50.1899399,36.0191013 49.9619399,36.4981013 C49.7339399,36.9791013 49.6199399,37.5301013 49.6199399,38.1541013 C49.6199399,38.7781013 49.7319399,39.3261013 49.9559399,39.7991013 C50.1799399,40.2711013 50.4999399,40.6391013 50.9159399,40.9031013 C51.3319399,41.1661013 51.8159399,41.2991013 52.3679399,41.2991013 M52.3799399,42.5471013 C51.5399399,42.5471013 50.8059399,42.3591013 50.1789399,41.9831013 C49.5499399,41.6071013 49.0679399,41.0871013 48.7319399,40.4231013 C48.3959399,39.7591013 48.2279399,39.0031013 48.2279399,38.1541013 C48.2279399,37.2991013 48.3959399,36.5341013 48.7319399,35.8621013 C49.0679399,35.1911013 49.5499399,34.6651013 50.1789399,34.2841013 C50.8059399,33.9041013 51.5399399,33.7151013 52.3799399,33.7151013 C53.2209399,33.7151013 53.9499399,33.9041013 54.5699399,34.2841013 C55.1899399,34.6651013 55.6679399,35.1911013 56.0039399,35.8621013 C56.3409399,36.5341013 56.5089399,37.2991013 56.5089399,38.1541013 C56.5089399,39.0031013 56.3419399,39.7591013 56.0109399,40.4231013 C55.6789399,41.0871013 55.1999399,41.6071013 54.5759399,41.9831013 C53.9519399,42.3591013 53.2209399,42.5471013 52.3799399,42.5471013" id="Fill-8" fill="#91BFE3"></path>
                <polygon id="Fill-10" fill="#91BFE3" points="60.1199399 42.3548013 57.0239399 33.9068013 58.4999399 33.9068013 60.9729399 40.6628013 63.4329399 33.9068013 64.9209399 33.9068013 61.8119399 42.3548013"></polygon>
                <polygon id="Fill-12" fill="#91BFE3" points="66.2167399 42.3544013 67.5847399 42.3544013 67.5847399 33.9064013 66.2167399 33.9064013"></polygon>
                <path d="M72.7204399,41.1429013 C73.5604399,41.1429013 74.2164399,40.8849013 74.6884399,40.3689013 C75.1604399,39.8529013 75.3964399,39.1109013 75.3964399,38.1429013 C75.3964399,37.1749013 75.1604399,36.4289013 74.6884399,35.9049013 C74.2164399,35.3809013 73.5604399,35.1189013 72.7204399,35.1189013 L71.0404399,35.1189013 L71.0404399,41.1429013 L72.7204399,41.1429013 Z M69.6724399,42.3549013 L69.6724399,33.9069013 L72.7324399,33.9069013 C73.5884399,33.9069013 74.3214399,34.0799013 74.9284399,34.4229013 C75.5364399,34.7669013 75.9984399,35.2549013 76.3144399,35.8869013 C76.6304399,36.5189013 76.7884399,37.2709013 76.7884399,38.1429013 C76.7884399,39.0149013 76.6304399,39.7649013 76.3144399,40.3929013 C75.9984399,41.0209013 75.5364399,41.5049013 74.9284399,41.8449013 C74.3214399,42.1849013 73.5884399,42.3549013 72.7324399,42.3549013 L69.6724399,42.3549013 Z" id="Fill-14" fill="#91BFE3"></path>
                <path d="M45.7917399,52.3284013 C44.9307399,52.9874013 43.9867399,53.5014013 42.9607399,53.8674013 C41.9357399,54.2354013 40.8897399,54.4324013 39.8257399,54.4564013 L39.8257399,50.6184013 C41.3457399,50.5174013 42.7077399,50.0164013 43.9107399,49.1174013 C45.1137399,48.2194013 45.9437399,47.0474013 46.3997399,45.6024013 L50.1237399,45.6024013 L50.1237399,72.3544013 L45.7917399,72.3544013 L45.7917399,52.3284013 Z" id="Fill-15" fill="#91BFE3"></path>
                <path d="M64.8298399,59.8909013 C65.8938399,59.8909013 66.8448399,59.6509013 67.6808399,59.1689013 C68.5168399,58.6879013 69.1618399,58.0289013 69.6178399,57.1929013 C70.0738399,56.3569013 70.3028399,55.3939013 70.3028399,54.3049013 C70.3028399,53.2919013 70.0798399,52.3549013 69.6378399,51.4929013 C69.1938399,50.6319013 68.5598399,49.9479013 67.7368399,49.4409013 C66.9138399,48.9339013 65.9708399,48.6809013 64.9058399,48.6809013 C63.8158399,48.6809013 62.8538399,48.9279013 62.0178399,49.4219013 C61.1828399,49.9149013 60.5358399,50.5869013 60.0798399,51.4359013 C59.6238399,52.2849013 59.3958399,53.2409013 59.3958399,54.3049013 C59.3958399,55.3689013 59.6178399,56.3259013 60.0608399,57.1739013 C60.5038399,58.0229013 61.1378399,58.6879013 61.9608399,59.1689013 C62.7838399,59.6509013 63.7408399,59.8909013 64.8298399,59.8909013 M64.7548399,72.9629013 C62.2708399,72.9629013 60.2448399,72.2659013 58.6748399,70.8719013 C57.1028399,69.4799013 56.0638399,67.5919013 55.5588399,65.2109013 L60.0048399,65.2109013 C60.2828399,66.4269013 60.8138399,67.4029013 61.6008399,68.1369013 C62.3858399,68.8709013 63.4358399,69.2389013 64.7548399,69.2389013 C66.6288399,69.2389013 68.1038399,68.4789013 69.1818399,66.9579013 C70.2578399,65.4389013 70.8718399,63.0199013 71.0238399,59.7009013 C70.2648399,60.8159013 69.2688399,61.6899013 68.0408399,62.3229013 C66.8118399,62.9559013 65.4128399,63.2729013 63.8428399,63.2729013 C62.1438399,63.2729013 60.6248399,62.9059013 59.2818399,62.1709013 C57.9388399,61.4359013 56.8888399,60.3979013 56.1278399,59.0549013 C55.3678399,57.7119013 54.9878399,56.1549013 54.9878399,54.3809013 C54.9878399,52.5569013 55.4258399,50.9289013 56.2998399,49.4969013 C57.1738399,48.0669013 58.3638399,46.9579013 59.8708399,46.1729013 C61.3778399,45.3879013 63.0438399,44.9949013 64.8678399,44.9949013 C66.9198399,44.9949013 68.7378399,45.4639013 70.3208399,46.4009013 C71.9038399,47.3379013 73.1578399,48.8139013 74.0828399,50.8279013 C75.0078399,52.8419013 75.4708399,55.3939013 75.4708399,58.4849013 C75.4708399,61.5759013 75.0388399,64.2029013 74.1788399,66.3699013 C73.3158399,68.5359013 72.0818399,70.1759013 70.4738399,71.2899013 C68.8638399,72.4059013 66.9578399,72.9629013 64.7548399,72.9629013" id="Fill-16" fill="#91BFE3"></path>
            </g>
        </g>
    </g>
</svg>