<?xml version="1.0" encoding="UTF-8"?>
<svg width="140px" height="140px" viewBox="0 0 140 140" version="1.1" xmlns="http://www.w3.org/2000/svg" xmlns:xlink="http://www.w3.org/1999/xlink">
    <title>pictogram/light/communication/alert</title>
    <g id="pictogram/light/communication/alert" stroke="none" stroke-width="1" fill="none" fill-rule="evenodd">
        <g id="alert" transform="translate(-0.000100, 0.000000)">
            <path d="M140,70 C140,108.66 108.66,140 70,140 C31.34,140 0,108.66 0,70 C0,31.34 31.34,0 70,0 C108.66,0 140,31.34 140,70" id="circle" fill="#DDE4E3"></path>
            <g id="picto" transform="translate(65.500100, 19.109600)" fill="#2167AE">
                <path d="M4.5,101.7811 C2.015,101.7811 0,99.7661 0,97.2811 L0,85.6111 C0,83.1261 2.015,81.1111 4.5,81.1111 C6.985,81.1111 9,83.1261 9,85.6111 L9,97.2811 C9,99.7661 6.985,101.7811 4.5,101.7811" id="Fill-4"></path>
                <path d="M4.5,69.704 C2.015,69.704 0,67.689 0,65.204 L0,4.5 C0,2.014 2.015,0 4.5,0 C6.985,0 9,2.014 9,4.5 L9,65.204 C9,67.689 6.985,69.704 4.5,69.704" id="Fill-6"></path>
            </g>
        </g>
    </g>
</svg>