<?xml version="1.0" encoding="UTF-8"?>
<svg width="140px" height="140px" viewBox="0 0 140 140" version="1.1" xmlns="http://www.w3.org/2000/svg" xmlns:xlink="http://www.w3.org/1999/xlink">
    <title>pictogram/light/communication/calendar</title>
    <g id="pictogram/light/communication/calendar" stroke="none" stroke-width="1" fill="none" fill-rule="evenodd">
        <g id="calendar">
            <path d="M140,70 C140,108.66 108.66,140 70,140 C31.34,140 0,108.66 0,70 C0,31.34 31.34,0 70,0 C108.66,0 140,31.34 140,70" id="circle" fill="#DDE4E3"></path>
            <g id="picto" transform="translate(31.601600, 29.614900)">
                <path d="M58.0584,3.9729 L18.7384,3.9729 C8.4064,3.9729 0.0004,12.3789 0.0004,22.7109 L0.0004,62.0309 C0.0004,72.3639 8.4064,80.7699 18.7384,80.7699 L58.0584,80.7699 C68.3904,80.7699 76.7964,72.3639 76.7964,62.0309 L76.7964,22.7109 C76.7964,12.3789 68.3904,3.9729 58.0584,3.9729" id="Fill-3" fill="#2167AE"></path>
                <path d="M19.9672,10.632 C17.4682,10.632 15.4422,8.607 15.4422,6.107 L15.4422,4.525 C15.4422,2.026 17.4682,0 19.9672,0 C22.4662,0 24.4922,2.026 24.4922,4.525 L24.4922,6.107 C24.4922,8.607 22.4662,10.632 19.9672,10.632" id="Fill-5" fill="#23366F"></path>
                <path d="M56.8296,10.632 C54.3306,10.632 52.3046,8.607 52.3046,6.107 L52.3046,4.525 C52.3046,2.026 54.3306,0 56.8296,0 C59.3286,0 61.3546,2.026 61.3546,4.525 L61.3546,6.107 C61.3546,8.607 59.3286,10.632 56.8296,10.632" id="Fill-7" fill="#23366F"></path>
                <path d="M38.4073,10.632 C35.9083,10.632 33.8823,8.607 33.8823,6.107 L33.8823,4.525 C33.8823,2.026 35.9083,0 38.4073,0 C40.9063,0 42.9323,2.026 42.9323,4.525 L42.9323,6.107 C42.9323,8.607 40.9063,10.632 38.4073,10.632" id="Fill-9" fill="#23366F"></path>
                <path d="M21.5476,37.862 L10.8376,37.862 C9.8546,37.862 9.0576,38.659 9.0576,39.643 L9.0576,50.353 C9.0576,51.337 9.8546,52.134 10.8376,52.134 L21.5476,52.134 C22.5316,52.134 23.3286,51.337 23.3286,50.353 L23.3286,39.643 C23.3286,38.659 22.5316,37.862 21.5476,37.862" id="Fill-11" fill="#91BFE3"></path>
                <path d="M43.7533,37.862 L33.0433,37.862 C32.0603,37.862 31.2623,38.659 31.2623,39.643 L31.2623,50.353 C31.2623,51.337 32.0603,52.134 33.0433,52.134 L43.7533,52.134 C44.7373,52.134 45.5343,51.337 45.5343,50.353 L45.5343,39.643 C45.5343,38.659 44.7373,37.862 43.7533,37.862" id="Fill-13" fill="#91BFE3"></path>
                <path d="M-3.55271368e-15,22.8584 L-3.55271368e-15,28.6394 L76.797,28.6394 L76.797,22.8584 C76.797,22.7424 76.781,22.6314 76.778,22.5154 L0.018,22.5154 C0.016,22.6314 -3.55271368e-15,22.7424 -3.55271368e-15,22.8584" id="Fill-15" fill="#91BFE3"></path>
            </g>
        </g>
    </g>
</svg>