<?xml version="1.0" encoding="UTF-8"?>
<svg width="140px" height="140px" viewBox="0 0 140 140" version="1.1" xmlns="http://www.w3.org/2000/svg" xmlns:xlink="http://www.w3.org/1999/xlink">
    <title>pictogram/light/communication/check</title>
    <g id="pictogram/light/communication/check" stroke="none" stroke-width="1" fill="none" fill-rule="evenodd">
        <g id="check">
            <path d="M140,70 C140,108.66 108.66,140 70,140 C31.34,140 0,108.66 0,70 C0,31.34 31.34,0 70,0 C108.66,0 140,31.34 140,70" id="circle" fill="#DDE4E3"></path>
            <g id="picto" transform="translate(27.436550, 36.490780)" fill="#2167AE">
                <path d="M32.88975,67.01802 C31.69975,67.01802 30.55375,66.54602 29.70775,65.70002 L1.31775,37.31002 C-0.43925,35.55202 -0.43925,32.70302 1.31775,30.94602 C3.07475,29.18802 5.92475,29.18802 7.68175,30.94602 L32.56575,55.83002 L77.15175,1.64102 C78.73075,-0.277979998 81.56675,-0.553979998 83.48675,1.02502 C85.40575,2.60402 85.68075,5.44002 84.10175,7.35902 L36.36475,65.37702 C35.55875,66.35702 34.37575,66.95102 33.10775,67.01302 C33.03475,67.01602 32.96275,67.01802 32.88975,67.01802" id="Fill-3"></path>
            </g>
        </g>
    </g>
</svg>