<?xml version="1.0" encoding="UTF-8"?>
<svg width="140px" height="140px" viewBox="0 0 140 140" version="1.1" xmlns="http://www.w3.org/2000/svg" xmlns:xlink="http://www.w3.org/1999/xlink">
    <title>pictogram/light/communication/connection</title>
    <g id="pictogram/light/communication/connection" stroke="none" stroke-width="1" fill="none" fill-rule="evenodd">
        <g id="connection" transform="translate(-0.000100, 0.000000)">
            <path d="M140,70 C140,108.66 108.66,140 70,140 C31.34,140 0,108.66 0,70 C0,31.34 31.34,0 70,0 C108.66,0 140,31.34 140,70" id="circle" fill="#DDE4E3"></path>
            <g id="picto" transform="translate(35.433500, 28.866500)">
                <path d="M17.9314,18.5835 L27.1434,72.9845 L64.2684,40.9445 L17.9314,18.5835 Z M23.0054,84.4815 L10.0764,8.1305 L75.1094,39.5135 L23.0054,84.4815 Z" id="Fill-4" fill="#91BFE3"></path>
                <path d="M26.715,13.357 C26.715,5.992 20.723,0 13.358,0 C5.992,0 0,5.992 0,13.357 C0,20.722 5.992,26.714 13.358,26.714 C20.723,26.714 26.715,20.722 26.715,13.357" id="Fill-5" fill="#2167AE"></path>
                <path d="M25.0744,65.6993 C17.8874,65.6993 12.0404,71.5463 12.0404,78.7333 C12.0404,85.9203 17.8874,91.7663 25.0744,91.7663 C32.2614,91.7663 38.1084,85.9203 38.1084,78.7333 C38.1084,71.5463 32.2614,65.6993 25.0744,65.6993" id="Fill-7" fill="#2167AE"></path>
                <path d="M69.6896,27.8477 C62.8626,27.8477 57.3086,33.4017 57.3086,40.2287 C57.3086,47.0557 62.8626,52.6097 69.6896,52.6097 C76.5166,52.6097 82.0706,47.0557 82.0706,40.2287 C82.0706,33.4017 76.5166,27.8477 69.6896,27.8477" id="Fill-9" fill="#2167AE"></path>
            </g>
        </g>
    </g>
</svg>