<?xml version="1.0" encoding="UTF-8"?>
<svg width="140px" height="140px" viewBox="0 0 140 140" version="1.1" xmlns="http://www.w3.org/2000/svg" xmlns:xlink="http://www.w3.org/1999/xlink">
    <title>pictogram/light/communication/couch</title>
    <g id="pictogram/light/communication/couch" stroke="none" stroke-width="1" fill="none" fill-rule="evenodd">
        <g id="couch">
            <path d="M140,70 C140,108.66 108.66,140 70,140 C31.34,140 0,108.66 0,70 C0,31.34 31.34,0 70,0 C108.66,0 140,31.34 140,70" id="circle" fill="#DDE4E3"></path>
            <g id="picto" transform="translate(23.045100, 42.498100)">
                <path d="M10.319,55.0035 L5.88,55.0035 C5.207,55.0035 4.657,54.4535 4.657,53.7805 L4.657,48.5435 C4.657,47.8705 5.207,47.3205 5.88,47.3205 L10.319,47.3205 C10.992,47.3205 11.542,47.8705 11.542,48.5435 L11.542,53.7805 C11.542,54.4535 10.992,55.0035 10.319,55.0035" id="Fill-3" fill="#91BFE3"></path>
                <path d="M88.482,55.0035 L84.043,55.0035 C83.37,55.0035 82.82,54.4535 82.82,53.7805 L82.82,48.5435 C82.82,47.8705 83.37,47.3205 84.043,47.3205 L88.482,47.3205 C89.155,47.3205 89.705,47.8705 89.705,48.5435 L89.705,53.7805 C89.705,54.4535 89.155,55.0035 88.482,55.0035" id="Fill-5" fill="#91BFE3"></path>
                <path d="M76.6319,41.603 L15.6339,41.603 C10.3369,41.603 6.0029,37.269 6.0029,31.972 L6.0029,9.631 C6.0029,4.334 10.3369,0 15.6339,0 L76.6319,0 C81.9289,0 86.2629,4.334 86.2629,9.631 L86.2629,31.972 C86.2629,37.269 81.9289,41.603 76.6319,41.603" id="Fill-7" fill="#2167AE"></path>
                <path d="M89.979,13.8731 L82.546,13.8731 C80.384,13.8731 78.615,15.6421 78.615,17.8041 L78.615,38.1721 L15.294,38.1721 L15.294,17.8041 C15.294,15.6421 13.525,13.8731 11.363,13.8731 L3.931,13.8731 C1.768,13.8731 0,15.6421 0,17.8041 L0,46.2491 C0,48.4101 1.768,50.1791 3.931,50.1791 L9.576,50.1791 L11.363,50.1791 L82.546,50.1791 L89.479,50.1791 L89.979,50.1791 C92.141,50.1791 93.91,48.4101 93.91,46.2491 L93.91,17.8041 C93.91,15.6421 92.141,13.8731 89.979,13.8731" id="Fill-9" fill="#5495CF"></path>
                <path d="M46.909,38.1725 L46.909,32.0265 C46.909,32.0265 31.066,21.8775 15.223,32.0265 L15.223,38.1725 L46.909,38.1725 Z" id="Fill-11" fill="#91BFE3"></path>
                <path d="M78.6153,38.1725 L78.6153,32.0265 C78.6153,32.0265 62.7623,21.8775 46.9093,32.0265 L46.9093,38.1725 L78.6153,38.1725 Z" id="Fill-13" fill="#91BFE3"></path>
            </g>
        </g>
    </g>
</svg>