<?xml version="1.0" encoding="UTF-8"?>
<svg width="140px" height="140px" viewBox="0 0 140 140" version="1.1" xmlns="http://www.w3.org/2000/svg" xmlns:xlink="http://www.w3.org/1999/xlink">
    <title>pictogram/light/communication/download</title>
    <g id="pictogram/light/communication/download" stroke="none" stroke-width="1" fill="none" fill-rule="evenodd">
        <g id="download">
            <path d="M140,70 C140,108.66 108.659,140 70,140 C31.34,140 0,108.66 0,70 C0,31.34 31.34,0 70,0 C108.659,0 140,31.34 140,70" id="circle" fill="#DDE4E3"></path>
            <g id="picto" transform="translate(29.804400, 29.802179)">
                <path d="M69.432,0.00502121151 L32.428,0.00402121151 C31.738,0.00402121151 31.178,0.564021212 31.178,1.25402121 C31.178,1.59902121 31.318,1.91202121 31.545,2.13802121 L2.133,31.6150212 C1.907,31.3890212 1.595,31.2500212 1.25,31.2500212 C0.56,31.2500212 0,31.8090212 0,32.5000212 L0,69.4820212 C0,75.5000212 4.897,80.3960212 10.914,80.3960212 L69.623,80.3960212 C75.561,80.3960212 80.391,75.5650212 80.391,69.6280212 L80.391,10.9640212 C80.391,4.92202121 75.475,0.00502121151 69.432,0.00502121151" id="Fill-4" fill="#2167AE"></path>
                <path d="M32.8841,0.0948212115 C32.4181,-0.0981787885 31.8801,0.00882121151 31.5221,0.366821212 L0.3901,31.5698212 C0.0321,31.9278212 -0.0739,32.4658212 0.1201,32.9318212 C0.3141,33.3988212 0.7701,33.7028212 1.2751,33.7028212 L26.1751,33.7028212 C30.3001,33.7028212 33.6561,30.3468212 33.6561,26.2218212 L33.6561,1.24982121 C33.6561,0.743821212 33.3521,0.287821212 32.8841,0.0948212115" id="Fill-6" fill="#5495CF"></path>
                <path d="M46.6927,47.1332212 C46.2047,46.6452212 45.4137,46.6452212 44.9247,47.1332212 L41.4597,50.5982212 L41.4717,36.8992212 C41.4727,36.2082212 40.9137,35.6482212 40.2227,35.6482212 L40.2217,35.6482212 C39.5327,35.6482212 38.9727,36.2062212 38.9717,36.8962212 L38.9597,50.5742212 L35.5187,47.1332212 C35.0307,46.6452212 34.2397,46.6452212 33.7517,47.1332212 C33.2627,47.6212212 33.2627,48.4132212 33.7517,48.9012212 L39.3387,54.4882212 C39.5727,54.7222212 39.8907,54.8542212 40.2217,54.8542212 C40.5527,54.8542212 40.8717,54.7222212 41.1057,54.4882212 L46.6927,48.9012212 C47.1807,48.4132212 47.1807,47.6212212 46.6927,47.1332212" id="Fill-8" fill="#91BFE3"></path>
                <path d="M47.7103,63.7999212 L32.6803,63.7999212 C30.0413,63.7999212 27.8943,61.6529212 27.8943,59.0139212 L27.8943,56.3389212 C27.8943,55.6489212 28.4533,55.0889212 29.1443,55.0889212 C29.8343,55.0889212 30.3943,55.6489212 30.3943,56.3389212 L30.3943,59.0139212 C30.3943,60.2739212 31.4193,61.2999212 32.6803,61.2999212 L47.7103,61.2999212 C48.9713,61.2999212 49.9973,60.2739212 49.9973,59.0139212 L49.9973,56.3389212 C49.9973,55.6489212 50.5573,55.0889212 51.2473,55.0889212 C51.9383,55.0889212 52.4973,55.6489212 52.4973,56.3389212 L52.4973,59.0139212 C52.4973,61.6529212 50.3503,63.7999212 47.7103,63.7999212" id="Fill-10" fill="#91BFE3"></path>
            </g>
        </g>
    </g>
</svg>