<?xml version="1.0" encoding="UTF-8"?>
<svg width="140px" height="140px" viewBox="0 0 140 140" version="1.1" xmlns="http://www.w3.org/2000/svg" xmlns:xlink="http://www.w3.org/1999/xlink">
    <title>pictogram/light/communication/event</title>
    <g id="pictogram/light/communication/event" stroke="none" stroke-width="1" fill="none" fill-rule="evenodd">
        <g id="event" transform="translate(-0.000100, 0.000000)">
            <path d="M140,70 C140,108.66 108.66,140 70,140 C31.34,140 0,108.66 0,70 C0,31.34 31.34,0 70,0 C108.66,0 140,31.34 140,70" id="circle" fill="#DDE4E3"></path>
            <g id="picto" transform="translate(31.601700, 29.615000)">
                <path d="M58.0584,3.9728 L18.7384,3.9728 C8.4064,3.9728 0.0004,12.3788 0.0004,22.7108 L0.0004,62.0308 C0.0004,72.3638 8.4064,80.7698 18.7384,80.7698 L58.0584,80.7698 C68.3904,80.7698 76.7964,72.3638 76.7964,62.0308 L76.7964,22.7108 C76.7964,12.3788 68.3904,3.9728 58.0584,3.9728" id="Fill-4" fill="#91BFE3"></path>
                <path d="M19.9672,10.632 C17.4682,10.632 15.4422,8.607 15.4422,6.107 L15.4422,4.525 C15.4422,2.026 17.4682,0 19.9672,0 C22.4662,0 24.4922,2.026 24.4922,4.525 L24.4922,6.107 C24.4922,8.607 22.4662,10.632 19.9672,10.632" id="Fill-6" fill="#2167AE"></path>
                <path d="M56.8296,10.632 C54.3306,10.632 52.3046,8.607 52.3046,6.107 L52.3046,4.525 C52.3046,2.026 54.3306,0 56.8296,0 C59.3286,0 61.3546,2.026 61.3546,4.525 L61.3546,6.107 C61.3546,8.607 59.3286,10.632 56.8296,10.632" id="Fill-8" fill="#2167AE"></path>
                <path d="M38.4073,10.632 C35.9083,10.632 33.8823,8.607 33.8823,6.107 L33.8823,4.525 C33.8823,2.026 35.9083,0 38.4073,0 C40.9063,0 42.9323,2.026 42.9323,4.525 L42.9323,6.107 C42.9323,8.607 40.9063,10.632 38.4073,10.632" id="Fill-10" fill="#2167AE"></path>
                <path d="M-3.55271368e-15,22.8583 L-3.55271368e-15,28.6393 L76.797,28.6393 L76.797,22.8583 C76.797,22.7423 76.781,22.6313 76.778,22.5153 L0.018,22.5153 C0.016,22.6313 -3.55271368e-15,22.7423 -3.55271368e-15,22.8583" id="Fill-12" fill="#5495CF"></path>
                <polygon id="Fill-14" fill="#2167AE" points="11.6026 58.8947 11.6026 43.4067 22.5366 43.4067 22.5366 45.6287 14.1106 45.6287 14.1106 49.8967 21.6346 49.8967 21.6346 52.0307 14.1106 52.0307 14.1106 56.6727 22.5366 56.6727 22.5366 58.8947"></polygon>
                <polygon id="Fill-16" fill="#2167AE" points="27.5967 58.8947 23.1527 47.7187 25.6597 47.7187 28.8277 55.9687 31.9747 47.7187 34.4827 47.7187 30.0377 58.8947"></polygon>
                <path d="M43.6114,52.1847 C43.5674,51.2757 43.2994,50.5817 42.8084,50.1057 C42.3164,49.6287 41.6614,49.3907 40.8404,49.3907 C39.9884,49.3907 39.2924,49.6327 38.7494,50.1167 C38.2074,50.6007 37.8544,51.2897 37.6934,52.1847 L43.6114,52.1847 Z M40.8834,59.2467 C39.7544,59.2467 38.7634,58.9937 37.9134,58.4877 C37.0624,57.9817 36.4064,57.2777 35.9444,56.3757 C35.4824,55.4737 35.2514,54.4507 35.2514,53.3067 C35.2514,52.1777 35.4744,51.1647 35.9234,50.2707 C36.3704,49.3757 37.0144,48.6677 37.8584,48.1477 C38.7024,47.6267 39.6954,47.3667 40.8404,47.3667 C41.9394,47.3667 42.8744,47.6127 43.6444,48.1037 C44.4144,48.5947 45.0014,49.2847 45.4044,50.1717 C45.8074,51.0597 46.0094,52.0967 46.0094,53.2847 C46.0094,53.5047 46.0024,53.7027 45.9874,53.8787 L37.6284,53.8787 C37.7004,54.9937 38.0234,55.8367 38.5954,56.4087 C39.1674,56.9807 39.9444,57.2667 40.9274,57.2667 C41.6324,57.2667 42.2074,57.1057 42.6544,56.7827 C43.1014,56.4597 43.4134,56.0127 43.5904,55.4407 L45.8994,55.4407 C45.6354,56.6727 45.0524,57.6157 44.1504,58.2677 C43.2484,58.9197 42.1594,59.2467 40.8834,59.2467 L40.8834,59.2467 Z" id="Fill-18" fill="#2167AE"></path>
                <path d="M48.3194,58.8947 L48.3194,47.7187 L50.7614,47.7187 L50.7614,49.2147 C51.1284,48.6277 51.6044,48.1727 52.1914,47.8507 C52.7774,47.5287 53.4524,47.3667 54.2154,47.3667 C55.4764,47.3667 56.4594,47.7777 57.1634,48.5987 C57.8674,49.4197 58.2194,50.5417 58.2194,51.9647 L58.2194,58.8947 L55.7774,58.8947 L55.7774,52.1627 C55.7774,51.2827 55.5874,50.6117 55.2054,50.1497 C54.8234,49.6877 54.2444,49.4567 53.4664,49.4567 C52.9394,49.4567 52.4734,49.5957 52.0704,49.8747 C51.6674,50.1537 51.3474,50.5527 51.1134,51.0737 C50.8794,51.5947 50.7614,52.1927 50.7614,52.8667 L50.7614,58.8947 L48.3194,58.8947 Z" id="Fill-20" fill="#2167AE"></path>
                <path d="M64.4678,58.8947 C63.3968,58.8947 62.6338,58.6527 62.1798,58.1687 C61.7248,57.6847 61.4978,56.9807 61.4978,56.0567 L61.4978,49.7207 L59.5838,49.7207 L59.5838,47.7187 L61.4978,47.7187 L61.4978,44.8367 L63.9618,44.8367 L63.9618,47.7187 L66.5138,47.7187 L66.5138,49.7207 L63.9618,49.7207 L63.9618,55.9247 C63.9618,56.2477 64.0388,56.4747 64.1928,56.6067 C64.3468,56.7387 64.5918,56.8047 64.9298,56.8047 L66.5138,56.8047 L66.5138,58.8947 L64.4678,58.8947 Z" id="Fill-22" fill="#2167AE"></path>
            </g>
        </g>
    </g>
</svg>