<?xml version="1.0" encoding="UTF-8"?>
<svg width="140px" height="140px" viewBox="0 0 140 140" version="1.1" xmlns="http://www.w3.org/2000/svg" xmlns:xlink="http://www.w3.org/1999/xlink">
    <title>pictogram/light/communication/globe</title>
    <defs>
        <path d="M7.10542736e-15,45.77 C7.10542736e-15,71.048 20.491,91.539 45.769,91.539 L45.769,91.539 C71.047,91.539 91.539,71.048 91.539,45.77 L91.539,45.77 C91.539,20.491 71.047,0 45.769,0 L45.769,0 C20.491,0 7.10542736e-15,20.491 7.10542736e-15,45.77 L7.10542736e-15,45.77 Z" id="path-1"></path>
    </defs>
    <g id="pictogram/light/communication/globe" stroke="none" stroke-width="1" fill="none" fill-rule="evenodd">
        <g id="globe" transform="translate(-0.000000, 0.000000)">
            <path d="M140,70 C140,108.66 108.66,140 70,140 C31.34,140 0,108.66 0,70 C0,31.34 31.34,0 70,0 C108.66,0 140,31.34 140,70" id="circle" fill="#DDE4E3"></path>
            <g id="picto" transform="translate(24.230500, 24.082700)">
                <path d="M91.539,45.9173 C91.539,20.6393 71.047,0.1473 45.769,0.1473 C20.492,0.1473 0,20.6393 0,45.9173 C0,71.1953 20.492,91.6873 45.769,91.6873 C71.047,91.6873 91.539,71.1953 91.539,45.9173" id="Fill-4" fill="#2167AE"></path>
                <g id="Group-15" transform="translate(13.046500, 0.000000)" fill="#5495CF">
                    <path d="M32.723,2.5 C28.978,2.5 23.755,19.011 23.755,45.901 C23.755,72.791 28.978,89.303 32.723,89.303 C36.468,89.303 41.691,72.791 41.691,45.901 C41.691,19.011 36.468,2.5 32.723,2.5 M32.723,91.803 C25.194,91.803 21.255,68.711 21.255,45.901 C21.255,23.091 25.194,0 32.723,0 C40.252,0 44.191,23.091 44.191,45.901 C44.191,68.711 40.252,91.803 32.723,91.803" id="Fill-11"></path>
                    <path d="M32.723,2.5 C16.058,2.5 2.5,21.97 2.5,45.901 C2.5,69.833 16.058,89.303 32.723,89.303 C49.388,89.303 62.945,69.833 62.945,45.901 C62.945,21.97 49.388,2.5 32.723,2.5 M32.723,91.803 C14.68,91.803 -7.10542736e-15,71.211 -7.10542736e-15,45.901 C-7.10542736e-15,20.591 14.68,0 32.723,0 C50.766,0 65.445,20.591 65.445,45.901 C65.445,71.211 50.766,91.803 32.723,91.803" id="Fill-13"></path>
                </g>
                <g id="Group-21" transform="translate(0.000300, 0.147300)">
                    <mask id="mask-2" fill="white">
                        <use xlink:href="#path-1"></use>
                    </mask>
                    <g id="Clip-17"></g>
                    <polygon id="Fill-16" fill="#5495CF" mask="url(#mask-2)" points="4.858 24.135 86.734 24.135 86.734 21.635 4.858 21.635"></polygon>
                    <polygon id="Fill-18" fill="#5495CF" mask="url(#mask-2)" points="4.938 69.905 86.464 69.905 86.464 67.405 4.938 67.405"></polygon>
                    <polygon id="Fill-19" fill="#5495CF" mask="url(#mask-2)" points="-0.727 47.083 14.448 47.083 14.448 44.583 -0.727 44.583"></polygon>
                    <polygon id="Fill-20" fill="#5495CF" mask="url(#mask-2)" points="14.449 47.083 93.075 47.083 93.075 44.583 14.449 44.583"></polygon>
                </g>
            </g>
        </g>
    </g>
</svg>