<?xml version="1.0" encoding="UTF-8"?>
<svg width="140px" height="140px" viewBox="0 0 140 140" version="1.1" xmlns="http://www.w3.org/2000/svg" xmlns:xlink="http://www.w3.org/1999/xlink">
    <title>pictogram/light/communication/signature</title>
    <g id="pictogram/light/communication/signature" stroke="none" stroke-width="1" fill="none" fill-rule="evenodd">
        <g id="signature" transform="translate(-0.000100, 0.000000)">
            <path d="M140,70 C140,108.66 108.66,140 70,140 C31.34,140 0,108.66 0,70 C0,31.34 31.34,0 70,0 C108.66,0 140,31.34 140,70" id="circle" fill="#DDE4E3"></path>
            <g id="picto" transform="translate(0.000400, 34.674400)">
                <path d="M99.5568,40.4141 L102.8868,49.5361 C102.8868,49.5361 104.3318,54.6481 99.8298,56.5761 L97.7958,51.4201 L93.6478,47.2541 L84.2368,19.6791 C84.2368,19.6791 87.8868,19.5481 90.1928,20.9621 C92.4998,22.3761 93.6908,24.6461 93.8398,25.0181 C93.9888,25.3901 99.5568,40.4141 99.5568,40.4141" id="Fill-4" fill="#5495CF"></path>
                <path d="M99.5568,40.4141 L102.8868,49.5361 C102.3538,49.7371 101.7768,49.8481 101.1738,49.8481 C98.4928,49.8481 96.3188,47.6741 96.3188,44.9931 C96.3188,42.8781 97.6708,41.0801 99.5568,40.4141" id="Fill-6" fill="#2167AE"></path>
                <path d="M61.5454,15.008 L66.8534,12.098 C66.9534,12.041 67.0544,11.986 67.1564,11.932 L67.1934,11.912 L67.1944,11.912 C68.7774,11.081 70.5804,10.61 72.4924,10.61 C76.8754,10.61 80.6814,13.081 82.5934,16.707 L82.5944,16.707 L90.8984,31.732 L95.4974,40.286 C95.4974,40.286 97.6794,44.45 93.6484,47.254 L78.3074,31.845 L62.6964,16.164 L61.5454,15.008 Z" id="Fill-8" fill="#91BFE3"></path>
                <path d="M36.7925,7.596 C37.7495,6.639 38.7355,5.653 39.4945,4.895 L39.4935,4.894 C39.4935,4.894 41.5765,2.81 43.5395,0.848 C45.5025,-1.115 47.8465,1.247 47.8465,1.247 L97.7965,51.421 L93.6275,55.589 L93.6285,55.589 L87.3655,61.853 L68.6345,43.204 L59.7725,34.383 L59.4085,34.019 L48.1185,22.78 L37.1925,11.903 C37.1925,11.903 34.8295,9.559 36.7925,7.596" id="Fill-10" fill="#2167AE"></path>
                <path d="M36.7925,7.596 L36.8405,7.644 C36.3355,8.149 36.0805,8.726 36.0814971,9.357 C36.0835,10.69 37.2295,11.843 37.2405,11.854 L87.3655,61.756 L97.6995,51.42 L47.7975,1.296 C47.7865,1.284 46.6335,0.139 45.3005,0.136 L45.2975,0.136 C44.6665,0.136 44.0915,0.392 43.5875,0.896 L36.8405,7.644 L36.7925,7.596 Z M87.3655,61.949 L37.1445,11.951 C37.0955,11.903 35.9475,10.748 35.9444972,9.358 C35.9435,8.689 36.2125,8.08 36.7445,7.548 L43.4915,0.799 C44.0215,0.269 44.6295,0 45.2975,0 L45.3015,0 C46.6915,0.003 47.8455,1.151 47.8945,1.199 L97.8925,51.421 L87.3655,61.949 Z" id="Fill-12" fill="#2167AE"></path>
                <path d="M78.3451,43.8769 C83.3001,43.8769 87.3171,47.8939 87.3171,52.8489 C87.3171,55.3249 86.3131,57.5669 84.6901,59.1909 C83.1031,60.7789 80.9231,61.7749 78.5101,61.8189002 C78.4551,61.8199 34.9041,58.4299 34.9041,58.4299 L34.9041,40.8679 L78.3451,43.8769 Z" id="Fill-14" fill="#91BFE3"></path>
                <polygon id="Fill-16" fill="#91BFE3" points="97.771 51.447 87.366 61.852 99.83 66.925 102.794 63.961"></polygon>
                <polygon id="Fill-18" fill="#2167AE" points="104.8402 68.9342 99.8302 66.9252 102.7942 63.9612"></polygon>
                <path d="M71.3792,52.8486 C71.3792,56.6956 74.4982,59.8146 78.3452,59.8146 C82.1922,59.8146 85.3112,56.6956 85.3112,52.8486 C85.3112,49.0016 82.1922,45.8826 78.3452,45.8826 C74.4982,45.8826 71.3792,49.0016 71.3792,52.8486" id="Fill-20" fill="#5495CF"></path>
                <path d="M90.898,31.7324 L95.497,40.2864 C94.811,40.6574 94.026,40.8674 93.192,40.8674 C90.51,40.8674 88.336,38.6944 88.336,36.0124 C88.336,34.1604 89.373,32.5514 90.898,31.7324" id="Fill-22" fill="#5495CF"></path>
                <path d="M40.9318,26.9527 L48.1188,22.7797 L59.4078,34.0197 L50.9778,40.3467 C50.9778,40.3467 49.8388,41.0497 50.7548,41.9657 L34.9048,40.8677 L34.8948,26.8227 C38.0108,28.7577 40.9318,26.9527 40.9318,26.9527" id="Fill-24" fill="#91BFE3"></path>
                <path d="M50.9775,40.3471 L59.4085,34.0191 L59.7725,34.3821 L68.6345,43.2041 L50.7545,41.9661 C49.8395,41.0501 50.9775,40.3471 50.9775,40.3471" id="Fill-26" fill="#5495CF"></path>
                <path d="M31.802,20.0333 L2.657,16.2353 C0.939,22.3063 0,28.7043 0,35.3253 C0,47.2033 2.968,58.3843 8.188,68.1843 L31.802,66.3753 C31.802,66.3753 34.849,66.0943 34.849,62.6713 L34.849,44.7183 L34.849,41.6903 L34.849,23.7373 C34.849,20.3143 31.802,20.0333 31.802,20.0333" id="Fill-28" fill="#5495CF"></path>
            </g>
        </g>
    </g>
</svg>