<?xml version="1.0" encoding="UTF-8"?>
<svg width="140px" height="140px" viewBox="0 0 140 140" version="1.1" xmlns="http://www.w3.org/2000/svg" xmlns:xlink="http://www.w3.org/1999/xlink">
    <title>pictogram/light/communication/speech</title>
    <g id="pictogram/light/communication/speech" stroke="none" stroke-width="1" fill="none" fill-rule="evenodd">
        <g id="speech">
            <path d="M140,70 C140,108.66 108.66,140 70,140 C31.34,140 0,108.66 0,70 C0,31.34 31.34,0 70,0 C108.66,0 140,31.34 140,70" id="circle" fill="#DDE4E3"></path>
            <g id="picto" transform="translate(24.360000, 38.963300)">
                <path d="M31.035,0 C13.922,0 0,13.923 0,31.037 L0,60.248 C0,60.731 0.192,61.197 0.535,61.539 C0.877,61.881 1.342,62.074 1.826,62.074 L60.245,62.072 C77.359,62.072 91.28,48.149 91.28,31.036 C91.28,13.922 77.359,0 60.245,0 L31.035,0 Z" id="Fill-3" fill="#2167AE"></path>
                <path d="M22.11,20.2167 C20.868,20.2167 19.86,19.2097 19.86,17.9667 C19.86,16.7237 20.868,15.7167 22.11,15.7167 L70.848,15.7167 C72.091,15.7167 73.098,16.7237 73.098,17.9667 C73.098,19.2097 72.091,20.2167 70.848,20.2167 L22.11,20.2167 Z" id="Fill-5" fill="#91BFE3"></path>
                <path d="M22.0646,34.3935 C20.8226,34.3935 19.8146,33.3865 19.8146,32.1435 C19.8146,30.9005 20.8226,29.8935 22.0646,29.8935 L70.8026,29.8935 C72.0456,29.8935 73.0526,30.9005 73.0526,32.1435 C73.0526,33.3865 72.0456,34.3935 70.8026,34.3935 L22.0646,34.3935 Z" id="Fill-7" fill="#91BFE3"></path>
                <path d="M22.0648,48.5703 C20.8218,48.5703 19.8148,47.5633 19.8148,46.3203 C19.8148,45.0773 20.8218,44.0703 22.0648,44.0703 L43.8848,44.0703 C45.1278,44.0703 46.1348,45.0773 46.1348,46.3203 C46.1348,47.5633 45.1278,48.5703 43.8848,48.5703 L22.0648,48.5703 Z" id="Fill-9" fill="#91BFE3"></path>
            </g>
        </g>
    </g>
</svg>