<?xml version="1.0" encoding="UTF-8"?>
<svg width="140px" height="140px" viewBox="0 0 140 140" version="1.1" xmlns="http://www.w3.org/2000/svg" xmlns:xlink="http://www.w3.org/1999/xlink">
    <title>pictogram/light/communication/visualization</title>
    <g id="pictogram/light/communication/visualization" stroke="none" stroke-width="1" fill="none" fill-rule="evenodd">
        <g id="visualization" transform="translate(0.000000, 0.000000)">
            <path d="M140,70 C140,108.66 108.66,140 70,140 C31.34,140 0,108.66 0,70 C0,31.34 31.34,0 70,0 C108.66,0 140,31.34 140,70" id="circle" fill="#DDE4E3"></path>
            <g id="picto" transform="translate(9.609600, 33.618200)">
                <path d="M24.989,35.4018 C24.989,15.8808 40.869,0.0008 60.39,0.0008 L60.389,0.0008 C36.537,0.0008 14.65,12.4838 0.343,34.2498 C0.118,34.5898 0,34.9868 0,35.3938 L0,35.4098 C0,35.8168 0.118,36.2138 0.343,36.5538 C14.65,58.3198 36.537,70.8028 60.389,70.8028 L60.39,70.8028 C40.869,70.8028 24.989,54.9228 24.989,35.4018" id="Fill-4" fill="#5495CF"></path>
                <path d="M120.4387,34.25 C106.1297,12.485 84.2437,0.001 60.3927,0 C79.9117,0.001 95.7917,15.881 95.7917,35.402 C95.7917,54.923 79.9117,70.802 60.3927,70.803 C84.2437,70.802 106.1297,58.319 120.4387,36.554 C120.6627,36.214 120.7807,35.801 120.7807,35.394 C120.7807,34.987 120.6627,34.59 120.4387,34.25" id="Fill-6" fill="#5495CF"></path>
                <path d="M60.3894,54.144 C50.0554,54.144 41.6474,45.736 41.6474,35.402 C41.6474,25.068 50.0554,16.66 60.3894,16.66 C70.7234,16.66 79.1314,25.068 79.1314,35.402 C79.1314,45.736 70.7234,54.144 60.3894,54.144 M95.7914,35.402 C95.7914,15.881 79.9114,0.001 60.3924,1.42108547e-14 L60.3894,1.42108547e-14 C40.8694,0.001 24.9894,15.881 24.9894,35.402 C24.9894,54.923 40.8694,70.803 60.3894,70.803 L60.3924,70.803 C79.9114,70.802 95.7914,54.923 95.7914,35.402" id="Fill-12" fill="#91BFE3"></path>
                <path d="M60.3894,16.6601 C50.0554,16.6601 41.6474,25.0681 41.6474,35.4021 C41.6474,45.7361 50.0554,54.1441 60.3894,54.1441 C70.7234,54.1441 79.1314,45.7361 79.1314,35.4021 C79.1314,25.0681 70.7234,16.6601 60.3894,16.6601" id="Fill-14" fill="#2167AE"></path>
            </g>
        </g>
    </g>
</svg>