<?xml version="1.0" encoding="UTF-8"?>
<svg width="140px" height="140px" viewBox="0 0 140 140" version="1.1" xmlns="http://www.w3.org/2000/svg" xmlns:xlink="http://www.w3.org/1999/xlink">
    <title>pictogram/dark/finance/chart/pie</title>
    <g id="pictogram/dark/finance/chart/pie" stroke="none" stroke-width="1" fill="none" fill-rule="evenodd">
        <g id="chart-pie">
            <path d="M0.0036,70.0149 C0.0036,31.3549 31.3436,0.0149 70.0036,0.0149 C108.6636,0.0149 140.0036,31.3549 140.0036,70.0149 C140.0036,108.6749 108.6636,140.0149 70.0036,140.0149 C31.3436,140.0149 0.0036,108.6749 0.0036,70.0149" id="circle" fill="#91BFE3"></path>
            <g id="picto">
                <path d="M69.823,0.0043 C31.245,0.1003 0,31.3993 0,70.0003 C0,84.9503 4.702,98.7943 12.686,110.1663 L69.823,70.1583 L69.823,0.0043 Z" id="Fill-13" fill="#2167AE"></path>
                <path d="M69.8733,70.123 L110.1163,12.65 C98.7533,4.687 84.9283,0 69.9993,0 C69.9403,0 69.8823,0.004 69.8233,0.004 L69.8233,70.158 L69.8733,70.123 Z" id="Fill-15" fill="#5495CF"></path>
                <path d="M122.6999,23.955 L116.0449,17.3 C114.1549,15.647 112.1769,14.095 110.1159,12.65 L69.8729,70.123 L127.3459,29.88 C125.9029,27.82 124.3519,25.844 122.6999,23.955" id="Fill-18" fill="#DAD2BD"></path>
            </g>
        </g>
    </g>
</svg>