<?xml version="1.0" encoding="UTF-8"?>
<svg width="140px" height="140px" viewBox="0 0 140 140" version="1.1" xmlns="http://www.w3.org/2000/svg" xmlns:xlink="http://www.w3.org/1999/xlink">
    <title>pictogram/light/finance/shareholder/euro</title>
    <g id="pictogram/light/finance/shareholder/euro" stroke="none" stroke-width="1" fill="none" fill-rule="evenodd">
        <g id="shareholder-euro" transform="translate(-0.000000, 0.000000)">
            <path d="M0,70 C0,31.34 31.34,0 70,0 C108.66,0 140,31.34 140,70 C140,108.66 108.66,140 70,140 C31.34,140 0,108.66 0,70" id="circle" fill="#DDE4E3"></path>
            <g id="picto" transform="translate(16.838000, 8.338500)">
                <path d="M53.162,131.6549 C75.638,131.6549 95.624,121.0509 108.432,104.5859 L102.219,88.9329 C99.586,81.0749 97.148,74.4329 95.657,72.2589 C95.146,71.4399 94.675,70.7309 94.288,70.2469 C93.368,69.0949 92.44,68.1189 91.508,67.2649 C91.418,67.1809 91.328,67.1099 91.238,67.0279 C90.998,66.8139 90.756,66.5939 90.515,66.3979 C88.611,64.8079 86.681,63.7709 84.728,63.0829 C83.183,62.5379 81.625,62.2139 80.056,62.0259 C78.987,61.8979 77.914,61.8279 76.837,61.7929 C75.515,61.7499 74.185,61.7526735 72.853,61.7526735 L53.035,61.7549 L39.173,61.7569 L36.74,61.7526735 C30.712,61.7526735 24.777,61.6409 19.079,66.3979 C18.838,66.5939 18.596,66.8139 18.355,67.0279 C18.266,67.1099 18.176,67.1809 18.086,67.2649 C17.153,68.1189 16.225,69.0949 15.306,70.2469 C14.919,70.7309 14.447,71.4399 13.935,72.2589 C12.874,73.8079 11.345,77.5099 9.607,82.2699 L0,107.1669 C12.838,122.1489 31.884,131.6549 53.162,131.6549" id="Fill-4" fill="#2167AE"></path>
                <path d="M54.828,83.3819 C45.322,83.3819 37.588,91.1159 37.588,100.6219 C37.588,110.1279 45.322,117.8619 54.828,117.8619 C64.335,117.8619 72.068,110.1279 72.068,100.6219 C72.068,91.1159 64.335,83.3819 54.828,83.3819" id="Fill-6" fill="#91BFE3"></path>
                <path d="M56.9813,110.2154 C52.6703,110.2154 49.0123,107.3874 47.7523,103.4914 L54.8693,103.4914 C55.3453,103.4914 55.7323,103.1054 55.7323,102.6284 C55.7323,102.1524 55.3453,101.7654 54.8693,101.7654 L47.3723,101.7654 C47.3183,101.3554 47.2823,100.9404 47.2823,100.5154 C47.2823,100.0914 47.3183,99.6764 47.3723,99.2664 L54.8693,99.2664 C55.3453,99.2664 55.7323,98.8804 55.7323,98.4034 C55.7323,97.9264 55.3453,97.5404 54.8693,97.5404 L47.7523,97.5404 C49.0123,93.6444 52.6703,90.8164 56.9813,90.8164 C57.4583,90.8164 57.8443,90.4304 57.8443,89.9534 C57.8443,89.4774 57.4583,89.0904 56.9813,89.0904 C51.7113,89.0904 47.2773,92.6814 45.9623,97.5404 L44.3063,97.5404 C43.8303,97.5404 43.4433,97.9264 43.4433,98.4034 C43.4433,98.8804 43.8303,99.2664 44.3063,99.2664 L45.6273,99.2664 C45.5833,99.6764 45.5553,100.0924 45.5553,100.5154 C45.5553,100.9384 45.5833,101.3544 45.6273,101.7654 L44.3063,101.7654 C43.8303,101.7654 43.4433,102.1524 43.4433,102.6284 C43.4433,103.1054 43.8303,103.4914 44.3063,103.4914 L45.9623,103.4914 C47.2773,108.3504 51.7113,111.9414 56.9813,111.9414 C57.4583,111.9414 57.8443,111.5544 57.8443,111.0784 C57.8443,110.6014 57.4583,110.2154 56.9813,110.2154" id="Fill-8" fill="#2167AE"></path>
                <path d="M80.5682,27.633 C80.5682,42.894 69.0442,55.266 54.8282,55.266 C40.6122,55.266 29.0882,42.894 29.0882,27.633 C29.0882,12.372 40.6122,0 54.8282,0 C69.0442,0 80.5682,12.372 80.5682,27.633" id="Fill-10" fill="#23366F"></path>
                <path d="M69.0409,61.8677 C69.0409,61.8677 67.6369,55.5437 66.8749,52.3997 C66.3989,50.4377 66.8199,48.7957 68.1489,47.3967 C69.3729,46.1087 70.4829,44.7427 71.1939,43.0387 C73.2169,38.1887 73.7829,33.0787 73.6449,27.8307 C73.6269,27.1367 73.4829,26.6907 73.1399,26.4297 C72.8739,26.2287 72.4929,26.1347 71.9379,26.1377 C64.9379,26.1757 58.9529,22.6757 52.7449,19.9377 C46.2279,17.0627 36.9119,20.8617 35.8789,27.1557 C35.8329,34.6017 36.0609,41.9477 41.5519,47.6547 C42.5509,48.6927 43.0349,50.0907 42.7199,51.5787 C41.9879,55.0227 40.3609,61.8697 40.3609,61.8697 C40.3609,61.8697 44.2619,72.0387 54.8419,72.0387 C65.4229,72.0387 69.0409,61.8677 69.0409,61.8677" id="Fill-12" fill="#5495CF"></path>
            </g>
        </g>
    </g>
</svg>