<?xml version="1.0" encoding="UTF-8"?>
<svg width="140px" height="140px" viewBox="0 0 140 140" version="1.1" xmlns="http://www.w3.org/2000/svg" xmlns:xlink="http://www.w3.org/1999/xlink">
    <title>pictogram/dark/environment/renewable-energy/group</title>
    <g id="pictogram/dark/environment/renewable-energy/group" stroke="none" stroke-width="1" fill="none" fill-rule="evenodd">
        <g id="renewable-energy-group">
            <path d="M140,70 C140,108.66 108.66,140 70,140 C31.34,140 0,108.66 0,70 C0,31.34 31.34,0 70,0 C108.66,0 140,31.34 140,70" id="circle" fill="#91BFE3"></path>
            <g id="picto" transform="translate(8.377924, 13.936366)">
                <path d="M31.2377758,40.3510337 C31.3177758,40.3490337 31.3967758,40.3410337 31.4727758,40.3240337 C33.1897758,40.1640337 34.0977758,38.5640337 34.2057758,37.0530337 C34.2097758,37.0020337 34.2097758,36.9510337 34.2077758,36.8990337 C34.2077758,36.8990337 33.2387758,18.1920337 33.0517758,14.4370337 C32.9587758,12.5600337 32.4297758,11.2240337 31.4797758,10.4630337 C30.7297758,9.86403367 29.9707758,9.81703367 29.5947758,9.83903367 C29.2197758,9.81703367 28.4617758,9.86403367 27.7117758,10.4630337 C26.7617758,11.2240337 26.2327758,12.5600337 26.1387758,14.4370337 C25.9527758,18.1920337 24.9837758,36.8990337 24.9837758,36.8990337 C24.9817758,36.9510337 24.9817758,37.0030337 24.9857758,37.0550337 C25.0987758,38.6090337 26.0557758,40.2930337 27.9297758,40.3530337 C27.9527758,40.3540337 27.9787758,40.3540337 28.0007758,40.3550337 L31.2007758,40.3550337 L31.2017758,40.3550337 L31.2027758,40.3550337 C31.2157758,40.3550337 31.2257758,40.3510337 31.2377758,40.3510337" id="Fill-3" fill="#5495CF"></path>
                <path d="M27.4975758,47.4799337 C27.4905758,47.4669337 27.4825758,47.4549337 27.4755758,47.4419337 L25.8335758,44.6939337 C25.8335758,44.6929337 25.8325758,44.6929337 25.8315758,44.6919337 C24.8575758,43.0609337 22.8825758,43.0889337 21.4575758,43.8069337 C21.4125758,43.8299337 21.3675758,43.8549337 21.3245758,43.8839337 C21.3245758,43.8839337 5.76157582,54.3079337 2.63357582,56.3949337 C1.07057582,57.4369337 0.193575817,58.5769337 0.0285758171,59.7819337 C-0.102424183,60.7339337 0.247575817,61.4089337 0.458575817,61.7199337 C0.632575817,62.0539337 1.06057582,62.6809337 1.96057582,63.0169337 C2.33057582,63.1549337 2.72957582,63.2239337 3.15757582,63.2239337 C4.04657582,63.2239337 5.05857582,62.9249337 6.17857582,62.3289337 C9.49757582,60.5639337 26.0545758,51.8029337 26.0545758,51.8029337 C26.1005758,51.7789337 26.1445758,51.7509337 26.1865758,51.7219337 C27.4775758,50.8179337 28.4385758,49.1069337 27.5035758,47.4909337 C27.5015758,47.4879337 27.4995758,47.4839337 27.4975758,47.4799337" id="Fill-5" fill="#5495CF"></path>
                <path d="M59.1405758,59.8593337 C58.9785758,58.6533337 58.1065758,57.5103337 56.5475758,56.4633337 C53.4255758,54.3663337 37.8975758,43.8903337 37.8975758,43.8903337 C37.8545758,43.8603337 37.8095758,43.8343337 37.7635758,43.8113337 C36.3745758,43.1073337 34.4415758,43.0583337 33.4225758,44.6273337 C33.4085758,44.6483337 33.3955758,44.6693337 33.3825758,44.6903337 L31.7325758,47.4313337 C31.7325758,47.4323337 31.7315758,47.4323337 31.7315758,47.4323337 C31.7295758,47.4363337 31.7285758,47.4403337 31.7265758,47.4433337 C31.6815758,47.5193337 31.6445758,47.6003337 31.6175758,47.6823337 C30.8685758,49.2363337 31.7715758,50.8393337 33.0095758,51.7113337 C33.0515758,51.7413337 33.0955758,51.7683337 33.1405758,51.7923337 C33.1405758,51.7923337 49.6685758,60.6093337 52.9825758,62.3853337 L52.9825758,62.3853337 C54.1065758,62.9883337 55.1205758,63.2903337 56.0135758,63.2903337 C56.4355758,63.2903337 56.8305758,63.2233337 57.1975758,63.0873337 C58.0975758,62.7543337 58.5285758,62.1293337 58.7035758,61.7963337 C58.9155758,61.4863337 59.2675758,60.8123337 59.1405758,59.8593337" id="Fill-7" fill="#5495CF"></path>
                <path d="M31.2660758,48.4458337 C30.5950758,48.4748337 30.0800758,49.0298337 30.0790758,49.6948337 L29.1240758,49.6948337 C29.1230758,49.0298337 28.6080758,48.4748337 27.9370758,48.4458337 C27.2660758,48.4158337 26.6650758,48.9508337 26.6350758,49.6408337 L24.3610758,102.293834 L34.8300758,102.293834 L32.5690758,49.6408337 C32.5390758,48.9508337 31.9570758,48.4198337 31.2660758,48.4458337" id="Fill-9" fill="#5495CF"></path>
                <path d="M96.6454758,49.6405337 C96.6154758,48.9505337 96.0264758,48.4195337 95.3424758,48.4455337 C94.6724758,48.4735337 94.1574758,49.0295337 94.1564758,49.6945337 L93.2014758,49.6945337 C93.2004758,49.0295337 92.6854758,48.4735337 92.0144758,48.4455337 C91.3354758,48.4145337 90.7414758,48.9505337 90.7114758,49.6405337 L88.4374758,102.292534 L98.9064758,102.292534 L96.6454758,49.6405337 Z" id="Fill-11" fill="#5495CF"></path>
                <path d="M95.5497758,40.3236337 C97.2667758,40.1636337 98.1747758,38.5636337 98.2827758,37.0526337 C98.2867758,37.0016337 98.2867758,36.9496337 98.2847758,36.8986337 C98.2847758,36.8986337 97.3157758,18.1916337 97.1287758,14.4366337 C97.0357758,12.5606337 96.5067758,11.2236337 95.5567758,10.4636337 C94.8057758,9.86363367 94.0477758,9.81663367 93.6727758,9.83863367 C93.2967758,9.81663367 92.5377758,9.86363367 91.7887758,10.4626337 C90.8387758,11.2236337 90.3097758,12.5606337 90.2167758,14.4366337 C90.0287758,18.1916337 89.0607758,36.8986337 89.0607758,36.8986337 C89.0577758,36.9506337 89.0587758,37.0026337 89.0627758,37.0536337 C89.1747758,38.6086337 90.1327758,40.2926337 92.0067758,40.3526337 C92.0297758,40.3536337 92.0537758,40.3536337 92.0777758,40.3546337 L95.2757758,40.3546337 L95.2797758,40.3546337 C95.2927758,40.3546337 95.3027758,40.3506337 95.3147758,40.3506337 C95.3947758,40.3476337 95.4727758,40.3406337 95.5497758,40.3236337" id="Fill-13" fill="#5495CF"></path>
                <path d="M91.5829758,47.4959337 C91.5729758,47.4779337 91.5629758,47.4589337 91.5519758,47.4409337 L89.9109758,44.6929337 C89.9099758,44.6929337 89.9089758,44.6919337 89.9089758,44.6909337 C88.9349758,43.0599337 86.9589758,43.0879337 85.5349758,43.8059337 C85.4889758,43.8289337 85.4449758,43.8549337 85.4019758,43.8839337 C85.4019758,43.8839337 69.8379758,54.3079337 66.7099758,56.3939337 C65.1469758,57.4359337 64.2709758,58.5759337 64.1049758,59.7819337 C63.9739758,60.7359337 64.3249758,61.4109337 64.5369758,61.7209337 C64.7109758,62.0559337 65.1399758,62.6809337 66.0369758,63.0159337 C66.4069758,63.1539337 66.8069758,63.2239337 67.2339758,63.2239337 C68.1239758,63.2239337 69.1339758,62.9239337 70.2549758,62.3289337 C73.5749758,60.5629337 90.1309758,51.8019337 90.1309758,51.8019337 C90.1769758,51.7779337 90.2219758,51.7509337 90.2639758,51.7209337 C91.5289758,50.8349337 92.4789758,49.1719337 91.5799758,47.4979337 L91.5829758,47.4959337 Z" id="Fill-15" fill="#5495CF"></path>
                <path d="M123.217276,59.8587337 C123.055276,58.6527337 122.183276,57.5097337 120.624276,56.4627337 C117.502276,54.3657337 101.974276,43.8897337 101.974276,43.8897337 C101.931276,43.8597337 101.886276,43.8337337 101.840276,43.8107337 C100.451276,43.1067337 98.5182758,43.0577337 97.4992758,44.6267337 C97.4852758,44.6477337 97.4722758,44.6687337 97.4592758,44.6897337 L95.8092758,47.4307337 L95.8082758,47.4317337 C95.8062758,47.4357337 95.8062758,47.4397337 95.8032758,47.4427337 C95.7592758,47.5187337 95.7222758,47.5997337 95.6942758,47.6817337 C94.9452758,49.2357337 95.8482758,50.8387337 97.0862758,51.7107337 C97.1282758,51.7407337 97.1722758,51.7677337 97.2172758,51.7917337 C97.2172758,51.7917337 113.745276,60.6087337 117.059276,62.3847337 L117.059276,62.3847337 C118.183276,62.9877337 119.197276,63.2897337 120.090276,63.2897337 C120.512276,63.2897337 120.907276,63.2227337 121.274276,63.0867337 C122.175276,62.7537337 122.605276,62.1287337 122.780276,61.7957337 C122.992276,61.4857337 123.345276,60.8117337 123.217276,59.8587337" id="Fill-17" fill="#5495CF"></path>
                <path d="M29.6020758,37.8549337 C26.2350758,37.8549337 23.4950758,40.5949337 23.4950758,43.9619337 C23.4950758,47.3299337 26.2350758,50.0689337 29.6020758,50.0689337 C32.9690758,50.0689337 35.7090758,47.3299337 35.7090758,43.9619337 C35.7090758,40.5949337 32.9690758,37.8549337 29.6020758,37.8549337" id="Fill-19" fill="#DAD2BD"></path>
                <path d="M93.6786758,37.8543337 C90.3116758,37.8543337 87.5716758,40.5943337 87.5716758,43.9613337 C87.5716758,47.3293337 90.3116758,50.0683337 93.6786758,50.0683337 C97.0456758,50.0683337 99.7856758,47.3293337 99.7856758,43.9613337 C99.7856758,40.5943337 97.0456758,37.8543337 93.6786758,37.8543337" id="Fill-21" fill="#DAD2BD"></path>
                <path d="M65.0058758,48.9995337 C64.9758758,48.3105337 64.4028758,47.7775337 63.7028758,47.8045337 C63.0328758,47.8325337 62.5178758,48.3885337 62.5168758,49.0535337 L60.7428758,49.0535337 C60.7418758,48.3885337 60.2268758,47.8335337 59.5558758,47.8045337 C58.8808758,47.7735337 58.2838758,48.3105337 58.2538758,48.9995337 L55.4508758,113.890534 L67.7928758,113.890534 L65.0058758,48.9995337 Z" id="Fill-23" fill="#2167AE"></path>
                <path d="M67.0487758,33.3779337 C67.0527758,33.3269337 67.0527758,33.2749337 67.0507758,33.2239337 C67.0507758,33.2239337 65.8517758,10.0579337 65.6197758,5.40693367 C65.5087758,3.17293367 64.8907758,1.58993367 63.7837758,0.704933666 C63.0437758,0.111933666 62.2157758,-0.0360663341 61.6367758,0.00693366594 C61.0587758,-0.0350663341 60.2307758,0.112933666 59.4907758,0.704933666 C58.3837758,1.58993367 57.7657758,3.17193367 57.6547758,5.40693367 C57.4237758,10.0579337 56.2237758,33.2239337 56.2237758,33.2239337 C56.2217758,33.2749337 56.2217758,33.3269337 56.2257758,33.3789337 C56.3197758,34.6719337 57.1357758,37.1189337 59.5907758,37.1879337 C59.6147758,37.1889337 59.6377758,37.1899337 59.6617758,37.1899337 L63.6227758,37.1899337 L63.6277758,37.1899337 C66.1167758,37.1899337 66.9547758,34.6969337 67.0487758,33.3779337" id="Fill-25" fill="#2167AE"></path>
                <path d="M58.7943758,46.4853337 C58.7813758,46.4613337 58.7683758,46.4383337 58.7543758,46.4153337 L56.7233758,43.0133337 C56.7223758,43.0133337 56.7223758,43.0123337 56.7223758,43.0123337 C55.4463758,40.8733337 52.8763758,41.4333337 51.6943758,42.0273337 C51.6483758,42.0513337 51.6043758,42.0773337 51.5613758,42.1053337 C51.5613758,42.1053337 32.2873758,55.0143337 28.4143758,57.5983337 L28.4143758,57.5973337 C26.5523758,58.8393337 25.5103758,60.1803337 25.3173758,61.5853337 C25.1883758,62.5253337 25.4873758,63.3133337 25.8203758,63.7883337 C26.0813758,64.3053337 26.6333758,64.9403337 27.5193758,65.2713337 C27.9443758,65.4303337 28.4043758,65.5093337 28.8983758,65.5093337 C29.9493758,65.5093337 31.1543758,65.1513337 32.4983758,64.4363337 C36.6093758,62.2503337 57.1123758,51.4003337 57.1123758,51.4003337 C57.1583758,51.3763337 57.2033758,51.3493337 57.2453758,51.3193337 C58.3083758,50.5743337 59.9923758,48.6163337 58.8063758,46.5073337 L58.7943758,46.4853337 Z" id="Fill-27" fill="#2167AE"></path>
                <path d="M97.9281758,61.6801337 C97.7401758,60.2751337 96.7031758,58.9301337 94.8461758,57.6821337 C90.9811758,55.0851337 71.7511758,42.1121337 71.7511758,42.1121337 C71.7081758,42.0831337 71.6631758,42.0561337 71.6171758,42.0331337 C70.4721758,41.4531337 67.9971758,40.8961337 66.6471758,42.9101337 C66.6231758,42.9441337 66.6001758,42.9781337 66.5801758,43.0141337 L64.5381758,46.4051337 C64.5381758,46.4061337 64.5371758,46.4061337 64.5371758,46.4061337 C63.2491758,48.5401337 64.9541758,50.5451337 66.0361758,51.3071337 C66.0781758,51.3371337 66.1221758,51.3641337 66.1681758,51.3881337 C66.1681758,51.3881337 86.6351758,62.3061337 90.7381758,64.5061337 L90.7391758,64.5061337 C92.0861758,65.2291337 93.2951758,65.5921337 94.3501758,65.5921337 C94.8381758,65.5921337 95.2941758,65.5141337 95.7141758,65.3581337 C96.6021758,65.0301337 97.1571758,64.3971337 97.4181758,63.8791337 C97.7531758,63.4061337 98.0541758,62.6191337 97.9281758,61.6801337" id="Fill-29" fill="#2167AE"></path>
                <path d="M61.6220758,34.6899337 C57.6160758,34.6899337 54.3570758,37.9489337 54.3570758,41.9539337 C54.3570758,45.9599337 57.6160758,49.2189337 61.6220758,49.2189337 C65.6280758,49.2189337 68.8870758,45.9599337 68.8870758,41.9539337 C68.8870758,37.9489337 65.6280758,34.6899337 61.6220758,34.6899337" id="Fill-31" fill="#DAD2BD"></path>
            </g>
        </g>
    </g>
</svg>