<?xml version="1.0" encoding="UTF-8"?>
<svg width="140px" height="140px" viewBox="0 0 140 140" version="1.1" xmlns="http://www.w3.org/2000/svg" xmlns:xlink="http://www.w3.org/1999/xlink">
    <title>pictogram/dark/environment/renewable-energy/plain</title>
    <g id="pictogram/dark/environment/renewable-energy/plain" stroke="none" stroke-width="1" fill="none" fill-rule="evenodd">
        <g id="renewable-energy">
            <path d="M140,70 C140,108.66 108.66,140 70,140 C31.34,140 0,108.66 0,70 C0,31.34 31.34,0 70,0 C108.66,0 140,31.34 140,70" id="circle" fill="#91BFE3"></path>
            <g id="picto" transform="translate(33.665027, 13.055045)">
                <path d="M39.7187727,48.9993545 C39.6887727,48.3093545 39.1157727,47.7773545 38.4157727,47.8043545 C37.7457727,47.8323545 37.2307727,48.3883545 37.2297727,49.0533545 L35.4557727,49.0533545 C35.4547727,48.3883545 34.9397727,47.8323545 34.2687727,47.8043545 C33.5937727,47.7723545 32.9967727,48.3093545 32.9667727,48.9993545 L30.1637727,113.890355 L42.5057727,113.890355 L39.7187727,48.9993545 Z" id="Fill-3" fill="#2167AE"></path>
                <path d="M40.3178727,5.40665452 C40.2068727,3.17265452 39.5888727,1.59065452 38.4818727,0.704654517 C37.7418727,0.112654517 36.9128727,-0.0353454825 36.3358727,0.00665451748 C35.7578727,-0.0353454825 34.9288727,0.112654517 34.1888727,0.703654517 C33.0818727,1.58965452 32.4638727,3.17265452 32.3528727,5.40665452 C32.1208727,10.0576545 30.9218727,33.2226545 30.9218727,33.2236545 C30.9188727,33.2756545 30.9198727,33.3266545 30.9228727,33.3786545 C31.0168727,34.6736545 31.8358727,37.1236545 34.2558727,37.1856545 C34.2678727,37.1866545 34.2788727,37.1876545 34.2908727,37.1876545 C34.3138727,37.1886545 34.3358727,37.1896545 34.3598727,37.1886545 L36.3418727,37.1896545 L36.3428727,37.1896545 C36.6738727,37.1896545 36.9918727,37.0576545 37.2268727,36.8236545 C37.2718727,36.7776545 37.2948727,36.7176545 37.3318727,36.6656545 C37.5598727,36.9756545 37.9098727,37.1886545 38.3208727,37.1896545 L38.3248727,37.1896545 C40.8148727,37.1896545 41.6518727,34.6966545 41.7468727,33.3776545 C41.7508727,33.3256545 41.7508727,33.2746545 41.7488727,33.2236545 C41.7488727,33.2236545 40.5488727,10.0576545 40.3178727,5.40665452" id="Fill-5" fill="#2167AE"></path>
                <path d="M33.5146727,46.4993545 C33.4996727,46.4703545 33.4836727,46.4423545 33.4666727,46.4143545 L31.4356727,43.0133545 C31.4356727,43.0123545 31.4346727,43.0123545 31.4346727,43.0123545 C30.1576727,40.8733545 27.5886727,41.4323545 26.4066727,42.0273545 C26.3606727,42.0503545 26.3166727,42.0763545 26.2736727,42.1053545 C26.2736727,42.1053545 6.99967273,55.0143545 3.12667273,57.5973545 C1.26467273,58.8383545 0.222672726,60.1803545 0.0306727257,61.5853545 C-0.0983272743,62.5253545 0.200672726,63.3133545 0.533672726,63.7873545 C0.793672726,64.3053545 1.34567273,64.9393545 2.23167273,65.2703545 C2.65667273,65.4293545 3.11667273,65.5083545 3.61067273,65.5083545 C4.66167273,65.5083545 5.86767273,65.1503545 7.21067273,64.4363545 C11.3216727,62.2493545 31.8256727,51.4003545 31.8256727,51.4003545 C31.8706727,51.3753545 31.9156727,51.3483545 31.9576727,51.3193545 C33.0206727,50.5743545 34.7046727,48.6153545 33.5176727,46.5053545 C33.5166727,46.5033545 33.5156727,46.5013545 33.5146727,46.4993545" id="Fill-7" fill="#2167AE"></path>
                <path d="M72.6405727,61.6795545 C72.4525727,60.2745545 71.4155727,58.9295545 69.5585727,57.6815545 C65.6935727,55.0855545 46.4635727,42.1115545 46.4635727,42.1115545 C46.4205727,42.0825545 46.3755727,42.0565545 46.3295727,42.0335545 C45.1845727,41.4525545 42.7095727,40.8955545 41.3595727,42.9095545 C41.3355727,42.9425545 41.3135727,42.9765545 41.2925727,43.0125545 L39.2505727,46.4045545 L39.2495727,46.4055545 C37.9615727,48.5395545 39.6665727,50.5445545 40.7485727,51.3065545 C40.7905727,51.3365545 40.8345727,51.3635545 40.8805727,51.3875545 C40.8805727,51.3875545 61.3475727,62.3065545 65.4505727,64.5065545 L65.4515727,64.5065545 C66.7985727,65.2285545 68.0075727,65.5915545 69.0625727,65.5915545 C69.5505727,65.5915545 70.0065727,65.5135545 70.4265727,65.3585545 C71.3155727,65.0295545 71.8695727,64.3955545 72.1315727,63.8785545 C72.4655727,63.4055545 72.7665727,62.6185545 72.6405727,61.6795545" id="Fill-9" fill="#2167AE"></path>
                <path d="M36.3349727,34.6893545 C32.3289727,34.6893545 29.0699727,37.9483545 29.0699727,41.9543545 C29.0699727,45.9603545 32.3289727,49.2183545 36.3349727,49.2183545 C40.3409727,49.2183545 43.5999727,45.9603545 43.5999727,41.9543545 C43.5999727,37.9483545 40.3409727,34.6893545 36.3349727,34.6893545" id="Fill-11" fill="#DAD2BD"></path>
            </g>
        </g>
    </g>
</svg>