<?xml version="1.0" encoding="UTF-8"?>
<svg width="140px" height="140px" viewBox="0 0 140 140" version="1.1" xmlns="http://www.w3.org/2000/svg" xmlns:xlink="http://www.w3.org/1999/xlink">
    <title>pictogram/light/environment/forest</title>
    <g id="pictogram/light/environment/forest" stroke="none" stroke-width="1" fill="none" fill-rule="evenodd">
        <g id="forest" transform="translate(-0.000100, 0.000000)">
            <path d="M140.045,70.022 C140.045,108.694 108.695,140.044 70.023,140.044 C31.35,140.044 0,108.694 0,70.022 C0,31.35 31.35,0 70.023,0 C108.695,0 140.045,31.35 140.045,70.022" id="circle" fill="#DDE4E3"></path>
            <g id="picto" transform="translate(2.987500, 36.315508)">
                <path d="M58.5956,91.789992 L56.9426,103.007992 C60.1486,103.457992 63.4196,103.706992 66.7496,103.706992 C67.2736,103.706992 67.7916,103.678992 68.3126,103.666992 L66.5626,91.789992 L58.5956,91.789992 Z" id="Fill-4" fill="#ECEEEF"></path>
                <g id="Group" transform="translate(0.000000, 1.477663)">
                    <path d="M10.35,54.959729 L36.968,57.165729 L37.955,54.214729 L15.521,49.618729 C14.559,49.421729 14.212,48.223729 14.919,47.540729 L17.881,44.683729 C20.44,42.212729 23.647,40.605729 27.155,40.036729 L98.136,28.520729 L97.049,21.796729 L26.068,33.313729 C21.187,34.105729 16.725,36.341729 13.164,39.777729 L5.166,47.497729 L0,52.482729 C0.723,54.877729 1.565,57.219729 2.529,59.499729 L5.406,56.723729 C6.725,55.450729 8.526,54.808729 10.35,54.959729" id="Fill-9" fill="#91BFE3"></path>
                    <path d="M22.1635,17.389529 L25.4925,23.199529 C25.7065,23.572529 25.5975,24.047529 25.2425,24.290529 L18.6765,28.779529 C17.8725,29.329529 17.6065,30.392529 18.0565,31.255529 L20.0165,35.031529 C20.0165,35.031529 21.8515,34.242529 23.3295,33.862529 L21.8765,31.080529 L33.8625,24.052529 L28.5185,16.591529 L22.1635,17.389529 Z" id="Fill-11" fill="#2167AE"></path>
                    <path d="M57.9999,12.044929 L55.4579,19.259929 C55.3449,19.581929 55.4009,19.938929 55.6069,20.209929 L60.2549,26.343929 L62.4519,25.121929 C63.3099,24.643929 64.3829,24.808929 65.0589,25.521929 L66.1599,26.684929 L58.4059,27.944929 C57.5899,28.077929 56.7599,27.807929 56.1779,27.220929 L48.6419,19.743929 L50.6039,16.035929 L56.2199,10.816929 L57.9999,12.044929 Z" id="Fill-13" fill="#2167AE"></path>
                    <path d="M56.7182,12.044929 L50.0952,20.080929 C49.9472,20.259929 49.9082,20.503929 49.9922,20.720929 L53.1282,28.802929 L52.6012,32.213929 C52.4472,33.210929 51.5102,33.889929 50.5152,33.725929 C49.3852,33.538929 48.7102,32.363929 49.1172,31.293929 L49.8632,29.333929 L43.2082,20.659929 C42.5382,19.785929 42.5572,18.565929 43.2542,17.713929 L43.7822,17.066929 L38.5272,17.066929 C38.5272,17.066929 39.9902,19.395929 38.2992,22.263929 C36.6072,25.130929 33.5652,30.032929 33.5652,30.032929 L39.3412,31.509929 C40.6612,31.847929 41.3632,33.289929 40.8142,34.536929 C40.3242,35.649929 39.0282,36.156929 37.9132,35.672929 L30.2512,32.341929 C29.4822,32.007929 29.1092,31.127929 29.4052,30.342929 L31.9582,23.564929 L24.4422,19.410929 C19.7432,16.814929 19.7362,10.062929 24.4282,7.45592896 C28.0262,5.45692896 32.1312,4.55792896 36.2352,4.86892896 L53.8162,6.20292896 L56.7182,12.044929 Z" id="Fill-26" fill="#5495CF"></path>
                    <path d="M63.4515,2.85822896 C63.1605,2.73722896 62.8615,2.71222896 62.5825,2.76422896 C62.3605,2.80622896 62.1355,2.72722896 62.0045,2.54322896 C61.1955,1.41122896 59.9975,0.549228961 58.5425,0.184228961 C57.0865,-0.181771039 55.6215,0.0132289615 54.3735,0.630228961 C54.1725,0.730228961 53.9385,0.691228961 53.7635,0.550228961 C53.5425,0.373228961 53.2665,0.254228961 52.9525,0.223228961 C52.2945,0.160228961 51.6555,0.551228961 51.4115,1.16622896 C51.2015,1.69522896 51.3055,2.25122896 51.6175,2.65422896 C51.7535,2.83222896 51.7785,3.06822896 51.6755,3.26622896 C51.3975,3.80122896 51.1935,4.38822896 51.0805,5.01822896 C50.5505,7.97722896 52.3165,10.925229 55.1755,11.853229 C58.5585,12.951229 62.1055,10.947229 62.9565,7.55622896 C63.0755,7.08322896 63.1355,6.60922896 63.1405,6.14222896 C63.1425,5.91922896 63.2775,5.72322896 63.4805,5.63222896 C63.9485,5.42122896 64.3055,4.97722896 64.3665,4.40622896 C64.4365,3.75222896 64.0575,3.11122896 63.4515,2.85822896" id="Fill-28" fill="#5495CF"></path>
                    <path d="M14.4931,66.343329 C13.8461,66.343329 13.2091,66.041329 12.8051,65.475329 C12.1391,64.543329 12.3551,63.249329 13.2861,62.583329 C15.7851,60.798329 15.9801,57.308329 15.9801,56.281329 L15.9801,15.607329 C15.9801,13.595329 16.8911,11.732329 18.4801,10.496329 C20.0691,9.26032896 22.0981,8.83532896 24.0501,9.33132896 C25.1591,9.61332896 25.8301,10.741329 25.5481,11.850329 C25.2661,12.960329 24.1391,13.631329 23.0291,13.349329 C22.3271,13.171329 21.5971,13.324329 21.0251,13.768329 C20.4531,14.213329 20.1251,14.883329 20.1251,15.607329 L20.1251,56.281329 C20.1251,58.239329 19.6941,63.101329 15.6961,65.957329 C15.3311,66.218329 14.9101,66.343329 14.4931,66.343329" id="Fill-30" fill="#5495CF"></path>
                    <path d="M59.9613,2.95482896 C59.3363,2.70982896 58.6813,2.82982896 58.2003,3.19182896 C57.9343,3.39182896 57.5643,3.29882896 57.4243,2.99682896 C57.1713,2.45082896 56.6513,2.03582896 55.9843,1.95582896 C55.1893,1.86182896 54.4043,2.32282896 54.1013,3.06482896 C53.8273,3.73682896 53.9773,4.44682896 54.3993,4.94082896 C54.6763,5.26482896 54.6773,5.73582896 54.4043,6.06382896 C54.1083,6.41982896 53.9103,6.86382896 53.8153,7.35482896 C53.8133,7.35782896 53.8013,7.35782896 53.8003,7.35982896 C53.7933,7.39282896 53.7893,7.42882896 53.7833,7.46382896 C53.7833,7.46582896 53.7823,7.46782896 53.7813,7.46982896 C53.7823,7.46982896 53.7823,7.47082896 53.7823,7.47082896 C53.7513,7.67582896 53.7532739,7.88682896 53.7532739,7.88682896 C53.7493,9.06282896 54.4803,10.158829 55.5983,10.575829 C57.1213,11.144829 58.7393,10.348829 59.2843,8.90682896 C59.3293,8.79682896 59.4023,8.52182896 59.4023,8.52182896 C59.4963,8.10382896 59.5013,7.68582896 59.4163,7.29182896 C59.3283,6.88582896 59.5683,6.48282896 59.9553,6.33082896 C60.5573,6.09382896 61.0233,5.53882896 61.0983,4.81882896 C61.1803,4.02282896 60.7063,3.24682896 59.9613,2.95482896" id="Fill-32" fill="#91BFE3"></path>
                </g>
                <path d="M116.955,2.19079195 C115.599,3.05279195 113.884,3.05279195 112.528,2.19079195 C110.238,0.735791952 107.5,-0.0772080482 104.567,0.00579195184 C97.075,0.218791952 91.009,6.35879195 90.882,13.854792 C90.859,15.246792 91.038,16.594792 91.391,17.869792 C91.83,19.451792 91.034,21.100792 89.542,21.787792 C84.579,24.075792 81.171,29.163792 81.345,35.025792 C81.565,42.447792 87.607,48.479792 95.029,48.688792 C96.725,48.735792 101.624,48.733792 106.208,48.721792 L103.763,36.481792 L109.598,36.481792 L112.095,48.701792 C113.363,48.697792 114.378,48.694792 114.963,48.694792 C116.914,48.694792 123.483,48.696792 128.592,48.696792 L131.438,44.266792 L133.896,44.266792 L131.054,48.696792 C132.598,48.696792 133.841,48.695792 134.52,48.693792 C134.831,48.693792 135.137,48.666792 135.443,48.645792 C136.491,43.830792 137.058,38.835792 137.058,33.706792 C137.058,21.757792 134.057,10.512792 128.779,0.671791952 C127.553,0.278791952 126.257,0.0437919518 124.913,0.00579195184 C121.981,-0.0772080482 119.244,0.735791952 116.955,2.19079195" id="Fill-17" fill="#2167AE"></path>
                <path d="M133.8959,44.266492 L131.4379,44.266492 L128.5919,48.697492 L129.4419,48.697492 L128.5919,48.697492 L122.5289,58.134492 C122.0739,58.844492 120.9789,58.330492 121.2319,57.526492 L124.0049,48.728492 L118.8079,48.728492 L115.5809,58.872492 C115.3509,59.596492 114.3089,59.539492 114.1569,58.796492 L112.0949,48.702492 L109.5979,36.481492 L103.7629,36.481492 L106.2079,48.721492 L107.6919,56.152492 C107.7589,56.502492 107.2699,56.657492 107.1229,56.331492 L103.7089,48.728492 L98.4439,48.728492 L105.0719,63.669492 C106.1119,66.012492 106.6489,68.547492 106.6489,71.111492 L106.6489,91.429492 C111.4059,88.160492 115.7319,84.316492 119.5409,80.001492 L119.5409,71.923492 C119.5409,68.478492 120.5289,65.106492 122.3889,62.207492 L131.0539,48.696492 L133.8959,44.266492 Z" id="Fill-20" fill="#91BFE3"></path>
                <path d="M58.5956,91.789992 L56.9426,103.007992 C60.1486,103.457992 63.4196,103.706992 66.7496,103.706992 C67.2736,103.706992 67.7916,103.678992 68.3126,103.666992 L66.5626,91.789992 L58.5956,91.789992 Z" id="Fill-22" fill="#91BFE3"></path>
                <path d="M78.1371,69.032992 C80.8221,60.793992 89.1651,57.070992 97.3921,58.942992 C93.1341,52.832992 81.9321,49.036992 71.1941,59.682992 C71.9351,50.610992 77.6161,42.661992 82.4121,40.665992 C75.1751,40.057992 65.5481,44.964992 62.5851,54.406992 C59.6231,44.964992 49.9951,40.057992 42.7581,40.665992 C47.5551,42.661992 53.2361,50.610992 53.9761,59.682992 C43.2381,49.036992 32.0371,52.832992 27.7791,58.942992 C36.0051,57.070992 44.3481,60.793992 47.0331,69.032992 C38.9801,66.718992 28.5961,71.917992 26.3751,81.421992 C49.3321,71.177992 58.5951,91.789992 58.5951,91.789992 L62.5851,91.789992 L66.5741,91.789992 C66.5741,91.789992 75.8381,71.177992 98.7961,81.421992 C96.5741,71.917992 86.1911,66.718992 78.1371,69.032992" id="Fill-24" fill="#5495CF"></path>
            </g>
        </g>
    </g>
</svg>