<?xml version="1.0" encoding="UTF-8"?>
<svg width="140px" height="140px" viewBox="0 0 140 140" version="1.1" xmlns="http://www.w3.org/2000/svg" xmlns:xlink="http://www.w3.org/1999/xlink">
    <title>pictogram/light/environment/monkey</title>
    <g id="pictogram/light/environment/monkey" stroke="none" stroke-width="1" fill="none" fill-rule="evenodd">
        <g id="monkey">
            <path d="M140,70 C140,108.66 108.66,140 70,140 C31.34,140 0,108.66 0,70 C0,31.34 31.34,0 70,0 C108.66,0 140,31.34 140,70" id="circle" fill="#DDE4E3"></path>
            <g id="picto" transform="translate(9.926000, 30.968234)">
                <path d="M28.9963,26.6020659 L34.0893,35.4900659 C34.4163,36.0610659 34.2503,36.7880659 33.7063,37.1590659 L23.6623,44.0270659 C22.4333,44.8680659 22.0253,46.4930659 22.7123,47.8140659 L25.7123,53.5910659 C25.7123,53.5910659 28.5193,52.3840659 30.7793,51.8030659 L28.5573,47.5470659 L46.8933,36.7960659 L38.7193,25.3820659 L28.9963,26.6020659 Z" id="Fill-7" fill="#2167AE"></path>
                <path d="M83.8191,18.4258659 L79.9311,29.4638659 C79.7571,29.9558659 79.8431,30.5018659 80.1581,30.9168659 L87.2691,40.3008659 L90.6301,38.4308659 C91.9431,37.7008659 93.5841,37.9528659 94.6171,39.0438659 L96.3011,40.8228659 L84.4401,42.7508659 C83.1921,42.9528659 81.9231,42.5408659 81.0321,41.6418659 L69.5041,30.2038659 L72.5051,24.5318659 L81.0971,16.5468659 L83.8191,18.4258659 Z" id="Fill-9" fill="#2167AE"></path>
                <path d="M129.9231,35.4455659 L34.6511,50.9635659 C31.6001,51.4585659 28.6651,52.3385659 25.8791,53.5415659 L25.8791,65.3455659 C29.0121,63.2665659 32.5471,61.8595659 36.3171,61.2485659 L129.6671,46.0445659 C129.8941,43.7455659 130.0151,41.4155659 130.0151,39.0575659 C130.0151,37.8455659 129.9841,36.6415659 129.9231,35.4455659" id="Fill-15" fill="#91BFE3"></path>
                <path d="M25.8787,85.3449659 L49.4127,87.2919659 C50.5547,87.3859659 51.6127,86.6889659 51.9767,85.6029659 C52.4517,84.1859659 51.5797,82.6729659 50.1157,82.3739659 L25.8787,77.4189659 L25.8787,85.3449659 Z" id="Fill-17" fill="#91BFE3"></path>
                <path d="M2.615,72.6618659 L0,75.1808659 C1.996,78.4868659 4.266,81.6058659 6.763,84.5258659 C7.975,84.1348659 9.262,83.9708659 10.56,84.0778659 L19.537,84.8208659 L19.537,76.1218659 L18.486,75.9078659 C17.011,75.6058659 16.48,73.7718659 17.564,72.7278659 L19.537,70.8278659 L19.537,57.0498659 C17.895,58.1848659 16.332,59.4478659 14.874,60.8528659 L2.615,72.6618659 Z" id="Fill-19" fill="#91BFE3"></path>
                <path d="M25.8787,85.3449659 L19.5367,84.8209659 L19.5367,86.0979659 C19.5367,87.4229659 19.3167,91.4179659 16.9627,94.2779659 C18.6337,95.5819659 20.3647,96.8099659 22.1527,97.9609659 C25.4477,93.7259659 25.8787,88.4929659 25.8787,86.0979659 L25.8787,85.3449659 Z" id="Fill-21" fill="#5495CF"></path>
                <path d="M31.8816,14.2746659 C28.8966,13.5156659 25.7916,14.1666659 23.3606,16.0566659 C20.9306,17.9466659 19.5366,20.7966659 19.5366,23.8766659 L19.5366,57.0496659 L19.5366,70.8276659 L19.5366,76.1226659 L19.5366,84.8206659 L25.8786,85.3446659 L25.8786,77.4196659 L25.8786,65.3456659 L25.8786,53.5416659 L25.8786,23.8766659 C25.8786,22.7686659 26.3806,21.7426659 27.2546,21.0626659 C28.1296,20.3826659 29.2466,20.1496659 30.3206,20.4216659 C32.0186,20.8536659 33.7436,19.8266659 34.1746,18.1286659 C34.6056,16.4316659 33.5786,14.7056659 31.8816,14.2746659" id="Fill-23" fill="#5495CF"></path>
                <path d="M81.8582,18.4258659 L71.7262,30.7188659 C71.5012,30.9928659 71.4412,31.3668659 71.5692,31.6978659 L76.3652,44.0628659 L75.5602,49.2808659 C75.3252,50.8058659 73.8902,51.8448659 72.3692,51.5928659 C70.6412,51.3068659 69.6082,49.5098659 70.2302,47.8738659 L71.3702,44.8748659 L61.1912,31.6048659 C60.1652,30.2688659 60.1942,28.4028659 61.2602,27.0978659 L62.0692,26.1088659 L54.0302,26.1088659 C54.0302,26.1088659 56.2672,29.6718659 53.6802,34.0588659 C51.0932,38.4448659 46.4392,45.9438659 46.4392,45.9438659 L55.2742,48.2028659 C57.2942,48.7198659 58.3682,50.9258659 57.5282,52.8348659 C56.7792,54.5358659 54.7962,55.3128659 53.0912,54.5718659 L41.3692,49.4768659 C40.1912,48.9648659 39.6222,47.6198659 40.0752,46.4178659 L43.9812,36.0488659 L32.4822,29.6948659 C25.2942,25.7228659 25.2822,15.3938659 32.4622,11.4058659 C37.9652,8.34786593 44.2452,6.97186593 50.5232,7.44786593 L77.4182,9.48786593 L81.8582,18.4258659 Z" id="Fill-25" fill="#5495CF"></path>
                <path d="M92.1594,4.37226593 C91.7144,4.18626593 91.2564,4.14826593 90.8294,4.22826593 C90.4904,4.29226593 90.1454,4.17126593 89.9454,3.89026593 C88.7084,2.15926593 86.8754,0.839265925 84.6494,0.281265925 C82.4224,-0.277734075 80.1814,0.020265925 78.2724,0.964265925 C77.9644,1.11726593 77.6054,1.05726593 77.3384,0.841265925 C76.9994,0.569265925 76.5774,0.387265925 76.0974,0.341265925 C75.0914,0.244265925 74.1134,0.843265925 73.7404,1.78326593 C73.4184,2.59226593 73.5784,3.44226593 74.0554,4.06026593 C74.2634,4.33126593 74.3024,4.69326593 74.1444,4.99626593 C73.7184,5.81426593 73.4064,6.71226593 73.2334,7.67626593 C72.4234,12.2032659 75.1244,16.7132659 79.4984,18.1322659 C84.6734,19.8112659 90.1004,16.7472659 91.4024,11.5592659 C91.5834,10.8352659 91.6754,10.1102659 91.6834,9.39526593 C91.6874,9.05426593 91.8914,8.75526593 92.2034,8.61526593 C92.9194,8.29326593 93.4654,7.61326593 93.5584,6.73926593 C93.6664,5.74026593 93.0864,4.75926593 92.1594,4.37226593" id="Fill-27" fill="#5495CF"></path>
                <path d="M84.1256,4.88176593 C83.7186,5.18776593 83.1526,5.04576593 82.9396,4.58376593 C82.5516,3.74876593 81.7566,3.11376593 80.7356,2.99176593 C79.5186,2.84776593 78.3186,3.55276593 77.8556,4.68776593 C77.4356,5.71676593 77.6656,6.80276593 78.3116,7.55776593 C78.7356,8.05276593 78.7366,8.77376593 78.3186,9.27576593 C77.8286,9.86576593 77.4926,10.5987659 77.3666,11.4267659 L77.3215667,12.0647659 C77.3166,13.8637659 78.4346,15.5407659 80.1446,16.1787659 C82.4746,17.0487659 84.9496,15.8307659 85.7846,13.6247659 L85.9646,13.0357659 C86.1086,12.3967659 86.1156,11.7577659 85.9856,11.1547659 C85.8506,10.5337659 86.2176,9.91676593 86.8096,9.68476593 C87.7316,9.32076593 88.4446,8.47376593 88.5586,7.37076593 C88.6846,6.15376593 87.9596,4.96676593 86.8196,4.51976593 C85.8626,4.14476593 84.8616,4.32876593 84.1256,4.88176593 Z" id="Fill-29" fill="#91BFE3"></path>
            </g>
        </g>
    </g>
</svg>