<?xml version="1.0" encoding="UTF-8"?>
<svg width="140px" height="140px" viewBox="0 0 140 140" version="1.1" xmlns="http://www.w3.org/2000/svg" xmlns:xlink="http://www.w3.org/1999/xlink">
    <title>pictogram/light/environment/recycle</title>
    <g id="pictogram/light/environment/recycle" stroke="none" stroke-width="1" fill="none" fill-rule="evenodd">
        <g id="recycle">
            <path d="M140,70 C140,108.66 108.66,140 70,140 C31.34,140 0,108.66 0,70 C0,31.34 31.34,0 70,0 C108.66,0 140,31.34 140,70" id="circle" fill="#DDE4E3"></path>
            <g id="picto" transform="translate(30.650800, 24.326300)">
                <path d="M54.3862,91.3471 C60.2332,91.3471 63.4792,87.5191 64.4102,81.1121 C66.3882,67.4981 72.7642,16.1631 72.7642,16.1631 L5.9342,16.1631 C7.0482,25.1081 12.5232,68.9641 14.2882,81.1121 C15.2192,87.5191 18.4652,91.3471 24.3122,91.3471 L54.3862,91.3471 Z" id="Fill-3" fill="#2167AE"></path>
                <path d="M54.4487,59.9253 C53.8407,58.6923 52.8667,56.8593 51.7057,54.7613 C51.3887,54.2053 50.6857,54.0063 50.1377,54.3173 C49.8697,54.4653 49.6757,54.7093 49.5907,55.0053 C49.5047,55.3013 49.5397,55.6133 49.6887,55.8833 C50.2187,56.8383 51.5417,59.2433 52.3797,60.9493 C52.4277,61.0453 52.4527,61.1433 52.4527,61.2403 C52.4527,61.6273 52.1367,61.9413 51.7487,61.9413 L44.0227,61.9413 L44.5267,61.4383 C44.7467,61.2183 44.8677,60.9283 44.8677,60.6203 C44.8677,60.3143 44.7467,60.0253 44.5277,59.8063 C44.3127,59.5903 44.0257,59.4713 43.7177,59.4703 L43.7147,59.4703 C43.4067,59.4703 43.1177,59.5893 42.9007,59.8053 L40.4277,62.2783 C40.2107,62.4953 40.0907,62.7853 40.0907,63.0933 C40.0907,63.4023 40.2107,63.6923 40.4277,63.9103 L42.8967,66.3823 C43.1147,66.6003 43.4057,66.7213 43.7157,66.7213 C44.0207,66.7213 44.3187,66.5973 44.5317,66.3813 C44.9787,65.9293 44.9767,65.1983 44.5277,64.7543 L44.0237,64.2493 L51.7487,64.2493 C53.4097,64.2493 54.7607,62.8993 54.7607,61.2403 C54.7607,60.7853 54.6557,60.3423 54.4487,59.9253" id="Fill-5" fill="#91BFE3"></path>
                <path d="M36.2192,61.941 L26.9462,61.941 C26.5602,61.941 26.2452,61.627 26.2452,61.241 C26.2452,61.14 26.2692,61.04 26.3172,60.944 C27.5642,58.402 29.2272,55.441 30.8702,52.577 L31.0242,53.193 C31.1692,53.809 31.7822,54.181 32.4232,54.039 C33.0392,53.884 33.4172,53.257 33.2652,52.641 L32.4182,49.244 C32.2612,48.63 31.6362,48.255 31.0252,48.406 L27.6222,49.25 C27.0102,49.406 26.6342,50.033 26.7852,50.649 C26.9432,51.265 27.5562,51.634 28.1872,51.488 L28.9422,51.3 C27.3432,54.086 25.5782,57.225 24.2452,59.929 C24.0412,60.349 23.9382,60.79 23.9382,61.241 C23.9382,62.899 25.2872,64.249 26.9462,64.249 L36.2192,64.249 C36.8562,64.249 37.3742,63.731 37.3742,63.095 C37.3742,62.459 36.8562,61.941 36.2192,61.941" id="Fill-7" fill="#91BFE3"></path>
                <path d="M45.6879,48.5303 L44.9209,48.3403 C44.6279,48.2633 44.3209,48.3083 44.0569,48.4643 C43.7879,48.6233 43.5969,48.8783 43.5199,49.1813 C43.3689,49.7993 43.7459,50.4253 44.3599,50.5773 L47.7689,51.4263 C47.8609,51.4473 47.9459,51.4573 48.0359,51.4573 C48.2399,51.4573 48.4399,51.4013 48.6379,51.2873 C48.8949,51.1303 49.0829,50.8723 49.1539,50.5823 L50.0009,47.1873 C50.1529,46.5703 49.7729,45.9433 49.1569,45.7903 C48.8659,45.7143 48.5609,45.7583 48.2969,45.9133 C48.0279,46.0723 47.8369,46.3263 47.7589,46.6313 L47.6079,47.2423 C46.8749,45.9693 46.1529,44.7243 45.4609,43.5433 L45.4229,43.4763 C44.1459,41.2843 42.9399,39.2133 41.9999,37.5053 C41.4469,36.5003 40.4559,35.9003 39.3489,35.9003 C38.2399,35.9003 37.2479,36.5003 36.6949,37.5053 C35.8259,39.0793 34.6449,41.1153 33.3939,43.2713 L33.0359,43.8883 C32.8859,44.1393 32.8429,44.4293 32.9149,44.7043 C32.9919,45.0023 33.1909,45.2583 33.4779,45.4243 C33.7319,45.5723 34.0369,45.6093 34.3349,45.5283 C34.6469,45.4443 34.9169,45.2373 35.0779,44.9583 C36.3939,42.7013 37.7459,40.3713 38.7139,38.6213 C38.9769,38.1493 39.7209,38.1543 39.9799,38.6213 C40.8959,40.2753 42.0049,42.1843 43.4729,44.7003 C44.1829,45.9243 44.9279,47.2133 45.6879,48.5303" id="Fill-9" fill="#91BFE3"></path>
                <path d="M64.6923,0 L57.6693,0 L21.0283,0 L14.0053,0 C9.5473,0 5.9343,3.614 5.9343,8.072 L5.9343,14.347 L72.7643,14.347 L72.7643,8.072 C72.7643,3.614 69.1503,0 64.6923,0" id="Fill-11" fill="#91BFE3"></path>
                <path d="M75.552,22.434 L3.146,22.434 C1.409,22.434 0,21.026 0,19.288 L0,17.376 C0,15.638 1.409,14.23 3.146,14.23 L75.552,14.23 C77.289,14.23 78.698,15.638 78.698,17.376 L78.698,19.288 C78.698,21.026 77.289,22.434 75.552,22.434" id="Fill-13" fill="#5495CF"></path>
            </g>
        </g>
    </g>
</svg>