<?xml version="1.0" encoding="UTF-8"?>
<svg width="140px" height="140px" viewBox="0 0 140 140" version="1.1" xmlns="http://www.w3.org/2000/svg" xmlns:xlink="http://www.w3.org/1999/xlink">
    <title>pictogram/light/mobility/scooter</title>
    <g id="pictogram/light/mobility/scooter" stroke="none" stroke-width="1" fill="none" fill-rule="evenodd">
        <g id="scooter" transform="translate(-0.000400, 0.000000)">
            <path d="M140,70 C140,108.66 108.66,140 70,140 C31.341,140 0,108.66 0,70 C0,31.34 31.341,0 70,0 C108.66,0 140,31.34 140,70" id="circle" fill="#DDE4E3"></path>
            <g id="picto" transform="translate(43.319300, 22.208500)">
                <path d="M18.4893,74.8005 L18.4313,89.1365 C18.4313,93.6715 22.1223,97.3615 26.6573,97.3615 C31.1923,97.3615 34.8823,93.6715 34.8823,89.1365 L34.8823,74.8005 L18.4893,74.8005 Z" id="Fill-4" fill="#2167AE"></path>
                <polygon id="Fill-6" fill="#5495CF" points="11.9671 76.7935 42.2881 76.7935 42.2881 58.6025 11.9671 58.6025"></polygon>
                <path d="M39.002,25.5187 L14.361,25.5187 C6.442,25.5187 0,31.9607 0,39.8787 L0,70.6807 C0,78.5987 6.442,85.0407 14.361,85.0407 L16.401,85.0407 L16.401,70.6807 C16.401,65.0117 21.013,60.3997 26.682,60.3997 C32.351,60.3997 36.962,65.0117 36.962,70.6807 L36.962,85.0407 L39.002,85.0407 C46.92,85.0407 53.362,78.5987 53.362,70.6807 L53.362,39.8787 C53.362,31.9607 46.92,25.5187 39.002,25.5187" id="Fill-8" fill="#2167AE"></path>
                <path d="M45.1621,11.318 L39.3901,11.318 C38.6251,4.952 33.2001,0 26.6321,0 C20.0631,0 14.6401,4.952 13.8761,11.318 L8.2001,11.318 C7.3501,11.318 6.6611,12.007 6.6611,12.858 C6.6611,13.709 7.3501,14.398 8.2001,14.398 L13.8761,14.398 C14.6401,20.763 20.0631,25.716 26.6321,25.716 C33.2001,25.716 38.6251,20.763 39.3901,14.398 L45.1621,14.398 C46.0131,14.398 46.7021,13.709 46.7021,12.858 C46.7021,12.007 46.0131,11.318 45.1621,11.318" id="Fill-9" fill="#5495CF"></path>
                <path d="M26.6807,21.7545 C21.7757,21.7545 17.7847,17.7635 17.7847,12.8585 C17.7847,7.9525 21.7757,3.9615 26.6807,3.9615 C31.5867,3.9615 35.5777,7.9525 35.5777,12.8585 C35.5777,17.7635 31.5867,21.7545 26.6807,21.7545" id="Fill-10" fill="#ECEEEF"></path>
                <path d="M26.6318,31.967 C25.7178,31.967 24.9768,32.708 24.9768,33.623 L24.9768,53.507 C24.9768,54.421 25.7178,55.162 26.6318,55.162 C27.5468,55.162 28.2878,54.421 28.2878,53.507 L28.2878,33.623 C28.2878,32.708 27.5468,31.967 26.6318,31.967" id="Fill-11" fill="#5495CF"></path>
            </g>
        </g>
    </g>
</svg>