<?xml version="1.0" encoding="UTF-8"?>
<svg width="140px" height="140px" viewBox="0 0 140 140" version="1.1" xmlns="http://www.w3.org/2000/svg" xmlns:xlink="http://www.w3.org/1999/xlink">
    <title>pictogram/light/mobility/train</title>
    <g id="pictogram/light/mobility/train" stroke="none" stroke-width="1" fill="none" fill-rule="evenodd">
        <g id="train" transform="translate(-0.000400, 0.000000)">
            <path d="M140,70 C140,108.66 108.66,140 70,140 C31.341,140 0,108.66 0,70 C0,31.34 31.341,0 70,0 C108.66,0 140,31.34 140,70" id="circle" fill="#DDE4E3"></path>
            <g id="picto" transform="translate(41.832400, 24.477000)">
                <path d="M1.6559,96.103 C1.3409,96.103 1.0199,96.013 0.7389,95.825 C-0.0221,95.317 -0.2281,94.289 0.2789,93.529 L13.5359,73.645 C14.0459,72.884 15.0739,72.679 15.8319,73.186 C16.5929,73.693 16.7989,74.721 16.2919,75.482 L3.0349,95.366 C2.7159,95.844 2.1899,96.103 1.6559,96.103" id="Fill-4" fill="#5495CF"></path>
                <path d="M54.6822,96.103 C54.1472,96.103 53.6222,95.844 53.3022,95.366 L40.0472,75.482 C39.5402,74.721 39.7452,73.693 40.5062,73.186 C41.2672,72.679 42.2942,72.884 42.8032,73.645 L56.0582,93.529 C56.5652,94.29 56.3602,95.317 55.5992,95.825 C55.3172,96.013 54.9972,96.103 54.6822,96.103" id="Fill-6" fill="#5495CF"></path>
                <path d="M3.311,46.396 L53.025,46.396 L53.025,16.568 L3.311,16.568 L3.311,46.396 Z M56.337,14.912 C56.337,14.911 56.336,14.911 56.336,14.91 C56.334,6.688 49.645,0 41.425,0 L14.914,0 C6.691,0 0.001,6.69 0,14.912 L0,14.915 L0,48.05 L0,48.052 L0,61.308 C0,69.53 6.69,76.219 14.914,76.219 L41.425,76.219 C49.647,76.219 56.336,69.53 56.336,61.308 L56.336,48.053 C56.336,48.052 56.337,48.052 56.337,48.052 L56.337,14.912 Z" id="Fill-8" fill="#2167AE"></path>
                <path d="M14.9127,54.6797 C11.2517,54.6797 8.2847,57.6457 8.2847,61.3077 C8.2847,64.9687 11.2517,67.9357 14.9127,67.9357 C18.5727,67.9357 21.5407,64.9687 21.5407,61.3077 C21.5407,57.6457 18.5727,54.6797 14.9127,54.6797" id="Fill-10" fill="#91BFE3"></path>
                <path d="M41.4244,54.6797 C37.7634,54.6797 34.7964,57.6457 34.7964,61.3077 C34.7964,64.9687 37.7634,67.9357 41.4244,67.9357 C45.0844,67.9357 48.0524,64.9687 48.0524,61.3077 C48.0524,57.6457 45.0844,54.6797 41.4244,54.6797" id="Fill-11" fill="#91BFE3"></path>
                <path d="M38.11,6.6281 L18.226,6.6281 C17.312,6.6281 16.571,7.3701 16.571,8.2841 C16.571,9.1981 17.312,9.9401 18.226,9.9401 L38.11,9.9401 C39.024,9.9401 39.765,9.1981 39.765,8.2841 C39.765,7.3701 39.024,6.6281 38.11,6.6281" id="Fill-12" fill="#5495CF"></path>
            </g>
        </g>
    </g>
</svg>